%
M48
M72
T01C0.01378
T02C0.02362
T03C0.02756
T04C0.03150
T05C0.03937
T06C0.05600
T07C0.11811
%
T01
X205862Y193978
T02
X207737Y176478
X201800Y168978
X201800Y158978
X191487Y167728
X161800Y153978
X151800Y153978
X136800Y168978
X151800Y187728
X151800Y218978
X143675Y218978
X141800Y233978
X127737Y229291
X151800Y250541
X161800Y218978
X204925Y218353
X254300Y228978
X256800Y218978
X256800Y203978
X283363Y189603
X256800Y173978
X241800Y168978
X251800Y151478
X246800Y141478
X240550Y141166
X233362Y122728
X264300Y131478
X291800Y217416
T03
X266800Y213978
X266800Y193978
X226800Y153978
X226800Y143978
X216800Y143978
X206800Y143978
X206800Y153978
X216800Y153978
T04
X281800Y273978
X281800Y283978
X281800Y293978
X281800Y303978
X306800Y318978
X306800Y328978
X116800Y293978
X116800Y283978
T05
X116800Y273978
X116800Y263978
X116800Y253978
X116800Y243978
X116800Y233978
X116800Y223978
X116800Y203978
X116800Y193978
X116800Y183978
X116800Y173978
X116800Y163978
X116800Y153978
X116800Y143978
X116800Y133978
X116800Y113978
X116800Y103978
X116800Y93978
X116800Y83978
X116800Y73978
X116800Y63978
X116800Y53978
X116800Y43978
X136800Y33978
X136800Y23978
X146800Y23978
X156800Y23978
X166800Y23978
X176800Y23978
X186800Y23978
X196800Y23978
X206800Y23978
X216800Y23978
X226800Y23978
X236800Y23978
X246800Y23978
X256800Y23978
X266800Y23978
X276800Y23978
X286800Y23978
X296800Y23978
X306800Y23978
X306800Y33978
X296800Y33978
X286800Y33978
X276800Y33978
X266800Y33978
X256800Y33978
X246800Y33978
X236800Y33978
X226800Y33978
X216800Y33978
X206800Y33978
X196800Y33978
X186800Y33978
X176800Y33978
X166800Y33978
X156800Y33978
X146800Y33978
X306800Y63978
X306800Y73978
X306800Y83978
X306800Y93978
X306800Y103978
X306800Y113978
X306800Y123978
X306800Y133978
X306800Y153978
X306800Y163978
X306800Y173978
X306800Y183978
X306800Y193978
X306800Y203978
X306800Y213978
X306800Y223978
X306800Y238978
X306800Y248978
X306800Y258978
X306800Y268978
X306800Y278978
X306800Y288978
X306800Y298978
X306800Y308978
T06
X85688Y203103
X85688Y186603
X85688Y170103
X85688Y153603
X63987Y153603
X63987Y170103
X63987Y186603
X63987Y203103
X61487Y115353
X61487Y98853
X83188Y98853
X83188Y115353
X82250Y62228
X82250Y45728
X60550Y45728
X60550Y62228
T07
X31810Y53978
X32747Y107103
X35247Y153603
X35247Y203103
M30
