G75*
%MOIN*%
%OFA0B0*%
%FSLAX25Y25*%
%IPPOS*%
%LPD*%
%AMOC8*
5,1,8,0,0,1.08239X$1,22.5*
%
%ADD10R,0.04724X0.03150*%
%ADD11R,0.03150X0.04724*%
%ADD12R,0.18504X0.14961*%
%ADD13R,0.04799X0.08799*%
%ADD14R,0.14173X0.08661*%
%ADD15R,0.08661X0.02362*%
%ADD16R,0.04500X0.03000*%
%ADD17R,0.14961X0.18504*%
D10*
X0151800Y0160435D03*
X0151800Y0167522D03*
X0161800Y0167522D03*
X0161800Y0160435D03*
X0161800Y0225435D03*
X0161800Y0232522D03*
X0151800Y0232522D03*
X0151800Y0225435D03*
X0241800Y0162522D03*
X0241800Y0155435D03*
D11*
X0270757Y0131478D03*
X0277843Y0131478D03*
X0280757Y0198978D03*
X0287843Y0198978D03*
X0287843Y0211478D03*
X0280757Y0211478D03*
D12*
X0143414Y0117728D03*
X0170186Y0117728D03*
X0167686Y0294603D03*
X0140914Y0294603D03*
D13*
X0142702Y0241778D03*
X0151800Y0241778D03*
X0160898Y0241778D03*
X0160898Y0176778D03*
X0151800Y0176778D03*
X0142702Y0176778D03*
D14*
X0151800Y0201179D03*
X0151800Y0266179D03*
D15*
X0261564Y0156478D03*
X0261564Y0151478D03*
X0261564Y0146478D03*
X0261564Y0141478D03*
X0282036Y0141478D03*
X0282036Y0146478D03*
X0282036Y0151478D03*
X0282036Y0156478D03*
D16*
X0250650Y0183978D03*
X0250650Y0188978D03*
X0250650Y0193978D03*
X0250650Y0198978D03*
X0250650Y0203978D03*
X0250650Y0208978D03*
X0250650Y0213978D03*
X0250650Y0218978D03*
X0250650Y0223978D03*
X0212950Y0223978D03*
X0212950Y0218978D03*
X0212950Y0213978D03*
X0212950Y0208978D03*
X0212950Y0203978D03*
X0212950Y0198978D03*
X0212950Y0193978D03*
X0212950Y0188978D03*
X0212950Y0183978D03*
D17*
X0188050Y0257155D03*
X0188050Y0283927D03*
M02*
