G75*
%MOIN*%
%OFA0B0*%
%FSLAX25Y25*%
%IPPOS*%
%LPD*%
%AMOC8*
5,1,8,0,0,1.08239X$1,22.5*
%
%ADD10C,0.00600*%
%ADD11C,0.00800*%
%ADD12R,0.05906X0.09843*%
%ADD13C,0.00787*%
%ADD14R,0.00787X0.07874*%
%ADD15R,0.05906X0.03937*%
%ADD16C,0.00500*%
%ADD17C,0.00400*%
%ADD18R,0.02000X0.02000*%
%ADD19C,0.00300*%
%ADD20R,0.07874X0.00787*%
%ADD21R,0.03937X0.05906*%
D10*
X0149438Y0162797D02*
X0149438Y0165160D01*
X0154162Y0165160D02*
X0154162Y0162797D01*
X0159438Y0162797D02*
X0159438Y0165160D01*
X0164162Y0165160D02*
X0164162Y0162797D01*
X0217350Y0181678D02*
X0246350Y0181678D01*
X0246350Y0226178D01*
X0217350Y0226178D01*
X0217350Y0181678D01*
X0239438Y0160160D02*
X0239438Y0157797D01*
X0244162Y0157797D02*
X0244162Y0160160D01*
X0240650Y0185578D02*
X0240652Y0185670D01*
X0240658Y0185761D01*
X0240668Y0185852D01*
X0240682Y0185943D01*
X0240700Y0186033D01*
X0240722Y0186122D01*
X0240747Y0186209D01*
X0240777Y0186296D01*
X0240810Y0186382D01*
X0240847Y0186465D01*
X0240887Y0186548D01*
X0240931Y0186628D01*
X0240979Y0186706D01*
X0241030Y0186783D01*
X0241084Y0186856D01*
X0241141Y0186928D01*
X0241202Y0186997D01*
X0241265Y0187063D01*
X0241331Y0187126D01*
X0241400Y0187187D01*
X0241472Y0187244D01*
X0241545Y0187298D01*
X0241622Y0187349D01*
X0241700Y0187397D01*
X0241780Y0187441D01*
X0241863Y0187481D01*
X0241946Y0187518D01*
X0242032Y0187551D01*
X0242119Y0187581D01*
X0242206Y0187606D01*
X0242295Y0187628D01*
X0242385Y0187646D01*
X0242476Y0187660D01*
X0242567Y0187670D01*
X0242658Y0187676D01*
X0242750Y0187678D01*
X0242842Y0187676D01*
X0242933Y0187670D01*
X0243024Y0187660D01*
X0243115Y0187646D01*
X0243205Y0187628D01*
X0243294Y0187606D01*
X0243381Y0187581D01*
X0243468Y0187551D01*
X0243554Y0187518D01*
X0243637Y0187481D01*
X0243720Y0187441D01*
X0243800Y0187397D01*
X0243878Y0187349D01*
X0243955Y0187298D01*
X0244028Y0187244D01*
X0244100Y0187187D01*
X0244169Y0187126D01*
X0244235Y0187063D01*
X0244298Y0186997D01*
X0244359Y0186928D01*
X0244416Y0186856D01*
X0244470Y0186783D01*
X0244521Y0186706D01*
X0244569Y0186628D01*
X0244613Y0186548D01*
X0244653Y0186465D01*
X0244690Y0186382D01*
X0244723Y0186296D01*
X0244753Y0186209D01*
X0244778Y0186122D01*
X0244800Y0186033D01*
X0244818Y0185943D01*
X0244832Y0185852D01*
X0244842Y0185761D01*
X0244848Y0185670D01*
X0244850Y0185578D01*
X0244848Y0185486D01*
X0244842Y0185395D01*
X0244832Y0185304D01*
X0244818Y0185213D01*
X0244800Y0185123D01*
X0244778Y0185034D01*
X0244753Y0184947D01*
X0244723Y0184860D01*
X0244690Y0184774D01*
X0244653Y0184691D01*
X0244613Y0184608D01*
X0244569Y0184528D01*
X0244521Y0184450D01*
X0244470Y0184373D01*
X0244416Y0184300D01*
X0244359Y0184228D01*
X0244298Y0184159D01*
X0244235Y0184093D01*
X0244169Y0184030D01*
X0244100Y0183969D01*
X0244028Y0183912D01*
X0243955Y0183858D01*
X0243878Y0183807D01*
X0243800Y0183759D01*
X0243720Y0183715D01*
X0243637Y0183675D01*
X0243554Y0183638D01*
X0243468Y0183605D01*
X0243381Y0183575D01*
X0243294Y0183550D01*
X0243205Y0183528D01*
X0243115Y0183510D01*
X0243024Y0183496D01*
X0242933Y0183486D01*
X0242842Y0183480D01*
X0242750Y0183478D01*
X0242658Y0183480D01*
X0242567Y0183486D01*
X0242476Y0183496D01*
X0242385Y0183510D01*
X0242295Y0183528D01*
X0242206Y0183550D01*
X0242119Y0183575D01*
X0242032Y0183605D01*
X0241946Y0183638D01*
X0241863Y0183675D01*
X0241780Y0183715D01*
X0241700Y0183759D01*
X0241622Y0183807D01*
X0241545Y0183858D01*
X0241472Y0183912D01*
X0241400Y0183969D01*
X0241331Y0184030D01*
X0241265Y0184093D01*
X0241202Y0184159D01*
X0241141Y0184228D01*
X0241084Y0184300D01*
X0241030Y0184373D01*
X0240979Y0184450D01*
X0240931Y0184528D01*
X0240887Y0184608D01*
X0240847Y0184691D01*
X0240810Y0184774D01*
X0240777Y0184860D01*
X0240747Y0184947D01*
X0240722Y0185034D01*
X0240700Y0185123D01*
X0240682Y0185213D01*
X0240668Y0185304D01*
X0240658Y0185395D01*
X0240652Y0185486D01*
X0240650Y0185578D01*
X0283119Y0196616D02*
X0285481Y0196616D01*
X0285481Y0201341D02*
X0283119Y0201341D01*
X0283119Y0209116D02*
X0285481Y0209116D01*
X0285481Y0213841D02*
X0283119Y0213841D01*
X0275481Y0133841D02*
X0273119Y0133841D01*
X0273119Y0129116D02*
X0275481Y0129116D01*
X0271762Y0102752D02*
X0271762Y0101684D01*
X0271762Y0099549D02*
X0271762Y0095278D01*
X0270694Y0095278D02*
X0272830Y0095278D01*
X0274991Y0096346D02*
X0274991Y0098481D01*
X0276059Y0099549D01*
X0278194Y0099549D01*
X0279262Y0098481D01*
X0279262Y0097414D01*
X0274991Y0097414D01*
X0274991Y0096346D02*
X0276059Y0095278D01*
X0278194Y0095278D01*
X0281437Y0095278D02*
X0281437Y0099549D01*
X0284640Y0099549D01*
X0285707Y0098481D01*
X0285707Y0095278D01*
X0288950Y0096346D02*
X0290018Y0095278D01*
X0288950Y0096346D02*
X0288950Y0100616D01*
X0287882Y0099549D02*
X0290018Y0099549D01*
X0292179Y0101684D02*
X0293247Y0101684D01*
X0293247Y0095278D01*
X0292179Y0095278D02*
X0294315Y0095278D01*
X0296476Y0096346D02*
X0297544Y0095278D01*
X0300747Y0095278D01*
X0300747Y0094211D02*
X0299679Y0093143D01*
X0298612Y0093143D01*
X0300747Y0094211D02*
X0300747Y0099549D01*
X0296476Y0099549D02*
X0296476Y0096346D01*
X0281410Y0091184D02*
X0281410Y0084778D01*
X0278208Y0084778D01*
X0277140Y0085846D01*
X0277140Y0087981D01*
X0278208Y0089049D01*
X0281410Y0089049D01*
X0274965Y0087981D02*
X0274965Y0086914D01*
X0270694Y0086914D01*
X0270694Y0087981D02*
X0271762Y0089049D01*
X0273897Y0089049D01*
X0274965Y0087981D01*
X0273897Y0084778D02*
X0271762Y0084778D01*
X0270694Y0085846D01*
X0270694Y0087981D01*
X0268519Y0089049D02*
X0265317Y0089049D01*
X0264249Y0087981D01*
X0265317Y0086914D01*
X0267452Y0086914D01*
X0268519Y0085846D01*
X0267452Y0084778D01*
X0264249Y0084778D01*
X0262074Y0085846D02*
X0262074Y0091184D01*
X0262087Y0095278D02*
X0259952Y0095278D01*
X0261020Y0095278D02*
X0261020Y0099549D01*
X0259952Y0099549D01*
X0261020Y0101684D02*
X0261020Y0102752D01*
X0257790Y0101684D02*
X0256723Y0100616D01*
X0256723Y0095278D01*
X0255655Y0098481D02*
X0257790Y0098481D01*
X0253493Y0098481D02*
X0251358Y0098481D01*
X0252426Y0100616D02*
X0252426Y0095278D01*
X0249183Y0095278D02*
X0244912Y0095278D01*
X0244912Y0101684D01*
X0249183Y0101684D01*
X0252426Y0100616D02*
X0253493Y0101684D01*
X0247048Y0098481D02*
X0244912Y0098481D01*
X0257803Y0091184D02*
X0257803Y0085846D01*
X0258871Y0084778D01*
X0261006Y0084778D01*
X0262074Y0085846D01*
X0261006Y0078549D02*
X0257803Y0078549D01*
X0257803Y0072143D01*
X0257803Y0074278D02*
X0261006Y0074278D01*
X0262074Y0075346D01*
X0262074Y0077481D01*
X0261006Y0078549D01*
X0265317Y0078549D02*
X0267452Y0078549D01*
X0268519Y0077481D01*
X0268519Y0074278D01*
X0265317Y0074278D01*
X0264249Y0075346D01*
X0265317Y0076414D01*
X0268519Y0076414D01*
X0270694Y0077481D02*
X0270694Y0075346D01*
X0271762Y0074278D01*
X0274965Y0074278D01*
X0277140Y0075346D02*
X0277140Y0077481D01*
X0278208Y0078549D01*
X0280343Y0078549D01*
X0281410Y0077481D01*
X0281410Y0076414D01*
X0277140Y0076414D01*
X0277140Y0075346D02*
X0278208Y0074278D01*
X0280343Y0074278D01*
X0274965Y0078549D02*
X0271762Y0078549D01*
X0270694Y0077481D01*
X0255628Y0076414D02*
X0255628Y0075346D01*
X0254561Y0074278D01*
X0252426Y0074278D01*
X0251358Y0075346D01*
X0252426Y0077481D02*
X0254561Y0077481D01*
X0255628Y0076414D01*
X0255628Y0079616D02*
X0254561Y0080684D01*
X0252426Y0080684D01*
X0251358Y0079616D01*
X0251358Y0078549D01*
X0252426Y0077481D01*
X0265317Y0095278D02*
X0268519Y0095278D01*
X0265317Y0095278D02*
X0264249Y0096346D01*
X0264249Y0098481D01*
X0265317Y0099549D01*
X0268519Y0099549D01*
X0270694Y0099549D02*
X0271762Y0099549D01*
X0164162Y0227797D02*
X0164162Y0230160D01*
X0159438Y0230160D02*
X0159438Y0227797D01*
X0154162Y0227797D02*
X0154162Y0230160D01*
X0149438Y0230160D02*
X0149438Y0227797D01*
X0149066Y0322716D02*
X0145863Y0322716D01*
X0144795Y0323784D01*
X0145863Y0324851D01*
X0149066Y0324851D01*
X0149066Y0325919D02*
X0149066Y0322716D01*
X0151241Y0322716D02*
X0154444Y0322716D01*
X0155511Y0323784D01*
X0154444Y0324851D01*
X0152309Y0324851D01*
X0151241Y0325919D01*
X0152309Y0326986D01*
X0155511Y0326986D01*
X0157686Y0325919D02*
X0158754Y0326986D01*
X0160889Y0326986D01*
X0161957Y0325919D01*
X0161957Y0322716D01*
X0164132Y0322716D02*
X0167335Y0322716D01*
X0168402Y0323784D01*
X0168402Y0325919D01*
X0167335Y0326986D01*
X0164132Y0326986D01*
X0164132Y0329121D02*
X0164132Y0322716D01*
X0157686Y0322716D02*
X0157686Y0329121D01*
X0149066Y0325919D02*
X0147998Y0326986D01*
X0145863Y0326986D01*
X0142620Y0328054D02*
X0142620Y0323784D01*
X0141553Y0322716D01*
X0138350Y0322716D01*
X0138350Y0329121D01*
X0141553Y0329121D01*
X0142620Y0328054D01*
X0170577Y0325919D02*
X0170577Y0323784D01*
X0171645Y0322716D01*
X0173780Y0322716D01*
X0174848Y0323784D01*
X0174848Y0325919D01*
X0173780Y0326986D01*
X0171645Y0326986D01*
X0170577Y0325919D01*
X0177023Y0323784D02*
X0178091Y0324851D01*
X0181293Y0324851D01*
X0181293Y0325919D02*
X0181293Y0322716D01*
X0178091Y0322716D01*
X0177023Y0323784D01*
X0178091Y0326986D02*
X0180226Y0326986D01*
X0181293Y0325919D01*
X0183468Y0326986D02*
X0183468Y0322716D01*
X0183468Y0324851D02*
X0185604Y0326986D01*
X0186671Y0326986D01*
X0188840Y0325919D02*
X0188840Y0323784D01*
X0189907Y0322716D01*
X0193110Y0322716D01*
X0193110Y0329121D01*
X0193110Y0326986D02*
X0189907Y0326986D01*
X0188840Y0325919D01*
X0201731Y0329121D02*
X0201731Y0322716D01*
X0206001Y0322716D01*
X0208176Y0323784D02*
X0208176Y0328054D01*
X0209244Y0329121D01*
X0211379Y0329121D01*
X0212447Y0328054D01*
X0214622Y0329121D02*
X0214622Y0322716D01*
X0217824Y0322716D01*
X0218892Y0323784D01*
X0218892Y0328054D01*
X0217824Y0329121D01*
X0214622Y0329121D01*
X0212447Y0323784D02*
X0211379Y0322716D01*
X0209244Y0322716D01*
X0208176Y0323784D01*
X0227513Y0323784D02*
X0228580Y0322716D01*
X0230715Y0322716D01*
X0231783Y0323784D01*
X0231783Y0324851D01*
X0230715Y0325919D01*
X0228580Y0325919D01*
X0227513Y0326986D01*
X0227513Y0328054D01*
X0228580Y0329121D01*
X0230715Y0329121D01*
X0231783Y0328054D01*
X0233958Y0325919D02*
X0233958Y0323784D01*
X0235026Y0322716D01*
X0238229Y0322716D01*
X0240404Y0322716D02*
X0240404Y0326986D01*
X0240404Y0324851D02*
X0242539Y0326986D01*
X0243606Y0326986D01*
X0245775Y0325919D02*
X0245775Y0323784D01*
X0246843Y0322716D01*
X0248978Y0322716D01*
X0250045Y0324851D02*
X0245775Y0324851D01*
X0245775Y0325919D02*
X0246843Y0326986D01*
X0248978Y0326986D01*
X0250045Y0325919D01*
X0250045Y0324851D01*
X0252220Y0324851D02*
X0256491Y0324851D01*
X0256491Y0325919D01*
X0255423Y0326986D01*
X0253288Y0326986D01*
X0252220Y0325919D01*
X0252220Y0323784D01*
X0253288Y0322716D01*
X0255423Y0322716D01*
X0258666Y0322716D02*
X0258666Y0326986D01*
X0261869Y0326986D01*
X0262936Y0325919D01*
X0262936Y0322716D01*
X0271557Y0323784D02*
X0272625Y0322716D01*
X0274760Y0322716D01*
X0275827Y0323784D01*
X0278002Y0322716D02*
X0278002Y0326986D01*
X0280138Y0329121D01*
X0282273Y0326986D01*
X0282273Y0322716D01*
X0284448Y0322716D02*
X0284448Y0329121D01*
X0288718Y0322716D01*
X0288718Y0329121D01*
X0282273Y0325919D02*
X0278002Y0325919D01*
X0275827Y0328054D02*
X0274760Y0329121D01*
X0272625Y0329121D01*
X0271557Y0328054D01*
X0271557Y0323784D01*
X0297339Y0322716D02*
X0300542Y0322716D01*
X0301609Y0323784D01*
X0301609Y0324851D01*
X0300542Y0325919D01*
X0297339Y0325919D01*
X0297339Y0329121D02*
X0297339Y0322716D01*
X0300542Y0325919D02*
X0301609Y0326986D01*
X0301609Y0328054D01*
X0300542Y0329121D01*
X0297339Y0329121D01*
X0303784Y0325919D02*
X0303784Y0323784D01*
X0304852Y0322716D01*
X0306987Y0322716D01*
X0308055Y0323784D01*
X0308055Y0325919D01*
X0306987Y0326986D01*
X0304852Y0326986D01*
X0303784Y0325919D01*
X0310230Y0323784D02*
X0311297Y0324851D01*
X0314500Y0324851D01*
X0314500Y0325919D02*
X0314500Y0322716D01*
X0311297Y0322716D01*
X0310230Y0323784D01*
X0311297Y0326986D02*
X0313433Y0326986D01*
X0314500Y0325919D01*
X0316675Y0326986D02*
X0316675Y0322716D01*
X0316675Y0324851D02*
X0318811Y0326986D01*
X0319878Y0326986D01*
X0322047Y0325919D02*
X0322047Y0323784D01*
X0323114Y0322716D01*
X0326317Y0322716D01*
X0326317Y0329121D01*
X0326317Y0326986D02*
X0323114Y0326986D01*
X0322047Y0325919D01*
X0238229Y0326986D02*
X0235026Y0326986D01*
X0233958Y0325919D01*
D11*
X0055652Y0034669D02*
X0006046Y0034669D01*
X0006046Y0073288D01*
X0056439Y0073288D01*
X0056439Y0068957D01*
X0056589Y0087794D02*
X0056589Y0092125D01*
X0056589Y0087794D02*
X0006983Y0087794D01*
X0006983Y0126413D01*
X0057377Y0126413D01*
X0057377Y0122082D01*
X0059089Y0142544D02*
X0059089Y0146875D01*
X0059089Y0142544D02*
X0009483Y0142544D01*
X0009483Y0214163D01*
X0059877Y0214163D01*
X0059877Y0209832D01*
X0138898Y0195978D02*
X0138898Y0181978D01*
X0164702Y0181978D01*
X0164702Y0195978D01*
X0138898Y0195978D01*
X0138898Y0246978D02*
X0138898Y0260978D01*
X0164702Y0260978D01*
X0164702Y0246978D01*
X0138898Y0246978D01*
X0257800Y0217478D02*
X0257800Y0190478D01*
X0257803Y0190259D01*
X0257811Y0190040D01*
X0257824Y0189821D01*
X0257843Y0189603D01*
X0257867Y0189385D01*
X0257896Y0189168D01*
X0257930Y0188951D01*
X0257970Y0188736D01*
X0258015Y0188521D01*
X0258066Y0188308D01*
X0258121Y0188096D01*
X0258182Y0187885D01*
X0258247Y0187676D01*
X0258318Y0187469D01*
X0258394Y0187263D01*
X0258475Y0187059D01*
X0258560Y0186857D01*
X0258651Y0186658D01*
X0258746Y0186461D01*
X0258847Y0186266D01*
X0258952Y0186073D01*
X0259061Y0185883D01*
X0259175Y0185696D01*
X0259294Y0185512D01*
X0259417Y0185331D01*
X0259545Y0185153D01*
X0259677Y0184977D01*
X0259813Y0184806D01*
X0259953Y0184637D01*
X0260097Y0184472D01*
X0260245Y0184311D01*
X0260397Y0184153D01*
X0260553Y0183999D01*
X0260713Y0183849D01*
X0260876Y0183702D01*
X0261043Y0183560D01*
X0261213Y0183422D01*
X0261387Y0183288D01*
X0261563Y0183158D01*
X0261743Y0183033D01*
X0261926Y0182912D01*
X0262112Y0182796D01*
X0262300Y0182684D01*
X0262491Y0182577D01*
X0262685Y0182474D01*
X0262881Y0182376D01*
X0263079Y0182283D01*
X0263280Y0182195D01*
X0263483Y0182112D01*
X0263688Y0182033D01*
X0263894Y0181960D01*
X0264102Y0181892D01*
X0264312Y0181829D01*
X0264524Y0181771D01*
X0264736Y0181718D01*
X0264950Y0181670D01*
X0265165Y0181628D01*
X0265381Y0181591D01*
X0265598Y0181559D01*
X0265816Y0181532D01*
X0266034Y0181511D01*
X0266252Y0181495D01*
X0266471Y0181484D01*
X0266690Y0181479D01*
X0266910Y0181479D01*
X0267129Y0181484D01*
X0267348Y0181495D01*
X0267566Y0181511D01*
X0267784Y0181532D01*
X0268002Y0181559D01*
X0268219Y0181591D01*
X0268435Y0181628D01*
X0268650Y0181670D01*
X0268864Y0181718D01*
X0269076Y0181771D01*
X0269288Y0181829D01*
X0269498Y0181892D01*
X0269706Y0181960D01*
X0269912Y0182033D01*
X0270117Y0182112D01*
X0270320Y0182195D01*
X0270521Y0182283D01*
X0270719Y0182376D01*
X0270915Y0182474D01*
X0271109Y0182577D01*
X0271300Y0182684D01*
X0271488Y0182796D01*
X0271674Y0182912D01*
X0271857Y0183033D01*
X0272037Y0183158D01*
X0272213Y0183288D01*
X0272387Y0183422D01*
X0272557Y0183560D01*
X0272724Y0183702D01*
X0272887Y0183849D01*
X0273047Y0183999D01*
X0273203Y0184153D01*
X0273355Y0184311D01*
X0273503Y0184472D01*
X0273647Y0184637D01*
X0273787Y0184806D01*
X0273923Y0184977D01*
X0274055Y0185153D01*
X0274183Y0185331D01*
X0274306Y0185512D01*
X0274425Y0185696D01*
X0274539Y0185883D01*
X0274648Y0186073D01*
X0274753Y0186266D01*
X0274854Y0186461D01*
X0274949Y0186658D01*
X0275040Y0186857D01*
X0275125Y0187059D01*
X0275206Y0187263D01*
X0275282Y0187469D01*
X0275353Y0187676D01*
X0275418Y0187885D01*
X0275479Y0188096D01*
X0275534Y0188308D01*
X0275585Y0188521D01*
X0275630Y0188736D01*
X0275670Y0188951D01*
X0275704Y0189168D01*
X0275733Y0189385D01*
X0275757Y0189603D01*
X0275776Y0189821D01*
X0275789Y0190040D01*
X0275797Y0190259D01*
X0275800Y0190478D01*
X0275800Y0217478D01*
X0275797Y0217697D01*
X0275789Y0217916D01*
X0275776Y0218135D01*
X0275757Y0218353D01*
X0275733Y0218571D01*
X0275704Y0218788D01*
X0275670Y0219005D01*
X0275630Y0219220D01*
X0275585Y0219435D01*
X0275534Y0219648D01*
X0275479Y0219860D01*
X0275418Y0220071D01*
X0275353Y0220280D01*
X0275282Y0220487D01*
X0275206Y0220693D01*
X0275125Y0220897D01*
X0275040Y0221099D01*
X0274949Y0221298D01*
X0274854Y0221495D01*
X0274753Y0221690D01*
X0274648Y0221883D01*
X0274539Y0222073D01*
X0274425Y0222260D01*
X0274306Y0222444D01*
X0274183Y0222625D01*
X0274055Y0222803D01*
X0273923Y0222979D01*
X0273787Y0223150D01*
X0273647Y0223319D01*
X0273503Y0223484D01*
X0273355Y0223645D01*
X0273203Y0223803D01*
X0273047Y0223957D01*
X0272887Y0224107D01*
X0272724Y0224254D01*
X0272557Y0224396D01*
X0272387Y0224534D01*
X0272213Y0224668D01*
X0272037Y0224798D01*
X0271857Y0224923D01*
X0271674Y0225044D01*
X0271488Y0225160D01*
X0271300Y0225272D01*
X0271109Y0225379D01*
X0270915Y0225482D01*
X0270719Y0225580D01*
X0270521Y0225673D01*
X0270320Y0225761D01*
X0270117Y0225844D01*
X0269912Y0225923D01*
X0269706Y0225996D01*
X0269498Y0226064D01*
X0269288Y0226127D01*
X0269076Y0226185D01*
X0268864Y0226238D01*
X0268650Y0226286D01*
X0268435Y0226328D01*
X0268219Y0226365D01*
X0268002Y0226397D01*
X0267784Y0226424D01*
X0267566Y0226445D01*
X0267348Y0226461D01*
X0267129Y0226472D01*
X0266910Y0226477D01*
X0266690Y0226477D01*
X0266471Y0226472D01*
X0266252Y0226461D01*
X0266034Y0226445D01*
X0265816Y0226424D01*
X0265598Y0226397D01*
X0265381Y0226365D01*
X0265165Y0226328D01*
X0264950Y0226286D01*
X0264736Y0226238D01*
X0264524Y0226185D01*
X0264312Y0226127D01*
X0264102Y0226064D01*
X0263894Y0225996D01*
X0263688Y0225923D01*
X0263483Y0225844D01*
X0263280Y0225761D01*
X0263079Y0225673D01*
X0262881Y0225580D01*
X0262685Y0225482D01*
X0262491Y0225379D01*
X0262300Y0225272D01*
X0262112Y0225160D01*
X0261926Y0225044D01*
X0261743Y0224923D01*
X0261563Y0224798D01*
X0261387Y0224668D01*
X0261213Y0224534D01*
X0261043Y0224396D01*
X0260876Y0224254D01*
X0260713Y0224107D01*
X0260553Y0223957D01*
X0260397Y0223803D01*
X0260245Y0223645D01*
X0260097Y0223484D01*
X0259953Y0223319D01*
X0259813Y0223150D01*
X0259677Y0222979D01*
X0259545Y0222803D01*
X0259417Y0222625D01*
X0259294Y0222444D01*
X0259175Y0222260D01*
X0259061Y0222073D01*
X0258952Y0221883D01*
X0258847Y0221690D01*
X0258746Y0221495D01*
X0258651Y0221298D01*
X0258560Y0221099D01*
X0258475Y0220897D01*
X0258394Y0220693D01*
X0258318Y0220487D01*
X0258247Y0220280D01*
X0258182Y0220071D01*
X0258121Y0219860D01*
X0258066Y0219648D01*
X0258015Y0219435D01*
X0257970Y0219220D01*
X0257930Y0219005D01*
X0257896Y0218788D01*
X0257867Y0218571D01*
X0257843Y0218353D01*
X0257824Y0218135D01*
X0257811Y0217916D01*
X0257803Y0217697D01*
X0257800Y0217478D01*
X0055652Y0039000D02*
X0055652Y0034669D01*
D12*
X0009392Y0053978D03*
X0010330Y0107103D03*
X0012830Y0178353D03*
D13*
X0137902Y0127177D02*
X0137902Y0108280D01*
X0148926Y0108280D01*
X0148926Y0127177D01*
X0137902Y0127177D01*
X0144595Y0122453D02*
X0144595Y0113004D01*
X0149713Y0113004D01*
X0149713Y0122453D01*
X0144595Y0122453D01*
X0149713Y0122453D02*
X0163887Y0122453D01*
X0163887Y0113004D01*
X0169005Y0113004D01*
X0169005Y0122453D01*
X0163887Y0122453D01*
X0164674Y0127177D02*
X0164674Y0108280D01*
X0175698Y0108280D01*
X0175698Y0127177D01*
X0164674Y0127177D01*
X0148926Y0127177D01*
X0149713Y0113004D02*
X0163887Y0113004D01*
X0164674Y0108280D02*
X0148926Y0108280D01*
X0178601Y0251643D02*
X0197499Y0251643D01*
X0197499Y0262667D01*
X0178601Y0262667D01*
X0178601Y0251643D01*
X0183326Y0258336D02*
X0192774Y0258336D01*
X0192774Y0263454D01*
X0183326Y0263454D01*
X0183326Y0258336D01*
X0178601Y0262667D02*
X0178601Y0278415D01*
X0197499Y0278415D01*
X0197499Y0289439D01*
X0178601Y0289439D01*
X0178601Y0278415D01*
X0183326Y0277628D02*
X0183326Y0282746D01*
X0192774Y0282746D01*
X0192774Y0277628D01*
X0183326Y0277628D01*
X0183326Y0263454D01*
X0192774Y0263454D02*
X0192774Y0277628D01*
X0197499Y0278415D02*
X0197499Y0262667D01*
X0173198Y0285155D02*
X0173198Y0304052D01*
X0162174Y0304052D01*
X0162174Y0285155D01*
X0173198Y0285155D01*
X0166505Y0289879D02*
X0166505Y0299328D01*
X0161387Y0299328D01*
X0161387Y0289879D01*
X0166505Y0289879D01*
X0161387Y0289879D02*
X0147213Y0289879D01*
X0147213Y0299328D01*
X0142095Y0299328D01*
X0142095Y0289879D01*
X0147213Y0289879D01*
X0146426Y0285155D02*
X0146426Y0304052D01*
X0135402Y0304052D01*
X0135402Y0285155D01*
X0146426Y0285155D01*
X0162174Y0285155D01*
X0161387Y0299328D02*
X0147213Y0299328D01*
X0146426Y0304052D02*
X0162174Y0304052D01*
D14*
X0173985Y0294603D03*
X0134615Y0294603D03*
X0137115Y0117728D03*
X0176485Y0117728D03*
D15*
X0172351Y0117728D03*
X0141249Y0117728D03*
X0138749Y0294603D03*
X0169851Y0294603D03*
D16*
X0121800Y0296478D02*
X0121800Y0291478D01*
X0119300Y0288978D01*
X0121800Y0286478D01*
X0121800Y0281478D01*
X0119300Y0278978D01*
X0121800Y0276478D01*
X0121800Y0271478D01*
X0119300Y0268978D01*
X0121800Y0266478D01*
X0121800Y0261478D01*
X0119300Y0258978D01*
X0121800Y0256478D01*
X0121800Y0251478D01*
X0119300Y0248978D01*
X0121800Y0246478D01*
X0121800Y0241478D01*
X0119300Y0238978D01*
X0121800Y0236478D01*
X0121800Y0231478D01*
X0119300Y0228978D01*
X0121800Y0226478D01*
X0121800Y0221478D01*
X0119300Y0218978D01*
X0114300Y0218978D01*
X0111800Y0221478D01*
X0111800Y0226478D01*
X0114300Y0228978D01*
X0111800Y0231478D01*
X0111800Y0236478D01*
X0114300Y0238978D01*
X0111800Y0241478D01*
X0111800Y0246478D01*
X0114300Y0248978D01*
X0111800Y0251478D01*
X0111800Y0256478D01*
X0114300Y0258978D01*
X0111800Y0261478D01*
X0111800Y0266478D01*
X0114300Y0268978D01*
X0111800Y0271478D01*
X0111800Y0276478D01*
X0114300Y0278978D01*
X0111800Y0281478D01*
X0111800Y0286478D01*
X0114300Y0288978D01*
X0111800Y0291478D01*
X0111800Y0296478D01*
X0114300Y0298978D01*
X0119300Y0298978D01*
X0121800Y0296478D01*
X0119300Y0208978D02*
X0114300Y0208978D01*
X0111800Y0206478D01*
X0111800Y0201478D01*
X0114300Y0198978D01*
X0111800Y0196478D01*
X0111800Y0191478D01*
X0114300Y0188978D01*
X0111800Y0186478D01*
X0111800Y0181478D01*
X0114300Y0178978D01*
X0111800Y0176478D01*
X0111800Y0171478D01*
X0114300Y0168978D01*
X0111800Y0166478D01*
X0111800Y0161478D01*
X0114300Y0158978D01*
X0111800Y0156478D01*
X0111800Y0151478D01*
X0114300Y0148978D01*
X0111800Y0146478D01*
X0111800Y0141478D01*
X0114300Y0138978D01*
X0111800Y0136478D01*
X0111800Y0131478D01*
X0114300Y0128978D01*
X0119300Y0128978D01*
X0121800Y0131478D01*
X0121800Y0136478D01*
X0119300Y0138978D01*
X0121800Y0141478D01*
X0121800Y0146478D01*
X0119300Y0148978D01*
X0121800Y0151478D01*
X0121800Y0156478D01*
X0119300Y0158978D01*
X0121800Y0161478D01*
X0121800Y0166478D01*
X0119300Y0168978D01*
X0121800Y0171478D01*
X0121800Y0176478D01*
X0119300Y0178978D01*
X0121800Y0181478D01*
X0121800Y0186478D01*
X0119300Y0188978D01*
X0121800Y0191478D01*
X0121800Y0196478D01*
X0119300Y0198978D01*
X0121800Y0201478D01*
X0121800Y0206478D01*
X0119300Y0208978D01*
X0201800Y0156478D02*
X0201800Y0141478D01*
X0204300Y0138978D01*
X0209300Y0138978D01*
X0211800Y0141478D01*
X0214300Y0138978D01*
X0219300Y0138978D01*
X0221800Y0141478D01*
X0224300Y0138978D01*
X0229300Y0138978D01*
X0231800Y0141478D01*
X0231800Y0158978D01*
X0224300Y0158978D01*
X0221800Y0156478D01*
X0219300Y0158978D01*
X0214300Y0158978D01*
X0211800Y0156478D01*
X0209300Y0158978D01*
X0204300Y0158978D01*
X0201800Y0156478D01*
X0121800Y0116478D02*
X0121800Y0111478D01*
X0119300Y0108978D01*
X0121800Y0106478D01*
X0121800Y0101478D01*
X0119300Y0098978D01*
X0121800Y0096478D01*
X0121800Y0091478D01*
X0119300Y0088978D01*
X0121800Y0086478D01*
X0121800Y0081478D01*
X0119300Y0078978D01*
X0121800Y0076478D01*
X0121800Y0071478D01*
X0119300Y0068978D01*
X0121800Y0066478D01*
X0121800Y0061478D01*
X0119300Y0058978D01*
X0121800Y0056478D01*
X0121800Y0051478D01*
X0119300Y0048978D01*
X0121800Y0046478D01*
X0121800Y0041478D01*
X0119300Y0038978D01*
X0114300Y0038978D01*
X0111800Y0041478D01*
X0111800Y0046478D01*
X0114300Y0048978D01*
X0111800Y0051478D01*
X0111800Y0056478D01*
X0114300Y0058978D01*
X0111800Y0061478D01*
X0111800Y0066478D01*
X0114300Y0068978D01*
X0111800Y0071478D01*
X0111800Y0076478D01*
X0114300Y0078978D01*
X0111800Y0081478D01*
X0111800Y0086478D01*
X0114300Y0088978D01*
X0111800Y0091478D01*
X0111800Y0096478D01*
X0114300Y0098978D01*
X0111800Y0101478D01*
X0111800Y0106478D01*
X0114300Y0108978D01*
X0111800Y0111478D01*
X0111800Y0116478D01*
X0114300Y0118978D01*
X0119300Y0118978D01*
X0121800Y0116478D01*
X0134300Y0038978D02*
X0131800Y0036478D01*
X0131800Y0021478D01*
X0134300Y0018978D01*
X0139300Y0018978D01*
X0141800Y0021478D01*
X0144300Y0018978D01*
X0149300Y0018978D01*
X0151800Y0021478D01*
X0154300Y0018978D01*
X0159300Y0018978D01*
X0161800Y0021478D01*
X0164300Y0018978D01*
X0169300Y0018978D01*
X0171800Y0021478D01*
X0174300Y0018978D01*
X0179300Y0018978D01*
X0181800Y0021478D01*
X0184300Y0018978D01*
X0189300Y0018978D01*
X0191800Y0021478D01*
X0194300Y0018978D01*
X0199300Y0018978D01*
X0201800Y0021478D01*
X0204300Y0018978D01*
X0209300Y0018978D01*
X0211800Y0021478D01*
X0214300Y0018978D01*
X0219300Y0018978D01*
X0221800Y0021478D01*
X0224300Y0018978D01*
X0229300Y0018978D01*
X0231800Y0021478D01*
X0234300Y0018978D01*
X0239300Y0018978D01*
X0241800Y0021478D01*
X0244300Y0018978D01*
X0249300Y0018978D01*
X0251800Y0021478D01*
X0254300Y0018978D01*
X0259300Y0018978D01*
X0261800Y0021478D01*
X0264300Y0018978D01*
X0269300Y0018978D01*
X0271800Y0021478D01*
X0274300Y0018978D01*
X0279300Y0018978D01*
X0281800Y0021478D01*
X0284300Y0018978D01*
X0289300Y0018978D01*
X0291800Y0021478D01*
X0294300Y0018978D01*
X0299300Y0018978D01*
X0301800Y0021478D01*
X0304300Y0018978D01*
X0309300Y0018978D01*
X0311800Y0021478D01*
X0311800Y0036478D01*
X0309300Y0038978D01*
X0304300Y0038978D01*
X0301800Y0036478D01*
X0299300Y0038978D01*
X0294300Y0038978D01*
X0291800Y0036478D01*
X0289300Y0038978D01*
X0284300Y0038978D01*
X0281800Y0036478D01*
X0279300Y0038978D01*
X0274300Y0038978D01*
X0271800Y0036478D01*
X0269300Y0038978D01*
X0264300Y0038978D01*
X0261800Y0036478D01*
X0259300Y0038978D01*
X0254300Y0038978D01*
X0251800Y0036478D01*
X0249300Y0038978D01*
X0244300Y0038978D01*
X0241800Y0036478D01*
X0239300Y0038978D01*
X0234300Y0038978D01*
X0231800Y0036478D01*
X0229300Y0038978D01*
X0224300Y0038978D01*
X0221800Y0036478D01*
X0219300Y0038978D01*
X0214300Y0038978D01*
X0211800Y0036478D01*
X0209300Y0038978D01*
X0204300Y0038978D01*
X0201800Y0036478D01*
X0199300Y0038978D01*
X0194300Y0038978D01*
X0191800Y0036478D01*
X0189300Y0038978D01*
X0184300Y0038978D01*
X0181800Y0036478D01*
X0179300Y0038978D01*
X0174300Y0038978D01*
X0171800Y0036478D01*
X0169300Y0038978D01*
X0164300Y0038978D01*
X0161800Y0036478D01*
X0159300Y0038978D01*
X0154300Y0038978D01*
X0151800Y0036478D01*
X0149300Y0038978D01*
X0144300Y0038978D01*
X0141800Y0036478D01*
X0139300Y0038978D01*
X0134300Y0038978D01*
X0301800Y0061478D02*
X0304300Y0058978D01*
X0309300Y0058978D01*
X0311800Y0061478D01*
X0311800Y0066478D01*
X0309300Y0068978D01*
X0311800Y0071478D01*
X0311800Y0076478D01*
X0309300Y0078978D01*
X0311800Y0081478D01*
X0311800Y0086478D01*
X0309300Y0088978D01*
X0311800Y0091478D01*
X0311800Y0096478D01*
X0309300Y0098978D01*
X0311800Y0101478D01*
X0311800Y0106478D01*
X0309300Y0108978D01*
X0311800Y0111478D01*
X0311800Y0116478D01*
X0309300Y0118978D01*
X0311800Y0121478D01*
X0311800Y0126478D01*
X0309300Y0128978D01*
X0311800Y0131478D01*
X0311800Y0136478D01*
X0309300Y0138978D01*
X0304300Y0138978D01*
X0301800Y0136478D01*
X0301800Y0131478D01*
X0304300Y0128978D01*
X0301800Y0126478D01*
X0301800Y0121478D01*
X0304300Y0118978D01*
X0301800Y0116478D01*
X0301800Y0111478D01*
X0304300Y0108978D01*
X0301800Y0106478D01*
X0301800Y0101478D01*
X0304300Y0098978D01*
X0301800Y0096478D01*
X0301800Y0091478D01*
X0304300Y0088978D01*
X0301800Y0086478D01*
X0301800Y0081478D01*
X0304300Y0078978D01*
X0301800Y0076478D01*
X0301800Y0071478D01*
X0304300Y0068978D01*
X0301800Y0066478D01*
X0301800Y0061478D01*
X0304300Y0148978D02*
X0301800Y0151478D01*
X0301800Y0156478D01*
X0304300Y0158978D01*
X0301800Y0161478D01*
X0301800Y0166478D01*
X0304300Y0168978D01*
X0301800Y0171478D01*
X0301800Y0176478D01*
X0304300Y0178978D01*
X0301800Y0181478D01*
X0301800Y0186478D01*
X0304300Y0188978D01*
X0301800Y0191478D01*
X0301800Y0196478D01*
X0304300Y0198978D01*
X0301800Y0201478D01*
X0301800Y0206478D01*
X0304300Y0208978D01*
X0301800Y0211478D01*
X0301800Y0216478D01*
X0304300Y0218978D01*
X0301800Y0221478D01*
X0301800Y0226478D01*
X0304300Y0228978D01*
X0309300Y0228978D01*
X0311800Y0226478D01*
X0311800Y0221478D01*
X0309300Y0218978D01*
X0311800Y0216478D01*
X0311800Y0211478D01*
X0309300Y0208978D01*
X0311800Y0206478D01*
X0311800Y0201478D01*
X0309300Y0198978D01*
X0311800Y0196478D01*
X0311800Y0191478D01*
X0309300Y0188978D01*
X0311800Y0186478D01*
X0311800Y0181478D01*
X0309300Y0178978D01*
X0311800Y0176478D01*
X0311800Y0171478D01*
X0309300Y0168978D01*
X0311800Y0166478D01*
X0311800Y0161478D01*
X0309300Y0158978D01*
X0311800Y0156478D01*
X0311800Y0151478D01*
X0309300Y0148978D01*
X0304300Y0148978D01*
X0304300Y0233978D02*
X0301800Y0236478D01*
X0301800Y0241478D01*
X0304300Y0243978D01*
X0301800Y0246478D01*
X0301800Y0251478D01*
X0304300Y0253978D01*
X0301800Y0256478D01*
X0301800Y0261478D01*
X0304300Y0263978D01*
X0301800Y0266478D01*
X0301800Y0271478D01*
X0304300Y0273978D01*
X0301800Y0276478D01*
X0301800Y0281478D01*
X0304300Y0283978D01*
X0301800Y0286478D01*
X0301800Y0291478D01*
X0304300Y0293978D01*
X0301800Y0296478D01*
X0301800Y0301478D01*
X0304300Y0303978D01*
X0301800Y0306478D01*
X0301800Y0311478D01*
X0304300Y0313978D01*
X0301800Y0316478D01*
X0301800Y0321478D01*
X0304300Y0323978D01*
X0301800Y0326478D01*
X0301800Y0331478D01*
X0304300Y0333978D01*
X0309300Y0333978D01*
X0311800Y0331478D01*
X0311800Y0326478D01*
X0309300Y0323978D01*
X0311800Y0321478D01*
X0311800Y0316478D01*
X0309300Y0313978D01*
X0311800Y0311478D01*
X0311800Y0306478D01*
X0309300Y0303978D01*
X0311800Y0301478D01*
X0311800Y0296478D01*
X0309300Y0293978D01*
X0311800Y0291478D01*
X0311800Y0286478D01*
X0309300Y0283978D01*
X0311800Y0281478D01*
X0311800Y0276478D01*
X0309300Y0273978D01*
X0311800Y0271478D01*
X0311800Y0266478D01*
X0309300Y0263978D01*
X0311800Y0261478D01*
X0311800Y0256478D01*
X0309300Y0253978D01*
X0311800Y0251478D01*
X0311800Y0246478D01*
X0309300Y0243978D01*
X0311800Y0241478D01*
X0311800Y0236478D01*
X0309300Y0233978D01*
X0304300Y0233978D01*
X0284300Y0268978D02*
X0279300Y0268978D01*
X0276800Y0271478D01*
X0276800Y0276478D01*
X0279300Y0278978D01*
X0276800Y0281478D01*
X0276800Y0286478D01*
X0279300Y0288978D01*
X0276800Y0291478D01*
X0276800Y0296478D01*
X0279300Y0298978D01*
X0276800Y0301478D01*
X0276800Y0306478D01*
X0279300Y0308978D01*
X0284300Y0308978D01*
X0286800Y0306478D01*
X0286800Y0301478D01*
X0284300Y0298978D01*
X0286800Y0296478D01*
X0286800Y0291478D01*
X0284300Y0288978D01*
X0286800Y0286478D01*
X0286800Y0281478D01*
X0284300Y0278978D01*
X0286800Y0276478D01*
X0286800Y0271478D01*
X0284300Y0268978D01*
D17*
X0314500Y0269748D02*
X0316035Y0271282D01*
X0316035Y0266678D01*
X0317569Y0266678D02*
X0314500Y0266678D01*
X0319104Y0266678D02*
X0322173Y0266678D01*
X0320639Y0266678D02*
X0320639Y0271282D01*
X0319104Y0269748D01*
X0319104Y0276678D02*
X0322173Y0279748D01*
X0322173Y0280515D01*
X0321406Y0281282D01*
X0319871Y0281282D01*
X0319104Y0280515D01*
X0316035Y0281282D02*
X0316035Y0276678D01*
X0317569Y0276678D02*
X0314500Y0276678D01*
X0314500Y0279748D02*
X0316035Y0281282D01*
X0316035Y0286678D02*
X0316035Y0291282D01*
X0314500Y0289748D01*
X0314500Y0286678D02*
X0317569Y0286678D01*
X0319104Y0287446D02*
X0319871Y0286678D01*
X0321406Y0286678D01*
X0322173Y0287446D01*
X0322173Y0288213D01*
X0321406Y0288980D01*
X0320639Y0288980D01*
X0321406Y0288980D02*
X0322173Y0289748D01*
X0322173Y0290515D01*
X0321406Y0291282D01*
X0319871Y0291282D01*
X0319104Y0290515D01*
X0319104Y0296678D02*
X0319104Y0299748D01*
X0321406Y0299748D01*
X0322173Y0298980D01*
X0322173Y0296678D01*
X0323708Y0297446D02*
X0324475Y0296678D01*
X0326777Y0296678D01*
X0326777Y0301282D01*
X0326777Y0299748D02*
X0324475Y0299748D01*
X0323708Y0298980D01*
X0323708Y0297446D01*
X0317569Y0297446D02*
X0316802Y0296678D01*
X0315267Y0296678D01*
X0314500Y0297446D01*
X0314500Y0300515D01*
X0315267Y0301282D01*
X0316802Y0301282D01*
X0317569Y0300515D01*
X0317569Y0298980D02*
X0316035Y0298980D01*
X0317569Y0298980D02*
X0317569Y0297446D01*
X0317569Y0306678D02*
X0317569Y0309748D01*
X0316035Y0311282D01*
X0314500Y0309748D01*
X0314500Y0306678D01*
X0314500Y0308980D02*
X0317569Y0308980D01*
X0319104Y0308213D02*
X0320639Y0309748D01*
X0321406Y0309748D01*
X0322941Y0308980D02*
X0322941Y0307446D01*
X0323708Y0306678D01*
X0325242Y0306678D01*
X0326010Y0308213D02*
X0322941Y0308213D01*
X0322941Y0308980D02*
X0323708Y0309748D01*
X0325242Y0309748D01*
X0326010Y0308980D01*
X0326010Y0308213D01*
X0327544Y0308980D02*
X0329079Y0308980D01*
X0328312Y0310515D02*
X0328312Y0306678D01*
X0328312Y0310515D02*
X0329079Y0311282D01*
X0319104Y0309748D02*
X0319104Y0306678D01*
X0319104Y0276678D02*
X0322173Y0276678D01*
X0321406Y0261282D02*
X0322173Y0260515D01*
X0319104Y0257446D01*
X0319871Y0256678D01*
X0321406Y0256678D01*
X0322173Y0257446D01*
X0322173Y0260515D01*
X0321406Y0261282D02*
X0319871Y0261282D01*
X0319104Y0260515D01*
X0319104Y0257446D01*
X0317569Y0256678D02*
X0314500Y0256678D01*
X0316035Y0256678D02*
X0316035Y0261282D01*
X0314500Y0259748D01*
X0315267Y0251282D02*
X0314500Y0250515D01*
X0314500Y0249748D01*
X0315267Y0248980D01*
X0317569Y0248980D01*
X0317569Y0247446D02*
X0317569Y0250515D01*
X0316802Y0251282D01*
X0315267Y0251282D01*
X0314500Y0247446D02*
X0315267Y0246678D01*
X0316802Y0246678D01*
X0317569Y0247446D01*
X0316802Y0241282D02*
X0317569Y0240515D01*
X0317569Y0239748D01*
X0316802Y0238980D01*
X0315267Y0238980D01*
X0314500Y0239748D01*
X0314500Y0240515D01*
X0315267Y0241282D01*
X0316802Y0241282D01*
X0316802Y0238980D02*
X0317569Y0238213D01*
X0317569Y0237446D01*
X0316802Y0236678D01*
X0315267Y0236678D01*
X0314500Y0237446D01*
X0314500Y0238213D01*
X0315267Y0238980D01*
X0314500Y0226282D02*
X0317569Y0226282D01*
X0317569Y0225515D01*
X0314500Y0222446D01*
X0314500Y0221678D01*
X0317569Y0216282D02*
X0316035Y0215515D01*
X0314500Y0213980D01*
X0316802Y0213980D01*
X0317569Y0213213D01*
X0317569Y0212446D01*
X0316802Y0211678D01*
X0315267Y0211678D01*
X0314500Y0212446D01*
X0314500Y0213980D01*
X0314500Y0206282D02*
X0314500Y0203980D01*
X0316035Y0204748D01*
X0316802Y0204748D01*
X0317569Y0203980D01*
X0317569Y0202446D01*
X0316802Y0201678D01*
X0315267Y0201678D01*
X0314500Y0202446D01*
X0314500Y0206282D02*
X0317569Y0206282D01*
X0316802Y0196282D02*
X0314500Y0193980D01*
X0317569Y0193980D01*
X0316802Y0191678D02*
X0316802Y0196282D01*
X0316802Y0186282D02*
X0317569Y0185515D01*
X0317569Y0184748D01*
X0316802Y0183980D01*
X0317569Y0183213D01*
X0317569Y0182446D01*
X0316802Y0181678D01*
X0315267Y0181678D01*
X0314500Y0182446D01*
X0316035Y0183980D02*
X0316802Y0183980D01*
X0316802Y0186282D02*
X0315267Y0186282D01*
X0314500Y0185515D01*
X0315267Y0176282D02*
X0314500Y0175515D01*
X0315267Y0176282D02*
X0316802Y0176282D01*
X0317569Y0175515D01*
X0317569Y0174748D01*
X0314500Y0171678D01*
X0317569Y0171678D01*
X0317569Y0166282D02*
X0314500Y0166282D01*
X0316035Y0166282D02*
X0316035Y0161678D01*
X0319104Y0161678D02*
X0322173Y0164748D01*
X0323708Y0165515D02*
X0324475Y0166282D01*
X0326010Y0166282D01*
X0326777Y0165515D01*
X0323708Y0162446D01*
X0324475Y0161678D01*
X0326010Y0161678D01*
X0326777Y0162446D01*
X0326777Y0165515D01*
X0323708Y0165515D02*
X0323708Y0162446D01*
X0322173Y0161678D02*
X0319104Y0164748D01*
X0316802Y0156282D02*
X0314500Y0156282D01*
X0314500Y0151678D01*
X0314500Y0153213D02*
X0316802Y0153213D01*
X0317569Y0153980D01*
X0317569Y0155515D01*
X0316802Y0156282D01*
X0319104Y0154748D02*
X0322173Y0151678D01*
X0323708Y0152446D02*
X0324475Y0151678D01*
X0326010Y0151678D01*
X0326777Y0152446D01*
X0326777Y0155515D01*
X0323708Y0152446D01*
X0323708Y0155515D01*
X0324475Y0156282D01*
X0326010Y0156282D01*
X0326777Y0155515D01*
X0322173Y0154748D02*
X0319104Y0151678D01*
X0317569Y0151678D02*
X0316035Y0153213D01*
X0316035Y0136282D02*
X0316035Y0131678D01*
X0319104Y0131678D02*
X0322173Y0134748D01*
X0323708Y0135515D02*
X0324475Y0136282D01*
X0326010Y0136282D01*
X0326777Y0135515D01*
X0326777Y0134748D01*
X0326010Y0133980D01*
X0326777Y0133213D01*
X0326777Y0132446D01*
X0326010Y0131678D01*
X0324475Y0131678D01*
X0323708Y0132446D01*
X0322173Y0131678D02*
X0319104Y0134748D01*
X0317569Y0136282D02*
X0314500Y0136282D01*
X0314500Y0126282D02*
X0316802Y0126282D01*
X0317569Y0125515D01*
X0317569Y0123980D01*
X0316802Y0123213D01*
X0314500Y0123213D01*
X0314500Y0121678D02*
X0314500Y0126282D01*
X0316035Y0123213D02*
X0317569Y0121678D01*
X0319104Y0121678D02*
X0322173Y0124748D01*
X0323708Y0125515D02*
X0324475Y0126282D01*
X0326010Y0126282D01*
X0326777Y0125515D01*
X0326777Y0124748D01*
X0326010Y0123980D01*
X0326777Y0123213D01*
X0326777Y0122446D01*
X0326010Y0121678D01*
X0324475Y0121678D01*
X0323708Y0122446D01*
X0322173Y0121678D02*
X0319104Y0124748D01*
X0325242Y0123980D02*
X0326010Y0123980D01*
X0328312Y0123213D02*
X0328312Y0124748D01*
X0329846Y0126282D01*
X0331381Y0124748D02*
X0332916Y0126282D01*
X0332916Y0121678D01*
X0334450Y0121678D02*
X0331381Y0121678D01*
X0329846Y0121678D02*
X0328312Y0123213D01*
X0329846Y0116282D02*
X0328312Y0114748D01*
X0328312Y0113213D01*
X0329846Y0111678D01*
X0331381Y0111678D02*
X0334450Y0111678D01*
X0332916Y0111678D02*
X0332916Y0116282D01*
X0331381Y0114748D01*
X0326777Y0114748D02*
X0326777Y0115515D01*
X0326010Y0116282D01*
X0324475Y0116282D01*
X0323708Y0115515D01*
X0322173Y0114748D02*
X0319104Y0111678D01*
X0322173Y0111678D02*
X0319104Y0114748D01*
X0317569Y0116282D02*
X0314500Y0116282D01*
X0316035Y0116282D02*
X0316035Y0111678D01*
X0316802Y0106282D02*
X0314500Y0106282D01*
X0314500Y0101678D01*
X0314500Y0103213D02*
X0316802Y0103213D01*
X0317569Y0103980D01*
X0317569Y0105515D01*
X0316802Y0106282D01*
X0319104Y0104748D02*
X0322173Y0101678D01*
X0323708Y0101678D02*
X0326777Y0104748D01*
X0326777Y0105515D01*
X0326010Y0106282D01*
X0324475Y0106282D01*
X0323708Y0105515D01*
X0322173Y0104748D02*
X0319104Y0101678D01*
X0317569Y0101678D02*
X0316035Y0103213D01*
X0316035Y0096282D02*
X0316035Y0091678D01*
X0319104Y0091678D02*
X0322173Y0094748D01*
X0323708Y0094748D02*
X0325242Y0096282D01*
X0325242Y0091678D01*
X0323708Y0091678D02*
X0326777Y0091678D01*
X0328312Y0093213D02*
X0328312Y0094748D01*
X0329846Y0096282D01*
X0331381Y0094748D02*
X0332916Y0096282D01*
X0332916Y0091678D01*
X0334450Y0091678D02*
X0331381Y0091678D01*
X0329846Y0091678D02*
X0328312Y0093213D01*
X0322173Y0091678D02*
X0319104Y0094748D01*
X0317569Y0096282D02*
X0314500Y0096282D01*
X0314500Y0086282D02*
X0316802Y0086282D01*
X0317569Y0085515D01*
X0317569Y0083980D01*
X0316802Y0083213D01*
X0314500Y0083213D01*
X0314500Y0081678D02*
X0314500Y0086282D01*
X0316035Y0083213D02*
X0317569Y0081678D01*
X0319104Y0081678D02*
X0322173Y0084748D01*
X0323708Y0084748D02*
X0325242Y0086282D01*
X0325242Y0081678D01*
X0323708Y0081678D02*
X0326777Y0081678D01*
X0328312Y0083213D02*
X0328312Y0084748D01*
X0329846Y0086282D01*
X0331381Y0084748D02*
X0332916Y0086282D01*
X0332916Y0081678D01*
X0334450Y0081678D02*
X0331381Y0081678D01*
X0329846Y0081678D02*
X0328312Y0083213D01*
X0322173Y0081678D02*
X0319104Y0084748D01*
X0319104Y0076282D02*
X0321406Y0076282D01*
X0322173Y0075515D01*
X0322173Y0072446D01*
X0321406Y0071678D01*
X0319104Y0071678D01*
X0319104Y0076282D01*
X0317569Y0075515D02*
X0316802Y0076282D01*
X0315267Y0076282D01*
X0314500Y0075515D01*
X0314500Y0074748D01*
X0315267Y0073980D01*
X0316802Y0073980D01*
X0317569Y0073213D01*
X0317569Y0072446D01*
X0316802Y0071678D01*
X0315267Y0071678D01*
X0314500Y0072446D01*
X0315267Y0066282D02*
X0314500Y0065515D01*
X0314500Y0064748D01*
X0315267Y0063980D01*
X0316802Y0063980D01*
X0317569Y0063213D01*
X0317569Y0062446D01*
X0316802Y0061678D01*
X0315267Y0061678D01*
X0314500Y0062446D01*
X0315267Y0066282D02*
X0316802Y0066282D01*
X0317569Y0065515D01*
X0319104Y0065515D02*
X0319871Y0066282D01*
X0321406Y0066282D01*
X0322173Y0065515D01*
X0323708Y0066282D02*
X0323708Y0061678D01*
X0326777Y0061678D01*
X0328312Y0063213D02*
X0328312Y0064748D01*
X0329846Y0066282D01*
X0331381Y0065515D02*
X0332148Y0066282D01*
X0333683Y0066282D01*
X0334450Y0065515D01*
X0334450Y0064748D01*
X0331381Y0061678D01*
X0334450Y0061678D01*
X0335985Y0061678D02*
X0339054Y0061678D01*
X0337520Y0061678D02*
X0337520Y0066282D01*
X0335985Y0064748D01*
X0340589Y0066282D02*
X0342124Y0064748D01*
X0342124Y0063213D01*
X0340589Y0061678D01*
X0340589Y0071678D02*
X0342124Y0073213D01*
X0342124Y0074748D01*
X0340589Y0076282D01*
X0339054Y0075515D02*
X0335985Y0072446D01*
X0336752Y0071678D01*
X0338287Y0071678D01*
X0339054Y0072446D01*
X0339054Y0075515D01*
X0338287Y0076282D01*
X0336752Y0076282D01*
X0335985Y0075515D01*
X0335985Y0072446D01*
X0334450Y0071678D02*
X0331381Y0071678D01*
X0334450Y0074748D01*
X0334450Y0075515D01*
X0333683Y0076282D01*
X0332148Y0076282D01*
X0331381Y0075515D01*
X0329846Y0076282D02*
X0328312Y0074748D01*
X0328312Y0073213D01*
X0329846Y0071678D01*
X0326777Y0071678D02*
X0326777Y0074748D01*
X0325242Y0076282D01*
X0323708Y0074748D01*
X0323708Y0071678D01*
X0323708Y0073980D02*
X0326777Y0073980D01*
X0328312Y0063213D02*
X0329846Y0061678D01*
X0322173Y0062446D02*
X0321406Y0061678D01*
X0319871Y0061678D01*
X0319104Y0062446D01*
X0319104Y0065515D01*
X0309100Y0047817D02*
X0306031Y0049352D01*
X0306031Y0046282D02*
X0309100Y0047817D01*
X0308333Y0044748D02*
X0306798Y0044748D01*
X0306031Y0043980D01*
X0306031Y0043213D01*
X0306798Y0041678D01*
X0304496Y0041678D01*
X0304496Y0044748D01*
X0299100Y0044748D02*
X0299100Y0041678D01*
X0296031Y0044748D01*
X0295263Y0044748D01*
X0294496Y0043980D01*
X0294496Y0042446D01*
X0295263Y0041678D01*
X0295263Y0046282D02*
X0294496Y0047050D01*
X0294496Y0048584D01*
X0295263Y0049352D01*
X0296031Y0049352D01*
X0299100Y0046282D01*
X0299100Y0049352D01*
X0289100Y0048584D02*
X0284496Y0048584D01*
X0286798Y0046282D01*
X0286798Y0049352D01*
X0286031Y0044748D02*
X0285263Y0044748D01*
X0284496Y0043980D01*
X0284496Y0042446D01*
X0285263Y0041678D01*
X0286031Y0044748D02*
X0289100Y0041678D01*
X0289100Y0044748D01*
X0279100Y0044748D02*
X0279100Y0041678D01*
X0276031Y0044748D01*
X0275263Y0044748D01*
X0274496Y0043980D01*
X0274496Y0042446D01*
X0275263Y0041678D01*
X0276798Y0046282D02*
X0276798Y0048584D01*
X0277565Y0049352D01*
X0278333Y0049352D01*
X0279100Y0048584D01*
X0279100Y0047050D01*
X0278333Y0046282D01*
X0276798Y0046282D01*
X0275263Y0047817D01*
X0274496Y0049352D01*
X0269100Y0048584D02*
X0269100Y0047050D01*
X0268333Y0046282D01*
X0267565Y0046282D01*
X0266798Y0047050D01*
X0266798Y0048584D01*
X0267565Y0049352D01*
X0268333Y0049352D01*
X0269100Y0048584D01*
X0266798Y0048584D02*
X0266031Y0049352D01*
X0265263Y0049352D01*
X0264496Y0048584D01*
X0264496Y0047050D01*
X0265263Y0046282D01*
X0266031Y0046282D01*
X0266798Y0047050D01*
X0266031Y0044748D02*
X0265263Y0044748D01*
X0264496Y0043980D01*
X0264496Y0042446D01*
X0265263Y0041678D01*
X0266031Y0044748D02*
X0269100Y0041678D01*
X0269100Y0044748D01*
X0259100Y0043980D02*
X0259100Y0042446D01*
X0258333Y0041678D01*
X0256798Y0043213D02*
X0256798Y0043980D01*
X0257565Y0044748D01*
X0258333Y0044748D01*
X0259100Y0043980D01*
X0256798Y0043980D02*
X0256031Y0044748D01*
X0255263Y0044748D01*
X0254496Y0043980D01*
X0254496Y0042446D01*
X0255263Y0041678D01*
X0255263Y0046282D02*
X0254496Y0047050D01*
X0254496Y0048584D01*
X0255263Y0049352D01*
X0258333Y0046282D01*
X0259100Y0047050D01*
X0259100Y0048584D01*
X0258333Y0049352D01*
X0255263Y0049352D01*
X0255263Y0046282D02*
X0258333Y0046282D01*
X0249100Y0046282D02*
X0246031Y0049352D01*
X0245263Y0049352D01*
X0244496Y0048584D01*
X0244496Y0047050D01*
X0245263Y0046282D01*
X0245263Y0044748D02*
X0246031Y0044748D01*
X0246798Y0043980D01*
X0247565Y0044748D01*
X0248333Y0044748D01*
X0249100Y0043980D01*
X0249100Y0042446D01*
X0248333Y0041678D01*
X0246798Y0043213D02*
X0246798Y0043980D01*
X0245263Y0044748D02*
X0244496Y0043980D01*
X0244496Y0042446D01*
X0245263Y0041678D01*
X0249100Y0046282D02*
X0249100Y0049352D01*
X0239100Y0048584D02*
X0234496Y0048584D01*
X0236798Y0046282D01*
X0236798Y0049352D01*
X0236031Y0044748D02*
X0235263Y0044748D01*
X0234496Y0043980D01*
X0234496Y0042446D01*
X0235263Y0041678D01*
X0236798Y0043213D02*
X0236798Y0043980D01*
X0237565Y0044748D01*
X0238333Y0044748D01*
X0239100Y0043980D01*
X0239100Y0042446D01*
X0238333Y0041678D01*
X0236798Y0043980D02*
X0236031Y0044748D01*
X0229100Y0043980D02*
X0229100Y0042446D01*
X0228333Y0041678D01*
X0226798Y0043213D02*
X0226798Y0043980D01*
X0227565Y0044748D01*
X0228333Y0044748D01*
X0229100Y0043980D01*
X0226798Y0043980D02*
X0226031Y0044748D01*
X0225263Y0044748D01*
X0224496Y0043980D01*
X0224496Y0042446D01*
X0225263Y0041678D01*
X0226798Y0046282D02*
X0226798Y0048584D01*
X0227565Y0049352D01*
X0228333Y0049352D01*
X0229100Y0048584D01*
X0229100Y0047050D01*
X0228333Y0046282D01*
X0226798Y0046282D01*
X0225263Y0047817D01*
X0224496Y0049352D01*
X0219100Y0048584D02*
X0219100Y0047050D01*
X0218333Y0046282D01*
X0217565Y0046282D01*
X0216798Y0047050D01*
X0216798Y0048584D01*
X0217565Y0049352D01*
X0218333Y0049352D01*
X0219100Y0048584D01*
X0216798Y0048584D02*
X0216031Y0049352D01*
X0215263Y0049352D01*
X0214496Y0048584D01*
X0214496Y0047050D01*
X0215263Y0046282D01*
X0216031Y0046282D01*
X0216798Y0047050D01*
X0216031Y0044748D02*
X0216798Y0043980D01*
X0217565Y0044748D01*
X0218333Y0044748D01*
X0219100Y0043980D01*
X0219100Y0042446D01*
X0218333Y0041678D01*
X0216798Y0043213D02*
X0216798Y0043980D01*
X0216031Y0044748D02*
X0215263Y0044748D01*
X0214496Y0043980D01*
X0214496Y0042446D01*
X0215263Y0041678D01*
X0209100Y0043980D02*
X0204496Y0043980D01*
X0206798Y0041678D01*
X0206798Y0044748D01*
X0205263Y0046282D02*
X0204496Y0047050D01*
X0204496Y0048584D01*
X0205263Y0049352D01*
X0208333Y0046282D01*
X0209100Y0047050D01*
X0209100Y0048584D01*
X0208333Y0049352D01*
X0205263Y0049352D01*
X0205263Y0046282D02*
X0208333Y0046282D01*
X0199100Y0046282D02*
X0196031Y0049352D01*
X0195263Y0049352D01*
X0194496Y0048584D01*
X0194496Y0047050D01*
X0195263Y0046282D01*
X0196798Y0044748D02*
X0196798Y0041678D01*
X0194496Y0043980D01*
X0199100Y0043980D01*
X0199100Y0046282D02*
X0199100Y0049352D01*
X0189100Y0048584D02*
X0184496Y0048584D01*
X0186798Y0046282D01*
X0186798Y0049352D01*
X0186798Y0044748D02*
X0186798Y0041678D01*
X0184496Y0043980D01*
X0189100Y0043980D01*
X0179100Y0043980D02*
X0174496Y0043980D01*
X0176798Y0041678D01*
X0176798Y0044748D01*
X0176798Y0046282D02*
X0175263Y0047817D01*
X0174496Y0049352D01*
X0176798Y0048584D02*
X0176798Y0046282D01*
X0178333Y0046282D01*
X0179100Y0047050D01*
X0179100Y0048584D01*
X0178333Y0049352D01*
X0177565Y0049352D01*
X0176798Y0048584D01*
X0169100Y0048584D02*
X0169100Y0047050D01*
X0168333Y0046282D01*
X0167565Y0046282D01*
X0166798Y0047050D01*
X0166798Y0048584D01*
X0167565Y0049352D01*
X0168333Y0049352D01*
X0169100Y0048584D01*
X0166798Y0048584D02*
X0166031Y0049352D01*
X0165263Y0049352D01*
X0164496Y0048584D01*
X0164496Y0047050D01*
X0165263Y0046282D01*
X0166031Y0046282D01*
X0166798Y0047050D01*
X0166798Y0044748D02*
X0166798Y0041678D01*
X0164496Y0043980D01*
X0169100Y0043980D01*
X0159100Y0043980D02*
X0159100Y0042446D01*
X0158333Y0041678D01*
X0156798Y0041678D02*
X0156031Y0043213D01*
X0156031Y0043980D01*
X0156798Y0044748D01*
X0158333Y0044748D01*
X0159100Y0043980D01*
X0158333Y0046282D02*
X0155263Y0046282D01*
X0154496Y0047050D01*
X0154496Y0048584D01*
X0155263Y0049352D01*
X0158333Y0046282D01*
X0159100Y0047050D01*
X0159100Y0048584D01*
X0158333Y0049352D01*
X0155263Y0049352D01*
X0149100Y0049352D02*
X0149100Y0046282D01*
X0146031Y0049352D01*
X0145263Y0049352D01*
X0144496Y0048584D01*
X0144496Y0047050D01*
X0145263Y0046282D01*
X0144496Y0044748D02*
X0144496Y0041678D01*
X0146798Y0041678D01*
X0146031Y0043213D01*
X0146031Y0043980D01*
X0146798Y0044748D01*
X0148333Y0044748D01*
X0149100Y0043980D01*
X0149100Y0042446D01*
X0148333Y0041678D01*
X0154496Y0041678D02*
X0156798Y0041678D01*
X0154496Y0041678D02*
X0154496Y0044748D01*
X0139100Y0043980D02*
X0138333Y0044748D01*
X0136798Y0044748D01*
X0136798Y0043213D01*
X0135263Y0041678D02*
X0138333Y0041678D01*
X0139100Y0042446D01*
X0139100Y0043980D01*
X0139100Y0046282D02*
X0136031Y0046282D01*
X0136031Y0048584D01*
X0136798Y0049352D01*
X0139100Y0049352D01*
X0138333Y0050886D02*
X0139100Y0051654D01*
X0139100Y0053956D01*
X0134496Y0053956D01*
X0136031Y0053956D02*
X0136031Y0051654D01*
X0136798Y0050886D01*
X0138333Y0050886D01*
X0135263Y0044748D02*
X0134496Y0043980D01*
X0134496Y0042446D01*
X0135263Y0041678D01*
X0134496Y0015144D02*
X0139100Y0015144D01*
X0139100Y0012842D01*
X0138333Y0012075D01*
X0136798Y0012075D01*
X0136031Y0012842D01*
X0136031Y0015144D01*
X0136798Y0010540D02*
X0139100Y0010540D01*
X0136798Y0010540D02*
X0136031Y0009773D01*
X0136031Y0007471D01*
X0139100Y0007471D01*
X0138333Y0005936D02*
X0136798Y0005936D01*
X0136798Y0004401D01*
X0135263Y0002867D02*
X0138333Y0002867D01*
X0139100Y0003634D01*
X0139100Y0005169D01*
X0138333Y0005936D01*
X0135263Y0005936D02*
X0134496Y0005169D01*
X0134496Y0003634D01*
X0135263Y0002867D01*
X0144496Y0007471D02*
X0146798Y0007471D01*
X0146031Y0009005D01*
X0146031Y0009773D01*
X0146798Y0010540D01*
X0148333Y0010540D01*
X0149100Y0009773D01*
X0149100Y0008238D01*
X0148333Y0007471D01*
X0144496Y0007471D02*
X0144496Y0010540D01*
X0145263Y0012075D02*
X0144496Y0012842D01*
X0144496Y0014376D01*
X0145263Y0015144D01*
X0146031Y0015144D01*
X0146798Y0014376D01*
X0147565Y0015144D01*
X0148333Y0015144D01*
X0149100Y0014376D01*
X0149100Y0012842D01*
X0148333Y0012075D01*
X0146798Y0013609D02*
X0146798Y0014376D01*
X0154496Y0013609D02*
X0159100Y0013609D01*
X0159100Y0012075D02*
X0159100Y0015144D01*
X0156031Y0012075D02*
X0154496Y0013609D01*
X0154496Y0010540D02*
X0154496Y0007471D01*
X0156798Y0007471D01*
X0156031Y0009005D01*
X0156031Y0009773D01*
X0156798Y0010540D01*
X0158333Y0010540D01*
X0159100Y0009773D01*
X0159100Y0008238D01*
X0158333Y0007471D01*
X0164496Y0009773D02*
X0166798Y0007471D01*
X0166798Y0010540D01*
X0166031Y0012075D02*
X0166798Y0012842D01*
X0166798Y0015144D01*
X0168333Y0015144D02*
X0165263Y0015144D01*
X0164496Y0014376D01*
X0164496Y0012842D01*
X0165263Y0012075D01*
X0166031Y0012075D01*
X0168333Y0012075D02*
X0169100Y0012842D01*
X0169100Y0014376D01*
X0168333Y0015144D01*
X0169100Y0009773D02*
X0164496Y0009773D01*
X0174496Y0009773D02*
X0176798Y0007471D01*
X0176798Y0010540D01*
X0178333Y0012075D02*
X0179100Y0012075D01*
X0178333Y0012075D02*
X0175263Y0015144D01*
X0174496Y0015144D01*
X0174496Y0012075D01*
X0174496Y0009773D02*
X0179100Y0009773D01*
X0184496Y0009773D02*
X0186798Y0007471D01*
X0186798Y0010540D01*
X0186798Y0012075D02*
X0186031Y0013609D01*
X0186031Y0014376D01*
X0186798Y0015144D01*
X0188333Y0015144D01*
X0189100Y0014376D01*
X0189100Y0012842D01*
X0188333Y0012075D01*
X0186798Y0012075D02*
X0184496Y0012075D01*
X0184496Y0015144D01*
X0184496Y0009773D02*
X0189100Y0009773D01*
X0194496Y0009773D02*
X0196798Y0007471D01*
X0196798Y0010540D01*
X0195263Y0012075D02*
X0194496Y0012842D01*
X0194496Y0014376D01*
X0195263Y0015144D01*
X0196031Y0015144D01*
X0196798Y0014376D01*
X0197565Y0015144D01*
X0198333Y0015144D01*
X0199100Y0014376D01*
X0199100Y0012842D01*
X0198333Y0012075D01*
X0196798Y0013609D02*
X0196798Y0014376D01*
X0199100Y0009773D02*
X0194496Y0009773D01*
X0204496Y0009773D02*
X0206798Y0007471D01*
X0206798Y0010540D01*
X0206031Y0012075D02*
X0204496Y0013609D01*
X0209100Y0013609D01*
X0209100Y0012075D02*
X0209100Y0015144D01*
X0214496Y0014376D02*
X0214496Y0012842D01*
X0215263Y0012075D01*
X0216031Y0012075D01*
X0216798Y0012842D01*
X0216798Y0015144D01*
X0215263Y0015144D02*
X0214496Y0014376D01*
X0215263Y0015144D02*
X0218333Y0015144D01*
X0219100Y0014376D01*
X0219100Y0012842D01*
X0218333Y0012075D01*
X0218333Y0010540D02*
X0219100Y0009773D01*
X0219100Y0008238D01*
X0218333Y0007471D01*
X0216798Y0009005D02*
X0216798Y0009773D01*
X0217565Y0010540D01*
X0218333Y0010540D01*
X0216798Y0009773D02*
X0216031Y0010540D01*
X0215263Y0010540D01*
X0214496Y0009773D01*
X0214496Y0008238D01*
X0215263Y0007471D01*
X0209100Y0009773D02*
X0204496Y0009773D01*
X0224496Y0009773D02*
X0225263Y0010540D01*
X0226031Y0010540D01*
X0226798Y0009773D01*
X0227565Y0010540D01*
X0228333Y0010540D01*
X0229100Y0009773D01*
X0229100Y0008238D01*
X0228333Y0007471D01*
X0226798Y0009005D02*
X0226798Y0009773D01*
X0224496Y0009773D02*
X0224496Y0008238D01*
X0225263Y0007471D01*
X0224496Y0012075D02*
X0224496Y0015144D01*
X0225263Y0015144D01*
X0228333Y0012075D01*
X0229100Y0012075D01*
X0234496Y0012075D02*
X0234496Y0015144D01*
X0236031Y0014376D02*
X0236031Y0013609D01*
X0236798Y0012075D01*
X0234496Y0012075D01*
X0235263Y0010540D02*
X0236031Y0010540D01*
X0236798Y0009773D01*
X0237565Y0010540D01*
X0238333Y0010540D01*
X0239100Y0009773D01*
X0239100Y0008238D01*
X0238333Y0007471D01*
X0236798Y0009005D02*
X0236798Y0009773D01*
X0235263Y0010540D02*
X0234496Y0009773D01*
X0234496Y0008238D01*
X0235263Y0007471D01*
X0238333Y0012075D02*
X0239100Y0012842D01*
X0239100Y0014376D01*
X0238333Y0015144D01*
X0236798Y0015144D01*
X0236031Y0014376D01*
X0244496Y0014376D02*
X0244496Y0012842D01*
X0245263Y0012075D01*
X0245263Y0010540D02*
X0246031Y0010540D01*
X0246798Y0009773D01*
X0247565Y0010540D01*
X0248333Y0010540D01*
X0249100Y0009773D01*
X0249100Y0008238D01*
X0248333Y0007471D01*
X0246798Y0009005D02*
X0246798Y0009773D01*
X0245263Y0010540D02*
X0244496Y0009773D01*
X0244496Y0008238D01*
X0245263Y0007471D01*
X0248333Y0012075D02*
X0249100Y0012842D01*
X0249100Y0014376D01*
X0248333Y0015144D01*
X0247565Y0015144D01*
X0246798Y0014376D01*
X0246798Y0013609D01*
X0246798Y0014376D02*
X0246031Y0015144D01*
X0245263Y0015144D01*
X0244496Y0014376D01*
X0254496Y0013609D02*
X0259100Y0013609D01*
X0259100Y0012075D02*
X0259100Y0015144D01*
X0256031Y0012075D02*
X0254496Y0013609D01*
X0255263Y0010540D02*
X0256031Y0010540D01*
X0256798Y0009773D01*
X0257565Y0010540D01*
X0258333Y0010540D01*
X0259100Y0009773D01*
X0259100Y0008238D01*
X0258333Y0007471D01*
X0256798Y0009005D02*
X0256798Y0009773D01*
X0255263Y0010540D02*
X0254496Y0009773D01*
X0254496Y0008238D01*
X0255263Y0007471D01*
X0264496Y0008238D02*
X0265263Y0007471D01*
X0264496Y0008238D02*
X0264496Y0009773D01*
X0265263Y0010540D01*
X0266031Y0010540D01*
X0269100Y0007471D01*
X0269100Y0010540D01*
X0268333Y0012075D02*
X0269100Y0012842D01*
X0269100Y0014376D01*
X0268333Y0015144D01*
X0265263Y0015144D01*
X0264496Y0014376D01*
X0264496Y0012842D01*
X0265263Y0012075D01*
X0266031Y0012075D01*
X0266798Y0012842D01*
X0266798Y0015144D01*
X0274496Y0015144D02*
X0274496Y0012075D01*
X0275263Y0010540D02*
X0274496Y0009773D01*
X0274496Y0008238D01*
X0275263Y0007471D01*
X0275263Y0010540D02*
X0276031Y0010540D01*
X0279100Y0007471D01*
X0279100Y0010540D01*
X0279100Y0012075D02*
X0278333Y0012075D01*
X0275263Y0015144D01*
X0274496Y0015144D01*
X0284496Y0015144D02*
X0284496Y0012075D01*
X0286798Y0012075D01*
X0286031Y0013609D01*
X0286031Y0014376D01*
X0286798Y0015144D01*
X0288333Y0015144D01*
X0289100Y0014376D01*
X0289100Y0012842D01*
X0288333Y0012075D01*
X0289100Y0010540D02*
X0289100Y0007471D01*
X0286031Y0010540D01*
X0285263Y0010540D01*
X0284496Y0009773D01*
X0284496Y0008238D01*
X0285263Y0007471D01*
X0294496Y0008238D02*
X0295263Y0007471D01*
X0294496Y0008238D02*
X0294496Y0009773D01*
X0295263Y0010540D01*
X0296031Y0010540D01*
X0299100Y0007471D01*
X0299100Y0010540D01*
X0298333Y0012075D02*
X0299100Y0012842D01*
X0299100Y0014376D01*
X0298333Y0015144D01*
X0297565Y0015144D01*
X0296798Y0014376D01*
X0296798Y0013609D01*
X0296798Y0014376D02*
X0296031Y0015144D01*
X0295263Y0015144D01*
X0294496Y0014376D01*
X0294496Y0012842D01*
X0295263Y0012075D01*
X0304496Y0010540D02*
X0304496Y0007471D01*
X0306798Y0007471D01*
X0306031Y0009005D01*
X0306031Y0009773D01*
X0306798Y0010540D01*
X0308333Y0010540D01*
X0309100Y0009773D01*
X0309100Y0008238D01*
X0308333Y0007471D01*
X0306031Y0012075D02*
X0309100Y0013609D01*
X0306031Y0015144D01*
X0308333Y0041678D02*
X0309100Y0042446D01*
X0309100Y0043980D01*
X0308333Y0044748D01*
X0336752Y0081678D02*
X0338287Y0081678D01*
X0339054Y0082446D01*
X0339054Y0085515D01*
X0338287Y0086282D01*
X0336752Y0086282D01*
X0335985Y0085515D01*
X0335985Y0084748D01*
X0336752Y0083980D01*
X0339054Y0083980D01*
X0340589Y0081678D02*
X0342124Y0083213D01*
X0342124Y0084748D01*
X0340589Y0086282D01*
X0335985Y0082446D02*
X0336752Y0081678D01*
X0336752Y0091678D02*
X0335985Y0092446D01*
X0335985Y0093213D01*
X0336752Y0093980D01*
X0338287Y0093980D01*
X0339054Y0093213D01*
X0339054Y0092446D01*
X0338287Y0091678D01*
X0336752Y0091678D01*
X0336752Y0093980D02*
X0335985Y0094748D01*
X0335985Y0095515D01*
X0336752Y0096282D01*
X0338287Y0096282D01*
X0339054Y0095515D01*
X0339054Y0094748D01*
X0338287Y0093980D01*
X0340589Y0091678D02*
X0342124Y0093213D01*
X0342124Y0094748D01*
X0340589Y0096282D01*
X0340589Y0101678D02*
X0342124Y0103213D01*
X0342124Y0104748D01*
X0340589Y0106282D01*
X0339054Y0106282D02*
X0339054Y0105515D01*
X0335985Y0102446D01*
X0335985Y0101678D01*
X0334450Y0101678D02*
X0331381Y0101678D01*
X0329846Y0101678D02*
X0328312Y0103213D01*
X0328312Y0104748D01*
X0329846Y0106282D01*
X0331381Y0104748D02*
X0332916Y0106282D01*
X0332916Y0101678D01*
X0335985Y0106282D02*
X0339054Y0106282D01*
X0338287Y0111678D02*
X0339054Y0112446D01*
X0339054Y0113213D01*
X0338287Y0113980D01*
X0335985Y0113980D01*
X0335985Y0112446D01*
X0336752Y0111678D01*
X0338287Y0111678D01*
X0340589Y0111678D02*
X0342124Y0113213D01*
X0342124Y0114748D01*
X0340589Y0116282D01*
X0339054Y0116282D02*
X0337520Y0115515D01*
X0335985Y0113980D01*
X0336752Y0121678D02*
X0335985Y0122446D01*
X0336752Y0121678D02*
X0338287Y0121678D01*
X0339054Y0122446D01*
X0339054Y0123980D01*
X0338287Y0124748D01*
X0337520Y0124748D01*
X0335985Y0123980D01*
X0335985Y0126282D01*
X0339054Y0126282D01*
X0340589Y0126282D02*
X0342124Y0124748D01*
X0342124Y0123213D01*
X0340589Y0121678D01*
X0340589Y0131678D02*
X0342124Y0133213D01*
X0342124Y0134748D01*
X0340589Y0136282D01*
X0338287Y0136282D02*
X0335985Y0133980D01*
X0339054Y0133980D01*
X0338287Y0131678D02*
X0338287Y0136282D01*
X0332916Y0136282D02*
X0332916Y0131678D01*
X0334450Y0131678D02*
X0331381Y0131678D01*
X0329846Y0131678D02*
X0328312Y0133213D01*
X0328312Y0134748D01*
X0329846Y0136282D01*
X0331381Y0134748D02*
X0332916Y0136282D01*
X0326010Y0133980D02*
X0325242Y0133980D01*
X0326777Y0114748D02*
X0323708Y0111678D01*
X0326777Y0111678D01*
X0326777Y0101678D02*
X0323708Y0101678D01*
X0107965Y0102446D02*
X0107965Y0105515D01*
X0107198Y0106282D01*
X0105663Y0106282D01*
X0104896Y0105515D01*
X0104896Y0104748D01*
X0105663Y0103980D01*
X0107965Y0103980D01*
X0107965Y0102446D02*
X0107198Y0101678D01*
X0105663Y0101678D01*
X0104896Y0102446D01*
X0103361Y0101678D02*
X0103361Y0104748D01*
X0101827Y0106282D01*
X0100292Y0104748D01*
X0100292Y0101678D01*
X0100292Y0103980D02*
X0103361Y0103980D01*
X0103361Y0111678D02*
X0103361Y0114748D01*
X0101827Y0116282D01*
X0100292Y0114748D01*
X0100292Y0111678D01*
X0100292Y0113980D02*
X0103361Y0113980D01*
X0104896Y0113213D02*
X0105663Y0113980D01*
X0107198Y0113980D01*
X0107965Y0113213D01*
X0107965Y0112446D01*
X0107198Y0111678D01*
X0105663Y0111678D01*
X0104896Y0112446D01*
X0104896Y0113213D01*
X0105663Y0113980D02*
X0104896Y0114748D01*
X0104896Y0115515D01*
X0105663Y0116282D01*
X0107198Y0116282D01*
X0107965Y0115515D01*
X0107965Y0114748D01*
X0107198Y0113980D01*
X0107198Y0096282D02*
X0107965Y0095515D01*
X0104896Y0092446D01*
X0105663Y0091678D01*
X0107198Y0091678D01*
X0107965Y0092446D01*
X0107965Y0095515D01*
X0107198Y0096282D02*
X0105663Y0096282D01*
X0104896Y0095515D01*
X0104896Y0092446D01*
X0103361Y0091678D02*
X0100292Y0091678D01*
X0098757Y0091678D02*
X0098757Y0094748D01*
X0097223Y0096282D01*
X0095688Y0094748D01*
X0095688Y0091678D01*
X0095688Y0093980D02*
X0098757Y0093980D01*
X0100292Y0094748D02*
X0101827Y0096282D01*
X0101827Y0091678D01*
X0101827Y0086282D02*
X0100292Y0084748D01*
X0098757Y0084748D02*
X0098757Y0081678D01*
X0100292Y0081678D02*
X0103361Y0081678D01*
X0101827Y0081678D02*
X0101827Y0086282D01*
X0104896Y0084748D02*
X0106431Y0086282D01*
X0106431Y0081678D01*
X0107965Y0081678D02*
X0104896Y0081678D01*
X0105663Y0076282D02*
X0107198Y0076282D01*
X0107965Y0075515D01*
X0104896Y0072446D01*
X0105663Y0071678D01*
X0107198Y0071678D01*
X0107965Y0072446D01*
X0107965Y0075515D01*
X0105663Y0076282D02*
X0104896Y0075515D01*
X0104896Y0072446D01*
X0103361Y0072446D02*
X0102594Y0071678D01*
X0101059Y0071678D01*
X0100292Y0072446D01*
X0100292Y0075515D01*
X0101059Y0076282D01*
X0102594Y0076282D01*
X0103361Y0075515D01*
X0098757Y0074748D02*
X0098757Y0071678D01*
X0098757Y0073980D02*
X0095688Y0073980D01*
X0095688Y0074748D02*
X0097223Y0076282D01*
X0098757Y0074748D01*
X0095688Y0074748D02*
X0095688Y0071678D01*
X0094154Y0072446D02*
X0094154Y0075515D01*
X0093386Y0076282D01*
X0091084Y0076282D01*
X0091084Y0071678D01*
X0093386Y0071678D01*
X0094154Y0072446D01*
X0093386Y0066282D02*
X0091084Y0066282D01*
X0091084Y0061678D01*
X0093386Y0061678D01*
X0094154Y0062446D01*
X0094154Y0065515D01*
X0093386Y0066282D01*
X0095688Y0064748D02*
X0097223Y0066282D01*
X0098757Y0064748D01*
X0098757Y0061678D01*
X0100292Y0062446D02*
X0101059Y0061678D01*
X0102594Y0061678D01*
X0103361Y0062446D01*
X0104896Y0061678D02*
X0107965Y0061678D01*
X0106431Y0061678D02*
X0106431Y0066282D01*
X0104896Y0064748D01*
X0103361Y0065515D02*
X0102594Y0066282D01*
X0101059Y0066282D01*
X0100292Y0065515D01*
X0100292Y0062446D01*
X0098757Y0063980D02*
X0095688Y0063980D01*
X0095688Y0064748D02*
X0095688Y0061678D01*
X0100292Y0056282D02*
X0102594Y0056282D01*
X0103361Y0055515D01*
X0103361Y0053980D01*
X0102594Y0053213D01*
X0100292Y0053213D01*
X0100292Y0051678D02*
X0100292Y0056282D01*
X0098757Y0053980D02*
X0098757Y0051678D01*
X0098757Y0053980D02*
X0097990Y0054748D01*
X0095688Y0054748D01*
X0095688Y0051678D01*
X0094154Y0051678D02*
X0091852Y0051678D01*
X0091084Y0052446D01*
X0091084Y0053980D01*
X0091852Y0054748D01*
X0094154Y0054748D01*
X0101827Y0053213D02*
X0103361Y0051678D01*
X0104896Y0051678D02*
X0107965Y0056282D01*
X0104896Y0056282D02*
X0107965Y0051678D01*
X0107965Y0046282D02*
X0104896Y0041678D01*
X0101827Y0041678D02*
X0101827Y0046282D01*
X0103361Y0046282D02*
X0100292Y0046282D01*
X0098757Y0043980D02*
X0098757Y0041678D01*
X0098757Y0043980D02*
X0097990Y0044748D01*
X0095688Y0044748D01*
X0095688Y0041678D01*
X0094154Y0041678D02*
X0091852Y0041678D01*
X0091084Y0042446D01*
X0091084Y0043980D01*
X0091852Y0044748D01*
X0094154Y0044748D01*
X0104896Y0046282D02*
X0107965Y0041678D01*
X0095688Y0081678D02*
X0095688Y0084748D01*
X0097223Y0086282D01*
X0098757Y0084748D01*
X0098757Y0083980D02*
X0095688Y0083980D01*
X0100292Y0131678D02*
X0100292Y0134748D01*
X0101827Y0136282D01*
X0103361Y0134748D01*
X0103361Y0131678D01*
X0104896Y0131678D02*
X0104896Y0132446D01*
X0107965Y0135515D01*
X0107965Y0136282D01*
X0104896Y0136282D01*
X0103361Y0133980D02*
X0100292Y0133980D01*
X0100292Y0141678D02*
X0100292Y0144748D01*
X0101827Y0146282D01*
X0103361Y0144748D01*
X0103361Y0141678D01*
X0104896Y0142446D02*
X0105663Y0141678D01*
X0107198Y0141678D01*
X0107965Y0142446D01*
X0107965Y0143213D01*
X0107198Y0143980D01*
X0104896Y0143980D01*
X0104896Y0142446D01*
X0104896Y0143980D02*
X0106431Y0145515D01*
X0107965Y0146282D01*
X0107198Y0151678D02*
X0105663Y0151678D01*
X0104896Y0152446D01*
X0104896Y0153980D02*
X0106431Y0154748D01*
X0107198Y0154748D01*
X0107965Y0153980D01*
X0107965Y0152446D01*
X0107198Y0151678D01*
X0104896Y0153980D02*
X0104896Y0156282D01*
X0107965Y0156282D01*
X0107198Y0161678D02*
X0107198Y0166282D01*
X0104896Y0163980D01*
X0107965Y0163980D01*
X0103361Y0163980D02*
X0100292Y0163980D01*
X0100292Y0164748D02*
X0101827Y0166282D01*
X0103361Y0164748D01*
X0103361Y0161678D01*
X0100292Y0161678D02*
X0100292Y0164748D01*
X0100292Y0171678D02*
X0100292Y0174748D01*
X0101827Y0176282D01*
X0103361Y0174748D01*
X0103361Y0171678D01*
X0104896Y0172446D02*
X0105663Y0171678D01*
X0107198Y0171678D01*
X0107965Y0172446D01*
X0107965Y0173213D01*
X0107198Y0173980D01*
X0106431Y0173980D01*
X0107198Y0173980D02*
X0107965Y0174748D01*
X0107965Y0175515D01*
X0107198Y0176282D01*
X0105663Y0176282D01*
X0104896Y0175515D01*
X0103361Y0173980D02*
X0100292Y0173980D01*
X0100292Y0181678D02*
X0100292Y0184748D01*
X0101827Y0186282D01*
X0103361Y0184748D01*
X0103361Y0181678D01*
X0104896Y0181678D02*
X0107965Y0184748D01*
X0107965Y0185515D01*
X0107198Y0186282D01*
X0105663Y0186282D01*
X0104896Y0185515D01*
X0103361Y0183980D02*
X0100292Y0183980D01*
X0104896Y0181678D02*
X0107965Y0181678D01*
X0107965Y0191678D02*
X0104896Y0191678D01*
X0103361Y0191678D02*
X0103361Y0194748D01*
X0101827Y0196282D01*
X0100292Y0194748D01*
X0100292Y0191678D01*
X0100292Y0193980D02*
X0103361Y0193980D01*
X0104896Y0194748D02*
X0106431Y0196282D01*
X0106431Y0191678D01*
X0107198Y0201678D02*
X0105663Y0201678D01*
X0104896Y0202446D01*
X0107965Y0205515D01*
X0107965Y0202446D01*
X0107198Y0201678D01*
X0104896Y0202446D02*
X0104896Y0205515D01*
X0105663Y0206282D01*
X0107198Y0206282D01*
X0107965Y0205515D01*
X0103361Y0204748D02*
X0103361Y0201678D01*
X0103361Y0203980D02*
X0100292Y0203980D01*
X0100292Y0204748D02*
X0100292Y0201678D01*
X0100292Y0204748D02*
X0101827Y0206282D01*
X0103361Y0204748D01*
X0103361Y0221678D02*
X0101827Y0221678D01*
X0102594Y0221678D02*
X0102594Y0224748D01*
X0101827Y0224748D01*
X0102594Y0226282D02*
X0102594Y0227050D01*
X0100292Y0226282D02*
X0100292Y0223213D01*
X0098757Y0221678D01*
X0097223Y0223213D01*
X0097223Y0226282D01*
X0096456Y0231678D02*
X0097990Y0231678D01*
X0098757Y0232446D01*
X0098757Y0233980D01*
X0097223Y0233980D01*
X0095688Y0235515D02*
X0095688Y0232446D01*
X0096456Y0231678D01*
X0100292Y0231678D02*
X0100292Y0234748D01*
X0102594Y0234748D01*
X0103361Y0233980D01*
X0103361Y0231678D01*
X0104896Y0232446D02*
X0104896Y0233980D01*
X0105663Y0234748D01*
X0107965Y0234748D01*
X0107965Y0236282D02*
X0107965Y0231678D01*
X0105663Y0231678D01*
X0104896Y0232446D01*
X0098757Y0235515D02*
X0097990Y0236282D01*
X0096456Y0236282D01*
X0095688Y0235515D01*
X0096456Y0241678D02*
X0097990Y0241678D01*
X0098757Y0242446D01*
X0098757Y0243980D01*
X0097223Y0243980D01*
X0095688Y0242446D02*
X0096456Y0241678D01*
X0095688Y0242446D02*
X0095688Y0245515D01*
X0096456Y0246282D01*
X0097990Y0246282D01*
X0098757Y0245515D01*
X0100292Y0244748D02*
X0102594Y0244748D01*
X0103361Y0243980D01*
X0103361Y0241678D01*
X0104896Y0242446D02*
X0104896Y0243980D01*
X0105663Y0244748D01*
X0107965Y0244748D01*
X0107965Y0246282D02*
X0107965Y0241678D01*
X0105663Y0241678D01*
X0104896Y0242446D01*
X0100292Y0241678D02*
X0100292Y0244748D01*
X0101059Y0251678D02*
X0100292Y0252446D01*
X0101059Y0251678D02*
X0102594Y0251678D01*
X0103361Y0252446D01*
X0103361Y0253980D01*
X0102594Y0254748D01*
X0101827Y0254748D01*
X0100292Y0253980D01*
X0100292Y0256282D01*
X0103361Y0256282D01*
X0104896Y0254748D02*
X0106431Y0251678D01*
X0107965Y0254748D01*
X0107198Y0261678D02*
X0105663Y0261678D01*
X0104896Y0262446D01*
X0106431Y0263980D02*
X0107198Y0263980D01*
X0107965Y0263213D01*
X0107965Y0262446D01*
X0107198Y0261678D01*
X0107198Y0263980D02*
X0107965Y0264748D01*
X0107965Y0265515D01*
X0107198Y0266282D01*
X0105663Y0266282D01*
X0104896Y0265515D01*
X0103361Y0264748D02*
X0101827Y0261678D01*
X0100292Y0264748D01*
X0098757Y0264748D02*
X0097990Y0263980D01*
X0098757Y0263213D01*
X0098757Y0262446D01*
X0097990Y0261678D01*
X0096456Y0261678D01*
X0095688Y0262446D01*
X0097223Y0263980D02*
X0097990Y0263980D01*
X0098757Y0264748D02*
X0098757Y0265515D01*
X0097990Y0266282D01*
X0096456Y0266282D01*
X0095688Y0265515D01*
X0097223Y0271678D02*
X0097223Y0276282D01*
X0099525Y0276282D01*
X0100292Y0275515D01*
X0100292Y0273980D01*
X0099525Y0273213D01*
X0097223Y0273213D01*
X0098757Y0273213D02*
X0100292Y0271678D01*
X0101827Y0271678D02*
X0104129Y0271678D01*
X0104896Y0272446D01*
X0104129Y0273213D01*
X0102594Y0273213D01*
X0101827Y0273980D01*
X0102594Y0274748D01*
X0104896Y0274748D01*
X0106431Y0274748D02*
X0107965Y0274748D01*
X0107198Y0275515D02*
X0107198Y0272446D01*
X0107965Y0271678D01*
X0107198Y0224748D02*
X0107965Y0223980D01*
X0107965Y0221678D01*
X0104896Y0221678D02*
X0104896Y0224748D01*
X0107198Y0224748D01*
X0101827Y0156282D02*
X0103361Y0154748D01*
X0103361Y0151678D01*
X0103361Y0153980D02*
X0100292Y0153980D01*
X0100292Y0154748D02*
X0101827Y0156282D01*
X0100292Y0154748D02*
X0100292Y0151678D01*
X0100292Y0143980D02*
X0103361Y0143980D01*
D18*
X0116800Y0143978D03*
X0116800Y0133978D03*
X0116800Y0113978D03*
X0116800Y0103978D03*
X0116800Y0093978D03*
X0116800Y0083978D03*
X0116800Y0073978D03*
X0116800Y0063978D03*
X0116800Y0053978D03*
X0116800Y0043978D03*
X0136800Y0033978D03*
X0136800Y0023978D03*
X0146800Y0023978D03*
X0156800Y0023978D03*
X0166800Y0023978D03*
X0176800Y0023978D03*
X0186800Y0023978D03*
X0196800Y0023978D03*
X0206800Y0023978D03*
X0216800Y0023978D03*
X0226800Y0023978D03*
X0236800Y0023978D03*
X0246800Y0023978D03*
X0256800Y0023978D03*
X0266800Y0023978D03*
X0276800Y0023978D03*
X0286800Y0023978D03*
X0296800Y0023978D03*
X0306800Y0023978D03*
X0306800Y0033978D03*
X0296800Y0033978D03*
X0286800Y0033978D03*
X0276800Y0033978D03*
X0266800Y0033978D03*
X0256800Y0033978D03*
X0246800Y0033978D03*
X0236800Y0033978D03*
X0226800Y0033978D03*
X0216800Y0033978D03*
X0206800Y0033978D03*
X0196800Y0033978D03*
X0186800Y0033978D03*
X0176800Y0033978D03*
X0166800Y0033978D03*
X0156800Y0033978D03*
X0146800Y0033978D03*
X0206800Y0143978D03*
X0216800Y0143978D03*
X0226800Y0143978D03*
X0226800Y0153978D03*
X0216800Y0153978D03*
X0206800Y0153978D03*
X0116800Y0153978D03*
X0116800Y0163978D03*
X0116800Y0173978D03*
X0116800Y0183978D03*
X0116800Y0193978D03*
X0116800Y0203978D03*
X0116800Y0223978D03*
X0116800Y0233978D03*
X0116800Y0243978D03*
X0116800Y0253978D03*
X0116800Y0263978D03*
X0116800Y0273978D03*
X0116800Y0283978D03*
X0116800Y0293978D03*
X0281800Y0293978D03*
X0281800Y0303978D03*
X0281800Y0283978D03*
X0281800Y0273978D03*
X0306800Y0268978D03*
X0306800Y0258978D03*
X0306800Y0248978D03*
X0306800Y0238978D03*
X0306800Y0223978D03*
X0306800Y0213978D03*
X0306800Y0203978D03*
X0306800Y0193978D03*
X0306800Y0183978D03*
X0306800Y0173978D03*
X0306800Y0163978D03*
X0306800Y0153978D03*
X0306800Y0133978D03*
X0306800Y0123978D03*
X0306800Y0113978D03*
X0306800Y0113978D03*
X0306800Y0103978D03*
X0306800Y0093978D03*
X0306800Y0083978D03*
X0306800Y0073978D03*
X0306800Y0063978D03*
X0306800Y0278978D03*
X0306800Y0288978D03*
X0306800Y0298978D03*
X0306800Y0308978D03*
X0306800Y0318978D03*
X0306800Y0328978D03*
D19*
X0314450Y0329764D02*
X0315234Y0328980D01*
X0316802Y0328980D01*
X0317586Y0328196D01*
X0317586Y0327412D01*
X0316802Y0326628D01*
X0315234Y0326628D01*
X0314450Y0327412D01*
X0314450Y0329764D02*
X0314450Y0330548D01*
X0315234Y0331332D01*
X0316802Y0331332D01*
X0317586Y0330548D01*
X0319054Y0330548D02*
X0319054Y0327412D01*
X0319838Y0326628D01*
X0321406Y0326628D01*
X0322190Y0327412D01*
X0323658Y0326628D02*
X0326794Y0326628D01*
X0328262Y0326628D02*
X0331398Y0326628D01*
X0329830Y0326628D02*
X0329830Y0331332D01*
X0328262Y0329764D01*
X0323658Y0331332D02*
X0323658Y0326628D01*
X0322190Y0330548D02*
X0321406Y0331332D01*
X0319838Y0331332D01*
X0319054Y0330548D01*
X0319054Y0321332D02*
X0321406Y0321332D01*
X0322190Y0320548D01*
X0322190Y0317412D01*
X0321406Y0316628D01*
X0319054Y0316628D01*
X0319054Y0321332D01*
X0317586Y0320548D02*
X0316802Y0321332D01*
X0315234Y0321332D01*
X0314450Y0320548D01*
X0314450Y0319764D01*
X0315234Y0318980D01*
X0316802Y0318980D01*
X0317586Y0318196D01*
X0317586Y0317412D01*
X0316802Y0316628D01*
X0315234Y0316628D01*
X0314450Y0317412D01*
X0323658Y0316628D02*
X0323658Y0319764D01*
X0325226Y0321332D01*
X0326794Y0319764D01*
X0326794Y0316628D01*
X0328262Y0316628D02*
X0331398Y0316628D01*
X0329830Y0316628D02*
X0329830Y0321332D01*
X0328262Y0319764D01*
X0326794Y0318980D02*
X0323658Y0318980D01*
X0272982Y0306332D02*
X0269846Y0306332D01*
X0268378Y0306332D02*
X0265242Y0306332D01*
X0265242Y0301628D01*
X0268378Y0301628D01*
X0266810Y0303980D02*
X0265242Y0303980D01*
X0263774Y0303196D02*
X0263774Y0302412D01*
X0262990Y0301628D01*
X0261422Y0301628D01*
X0260638Y0302412D01*
X0259170Y0301628D02*
X0256034Y0301628D01*
X0256034Y0306332D01*
X0259170Y0306332D01*
X0260638Y0305548D02*
X0260638Y0304764D01*
X0261422Y0303980D01*
X0262990Y0303980D01*
X0263774Y0303196D01*
X0263774Y0305548D02*
X0262990Y0306332D01*
X0261422Y0306332D01*
X0260638Y0305548D01*
X0257602Y0303980D02*
X0256034Y0303980D01*
X0254566Y0303980D02*
X0253782Y0303196D01*
X0251430Y0303196D01*
X0251430Y0301628D02*
X0251430Y0306332D01*
X0253782Y0306332D01*
X0254566Y0305548D01*
X0254566Y0303980D01*
X0252998Y0303196D02*
X0254566Y0301628D01*
X0255317Y0296332D02*
X0253749Y0296332D01*
X0252965Y0295548D01*
X0252965Y0294764D01*
X0253749Y0293980D01*
X0255317Y0293980D01*
X0256101Y0293196D01*
X0256101Y0292412D01*
X0255317Y0291628D01*
X0253749Y0291628D01*
X0252965Y0292412D01*
X0256101Y0295548D02*
X0255317Y0296332D01*
X0257569Y0296332D02*
X0257569Y0291628D01*
X0259137Y0293196D01*
X0260705Y0291628D01*
X0260705Y0296332D01*
X0262173Y0296332D02*
X0264525Y0296332D01*
X0265309Y0295548D01*
X0265309Y0292412D01*
X0264525Y0291628D01*
X0262173Y0291628D01*
X0262173Y0296332D01*
X0266777Y0296332D02*
X0268345Y0296332D01*
X0267561Y0296332D02*
X0267561Y0291628D01*
X0266777Y0291628D02*
X0268345Y0291628D01*
X0269846Y0292412D02*
X0270630Y0291628D01*
X0272198Y0291628D01*
X0272982Y0292412D01*
X0272982Y0295548D01*
X0272198Y0296332D01*
X0270630Y0296332D01*
X0269846Y0295548D01*
X0269846Y0292412D01*
X0269846Y0286332D02*
X0269846Y0281628D01*
X0268378Y0281628D02*
X0265242Y0281628D01*
X0265242Y0286332D01*
X0263774Y0285548D02*
X0262990Y0286332D01*
X0261422Y0286332D01*
X0260638Y0285548D01*
X0260638Y0282412D01*
X0261422Y0281628D01*
X0262990Y0281628D01*
X0263774Y0282412D01*
X0269846Y0283196D02*
X0272982Y0286332D01*
X0270630Y0283980D02*
X0272982Y0281628D01*
X0272198Y0276332D02*
X0269846Y0276332D01*
X0269846Y0271628D01*
X0272198Y0271628D01*
X0272982Y0272412D01*
X0272982Y0275548D01*
X0272198Y0276332D01*
X0268378Y0276332D02*
X0268378Y0271628D01*
X0265242Y0276332D01*
X0265242Y0271628D01*
X0263774Y0272412D02*
X0263774Y0273980D01*
X0262206Y0273980D01*
X0260638Y0275548D02*
X0260638Y0272412D01*
X0261422Y0271628D01*
X0262990Y0271628D01*
X0263774Y0272412D01*
X0263774Y0275548D02*
X0262990Y0276332D01*
X0261422Y0276332D01*
X0260638Y0275548D01*
X0259170Y0281628D02*
X0259170Y0286332D01*
X0256034Y0286332D02*
X0256034Y0281628D01*
X0257602Y0283196D01*
X0259170Y0281628D01*
X0254566Y0282412D02*
X0253782Y0281628D01*
X0252214Y0281628D01*
X0251430Y0282412D01*
X0252214Y0283980D02*
X0253782Y0283980D01*
X0254566Y0283196D01*
X0254566Y0282412D01*
X0252214Y0283980D02*
X0251430Y0284764D01*
X0251430Y0285548D01*
X0252214Y0286332D01*
X0253782Y0286332D01*
X0254566Y0285548D01*
X0271414Y0301628D02*
X0271414Y0306332D01*
X0209150Y0181612D02*
X0204446Y0181612D01*
X0204446Y0180044D02*
X0204446Y0183180D01*
X0204446Y0178576D02*
X0204446Y0175440D01*
X0209150Y0175440D01*
X0209150Y0178576D01*
X0206798Y0177008D02*
X0206798Y0175440D01*
X0207582Y0173972D02*
X0208366Y0173972D01*
X0209150Y0173188D01*
X0209150Y0171620D01*
X0208366Y0170836D01*
X0209150Y0169368D02*
X0209150Y0166232D01*
X0204446Y0166232D01*
X0204446Y0169368D01*
X0205230Y0170836D02*
X0206014Y0170836D01*
X0206798Y0171620D01*
X0206798Y0173188D01*
X0207582Y0173972D01*
X0205230Y0173972D02*
X0204446Y0173188D01*
X0204446Y0171620D01*
X0205230Y0170836D01*
X0206798Y0167800D02*
X0206798Y0166232D01*
X0206798Y0164764D02*
X0207582Y0163980D01*
X0207582Y0161628D01*
X0209150Y0161628D02*
X0204446Y0161628D01*
X0204446Y0163980D01*
X0205230Y0164764D01*
X0206798Y0164764D01*
X0207582Y0163196D02*
X0209150Y0164764D01*
X0214446Y0163980D02*
X0214446Y0162412D01*
X0215230Y0161628D01*
X0216014Y0161628D01*
X0216798Y0162412D01*
X0216798Y0163980D01*
X0217582Y0164764D01*
X0218366Y0164764D01*
X0219150Y0163980D01*
X0219150Y0162412D01*
X0218366Y0161628D01*
X0215230Y0164764D02*
X0214446Y0163980D01*
X0215230Y0166232D02*
X0214446Y0167016D01*
X0214446Y0168584D01*
X0215230Y0169368D01*
X0214446Y0170836D02*
X0219150Y0170836D01*
X0217582Y0170836D02*
X0214446Y0173972D01*
X0216798Y0171620D02*
X0219150Y0173972D01*
X0224446Y0174690D02*
X0225230Y0173906D01*
X0228366Y0173906D01*
X0229150Y0174690D01*
X0229150Y0176258D01*
X0228366Y0177042D01*
X0225230Y0177042D01*
X0224446Y0176258D01*
X0224446Y0174690D01*
X0225230Y0172438D02*
X0224446Y0171654D01*
X0224446Y0170086D01*
X0225230Y0169302D01*
X0226014Y0169302D01*
X0226798Y0170086D01*
X0226798Y0171654D01*
X0227582Y0172438D01*
X0228366Y0172438D01*
X0229150Y0171654D01*
X0229150Y0170086D01*
X0228366Y0169302D01*
X0229150Y0167800D02*
X0229150Y0166232D01*
X0229150Y0167016D02*
X0224446Y0167016D01*
X0224446Y0166232D02*
X0224446Y0167800D01*
X0224446Y0164764D02*
X0229150Y0164764D01*
X0229150Y0161628D02*
X0224446Y0161628D01*
X0226014Y0163196D01*
X0224446Y0164764D01*
X0219150Y0167016D02*
X0219150Y0168584D01*
X0218366Y0169368D01*
X0219150Y0167016D02*
X0218366Y0166232D01*
X0215230Y0166232D01*
X0214446Y0135127D02*
X0214446Y0133559D01*
X0214446Y0134343D02*
X0219150Y0134343D01*
X0219150Y0133559D02*
X0219150Y0135127D01*
X0218366Y0132091D02*
X0217582Y0132091D01*
X0216798Y0131307D01*
X0216798Y0129739D01*
X0216014Y0128955D01*
X0215230Y0128955D01*
X0214446Y0129739D01*
X0214446Y0131307D01*
X0215230Y0132091D01*
X0218366Y0132091D02*
X0219150Y0131307D01*
X0219150Y0129739D01*
X0218366Y0128955D01*
X0218366Y0127487D02*
X0215230Y0127487D01*
X0214446Y0126703D01*
X0214446Y0125135D01*
X0215230Y0124351D01*
X0218366Y0124351D01*
X0219150Y0125135D01*
X0219150Y0126703D01*
X0218366Y0127487D01*
X0219150Y0122883D02*
X0214446Y0122883D01*
X0216014Y0121315D01*
X0214446Y0119747D01*
X0219150Y0119747D01*
X0224446Y0127421D02*
X0226798Y0127421D01*
X0226014Y0128989D01*
X0226014Y0129773D01*
X0226798Y0130557D01*
X0228366Y0130557D01*
X0229150Y0129773D01*
X0229150Y0128205D01*
X0228366Y0127421D01*
X0224446Y0127421D02*
X0224446Y0130557D01*
X0224446Y0132025D02*
X0227582Y0132025D01*
X0229150Y0133593D01*
X0227582Y0135161D01*
X0224446Y0135161D01*
X0209150Y0134377D02*
X0208366Y0135161D01*
X0205230Y0135161D01*
X0204446Y0134377D01*
X0204446Y0132025D01*
X0209150Y0132025D01*
X0209150Y0134377D01*
X0209150Y0130557D02*
X0204446Y0130557D01*
X0204446Y0127421D02*
X0209150Y0130557D01*
X0209150Y0127421D02*
X0204446Y0127421D01*
X0205230Y0125953D02*
X0204446Y0125169D01*
X0204446Y0123601D01*
X0205230Y0122817D01*
X0208366Y0122817D01*
X0209150Y0123601D01*
X0209150Y0125169D01*
X0208366Y0125953D01*
X0206798Y0125953D01*
X0206798Y0124385D01*
X0107165Y0281628D02*
X0107165Y0285548D01*
X0107949Y0286332D01*
X0107949Y0283980D02*
X0106381Y0283980D01*
X0104913Y0283980D02*
X0104913Y0283196D01*
X0101777Y0283196D01*
X0101777Y0282412D02*
X0101777Y0283980D01*
X0102561Y0284764D01*
X0104129Y0284764D01*
X0104913Y0283980D01*
X0104129Y0281628D02*
X0102561Y0281628D01*
X0101777Y0282412D01*
X0100292Y0284764D02*
X0099508Y0284764D01*
X0097940Y0283196D01*
X0097940Y0281628D02*
X0097940Y0284764D01*
X0096472Y0285548D02*
X0096472Y0282412D01*
X0095688Y0281628D01*
X0094120Y0281628D01*
X0093336Y0282412D01*
X0093336Y0285548D01*
X0094120Y0286332D01*
X0095688Y0286332D01*
X0096472Y0285548D01*
X0091835Y0286332D02*
X0090267Y0286332D01*
X0091051Y0286332D02*
X0091051Y0281628D01*
X0090267Y0281628D02*
X0091835Y0281628D01*
D20*
X0188050Y0290226D03*
X0188050Y0250856D03*
D21*
X0188050Y0254990D03*
X0188050Y0286092D03*
M02*
