G75*
%MOIN*%
%OFA0B0*%
%FSLAX25Y25*%
%IPPOS*%
%LPD*%
%AMOC8*
5,1,8,0,0,1.08239X$1,22.5*
%
%ADD10C,0.00394*%
%ADD11C,0.00787*%
%ADD12C,0.00600*%
D10*
X0084201Y0089504D02*
X0084201Y0152496D01*
X0107799Y0152496D01*
X0107799Y0089504D01*
X0084201Y0089504D01*
X0064740Y0152496D02*
X0064740Y0242496D01*
X0127339Y0242496D01*
X0127339Y0152496D01*
X0064740Y0152496D01*
D11*
X0086394Y0244661D02*
X0086394Y0244661D01*
X0086394Y0244661D01*
X0086396Y0244634D01*
X0086401Y0244608D01*
X0086410Y0244583D01*
X0086423Y0244559D01*
X0086438Y0244537D01*
X0086457Y0244517D01*
X0086477Y0244500D01*
X0086500Y0244486D01*
X0086525Y0244475D01*
X0086551Y0244468D01*
X0086578Y0244464D01*
X0086604Y0244464D01*
X0086631Y0244468D01*
X0086657Y0244475D01*
X0086682Y0244486D01*
X0086705Y0244500D01*
X0086725Y0244517D01*
X0086744Y0244537D01*
X0086759Y0244559D01*
X0086772Y0244583D01*
X0086781Y0244608D01*
X0086786Y0244634D01*
X0086788Y0244661D01*
X0086787Y0244661D02*
X0086787Y0244661D01*
X0086788Y0244661D02*
X0086786Y0244688D01*
X0086781Y0244714D01*
X0086772Y0244739D01*
X0086759Y0244763D01*
X0086744Y0244785D01*
X0086725Y0244805D01*
X0086705Y0244822D01*
X0086682Y0244836D01*
X0086657Y0244847D01*
X0086631Y0244854D01*
X0086604Y0244858D01*
X0086578Y0244858D01*
X0086551Y0244854D01*
X0086525Y0244847D01*
X0086500Y0244836D01*
X0086477Y0244822D01*
X0086457Y0244805D01*
X0086438Y0244785D01*
X0086423Y0244763D01*
X0086410Y0244739D01*
X0086401Y0244714D01*
X0086396Y0244688D01*
X0086394Y0244661D01*
X0086396Y0244634D01*
X0086401Y0244608D01*
X0086410Y0244583D01*
X0086423Y0244559D01*
X0086438Y0244537D01*
X0086457Y0244517D01*
X0086477Y0244500D01*
X0086500Y0244486D01*
X0086525Y0244475D01*
X0086551Y0244468D01*
X0086578Y0244464D01*
X0086604Y0244464D01*
X0086631Y0244468D01*
X0086657Y0244475D01*
X0086682Y0244486D01*
X0086705Y0244500D01*
X0086725Y0244517D01*
X0086744Y0244537D01*
X0086759Y0244559D01*
X0086772Y0244583D01*
X0086781Y0244608D01*
X0086786Y0244634D01*
X0086788Y0244661D01*
D12*
X0053500Y0276000D02*
X0048500Y0276000D01*
X0046000Y0278500D01*
X0046000Y0293500D01*
X0043500Y0296000D01*
X0038500Y0296000D01*
X0036000Y0293500D01*
X0036000Y0278500D01*
X0033500Y0276000D01*
X0028500Y0276000D01*
X0026000Y0278500D01*
X0023500Y0276000D01*
X0018500Y0276000D01*
X0016000Y0278500D01*
X0016000Y0293500D01*
X0018500Y0296000D01*
X0023500Y0296000D01*
X0026000Y0293500D01*
X0026000Y0278500D01*
X0036000Y0278500D02*
X0038500Y0276000D01*
X0043500Y0276000D01*
X0046000Y0278500D01*
X0053500Y0276000D02*
X0056000Y0278500D01*
X0056000Y0293500D01*
X0053500Y0296000D01*
X0048500Y0296000D01*
X0046000Y0293500D01*
X0036000Y0293500D02*
X0033500Y0296000D01*
X0028500Y0296000D01*
X0026000Y0293500D01*
M02*
