G04 EAGLE Gerber RS-274X export*
G04 #@! %TF.Part,Single*
G04 #@! %TF.FileFunction,Other,Bottom Copper*
G04 #@! %TF.FilePolarity,Positive*
G04 #@! %TF.GenerationSoftware,Autodesk,EAGLE,9.5.2*
G04 #@! %TF.CreationDate,2020-01-10T22:13:51Z*
G75*
%MOIN*%
%FSLAX34Y34*%
%LPD*%
%INBottom Copper*%
%IPPOS*%
%AMOC8*
5,1,8,0,0,1.08239X$1,22.5*%
G01*
%ADD10C,0.132874*%
%ADD11C,0.076772*%
%ADD12C,0.082677*%
%ADD13C,0.112795*%
%ADD14C,0.051496*%
%ADD15C,0.088583*%
%ADD16C,0.015748*%
%ADD17C,0.029780*%

G36*
X50893Y29901D02*
X50893Y29901D01*
X50894Y29901D01*
X50901Y29902D01*
X50907Y29902D01*
X50908Y29903D01*
X50910Y29903D01*
X50916Y29905D01*
X50922Y29907D01*
X50923Y29908D01*
X50925Y29908D01*
X50930Y29911D01*
X50936Y29915D01*
X50937Y29915D01*
X50938Y29916D01*
X50943Y29921D01*
X50948Y29925D01*
X50948Y29926D01*
X50950Y29927D01*
X50953Y29932D01*
X50957Y29937D01*
X50958Y29938D01*
X50959Y29939D01*
X50961Y29945D01*
X50964Y29951D01*
X50965Y29952D01*
X50965Y29954D01*
X50967Y29960D01*
X50968Y29966D01*
X50968Y29968D01*
X50969Y29969D01*
X50969Y29979D01*
X50969Y74017D01*
X50969Y74019D01*
X50969Y74020D01*
X50968Y74027D01*
X50968Y74033D01*
X50967Y74034D01*
X50967Y74036D01*
X50965Y74042D01*
X50963Y74048D01*
X50962Y74049D01*
X50962Y74051D01*
X50959Y74056D01*
X50956Y74062D01*
X50955Y74063D01*
X50954Y74064D01*
X50950Y74069D01*
X50945Y74073D01*
X50944Y74074D01*
X50943Y74075D01*
X50938Y74079D01*
X50933Y74083D01*
X50932Y74084D01*
X50931Y74085D01*
X50925Y74087D01*
X50919Y74090D01*
X50918Y74091D01*
X50916Y74091D01*
X50910Y74093D01*
X50904Y74094D01*
X50903Y74094D01*
X50901Y74095D01*
X50891Y74095D01*
X1479Y74095D01*
X1477Y74095D01*
X1476Y74095D01*
X1470Y74094D01*
X1463Y74094D01*
X1462Y74093D01*
X1460Y74093D01*
X1454Y74091D01*
X1448Y74089D01*
X1447Y74088D01*
X1446Y74088D01*
X1440Y74085D01*
X1435Y74082D01*
X1433Y74081D01*
X1432Y74080D01*
X1427Y74076D01*
X1423Y74071D01*
X1422Y74070D01*
X1421Y74069D01*
X1417Y74064D01*
X1413Y74059D01*
X1412Y74058D01*
X1411Y74057D01*
X1409Y74051D01*
X1406Y74045D01*
X1405Y74044D01*
X1405Y74042D01*
X1403Y74036D01*
X1402Y74030D01*
X1402Y74029D01*
X1401Y74027D01*
X1401Y74017D01*
X1401Y29979D01*
X1401Y29977D01*
X1401Y29976D01*
X1402Y29969D01*
X1402Y29963D01*
X1403Y29962D01*
X1403Y29960D01*
X1405Y29954D01*
X1407Y29948D01*
X1408Y29947D01*
X1408Y29946D01*
X1411Y29940D01*
X1415Y29935D01*
X1415Y29933D01*
X1416Y29932D01*
X1421Y29927D01*
X1425Y29923D01*
X1426Y29922D01*
X1427Y29921D01*
X1432Y29917D01*
X1437Y29913D01*
X1438Y29912D01*
X1439Y29911D01*
X1445Y29909D01*
X1451Y29906D01*
X1452Y29905D01*
X1454Y29905D01*
X1460Y29903D01*
X1466Y29902D01*
X1468Y29902D01*
X1469Y29901D01*
X1479Y29901D01*
X50891Y29901D01*
X50893Y29901D01*
G37*
%LPC*%
G36*
X46108Y32775D02*
X46108Y32775D01*
X45841Y32885D01*
X45637Y33089D01*
X45527Y33356D01*
X45527Y33644D01*
X45637Y33911D01*
X45841Y34115D01*
X46108Y34225D01*
X46396Y34225D01*
X46597Y34142D01*
X46598Y34142D01*
X46600Y34141D01*
X46606Y34139D01*
X46612Y34138D01*
X46614Y34137D01*
X46615Y34137D01*
X46621Y34137D01*
X46627Y34136D01*
X46629Y34136D01*
X46631Y34136D01*
X46637Y34137D01*
X46643Y34138D01*
X46645Y34138D01*
X46646Y34139D01*
X46652Y34141D01*
X46658Y34143D01*
X46659Y34144D01*
X46661Y34144D01*
X46666Y34147D01*
X46671Y34150D01*
X46673Y34152D01*
X46674Y34152D01*
X46682Y34159D01*
X49358Y36835D01*
X49359Y36837D01*
X49361Y36838D01*
X49364Y36843D01*
X49368Y36847D01*
X49369Y36849D01*
X49370Y36851D01*
X49372Y36856D01*
X49375Y36861D01*
X49375Y36863D01*
X49376Y36865D01*
X49378Y36871D01*
X49379Y36876D01*
X49379Y36878D01*
X49380Y36880D01*
X49381Y36890D01*
X49381Y69650D01*
X49380Y69652D01*
X49380Y69654D01*
X49380Y69660D01*
X49379Y69665D01*
X49378Y69668D01*
X49378Y69670D01*
X49376Y69675D01*
X49374Y69680D01*
X49373Y69682D01*
X49372Y69684D01*
X49369Y69689D01*
X49367Y69694D01*
X49365Y69696D01*
X49364Y69698D01*
X49358Y69705D01*
X48401Y70662D01*
X48401Y71508D01*
X48400Y71510D01*
X48400Y71512D01*
X48400Y71517D01*
X48399Y71523D01*
X48398Y71525D01*
X48398Y71527D01*
X48396Y71533D01*
X48394Y71538D01*
X48393Y71540D01*
X48393Y71542D01*
X48390Y71547D01*
X48387Y71552D01*
X48386Y71553D01*
X48385Y71555D01*
X48381Y71559D01*
X48377Y71564D01*
X48375Y71565D01*
X48374Y71567D01*
X48369Y71570D01*
X48364Y71574D01*
X48363Y71575D01*
X48361Y71576D01*
X48352Y71580D01*
X48248Y71623D01*
X48123Y71748D01*
X48055Y71912D01*
X48055Y72088D01*
X48123Y72252D01*
X48248Y72377D01*
X48412Y72445D01*
X48588Y72445D01*
X48752Y72377D01*
X48877Y72252D01*
X48945Y72088D01*
X48945Y71912D01*
X48877Y71748D01*
X48752Y71623D01*
X48728Y71613D01*
X48726Y71612D01*
X48724Y71612D01*
X48719Y71608D01*
X48714Y71606D01*
X48712Y71604D01*
X48711Y71604D01*
X48706Y71599D01*
X48702Y71596D01*
X48701Y71594D01*
X48699Y71593D01*
X48696Y71588D01*
X48692Y71583D01*
X48691Y71582D01*
X48690Y71580D01*
X48688Y71575D01*
X48685Y71569D01*
X48684Y71568D01*
X48684Y71566D01*
X48682Y71560D01*
X48681Y71554D01*
X48681Y71553D01*
X48680Y71551D01*
X48679Y71541D01*
X48679Y70810D01*
X48680Y70808D01*
X48680Y70806D01*
X48680Y70800D01*
X48681Y70795D01*
X48682Y70792D01*
X48682Y70790D01*
X48684Y70785D01*
X48686Y70780D01*
X48687Y70778D01*
X48688Y70776D01*
X48691Y70771D01*
X48693Y70766D01*
X48695Y70764D01*
X48696Y70762D01*
X48702Y70755D01*
X49659Y69798D01*
X49659Y36742D01*
X47913Y34996D01*
X47911Y34993D01*
X47909Y34991D01*
X47906Y34987D01*
X47903Y34983D01*
X47901Y34981D01*
X47900Y34978D01*
X47898Y34974D01*
X47896Y34970D01*
X47895Y34967D01*
X47894Y34964D01*
X47893Y34959D01*
X47891Y34955D01*
X47891Y34951D01*
X47890Y34948D01*
X47890Y34944D01*
X47890Y34939D01*
X47890Y34936D01*
X47890Y34933D01*
X47891Y34928D01*
X47892Y34923D01*
X47893Y34920D01*
X47893Y34917D01*
X47895Y34913D01*
X47897Y34909D01*
X47898Y34906D01*
X47900Y34903D01*
X47902Y34899D01*
X47905Y34895D01*
X47907Y34893D01*
X47908Y34890D01*
X47912Y34887D01*
X47915Y34883D01*
X47917Y34881D01*
X47920Y34879D01*
X47924Y34877D01*
X47927Y34874D01*
X47930Y34872D01*
X47933Y34871D01*
X47937Y34869D01*
X47942Y34867D01*
X47945Y34866D01*
X47947Y34865D01*
X47952Y34864D01*
X47957Y34863D01*
X47960Y34863D01*
X47963Y34863D01*
X47968Y34863D01*
X47972Y34863D01*
X47975Y34863D01*
X47979Y34863D01*
X47987Y34865D01*
X47988Y34865D01*
X48246Y34934D01*
X48510Y34934D01*
X48764Y34866D01*
X48993Y34734D01*
X49179Y34548D01*
X49311Y34319D01*
X49379Y34065D01*
X49379Y33801D01*
X49311Y33547D01*
X49179Y33318D01*
X48993Y33132D01*
X48764Y33000D01*
X48510Y32932D01*
X48246Y32932D01*
X47992Y33000D01*
X47763Y33132D01*
X47577Y33318D01*
X47445Y33547D01*
X47377Y33801D01*
X47377Y34065D01*
X47446Y34323D01*
X47446Y34326D01*
X47447Y34329D01*
X47448Y34334D01*
X47448Y34338D01*
X47448Y34341D01*
X47449Y34345D01*
X47448Y34349D01*
X47448Y34354D01*
X47447Y34357D01*
X47447Y34360D01*
X47445Y34365D01*
X47444Y34369D01*
X47443Y34372D01*
X47442Y34375D01*
X47439Y34379D01*
X47437Y34383D01*
X47436Y34386D01*
X47434Y34388D01*
X47431Y34392D01*
X47428Y34396D01*
X47426Y34398D01*
X47424Y34400D01*
X47420Y34403D01*
X47416Y34406D01*
X47414Y34408D01*
X47411Y34410D01*
X47407Y34412D01*
X47403Y34414D01*
X47400Y34415D01*
X47397Y34416D01*
X47392Y34418D01*
X47388Y34419D01*
X47385Y34419D01*
X47382Y34420D01*
X47377Y34420D01*
X47372Y34421D01*
X47369Y34421D01*
X47366Y34421D01*
X47362Y34420D01*
X47357Y34420D01*
X47354Y34419D01*
X47351Y34418D01*
X47346Y34417D01*
X47342Y34416D01*
X47339Y34414D01*
X47336Y34413D01*
X47332Y34410D01*
X47328Y34408D01*
X47325Y34406D01*
X47323Y34405D01*
X47316Y34399D01*
X47316Y34398D01*
X47315Y34398D01*
X46892Y33975D01*
X46891Y33974D01*
X46890Y33972D01*
X46886Y33967D01*
X46882Y33963D01*
X46881Y33961D01*
X46880Y33960D01*
X46878Y33954D01*
X46875Y33949D01*
X46875Y33947D01*
X46874Y33946D01*
X46872Y33940D01*
X46871Y33934D01*
X46871Y33932D01*
X46870Y33930D01*
X46870Y33924D01*
X46869Y33918D01*
X46870Y33917D01*
X46870Y33915D01*
X46871Y33909D01*
X46871Y33903D01*
X46872Y33901D01*
X46872Y33899D01*
X46875Y33890D01*
X46977Y33644D01*
X46977Y33356D01*
X46867Y33089D01*
X46663Y32885D01*
X46396Y32775D01*
X46108Y32775D01*
G37*
%LPD*%
%LPC*%
G36*
X33970Y32775D02*
X33970Y32775D01*
X33703Y32885D01*
X33499Y33089D01*
X33389Y33356D01*
X33389Y33644D01*
X33499Y33911D01*
X33703Y34115D01*
X33952Y34218D01*
X33954Y34219D01*
X33956Y34219D01*
X33961Y34222D01*
X33966Y34225D01*
X33968Y34226D01*
X33969Y34227D01*
X33974Y34231D01*
X33978Y34235D01*
X33979Y34237D01*
X33981Y34238D01*
X33984Y34243D01*
X33988Y34247D01*
X33989Y34249D01*
X33990Y34251D01*
X33992Y34256D01*
X33995Y34261D01*
X33996Y34263D01*
X33996Y34265D01*
X33998Y34271D01*
X33999Y34276D01*
X33999Y34278D01*
X34000Y34280D01*
X34001Y34290D01*
X34001Y37389D01*
X34000Y37390D01*
X34000Y37391D01*
X34000Y37393D01*
X34000Y37396D01*
X33999Y37400D01*
X33999Y37404D01*
X33998Y37408D01*
X33997Y37411D01*
X33996Y37415D01*
X33994Y37419D01*
X33993Y37422D01*
X33991Y37425D01*
X33989Y37429D01*
X33987Y37433D01*
X33985Y37436D01*
X33983Y37438D01*
X33979Y37442D01*
X33977Y37445D01*
X33974Y37447D01*
X33971Y37449D01*
X33968Y37452D01*
X33964Y37455D01*
X33961Y37456D01*
X33958Y37458D01*
X33954Y37460D01*
X33950Y37462D01*
X33947Y37463D01*
X33944Y37464D01*
X33939Y37465D01*
X33935Y37466D01*
X33932Y37466D01*
X33928Y37467D01*
X33924Y37466D01*
X33920Y37467D01*
X33916Y37466D01*
X33913Y37466D01*
X33908Y37465D01*
X33904Y37465D01*
X33901Y37463D01*
X33898Y37463D01*
X33893Y37461D01*
X33889Y37459D01*
X33886Y37458D01*
X33883Y37456D01*
X33880Y37454D01*
X33876Y37451D01*
X33873Y37449D01*
X33871Y37447D01*
X33868Y37444D01*
X33864Y37441D01*
X33862Y37438D01*
X33860Y37435D01*
X33858Y37432D01*
X33855Y37428D01*
X33854Y37425D01*
X33852Y37422D01*
X33850Y37416D01*
X33849Y37416D01*
X33849Y37415D01*
X33849Y37414D01*
X33849Y37413D01*
X33848Y37413D01*
X33832Y37362D01*
X33806Y37312D01*
X33773Y37267D01*
X33733Y37227D01*
X33688Y37194D01*
X33638Y37168D01*
X33584Y37151D01*
X33578Y37150D01*
X33578Y37500D01*
X33578Y37850D01*
X33584Y37849D01*
X33638Y37832D01*
X33688Y37806D01*
X33733Y37773D01*
X33773Y37733D01*
X33806Y37688D01*
X33832Y37638D01*
X33848Y37587D01*
X33850Y37584D01*
X33851Y37581D01*
X33853Y37577D01*
X33855Y37573D01*
X33857Y37570D01*
X33858Y37567D01*
X33861Y37564D01*
X33864Y37560D01*
X33866Y37558D01*
X33868Y37555D01*
X33872Y37552D01*
X33875Y37549D01*
X33878Y37548D01*
X33881Y37545D01*
X33885Y37543D01*
X33888Y37541D01*
X33892Y37540D01*
X33895Y37538D01*
X33899Y37537D01*
X33903Y37536D01*
X33907Y37535D01*
X33910Y37534D01*
X33914Y37534D01*
X33919Y37533D01*
X33922Y37534D01*
X33925Y37533D01*
X33930Y37534D01*
X33934Y37534D01*
X33938Y37535D01*
X33941Y37535D01*
X33945Y37537D01*
X33949Y37538D01*
X33952Y37540D01*
X33956Y37541D01*
X33959Y37543D01*
X33963Y37545D01*
X33966Y37547D01*
X33969Y37549D01*
X33972Y37552D01*
X33976Y37554D01*
X33978Y37557D01*
X33981Y37559D01*
X33983Y37563D01*
X33986Y37566D01*
X33988Y37569D01*
X33990Y37572D01*
X33992Y37576D01*
X33994Y37580D01*
X33995Y37583D01*
X33996Y37586D01*
X33997Y37591D01*
X33999Y37595D01*
X33999Y37598D01*
X34000Y37601D01*
X34000Y37609D01*
X34001Y37610D01*
X34000Y37611D01*
X34001Y37611D01*
X34001Y41418D01*
X40458Y47875D01*
X40459Y47877D01*
X40461Y47878D01*
X40464Y47883D01*
X40468Y47887D01*
X40469Y47889D01*
X40470Y47891D01*
X40472Y47896D01*
X40475Y47901D01*
X40475Y47903D01*
X40476Y47905D01*
X40478Y47911D01*
X40479Y47916D01*
X40479Y47918D01*
X40480Y47920D01*
X40481Y47930D01*
X40481Y65829D01*
X40480Y65834D01*
X40480Y65839D01*
X40479Y65842D01*
X40479Y65845D01*
X40477Y65850D01*
X40476Y65855D01*
X40475Y65857D01*
X40474Y65860D01*
X40472Y65864D01*
X40470Y65869D01*
X40468Y65871D01*
X40467Y65873D01*
X40463Y65877D01*
X40460Y65881D01*
X40458Y65883D01*
X40457Y65885D01*
X40453Y65888D01*
X40449Y65892D01*
X40446Y65893D01*
X40444Y65895D01*
X40440Y65897D01*
X40435Y65900D01*
X40433Y65901D01*
X40430Y65902D01*
X40425Y65903D01*
X40420Y65905D01*
X40418Y65905D01*
X40415Y65906D01*
X40410Y65906D01*
X40405Y65907D01*
X40402Y65907D01*
X40400Y65907D01*
X40394Y65906D01*
X40389Y65906D01*
X40387Y65905D01*
X40384Y65905D01*
X40379Y65903D01*
X40374Y65902D01*
X40372Y65901D01*
X40369Y65900D01*
X40365Y65897D01*
X40360Y65895D01*
X40358Y65893D01*
X40356Y65892D01*
X40352Y65888D01*
X40348Y65885D01*
X40346Y65883D01*
X40344Y65881D01*
X40341Y65877D01*
X40338Y65873D01*
X40336Y65870D01*
X40335Y65868D01*
X40335Y65867D01*
X40333Y65865D01*
X40306Y65812D01*
X40273Y65767D01*
X40233Y65727D01*
X40188Y65694D01*
X40138Y65668D01*
X40084Y65651D01*
X40078Y65650D01*
X40078Y66000D01*
X40078Y66350D01*
X40084Y66349D01*
X40138Y66332D01*
X40188Y66306D01*
X40233Y66273D01*
X40273Y66233D01*
X40306Y66188D01*
X40333Y66135D01*
X40336Y66131D01*
X40338Y66127D01*
X40340Y66125D01*
X40341Y66122D01*
X40345Y66119D01*
X40348Y66115D01*
X40351Y66113D01*
X40352Y66111D01*
X40357Y66108D01*
X40361Y66105D01*
X40363Y66104D01*
X40365Y66102D01*
X40370Y66100D01*
X40375Y66098D01*
X40377Y66097D01*
X40380Y66096D01*
X40385Y66095D01*
X40390Y66094D01*
X40393Y66094D01*
X40395Y66093D01*
X40400Y66093D01*
X40405Y66093D01*
X40408Y66093D01*
X40411Y66093D01*
X40416Y66094D01*
X40421Y66095D01*
X40423Y66096D01*
X40426Y66097D01*
X40431Y66099D01*
X40436Y66100D01*
X40438Y66102D01*
X40441Y66103D01*
X40445Y66106D01*
X40449Y66108D01*
X40451Y66110D01*
X40453Y66112D01*
X40457Y66115D01*
X40461Y66119D01*
X40462Y66121D01*
X40464Y66123D01*
X40467Y66127D01*
X40470Y66132D01*
X40471Y66134D01*
X40472Y66136D01*
X40474Y66141D01*
X40476Y66146D01*
X40477Y66148D01*
X40478Y66151D01*
X40479Y66156D01*
X40480Y66161D01*
X40480Y66165D01*
X40480Y66166D01*
X40480Y66168D01*
X40481Y66171D01*
X40481Y68574D01*
X40480Y68576D01*
X40480Y68578D01*
X40480Y68584D01*
X40479Y68590D01*
X40478Y68591D01*
X40478Y68593D01*
X40476Y68599D01*
X40474Y68605D01*
X40473Y68606D01*
X40473Y68608D01*
X40470Y68613D01*
X40467Y68618D01*
X40466Y68620D01*
X40465Y68621D01*
X40461Y68626D01*
X40457Y68630D01*
X40455Y68631D01*
X40454Y68633D01*
X40449Y68636D01*
X40444Y68640D01*
X40443Y68641D01*
X40441Y68642D01*
X40432Y68646D01*
X40374Y68670D01*
X40249Y68795D01*
X40181Y68959D01*
X40181Y69136D01*
X40249Y69299D01*
X40374Y69424D01*
X40538Y69492D01*
X40714Y69492D01*
X40878Y69424D01*
X41003Y69299D01*
X41071Y69136D01*
X41071Y68959D01*
X41003Y68795D01*
X40878Y68670D01*
X40808Y68641D01*
X40806Y68640D01*
X40804Y68640D01*
X40799Y68637D01*
X40794Y68634D01*
X40792Y68633D01*
X40791Y68632D01*
X40786Y68628D01*
X40782Y68624D01*
X40781Y68622D01*
X40779Y68621D01*
X40776Y68616D01*
X40772Y68612D01*
X40771Y68610D01*
X40770Y68608D01*
X40768Y68603D01*
X40765Y68598D01*
X40764Y68596D01*
X40764Y68594D01*
X40762Y68588D01*
X40761Y68583D01*
X40761Y68581D01*
X40760Y68579D01*
X40759Y68569D01*
X40759Y47782D01*
X34302Y41325D01*
X34301Y41323D01*
X34299Y41322D01*
X34296Y41317D01*
X34292Y41313D01*
X34291Y41311D01*
X34290Y41309D01*
X34288Y41304D01*
X34285Y41299D01*
X34285Y41297D01*
X34284Y41295D01*
X34282Y41289D01*
X34281Y41284D01*
X34281Y41282D01*
X34280Y41280D01*
X34279Y41270D01*
X34279Y34268D01*
X34280Y34267D01*
X34280Y34265D01*
X34280Y34259D01*
X34281Y34253D01*
X34282Y34251D01*
X34282Y34249D01*
X34284Y34244D01*
X34286Y34238D01*
X34287Y34236D01*
X34287Y34235D01*
X34290Y34230D01*
X34293Y34224D01*
X34294Y34223D01*
X34295Y34221D01*
X34299Y34217D01*
X34303Y34212D01*
X34305Y34211D01*
X34306Y34210D01*
X34311Y34206D01*
X34316Y34203D01*
X34317Y34202D01*
X34319Y34201D01*
X34328Y34196D01*
X34525Y34115D01*
X34729Y33911D01*
X34839Y33644D01*
X34839Y33356D01*
X34729Y33089D01*
X34525Y32885D01*
X34258Y32775D01*
X33970Y32775D01*
G37*
%LPD*%
%LPC*%
G36*
X43470Y32775D02*
X43470Y32775D01*
X43203Y32885D01*
X42999Y33089D01*
X42889Y33356D01*
X42889Y33644D01*
X42999Y33911D01*
X43203Y34115D01*
X43470Y34225D01*
X43758Y34225D01*
X43957Y34143D01*
X43959Y34142D01*
X43961Y34141D01*
X43967Y34140D01*
X43972Y34138D01*
X43974Y34138D01*
X43976Y34138D01*
X43982Y34137D01*
X43988Y34137D01*
X43990Y34137D01*
X43992Y34137D01*
X43998Y34138D01*
X44003Y34138D01*
X44005Y34139D01*
X44007Y34139D01*
X44013Y34141D01*
X44018Y34143D01*
X44020Y34144D01*
X44022Y34145D01*
X44027Y34148D01*
X44032Y34151D01*
X44033Y34152D01*
X44035Y34153D01*
X44042Y34160D01*
X48318Y38435D01*
X48319Y38437D01*
X48321Y38438D01*
X48324Y38443D01*
X48328Y38447D01*
X48329Y38449D01*
X48330Y38451D01*
X48332Y38456D01*
X48335Y38461D01*
X48335Y38463D01*
X48336Y38465D01*
X48338Y38471D01*
X48339Y38476D01*
X48339Y38478D01*
X48340Y38480D01*
X48341Y38490D01*
X48341Y68580D01*
X48340Y68582D01*
X48340Y68584D01*
X48340Y68590D01*
X48339Y68596D01*
X48338Y68597D01*
X48338Y68599D01*
X48336Y68605D01*
X48334Y68610D01*
X48333Y68612D01*
X48333Y68614D01*
X48330Y68619D01*
X48327Y68624D01*
X48326Y68626D01*
X48325Y68627D01*
X48321Y68632D01*
X48317Y68636D01*
X48315Y68637D01*
X48314Y68639D01*
X48309Y68642D01*
X48304Y68646D01*
X48303Y68647D01*
X48301Y68648D01*
X48292Y68652D01*
X48248Y68670D01*
X48123Y68795D01*
X48055Y68959D01*
X48055Y69136D01*
X48123Y69299D01*
X48248Y69424D01*
X48412Y69492D01*
X48588Y69492D01*
X48752Y69424D01*
X48877Y69299D01*
X48945Y69136D01*
X48945Y68959D01*
X48877Y68795D01*
X48752Y68670D01*
X48668Y68635D01*
X48666Y68635D01*
X48664Y68634D01*
X48659Y68631D01*
X48654Y68628D01*
X48652Y68627D01*
X48651Y68626D01*
X48646Y68622D01*
X48642Y68618D01*
X48641Y68617D01*
X48639Y68615D01*
X48636Y68610D01*
X48632Y68606D01*
X48631Y68604D01*
X48630Y68603D01*
X48628Y68597D01*
X48625Y68592D01*
X48624Y68590D01*
X48624Y68588D01*
X48622Y68583D01*
X48621Y68577D01*
X48621Y68575D01*
X48620Y68573D01*
X48619Y68563D01*
X48619Y38342D01*
X44254Y33977D01*
X44253Y33975D01*
X44251Y33974D01*
X44248Y33969D01*
X44244Y33964D01*
X44243Y33963D01*
X44242Y33961D01*
X44239Y33956D01*
X44237Y33951D01*
X44236Y33949D01*
X44235Y33947D01*
X44234Y33941D01*
X44232Y33935D01*
X44232Y33934D01*
X44232Y33932D01*
X44231Y33926D01*
X44231Y33920D01*
X44231Y33918D01*
X44231Y33916D01*
X44232Y33910D01*
X44233Y33904D01*
X44233Y33903D01*
X44234Y33901D01*
X44237Y33892D01*
X44339Y33644D01*
X44339Y33356D01*
X44229Y33089D01*
X44025Y32885D01*
X43758Y32775D01*
X43470Y32775D01*
G37*
%LPD*%
%LPC*%
G36*
X46437Y57682D02*
X46437Y57682D01*
X46320Y57730D01*
X46230Y57820D01*
X46182Y57937D01*
X46182Y58066D01*
X46183Y58071D01*
X46183Y58073D01*
X46184Y58075D01*
X46184Y58081D01*
X46185Y58087D01*
X46184Y58088D01*
X46185Y58090D01*
X46184Y58096D01*
X46183Y58102D01*
X46182Y58104D01*
X46182Y58106D01*
X46180Y58111D01*
X46178Y58117D01*
X46177Y58119D01*
X46177Y58120D01*
X46173Y58125D01*
X46170Y58131D01*
X46169Y58132D01*
X46168Y58134D01*
X46162Y58141D01*
X45861Y58442D01*
X45861Y60910D01*
X45860Y60912D01*
X45860Y60914D01*
X45860Y60920D01*
X45859Y60925D01*
X45858Y60928D01*
X45858Y60930D01*
X45856Y60935D01*
X45854Y60940D01*
X45853Y60942D01*
X45852Y60944D01*
X45849Y60949D01*
X45847Y60954D01*
X45845Y60956D01*
X45844Y60958D01*
X45838Y60965D01*
X41461Y65342D01*
X41461Y69210D01*
X41460Y69212D01*
X41460Y69214D01*
X41460Y69220D01*
X41459Y69225D01*
X41458Y69228D01*
X41458Y69230D01*
X41456Y69235D01*
X41454Y69240D01*
X41453Y69242D01*
X41452Y69244D01*
X41449Y69249D01*
X41447Y69254D01*
X41445Y69256D01*
X41444Y69258D01*
X41438Y69265D01*
X40825Y69878D01*
X40823Y69879D01*
X40822Y69881D01*
X40817Y69884D01*
X40813Y69888D01*
X40811Y69889D01*
X40809Y69890D01*
X40804Y69892D01*
X40799Y69895D01*
X40797Y69895D01*
X40795Y69896D01*
X40789Y69898D01*
X40784Y69899D01*
X40782Y69899D01*
X40780Y69900D01*
X40770Y69901D01*
X38170Y69901D01*
X38168Y69900D01*
X38166Y69900D01*
X38160Y69900D01*
X38155Y69899D01*
X38152Y69898D01*
X38150Y69898D01*
X38145Y69896D01*
X38140Y69894D01*
X38138Y69893D01*
X38136Y69892D01*
X38131Y69889D01*
X38126Y69887D01*
X38124Y69885D01*
X38122Y69884D01*
X38115Y69878D01*
X31628Y63391D01*
X19100Y63391D01*
X19098Y63390D01*
X19096Y63390D01*
X19090Y63390D01*
X19085Y63389D01*
X19082Y63388D01*
X19080Y63388D01*
X19075Y63386D01*
X19070Y63384D01*
X19068Y63383D01*
X19066Y63382D01*
X19061Y63379D01*
X19056Y63377D01*
X19054Y63375D01*
X19052Y63374D01*
X19045Y63368D01*
X18452Y62774D01*
X18450Y62773D01*
X18449Y62772D01*
X18446Y62767D01*
X18442Y62762D01*
X18441Y62761D01*
X18440Y62759D01*
X18437Y62754D01*
X18434Y62748D01*
X18434Y62747D01*
X18433Y62745D01*
X18432Y62739D01*
X18430Y62733D01*
X18430Y62732D01*
X18430Y62730D01*
X18429Y62724D01*
X18429Y62718D01*
X18429Y62716D01*
X18429Y62714D01*
X18430Y62708D01*
X18431Y62702D01*
X18431Y62700D01*
X18432Y62699D01*
X18435Y62689D01*
X18474Y62594D01*
X18474Y62406D01*
X18402Y62231D01*
X18269Y62098D01*
X18094Y62026D01*
X17906Y62026D01*
X17731Y62098D01*
X17598Y62231D01*
X17526Y62406D01*
X17526Y62594D01*
X17598Y62769D01*
X17731Y62902D01*
X17906Y62974D01*
X18094Y62974D01*
X18161Y62946D01*
X18163Y62946D01*
X18165Y62945D01*
X18170Y62944D01*
X18176Y62942D01*
X18178Y62942D01*
X18180Y62941D01*
X18186Y62941D01*
X18192Y62941D01*
X18194Y62941D01*
X18195Y62941D01*
X18201Y62942D01*
X18207Y62942D01*
X18209Y62943D01*
X18211Y62943D01*
X18216Y62945D01*
X18222Y62947D01*
X18224Y62948D01*
X18225Y62949D01*
X18231Y62952D01*
X18236Y62955D01*
X18237Y62956D01*
X18239Y62957D01*
X18246Y62963D01*
X18952Y63669D01*
X31480Y63669D01*
X31482Y63670D01*
X31484Y63670D01*
X31490Y63670D01*
X31495Y63671D01*
X31498Y63672D01*
X31500Y63672D01*
X31505Y63674D01*
X31510Y63676D01*
X31512Y63677D01*
X31514Y63678D01*
X31519Y63681D01*
X31524Y63683D01*
X31526Y63685D01*
X31528Y63686D01*
X31535Y63692D01*
X38022Y70179D01*
X40918Y70179D01*
X41739Y69358D01*
X41739Y65490D01*
X41740Y65488D01*
X41740Y65486D01*
X41740Y65480D01*
X41741Y65475D01*
X41742Y65472D01*
X41742Y65470D01*
X41744Y65465D01*
X41746Y65460D01*
X41747Y65458D01*
X41748Y65456D01*
X41751Y65451D01*
X41753Y65446D01*
X41755Y65444D01*
X41756Y65442D01*
X41762Y65435D01*
X46139Y61058D01*
X46139Y58590D01*
X46140Y58588D01*
X46140Y58586D01*
X46140Y58580D01*
X46141Y58575D01*
X46142Y58572D01*
X46142Y58570D01*
X46144Y58565D01*
X46146Y58560D01*
X46147Y58558D01*
X46148Y58556D01*
X46151Y58551D01*
X46153Y58546D01*
X46155Y58544D01*
X46156Y58542D01*
X46162Y58535D01*
X46359Y58338D01*
X46361Y58337D01*
X46362Y58336D01*
X46367Y58332D01*
X46371Y58328D01*
X46373Y58327D01*
X46374Y58326D01*
X46380Y58324D01*
X46385Y58321D01*
X46387Y58320D01*
X46388Y58320D01*
X46394Y58318D01*
X46400Y58317D01*
X46402Y58316D01*
X46404Y58316D01*
X46410Y58316D01*
X46416Y58315D01*
X46418Y58316D01*
X46419Y58316D01*
X46425Y58317D01*
X46431Y58317D01*
X46433Y58318D01*
X46435Y58318D01*
X46563Y58318D01*
X46680Y58270D01*
X46770Y58180D01*
X46818Y58063D01*
X46818Y57937D01*
X46770Y57820D01*
X46680Y57730D01*
X46563Y57682D01*
X46437Y57682D01*
G37*
%LPD*%
%LPC*%
G36*
X29478Y34530D02*
X29478Y34530D01*
X29401Y34562D01*
X29342Y34621D01*
X29310Y34698D01*
X29310Y34782D01*
X29342Y34859D01*
X29358Y34874D01*
X29359Y34876D01*
X29361Y34877D01*
X29364Y34882D01*
X29368Y34886D01*
X29369Y34888D01*
X29370Y34890D01*
X29372Y34895D01*
X29375Y34900D01*
X29375Y34902D01*
X29376Y34904D01*
X29378Y34910D01*
X29379Y34915D01*
X29379Y34917D01*
X29380Y34920D01*
X29381Y34929D01*
X29381Y58558D01*
X32933Y62110D01*
X32934Y62112D01*
X32936Y62113D01*
X32939Y62118D01*
X32943Y62122D01*
X32944Y62124D01*
X32945Y62126D01*
X32947Y62131D01*
X32950Y62136D01*
X32951Y62138D01*
X32952Y62140D01*
X32953Y62146D01*
X32955Y62151D01*
X32955Y62153D01*
X32955Y62155D01*
X32955Y62161D01*
X32956Y62167D01*
X32956Y62169D01*
X32956Y62171D01*
X32955Y62177D01*
X32954Y62183D01*
X32953Y62184D01*
X32953Y62186D01*
X32950Y62195D01*
X32875Y62376D01*
X32875Y62624D01*
X32970Y62854D01*
X33146Y63030D01*
X33376Y63125D01*
X33624Y63125D01*
X33854Y63030D01*
X34030Y62854D01*
X34125Y62624D01*
X34125Y62376D01*
X34030Y62146D01*
X33854Y61970D01*
X33624Y61875D01*
X33376Y61875D01*
X33224Y61938D01*
X33222Y61939D01*
X33220Y61940D01*
X33214Y61941D01*
X33209Y61943D01*
X33207Y61943D01*
X33205Y61943D01*
X33199Y61944D01*
X33193Y61944D01*
X33191Y61944D01*
X33189Y61944D01*
X33183Y61943D01*
X33177Y61942D01*
X33176Y61942D01*
X33174Y61942D01*
X33168Y61940D01*
X33163Y61938D01*
X33161Y61937D01*
X33159Y61936D01*
X33154Y61933D01*
X33149Y61930D01*
X33148Y61929D01*
X33146Y61928D01*
X33139Y61921D01*
X29682Y58465D01*
X29681Y58463D01*
X29679Y58462D01*
X29676Y58457D01*
X29672Y58453D01*
X29671Y58451D01*
X29670Y58449D01*
X29668Y58444D01*
X29665Y58439D01*
X29665Y58437D01*
X29664Y58435D01*
X29662Y58429D01*
X29661Y58424D01*
X29661Y58422D01*
X29660Y58420D01*
X29659Y58410D01*
X29659Y34929D01*
X29660Y34927D01*
X29660Y34925D01*
X29660Y34919D01*
X29661Y34914D01*
X29662Y34912D01*
X29662Y34909D01*
X29664Y34904D01*
X29666Y34899D01*
X29667Y34897D01*
X29668Y34895D01*
X29671Y34890D01*
X29673Y34885D01*
X29675Y34883D01*
X29676Y34882D01*
X29682Y34874D01*
X29698Y34859D01*
X29730Y34782D01*
X29730Y34698D01*
X29698Y34621D01*
X29639Y34562D01*
X29562Y34530D01*
X29478Y34530D01*
G37*
%LPD*%
%LPC*%
G36*
X37437Y37182D02*
X37437Y37182D01*
X37320Y37230D01*
X37230Y37320D01*
X37182Y37437D01*
X37182Y37563D01*
X37230Y37680D01*
X37322Y37772D01*
X37326Y37774D01*
X37328Y37775D01*
X37329Y37776D01*
X37334Y37780D01*
X37338Y37784D01*
X37339Y37786D01*
X37341Y37787D01*
X37344Y37792D01*
X37348Y37796D01*
X37349Y37798D01*
X37350Y37799D01*
X37352Y37805D01*
X37355Y37810D01*
X37356Y37812D01*
X37356Y37814D01*
X37358Y37820D01*
X37359Y37825D01*
X37359Y37827D01*
X37360Y37829D01*
X37361Y37839D01*
X37361Y41430D01*
X37360Y41432D01*
X37360Y41434D01*
X37360Y41440D01*
X37359Y41445D01*
X37358Y41448D01*
X37358Y41450D01*
X37356Y41455D01*
X37354Y41460D01*
X37353Y41462D01*
X37352Y41464D01*
X37349Y41469D01*
X37347Y41474D01*
X37345Y41476D01*
X37344Y41478D01*
X37338Y41485D01*
X36774Y42048D01*
X36773Y42050D01*
X36772Y42051D01*
X36767Y42054D01*
X36762Y42058D01*
X36761Y42059D01*
X36759Y42060D01*
X36754Y42063D01*
X36748Y42066D01*
X36747Y42066D01*
X36745Y42067D01*
X36739Y42068D01*
X36733Y42070D01*
X36732Y42070D01*
X36730Y42070D01*
X36724Y42071D01*
X36718Y42071D01*
X36716Y42071D01*
X36714Y42071D01*
X36708Y42070D01*
X36702Y42069D01*
X36700Y42069D01*
X36699Y42068D01*
X36689Y42065D01*
X36594Y42026D01*
X36406Y42026D01*
X36231Y42098D01*
X36098Y42231D01*
X36026Y42406D01*
X36026Y42594D01*
X36098Y42769D01*
X36231Y42902D01*
X36406Y42974D01*
X36594Y42974D01*
X36769Y42902D01*
X36902Y42769D01*
X36974Y42594D01*
X36974Y42406D01*
X36946Y42339D01*
X36946Y42337D01*
X36945Y42335D01*
X36944Y42330D01*
X36942Y42324D01*
X36942Y42322D01*
X36941Y42320D01*
X36941Y42314D01*
X36941Y42308D01*
X36941Y42306D01*
X36941Y42305D01*
X36942Y42299D01*
X36942Y42293D01*
X36943Y42291D01*
X36943Y42289D01*
X36945Y42284D01*
X36947Y42278D01*
X36948Y42276D01*
X36949Y42275D01*
X36952Y42269D01*
X36955Y42264D01*
X36956Y42263D01*
X36957Y42261D01*
X36963Y42254D01*
X37445Y41772D01*
X37446Y41771D01*
X37447Y41770D01*
X37452Y41767D01*
X37457Y41763D01*
X37458Y41762D01*
X37459Y41761D01*
X37465Y41758D01*
X37471Y41755D01*
X37472Y41755D01*
X37474Y41754D01*
X37480Y41753D01*
X37486Y41751D01*
X37487Y41751D01*
X37489Y41750D01*
X37495Y41750D01*
X37501Y41750D01*
X37503Y41750D01*
X37504Y41750D01*
X37511Y41751D01*
X37517Y41751D01*
X37518Y41752D01*
X37520Y41752D01*
X37526Y41754D01*
X37532Y41756D01*
X37533Y41757D01*
X37535Y41758D01*
X37540Y41761D01*
X37545Y41764D01*
X37547Y41765D01*
X37548Y41766D01*
X37555Y41772D01*
X38402Y42619D01*
X38984Y42619D01*
X38986Y42620D01*
X38988Y42620D01*
X38994Y42620D01*
X39000Y42621D01*
X39002Y42622D01*
X39003Y42622D01*
X39009Y42624D01*
X39015Y42626D01*
X39016Y42627D01*
X39018Y42627D01*
X39023Y42630D01*
X39028Y42633D01*
X39030Y42634D01*
X39031Y42635D01*
X39036Y42639D01*
X39040Y42643D01*
X39041Y42645D01*
X39043Y42646D01*
X39046Y42651D01*
X39050Y42656D01*
X39051Y42657D01*
X39052Y42659D01*
X39056Y42668D01*
X39098Y42769D01*
X39231Y42902D01*
X39406Y42974D01*
X39594Y42974D01*
X39675Y42941D01*
X39677Y42940D01*
X39679Y42939D01*
X39684Y42938D01*
X39690Y42936D01*
X39692Y42936D01*
X39694Y42935D01*
X39700Y42935D01*
X39706Y42935D01*
X39708Y42935D01*
X39709Y42935D01*
X39715Y42936D01*
X39721Y42936D01*
X39723Y42937D01*
X39725Y42937D01*
X39731Y42939D01*
X39736Y42941D01*
X39738Y42942D01*
X39740Y42943D01*
X39745Y42946D01*
X39750Y42949D01*
X39751Y42950D01*
X39753Y42951D01*
X39760Y42958D01*
X41522Y44719D01*
X46207Y44719D01*
X46208Y44720D01*
X46210Y44720D01*
X46216Y44720D01*
X46222Y44721D01*
X46224Y44722D01*
X46226Y44722D01*
X46231Y44724D01*
X46237Y44726D01*
X46239Y44727D01*
X46241Y44727D01*
X46246Y44730D01*
X46251Y44733D01*
X46252Y44734D01*
X46254Y44735D01*
X46258Y44739D01*
X46263Y44743D01*
X46264Y44745D01*
X46265Y44746D01*
X46269Y44751D01*
X46272Y44756D01*
X46273Y44757D01*
X46274Y44759D01*
X46279Y44768D01*
X46385Y45025D01*
X46589Y45229D01*
X46856Y45339D01*
X47144Y45339D01*
X47411Y45229D01*
X47615Y45025D01*
X47725Y44758D01*
X47725Y44470D01*
X47615Y44203D01*
X47411Y43999D01*
X47144Y43889D01*
X46856Y43889D01*
X46589Y43999D01*
X46385Y44203D01*
X46307Y44392D01*
X46306Y44394D01*
X46306Y44396D01*
X46302Y44401D01*
X46300Y44406D01*
X46298Y44408D01*
X46297Y44409D01*
X46293Y44414D01*
X46290Y44418D01*
X46288Y44419D01*
X46287Y44421D01*
X46282Y44424D01*
X46277Y44428D01*
X46276Y44429D01*
X46274Y44430D01*
X46269Y44432D01*
X46263Y44435D01*
X46262Y44436D01*
X46260Y44436D01*
X46254Y44438D01*
X46248Y44439D01*
X46247Y44439D01*
X46245Y44440D01*
X46235Y44441D01*
X41670Y44441D01*
X41668Y44440D01*
X41666Y44440D01*
X41660Y44440D01*
X41655Y44439D01*
X41652Y44438D01*
X41650Y44438D01*
X41645Y44436D01*
X41640Y44434D01*
X41638Y44433D01*
X41636Y44432D01*
X41631Y44429D01*
X41626Y44427D01*
X41624Y44425D01*
X41622Y44424D01*
X41615Y44418D01*
X39958Y42760D01*
X39956Y42759D01*
X39955Y42758D01*
X39951Y42753D01*
X39948Y42748D01*
X39947Y42746D01*
X39946Y42745D01*
X39943Y42740D01*
X39940Y42734D01*
X39940Y42733D01*
X39939Y42731D01*
X39938Y42725D01*
X39936Y42719D01*
X39936Y42717D01*
X39935Y42716D01*
X39935Y42710D01*
X39935Y42704D01*
X39935Y42702D01*
X39935Y42700D01*
X39936Y42694D01*
X39937Y42688D01*
X39937Y42686D01*
X39937Y42685D01*
X39941Y42675D01*
X39974Y42594D01*
X39974Y42406D01*
X39902Y42231D01*
X39769Y42098D01*
X39594Y42026D01*
X39406Y42026D01*
X39231Y42098D01*
X39098Y42231D01*
X39073Y42292D01*
X39072Y42294D01*
X39071Y42296D01*
X39068Y42301D01*
X39065Y42306D01*
X39064Y42308D01*
X39063Y42309D01*
X39059Y42314D01*
X39055Y42318D01*
X39054Y42319D01*
X39053Y42321D01*
X39048Y42324D01*
X39043Y42328D01*
X39042Y42329D01*
X39040Y42330D01*
X39035Y42332D01*
X39029Y42335D01*
X39027Y42336D01*
X39026Y42336D01*
X39020Y42338D01*
X39014Y42339D01*
X39012Y42339D01*
X39011Y42340D01*
X39001Y42341D01*
X38550Y42341D01*
X38548Y42340D01*
X38546Y42340D01*
X38540Y42340D01*
X38535Y42339D01*
X38532Y42338D01*
X38530Y42338D01*
X38525Y42336D01*
X38520Y42334D01*
X38518Y42333D01*
X38516Y42332D01*
X38511Y42329D01*
X38506Y42327D01*
X38504Y42325D01*
X38502Y42324D01*
X38495Y42318D01*
X37662Y41485D01*
X37661Y41483D01*
X37659Y41482D01*
X37656Y41477D01*
X37652Y41473D01*
X37651Y41471D01*
X37650Y41469D01*
X37648Y41464D01*
X37645Y41459D01*
X37645Y41457D01*
X37644Y41455D01*
X37642Y41449D01*
X37641Y41444D01*
X37641Y41442D01*
X37640Y41440D01*
X37639Y41430D01*
X37639Y37839D01*
X37640Y37837D01*
X37640Y37835D01*
X37640Y37829D01*
X37641Y37823D01*
X37642Y37821D01*
X37642Y37820D01*
X37644Y37814D01*
X37646Y37808D01*
X37647Y37807D01*
X37647Y37805D01*
X37650Y37800D01*
X37653Y37795D01*
X37654Y37793D01*
X37655Y37792D01*
X37659Y37787D01*
X37663Y37783D01*
X37665Y37781D01*
X37666Y37780D01*
X37671Y37777D01*
X37676Y37773D01*
X37677Y37772D01*
X37679Y37771D01*
X37770Y37680D01*
X37818Y37563D01*
X37818Y37437D01*
X37770Y37320D01*
X37680Y37230D01*
X37563Y37182D01*
X37437Y37182D01*
G37*
%LPD*%
%LPC*%
G36*
X3435Y71377D02*
X3435Y71377D01*
X3180Y71445D01*
X2952Y71577D01*
X2766Y71763D01*
X2634Y71992D01*
X2566Y72246D01*
X2566Y72510D01*
X2634Y72764D01*
X2766Y72993D01*
X2952Y73179D01*
X3180Y73311D01*
X3435Y73379D01*
X3699Y73379D01*
X3953Y73311D01*
X4182Y73179D01*
X4368Y72993D01*
X4500Y72764D01*
X4568Y72510D01*
X4568Y72246D01*
X4500Y71992D01*
X4368Y71763D01*
X4182Y71577D01*
X3953Y71445D01*
X3699Y71377D01*
X3435Y71377D01*
G37*
%LPD*%
%LPC*%
G36*
X3435Y44877D02*
X3435Y44877D01*
X3180Y44945D01*
X2952Y45077D01*
X2766Y45263D01*
X2634Y45492D01*
X2566Y45746D01*
X2566Y46010D01*
X2634Y46264D01*
X2766Y46493D01*
X2952Y46679D01*
X3180Y46811D01*
X3435Y46879D01*
X3699Y46879D01*
X3953Y46811D01*
X4182Y46679D01*
X4368Y46493D01*
X4500Y46264D01*
X4568Y46010D01*
X4568Y45746D01*
X4500Y45492D01*
X4368Y45263D01*
X4182Y45077D01*
X3953Y44945D01*
X3699Y44877D01*
X3435Y44877D01*
G37*
%LPD*%
%LPC*%
G36*
X35746Y69432D02*
X35746Y69432D01*
X35492Y69500D01*
X35263Y69632D01*
X35077Y69818D01*
X34945Y70047D01*
X34877Y70301D01*
X34877Y70565D01*
X34945Y70819D01*
X35077Y71048D01*
X35263Y71234D01*
X35492Y71366D01*
X35746Y71434D01*
X36010Y71434D01*
X36264Y71366D01*
X36493Y71234D01*
X36679Y71048D01*
X36811Y70819D01*
X36879Y70565D01*
X36879Y70301D01*
X36811Y70047D01*
X36679Y69818D01*
X36493Y69632D01*
X36264Y69500D01*
X36010Y69432D01*
X35746Y69432D01*
G37*
%LPD*%
%LPC*%
G36*
X26746Y69432D02*
X26746Y69432D01*
X26492Y69500D01*
X26263Y69632D01*
X26077Y69818D01*
X25945Y70047D01*
X25877Y70301D01*
X25877Y70565D01*
X25945Y70819D01*
X26077Y71048D01*
X26263Y71234D01*
X26492Y71366D01*
X26746Y71434D01*
X27010Y71434D01*
X27264Y71366D01*
X27493Y71234D01*
X27679Y71048D01*
X27811Y70819D01*
X27879Y70565D01*
X27879Y70301D01*
X27811Y70047D01*
X27679Y69818D01*
X27493Y69632D01*
X27264Y69500D01*
X27010Y69432D01*
X26746Y69432D01*
G37*
%LPD*%
%LPC*%
G36*
X17746Y69432D02*
X17746Y69432D01*
X17492Y69500D01*
X17263Y69632D01*
X17077Y69818D01*
X16945Y70047D01*
X16877Y70301D01*
X16877Y70565D01*
X16945Y70819D01*
X17077Y71048D01*
X17263Y71234D01*
X17492Y71366D01*
X17746Y71434D01*
X18010Y71434D01*
X18264Y71366D01*
X18493Y71234D01*
X18679Y71048D01*
X18811Y70819D01*
X18879Y70565D01*
X18879Y70301D01*
X18811Y70047D01*
X18679Y69818D01*
X18493Y69632D01*
X18264Y69500D01*
X18010Y69432D01*
X17746Y69432D01*
G37*
%LPD*%
%LPC*%
G36*
X46435Y48377D02*
X46435Y48377D01*
X46180Y48445D01*
X45952Y48577D01*
X45766Y48763D01*
X45634Y48992D01*
X45566Y49246D01*
X45566Y49510D01*
X45634Y49764D01*
X45766Y49993D01*
X45952Y50179D01*
X46180Y50311D01*
X46435Y50379D01*
X46699Y50379D01*
X46953Y50311D01*
X47182Y50179D01*
X47368Y49993D01*
X47500Y49764D01*
X47568Y49510D01*
X47568Y49246D01*
X47500Y48992D01*
X47368Y48763D01*
X47182Y48577D01*
X46953Y48445D01*
X46699Y48377D01*
X46435Y48377D01*
G37*
%LPD*%
%LPC*%
G36*
X3435Y53877D02*
X3435Y53877D01*
X3180Y53945D01*
X2952Y54077D01*
X2766Y54263D01*
X2634Y54492D01*
X2566Y54746D01*
X2566Y55010D01*
X2634Y55264D01*
X2766Y55493D01*
X2952Y55679D01*
X3180Y55811D01*
X3435Y55879D01*
X3699Y55879D01*
X3953Y55811D01*
X4182Y55679D01*
X4368Y55493D01*
X4500Y55264D01*
X4568Y55010D01*
X4568Y54746D01*
X4500Y54492D01*
X4368Y54263D01*
X4182Y54077D01*
X3953Y53945D01*
X3699Y53877D01*
X3435Y53877D01*
G37*
%LPD*%
%LPC*%
G36*
X38746Y32932D02*
X38746Y32932D01*
X38492Y33000D01*
X38263Y33132D01*
X38077Y33318D01*
X37945Y33547D01*
X37877Y33801D01*
X37877Y34065D01*
X37945Y34319D01*
X38077Y34548D01*
X38263Y34734D01*
X38492Y34866D01*
X38746Y34934D01*
X39010Y34934D01*
X39264Y34866D01*
X39493Y34734D01*
X39679Y34548D01*
X39811Y34319D01*
X39879Y34065D01*
X39879Y33801D01*
X39811Y33547D01*
X39679Y33318D01*
X39493Y33132D01*
X39264Y33000D01*
X39010Y32932D01*
X38746Y32932D01*
G37*
%LPD*%
%LPC*%
G36*
X23746Y33432D02*
X23746Y33432D01*
X23492Y33500D01*
X23263Y33632D01*
X23077Y33818D01*
X22945Y34047D01*
X22877Y34301D01*
X22877Y34565D01*
X22945Y34819D01*
X23077Y35048D01*
X23263Y35234D01*
X23492Y35366D01*
X23746Y35434D01*
X24010Y35434D01*
X24264Y35366D01*
X24493Y35234D01*
X24679Y35048D01*
X24811Y34819D01*
X24879Y34565D01*
X24879Y34301D01*
X24811Y34047D01*
X24679Y33818D01*
X24493Y33632D01*
X24264Y33500D01*
X24010Y33432D01*
X23746Y33432D01*
G37*
%LPD*%
%LPC*%
G36*
X2935Y35877D02*
X2935Y35877D01*
X2680Y35945D01*
X2452Y36077D01*
X2266Y36263D01*
X2134Y36492D01*
X2066Y36746D01*
X2066Y37010D01*
X2134Y37264D01*
X2266Y37493D01*
X2452Y37679D01*
X2680Y37811D01*
X2935Y37879D01*
X3199Y37879D01*
X3453Y37811D01*
X3682Y37679D01*
X3868Y37493D01*
X4000Y37264D01*
X4068Y37010D01*
X4068Y36746D01*
X4000Y36492D01*
X3868Y36263D01*
X3682Y36077D01*
X3453Y35945D01*
X3199Y35877D01*
X2935Y35877D01*
G37*
%LPD*%
%LPC*%
G36*
X3435Y62877D02*
X3435Y62877D01*
X3180Y62945D01*
X2952Y63077D01*
X2766Y63263D01*
X2634Y63492D01*
X2566Y63746D01*
X2566Y64010D01*
X2634Y64264D01*
X2766Y64493D01*
X2952Y64679D01*
X3180Y64811D01*
X3435Y64879D01*
X3699Y64879D01*
X3953Y64811D01*
X4182Y64679D01*
X4368Y64493D01*
X4500Y64264D01*
X4568Y64010D01*
X4568Y63746D01*
X4500Y63492D01*
X4368Y63263D01*
X4182Y63077D01*
X3953Y62945D01*
X3699Y62877D01*
X3435Y62877D01*
G37*
%LPD*%
%LPC*%
G36*
X46856Y46527D02*
X46856Y46527D01*
X46589Y46637D01*
X46385Y46841D01*
X46275Y47108D01*
X46275Y47396D01*
X46385Y47663D01*
X46589Y47867D01*
X46856Y47977D01*
X47144Y47977D01*
X47411Y47867D01*
X47615Y47663D01*
X47725Y47396D01*
X47725Y47108D01*
X47615Y46841D01*
X47411Y46637D01*
X47144Y46527D01*
X46856Y46527D01*
G37*
%LPD*%
%LPC*%
G36*
X30970Y69275D02*
X30970Y69275D01*
X30703Y69385D01*
X30499Y69589D01*
X30389Y69856D01*
X30389Y70144D01*
X30499Y70411D01*
X30703Y70615D01*
X30970Y70725D01*
X31258Y70725D01*
X31525Y70615D01*
X31729Y70411D01*
X31839Y70144D01*
X31839Y69856D01*
X31729Y69589D01*
X31525Y69385D01*
X31258Y69275D01*
X30970Y69275D01*
G37*
%LPD*%
%LPC*%
G36*
X3856Y66889D02*
X3856Y66889D01*
X3589Y66999D01*
X3385Y67203D01*
X3275Y67470D01*
X3275Y67758D01*
X3385Y68025D01*
X3589Y68229D01*
X3856Y68339D01*
X4144Y68339D01*
X4411Y68229D01*
X4615Y68025D01*
X4725Y67758D01*
X4725Y67470D01*
X4615Y67203D01*
X4411Y66999D01*
X4144Y66889D01*
X3856Y66889D01*
G37*
%LPD*%
%LPC*%
G36*
X3856Y49389D02*
X3856Y49389D01*
X3589Y49499D01*
X3385Y49703D01*
X3275Y49970D01*
X3275Y50258D01*
X3385Y50525D01*
X3589Y50729D01*
X3856Y50839D01*
X4144Y50839D01*
X4411Y50729D01*
X4615Y50525D01*
X4725Y50258D01*
X4725Y49970D01*
X4615Y49703D01*
X4411Y49499D01*
X4144Y49389D01*
X3856Y49389D01*
G37*
%LPD*%
%LPC*%
G36*
X21970Y69275D02*
X21970Y69275D01*
X21703Y69385D01*
X21499Y69589D01*
X21389Y69856D01*
X21389Y70144D01*
X21499Y70411D01*
X21703Y70615D01*
X21970Y70725D01*
X22258Y70725D01*
X22525Y70615D01*
X22729Y70411D01*
X22839Y70144D01*
X22839Y69856D01*
X22729Y69589D01*
X22525Y69385D01*
X22258Y69275D01*
X21970Y69275D01*
G37*
%LPD*%
%LPC*%
G36*
X12970Y69275D02*
X12970Y69275D01*
X12703Y69385D01*
X12499Y69589D01*
X12389Y69856D01*
X12389Y70144D01*
X12499Y70411D01*
X12703Y70615D01*
X12970Y70725D01*
X13258Y70725D01*
X13525Y70615D01*
X13729Y70411D01*
X13839Y70144D01*
X13839Y69856D01*
X13729Y69589D01*
X13525Y69385D01*
X13258Y69275D01*
X12970Y69275D01*
G37*
%LPD*%
%LPC*%
G36*
X3856Y58389D02*
X3856Y58389D01*
X3589Y58499D01*
X3385Y58703D01*
X3275Y58970D01*
X3275Y59258D01*
X3385Y59525D01*
X3589Y59729D01*
X3856Y59839D01*
X4144Y59839D01*
X4411Y59729D01*
X4615Y59525D01*
X4725Y59258D01*
X4725Y58970D01*
X4615Y58703D01*
X4411Y58499D01*
X4144Y58389D01*
X3856Y58389D01*
G37*
%LPD*%
%LPC*%
G36*
X18970Y33275D02*
X18970Y33275D01*
X18703Y33385D01*
X18499Y33589D01*
X18389Y33856D01*
X18389Y34144D01*
X18499Y34411D01*
X18703Y34615D01*
X18970Y34725D01*
X19258Y34725D01*
X19525Y34615D01*
X19729Y34411D01*
X19839Y34144D01*
X19839Y33856D01*
X19729Y33589D01*
X19525Y33385D01*
X19258Y33275D01*
X18970Y33275D01*
G37*
%LPD*%
%LPC*%
G36*
X3356Y31389D02*
X3356Y31389D01*
X3089Y31499D01*
X2885Y31703D01*
X2775Y31970D01*
X2775Y32258D01*
X2885Y32525D01*
X3089Y32729D01*
X3356Y32839D01*
X3644Y32839D01*
X3911Y32729D01*
X4115Y32525D01*
X4225Y32258D01*
X4225Y31970D01*
X4115Y31703D01*
X3911Y31499D01*
X3644Y31389D01*
X3356Y31389D01*
G37*
%LPD*%
%LPC*%
G36*
X3856Y40389D02*
X3856Y40389D01*
X3589Y40499D01*
X3385Y40703D01*
X3275Y40970D01*
X3275Y41258D01*
X3385Y41525D01*
X3589Y41729D01*
X3856Y41839D01*
X4144Y41839D01*
X4411Y41729D01*
X4615Y41525D01*
X4725Y41258D01*
X4725Y40970D01*
X4615Y40703D01*
X4411Y40499D01*
X4144Y40389D01*
X3856Y40389D01*
G37*
%LPD*%
%LPC*%
G36*
X16376Y61875D02*
X16376Y61875D01*
X16146Y61970D01*
X15970Y62146D01*
X15875Y62376D01*
X15875Y62624D01*
X15970Y62854D01*
X16146Y63030D01*
X16376Y63125D01*
X16624Y63125D01*
X16854Y63030D01*
X17030Y62854D01*
X17125Y62624D01*
X17125Y62376D01*
X17030Y62146D01*
X16854Y61970D01*
X16624Y61875D01*
X16376Y61875D01*
G37*
%LPD*%
%LPC*%
G36*
X12368Y33028D02*
X12368Y33028D01*
X12183Y33105D01*
X12042Y33246D01*
X11965Y33431D01*
X11965Y33632D01*
X12042Y33817D01*
X12183Y33958D01*
X12368Y34035D01*
X12569Y34035D01*
X12754Y33958D01*
X12895Y33817D01*
X12972Y33632D01*
X12972Y33431D01*
X12895Y33246D01*
X12754Y33105D01*
X12569Y33028D01*
X12368Y33028D01*
G37*
%LPD*%
%LPC*%
G36*
X12368Y36965D02*
X12368Y36965D01*
X12183Y37042D01*
X12042Y37183D01*
X11965Y37368D01*
X11965Y37569D01*
X12042Y37754D01*
X12183Y37895D01*
X12368Y37972D01*
X12569Y37972D01*
X12754Y37895D01*
X12895Y37754D01*
X12972Y37569D01*
X12972Y37368D01*
X12895Y37183D01*
X12754Y37042D01*
X12569Y36965D01*
X12368Y36965D01*
G37*
%LPD*%
%LPC*%
G36*
X12368Y34996D02*
X12368Y34996D01*
X12183Y35073D01*
X12042Y35215D01*
X11965Y35400D01*
X11965Y35600D01*
X12042Y35785D01*
X12183Y35927D01*
X12368Y36004D01*
X12569Y36004D01*
X12754Y35927D01*
X12895Y35785D01*
X12972Y35600D01*
X12972Y35400D01*
X12895Y35215D01*
X12754Y35073D01*
X12569Y34996D01*
X12368Y34996D01*
G37*
%LPD*%
%LPC*%
G36*
X10400Y34996D02*
X10400Y34996D01*
X10215Y35073D01*
X10073Y35215D01*
X9996Y35400D01*
X9996Y35600D01*
X10073Y35785D01*
X10215Y35927D01*
X10400Y36004D01*
X10600Y36004D01*
X10785Y35927D01*
X10927Y35785D01*
X11004Y35600D01*
X11004Y35400D01*
X10927Y35215D01*
X10785Y35073D01*
X10600Y34996D01*
X10400Y34996D01*
G37*
%LPD*%
%LPC*%
G36*
X36406Y62026D02*
X36406Y62026D01*
X36231Y62098D01*
X36098Y62231D01*
X36026Y62406D01*
X36026Y62594D01*
X36098Y62769D01*
X36231Y62902D01*
X36406Y62974D01*
X36594Y62974D01*
X36769Y62902D01*
X36902Y62769D01*
X36974Y62594D01*
X36974Y62406D01*
X36902Y62231D01*
X36769Y62098D01*
X36594Y62026D01*
X36406Y62026D01*
G37*
%LPD*%
%LPC*%
G36*
X34906Y62026D02*
X34906Y62026D01*
X34731Y62098D01*
X34598Y62231D01*
X34526Y62406D01*
X34526Y62594D01*
X34598Y62769D01*
X34731Y62902D01*
X34906Y62974D01*
X35094Y62974D01*
X35269Y62902D01*
X35402Y62769D01*
X35474Y62594D01*
X35474Y62406D01*
X35402Y62231D01*
X35269Y62098D01*
X35094Y62026D01*
X34906Y62026D01*
G37*
%LPD*%
%LPC*%
G36*
X19406Y62026D02*
X19406Y62026D01*
X19231Y62098D01*
X19098Y62231D01*
X19026Y62406D01*
X19026Y62594D01*
X19098Y62769D01*
X19231Y62902D01*
X19406Y62974D01*
X19594Y62974D01*
X19769Y62902D01*
X19902Y62769D01*
X19974Y62594D01*
X19974Y62406D01*
X19902Y62231D01*
X19769Y62098D01*
X19594Y62026D01*
X19406Y62026D01*
G37*
%LPD*%
%LPC*%
G36*
X16406Y42026D02*
X16406Y42026D01*
X16231Y42098D01*
X16098Y42231D01*
X16026Y42406D01*
X16026Y42594D01*
X16098Y42769D01*
X16231Y42902D01*
X16406Y42974D01*
X16594Y42974D01*
X16769Y42902D01*
X16902Y42769D01*
X16974Y42594D01*
X16974Y42406D01*
X16902Y42231D01*
X16769Y42098D01*
X16594Y42026D01*
X16406Y42026D01*
G37*
%LPD*%
%LPC*%
G36*
X19406Y42026D02*
X19406Y42026D01*
X19231Y42098D01*
X19098Y42231D01*
X19026Y42406D01*
X19026Y42594D01*
X19098Y42769D01*
X19231Y42902D01*
X19406Y42974D01*
X19594Y42974D01*
X19769Y42902D01*
X19902Y42769D01*
X19974Y42594D01*
X19974Y42406D01*
X19902Y42231D01*
X19769Y42098D01*
X19594Y42026D01*
X19406Y42026D01*
G37*
%LPD*%
%LPC*%
G36*
X33406Y42026D02*
X33406Y42026D01*
X33231Y42098D01*
X33098Y42231D01*
X33026Y42406D01*
X33026Y42594D01*
X33098Y42769D01*
X33231Y42902D01*
X33406Y42974D01*
X33594Y42974D01*
X33769Y42902D01*
X33902Y42769D01*
X33974Y42594D01*
X33974Y42406D01*
X33902Y42231D01*
X33769Y42098D01*
X33594Y42026D01*
X33406Y42026D01*
G37*
%LPD*%
%LPC*%
G36*
X22406Y42026D02*
X22406Y42026D01*
X22231Y42098D01*
X22098Y42231D01*
X22026Y42406D01*
X22026Y42594D01*
X22098Y42769D01*
X22231Y42902D01*
X22406Y42974D01*
X22594Y42974D01*
X22769Y42902D01*
X22902Y42769D01*
X22974Y42594D01*
X22974Y42406D01*
X22902Y42231D01*
X22769Y42098D01*
X22594Y42026D01*
X22406Y42026D01*
G37*
%LPD*%
%LPC*%
G36*
X42506Y71555D02*
X42506Y71555D01*
X42343Y71623D01*
X42218Y71748D01*
X42150Y71912D01*
X42150Y72088D01*
X42218Y72252D01*
X42343Y72377D01*
X42506Y72445D01*
X42683Y72445D01*
X42846Y72377D01*
X42971Y72252D01*
X43039Y72088D01*
X43039Y71912D01*
X42971Y71748D01*
X42846Y71623D01*
X42683Y71555D01*
X42506Y71555D01*
G37*
%LPD*%
%LPC*%
G36*
X40538Y71555D02*
X40538Y71555D01*
X40374Y71623D01*
X40249Y71748D01*
X40181Y71912D01*
X40181Y72088D01*
X40249Y72252D01*
X40374Y72377D01*
X40538Y72445D01*
X40714Y72445D01*
X40878Y72377D01*
X41003Y72252D01*
X41071Y72088D01*
X41071Y71912D01*
X41003Y71748D01*
X40878Y71623D01*
X40714Y71555D01*
X40538Y71555D01*
G37*
%LPD*%
%LPC*%
G36*
X38569Y71555D02*
X38569Y71555D01*
X38406Y71623D01*
X38281Y71748D01*
X38213Y71912D01*
X38213Y72088D01*
X38281Y72252D01*
X38406Y72377D01*
X38569Y72445D01*
X38746Y72445D01*
X38909Y72377D01*
X39034Y72252D01*
X39102Y72088D01*
X39102Y71912D01*
X39034Y71748D01*
X38909Y71623D01*
X38746Y71555D01*
X38569Y71555D01*
G37*
%LPD*%
%LPC*%
G36*
X38569Y68603D02*
X38569Y68603D01*
X38406Y68670D01*
X38281Y68795D01*
X38213Y68959D01*
X38213Y69136D01*
X38281Y69299D01*
X38406Y69424D01*
X38569Y69492D01*
X38746Y69492D01*
X38909Y69424D01*
X39034Y69299D01*
X39102Y69136D01*
X39102Y68959D01*
X39034Y68795D01*
X38909Y68670D01*
X38746Y68603D01*
X38569Y68603D01*
G37*
%LPD*%
%LPC*%
G36*
X42506Y68603D02*
X42506Y68603D01*
X42343Y68670D01*
X42218Y68795D01*
X42150Y68959D01*
X42150Y69136D01*
X42218Y69299D01*
X42343Y69424D01*
X42506Y69492D01*
X42683Y69492D01*
X42846Y69424D01*
X42971Y69299D01*
X43039Y69136D01*
X43039Y68959D01*
X42971Y68795D01*
X42846Y68670D01*
X42683Y68603D01*
X42506Y68603D01*
G37*
%LPD*%
%LPC*%
G36*
X43937Y65682D02*
X43937Y65682D01*
X43820Y65730D01*
X43730Y65820D01*
X43682Y65937D01*
X43682Y66063D01*
X43730Y66180D01*
X43820Y66270D01*
X43937Y66318D01*
X44063Y66318D01*
X44180Y66270D01*
X44270Y66180D01*
X44318Y66063D01*
X44318Y65937D01*
X44270Y65820D01*
X44180Y65730D01*
X44063Y65682D01*
X43937Y65682D01*
G37*
%LPD*%
%LPC*%
G36*
X32937Y65682D02*
X32937Y65682D01*
X32820Y65730D01*
X32730Y65820D01*
X32682Y65937D01*
X32682Y66063D01*
X32730Y66180D01*
X32820Y66270D01*
X32937Y66318D01*
X33063Y66318D01*
X33180Y66270D01*
X33270Y66180D01*
X33318Y66063D01*
X33318Y65937D01*
X33270Y65820D01*
X33180Y65730D01*
X33063Y65682D01*
X32937Y65682D01*
G37*
%LPD*%
%LPC*%
G36*
X41937Y37182D02*
X41937Y37182D01*
X41820Y37230D01*
X41730Y37320D01*
X41682Y37437D01*
X41682Y37563D01*
X41730Y37680D01*
X41820Y37770D01*
X41937Y37818D01*
X42063Y37818D01*
X42180Y37770D01*
X42270Y37680D01*
X42318Y37563D01*
X42318Y37437D01*
X42270Y37320D01*
X42180Y37230D01*
X42063Y37182D01*
X41937Y37182D01*
G37*
%LPD*%
%LPC*%
G36*
X46437Y55182D02*
X46437Y55182D01*
X46320Y55230D01*
X46230Y55320D01*
X46182Y55437D01*
X46182Y55563D01*
X46230Y55680D01*
X46320Y55770D01*
X46437Y55818D01*
X46563Y55818D01*
X46680Y55770D01*
X46770Y55680D01*
X46818Y55563D01*
X46818Y55437D01*
X46770Y55320D01*
X46680Y55230D01*
X46563Y55182D01*
X46437Y55182D01*
G37*
%LPD*%
%LPC*%
G36*
X33002Y70157D02*
X33002Y70157D01*
X33026Y70246D01*
X33064Y70339D01*
X33114Y70426D01*
X33175Y70506D01*
X33246Y70576D01*
X33326Y70638D01*
X33413Y70688D01*
X33505Y70726D01*
X33595Y70750D01*
X33595Y70157D01*
X33002Y70157D01*
G37*
%LPD*%
%LPC*%
G36*
X15909Y70157D02*
X15909Y70157D01*
X15909Y70750D01*
X15998Y70726D01*
X16091Y70688D01*
X16178Y70638D01*
X16258Y70576D01*
X16328Y70506D01*
X16390Y70426D01*
X16440Y70339D01*
X16478Y70246D01*
X16502Y70157D01*
X15909Y70157D01*
G37*
%LPD*%
%LPC*%
G36*
X33909Y70157D02*
X33909Y70157D01*
X33909Y70750D01*
X33998Y70726D01*
X34091Y70688D01*
X34178Y70638D01*
X34258Y70576D01*
X34328Y70506D01*
X34390Y70426D01*
X34440Y70339D01*
X34478Y70246D01*
X34502Y70157D01*
X33909Y70157D01*
G37*
%LPD*%
%LPC*%
G36*
X15002Y70157D02*
X15002Y70157D01*
X15026Y70246D01*
X15064Y70339D01*
X15114Y70426D01*
X15175Y70506D01*
X15246Y70576D01*
X15326Y70638D01*
X15413Y70688D01*
X15505Y70726D01*
X15595Y70750D01*
X15595Y70157D01*
X15002Y70157D01*
G37*
%LPD*%
%LPC*%
G36*
X24909Y70157D02*
X24909Y70157D01*
X24909Y70750D01*
X24998Y70726D01*
X25091Y70688D01*
X25178Y70638D01*
X25258Y70576D01*
X25328Y70506D01*
X25390Y70426D01*
X25440Y70339D01*
X25478Y70246D01*
X25502Y70157D01*
X24909Y70157D01*
G37*
%LPD*%
%LPC*%
G36*
X24002Y70157D02*
X24002Y70157D01*
X24026Y70246D01*
X24064Y70339D01*
X24114Y70426D01*
X24175Y70506D01*
X24246Y70576D01*
X24326Y70638D01*
X24413Y70688D01*
X24505Y70726D01*
X24595Y70750D01*
X24595Y70157D01*
X24002Y70157D01*
G37*
%LPD*%
%LPC*%
G36*
X4157Y70409D02*
X4157Y70409D01*
X4157Y71002D01*
X4246Y70978D01*
X4339Y70940D01*
X4426Y70890D01*
X4506Y70828D01*
X4576Y70758D01*
X4638Y70678D01*
X4688Y70591D01*
X4726Y70498D01*
X4750Y70409D01*
X4157Y70409D01*
G37*
%LPD*%
%LPC*%
G36*
X3250Y70409D02*
X3250Y70409D01*
X3274Y70498D01*
X3312Y70591D01*
X3362Y70678D01*
X3424Y70758D01*
X3494Y70828D01*
X3574Y70890D01*
X3661Y70940D01*
X3754Y70978D01*
X3843Y71002D01*
X3843Y70409D01*
X3250Y70409D01*
G37*
%LPD*%
%LPC*%
G36*
X21909Y34157D02*
X21909Y34157D01*
X21909Y34750D01*
X21998Y34726D01*
X22091Y34688D01*
X22178Y34638D01*
X22258Y34576D01*
X22328Y34506D01*
X22390Y34426D01*
X22440Y34339D01*
X22478Y34246D01*
X22502Y34157D01*
X21909Y34157D01*
G37*
%LPD*%
%LPC*%
G36*
X4157Y70095D02*
X4157Y70095D01*
X4750Y70095D01*
X4726Y70005D01*
X4688Y69913D01*
X4638Y69826D01*
X4576Y69746D01*
X4506Y69675D01*
X4426Y69614D01*
X4339Y69564D01*
X4246Y69526D01*
X4157Y69502D01*
X4157Y70095D01*
G37*
%LPD*%
%LPC*%
G36*
X3754Y69526D02*
X3754Y69526D01*
X3661Y69564D01*
X3574Y69614D01*
X3494Y69675D01*
X3424Y69746D01*
X3362Y69826D01*
X3312Y69913D01*
X3274Y70005D01*
X3250Y70095D01*
X3843Y70095D01*
X3843Y69502D01*
X3754Y69526D01*
G37*
%LPD*%
%LPC*%
G36*
X2750Y34909D02*
X2750Y34909D01*
X2774Y34998D01*
X2812Y35091D01*
X2862Y35178D01*
X2924Y35258D01*
X2994Y35328D01*
X3074Y35390D01*
X3161Y35440D01*
X3254Y35478D01*
X3343Y35502D01*
X3343Y34909D01*
X2750Y34909D01*
G37*
%LPD*%
%LPC*%
G36*
X24505Y69274D02*
X24505Y69274D01*
X24413Y69312D01*
X24326Y69362D01*
X24246Y69424D01*
X24175Y69494D01*
X24114Y69574D01*
X24064Y69661D01*
X24026Y69754D01*
X24002Y69843D01*
X24595Y69843D01*
X24595Y69250D01*
X24505Y69274D01*
G37*
%LPD*%
%LPC*%
G36*
X24909Y69843D02*
X24909Y69843D01*
X25502Y69843D01*
X25478Y69754D01*
X25440Y69661D01*
X25390Y69574D01*
X25328Y69494D01*
X25258Y69424D01*
X25178Y69362D01*
X25091Y69312D01*
X24998Y69274D01*
X24909Y69250D01*
X24909Y69843D01*
G37*
%LPD*%
%LPC*%
G36*
X15909Y69843D02*
X15909Y69843D01*
X16502Y69843D01*
X16478Y69754D01*
X16440Y69661D01*
X16390Y69574D01*
X16328Y69494D01*
X16258Y69424D01*
X16178Y69362D01*
X16091Y69312D01*
X15998Y69274D01*
X15909Y69250D01*
X15909Y69843D01*
G37*
%LPD*%
%LPC*%
G36*
X15505Y69274D02*
X15505Y69274D01*
X15413Y69312D01*
X15326Y69362D01*
X15246Y69424D01*
X15175Y69494D01*
X15114Y69574D01*
X15064Y69661D01*
X15026Y69754D01*
X15002Y69843D01*
X15595Y69843D01*
X15595Y69250D01*
X15505Y69274D01*
G37*
%LPD*%
%LPC*%
G36*
X33505Y69274D02*
X33505Y69274D01*
X33413Y69312D01*
X33326Y69362D01*
X33246Y69424D01*
X33175Y69494D01*
X33114Y69574D01*
X33064Y69661D01*
X33026Y69754D01*
X33002Y69843D01*
X33595Y69843D01*
X33595Y69250D01*
X33505Y69274D01*
G37*
%LPD*%
%LPC*%
G36*
X36002Y33657D02*
X36002Y33657D01*
X36026Y33746D01*
X36064Y33839D01*
X36114Y33926D01*
X36175Y34006D01*
X36246Y34076D01*
X36326Y34138D01*
X36413Y34188D01*
X36505Y34226D01*
X36595Y34250D01*
X36595Y33657D01*
X36002Y33657D01*
G37*
%LPD*%
%LPC*%
G36*
X36909Y33657D02*
X36909Y33657D01*
X36909Y34250D01*
X36998Y34226D01*
X37091Y34188D01*
X37178Y34138D01*
X37258Y34076D01*
X37328Y34006D01*
X37390Y33926D01*
X37440Y33839D01*
X37478Y33746D01*
X37502Y33657D01*
X36909Y33657D01*
G37*
%LPD*%
%LPC*%
G36*
X21909Y33843D02*
X21909Y33843D01*
X22502Y33843D01*
X22478Y33754D01*
X22440Y33661D01*
X22390Y33574D01*
X22328Y33494D01*
X22258Y33424D01*
X22178Y33362D01*
X22091Y33312D01*
X21998Y33274D01*
X21909Y33250D01*
X21909Y33843D01*
G37*
%LPD*%
%LPC*%
G36*
X21505Y33274D02*
X21505Y33274D01*
X21413Y33312D01*
X21326Y33362D01*
X21246Y33424D01*
X21175Y33494D01*
X21114Y33574D01*
X21064Y33661D01*
X21026Y33754D01*
X21002Y33843D01*
X21595Y33843D01*
X21595Y33250D01*
X21505Y33274D01*
G37*
%LPD*%
%LPC*%
G36*
X36909Y33343D02*
X36909Y33343D01*
X37502Y33343D01*
X37478Y33254D01*
X37440Y33161D01*
X37390Y33074D01*
X37328Y32994D01*
X37258Y32924D01*
X37178Y32862D01*
X37091Y32812D01*
X36998Y32774D01*
X36909Y32750D01*
X36909Y33343D01*
G37*
%LPD*%
%LPC*%
G36*
X3250Y61909D02*
X3250Y61909D01*
X3274Y61998D01*
X3312Y62091D01*
X3362Y62178D01*
X3424Y62258D01*
X3494Y62328D01*
X3574Y62390D01*
X3661Y62440D01*
X3754Y62478D01*
X3843Y62502D01*
X3843Y61909D01*
X3250Y61909D01*
G37*
%LPD*%
%LPC*%
G36*
X21002Y34157D02*
X21002Y34157D01*
X21026Y34246D01*
X21064Y34339D01*
X21114Y34426D01*
X21175Y34506D01*
X21246Y34576D01*
X21326Y34638D01*
X21413Y34688D01*
X21505Y34726D01*
X21595Y34750D01*
X21595Y34157D01*
X21002Y34157D01*
G37*
%LPD*%
%LPC*%
G36*
X4157Y61909D02*
X4157Y61909D01*
X4157Y62502D01*
X4246Y62478D01*
X4339Y62440D01*
X4426Y62390D01*
X4506Y62328D01*
X4576Y62258D01*
X4638Y62178D01*
X4688Y62091D01*
X4726Y61998D01*
X4750Y61909D01*
X4157Y61909D01*
G37*
%LPD*%
%LPC*%
G36*
X4157Y43595D02*
X4157Y43595D01*
X4750Y43595D01*
X4726Y43505D01*
X4688Y43413D01*
X4638Y43326D01*
X4576Y43246D01*
X4506Y43175D01*
X4426Y43114D01*
X4339Y43064D01*
X4246Y43026D01*
X4157Y43002D01*
X4157Y43595D01*
G37*
%LPD*%
%LPC*%
G36*
X36505Y32774D02*
X36505Y32774D01*
X36413Y32812D01*
X36326Y32862D01*
X36246Y32924D01*
X36175Y32994D01*
X36114Y33074D01*
X36064Y33161D01*
X36026Y33254D01*
X36002Y33343D01*
X36595Y33343D01*
X36595Y32750D01*
X36505Y32774D01*
G37*
%LPD*%
%LPC*%
G36*
X3657Y34909D02*
X3657Y34909D01*
X3657Y35502D01*
X3746Y35478D01*
X3839Y35440D01*
X3926Y35390D01*
X4006Y35328D01*
X4076Y35258D01*
X4138Y35178D01*
X4188Y35091D01*
X4226Y34998D01*
X4250Y34909D01*
X3657Y34909D01*
G37*
%LPD*%
%LPC*%
G36*
X4157Y61595D02*
X4157Y61595D01*
X4750Y61595D01*
X4726Y61505D01*
X4688Y61413D01*
X4638Y61326D01*
X4576Y61246D01*
X4506Y61175D01*
X4426Y61114D01*
X4339Y61064D01*
X4246Y61026D01*
X4157Y61002D01*
X4157Y61595D01*
G37*
%LPD*%
%LPC*%
G36*
X3754Y61026D02*
X3754Y61026D01*
X3661Y61064D01*
X3574Y61114D01*
X3494Y61175D01*
X3424Y61246D01*
X3362Y61326D01*
X3312Y61413D01*
X3274Y61505D01*
X3250Y61595D01*
X3843Y61595D01*
X3843Y61002D01*
X3754Y61026D01*
G37*
%LPD*%
%LPC*%
G36*
X3754Y43026D02*
X3754Y43026D01*
X3661Y43064D01*
X3574Y43114D01*
X3494Y43175D01*
X3424Y43246D01*
X3362Y43326D01*
X3312Y43413D01*
X3274Y43505D01*
X3250Y43595D01*
X3843Y43595D01*
X3843Y43002D01*
X3754Y43026D01*
G37*
%LPD*%
%LPC*%
G36*
X3250Y43909D02*
X3250Y43909D01*
X3274Y43998D01*
X3312Y44091D01*
X3362Y44178D01*
X3424Y44258D01*
X3494Y44328D01*
X3574Y44390D01*
X3661Y44440D01*
X3754Y44478D01*
X3843Y44502D01*
X3843Y43909D01*
X3250Y43909D01*
G37*
%LPD*%
%LPC*%
G36*
X3250Y52909D02*
X3250Y52909D01*
X3274Y52998D01*
X3312Y53091D01*
X3362Y53178D01*
X3424Y53258D01*
X3494Y53328D01*
X3574Y53390D01*
X3661Y53440D01*
X3754Y53478D01*
X3843Y53502D01*
X3843Y52909D01*
X3250Y52909D01*
G37*
%LPD*%
%LPC*%
G36*
X4157Y52909D02*
X4157Y52909D01*
X4157Y53502D01*
X4246Y53478D01*
X4339Y53440D01*
X4426Y53390D01*
X4506Y53328D01*
X4576Y53258D01*
X4638Y53178D01*
X4688Y53091D01*
X4726Y52998D01*
X4750Y52909D01*
X4157Y52909D01*
G37*
%LPD*%
%LPC*%
G36*
X4157Y43909D02*
X4157Y43909D01*
X4157Y44502D01*
X4246Y44478D01*
X4339Y44440D01*
X4426Y44390D01*
X4506Y44328D01*
X4576Y44258D01*
X4638Y44178D01*
X4688Y44091D01*
X4726Y43998D01*
X4750Y43909D01*
X4157Y43909D01*
G37*
%LPD*%
%LPC*%
G36*
X3754Y52026D02*
X3754Y52026D01*
X3661Y52064D01*
X3574Y52114D01*
X3494Y52175D01*
X3424Y52246D01*
X3362Y52326D01*
X3312Y52413D01*
X3274Y52505D01*
X3250Y52595D01*
X3843Y52595D01*
X3843Y52002D01*
X3754Y52026D01*
G37*
%LPD*%
%LPC*%
G36*
X4157Y52595D02*
X4157Y52595D01*
X4750Y52595D01*
X4726Y52505D01*
X4688Y52413D01*
X4638Y52326D01*
X4576Y52246D01*
X4506Y52175D01*
X4426Y52114D01*
X4339Y52064D01*
X4246Y52026D01*
X4157Y52002D01*
X4157Y52595D01*
G37*
%LPD*%
%LPC*%
G36*
X33909Y69843D02*
X33909Y69843D01*
X34502Y69843D01*
X34478Y69754D01*
X34440Y69661D01*
X34390Y69574D01*
X34328Y69494D01*
X34258Y69424D01*
X34178Y69362D01*
X34091Y69312D01*
X33998Y69274D01*
X33909Y69250D01*
X33909Y69843D01*
G37*
%LPD*%
%LPC*%
G36*
X3657Y34595D02*
X3657Y34595D01*
X4250Y34595D01*
X4226Y34505D01*
X4188Y34413D01*
X4138Y34326D01*
X4076Y34246D01*
X4006Y34175D01*
X3926Y34114D01*
X3839Y34064D01*
X3746Y34026D01*
X3657Y34002D01*
X3657Y34595D01*
G37*
%LPD*%
%LPC*%
G36*
X3254Y34026D02*
X3254Y34026D01*
X3161Y34064D01*
X3074Y34114D01*
X2994Y34175D01*
X2924Y34246D01*
X2862Y34326D01*
X2812Y34413D01*
X2774Y34505D01*
X2750Y34595D01*
X3343Y34595D01*
X3343Y34002D01*
X3254Y34026D01*
G37*
%LPD*%
%LPC*%
G36*
X39657Y62657D02*
X39657Y62657D01*
X39657Y63146D01*
X39714Y63131D01*
X39795Y63097D01*
X39870Y63054D01*
X39939Y63001D01*
X40001Y62939D01*
X40054Y62870D01*
X40097Y62795D01*
X40131Y62714D01*
X40146Y62657D01*
X39657Y62657D01*
G37*
%LPD*%
%LPC*%
G36*
X21854Y62657D02*
X21854Y62657D01*
X21869Y62714D01*
X21903Y62795D01*
X21946Y62870D01*
X21999Y62939D01*
X22061Y63001D01*
X22130Y63054D01*
X22205Y63097D01*
X22286Y63131D01*
X22343Y63146D01*
X22343Y62657D01*
X21854Y62657D01*
G37*
%LPD*%
%LPC*%
G36*
X38854Y62657D02*
X38854Y62657D01*
X38869Y62714D01*
X38903Y62795D01*
X38946Y62870D01*
X38999Y62939D01*
X39061Y63001D01*
X39130Y63054D01*
X39205Y63097D01*
X39286Y63131D01*
X39343Y63146D01*
X39343Y62657D01*
X38854Y62657D01*
G37*
%LPD*%
%LPC*%
G36*
X22657Y62657D02*
X22657Y62657D01*
X22657Y63146D01*
X22714Y63131D01*
X22795Y63097D01*
X22870Y63054D01*
X22939Y63001D01*
X23001Y62939D01*
X23054Y62870D01*
X23097Y62795D01*
X23131Y62714D01*
X23146Y62657D01*
X22657Y62657D01*
G37*
%LPD*%
%LPC*%
G36*
X22657Y62343D02*
X22657Y62343D01*
X23146Y62343D01*
X23131Y62286D01*
X23097Y62205D01*
X23054Y62130D01*
X23001Y62061D01*
X22939Y61999D01*
X22870Y61946D01*
X22795Y61903D01*
X22714Y61869D01*
X22657Y61854D01*
X22657Y62343D01*
G37*
%LPD*%
%LPC*%
G36*
X22286Y61869D02*
X22286Y61869D01*
X22205Y61903D01*
X22130Y61946D01*
X22061Y61999D01*
X21999Y62061D01*
X21946Y62130D01*
X21903Y62205D01*
X21869Y62286D01*
X21854Y62343D01*
X22343Y62343D01*
X22343Y61854D01*
X22286Y61869D01*
G37*
%LPD*%
%LPC*%
G36*
X39657Y62343D02*
X39657Y62343D01*
X40146Y62343D01*
X40131Y62286D01*
X40097Y62205D01*
X40054Y62130D01*
X40001Y62061D01*
X39939Y61999D01*
X39870Y61946D01*
X39795Y61903D01*
X39714Y61869D01*
X39657Y61854D01*
X39657Y62343D01*
G37*
%LPD*%
%LPC*%
G36*
X39286Y61869D02*
X39286Y61869D01*
X39205Y61903D01*
X39130Y61946D01*
X39061Y61999D01*
X38999Y62061D01*
X38946Y62130D01*
X38903Y62205D01*
X38869Y62286D01*
X38854Y62343D01*
X39343Y62343D01*
X39343Y61854D01*
X39286Y61869D01*
G37*
%LPD*%
%LPC*%
G36*
X14584Y35647D02*
X14584Y35647D01*
X14584Y36024D01*
X14646Y36004D01*
X14722Y35965D01*
X14791Y35915D01*
X14852Y35854D01*
X14902Y35785D01*
X14941Y35709D01*
X14961Y35647D01*
X14584Y35647D01*
G37*
%LPD*%
%LPC*%
G36*
X14228Y34996D02*
X14228Y34996D01*
X14152Y35035D01*
X14083Y35085D01*
X14022Y35146D01*
X13972Y35215D01*
X13933Y35291D01*
X13913Y35353D01*
X14290Y35353D01*
X14290Y34976D01*
X14228Y34996D01*
G37*
%LPD*%
%LPC*%
G36*
X14584Y35353D02*
X14584Y35353D01*
X14961Y35353D01*
X14941Y35291D01*
X14902Y35215D01*
X14852Y35146D01*
X14791Y35085D01*
X14722Y35035D01*
X14646Y34996D01*
X14584Y34976D01*
X14584Y35353D01*
G37*
%LPD*%
%LPC*%
G36*
X13913Y35647D02*
X13913Y35647D01*
X13933Y35709D01*
X13972Y35785D01*
X14022Y35854D01*
X14083Y35915D01*
X14152Y35965D01*
X14228Y36004D01*
X14290Y36024D01*
X14290Y35647D01*
X13913Y35647D01*
G37*
%LPD*%
%LPC*%
G36*
X37504Y62637D02*
X37504Y62637D01*
X37524Y62697D01*
X37560Y62769D01*
X37608Y62835D01*
X37665Y62892D01*
X37731Y62940D01*
X37803Y62976D01*
X37863Y62996D01*
X37863Y62637D01*
X37504Y62637D01*
G37*
%LPD*%
%LPC*%
G36*
X21137Y62637D02*
X21137Y62637D01*
X21137Y62996D01*
X21197Y62976D01*
X21269Y62940D01*
X21335Y62892D01*
X21392Y62835D01*
X21440Y62769D01*
X21476Y62697D01*
X21496Y62637D01*
X21137Y62637D01*
G37*
%LPD*%
%LPC*%
G36*
X38137Y62637D02*
X38137Y62637D01*
X38137Y62996D01*
X38197Y62976D01*
X38269Y62940D01*
X38335Y62892D01*
X38392Y62835D01*
X38440Y62769D01*
X38476Y62697D01*
X38496Y62637D01*
X38137Y62637D01*
G37*
%LPD*%
%LPC*%
G36*
X20504Y62637D02*
X20504Y62637D01*
X20524Y62697D01*
X20560Y62769D01*
X20608Y62835D01*
X20665Y62892D01*
X20731Y62940D01*
X20803Y62976D01*
X20863Y62996D01*
X20863Y62637D01*
X20504Y62637D01*
G37*
%LPD*%
%LPC*%
G36*
X20803Y62024D02*
X20803Y62024D01*
X20731Y62060D01*
X20665Y62108D01*
X20608Y62165D01*
X20560Y62231D01*
X20524Y62303D01*
X20504Y62363D01*
X20863Y62363D01*
X20863Y62004D01*
X20803Y62024D01*
G37*
%LPD*%
%LPC*%
G36*
X21137Y62363D02*
X21137Y62363D01*
X21496Y62363D01*
X21476Y62303D01*
X21440Y62231D01*
X21392Y62165D01*
X21335Y62108D01*
X21269Y62060D01*
X21197Y62024D01*
X21137Y62004D01*
X21137Y62363D01*
G37*
%LPD*%
%LPC*%
G36*
X37803Y62024D02*
X37803Y62024D01*
X37731Y62060D01*
X37665Y62108D01*
X37608Y62165D01*
X37560Y62231D01*
X37524Y62303D01*
X37504Y62363D01*
X37863Y62363D01*
X37863Y62004D01*
X37803Y62024D01*
G37*
%LPD*%
%LPC*%
G36*
X38137Y62363D02*
X38137Y62363D01*
X38496Y62363D01*
X38476Y62303D01*
X38440Y62231D01*
X38392Y62165D01*
X38335Y62108D01*
X38269Y62060D01*
X38197Y62024D01*
X38137Y62004D01*
X38137Y62363D01*
G37*
%LPD*%
%LPC*%
G36*
X33416Y37151D02*
X33416Y37151D01*
X33362Y37168D01*
X33312Y37194D01*
X33267Y37227D01*
X33227Y37267D01*
X33194Y37312D01*
X33168Y37362D01*
X33151Y37416D01*
X33150Y37422D01*
X33422Y37422D01*
X33422Y37150D01*
X33416Y37151D01*
G37*
%LPD*%
%LPC*%
G36*
X46416Y61651D02*
X46416Y61651D01*
X46362Y61668D01*
X46312Y61694D01*
X46267Y61727D01*
X46227Y61767D01*
X46194Y61812D01*
X46168Y61862D01*
X46151Y61916D01*
X46150Y61922D01*
X46422Y61922D01*
X46422Y61650D01*
X46416Y61651D01*
G37*
%LPD*%
%LPC*%
G36*
X37078Y66078D02*
X37078Y66078D01*
X37078Y66350D01*
X37084Y66349D01*
X37138Y66332D01*
X37188Y66306D01*
X37233Y66273D01*
X37273Y66233D01*
X37306Y66188D01*
X37332Y66138D01*
X37349Y66084D01*
X37350Y66078D01*
X37078Y66078D01*
G37*
%LPD*%
%LPC*%
G36*
X36916Y65651D02*
X36916Y65651D01*
X36862Y65668D01*
X36812Y65694D01*
X36767Y65727D01*
X36727Y65767D01*
X36694Y65812D01*
X36668Y65862D01*
X36651Y65916D01*
X36650Y65922D01*
X36922Y65922D01*
X36922Y65650D01*
X36916Y65651D01*
G37*
%LPD*%
%LPC*%
G36*
X46078Y37578D02*
X46078Y37578D01*
X46078Y37850D01*
X46084Y37849D01*
X46138Y37832D01*
X46188Y37806D01*
X46233Y37773D01*
X46273Y37733D01*
X46306Y37688D01*
X46332Y37638D01*
X46349Y37584D01*
X46350Y37578D01*
X46078Y37578D01*
G37*
%LPD*%
%LPC*%
G36*
X33150Y37578D02*
X33150Y37578D01*
X33151Y37584D01*
X33168Y37638D01*
X33194Y37688D01*
X33227Y37733D01*
X33267Y37773D01*
X33312Y37806D01*
X33362Y37832D01*
X33416Y37849D01*
X33422Y37850D01*
X33422Y37578D01*
X33150Y37578D01*
G37*
%LPD*%
%LPC*%
G36*
X45650Y37578D02*
X45650Y37578D01*
X45651Y37584D01*
X45668Y37638D01*
X45694Y37688D01*
X45727Y37733D01*
X45767Y37773D01*
X45812Y37806D01*
X45862Y37832D01*
X45916Y37849D01*
X45922Y37850D01*
X45922Y37578D01*
X45650Y37578D01*
G37*
%LPD*%
%LPC*%
G36*
X37078Y65922D02*
X37078Y65922D01*
X37350Y65922D01*
X37349Y65916D01*
X37332Y65862D01*
X37306Y65812D01*
X37273Y65767D01*
X37233Y65727D01*
X37188Y65694D01*
X37138Y65668D01*
X37084Y65651D01*
X37078Y65650D01*
X37078Y65922D01*
G37*
%LPD*%
%LPC*%
G36*
X46078Y37422D02*
X46078Y37422D01*
X46350Y37422D01*
X46349Y37416D01*
X46332Y37362D01*
X46306Y37312D01*
X46273Y37267D01*
X46233Y37227D01*
X46188Y37194D01*
X46138Y37168D01*
X46084Y37151D01*
X46078Y37150D01*
X46078Y37422D01*
G37*
%LPD*%
%LPC*%
G36*
X45916Y37151D02*
X45916Y37151D01*
X45862Y37168D01*
X45812Y37194D01*
X45767Y37227D01*
X45727Y37267D01*
X45694Y37312D01*
X45668Y37362D01*
X45651Y37416D01*
X45650Y37422D01*
X45922Y37422D01*
X45922Y37150D01*
X45916Y37151D01*
G37*
%LPD*%
%LPC*%
G36*
X39916Y65651D02*
X39916Y65651D01*
X39862Y65668D01*
X39812Y65694D01*
X39767Y65727D01*
X39727Y65767D01*
X39694Y65812D01*
X39668Y65862D01*
X39651Y65916D01*
X39650Y65922D01*
X39922Y65922D01*
X39922Y65650D01*
X39916Y65651D01*
G37*
%LPD*%
%LPC*%
G36*
X46578Y51578D02*
X46578Y51578D01*
X46578Y51850D01*
X46584Y51849D01*
X46638Y51832D01*
X46688Y51806D01*
X46733Y51773D01*
X46773Y51733D01*
X46806Y51688D01*
X46832Y51638D01*
X46849Y51584D01*
X46850Y51578D01*
X46578Y51578D01*
G37*
%LPD*%
%LPC*%
G36*
X46578Y51422D02*
X46578Y51422D01*
X46850Y51422D01*
X46849Y51416D01*
X46832Y51362D01*
X46806Y51312D01*
X46773Y51267D01*
X46733Y51227D01*
X46688Y51194D01*
X46638Y51168D01*
X46584Y51151D01*
X46578Y51150D01*
X46578Y51422D01*
G37*
%LPD*%
%LPC*%
G36*
X39650Y66078D02*
X39650Y66078D01*
X39651Y66084D01*
X39668Y66138D01*
X39694Y66188D01*
X39727Y66233D01*
X39767Y66273D01*
X39812Y66306D01*
X39862Y66332D01*
X39916Y66349D01*
X39922Y66350D01*
X39922Y66078D01*
X39650Y66078D01*
G37*
%LPD*%
%LPC*%
G36*
X36650Y66078D02*
X36650Y66078D01*
X36651Y66084D01*
X36668Y66138D01*
X36694Y66188D01*
X36727Y66233D01*
X36767Y66273D01*
X36812Y66306D01*
X36862Y66332D01*
X36916Y66349D01*
X36922Y66350D01*
X36922Y66078D01*
X36650Y66078D01*
G37*
%LPD*%
%LPC*%
G36*
X46416Y51151D02*
X46416Y51151D01*
X46362Y51168D01*
X46312Y51194D01*
X46267Y51227D01*
X46227Y51267D01*
X46194Y51312D01*
X46168Y51362D01*
X46151Y51416D01*
X46150Y51422D01*
X46422Y51422D01*
X46422Y51150D01*
X46416Y51151D01*
G37*
%LPD*%
%LPC*%
G36*
X46578Y61922D02*
X46578Y61922D01*
X46850Y61922D01*
X46849Y61916D01*
X46832Y61862D01*
X46806Y61812D01*
X46773Y61767D01*
X46733Y61727D01*
X46688Y61694D01*
X46638Y61668D01*
X46584Y61651D01*
X46578Y61650D01*
X46578Y61922D01*
G37*
%LPD*%
%LPC*%
G36*
X46578Y62078D02*
X46578Y62078D01*
X46578Y62350D01*
X46584Y62349D01*
X46638Y62332D01*
X46688Y62306D01*
X46733Y62273D01*
X46773Y62233D01*
X46806Y62188D01*
X46832Y62138D01*
X46849Y62084D01*
X46850Y62078D01*
X46578Y62078D01*
G37*
%LPD*%
%LPC*%
G36*
X46150Y62078D02*
X46150Y62078D01*
X46151Y62084D01*
X46168Y62138D01*
X46194Y62188D01*
X46227Y62233D01*
X46267Y62273D01*
X46312Y62306D01*
X46362Y62332D01*
X46416Y62349D01*
X46422Y62350D01*
X46422Y62078D01*
X46150Y62078D01*
G37*
%LPD*%
%LPC*%
G36*
X46150Y51578D02*
X46150Y51578D01*
X46151Y51584D01*
X46168Y51638D01*
X46194Y51688D01*
X46227Y51733D01*
X46267Y51773D01*
X46312Y51806D01*
X46362Y51832D01*
X46416Y51849D01*
X46422Y51850D01*
X46422Y51578D01*
X46150Y51578D01*
G37*
%LPD*%
%LPC*%
G36*
X15751Y69999D02*
X15751Y69999D01*
X15751Y70001D01*
X15753Y70001D01*
X15753Y69999D01*
X15751Y69999D01*
G37*
%LPD*%
%LPC*%
G36*
X33751Y69999D02*
X33751Y69999D01*
X33751Y70001D01*
X33753Y70001D01*
X33753Y69999D01*
X33751Y69999D01*
G37*
%LPD*%
%LPC*%
G36*
X3499Y34751D02*
X3499Y34751D01*
X3499Y34753D01*
X3501Y34753D01*
X3501Y34751D01*
X3499Y34751D01*
G37*
%LPD*%
%LPC*%
G36*
X22499Y62499D02*
X22499Y62499D01*
X22499Y62501D01*
X22501Y62501D01*
X22501Y62499D01*
X22499Y62499D01*
G37*
%LPD*%
%LPC*%
G36*
X3999Y52751D02*
X3999Y52751D01*
X3999Y52753D01*
X4001Y52753D01*
X4001Y52751D01*
X3999Y52751D01*
G37*
%LPD*%
%LPC*%
G36*
X21751Y33999D02*
X21751Y33999D01*
X21751Y34001D01*
X21753Y34001D01*
X21753Y33999D01*
X21751Y33999D01*
G37*
%LPD*%
%LPC*%
G36*
X3999Y70251D02*
X3999Y70251D01*
X3999Y70253D01*
X4001Y70253D01*
X4001Y70251D01*
X3999Y70251D01*
G37*
%LPD*%
%LPC*%
G36*
X3999Y43751D02*
X3999Y43751D01*
X3999Y43753D01*
X4001Y43753D01*
X4001Y43751D01*
X3999Y43751D01*
G37*
%LPD*%
%LPC*%
G36*
X36751Y33499D02*
X36751Y33499D01*
X36751Y33501D01*
X36753Y33501D01*
X36753Y33499D01*
X36751Y33499D01*
G37*
%LPD*%
%LPC*%
G36*
X3999Y61751D02*
X3999Y61751D01*
X3999Y61753D01*
X4001Y61753D01*
X4001Y61751D01*
X3999Y61751D01*
G37*
%LPD*%
%LPC*%
G36*
X39499Y62499D02*
X39499Y62499D01*
X39499Y62501D01*
X39501Y62501D01*
X39501Y62499D01*
X39499Y62499D01*
G37*
%LPD*%
%LPC*%
G36*
X24751Y69999D02*
X24751Y69999D01*
X24751Y70001D01*
X24753Y70001D01*
X24753Y69999D01*
X24751Y69999D01*
G37*
%LPD*%
D10*
X4000Y59114D03*
X4000Y61752D03*
X4000Y67614D03*
X4000Y70252D03*
X22114Y70000D03*
X24752Y70000D03*
X31114Y70000D03*
X33752Y70000D03*
D11*
X48500Y72000D03*
X42594Y72000D03*
X40626Y72000D03*
X38657Y72000D03*
X38657Y69047D03*
X40626Y69047D03*
X42594Y69047D03*
X48500Y69047D03*
D10*
X13114Y70000D03*
X15752Y70000D03*
X4000Y50114D03*
X4000Y52752D03*
X4000Y41114D03*
X4000Y43752D03*
X3500Y32114D03*
X3500Y34752D03*
X47000Y44614D03*
X47000Y47252D03*
D12*
X16500Y42500D03*
X19500Y42500D03*
X22500Y42500D03*
D13*
X22500Y62500D03*
D12*
X21000Y62500D03*
X19500Y62500D03*
X18000Y62500D03*
D13*
X16500Y62500D03*
D12*
X33500Y42500D03*
X36500Y42500D03*
X39500Y42500D03*
D13*
X39500Y62500D03*
D12*
X38000Y62500D03*
X36500Y62500D03*
X35000Y62500D03*
D13*
X33500Y62500D03*
D10*
X19114Y34000D03*
X21752Y34000D03*
D14*
X37500Y37500D03*
X33500Y37500D03*
X33000Y66000D03*
X37000Y66000D03*
X46000Y37500D03*
X42000Y37500D03*
X40000Y66000D03*
X44000Y66000D03*
X46500Y51500D03*
X46500Y55500D03*
X46500Y62000D03*
X46500Y58000D03*
D10*
X34114Y33500D03*
X36752Y33500D03*
X43614Y33500D03*
X46252Y33500D03*
D15*
X10500Y35500D03*
X12469Y37469D03*
X14437Y35500D03*
X12469Y33531D03*
X12469Y35500D03*
D16*
X15780Y69960D02*
X16510Y69960D01*
X17680Y68790D01*
X23550Y68790D01*
X24720Y69960D01*
X15780Y69960D02*
X15752Y70000D01*
X24720Y69960D02*
X24752Y70000D01*
X46500Y54460D02*
X46500Y51500D01*
X46500Y54460D02*
X47360Y55320D01*
X47360Y61120D01*
X46500Y61980D01*
X46500Y62000D01*
X39960Y62940D02*
X39960Y66000D01*
X39960Y62940D02*
X39540Y62520D01*
X39960Y66000D02*
X40000Y66000D01*
X39540Y62520D02*
X39500Y62500D01*
X25610Y69960D02*
X24780Y69960D01*
X25610Y69960D02*
X26630Y68940D01*
X32700Y68940D01*
X33720Y69960D01*
X24780Y69960D02*
X24752Y70000D01*
X33720Y69960D02*
X33752Y70000D01*
X43540Y37500D02*
X46000Y37500D01*
X43540Y37500D02*
X41520Y35480D01*
X38720Y35480D01*
X36780Y33540D01*
X36752Y33500D01*
X4020Y61800D02*
X4020Y62420D01*
X5750Y64150D01*
X4800Y68890D02*
X4800Y69420D01*
X4020Y70200D01*
X4020Y61800D02*
X4000Y61752D01*
X4020Y70200D02*
X4000Y70252D01*
X3540Y34800D02*
X5300Y34800D01*
X3540Y34800D02*
X3500Y34752D01*
X4020Y42880D02*
X4020Y43740D01*
X4020Y42880D02*
X5300Y41600D01*
X5300Y34800D01*
X4020Y43740D02*
X4000Y43752D01*
X21020Y34020D02*
X21720Y34020D01*
X21020Y34020D02*
X19540Y35500D01*
X18950Y35800D01*
X21720Y34020D02*
X21752Y34000D01*
X4020Y51880D02*
X4020Y52740D01*
X4020Y51880D02*
X5100Y50800D01*
X5100Y44880D01*
X4020Y43800D01*
X4020Y52740D02*
X4000Y52752D01*
X4020Y43800D02*
X4000Y43752D01*
X29250Y33110D02*
X33500Y37360D01*
X29250Y33110D02*
X22630Y33110D01*
X21780Y33960D01*
X21752Y34000D01*
X15742Y70010D02*
X14510Y70010D01*
X13390Y68890D01*
X5750Y68890D01*
X33500Y37500D02*
X33500Y37360D01*
X15752Y70000D02*
X15742Y70010D01*
X5750Y68890D02*
X5750Y64150D01*
X5750Y68890D02*
X4800Y68890D01*
X14737Y35800D02*
X18950Y35800D01*
X14737Y35800D02*
X14437Y35500D01*
X48480Y38400D02*
X48480Y69000D01*
X48480Y38400D02*
X43620Y33540D01*
X48480Y69000D02*
X48500Y69047D01*
X43620Y33540D02*
X43614Y33500D01*
X48540Y70720D02*
X48540Y72000D01*
X48540Y70720D02*
X49520Y69740D01*
X49520Y36800D01*
X46260Y33540D01*
X48500Y72000D02*
X48540Y72000D01*
X46260Y33540D02*
X46252Y33500D01*
X37500Y37500D02*
X37500Y41520D01*
X36540Y42480D01*
X36500Y42500D01*
X38460Y42480D02*
X39480Y42480D01*
X38460Y42480D02*
X37500Y41520D01*
X39480Y42480D02*
X39500Y42500D01*
X41580Y44580D02*
X46980Y44580D01*
X41580Y44580D02*
X39500Y42500D01*
X46980Y44580D02*
X47000Y44614D01*
X40620Y47840D02*
X40620Y69000D01*
X40620Y47840D02*
X34140Y41360D01*
X34140Y33540D01*
X40620Y69000D02*
X40626Y69047D01*
X34140Y33540D02*
X34114Y33500D01*
X29520Y34740D02*
X29520Y58500D01*
X33480Y62460D01*
X33500Y62500D01*
D17*
X29520Y34740D03*
D16*
X46000Y58500D02*
X46000Y61000D01*
X41600Y65400D01*
X41600Y69300D01*
X40860Y70040D01*
X38080Y70040D01*
X31570Y63530D01*
X19010Y63530D01*
X18000Y62520D01*
X18000Y62500D01*
X46000Y58500D02*
X46500Y58000D01*
M02*
