G04 EAGLE Gerber RS-274X export*
G04 #@! %TF.Part,Single*
G04 #@! %TF.FileFunction,Other,Top Copper*
G04 #@! %TF.FilePolarity,Positive*
G04 #@! %TF.GenerationSoftware,Autodesk,EAGLE,9.5.2*
G04 #@! %TF.CreationDate,2020-01-10T22:13:51Z*
G75*
%MOIN*%
%FSLAX34Y34*%
%LPD*%
%INTop Copper*%
%IPPOS*%
%AMOC8*
5,1,8,0,0,1.08239X$1,22.5*%
G01*
%ADD10C,0.000000*%
%ADD11C,0.005118*%
%ADD12C,0.006000*%
%ADD13C,0.132874*%
%ADD14R,0.185039X0.149606*%
%ADD15R,0.149606X0.185039*%
%ADD16C,0.076772*%
%ADD17R,0.149606X0.110236*%
%ADD18C,0.082677*%
%ADD19C,0.112795*%
%ADD20C,0.051496*%
%ADD21C,0.088583*%
%ADD22R,0.110236X0.149606*%
%ADD23R,0.051181X0.059055*%
%ADD24C,0.015748*%
%ADD25C,0.015748*%
%ADD26C,0.029780*%

G36*
X28690Y29901D02*
X28690Y29901D01*
X28693Y29901D01*
X28694Y29902D01*
X28696Y29902D01*
X28699Y29904D01*
X28702Y29905D01*
X28703Y29906D01*
X28705Y29907D01*
X28707Y29909D01*
X28709Y29911D01*
X28710Y29912D01*
X28711Y29914D01*
X28712Y29917D01*
X28714Y29919D01*
X28714Y29921D01*
X28715Y29923D01*
X28715Y29925D01*
X28716Y29928D01*
X28716Y29930D01*
X28716Y29932D01*
X28715Y29935D01*
X28715Y29938D01*
X28714Y29940D01*
X28714Y29941D01*
X28712Y29944D01*
X28711Y29947D01*
X28709Y29949D01*
X28708Y29950D01*
X28708Y29951D01*
X28691Y29967D01*
X28691Y31120D01*
X28727Y31155D01*
X29351Y31155D01*
X29352Y31155D01*
X29353Y31155D01*
X29357Y31156D01*
X29361Y31157D01*
X29362Y31157D01*
X29363Y31158D01*
X29366Y31160D01*
X29369Y31161D01*
X29370Y31162D01*
X29371Y31163D01*
X29373Y31166D01*
X29376Y31168D01*
X29376Y31169D01*
X29377Y31170D01*
X29378Y31174D01*
X29380Y31177D01*
X29380Y31178D01*
X29380Y31179D01*
X29381Y31184D01*
X29381Y31698D01*
X30512Y32829D01*
X30514Y32832D01*
X30517Y32836D01*
X30518Y32837D01*
X30519Y32841D01*
X30520Y32845D01*
X30520Y32846D01*
X30520Y32847D01*
X30521Y32850D01*
X30521Y34310D01*
X30520Y34314D01*
X30519Y34318D01*
X30519Y34319D01*
X30519Y34320D01*
X30517Y34323D01*
X30515Y34327D01*
X30514Y34328D01*
X30514Y34329D01*
X30512Y34331D01*
X29920Y34923D01*
X29917Y34925D01*
X29914Y34928D01*
X29913Y34928D01*
X29912Y34928D01*
X29908Y34930D01*
X29905Y34931D01*
X29903Y34931D01*
X29902Y34931D01*
X29899Y34931D01*
X29696Y34931D01*
X29693Y34931D01*
X29690Y34931D01*
X29688Y34930D01*
X29686Y34930D01*
X29684Y34928D01*
X29681Y34927D01*
X29680Y34926D01*
X29678Y34925D01*
X29676Y34923D01*
X29674Y34921D01*
X29673Y34920D01*
X29671Y34918D01*
X29670Y34916D01*
X29669Y34913D01*
X29668Y34911D01*
X29667Y34910D01*
X29667Y34907D01*
X29667Y34904D01*
X29667Y34902D01*
X29667Y34900D01*
X29667Y34897D01*
X29668Y34894D01*
X29668Y34893D01*
X29669Y34891D01*
X29670Y34888D01*
X29672Y34886D01*
X29673Y34883D01*
X29674Y34883D01*
X29674Y34882D01*
X29675Y34881D01*
X29730Y34827D01*
X29730Y34653D01*
X29668Y34592D01*
X29666Y34588D01*
X29663Y34585D01*
X29663Y34584D01*
X29662Y34584D01*
X29661Y34580D01*
X29660Y34576D01*
X29660Y34575D01*
X29660Y34574D01*
X29659Y34571D01*
X29659Y34098D01*
X29660Y34097D01*
X29660Y34096D01*
X29660Y34092D01*
X29661Y34088D01*
X29662Y34088D01*
X29662Y34086D01*
X29664Y34083D01*
X29666Y34080D01*
X29666Y34079D01*
X29667Y34078D01*
X29670Y34076D01*
X29673Y34073D01*
X29674Y34073D01*
X29674Y34072D01*
X29678Y34071D01*
X29681Y34070D01*
X29682Y34069D01*
X29683Y34069D01*
X29689Y34069D01*
X30273Y34069D01*
X30309Y34033D01*
X30309Y32880D01*
X30273Y32845D01*
X28727Y32845D01*
X28691Y32880D01*
X28691Y34033D01*
X28727Y34069D01*
X29351Y34069D01*
X29352Y34069D01*
X29353Y34069D01*
X29357Y34070D01*
X29361Y34070D01*
X29362Y34071D01*
X29363Y34071D01*
X29366Y34073D01*
X29369Y34075D01*
X29370Y34075D01*
X29371Y34076D01*
X29373Y34079D01*
X29376Y34082D01*
X29376Y34083D01*
X29377Y34084D01*
X29378Y34087D01*
X29380Y34090D01*
X29380Y34091D01*
X29380Y34092D01*
X29381Y34098D01*
X29381Y34571D01*
X29380Y34575D01*
X29379Y34579D01*
X29379Y34580D01*
X29377Y34584D01*
X29375Y34587D01*
X29375Y34588D01*
X29374Y34589D01*
X29372Y34592D01*
X29310Y34653D01*
X29310Y34827D01*
X29365Y34881D01*
X29367Y34884D01*
X29369Y34886D01*
X29369Y34888D01*
X29371Y34889D01*
X29371Y34892D01*
X29373Y34895D01*
X29373Y34897D01*
X29373Y34898D01*
X29373Y34901D01*
X29373Y34904D01*
X29373Y34906D01*
X29373Y34908D01*
X29372Y34911D01*
X29371Y34914D01*
X29370Y34915D01*
X29370Y34917D01*
X29368Y34919D01*
X29366Y34922D01*
X29365Y34923D01*
X29363Y34924D01*
X29361Y34926D01*
X29359Y34928D01*
X29357Y34928D01*
X29355Y34929D01*
X29352Y34930D01*
X29350Y34931D01*
X29347Y34931D01*
X29346Y34931D01*
X29345Y34931D01*
X29344Y34931D01*
X28727Y34931D01*
X28691Y34967D01*
X28691Y35411D01*
X28691Y35412D01*
X28691Y35413D01*
X28690Y35417D01*
X28690Y35421D01*
X28689Y35422D01*
X28689Y35423D01*
X28687Y35426D01*
X28685Y35429D01*
X28684Y35430D01*
X28684Y35431D01*
X28681Y35433D01*
X28678Y35436D01*
X28677Y35436D01*
X28676Y35437D01*
X28673Y35438D01*
X28669Y35440D01*
X28668Y35440D01*
X28667Y35440D01*
X28662Y35441D01*
X28202Y35441D01*
X26460Y37183D01*
X26457Y37185D01*
X26454Y37187D01*
X26453Y37188D01*
X26452Y37188D01*
X26448Y37189D01*
X26445Y37191D01*
X26444Y37191D01*
X26443Y37191D01*
X26442Y37191D01*
X26439Y37191D01*
X24888Y37191D01*
X24853Y37227D01*
X24853Y38778D01*
X24852Y38782D01*
X24852Y38786D01*
X24851Y38787D01*
X24849Y38791D01*
X24848Y38795D01*
X24847Y38795D01*
X24847Y38796D01*
X24846Y38796D01*
X24844Y38799D01*
X24411Y39232D01*
X24408Y39234D01*
X24404Y39237D01*
X24403Y39238D01*
X24399Y39239D01*
X24395Y39240D01*
X24394Y39240D01*
X24393Y39240D01*
X24390Y39241D01*
X20030Y39241D01*
X20026Y39240D01*
X20022Y39239D01*
X20021Y39239D01*
X20020Y39239D01*
X20017Y39237D01*
X20013Y39235D01*
X20012Y39234D01*
X20011Y39234D01*
X20009Y39232D01*
X19156Y38379D01*
X19154Y38375D01*
X19151Y38372D01*
X19150Y38371D01*
X19149Y38367D01*
X19148Y38363D01*
X19148Y38362D01*
X19148Y38361D01*
X19147Y38358D01*
X19147Y37227D01*
X19112Y37191D01*
X17211Y37191D01*
X17175Y37227D01*
X17175Y37871D01*
X17175Y37872D01*
X17175Y37873D01*
X17175Y37877D01*
X17174Y37881D01*
X17173Y37882D01*
X17173Y37883D01*
X17171Y37886D01*
X17169Y37889D01*
X17169Y37890D01*
X17168Y37891D01*
X17165Y37893D01*
X17162Y37896D01*
X17161Y37896D01*
X17161Y37897D01*
X17157Y37898D01*
X17154Y37900D01*
X17153Y37900D01*
X17152Y37900D01*
X17146Y37901D01*
X13242Y37901D01*
X9849Y41293D01*
X9847Y41295D01*
X9845Y41297D01*
X9843Y41298D01*
X9842Y41299D01*
X9839Y41300D01*
X9836Y41301D01*
X9834Y41301D01*
X9832Y41302D01*
X9830Y41302D01*
X9827Y41302D01*
X9825Y41301D01*
X9823Y41301D01*
X9820Y41300D01*
X9817Y41300D01*
X9816Y41299D01*
X9814Y41298D01*
X9812Y41296D01*
X9809Y41294D01*
X9808Y41293D01*
X9807Y41292D01*
X9805Y41289D01*
X9803Y41287D01*
X9803Y41285D01*
X9802Y41284D01*
X9801Y41281D01*
X9800Y41278D01*
X9800Y41275D01*
X9800Y41274D01*
X9799Y41273D01*
X9799Y40422D01*
X7168Y37791D01*
X7166Y37788D01*
X7163Y37784D01*
X7162Y37783D01*
X7161Y37779D01*
X7160Y37775D01*
X7160Y37774D01*
X7160Y37773D01*
X7159Y37770D01*
X7159Y36354D01*
X7160Y36353D01*
X7160Y36352D01*
X7160Y36348D01*
X7161Y36344D01*
X7162Y36343D01*
X7162Y36342D01*
X7164Y36339D01*
X7166Y36336D01*
X7166Y36335D01*
X7167Y36334D01*
X7170Y36332D01*
X7173Y36329D01*
X7174Y36329D01*
X7174Y36328D01*
X7178Y36327D01*
X7181Y36325D01*
X7182Y36325D01*
X7183Y36325D01*
X7189Y36325D01*
X7773Y36325D01*
X7809Y36289D01*
X7809Y34388D01*
X7773Y34353D01*
X6227Y34353D01*
X6191Y34388D01*
X6191Y36289D01*
X6227Y36325D01*
X6851Y36325D01*
X6852Y36325D01*
X6853Y36325D01*
X6857Y36325D01*
X6861Y36326D01*
X6862Y36327D01*
X6863Y36327D01*
X6866Y36329D01*
X6869Y36331D01*
X6870Y36331D01*
X6871Y36332D01*
X6873Y36335D01*
X6876Y36338D01*
X6876Y36339D01*
X6877Y36339D01*
X6878Y36343D01*
X6880Y36346D01*
X6880Y36347D01*
X6880Y36348D01*
X6881Y36354D01*
X6881Y37898D01*
X9512Y40529D01*
X9514Y40532D01*
X9517Y40536D01*
X9518Y40537D01*
X9519Y40541D01*
X9520Y40545D01*
X9520Y40546D01*
X9520Y40547D01*
X9521Y40550D01*
X9521Y43070D01*
X9520Y43074D01*
X9519Y43078D01*
X9519Y43079D01*
X9519Y43080D01*
X9517Y43083D01*
X9515Y43087D01*
X9514Y43088D01*
X9514Y43089D01*
X9512Y43091D01*
X9259Y43344D01*
X9255Y43346D01*
X9252Y43349D01*
X9251Y43350D01*
X9247Y43351D01*
X9243Y43352D01*
X9242Y43352D01*
X9241Y43352D01*
X9238Y43353D01*
X7727Y43353D01*
X7691Y43388D01*
X7691Y45289D01*
X7727Y45325D01*
X7871Y45325D01*
X7872Y45325D01*
X7873Y45325D01*
X7877Y45325D01*
X7881Y45326D01*
X7882Y45327D01*
X7883Y45327D01*
X7886Y45329D01*
X7889Y45331D01*
X7890Y45331D01*
X7891Y45332D01*
X7893Y45335D01*
X7896Y45338D01*
X7896Y45339D01*
X7897Y45339D01*
X7898Y45343D01*
X7900Y45346D01*
X7900Y45347D01*
X7900Y45348D01*
X7901Y45354D01*
X7901Y49146D01*
X7900Y49147D01*
X7900Y49148D01*
X7900Y49152D01*
X7899Y49156D01*
X7898Y49157D01*
X7898Y49158D01*
X7896Y49161D01*
X7894Y49164D01*
X7894Y49165D01*
X7893Y49166D01*
X7890Y49168D01*
X7887Y49171D01*
X7886Y49171D01*
X7886Y49172D01*
X7882Y49173D01*
X7879Y49175D01*
X7878Y49175D01*
X7877Y49175D01*
X7871Y49175D01*
X7227Y49175D01*
X7191Y49211D01*
X7191Y51112D01*
X7227Y51147D01*
X8773Y51147D01*
X8809Y51112D01*
X8809Y51097D01*
X8809Y51094D01*
X8809Y51091D01*
X8810Y51089D01*
X8810Y51087D01*
X8812Y51085D01*
X8813Y51082D01*
X8814Y51080D01*
X8815Y51079D01*
X8817Y51077D01*
X8819Y51075D01*
X8820Y51074D01*
X8822Y51072D01*
X8825Y51071D01*
X8827Y51070D01*
X8829Y51069D01*
X8831Y51068D01*
X8834Y51068D01*
X8836Y51067D01*
X8838Y51068D01*
X8840Y51067D01*
X8843Y51068D01*
X8846Y51068D01*
X8848Y51069D01*
X8849Y51070D01*
X8852Y51071D01*
X8855Y51073D01*
X8857Y51074D01*
X8858Y51075D01*
X8859Y51076D01*
X9232Y51449D01*
X9234Y51452D01*
X9237Y51456D01*
X9238Y51457D01*
X9239Y51461D01*
X9240Y51465D01*
X9240Y51466D01*
X9240Y51467D01*
X9241Y51470D01*
X9241Y56250D01*
X9240Y56254D01*
X9239Y56258D01*
X9239Y56259D01*
X9239Y56260D01*
X9237Y56263D01*
X9235Y56267D01*
X9234Y56268D01*
X9234Y56269D01*
X9232Y56271D01*
X8821Y56682D01*
X8820Y56682D01*
X8819Y56683D01*
X8816Y56685D01*
X8813Y56687D01*
X8812Y56688D01*
X8811Y56688D01*
X8808Y56689D01*
X8804Y56690D01*
X8803Y56690D01*
X8802Y56690D01*
X8798Y56690D01*
X8794Y56690D01*
X8793Y56689D01*
X8792Y56689D01*
X8789Y56688D01*
X8785Y56686D01*
X8784Y56685D01*
X8780Y56682D01*
X8773Y56675D01*
X7227Y56675D01*
X7191Y56711D01*
X7191Y58612D01*
X7227Y58647D01*
X8758Y58647D01*
X8762Y58648D01*
X8766Y58648D01*
X8767Y58649D01*
X8771Y58651D01*
X8775Y58652D01*
X8775Y58653D01*
X8776Y58653D01*
X8776Y58654D01*
X8779Y58656D01*
X9232Y59109D01*
X9234Y59112D01*
X9237Y59116D01*
X9238Y59117D01*
X9239Y59121D01*
X9240Y59125D01*
X9240Y59126D01*
X9240Y59127D01*
X9241Y59130D01*
X9241Y61190D01*
X9240Y61194D01*
X9239Y61198D01*
X9239Y61199D01*
X9239Y61200D01*
X9237Y61203D01*
X9235Y61207D01*
X9234Y61208D01*
X9234Y61209D01*
X9232Y61211D01*
X7421Y63022D01*
X7421Y63162D01*
X7420Y63163D01*
X7420Y63164D01*
X7420Y63168D01*
X7419Y63171D01*
X7418Y63172D01*
X7418Y63173D01*
X7416Y63177D01*
X7414Y63180D01*
X7414Y63181D01*
X7413Y63181D01*
X7410Y63184D01*
X7407Y63186D01*
X7406Y63187D01*
X7402Y63189D01*
X7399Y63190D01*
X7398Y63190D01*
X7397Y63191D01*
X7391Y63191D01*
X6967Y63191D01*
X6931Y63227D01*
X6931Y64773D01*
X6967Y64809D01*
X8122Y64809D01*
X8123Y64808D01*
X8124Y64808D01*
X8125Y64807D01*
X8128Y64806D01*
X8132Y64805D01*
X8133Y64805D01*
X8134Y64805D01*
X8138Y64805D01*
X8141Y64806D01*
X8142Y64806D01*
X8143Y64806D01*
X8147Y64808D01*
X8150Y64809D01*
X8151Y64810D01*
X8152Y64810D01*
X8156Y64814D01*
X8822Y65479D01*
X9711Y65479D01*
X9712Y65480D01*
X9713Y65480D01*
X9717Y65480D01*
X9721Y65481D01*
X9722Y65482D01*
X9723Y65482D01*
X9726Y65484D01*
X9729Y65486D01*
X9730Y65486D01*
X9731Y65487D01*
X9733Y65490D01*
X9736Y65493D01*
X9736Y65494D01*
X9737Y65494D01*
X9738Y65498D01*
X9740Y65501D01*
X9740Y65502D01*
X9740Y65503D01*
X9741Y65509D01*
X9741Y68270D01*
X9740Y68274D01*
X9739Y68278D01*
X9739Y68279D01*
X9739Y68280D01*
X9737Y68283D01*
X9735Y68287D01*
X9734Y68288D01*
X9734Y68289D01*
X9732Y68291D01*
X8679Y69344D01*
X8675Y69346D01*
X8672Y69349D01*
X8671Y69350D01*
X8667Y69351D01*
X8663Y69352D01*
X8662Y69352D01*
X8661Y69352D01*
X8658Y69353D01*
X7227Y69353D01*
X7191Y69388D01*
X7191Y71289D01*
X7227Y71325D01*
X8773Y71325D01*
X8809Y71289D01*
X8809Y69621D01*
X8809Y69620D01*
X8809Y69619D01*
X8809Y69618D01*
X8809Y69617D01*
X8810Y69613D01*
X8810Y69612D01*
X8810Y69611D01*
X8812Y69608D01*
X8814Y69604D01*
X8815Y69603D01*
X8815Y69602D01*
X8817Y69600D01*
X9929Y68488D01*
X10019Y68398D01*
X10019Y65509D01*
X10020Y65508D01*
X10020Y65507D01*
X10020Y65503D01*
X10021Y65499D01*
X10022Y65498D01*
X10022Y65497D01*
X10024Y65494D01*
X10026Y65491D01*
X10026Y65490D01*
X10027Y65489D01*
X10030Y65487D01*
X10033Y65484D01*
X10034Y65484D01*
X10034Y65483D01*
X10038Y65482D01*
X10041Y65480D01*
X10042Y65480D01*
X10043Y65480D01*
X10049Y65479D01*
X11028Y65479D01*
X11599Y64908D01*
X11602Y64906D01*
X11606Y64903D01*
X11607Y64902D01*
X11611Y64901D01*
X11615Y64900D01*
X11616Y64900D01*
X11617Y64900D01*
X11620Y64899D01*
X13990Y64899D01*
X13994Y64900D01*
X13998Y64901D01*
X13999Y64901D01*
X14000Y64901D01*
X14003Y64903D01*
X14007Y64905D01*
X14008Y64906D01*
X14009Y64906D01*
X14011Y64908D01*
X14344Y65241D01*
X14346Y65245D01*
X14349Y65248D01*
X14350Y65249D01*
X14351Y65253D01*
X14352Y65257D01*
X14352Y65258D01*
X14352Y65259D01*
X14353Y65262D01*
X14353Y66773D01*
X14388Y66809D01*
X16289Y66809D01*
X16325Y66773D01*
X16325Y66169D01*
X16325Y66168D01*
X16325Y66167D01*
X16325Y66163D01*
X16326Y66159D01*
X16327Y66158D01*
X16327Y66157D01*
X16329Y66154D01*
X16331Y66151D01*
X16331Y66150D01*
X16332Y66149D01*
X16335Y66147D01*
X16338Y66144D01*
X16339Y66144D01*
X16339Y66143D01*
X16343Y66142D01*
X16346Y66140D01*
X16347Y66140D01*
X16348Y66140D01*
X16354Y66139D01*
X19646Y66139D01*
X19647Y66140D01*
X19648Y66140D01*
X19652Y66140D01*
X19656Y66141D01*
X19657Y66142D01*
X19658Y66142D01*
X19661Y66144D01*
X19664Y66146D01*
X19665Y66146D01*
X19666Y66147D01*
X19668Y66150D01*
X19671Y66153D01*
X19671Y66154D01*
X19672Y66154D01*
X19673Y66158D01*
X19675Y66161D01*
X19675Y66162D01*
X19675Y66163D01*
X19675Y66169D01*
X19675Y66773D01*
X19711Y66809D01*
X21612Y66809D01*
X21647Y66773D01*
X21647Y65227D01*
X21612Y65191D01*
X20429Y65191D01*
X20428Y65191D01*
X20427Y65191D01*
X20423Y65190D01*
X20419Y65190D01*
X20418Y65189D01*
X20417Y65189D01*
X20414Y65187D01*
X20411Y65185D01*
X20410Y65184D01*
X20409Y65184D01*
X20407Y65181D01*
X20404Y65178D01*
X20404Y65177D01*
X20403Y65176D01*
X20402Y65173D01*
X20400Y65169D01*
X20400Y65168D01*
X20400Y65167D01*
X20399Y65162D01*
X20399Y62050D01*
X20400Y62046D01*
X20401Y62042D01*
X20401Y62041D01*
X20401Y62040D01*
X20403Y62037D01*
X20405Y62033D01*
X20406Y62032D01*
X20406Y62031D01*
X20408Y62029D01*
X20989Y61448D01*
X20992Y61446D01*
X20996Y61443D01*
X20997Y61442D01*
X21001Y61441D01*
X21005Y61440D01*
X21006Y61440D01*
X21007Y61440D01*
X21010Y61439D01*
X22670Y61439D01*
X22674Y61440D01*
X22678Y61441D01*
X22679Y61441D01*
X22680Y61441D01*
X22683Y61443D01*
X22687Y61445D01*
X22688Y61446D01*
X22689Y61446D01*
X22691Y61448D01*
X26384Y65141D01*
X26386Y65144D01*
X26388Y65146D01*
X26388Y65148D01*
X26390Y65149D01*
X26390Y65152D01*
X26392Y65155D01*
X26392Y65156D01*
X26392Y65158D01*
X26392Y65161D01*
X26393Y65164D01*
X26392Y65166D01*
X26392Y65168D01*
X26391Y65171D01*
X26390Y65173D01*
X26389Y65175D01*
X26389Y65177D01*
X26387Y65179D01*
X26385Y65181D01*
X26384Y65183D01*
X26382Y65184D01*
X26380Y65186D01*
X26378Y65187D01*
X26376Y65188D01*
X26374Y65189D01*
X26371Y65190D01*
X26369Y65191D01*
X26366Y65191D01*
X26365Y65191D01*
X26364Y65191D01*
X26363Y65191D01*
X26211Y65191D01*
X26175Y65227D01*
X26175Y66773D01*
X26211Y66809D01*
X28112Y66809D01*
X28147Y66773D01*
X28147Y65227D01*
X28112Y65191D01*
X26841Y65191D01*
X26837Y65191D01*
X26833Y65190D01*
X26832Y65190D01*
X26831Y65190D01*
X26828Y65188D01*
X26824Y65186D01*
X26823Y65185D01*
X26822Y65185D01*
X26820Y65183D01*
X22798Y61161D01*
X20882Y61161D01*
X20121Y61922D01*
X20121Y65162D01*
X20120Y65163D01*
X20120Y65164D01*
X20120Y65168D01*
X20119Y65171D01*
X20118Y65172D01*
X20118Y65173D01*
X20116Y65177D01*
X20114Y65180D01*
X20114Y65181D01*
X20113Y65181D01*
X20110Y65184D01*
X20107Y65186D01*
X20106Y65187D01*
X20102Y65189D01*
X20099Y65190D01*
X20098Y65190D01*
X20097Y65191D01*
X20091Y65191D01*
X19711Y65191D01*
X19675Y65227D01*
X19675Y65831D01*
X19675Y65832D01*
X19675Y65833D01*
X19675Y65837D01*
X19674Y65841D01*
X19673Y65842D01*
X19673Y65843D01*
X19671Y65846D01*
X19669Y65849D01*
X19669Y65850D01*
X19668Y65851D01*
X19665Y65853D01*
X19662Y65856D01*
X19661Y65856D01*
X19661Y65857D01*
X19657Y65858D01*
X19654Y65860D01*
X19653Y65860D01*
X19652Y65860D01*
X19646Y65861D01*
X16354Y65861D01*
X16353Y65860D01*
X16352Y65860D01*
X16348Y65860D01*
X16344Y65859D01*
X16343Y65858D01*
X16342Y65858D01*
X16339Y65856D01*
X16336Y65854D01*
X16335Y65854D01*
X16334Y65853D01*
X16332Y65850D01*
X16329Y65847D01*
X16329Y65846D01*
X16328Y65846D01*
X16327Y65842D01*
X16325Y65839D01*
X16325Y65838D01*
X16325Y65837D01*
X16325Y65831D01*
X16325Y65227D01*
X16289Y65191D01*
X14701Y65191D01*
X14697Y65191D01*
X14693Y65190D01*
X14692Y65190D01*
X14691Y65190D01*
X14688Y65188D01*
X14684Y65186D01*
X14683Y65185D01*
X14682Y65185D01*
X14680Y65183D01*
X14118Y64621D01*
X11492Y64621D01*
X10921Y65192D01*
X10918Y65194D01*
X10914Y65197D01*
X10913Y65198D01*
X10909Y65199D01*
X10905Y65200D01*
X10904Y65200D01*
X10903Y65200D01*
X10900Y65201D01*
X8950Y65201D01*
X8946Y65200D01*
X8942Y65199D01*
X8941Y65199D01*
X8940Y65199D01*
X8937Y65197D01*
X8933Y65195D01*
X8932Y65194D01*
X8931Y65194D01*
X8929Y65192D01*
X8164Y64427D01*
X8161Y64423D01*
X8159Y64420D01*
X8159Y64419D01*
X8158Y64419D01*
X8157Y64415D01*
X8156Y64411D01*
X8156Y64410D01*
X8155Y64410D01*
X8156Y64409D01*
X8155Y64406D01*
X8155Y63227D01*
X8120Y63191D01*
X7729Y63191D01*
X7728Y63191D01*
X7727Y63191D01*
X7723Y63190D01*
X7719Y63190D01*
X7718Y63189D01*
X7717Y63189D01*
X7714Y63187D01*
X7711Y63185D01*
X7710Y63184D01*
X7709Y63184D01*
X7707Y63181D01*
X7704Y63178D01*
X7704Y63177D01*
X7703Y63176D01*
X7702Y63173D01*
X7700Y63169D01*
X7700Y63168D01*
X7700Y63167D01*
X7699Y63162D01*
X7699Y63150D01*
X7700Y63146D01*
X7701Y63142D01*
X7701Y63141D01*
X7701Y63140D01*
X7703Y63137D01*
X7705Y63133D01*
X7706Y63132D01*
X7706Y63131D01*
X7708Y63129D01*
X9519Y61318D01*
X9519Y59002D01*
X8817Y58300D01*
X8815Y58297D01*
X8813Y58294D01*
X8812Y58293D01*
X8812Y58292D01*
X8811Y58288D01*
X8809Y58285D01*
X8809Y58284D01*
X8809Y58283D01*
X8809Y58282D01*
X8809Y58279D01*
X8809Y57101D01*
X8809Y57097D01*
X8810Y57093D01*
X8810Y57092D01*
X8810Y57091D01*
X8812Y57088D01*
X8814Y57084D01*
X8815Y57083D01*
X8815Y57082D01*
X8817Y57080D01*
X9519Y56378D01*
X9519Y51342D01*
X8817Y50640D01*
X8815Y50637D01*
X8813Y50634D01*
X8812Y50633D01*
X8812Y50632D01*
X8811Y50628D01*
X8809Y50625D01*
X8809Y50624D01*
X8809Y50623D01*
X8809Y50622D01*
X8809Y50619D01*
X8809Y49211D01*
X8773Y49175D01*
X8209Y49175D01*
X8208Y49175D01*
X8207Y49175D01*
X8203Y49175D01*
X8199Y49174D01*
X8198Y49173D01*
X8197Y49173D01*
X8194Y49171D01*
X8191Y49169D01*
X8190Y49169D01*
X8189Y49168D01*
X8187Y49165D01*
X8184Y49162D01*
X8184Y49161D01*
X8183Y49161D01*
X8182Y49157D01*
X8180Y49154D01*
X8180Y49153D01*
X8180Y49152D01*
X8179Y49146D01*
X8179Y45354D01*
X8180Y45353D01*
X8180Y45352D01*
X8180Y45348D01*
X8181Y45344D01*
X8182Y45343D01*
X8182Y45342D01*
X8184Y45339D01*
X8186Y45336D01*
X8186Y45335D01*
X8187Y45334D01*
X8190Y45332D01*
X8193Y45329D01*
X8194Y45329D01*
X8194Y45328D01*
X8198Y45327D01*
X8201Y45325D01*
X8202Y45325D01*
X8203Y45325D01*
X8209Y45325D01*
X9273Y45325D01*
X9309Y45289D01*
X9309Y43701D01*
X9309Y43697D01*
X9310Y43693D01*
X9310Y43692D01*
X9310Y43691D01*
X9312Y43688D01*
X9314Y43684D01*
X9315Y43683D01*
X9315Y43682D01*
X9317Y43680D01*
X9799Y43198D01*
X9799Y41750D01*
X9800Y41746D01*
X9801Y41742D01*
X9801Y41741D01*
X9801Y41740D01*
X9803Y41737D01*
X9805Y41733D01*
X9806Y41732D01*
X9806Y41731D01*
X9808Y41729D01*
X13349Y38188D01*
X13352Y38186D01*
X13356Y38183D01*
X13357Y38182D01*
X13361Y38181D01*
X13365Y38180D01*
X13366Y38180D01*
X13367Y38180D01*
X13370Y38179D01*
X17146Y38179D01*
X17147Y38180D01*
X17148Y38180D01*
X17152Y38180D01*
X17156Y38181D01*
X17157Y38182D01*
X17158Y38182D01*
X17161Y38184D01*
X17164Y38186D01*
X17165Y38186D01*
X17166Y38187D01*
X17168Y38190D01*
X17171Y38193D01*
X17171Y38194D01*
X17172Y38194D01*
X17173Y38198D01*
X17175Y38201D01*
X17175Y38202D01*
X17175Y38203D01*
X17175Y38209D01*
X17175Y38773D01*
X17211Y38809D01*
X19112Y38809D01*
X19131Y38790D01*
X19132Y38789D01*
X19132Y38788D01*
X19136Y38786D01*
X19139Y38784D01*
X19140Y38784D01*
X19141Y38783D01*
X19144Y38782D01*
X19148Y38781D01*
X19149Y38781D01*
X19150Y38781D01*
X19154Y38781D01*
X19157Y38782D01*
X19158Y38782D01*
X19159Y38782D01*
X19163Y38784D01*
X19166Y38785D01*
X19167Y38786D01*
X19168Y38786D01*
X19172Y38790D01*
X19902Y39519D01*
X24518Y39519D01*
X25220Y38817D01*
X25223Y38815D01*
X25226Y38813D01*
X25227Y38812D01*
X25228Y38812D01*
X25232Y38811D01*
X25235Y38809D01*
X25236Y38809D01*
X25237Y38809D01*
X25238Y38809D01*
X25241Y38809D01*
X26789Y38809D01*
X26825Y38773D01*
X26825Y37225D01*
X26825Y37221D01*
X26826Y37217D01*
X26826Y37216D01*
X26826Y37215D01*
X26828Y37212D01*
X26830Y37208D01*
X26830Y37207D01*
X26831Y37207D01*
X26831Y37206D01*
X26833Y37204D01*
X28309Y35728D01*
X28312Y35726D01*
X28316Y35723D01*
X28317Y35722D01*
X28321Y35721D01*
X28325Y35720D01*
X28326Y35720D01*
X28327Y35720D01*
X28330Y35719D01*
X28662Y35719D01*
X28663Y35720D01*
X28664Y35720D01*
X28668Y35720D01*
X28671Y35721D01*
X28672Y35722D01*
X28673Y35722D01*
X28677Y35724D01*
X28680Y35726D01*
X28681Y35726D01*
X28681Y35727D01*
X28684Y35730D01*
X28686Y35733D01*
X28687Y35734D01*
X28689Y35738D01*
X28690Y35741D01*
X28690Y35742D01*
X28691Y35743D01*
X28691Y35749D01*
X28691Y36120D01*
X28727Y36155D01*
X30273Y36155D01*
X30309Y36120D01*
X30309Y34967D01*
X30307Y34964D01*
X30305Y34961D01*
X30304Y34960D01*
X30304Y34959D01*
X30303Y34955D01*
X30302Y34951D01*
X30302Y34950D01*
X30302Y34949D01*
X30302Y34946D01*
X30302Y34942D01*
X30303Y34941D01*
X30303Y34940D01*
X30304Y34936D01*
X30306Y34933D01*
X30306Y34932D01*
X30307Y34931D01*
X30310Y34927D01*
X30799Y34438D01*
X30799Y32722D01*
X29668Y31591D01*
X29666Y31588D01*
X29663Y31584D01*
X29662Y31583D01*
X29661Y31579D01*
X29660Y31575D01*
X29660Y31574D01*
X29660Y31573D01*
X29659Y31570D01*
X29659Y31184D01*
X29660Y31183D01*
X29660Y31182D01*
X29660Y31179D01*
X29661Y31175D01*
X29662Y31174D01*
X29662Y31173D01*
X29664Y31170D01*
X29666Y31167D01*
X29666Y31166D01*
X29667Y31165D01*
X29670Y31163D01*
X29673Y31160D01*
X29674Y31160D01*
X29674Y31159D01*
X29678Y31158D01*
X29681Y31156D01*
X29682Y31156D01*
X29683Y31156D01*
X29689Y31155D01*
X30273Y31155D01*
X30309Y31120D01*
X30309Y29967D01*
X30292Y29951D01*
X30291Y29948D01*
X30289Y29946D01*
X30288Y29944D01*
X30287Y29943D01*
X30286Y29940D01*
X30285Y29937D01*
X30285Y29936D01*
X30284Y29934D01*
X30284Y29931D01*
X30284Y29928D01*
X30284Y29926D01*
X30285Y29924D01*
X30286Y29921D01*
X30286Y29919D01*
X30287Y29917D01*
X30288Y29915D01*
X30290Y29913D01*
X30291Y29911D01*
X30293Y29909D01*
X30294Y29908D01*
X30297Y29906D01*
X30299Y29905D01*
X30301Y29904D01*
X30302Y29903D01*
X30305Y29902D01*
X30308Y29901D01*
X30311Y29901D01*
X30312Y29901D01*
X30313Y29901D01*
X50940Y29901D01*
X50941Y29901D01*
X50942Y29901D01*
X50946Y29902D01*
X50950Y29902D01*
X50950Y29903D01*
X50951Y29903D01*
X50955Y29905D01*
X50958Y29907D01*
X50959Y29908D01*
X50960Y29908D01*
X50962Y29911D01*
X50964Y29914D01*
X50965Y29915D01*
X50966Y29916D01*
X50967Y29919D01*
X50968Y29923D01*
X50968Y29924D01*
X50969Y29925D01*
X50969Y29930D01*
X50969Y74066D01*
X50969Y74067D01*
X50969Y74068D01*
X50968Y74072D01*
X50968Y74076D01*
X50967Y74076D01*
X50967Y74077D01*
X50965Y74081D01*
X50963Y74084D01*
X50962Y74085D01*
X50962Y74086D01*
X50959Y74088D01*
X50956Y74090D01*
X50955Y74091D01*
X50954Y74092D01*
X50951Y74093D01*
X50948Y74094D01*
X50946Y74094D01*
X50945Y74095D01*
X50940Y74095D01*
X1430Y74095D01*
X1429Y74095D01*
X1428Y74095D01*
X1424Y74094D01*
X1421Y74094D01*
X1420Y74093D01*
X1419Y74093D01*
X1415Y74091D01*
X1412Y74089D01*
X1411Y74088D01*
X1408Y74085D01*
X1406Y74082D01*
X1405Y74081D01*
X1405Y74080D01*
X1403Y74077D01*
X1402Y74073D01*
X1402Y74072D01*
X1401Y74071D01*
X1401Y74066D01*
X1401Y29930D01*
X1401Y29929D01*
X1401Y29928D01*
X1402Y29924D01*
X1402Y29921D01*
X1403Y29920D01*
X1403Y29919D01*
X1405Y29915D01*
X1407Y29912D01*
X1408Y29911D01*
X1411Y29908D01*
X1414Y29906D01*
X1415Y29905D01*
X1416Y29905D01*
X1419Y29903D01*
X1423Y29902D01*
X1424Y29902D01*
X1425Y29901D01*
X1430Y29901D01*
X28687Y29901D01*
X28690Y29901D01*
G37*
%LPC*%
G36*
X39642Y36501D02*
X39642Y36501D01*
X36171Y39972D01*
X36168Y39974D01*
X36164Y39977D01*
X36163Y39978D01*
X36159Y39979D01*
X36155Y39980D01*
X36154Y39980D01*
X36153Y39980D01*
X36150Y39981D01*
X20582Y39981D01*
X18231Y42332D01*
X18228Y42334D01*
X18224Y42337D01*
X18223Y42338D01*
X18219Y42339D01*
X18215Y42340D01*
X18214Y42340D01*
X18213Y42340D01*
X18210Y42341D01*
X16967Y42341D01*
X16967Y42340D01*
X16966Y42341D01*
X16962Y42340D01*
X16957Y42339D01*
X16953Y42337D01*
X16949Y42334D01*
X16945Y42331D01*
X16942Y42327D01*
X16940Y42322D01*
X16902Y42231D01*
X16769Y42098D01*
X16594Y42026D01*
X16406Y42026D01*
X16231Y42098D01*
X16098Y42231D01*
X16026Y42406D01*
X16026Y42594D01*
X16098Y42769D01*
X16231Y42902D01*
X16406Y42974D01*
X16594Y42974D01*
X16769Y42902D01*
X16902Y42769D01*
X16956Y42638D01*
X16956Y42637D01*
X16959Y42633D01*
X16961Y42629D01*
X16965Y42626D01*
X16969Y42623D01*
X16973Y42622D01*
X16978Y42620D01*
X16983Y42619D01*
X18338Y42619D01*
X20689Y40268D01*
X20692Y40266D01*
X20696Y40263D01*
X20697Y40262D01*
X20701Y40261D01*
X20705Y40260D01*
X20706Y40260D01*
X20707Y40260D01*
X20710Y40259D01*
X36278Y40259D01*
X39749Y36788D01*
X39752Y36786D01*
X39756Y36783D01*
X39757Y36782D01*
X39761Y36781D01*
X39765Y36780D01*
X39766Y36780D01*
X39767Y36780D01*
X39770Y36779D01*
X42450Y36779D01*
X42454Y36780D01*
X42458Y36781D01*
X42459Y36781D01*
X42460Y36781D01*
X42463Y36783D01*
X42467Y36785D01*
X42468Y36786D01*
X42469Y36786D01*
X42471Y36788D01*
X44472Y38789D01*
X44474Y38792D01*
X44477Y38796D01*
X44478Y38797D01*
X44479Y38801D01*
X44480Y38805D01*
X44480Y38806D01*
X44480Y38807D01*
X44481Y38810D01*
X44481Y50748D01*
X46352Y52619D01*
X46354Y52622D01*
X46357Y52626D01*
X46358Y52627D01*
X46359Y52631D01*
X46360Y52635D01*
X46360Y52636D01*
X46360Y52637D01*
X46361Y52640D01*
X46361Y55194D01*
X46360Y55194D01*
X46361Y55194D01*
X46360Y55199D01*
X46359Y55203D01*
X46357Y55208D01*
X46354Y55212D01*
X46351Y55215D01*
X46347Y55218D01*
X46342Y55221D01*
X46320Y55230D01*
X46230Y55320D01*
X46182Y55437D01*
X46182Y55563D01*
X46230Y55680D01*
X46320Y55770D01*
X46437Y55818D01*
X46563Y55818D01*
X46680Y55770D01*
X46770Y55680D01*
X46818Y55563D01*
X46818Y55437D01*
X46770Y55320D01*
X46680Y55230D01*
X46658Y55221D01*
X46657Y55221D01*
X46653Y55218D01*
X46649Y55216D01*
X46646Y55212D01*
X46643Y55208D01*
X46642Y55204D01*
X46640Y55199D01*
X46639Y55194D01*
X46639Y52512D01*
X44768Y50641D01*
X44766Y50638D01*
X44763Y50634D01*
X44762Y50633D01*
X44761Y50629D01*
X44760Y50625D01*
X44760Y50624D01*
X44760Y50623D01*
X44759Y50620D01*
X44759Y38810D01*
X44760Y38806D01*
X44761Y38802D01*
X44761Y38801D01*
X44761Y38800D01*
X44763Y38797D01*
X44765Y38793D01*
X44766Y38792D01*
X44766Y38791D01*
X44768Y38789D01*
X44789Y38768D01*
X44792Y38766D01*
X44796Y38763D01*
X44797Y38762D01*
X44801Y38761D01*
X44805Y38760D01*
X44806Y38760D01*
X44807Y38760D01*
X44810Y38759D01*
X47370Y38759D01*
X47374Y38760D01*
X47378Y38761D01*
X47379Y38761D01*
X47380Y38761D01*
X47383Y38763D01*
X47387Y38765D01*
X47388Y38766D01*
X47389Y38766D01*
X47391Y38768D01*
X47844Y39221D01*
X47846Y39225D01*
X47849Y39228D01*
X47850Y39229D01*
X47851Y39233D01*
X47852Y39237D01*
X47852Y39238D01*
X47852Y39239D01*
X47853Y39242D01*
X47853Y40773D01*
X47888Y40809D01*
X49789Y40809D01*
X49825Y40773D01*
X49825Y39227D01*
X49789Y39191D01*
X48221Y39191D01*
X48217Y39191D01*
X48213Y39190D01*
X48212Y39190D01*
X48211Y39190D01*
X48208Y39188D01*
X48204Y39186D01*
X48203Y39185D01*
X48202Y39185D01*
X48200Y39183D01*
X47498Y38481D01*
X44682Y38481D01*
X44641Y38522D01*
X44640Y38523D01*
X44639Y38523D01*
X44636Y38525D01*
X44633Y38528D01*
X44632Y38528D01*
X44631Y38528D01*
X44627Y38529D01*
X44624Y38530D01*
X44623Y38530D01*
X44622Y38531D01*
X44618Y38530D01*
X44614Y38530D01*
X44613Y38530D01*
X44612Y38530D01*
X44609Y38528D01*
X44605Y38527D01*
X44604Y38526D01*
X44603Y38525D01*
X44599Y38522D01*
X42578Y36501D01*
X39642Y36501D01*
G37*
%LPD*%
%LPC*%
G36*
X41937Y37182D02*
X41937Y37182D01*
X41820Y37230D01*
X41730Y37320D01*
X41721Y37342D01*
X41721Y37343D01*
X41718Y37347D01*
X41716Y37351D01*
X41712Y37354D01*
X41708Y37357D01*
X41704Y37358D01*
X41699Y37360D01*
X41694Y37361D01*
X39962Y37361D01*
X36461Y40862D01*
X36459Y40863D01*
X36458Y40865D01*
X36453Y40867D01*
X33862Y42163D01*
X33861Y42163D01*
X33860Y42164D01*
X33856Y42165D01*
X33853Y42166D01*
X33852Y42166D01*
X33850Y42166D01*
X33847Y42166D01*
X33843Y42166D01*
X33842Y42165D01*
X33841Y42165D01*
X33838Y42164D01*
X33834Y42162D01*
X33833Y42162D01*
X33832Y42161D01*
X33828Y42158D01*
X33769Y42098D01*
X33594Y42026D01*
X33406Y42026D01*
X33231Y42098D01*
X33098Y42231D01*
X33026Y42406D01*
X33026Y42594D01*
X33098Y42769D01*
X33231Y42902D01*
X33406Y42974D01*
X33594Y42974D01*
X33769Y42902D01*
X33902Y42769D01*
X33974Y42594D01*
X33974Y42437D01*
X33975Y42433D01*
X33975Y42429D01*
X33976Y42428D01*
X33978Y42424D01*
X33979Y42421D01*
X33980Y42420D01*
X33980Y42419D01*
X33983Y42416D01*
X33986Y42414D01*
X33987Y42413D01*
X33988Y42412D01*
X33990Y42411D01*
X36567Y41123D01*
X36571Y41121D01*
X36574Y41120D01*
X36575Y41120D01*
X36576Y41120D01*
X36577Y41120D01*
X36580Y41119D01*
X36598Y41119D01*
X36619Y41098D01*
X36621Y41097D01*
X36622Y41095D01*
X36627Y41093D01*
X36654Y41079D01*
X36660Y41062D01*
X36662Y41058D01*
X36663Y41055D01*
X36664Y41054D01*
X36664Y41053D01*
X36665Y41053D01*
X36667Y41050D01*
X40069Y37648D01*
X40072Y37646D01*
X40076Y37643D01*
X40077Y37642D01*
X40081Y37641D01*
X40085Y37640D01*
X40086Y37640D01*
X40087Y37640D01*
X40090Y37639D01*
X41694Y37639D01*
X41694Y37640D01*
X41694Y37639D01*
X41699Y37640D01*
X41703Y37641D01*
X41708Y37643D01*
X41712Y37646D01*
X41715Y37649D01*
X41718Y37653D01*
X41721Y37658D01*
X41730Y37680D01*
X41820Y37770D01*
X41842Y37779D01*
X41843Y37779D01*
X41846Y37782D01*
X41851Y37784D01*
X41854Y37788D01*
X41857Y37792D01*
X41858Y37796D01*
X41860Y37801D01*
X41861Y37806D01*
X41861Y59038D01*
X47012Y64189D01*
X47014Y64192D01*
X47017Y64196D01*
X47018Y64197D01*
X47019Y64201D01*
X47019Y64202D01*
X47020Y64203D01*
X47020Y64205D01*
X47020Y64206D01*
X47020Y64207D01*
X47021Y64210D01*
X47021Y65162D01*
X47020Y65163D01*
X47020Y65164D01*
X47020Y65168D01*
X47019Y65171D01*
X47018Y65172D01*
X47018Y65173D01*
X47016Y65177D01*
X47014Y65180D01*
X47014Y65181D01*
X47013Y65181D01*
X47010Y65184D01*
X47007Y65186D01*
X47006Y65187D01*
X47002Y65189D01*
X46999Y65190D01*
X46998Y65190D01*
X46997Y65191D01*
X46991Y65191D01*
X46211Y65191D01*
X46175Y65227D01*
X46175Y66773D01*
X46211Y66809D01*
X48112Y66809D01*
X48147Y66773D01*
X48147Y65227D01*
X48112Y65191D01*
X47329Y65191D01*
X47328Y65191D01*
X47327Y65191D01*
X47323Y65190D01*
X47319Y65190D01*
X47318Y65189D01*
X47317Y65189D01*
X47314Y65187D01*
X47311Y65185D01*
X47310Y65184D01*
X47309Y65184D01*
X47307Y65181D01*
X47304Y65178D01*
X47304Y65177D01*
X47303Y65176D01*
X47302Y65173D01*
X47300Y65169D01*
X47300Y65168D01*
X47300Y65167D01*
X47299Y65162D01*
X47299Y64082D01*
X42148Y58931D01*
X42146Y58928D01*
X42143Y58924D01*
X42142Y58923D01*
X42141Y58919D01*
X42140Y58915D01*
X42140Y58914D01*
X42140Y58913D01*
X42139Y58910D01*
X42139Y37806D01*
X42140Y37806D01*
X42139Y37806D01*
X42140Y37801D01*
X42141Y37797D01*
X42143Y37792D01*
X42146Y37788D01*
X42149Y37785D01*
X42153Y37782D01*
X42158Y37779D01*
X42180Y37770D01*
X42270Y37680D01*
X42318Y37563D01*
X42318Y37437D01*
X42270Y37320D01*
X42180Y37230D01*
X42063Y37182D01*
X41937Y37182D01*
G37*
%LPD*%
%LPC*%
G36*
X45211Y39191D02*
X45211Y39191D01*
X45175Y39227D01*
X45175Y40773D01*
X45211Y40809D01*
X45531Y40809D01*
X45532Y40809D01*
X45533Y40809D01*
X45537Y40810D01*
X45541Y40810D01*
X45542Y40811D01*
X45543Y40811D01*
X45546Y40813D01*
X45549Y40815D01*
X45550Y40816D01*
X45551Y40816D01*
X45553Y40819D01*
X45556Y40822D01*
X45556Y40823D01*
X45557Y40824D01*
X45558Y40827D01*
X45560Y40831D01*
X45560Y40832D01*
X45560Y40833D01*
X45561Y40838D01*
X45561Y45998D01*
X46377Y46814D01*
X46380Y46818D01*
X46382Y46822D01*
X46383Y46822D01*
X46384Y46827D01*
X46385Y46831D01*
X46385Y46836D01*
X46385Y46841D01*
X46383Y46846D01*
X46275Y47108D01*
X46275Y47396D01*
X46385Y47663D01*
X46589Y47867D01*
X46856Y47977D01*
X47144Y47977D01*
X47406Y47869D01*
X47411Y47868D01*
X47415Y47867D01*
X47420Y47867D01*
X47425Y47867D01*
X47425Y47868D01*
X47429Y47869D01*
X47433Y47871D01*
X47434Y47872D01*
X47438Y47875D01*
X49652Y50089D01*
X49654Y50092D01*
X49657Y50096D01*
X49658Y50097D01*
X49659Y50101D01*
X49660Y50105D01*
X49660Y50106D01*
X49660Y50107D01*
X49661Y50110D01*
X49661Y65162D01*
X49660Y65163D01*
X49660Y65164D01*
X49660Y65168D01*
X49659Y65171D01*
X49658Y65172D01*
X49658Y65173D01*
X49656Y65177D01*
X49654Y65180D01*
X49654Y65181D01*
X49653Y65181D01*
X49650Y65184D01*
X49647Y65186D01*
X49646Y65187D01*
X49642Y65189D01*
X49639Y65190D01*
X49638Y65190D01*
X49637Y65191D01*
X49631Y65191D01*
X48888Y65191D01*
X48853Y65227D01*
X48853Y66773D01*
X48888Y66809D01*
X50789Y66809D01*
X50825Y66773D01*
X50825Y65227D01*
X50789Y65191D01*
X49969Y65191D01*
X49968Y65191D01*
X49967Y65191D01*
X49963Y65190D01*
X49959Y65190D01*
X49958Y65189D01*
X49957Y65189D01*
X49954Y65187D01*
X49951Y65185D01*
X49950Y65184D01*
X49949Y65184D01*
X49947Y65181D01*
X49944Y65178D01*
X49944Y65177D01*
X49943Y65176D01*
X49942Y65173D01*
X49940Y65169D01*
X49940Y65168D01*
X49940Y65167D01*
X49939Y65162D01*
X49939Y49982D01*
X47630Y47673D01*
X47627Y47669D01*
X47625Y47665D01*
X47624Y47665D01*
X47623Y47660D01*
X47622Y47656D01*
X47622Y47651D01*
X47622Y47646D01*
X47624Y47641D01*
X47725Y47396D01*
X47725Y47108D01*
X47615Y46841D01*
X47411Y46637D01*
X47144Y46527D01*
X46856Y46527D01*
X46611Y46628D01*
X46606Y46629D01*
X46602Y46630D01*
X46601Y46630D01*
X46597Y46630D01*
X46592Y46629D01*
X46588Y46627D01*
X46583Y46625D01*
X46579Y46622D01*
X45848Y45891D01*
X45846Y45888D01*
X45845Y45887D01*
X45843Y45884D01*
X45842Y45883D01*
X45841Y45879D01*
X45840Y45875D01*
X45840Y45874D01*
X45840Y45873D01*
X45839Y45870D01*
X45839Y40838D01*
X45840Y40837D01*
X45840Y40836D01*
X45840Y40832D01*
X45841Y40829D01*
X45842Y40828D01*
X45842Y40827D01*
X45844Y40823D01*
X45846Y40820D01*
X45846Y40819D01*
X45847Y40819D01*
X45850Y40816D01*
X45853Y40814D01*
X45854Y40813D01*
X45858Y40811D01*
X45861Y40810D01*
X45862Y40810D01*
X45863Y40809D01*
X45869Y40809D01*
X47112Y40809D01*
X47147Y40773D01*
X47147Y39227D01*
X47112Y39191D01*
X45211Y39191D01*
G37*
%LPD*%
%LPC*%
G36*
X19406Y42026D02*
X19406Y42026D01*
X19231Y42098D01*
X19098Y42231D01*
X19026Y42406D01*
X19026Y42594D01*
X19098Y42769D01*
X19231Y42902D01*
X19406Y42974D01*
X19594Y42974D01*
X19769Y42902D01*
X19902Y42769D01*
X19956Y42638D01*
X19956Y42637D01*
X19959Y42633D01*
X19961Y42629D01*
X19965Y42626D01*
X19969Y42623D01*
X19973Y42622D01*
X19978Y42620D01*
X19983Y42619D01*
X22017Y42619D01*
X22017Y42620D01*
X22017Y42619D01*
X22022Y42620D01*
X22026Y42621D01*
X22030Y42623D01*
X22035Y42626D01*
X22038Y42629D01*
X22041Y42633D01*
X22044Y42638D01*
X22098Y42769D01*
X22231Y42902D01*
X22406Y42974D01*
X22594Y42974D01*
X22769Y42902D01*
X22902Y42769D01*
X22931Y42698D01*
X22931Y42697D01*
X22934Y42693D01*
X22936Y42689D01*
X22937Y42689D01*
X22940Y42686D01*
X22944Y42683D01*
X22948Y42682D01*
X22953Y42680D01*
X22958Y42679D01*
X29090Y42679D01*
X29094Y42680D01*
X29098Y42681D01*
X29099Y42681D01*
X29100Y42681D01*
X29103Y42683D01*
X29107Y42685D01*
X29108Y42686D01*
X29109Y42686D01*
X29111Y42688D01*
X32372Y45949D01*
X32374Y45952D01*
X32377Y45956D01*
X32378Y45957D01*
X32379Y45961D01*
X32380Y45965D01*
X32380Y45966D01*
X32380Y45967D01*
X32381Y45970D01*
X32381Y63868D01*
X32852Y64339D01*
X32854Y64342D01*
X32857Y64346D01*
X32858Y64347D01*
X32859Y64351D01*
X32860Y64355D01*
X32860Y64356D01*
X32860Y64357D01*
X32861Y64360D01*
X32861Y65694D01*
X32860Y65694D01*
X32861Y65694D01*
X32860Y65699D01*
X32859Y65703D01*
X32857Y65707D01*
X32854Y65712D01*
X32851Y65715D01*
X32847Y65718D01*
X32842Y65721D01*
X32820Y65730D01*
X32730Y65820D01*
X32682Y65937D01*
X32682Y66063D01*
X32730Y66180D01*
X32820Y66270D01*
X32937Y66318D01*
X33063Y66318D01*
X33180Y66270D01*
X33270Y66180D01*
X33318Y66063D01*
X33318Y65937D01*
X33270Y65820D01*
X33180Y65730D01*
X33158Y65721D01*
X33157Y65721D01*
X33153Y65718D01*
X33149Y65716D01*
X33146Y65712D01*
X33143Y65708D01*
X33142Y65704D01*
X33140Y65699D01*
X33139Y65694D01*
X33139Y64232D01*
X32668Y63761D01*
X32666Y63758D01*
X32663Y63754D01*
X32662Y63753D01*
X32661Y63749D01*
X32660Y63745D01*
X32660Y63744D01*
X32660Y63743D01*
X32659Y63740D01*
X32659Y46307D01*
X32660Y46304D01*
X32660Y46302D01*
X32661Y46300D01*
X32661Y46298D01*
X32662Y46295D01*
X32663Y46293D01*
X32665Y46291D01*
X32666Y46290D01*
X32668Y46288D01*
X32670Y46285D01*
X32671Y46284D01*
X32673Y46283D01*
X32675Y46282D01*
X32678Y46280D01*
X32680Y46280D01*
X32681Y46279D01*
X32684Y46279D01*
X32687Y46278D01*
X32689Y46278D01*
X32691Y46278D01*
X32694Y46279D01*
X32697Y46279D01*
X32698Y46280D01*
X32700Y46280D01*
X32703Y46282D01*
X32705Y46283D01*
X32708Y46285D01*
X32708Y46286D01*
X32709Y46286D01*
X32709Y46287D01*
X32721Y46298D01*
X32762Y46339D01*
X32878Y46339D01*
X32968Y46249D01*
X36277Y42940D01*
X36281Y42937D01*
X36285Y42935D01*
X36289Y42933D01*
X36294Y42932D01*
X36299Y42932D01*
X36303Y42932D01*
X36304Y42932D01*
X36309Y42934D01*
X36406Y42974D01*
X36594Y42974D01*
X36769Y42902D01*
X36902Y42769D01*
X36974Y42594D01*
X36974Y42406D01*
X36902Y42231D01*
X36769Y42098D01*
X36594Y42026D01*
X36406Y42026D01*
X36231Y42098D01*
X36098Y42231D01*
X36026Y42406D01*
X36026Y42594D01*
X36078Y42719D01*
X36078Y42720D01*
X36079Y42724D01*
X36080Y42729D01*
X36079Y42734D01*
X36079Y42738D01*
X36079Y42739D01*
X36077Y42743D01*
X36075Y42747D01*
X36071Y42751D01*
X32841Y45982D01*
X32840Y45983D01*
X32839Y45983D01*
X32836Y45985D01*
X32833Y45988D01*
X32832Y45988D01*
X32831Y45988D01*
X32827Y45989D01*
X32824Y45990D01*
X32823Y45990D01*
X32822Y45991D01*
X32818Y45990D01*
X32814Y45990D01*
X32813Y45990D01*
X32812Y45990D01*
X32809Y45988D01*
X32805Y45987D01*
X32804Y45986D01*
X32803Y45985D01*
X32799Y45982D01*
X29218Y42401D01*
X22992Y42401D01*
X22991Y42400D01*
X22991Y42401D01*
X22987Y42400D01*
X22982Y42399D01*
X22978Y42397D01*
X22974Y42394D01*
X22973Y42394D01*
X22970Y42391D01*
X22967Y42387D01*
X22965Y42382D01*
X22902Y42231D01*
X22769Y42098D01*
X22594Y42026D01*
X22406Y42026D01*
X22231Y42098D01*
X22098Y42231D01*
X22060Y42322D01*
X22060Y42323D01*
X22058Y42327D01*
X22055Y42331D01*
X22052Y42334D01*
X22048Y42337D01*
X22043Y42338D01*
X22039Y42340D01*
X22033Y42341D01*
X19967Y42341D01*
X19967Y42340D01*
X19966Y42341D01*
X19962Y42340D01*
X19957Y42339D01*
X19953Y42337D01*
X19949Y42334D01*
X19945Y42331D01*
X19942Y42327D01*
X19940Y42322D01*
X19902Y42231D01*
X19769Y42098D01*
X19594Y42026D01*
X19406Y42026D01*
G37*
%LPD*%
%LPC*%
G36*
X46108Y32775D02*
X46108Y32775D01*
X45841Y32885D01*
X45637Y33089D01*
X45527Y33356D01*
X45527Y33644D01*
X45628Y33889D01*
X45629Y33894D01*
X45630Y33898D01*
X45630Y33899D01*
X45630Y33903D01*
X45629Y33908D01*
X45627Y33912D01*
X45625Y33917D01*
X45622Y33921D01*
X44931Y34612D01*
X44928Y34614D01*
X44924Y34617D01*
X44923Y34618D01*
X44919Y34619D01*
X44915Y34620D01*
X44914Y34620D01*
X44913Y34620D01*
X44910Y34621D01*
X40992Y34621D01*
X37361Y38252D01*
X37358Y38254D01*
X37354Y38257D01*
X37353Y38258D01*
X37349Y38259D01*
X37345Y38260D01*
X37344Y38260D01*
X37343Y38260D01*
X37340Y38261D01*
X30338Y38261D01*
X30337Y38260D01*
X30336Y38260D01*
X30332Y38260D01*
X30329Y38259D01*
X30328Y38258D01*
X30327Y38258D01*
X30323Y38256D01*
X30320Y38254D01*
X30319Y38254D01*
X30319Y38253D01*
X30316Y38250D01*
X30314Y38247D01*
X30313Y38246D01*
X30311Y38242D01*
X30310Y38239D01*
X30310Y38238D01*
X30309Y38237D01*
X30309Y38231D01*
X30309Y37880D01*
X30273Y37845D01*
X28727Y37845D01*
X28691Y37880D01*
X28691Y39033D01*
X28727Y39069D01*
X30273Y39069D01*
X30309Y39033D01*
X30309Y38569D01*
X30309Y38568D01*
X30309Y38567D01*
X30310Y38563D01*
X30310Y38559D01*
X30311Y38558D01*
X30311Y38557D01*
X30313Y38554D01*
X30315Y38551D01*
X30316Y38550D01*
X30316Y38549D01*
X30319Y38547D01*
X30322Y38544D01*
X30323Y38544D01*
X30324Y38543D01*
X30327Y38542D01*
X30331Y38540D01*
X30332Y38540D01*
X30333Y38540D01*
X30338Y38539D01*
X37468Y38539D01*
X41099Y34908D01*
X41102Y34906D01*
X41106Y34903D01*
X41107Y34902D01*
X41111Y34901D01*
X41115Y34900D01*
X41116Y34900D01*
X41117Y34900D01*
X41120Y34899D01*
X45038Y34899D01*
X45814Y34123D01*
X45818Y34120D01*
X45822Y34118D01*
X45822Y34117D01*
X45827Y34116D01*
X45831Y34115D01*
X45836Y34115D01*
X45841Y34115D01*
X45846Y34117D01*
X46108Y34225D01*
X46396Y34225D01*
X46663Y34115D01*
X46867Y33911D01*
X46977Y33644D01*
X46977Y33356D01*
X46867Y33089D01*
X46663Y32885D01*
X46396Y32775D01*
X46108Y32775D01*
G37*
%LPD*%
%LPC*%
G36*
X13429Y36311D02*
X13429Y36311D01*
X13339Y36401D01*
X12728Y37011D01*
X12728Y37012D01*
X12724Y37014D01*
X12721Y37017D01*
X12720Y37017D01*
X12716Y37018D01*
X12711Y37020D01*
X12707Y37020D01*
X12702Y37019D01*
X12696Y37018D01*
X12569Y36965D01*
X12368Y36965D01*
X12183Y37042D01*
X12042Y37183D01*
X11965Y37368D01*
X11965Y37569D01*
X12042Y37754D01*
X12183Y37895D01*
X12368Y37972D01*
X12569Y37972D01*
X12754Y37895D01*
X12895Y37754D01*
X12972Y37569D01*
X12972Y37368D01*
X12919Y37241D01*
X12919Y37240D01*
X12918Y37236D01*
X12917Y37231D01*
X12918Y37226D01*
X12918Y37222D01*
X12920Y37217D01*
X12922Y37213D01*
X12926Y37209D01*
X13536Y36598D01*
X13539Y36596D01*
X13543Y36593D01*
X13544Y36592D01*
X13548Y36591D01*
X13552Y36590D01*
X13553Y36590D01*
X13554Y36590D01*
X13557Y36589D01*
X19219Y36589D01*
X19223Y36590D01*
X19227Y36591D01*
X19228Y36591D01*
X19232Y36593D01*
X19235Y36595D01*
X19236Y36595D01*
X19237Y36596D01*
X19239Y36598D01*
X19844Y37203D01*
X19846Y37206D01*
X19849Y37209D01*
X19849Y37210D01*
X19850Y37211D01*
X19851Y37214D01*
X19852Y37218D01*
X19852Y37219D01*
X19852Y37220D01*
X19852Y37221D01*
X19853Y37223D01*
X19853Y38773D01*
X19888Y38809D01*
X21789Y38809D01*
X21825Y38773D01*
X21825Y37227D01*
X21789Y37191D01*
X20239Y37191D01*
X20235Y37191D01*
X20231Y37190D01*
X20230Y37190D01*
X20226Y37188D01*
X20223Y37186D01*
X20222Y37185D01*
X20221Y37185D01*
X20219Y37183D01*
X19346Y36311D01*
X13429Y36311D01*
G37*
%LPD*%
%LPC*%
G36*
X18970Y33275D02*
X18970Y33275D01*
X18703Y33385D01*
X18499Y33589D01*
X18389Y33856D01*
X18389Y34144D01*
X18499Y34411D01*
X18703Y34615D01*
X18970Y34725D01*
X19258Y34725D01*
X19525Y34615D01*
X19541Y34599D01*
X19542Y34598D01*
X19545Y34596D01*
X19548Y34594D01*
X19549Y34593D01*
X19550Y34593D01*
X19554Y34592D01*
X19557Y34591D01*
X19559Y34591D01*
X19560Y34591D01*
X19563Y34591D01*
X19567Y34591D01*
X19568Y34592D01*
X19569Y34592D01*
X19572Y34593D01*
X19576Y34595D01*
X19577Y34595D01*
X19578Y34596D01*
X19582Y34599D01*
X22172Y37189D01*
X22172Y37190D01*
X22173Y37191D01*
X22175Y37194D01*
X22177Y37197D01*
X22178Y37198D01*
X22178Y37199D01*
X22179Y37202D01*
X22180Y37206D01*
X22180Y37207D01*
X22180Y37208D01*
X22180Y37212D01*
X22180Y37216D01*
X22179Y37217D01*
X22179Y37218D01*
X22178Y37221D01*
X22176Y37225D01*
X22175Y37226D01*
X22175Y38773D01*
X22211Y38809D01*
X24112Y38809D01*
X24147Y38773D01*
X24147Y37227D01*
X24112Y37191D01*
X22581Y37191D01*
X22577Y37191D01*
X22573Y37190D01*
X22572Y37190D01*
X22571Y37190D01*
X22568Y37188D01*
X22564Y37186D01*
X22563Y37185D01*
X22562Y37185D01*
X22560Y37183D01*
X19760Y34383D01*
X19757Y34379D01*
X19754Y34375D01*
X19753Y34370D01*
X19752Y34366D01*
X19752Y34361D01*
X19752Y34356D01*
X19754Y34351D01*
X19839Y34144D01*
X19839Y33856D01*
X19729Y33589D01*
X19525Y33385D01*
X19258Y33275D01*
X18970Y33275D01*
G37*
%LPD*%
%LPC*%
G36*
X3856Y49389D02*
X3856Y49389D01*
X3589Y49499D01*
X3385Y49703D01*
X3275Y49970D01*
X3275Y50258D01*
X3385Y50525D01*
X3589Y50729D01*
X3856Y50839D01*
X4144Y50839D01*
X4379Y50742D01*
X4384Y50741D01*
X4388Y50740D01*
X4389Y50740D01*
X4393Y50740D01*
X4398Y50741D01*
X4402Y50743D01*
X4407Y50745D01*
X4411Y50748D01*
X6602Y52939D01*
X7162Y52939D01*
X7163Y52940D01*
X7164Y52940D01*
X7168Y52940D01*
X7171Y52941D01*
X7172Y52942D01*
X7173Y52942D01*
X7177Y52944D01*
X7180Y52946D01*
X7181Y52946D01*
X7181Y52947D01*
X7184Y52950D01*
X7186Y52953D01*
X7187Y52954D01*
X7189Y52958D01*
X7190Y52961D01*
X7190Y52962D01*
X7191Y52963D01*
X7191Y52969D01*
X7191Y53789D01*
X7227Y53825D01*
X8773Y53825D01*
X8809Y53789D01*
X8809Y51888D01*
X8773Y51853D01*
X7227Y51853D01*
X7191Y51888D01*
X7191Y52631D01*
X7191Y52632D01*
X7191Y52633D01*
X7190Y52637D01*
X7190Y52641D01*
X7189Y52642D01*
X7189Y52643D01*
X7187Y52646D01*
X7185Y52649D01*
X7184Y52650D01*
X7184Y52651D01*
X7181Y52653D01*
X7178Y52656D01*
X7177Y52656D01*
X7176Y52657D01*
X7173Y52658D01*
X7169Y52660D01*
X7168Y52660D01*
X7167Y52660D01*
X7162Y52661D01*
X6730Y52661D01*
X6726Y52660D01*
X6722Y52659D01*
X6721Y52659D01*
X6720Y52659D01*
X6717Y52657D01*
X6713Y52655D01*
X6712Y52654D01*
X6711Y52654D01*
X6709Y52652D01*
X4619Y50562D01*
X4616Y50558D01*
X4613Y50554D01*
X4612Y50549D01*
X4611Y50545D01*
X4611Y50540D01*
X4611Y50535D01*
X4613Y50530D01*
X4725Y50258D01*
X4725Y49970D01*
X4615Y49703D01*
X4411Y49499D01*
X4144Y49389D01*
X3856Y49389D01*
G37*
%LPD*%
%LPC*%
G36*
X3856Y40389D02*
X3856Y40389D01*
X3589Y40499D01*
X3385Y40703D01*
X3275Y40970D01*
X3275Y41258D01*
X3385Y41525D01*
X3589Y41729D01*
X3856Y41839D01*
X4144Y41839D01*
X4379Y41742D01*
X4384Y41741D01*
X4388Y41740D01*
X4389Y41740D01*
X4393Y41740D01*
X4398Y41741D01*
X4402Y41743D01*
X4407Y41745D01*
X4411Y41748D01*
X4442Y41779D01*
X7662Y41779D01*
X7663Y41780D01*
X7664Y41780D01*
X7668Y41780D01*
X7671Y41781D01*
X7672Y41782D01*
X7673Y41782D01*
X7677Y41784D01*
X7680Y41786D01*
X7681Y41786D01*
X7681Y41787D01*
X7684Y41790D01*
X7686Y41793D01*
X7687Y41794D01*
X7689Y41798D01*
X7690Y41801D01*
X7690Y41802D01*
X7691Y41803D01*
X7691Y41809D01*
X7691Y42612D01*
X7727Y42647D01*
X9273Y42647D01*
X9309Y42612D01*
X9309Y40711D01*
X9273Y40675D01*
X7727Y40675D01*
X7691Y40711D01*
X7691Y41471D01*
X7691Y41472D01*
X7691Y41473D01*
X7690Y41477D01*
X7690Y41481D01*
X7689Y41482D01*
X7689Y41483D01*
X7687Y41486D01*
X7685Y41489D01*
X7684Y41490D01*
X7684Y41491D01*
X7681Y41493D01*
X7678Y41496D01*
X7677Y41496D01*
X7676Y41497D01*
X7673Y41498D01*
X7669Y41500D01*
X7668Y41500D01*
X7667Y41500D01*
X7662Y41501D01*
X4669Y41501D01*
X4667Y41500D01*
X4665Y41500D01*
X4662Y41499D01*
X4659Y41499D01*
X4657Y41498D01*
X4656Y41497D01*
X4653Y41496D01*
X4651Y41494D01*
X4649Y41493D01*
X4648Y41492D01*
X4646Y41489D01*
X4644Y41487D01*
X4643Y41486D01*
X4642Y41484D01*
X4641Y41481D01*
X4640Y41479D01*
X4640Y41477D01*
X4640Y41475D01*
X4640Y41472D01*
X4639Y41469D01*
X4640Y41467D01*
X4640Y41465D01*
X4642Y41460D01*
X4725Y41258D01*
X4725Y40970D01*
X4615Y40703D01*
X4411Y40499D01*
X4144Y40389D01*
X3856Y40389D01*
G37*
%LPD*%
%LPC*%
G36*
X28888Y65191D02*
X28888Y65191D01*
X28853Y65227D01*
X28853Y66773D01*
X28888Y66809D01*
X29711Y66809D01*
X29712Y66809D01*
X29713Y66809D01*
X29717Y66810D01*
X29721Y66810D01*
X29722Y66811D01*
X29723Y66811D01*
X29726Y66813D01*
X29729Y66815D01*
X29730Y66816D01*
X29731Y66816D01*
X29733Y66819D01*
X29736Y66822D01*
X29736Y66823D01*
X29737Y66824D01*
X29738Y66827D01*
X29740Y66831D01*
X29740Y66832D01*
X29740Y66833D01*
X29741Y66838D01*
X29741Y68818D01*
X30489Y69567D01*
X30492Y69571D01*
X30495Y69574D01*
X30495Y69575D01*
X30496Y69579D01*
X30498Y69584D01*
X30497Y69588D01*
X30497Y69593D01*
X30496Y69598D01*
X30389Y69856D01*
X30389Y70144D01*
X30499Y70411D01*
X30703Y70615D01*
X30970Y70725D01*
X31258Y70725D01*
X31525Y70615D01*
X31729Y70411D01*
X31839Y70144D01*
X31839Y69856D01*
X31729Y69589D01*
X31525Y69385D01*
X31258Y69275D01*
X30970Y69275D01*
X30721Y69378D01*
X30716Y69379D01*
X30712Y69380D01*
X30711Y69380D01*
X30707Y69380D01*
X30702Y69379D01*
X30698Y69377D01*
X30693Y69375D01*
X30689Y69372D01*
X30028Y68711D01*
X30026Y68708D01*
X30023Y68704D01*
X30022Y68703D01*
X30021Y68699D01*
X30020Y68695D01*
X30020Y68694D01*
X30020Y68693D01*
X30019Y68690D01*
X30019Y66838D01*
X30020Y66837D01*
X30020Y66836D01*
X30020Y66832D01*
X30021Y66829D01*
X30022Y66828D01*
X30022Y66827D01*
X30024Y66823D01*
X30026Y66820D01*
X30026Y66819D01*
X30027Y66819D01*
X30030Y66816D01*
X30033Y66814D01*
X30034Y66813D01*
X30038Y66811D01*
X30041Y66810D01*
X30042Y66810D01*
X30043Y66809D01*
X30049Y66809D01*
X30789Y66809D01*
X30825Y66773D01*
X30825Y65227D01*
X30789Y65191D01*
X28888Y65191D01*
G37*
%LPD*%
%LPC*%
G36*
X3856Y58389D02*
X3856Y58389D01*
X3589Y58499D01*
X3385Y58703D01*
X3275Y58970D01*
X3275Y59258D01*
X3385Y59525D01*
X3589Y59729D01*
X3856Y59839D01*
X4144Y59839D01*
X4379Y59742D01*
X4384Y59741D01*
X4388Y59740D01*
X4389Y59740D01*
X4393Y59740D01*
X4398Y59741D01*
X4402Y59743D01*
X4407Y59745D01*
X4411Y59748D01*
X5102Y60439D01*
X7162Y60439D01*
X7163Y60440D01*
X7164Y60440D01*
X7168Y60440D01*
X7171Y60441D01*
X7172Y60442D01*
X7173Y60442D01*
X7177Y60444D01*
X7180Y60446D01*
X7181Y60446D01*
X7181Y60447D01*
X7184Y60450D01*
X7186Y60453D01*
X7187Y60454D01*
X7189Y60458D01*
X7190Y60461D01*
X7190Y60462D01*
X7191Y60463D01*
X7191Y60469D01*
X7191Y61289D01*
X7227Y61325D01*
X8773Y61325D01*
X8809Y61289D01*
X8809Y59388D01*
X8773Y59353D01*
X7227Y59353D01*
X7191Y59388D01*
X7191Y60131D01*
X7191Y60132D01*
X7191Y60133D01*
X7190Y60137D01*
X7190Y60141D01*
X7189Y60142D01*
X7189Y60143D01*
X7187Y60146D01*
X7185Y60149D01*
X7184Y60150D01*
X7184Y60151D01*
X7181Y60153D01*
X7178Y60156D01*
X7177Y60156D01*
X7176Y60157D01*
X7173Y60158D01*
X7169Y60160D01*
X7168Y60160D01*
X7167Y60160D01*
X7162Y60161D01*
X5230Y60161D01*
X5226Y60160D01*
X5222Y60159D01*
X5221Y60159D01*
X5220Y60159D01*
X5217Y60157D01*
X5213Y60155D01*
X5212Y60154D01*
X5211Y60154D01*
X5209Y60152D01*
X4619Y59562D01*
X4616Y59558D01*
X4613Y59554D01*
X4612Y59549D01*
X4611Y59545D01*
X4611Y59540D01*
X4611Y59535D01*
X4613Y59530D01*
X4725Y59258D01*
X4725Y58970D01*
X4615Y58703D01*
X4411Y58499D01*
X4144Y58389D01*
X3856Y58389D01*
G37*
%LPD*%
%LPC*%
G36*
X22388Y65191D02*
X22388Y65191D01*
X22353Y65227D01*
X22353Y66773D01*
X22388Y66809D01*
X23111Y66809D01*
X23112Y66809D01*
X23113Y66809D01*
X23117Y66810D01*
X23121Y66810D01*
X23122Y66811D01*
X23123Y66811D01*
X23126Y66813D01*
X23129Y66815D01*
X23130Y66816D01*
X23131Y66816D01*
X23133Y66819D01*
X23136Y66822D01*
X23136Y66823D01*
X23137Y66824D01*
X23138Y66827D01*
X23140Y66831D01*
X23140Y66832D01*
X23140Y66833D01*
X23141Y66838D01*
X23141Y68750D01*
X23140Y68754D01*
X23139Y68758D01*
X23139Y68759D01*
X23139Y68760D01*
X23137Y68763D01*
X23135Y68767D01*
X23134Y68768D01*
X23134Y68769D01*
X23132Y68771D01*
X22533Y69369D01*
X22529Y69372D01*
X22526Y69375D01*
X22525Y69375D01*
X22521Y69376D01*
X22517Y69378D01*
X22516Y69378D01*
X22512Y69377D01*
X22507Y69377D01*
X22502Y69376D01*
X22258Y69275D01*
X21970Y69275D01*
X21703Y69385D01*
X21499Y69589D01*
X21389Y69856D01*
X21389Y70144D01*
X21499Y70411D01*
X21703Y70615D01*
X21970Y70725D01*
X22258Y70725D01*
X22525Y70615D01*
X22729Y70411D01*
X22839Y70144D01*
X22839Y69856D01*
X22730Y69593D01*
X22730Y69592D01*
X22729Y69588D01*
X22728Y69583D01*
X22729Y69578D01*
X22729Y69574D01*
X22729Y69573D01*
X22731Y69569D01*
X22733Y69565D01*
X22737Y69561D01*
X23419Y68878D01*
X23419Y66838D01*
X23420Y66837D01*
X23420Y66836D01*
X23420Y66832D01*
X23421Y66829D01*
X23422Y66828D01*
X23422Y66827D01*
X23424Y66823D01*
X23426Y66820D01*
X23426Y66819D01*
X23427Y66819D01*
X23430Y66816D01*
X23433Y66814D01*
X23434Y66813D01*
X23438Y66811D01*
X23441Y66810D01*
X23442Y66810D01*
X23443Y66809D01*
X23449Y66809D01*
X24289Y66809D01*
X24325Y66773D01*
X24325Y65227D01*
X24289Y65191D01*
X22388Y65191D01*
G37*
%LPD*%
%LPC*%
G36*
X11711Y65191D02*
X11711Y65191D01*
X11675Y65227D01*
X11675Y66773D01*
X11711Y66809D01*
X12551Y66809D01*
X12552Y66809D01*
X12553Y66809D01*
X12557Y66810D01*
X12561Y66810D01*
X12562Y66811D01*
X12563Y66811D01*
X12566Y66813D01*
X12569Y66815D01*
X12570Y66816D01*
X12571Y66816D01*
X12573Y66819D01*
X12576Y66822D01*
X12576Y66823D01*
X12577Y66824D01*
X12578Y66827D01*
X12580Y66831D01*
X12580Y66832D01*
X12580Y66833D01*
X12581Y66838D01*
X12581Y69496D01*
X12580Y69500D01*
X12579Y69504D01*
X12579Y69505D01*
X12579Y69506D01*
X12577Y69509D01*
X12575Y69513D01*
X12574Y69514D01*
X12574Y69515D01*
X12572Y69517D01*
X12499Y69589D01*
X12389Y69856D01*
X12389Y70144D01*
X12499Y70411D01*
X12703Y70615D01*
X12970Y70725D01*
X13258Y70725D01*
X13525Y70615D01*
X13729Y70411D01*
X13839Y70144D01*
X13839Y69856D01*
X13729Y69589D01*
X13525Y69385D01*
X13258Y69275D01*
X12970Y69275D01*
X12900Y69304D01*
X12898Y69304D01*
X12896Y69305D01*
X12893Y69305D01*
X12891Y69306D01*
X12889Y69306D01*
X12887Y69306D01*
X12884Y69305D01*
X12881Y69305D01*
X12879Y69304D01*
X12877Y69304D01*
X12875Y69302D01*
X12872Y69301D01*
X12871Y69300D01*
X12869Y69299D01*
X12867Y69296D01*
X12865Y69295D01*
X12865Y69293D01*
X12863Y69291D01*
X12862Y69289D01*
X12861Y69286D01*
X12861Y69284D01*
X12860Y69282D01*
X12859Y69277D01*
X12859Y66838D01*
X12860Y66837D01*
X12860Y66836D01*
X12860Y66832D01*
X12861Y66829D01*
X12862Y66828D01*
X12862Y66827D01*
X12864Y66823D01*
X12866Y66820D01*
X12866Y66819D01*
X12867Y66819D01*
X12870Y66816D01*
X12873Y66814D01*
X12874Y66813D01*
X12878Y66811D01*
X12881Y66810D01*
X12882Y66810D01*
X12883Y66809D01*
X12889Y66809D01*
X13612Y66809D01*
X13647Y66773D01*
X13647Y65227D01*
X13612Y65191D01*
X11711Y65191D01*
G37*
%LPD*%
%LPC*%
G36*
X16376Y61875D02*
X16376Y61875D01*
X16146Y61970D01*
X15970Y62146D01*
X15875Y62376D01*
X15875Y62624D01*
X15962Y62835D01*
X15963Y62835D01*
X15964Y62839D01*
X15965Y62844D01*
X15964Y62849D01*
X15964Y62854D01*
X15962Y62858D01*
X15960Y62862D01*
X15956Y62867D01*
X15011Y63812D01*
X15008Y63814D01*
X15004Y63817D01*
X15003Y63818D01*
X14999Y63819D01*
X14995Y63820D01*
X14994Y63820D01*
X14993Y63820D01*
X14990Y63821D01*
X11098Y63821D01*
X11097Y63820D01*
X11096Y63820D01*
X11092Y63820D01*
X11088Y63819D01*
X11088Y63818D01*
X11086Y63818D01*
X11083Y63816D01*
X11080Y63814D01*
X11079Y63814D01*
X11078Y63813D01*
X11076Y63810D01*
X11073Y63807D01*
X11073Y63806D01*
X11072Y63806D01*
X11071Y63802D01*
X11070Y63799D01*
X11069Y63798D01*
X11069Y63797D01*
X11069Y63791D01*
X11069Y63227D01*
X11033Y63191D01*
X9880Y63191D01*
X9845Y63227D01*
X9845Y64773D01*
X9880Y64809D01*
X11033Y64809D01*
X11069Y64773D01*
X11069Y64129D01*
X11069Y64128D01*
X11069Y64127D01*
X11070Y64123D01*
X11070Y64119D01*
X11071Y64118D01*
X11071Y64117D01*
X11073Y64114D01*
X11075Y64111D01*
X11075Y64110D01*
X11076Y64109D01*
X11079Y64107D01*
X11082Y64104D01*
X11083Y64104D01*
X11084Y64103D01*
X11087Y64102D01*
X11090Y64100D01*
X11091Y64100D01*
X11092Y64100D01*
X11098Y64099D01*
X15118Y64099D01*
X16162Y63056D01*
X16162Y63055D01*
X16166Y63053D01*
X16169Y63050D01*
X16170Y63050D01*
X16174Y63049D01*
X16179Y63047D01*
X16183Y63047D01*
X16188Y63048D01*
X16194Y63049D01*
X16376Y63125D01*
X16624Y63125D01*
X16854Y63030D01*
X17030Y62854D01*
X17103Y62678D01*
X17103Y62677D01*
X17105Y62673D01*
X17108Y62669D01*
X17111Y62666D01*
X17115Y62663D01*
X17120Y62662D01*
X17124Y62660D01*
X17130Y62659D01*
X17533Y62659D01*
X17533Y62660D01*
X17534Y62659D01*
X17538Y62660D01*
X17543Y62661D01*
X17547Y62663D01*
X17551Y62666D01*
X17555Y62669D01*
X17558Y62673D01*
X17560Y62678D01*
X17598Y62769D01*
X17731Y62902D01*
X17906Y62974D01*
X18094Y62974D01*
X18269Y62902D01*
X18402Y62769D01*
X18474Y62594D01*
X18474Y62406D01*
X18402Y62231D01*
X18269Y62098D01*
X18094Y62026D01*
X17906Y62026D01*
X17731Y62098D01*
X17598Y62231D01*
X17544Y62362D01*
X17544Y62363D01*
X17541Y62367D01*
X17539Y62371D01*
X17535Y62374D01*
X17531Y62377D01*
X17527Y62378D01*
X17522Y62380D01*
X17517Y62381D01*
X17146Y62381D01*
X17146Y62380D01*
X17146Y62381D01*
X17141Y62380D01*
X17137Y62379D01*
X17133Y62377D01*
X17128Y62374D01*
X17125Y62371D01*
X17122Y62367D01*
X17119Y62362D01*
X17030Y62146D01*
X16854Y61970D01*
X16624Y61875D01*
X16376Y61875D01*
G37*
%LPD*%
%LPC*%
G36*
X7227Y66675D02*
X7227Y66675D01*
X7191Y66711D01*
X7191Y67451D01*
X7191Y67452D01*
X7191Y67453D01*
X7190Y67457D01*
X7190Y67461D01*
X7189Y67462D01*
X7189Y67463D01*
X7187Y67466D01*
X7185Y67469D01*
X7184Y67470D01*
X7184Y67471D01*
X7181Y67473D01*
X7178Y67476D01*
X7177Y67476D01*
X7176Y67477D01*
X7173Y67478D01*
X7169Y67480D01*
X7168Y67480D01*
X7167Y67480D01*
X7162Y67481D01*
X4749Y67481D01*
X4749Y67480D01*
X4749Y67481D01*
X4744Y67480D01*
X4740Y67479D01*
X4739Y67479D01*
X4735Y67477D01*
X4731Y67474D01*
X4728Y67471D01*
X4725Y67467D01*
X4722Y67462D01*
X4615Y67203D01*
X4411Y66999D01*
X4144Y66889D01*
X3856Y66889D01*
X3589Y66999D01*
X3385Y67203D01*
X3275Y67470D01*
X3275Y67758D01*
X3385Y68025D01*
X3589Y68229D01*
X3856Y68339D01*
X4144Y68339D01*
X4411Y68229D01*
X4615Y68025D01*
X4717Y67778D01*
X4717Y67777D01*
X4720Y67773D01*
X4722Y67769D01*
X4726Y67766D01*
X4730Y67763D01*
X4734Y67762D01*
X4739Y67760D01*
X4744Y67759D01*
X7162Y67759D01*
X7163Y67760D01*
X7164Y67760D01*
X7168Y67760D01*
X7171Y67761D01*
X7172Y67762D01*
X7173Y67762D01*
X7177Y67764D01*
X7180Y67766D01*
X7181Y67766D01*
X7181Y67767D01*
X7184Y67770D01*
X7186Y67773D01*
X7187Y67774D01*
X7189Y67778D01*
X7190Y67781D01*
X7190Y67782D01*
X7191Y67783D01*
X7191Y67789D01*
X7191Y68612D01*
X7227Y68647D01*
X8773Y68647D01*
X8809Y68612D01*
X8809Y66711D01*
X8773Y66675D01*
X7227Y66675D01*
G37*
%LPD*%
%LPC*%
G36*
X3356Y31389D02*
X3356Y31389D01*
X3089Y31499D01*
X2885Y31703D01*
X2775Y31970D01*
X2775Y32258D01*
X2885Y32525D01*
X3089Y32729D01*
X3356Y32839D01*
X3644Y32839D01*
X3893Y32736D01*
X3894Y32736D01*
X3898Y32735D01*
X3903Y32734D01*
X3907Y32734D01*
X3912Y32735D01*
X3917Y32737D01*
X3921Y32739D01*
X3925Y32742D01*
X3962Y32779D01*
X6162Y32779D01*
X6163Y32780D01*
X6164Y32780D01*
X6168Y32780D01*
X6171Y32781D01*
X6172Y32782D01*
X6173Y32782D01*
X6177Y32784D01*
X6180Y32786D01*
X6181Y32786D01*
X6181Y32787D01*
X6184Y32790D01*
X6186Y32793D01*
X6187Y32794D01*
X6189Y32798D01*
X6190Y32801D01*
X6190Y32802D01*
X6191Y32803D01*
X6191Y32809D01*
X6191Y33612D01*
X6227Y33647D01*
X7773Y33647D01*
X7809Y33612D01*
X7809Y31711D01*
X7773Y31675D01*
X6227Y31675D01*
X6191Y31711D01*
X6191Y32471D01*
X6191Y32472D01*
X6191Y32473D01*
X6190Y32477D01*
X6190Y32481D01*
X6189Y32482D01*
X6189Y32483D01*
X6187Y32486D01*
X6185Y32489D01*
X6184Y32490D01*
X6184Y32491D01*
X6181Y32493D01*
X6178Y32496D01*
X6177Y32496D01*
X6176Y32497D01*
X6173Y32498D01*
X6169Y32500D01*
X6168Y32500D01*
X6167Y32500D01*
X6162Y32501D01*
X4169Y32501D01*
X4167Y32500D01*
X4165Y32500D01*
X4162Y32499D01*
X4159Y32499D01*
X4157Y32498D01*
X4156Y32497D01*
X4153Y32496D01*
X4151Y32494D01*
X4149Y32493D01*
X4148Y32492D01*
X4146Y32489D01*
X4144Y32487D01*
X4143Y32486D01*
X4142Y32484D01*
X4141Y32481D01*
X4140Y32479D01*
X4140Y32477D01*
X4140Y32475D01*
X4140Y32472D01*
X4139Y32469D01*
X4140Y32467D01*
X4140Y32465D01*
X4142Y32460D01*
X4225Y32258D01*
X4225Y31970D01*
X4115Y31703D01*
X3911Y31499D01*
X3644Y31389D01*
X3356Y31389D01*
G37*
%LPD*%
%LPC*%
G36*
X33376Y61875D02*
X33376Y61875D01*
X33146Y61970D01*
X32970Y62146D01*
X32875Y62376D01*
X32875Y62624D01*
X32970Y62854D01*
X33146Y63030D01*
X33376Y63125D01*
X33624Y63125D01*
X33854Y63030D01*
X34030Y62854D01*
X34103Y62678D01*
X34103Y62677D01*
X34105Y62673D01*
X34108Y62669D01*
X34111Y62666D01*
X34115Y62663D01*
X34120Y62662D01*
X34124Y62660D01*
X34130Y62659D01*
X34533Y62659D01*
X34533Y62660D01*
X34534Y62659D01*
X34538Y62660D01*
X34543Y62661D01*
X34547Y62663D01*
X34551Y62666D01*
X34555Y62669D01*
X34558Y62673D01*
X34560Y62678D01*
X34598Y62769D01*
X34731Y62902D01*
X34906Y62974D01*
X35094Y62974D01*
X35219Y62922D01*
X35220Y62922D01*
X35224Y62921D01*
X35229Y62920D01*
X35234Y62921D01*
X35238Y62921D01*
X35239Y62921D01*
X35243Y62923D01*
X35247Y62925D01*
X35251Y62929D01*
X35872Y63549D01*
X38340Y63549D01*
X38344Y63550D01*
X38348Y63551D01*
X38349Y63551D01*
X38350Y63551D01*
X38353Y63553D01*
X38357Y63555D01*
X38358Y63556D01*
X38359Y63556D01*
X38361Y63558D01*
X40942Y66139D01*
X43694Y66139D01*
X43694Y66140D01*
X43694Y66139D01*
X43699Y66140D01*
X43703Y66141D01*
X43708Y66143D01*
X43712Y66146D01*
X43715Y66149D01*
X43718Y66153D01*
X43721Y66158D01*
X43730Y66180D01*
X43820Y66270D01*
X43937Y66318D01*
X44063Y66318D01*
X44180Y66270D01*
X44270Y66180D01*
X44318Y66063D01*
X44318Y65937D01*
X44270Y65820D01*
X44180Y65730D01*
X44063Y65682D01*
X43937Y65682D01*
X43820Y65730D01*
X43730Y65820D01*
X43721Y65842D01*
X43721Y65843D01*
X43718Y65847D01*
X43716Y65851D01*
X43712Y65854D01*
X43708Y65857D01*
X43704Y65858D01*
X43699Y65860D01*
X43694Y65861D01*
X41070Y65861D01*
X41066Y65860D01*
X41062Y65859D01*
X41061Y65859D01*
X41060Y65859D01*
X41057Y65857D01*
X41053Y65855D01*
X41052Y65854D01*
X41051Y65854D01*
X41049Y65852D01*
X38468Y63271D01*
X36000Y63271D01*
X35996Y63270D01*
X35992Y63269D01*
X35991Y63269D01*
X35990Y63269D01*
X35987Y63267D01*
X35983Y63265D01*
X35982Y63264D01*
X35981Y63264D01*
X35979Y63262D01*
X35440Y62723D01*
X35437Y62719D01*
X35435Y62715D01*
X35433Y62711D01*
X35432Y62706D01*
X35432Y62701D01*
X35432Y62697D01*
X35432Y62696D01*
X35434Y62691D01*
X35474Y62594D01*
X35474Y62406D01*
X35402Y62231D01*
X35269Y62098D01*
X35094Y62026D01*
X34906Y62026D01*
X34731Y62098D01*
X34598Y62231D01*
X34544Y62362D01*
X34544Y62363D01*
X34541Y62367D01*
X34539Y62371D01*
X34535Y62374D01*
X34531Y62377D01*
X34527Y62378D01*
X34522Y62380D01*
X34517Y62381D01*
X34146Y62381D01*
X34146Y62380D01*
X34146Y62381D01*
X34141Y62380D01*
X34137Y62379D01*
X34133Y62377D01*
X34128Y62374D01*
X34125Y62371D01*
X34122Y62367D01*
X34119Y62362D01*
X34030Y62146D01*
X33854Y61970D01*
X33624Y61875D01*
X33376Y61875D01*
G37*
%LPD*%
%LPC*%
G36*
X3435Y71377D02*
X3435Y71377D01*
X3181Y71445D01*
X2952Y71577D01*
X2766Y71763D01*
X2634Y71992D01*
X2566Y72246D01*
X2566Y72510D01*
X2597Y72627D01*
X2605Y72656D01*
X2613Y72685D01*
X2634Y72764D01*
X2766Y72993D01*
X2952Y73179D01*
X3181Y73311D01*
X3435Y73379D01*
X3699Y73379D01*
X3953Y73311D01*
X4182Y73179D01*
X4368Y72993D01*
X4500Y72764D01*
X4568Y72510D01*
X4568Y72246D01*
X4557Y72203D01*
X4556Y72203D01*
X4549Y72174D01*
X4509Y72027D01*
X4502Y71998D01*
X4500Y71992D01*
X4368Y71763D01*
X4182Y71577D01*
X3953Y71445D01*
X3699Y71377D01*
X3435Y71377D01*
G37*
%LPD*%
%LPC*%
G36*
X23746Y33432D02*
X23746Y33432D01*
X23492Y33500D01*
X23263Y33632D01*
X23077Y33818D01*
X22945Y34047D01*
X22877Y34301D01*
X22877Y34565D01*
X22910Y34690D01*
X22918Y34719D01*
X22945Y34819D01*
X23077Y35048D01*
X23263Y35234D01*
X23492Y35366D01*
X23746Y35434D01*
X24010Y35434D01*
X24264Y35366D01*
X24493Y35234D01*
X24679Y35048D01*
X24811Y34819D01*
X24879Y34565D01*
X24879Y34301D01*
X24862Y34237D01*
X24854Y34208D01*
X24838Y34149D01*
X24815Y34062D01*
X24811Y34047D01*
X24679Y33818D01*
X24493Y33632D01*
X24264Y33500D01*
X24010Y33432D01*
X23746Y33432D01*
G37*
%LPD*%
%LPC*%
G36*
X48246Y32932D02*
X48246Y32932D01*
X47992Y33000D01*
X47763Y33132D01*
X47577Y33318D01*
X47445Y33547D01*
X47377Y33801D01*
X47377Y34065D01*
X47380Y34076D01*
X47388Y34105D01*
X47419Y34222D01*
X47427Y34251D01*
X47427Y34252D01*
X47435Y34281D01*
X47445Y34319D01*
X47577Y34548D01*
X47763Y34734D01*
X47992Y34866D01*
X48246Y34934D01*
X48510Y34934D01*
X48764Y34866D01*
X48993Y34734D01*
X49179Y34548D01*
X49311Y34319D01*
X49379Y34065D01*
X49379Y33801D01*
X49378Y33798D01*
X49370Y33769D01*
X49363Y33740D01*
X49331Y33623D01*
X49323Y33594D01*
X49316Y33564D01*
X49311Y33547D01*
X49179Y33318D01*
X48993Y33132D01*
X48764Y33000D01*
X48510Y32932D01*
X48246Y32932D01*
G37*
%LPD*%
%LPC*%
G36*
X38746Y32932D02*
X38746Y32932D01*
X38492Y33000D01*
X38263Y33132D01*
X38077Y33318D01*
X37945Y33547D01*
X37877Y33801D01*
X37877Y34065D01*
X37880Y34076D01*
X37888Y34105D01*
X37919Y34222D01*
X37927Y34251D01*
X37927Y34252D01*
X37935Y34281D01*
X37945Y34319D01*
X38077Y34548D01*
X38263Y34734D01*
X38492Y34866D01*
X38746Y34934D01*
X39010Y34934D01*
X39264Y34866D01*
X39493Y34734D01*
X39679Y34548D01*
X39811Y34319D01*
X39879Y34065D01*
X39879Y33801D01*
X39878Y33798D01*
X39870Y33769D01*
X39863Y33740D01*
X39831Y33623D01*
X39823Y33594D01*
X39816Y33564D01*
X39811Y33547D01*
X39679Y33318D01*
X39493Y33132D01*
X39264Y33000D01*
X39010Y32932D01*
X38746Y32932D01*
G37*
%LPD*%
%LPC*%
G36*
X26746Y69432D02*
X26746Y69432D01*
X26492Y69500D01*
X26263Y69632D01*
X26077Y69818D01*
X25945Y70047D01*
X25877Y70301D01*
X25877Y70565D01*
X25904Y70667D01*
X25912Y70696D01*
X25945Y70819D01*
X26077Y71048D01*
X26263Y71234D01*
X26492Y71366D01*
X26746Y71434D01*
X27010Y71434D01*
X27264Y71366D01*
X27493Y71234D01*
X27679Y71048D01*
X27811Y70819D01*
X27879Y70565D01*
X27879Y70301D01*
X27864Y70243D01*
X27856Y70214D01*
X27848Y70185D01*
X27817Y70068D01*
X27811Y70047D01*
X27679Y69818D01*
X27493Y69632D01*
X27264Y69500D01*
X27010Y69432D01*
X26746Y69432D01*
G37*
%LPD*%
%LPC*%
G36*
X35746Y69432D02*
X35746Y69432D01*
X35492Y69500D01*
X35263Y69632D01*
X35077Y69818D01*
X34945Y70047D01*
X34877Y70301D01*
X34877Y70565D01*
X34904Y70667D01*
X34912Y70696D01*
X34945Y70819D01*
X35077Y71048D01*
X35263Y71234D01*
X35492Y71366D01*
X35746Y71434D01*
X36010Y71434D01*
X36264Y71366D01*
X36493Y71234D01*
X36679Y71048D01*
X36811Y70819D01*
X36879Y70565D01*
X36879Y70301D01*
X36864Y70243D01*
X36856Y70214D01*
X36848Y70185D01*
X36817Y70068D01*
X36811Y70047D01*
X36679Y69818D01*
X36493Y69632D01*
X36264Y69500D01*
X36010Y69432D01*
X35746Y69432D01*
G37*
%LPD*%
%LPC*%
G36*
X17746Y69432D02*
X17746Y69432D01*
X17492Y69500D01*
X17263Y69632D01*
X17077Y69818D01*
X16945Y70047D01*
X16877Y70301D01*
X16877Y70565D01*
X16904Y70667D01*
X16912Y70696D01*
X16945Y70819D01*
X17077Y71048D01*
X17263Y71234D01*
X17492Y71366D01*
X17746Y71434D01*
X18010Y71434D01*
X18264Y71366D01*
X18493Y71234D01*
X18679Y71048D01*
X18811Y70819D01*
X18879Y70565D01*
X18879Y70301D01*
X18864Y70243D01*
X18856Y70214D01*
X18848Y70185D01*
X18817Y70068D01*
X18811Y70047D01*
X18679Y69818D01*
X18493Y69632D01*
X18264Y69500D01*
X18010Y69432D01*
X17746Y69432D01*
G37*
%LPD*%
%LPC*%
G36*
X3435Y62877D02*
X3435Y62877D01*
X3181Y62945D01*
X2952Y63077D01*
X2766Y63263D01*
X2634Y63492D01*
X2566Y63746D01*
X2566Y64010D01*
X2586Y64086D01*
X2594Y64115D01*
X2602Y64144D01*
X2633Y64261D01*
X2634Y64264D01*
X2766Y64493D01*
X2952Y64679D01*
X3181Y64811D01*
X3435Y64879D01*
X3699Y64879D01*
X3953Y64811D01*
X4182Y64679D01*
X4368Y64493D01*
X4500Y64264D01*
X4568Y64010D01*
X4568Y63746D01*
X4546Y63662D01*
X4538Y63633D01*
X4500Y63492D01*
X4368Y63263D01*
X4182Y63077D01*
X3953Y62945D01*
X3699Y62877D01*
X3435Y62877D01*
G37*
%LPD*%
%LPC*%
G36*
X46435Y48377D02*
X46435Y48377D01*
X46181Y48445D01*
X45952Y48577D01*
X45766Y48763D01*
X45634Y48992D01*
X45566Y49246D01*
X45566Y49510D01*
X45592Y49607D01*
X45600Y49637D01*
X45608Y49666D01*
X45634Y49764D01*
X45766Y49993D01*
X45952Y50179D01*
X46181Y50311D01*
X46435Y50379D01*
X46699Y50379D01*
X46953Y50311D01*
X47182Y50179D01*
X47368Y49993D01*
X47500Y49764D01*
X47568Y49510D01*
X47568Y49246D01*
X47551Y49184D01*
X47543Y49154D01*
X47536Y49125D01*
X47504Y49008D01*
X47500Y48992D01*
X47368Y48763D01*
X47182Y48577D01*
X46953Y48445D01*
X46699Y48377D01*
X46435Y48377D01*
G37*
%LPD*%
%LPC*%
G36*
X3435Y44877D02*
X3435Y44877D01*
X3181Y44945D01*
X2952Y45077D01*
X2766Y45263D01*
X2634Y45492D01*
X2566Y45746D01*
X2566Y46010D01*
X2589Y46098D01*
X2597Y46127D01*
X2605Y46156D01*
X2634Y46264D01*
X2766Y46493D01*
X2952Y46679D01*
X3181Y46811D01*
X3435Y46879D01*
X3699Y46879D01*
X3953Y46811D01*
X4182Y46679D01*
X4368Y46493D01*
X4500Y46264D01*
X4568Y46010D01*
X4568Y45746D01*
X4549Y45674D01*
X4541Y45644D01*
X4533Y45615D01*
X4502Y45498D01*
X4500Y45492D01*
X4368Y45263D01*
X4182Y45077D01*
X3953Y44945D01*
X3699Y44877D01*
X3435Y44877D01*
G37*
%LPD*%
%LPC*%
G36*
X3435Y53877D02*
X3435Y53877D01*
X3181Y53945D01*
X2952Y54077D01*
X2766Y54263D01*
X2634Y54492D01*
X2566Y54746D01*
X2566Y55010D01*
X2592Y55106D01*
X2600Y55136D01*
X2634Y55264D01*
X2766Y55493D01*
X2952Y55679D01*
X3181Y55811D01*
X3435Y55879D01*
X3699Y55879D01*
X3953Y55811D01*
X4182Y55679D01*
X4368Y55493D01*
X4500Y55264D01*
X4568Y55010D01*
X4568Y54746D01*
X4551Y54683D01*
X4543Y54653D01*
X4535Y54624D01*
X4504Y54507D01*
X4500Y54492D01*
X4368Y54263D01*
X4182Y54077D01*
X3953Y53945D01*
X3699Y53877D01*
X3435Y53877D01*
G37*
%LPD*%
%LPC*%
G36*
X2935Y35877D02*
X2935Y35877D01*
X2681Y35945D01*
X2452Y36077D01*
X2266Y36263D01*
X2134Y36492D01*
X2066Y36746D01*
X2066Y37010D01*
X2095Y37118D01*
X2103Y37147D01*
X2134Y37264D01*
X2266Y37493D01*
X2452Y37679D01*
X2681Y37811D01*
X2935Y37879D01*
X3199Y37879D01*
X3453Y37811D01*
X3682Y37679D01*
X3868Y37493D01*
X4000Y37264D01*
X4068Y37010D01*
X4068Y36746D01*
X4046Y36665D01*
X4038Y36636D01*
X4000Y36492D01*
X3868Y36263D01*
X3682Y36077D01*
X3453Y35945D01*
X3199Y35877D01*
X2935Y35877D01*
G37*
%LPD*%
%LPC*%
G36*
X42506Y68603D02*
X42506Y68603D01*
X42343Y68670D01*
X42218Y68795D01*
X42150Y68959D01*
X42150Y69136D01*
X42218Y69299D01*
X42343Y69424D01*
X42506Y69492D01*
X42683Y69492D01*
X42846Y69424D01*
X42971Y69299D01*
X43005Y69218D01*
X43005Y69217D01*
X43008Y69213D01*
X43010Y69209D01*
X43014Y69206D01*
X43018Y69203D01*
X43022Y69202D01*
X43027Y69200D01*
X43032Y69199D01*
X45470Y69199D01*
X45474Y69200D01*
X45478Y69201D01*
X45479Y69201D01*
X45480Y69201D01*
X45483Y69203D01*
X45487Y69205D01*
X45488Y69206D01*
X45489Y69206D01*
X45491Y69208D01*
X48082Y71800D01*
X48085Y71804D01*
X48088Y71807D01*
X48088Y71808D01*
X48089Y71812D01*
X48091Y71816D01*
X48091Y71817D01*
X48090Y71821D01*
X48090Y71826D01*
X48089Y71831D01*
X48055Y71912D01*
X48055Y72088D01*
X48123Y72252D01*
X48248Y72377D01*
X48412Y72445D01*
X48588Y72445D01*
X48752Y72377D01*
X48877Y72252D01*
X48945Y72088D01*
X48945Y71912D01*
X48877Y71748D01*
X48752Y71623D01*
X48588Y71555D01*
X48412Y71555D01*
X48303Y71600D01*
X48298Y71601D01*
X48294Y71602D01*
X48289Y71602D01*
X48284Y71602D01*
X48284Y71601D01*
X48280Y71600D01*
X48276Y71598D01*
X48275Y71597D01*
X48271Y71594D01*
X45598Y68921D01*
X43043Y68921D01*
X43043Y68920D01*
X43043Y68921D01*
X43038Y68920D01*
X43033Y68919D01*
X43029Y68917D01*
X43025Y68914D01*
X43022Y68911D01*
X43018Y68907D01*
X43016Y68902D01*
X42971Y68795D01*
X42846Y68670D01*
X42683Y68603D01*
X42506Y68603D01*
G37*
%LPD*%
%LPC*%
G36*
X10193Y30244D02*
X10193Y30244D01*
X10157Y30280D01*
X10157Y30920D01*
X10193Y30956D01*
X10305Y30956D01*
X10306Y30956D01*
X10307Y30956D01*
X10311Y30957D01*
X10315Y30958D01*
X10316Y30958D01*
X10317Y30958D01*
X10320Y30960D01*
X10323Y30962D01*
X10324Y30963D01*
X10325Y30963D01*
X10327Y30966D01*
X10330Y30969D01*
X10330Y30970D01*
X10331Y30971D01*
X10332Y30974D01*
X10334Y30978D01*
X10334Y30979D01*
X10334Y30980D01*
X10335Y30985D01*
X10335Y35004D01*
X10334Y35009D01*
X10333Y35013D01*
X10331Y35018D01*
X10328Y35022D01*
X10325Y35025D01*
X10321Y35028D01*
X10316Y35031D01*
X10215Y35073D01*
X10073Y35215D01*
X9996Y35400D01*
X9996Y35600D01*
X10073Y35785D01*
X10215Y35927D01*
X10400Y36004D01*
X10600Y36004D01*
X10785Y35927D01*
X10927Y35785D01*
X11004Y35600D01*
X11004Y35400D01*
X10927Y35215D01*
X10785Y35073D01*
X10632Y35009D01*
X10631Y35009D01*
X10627Y35007D01*
X10623Y35004D01*
X10620Y35001D01*
X10617Y34997D01*
X10616Y34992D01*
X10614Y34988D01*
X10614Y34982D01*
X10614Y30985D01*
X10614Y30984D01*
X10614Y30983D01*
X10614Y30980D01*
X10615Y30976D01*
X10616Y30975D01*
X10616Y30974D01*
X10618Y30971D01*
X10620Y30967D01*
X10621Y30966D01*
X10624Y30963D01*
X10627Y30961D01*
X10628Y30960D01*
X10632Y30959D01*
X10635Y30957D01*
X10636Y30957D01*
X10637Y30957D01*
X10643Y30956D01*
X10755Y30956D01*
X10791Y30920D01*
X10791Y30280D01*
X10755Y30244D01*
X10193Y30244D01*
G37*
%LPD*%
%LPC*%
G36*
X46856Y43889D02*
X46856Y43889D01*
X46589Y43999D01*
X46385Y44203D01*
X46275Y44470D01*
X46275Y44758D01*
X46385Y45025D01*
X46589Y45229D01*
X46856Y45339D01*
X47144Y45339D01*
X47411Y45229D01*
X47615Y45025D01*
X47725Y44758D01*
X47725Y44470D01*
X47615Y44203D01*
X47411Y43999D01*
X47144Y43889D01*
X46856Y43889D01*
G37*
%LPD*%
%LPC*%
G36*
X43470Y32775D02*
X43470Y32775D01*
X43203Y32885D01*
X42999Y33089D01*
X42889Y33356D01*
X42889Y33644D01*
X42999Y33911D01*
X43203Y34115D01*
X43470Y34225D01*
X43758Y34225D01*
X44025Y34115D01*
X44229Y33911D01*
X44339Y33644D01*
X44339Y33356D01*
X44229Y33089D01*
X44025Y32885D01*
X43758Y32775D01*
X43470Y32775D01*
G37*
%LPD*%
%LPC*%
G36*
X33970Y32775D02*
X33970Y32775D01*
X33703Y32885D01*
X33499Y33089D01*
X33389Y33356D01*
X33389Y33644D01*
X33499Y33911D01*
X33703Y34115D01*
X33970Y34225D01*
X34258Y34225D01*
X34525Y34115D01*
X34729Y33911D01*
X34839Y33644D01*
X34839Y33356D01*
X34729Y33089D01*
X34525Y32885D01*
X34258Y32775D01*
X33970Y32775D01*
G37*
%LPD*%
%LPC*%
G36*
X12368Y34996D02*
X12368Y34996D01*
X12183Y35073D01*
X12042Y35215D01*
X11965Y35400D01*
X11965Y35600D01*
X12042Y35785D01*
X12183Y35927D01*
X12368Y36004D01*
X12569Y36004D01*
X12754Y35927D01*
X12895Y35785D01*
X12972Y35600D01*
X12972Y35400D01*
X12895Y35215D01*
X12754Y35073D01*
X12569Y34996D01*
X12368Y34996D01*
G37*
%LPD*%
%LPC*%
G36*
X12368Y33028D02*
X12368Y33028D01*
X12183Y33105D01*
X12042Y33246D01*
X11965Y33431D01*
X11965Y33632D01*
X12042Y33817D01*
X12183Y33958D01*
X12368Y34035D01*
X12569Y34035D01*
X12754Y33958D01*
X12895Y33817D01*
X12972Y33632D01*
X12972Y33431D01*
X12895Y33246D01*
X12754Y33105D01*
X12569Y33028D01*
X12368Y33028D01*
G37*
%LPD*%
%LPC*%
G36*
X39406Y42026D02*
X39406Y42026D01*
X39231Y42098D01*
X39098Y42231D01*
X39026Y42406D01*
X39026Y42594D01*
X39098Y42769D01*
X39231Y42902D01*
X39406Y42974D01*
X39594Y42974D01*
X39769Y42902D01*
X39902Y42769D01*
X39974Y42594D01*
X39974Y42406D01*
X39902Y42231D01*
X39769Y42098D01*
X39594Y42026D01*
X39406Y42026D01*
G37*
%LPD*%
%LPC*%
G36*
X36406Y62026D02*
X36406Y62026D01*
X36231Y62098D01*
X36098Y62231D01*
X36026Y62406D01*
X36026Y62594D01*
X36098Y62769D01*
X36231Y62902D01*
X36406Y62974D01*
X36594Y62974D01*
X36769Y62902D01*
X36902Y62769D01*
X36974Y62594D01*
X36974Y62406D01*
X36902Y62231D01*
X36769Y62098D01*
X36594Y62026D01*
X36406Y62026D01*
G37*
%LPD*%
%LPC*%
G36*
X19406Y62026D02*
X19406Y62026D01*
X19231Y62098D01*
X19098Y62231D01*
X19026Y62406D01*
X19026Y62594D01*
X19098Y62769D01*
X19231Y62902D01*
X19406Y62974D01*
X19594Y62974D01*
X19769Y62902D01*
X19902Y62769D01*
X19974Y62594D01*
X19974Y62406D01*
X19902Y62231D01*
X19769Y62098D01*
X19594Y62026D01*
X19406Y62026D01*
G37*
%LPD*%
%LPC*%
G36*
X38569Y71555D02*
X38569Y71555D01*
X38406Y71623D01*
X38281Y71748D01*
X38213Y71912D01*
X38213Y72088D01*
X38281Y72252D01*
X38406Y72377D01*
X38569Y72445D01*
X38746Y72445D01*
X38909Y72377D01*
X39034Y72252D01*
X39102Y72088D01*
X39102Y71912D01*
X39034Y71748D01*
X38909Y71623D01*
X38746Y71555D01*
X38569Y71555D01*
G37*
%LPD*%
%LPC*%
G36*
X42506Y71555D02*
X42506Y71555D01*
X42343Y71623D01*
X42218Y71748D01*
X42150Y71912D01*
X42150Y72088D01*
X42218Y72252D01*
X42343Y72377D01*
X42506Y72445D01*
X42683Y72445D01*
X42846Y72377D01*
X42971Y72252D01*
X43039Y72088D01*
X43039Y71912D01*
X42971Y71748D01*
X42846Y71623D01*
X42683Y71555D01*
X42506Y71555D01*
G37*
%LPD*%
%LPC*%
G36*
X40538Y71555D02*
X40538Y71555D01*
X40374Y71623D01*
X40249Y71748D01*
X40181Y71912D01*
X40181Y72088D01*
X40249Y72252D01*
X40374Y72377D01*
X40538Y72445D01*
X40714Y72445D01*
X40878Y72377D01*
X41003Y72252D01*
X41071Y72088D01*
X41071Y71912D01*
X41003Y71748D01*
X40878Y71623D01*
X40714Y71555D01*
X40538Y71555D01*
G37*
%LPD*%
%LPC*%
G36*
X48412Y68603D02*
X48412Y68603D01*
X48248Y68670D01*
X48123Y68795D01*
X48055Y68959D01*
X48055Y69136D01*
X48123Y69299D01*
X48248Y69424D01*
X48412Y69492D01*
X48588Y69492D01*
X48752Y69424D01*
X48877Y69299D01*
X48945Y69136D01*
X48945Y68959D01*
X48877Y68795D01*
X48752Y68670D01*
X48588Y68603D01*
X48412Y68603D01*
G37*
%LPD*%
%LPC*%
G36*
X40538Y68603D02*
X40538Y68603D01*
X40374Y68670D01*
X40249Y68795D01*
X40181Y68959D01*
X40181Y69136D01*
X40249Y69299D01*
X40374Y69424D01*
X40538Y69492D01*
X40714Y69492D01*
X40878Y69424D01*
X41003Y69299D01*
X41071Y69136D01*
X41071Y68959D01*
X41003Y68795D01*
X40878Y68670D01*
X40714Y68603D01*
X40538Y68603D01*
G37*
%LPD*%
%LPC*%
G36*
X38569Y68603D02*
X38569Y68603D01*
X38406Y68670D01*
X38281Y68795D01*
X38213Y68959D01*
X38213Y69136D01*
X38281Y69299D01*
X38406Y69424D01*
X38569Y69492D01*
X38746Y69492D01*
X38909Y69424D01*
X39034Y69299D01*
X39102Y69136D01*
X39102Y68959D01*
X39034Y68795D01*
X38909Y68670D01*
X38746Y68603D01*
X38569Y68603D01*
G37*
%LPD*%
%LPC*%
G36*
X20988Y34059D02*
X20988Y34059D01*
X21000Y34150D01*
X21004Y34164D01*
X21026Y34246D01*
X21064Y34339D01*
X21114Y34426D01*
X21175Y34506D01*
X21246Y34576D01*
X21326Y34638D01*
X21413Y34688D01*
X21506Y34726D01*
X21602Y34752D01*
X21693Y34764D01*
X21693Y34059D01*
X20988Y34059D01*
G37*
%LPD*%
%LPC*%
G36*
X3236Y70311D02*
X3236Y70311D01*
X3248Y70402D01*
X3249Y70404D01*
X3274Y70498D01*
X3312Y70591D01*
X3362Y70678D01*
X3424Y70758D01*
X3494Y70828D01*
X3574Y70890D01*
X3661Y70940D01*
X3754Y70978D01*
X3850Y71004D01*
X3941Y71016D01*
X3941Y70311D01*
X3236Y70311D01*
G37*
%LPD*%
%LPC*%
G36*
X14988Y70059D02*
X14988Y70059D01*
X15000Y70150D01*
X15026Y70246D01*
X15064Y70339D01*
X15114Y70426D01*
X15175Y70506D01*
X15246Y70576D01*
X15306Y70622D01*
X15326Y70638D01*
X15413Y70688D01*
X15506Y70726D01*
X15602Y70752D01*
X15693Y70764D01*
X15693Y70059D01*
X14988Y70059D01*
G37*
%LPD*%
%LPC*%
G36*
X32988Y70059D02*
X32988Y70059D01*
X33000Y70150D01*
X33026Y70246D01*
X33064Y70339D01*
X33114Y70426D01*
X33175Y70506D01*
X33246Y70576D01*
X33306Y70622D01*
X33326Y70638D01*
X33413Y70688D01*
X33506Y70726D01*
X33602Y70752D01*
X33693Y70764D01*
X33693Y70059D01*
X32988Y70059D01*
G37*
%LPD*%
%LPC*%
G36*
X23988Y70059D02*
X23988Y70059D01*
X24000Y70150D01*
X24026Y70246D01*
X24064Y70339D01*
X24114Y70426D01*
X24175Y70506D01*
X24246Y70576D01*
X24306Y70622D01*
X24326Y70638D01*
X24413Y70688D01*
X24506Y70726D01*
X24602Y70752D01*
X24693Y70764D01*
X24693Y70059D01*
X23988Y70059D01*
G37*
%LPD*%
%LPC*%
G36*
X4059Y70193D02*
X4059Y70193D01*
X4764Y70193D01*
X4752Y70102D01*
X4743Y70068D01*
X4726Y70006D01*
X4688Y69913D01*
X4638Y69826D01*
X4576Y69746D01*
X4506Y69675D01*
X4426Y69614D01*
X4339Y69564D01*
X4246Y69526D01*
X4150Y69500D01*
X4059Y69488D01*
X4059Y70193D01*
G37*
%LPD*%
%LPC*%
G36*
X24811Y69941D02*
X24811Y69941D01*
X25516Y69941D01*
X25504Y69850D01*
X25492Y69805D01*
X25492Y69804D01*
X25478Y69754D01*
X25440Y69661D01*
X25390Y69574D01*
X25328Y69494D01*
X25258Y69424D01*
X25178Y69362D01*
X25091Y69312D01*
X24998Y69274D01*
X24902Y69248D01*
X24811Y69236D01*
X24811Y69941D01*
G37*
%LPD*%
%LPC*%
G36*
X15811Y69941D02*
X15811Y69941D01*
X16516Y69941D01*
X16504Y69850D01*
X16492Y69805D01*
X16492Y69804D01*
X16478Y69754D01*
X16440Y69661D01*
X16390Y69574D01*
X16328Y69494D01*
X16258Y69424D01*
X16178Y69362D01*
X16091Y69312D01*
X15998Y69274D01*
X15902Y69248D01*
X15811Y69236D01*
X15811Y69941D01*
G37*
%LPD*%
%LPC*%
G36*
X33811Y69941D02*
X33811Y69941D01*
X34516Y69941D01*
X34504Y69850D01*
X34492Y69805D01*
X34492Y69804D01*
X34478Y69754D01*
X34440Y69661D01*
X34390Y69574D01*
X34328Y69494D01*
X34258Y69424D01*
X34178Y69362D01*
X34091Y69312D01*
X33998Y69274D01*
X33902Y69248D01*
X33811Y69236D01*
X33811Y69941D01*
G37*
%LPD*%
%LPC*%
G36*
X3850Y61000D02*
X3850Y61000D01*
X3754Y61026D01*
X3661Y61064D01*
X3574Y61114D01*
X3494Y61175D01*
X3424Y61246D01*
X3362Y61326D01*
X3312Y61413D01*
X3274Y61506D01*
X3248Y61602D01*
X3236Y61693D01*
X3941Y61693D01*
X3941Y60988D01*
X3850Y61000D01*
G37*
%LPD*%
%LPC*%
G36*
X15811Y70059D02*
X15811Y70059D01*
X15811Y70764D01*
X15902Y70752D01*
X15998Y70726D01*
X16091Y70688D01*
X16178Y70638D01*
X16258Y70576D01*
X16328Y70506D01*
X16390Y70426D01*
X16440Y70339D01*
X16478Y70246D01*
X16504Y70150D01*
X16516Y70059D01*
X15811Y70059D01*
G37*
%LPD*%
%LPC*%
G36*
X15602Y69248D02*
X15602Y69248D01*
X15506Y69274D01*
X15413Y69312D01*
X15326Y69362D01*
X15246Y69424D01*
X15175Y69494D01*
X15114Y69574D01*
X15064Y69661D01*
X15026Y69754D01*
X15000Y69850D01*
X14988Y69941D01*
X15693Y69941D01*
X15693Y69236D01*
X15602Y69248D01*
G37*
%LPD*%
%LPC*%
G36*
X4059Y43811D02*
X4059Y43811D01*
X4059Y44516D01*
X4150Y44504D01*
X4246Y44478D01*
X4339Y44440D01*
X4426Y44390D01*
X4506Y44328D01*
X4576Y44258D01*
X4638Y44178D01*
X4688Y44091D01*
X4726Y43998D01*
X4752Y43902D01*
X4764Y43811D01*
X4059Y43811D01*
G37*
%LPD*%
%LPC*%
G36*
X24811Y70059D02*
X24811Y70059D01*
X24811Y70764D01*
X24902Y70752D01*
X24998Y70726D01*
X25091Y70688D01*
X25178Y70638D01*
X25258Y70576D01*
X25328Y70506D01*
X25390Y70426D01*
X25440Y70339D01*
X25478Y70246D01*
X25504Y70150D01*
X25516Y70059D01*
X24811Y70059D01*
G37*
%LPD*%
%LPC*%
G36*
X3850Y52000D02*
X3850Y52000D01*
X3754Y52026D01*
X3661Y52064D01*
X3574Y52114D01*
X3494Y52175D01*
X3424Y52246D01*
X3362Y52326D01*
X3312Y52413D01*
X3274Y52506D01*
X3248Y52602D01*
X3236Y52693D01*
X3941Y52693D01*
X3941Y51988D01*
X3850Y52000D01*
G37*
%LPD*%
%LPC*%
G36*
X3559Y34811D02*
X3559Y34811D01*
X3559Y35516D01*
X3650Y35504D01*
X3746Y35478D01*
X3839Y35440D01*
X3926Y35390D01*
X4006Y35328D01*
X4076Y35258D01*
X4138Y35178D01*
X4188Y35091D01*
X4226Y34998D01*
X4252Y34902D01*
X4264Y34811D01*
X3559Y34811D01*
G37*
%LPD*%
%LPC*%
G36*
X4059Y52811D02*
X4059Y52811D01*
X4059Y53516D01*
X4150Y53504D01*
X4246Y53478D01*
X4339Y53440D01*
X4426Y53390D01*
X4506Y53328D01*
X4576Y53258D01*
X4638Y53178D01*
X4688Y53091D01*
X4726Y52998D01*
X4752Y52902D01*
X4764Y52811D01*
X4059Y52811D01*
G37*
%LPD*%
%LPC*%
G36*
X4059Y70311D02*
X4059Y70311D01*
X4059Y71016D01*
X4150Y71004D01*
X4246Y70978D01*
X4339Y70940D01*
X4426Y70890D01*
X4506Y70828D01*
X4576Y70758D01*
X4638Y70678D01*
X4688Y70591D01*
X4726Y70498D01*
X4752Y70402D01*
X4764Y70311D01*
X4059Y70311D01*
G37*
%LPD*%
%LPC*%
G36*
X33811Y70059D02*
X33811Y70059D01*
X33811Y70764D01*
X33902Y70752D01*
X33998Y70726D01*
X34091Y70688D01*
X34178Y70638D01*
X34258Y70576D01*
X34328Y70506D01*
X34390Y70426D01*
X34440Y70339D01*
X34478Y70246D01*
X34504Y70150D01*
X34516Y70059D01*
X33811Y70059D01*
G37*
%LPD*%
%LPC*%
G36*
X4059Y61811D02*
X4059Y61811D01*
X4059Y62516D01*
X4150Y62504D01*
X4246Y62478D01*
X4339Y62440D01*
X4426Y62390D01*
X4506Y62328D01*
X4576Y62258D01*
X4638Y62178D01*
X4688Y62091D01*
X4726Y61998D01*
X4752Y61902D01*
X4764Y61811D01*
X4059Y61811D01*
G37*
%LPD*%
%LPC*%
G36*
X21811Y34059D02*
X21811Y34059D01*
X21811Y34764D01*
X21902Y34752D01*
X21998Y34726D01*
X22091Y34688D01*
X22178Y34638D01*
X22258Y34576D01*
X22328Y34506D01*
X22390Y34426D01*
X22440Y34339D01*
X22478Y34246D01*
X22504Y34150D01*
X22516Y34059D01*
X21811Y34059D01*
G37*
%LPD*%
%LPC*%
G36*
X3350Y34000D02*
X3350Y34000D01*
X3254Y34026D01*
X3161Y34064D01*
X3074Y34114D01*
X2994Y34175D01*
X2924Y34246D01*
X2862Y34326D01*
X2812Y34413D01*
X2774Y34506D01*
X2748Y34602D01*
X2736Y34693D01*
X3441Y34693D01*
X3441Y33988D01*
X3350Y34000D01*
G37*
%LPD*%
%LPC*%
G36*
X36811Y33559D02*
X36811Y33559D01*
X36811Y34264D01*
X36902Y34252D01*
X36998Y34226D01*
X37091Y34188D01*
X37178Y34138D01*
X37258Y34076D01*
X37328Y34006D01*
X37390Y33926D01*
X37440Y33839D01*
X37478Y33746D01*
X37504Y33650D01*
X37516Y33559D01*
X36811Y33559D01*
G37*
%LPD*%
%LPC*%
G36*
X3850Y69500D02*
X3850Y69500D01*
X3754Y69526D01*
X3661Y69564D01*
X3574Y69614D01*
X3494Y69675D01*
X3424Y69746D01*
X3362Y69826D01*
X3312Y69913D01*
X3274Y70006D01*
X3248Y70102D01*
X3236Y70193D01*
X3941Y70193D01*
X3941Y69488D01*
X3850Y69500D01*
G37*
%LPD*%
%LPC*%
G36*
X3850Y43000D02*
X3850Y43000D01*
X3754Y43026D01*
X3661Y43064D01*
X3574Y43114D01*
X3494Y43175D01*
X3424Y43246D01*
X3362Y43326D01*
X3312Y43413D01*
X3274Y43506D01*
X3248Y43602D01*
X3236Y43693D01*
X3941Y43693D01*
X3941Y42988D01*
X3850Y43000D01*
G37*
%LPD*%
%LPC*%
G36*
X24602Y69248D02*
X24602Y69248D01*
X24506Y69274D01*
X24413Y69312D01*
X24326Y69362D01*
X24246Y69424D01*
X24175Y69494D01*
X24114Y69574D01*
X24064Y69661D01*
X24026Y69754D01*
X24000Y69850D01*
X23988Y69941D01*
X24693Y69941D01*
X24693Y69236D01*
X24602Y69248D01*
G37*
%LPD*%
%LPC*%
G36*
X21602Y33248D02*
X21602Y33248D01*
X21506Y33274D01*
X21413Y33312D01*
X21326Y33362D01*
X21246Y33424D01*
X21175Y33494D01*
X21114Y33574D01*
X21064Y33661D01*
X21026Y33754D01*
X21000Y33850D01*
X20988Y33941D01*
X21693Y33941D01*
X21693Y33236D01*
X21602Y33248D01*
G37*
%LPD*%
%LPC*%
G36*
X33602Y69248D02*
X33602Y69248D01*
X33506Y69274D01*
X33413Y69312D01*
X33326Y69362D01*
X33246Y69424D01*
X33175Y69494D01*
X33114Y69574D01*
X33064Y69661D01*
X33026Y69754D01*
X33000Y69850D01*
X32988Y69941D01*
X33693Y69941D01*
X33693Y69236D01*
X33602Y69248D01*
G37*
%LPD*%
%LPC*%
G36*
X36602Y32748D02*
X36602Y32748D01*
X36506Y32774D01*
X36413Y32812D01*
X36326Y32862D01*
X36246Y32924D01*
X36175Y32994D01*
X36114Y33074D01*
X36064Y33161D01*
X36026Y33254D01*
X36000Y33350D01*
X35988Y33441D01*
X36693Y33441D01*
X36693Y32736D01*
X36602Y32748D01*
G37*
%LPD*%
%LPC*%
G36*
X4059Y43693D02*
X4059Y43693D01*
X4764Y43693D01*
X4752Y43602D01*
X4735Y43538D01*
X4726Y43506D01*
X4688Y43413D01*
X4638Y43326D01*
X4576Y43246D01*
X4506Y43175D01*
X4426Y43114D01*
X4339Y43064D01*
X4246Y43026D01*
X4150Y43000D01*
X4059Y42988D01*
X4059Y43693D01*
G37*
%LPD*%
%LPC*%
G36*
X3559Y34693D02*
X3559Y34693D01*
X4264Y34693D01*
X4252Y34602D01*
X4240Y34559D01*
X4233Y34530D01*
X4226Y34506D01*
X4188Y34413D01*
X4138Y34326D01*
X4076Y34246D01*
X4006Y34175D01*
X3926Y34114D01*
X3839Y34064D01*
X3746Y34026D01*
X3650Y34000D01*
X3559Y33988D01*
X3559Y34693D01*
G37*
%LPD*%
%LPC*%
G36*
X36811Y33441D02*
X36811Y33441D01*
X37516Y33441D01*
X37504Y33350D01*
X37499Y33330D01*
X37478Y33254D01*
X37440Y33161D01*
X37390Y33074D01*
X37328Y32994D01*
X37258Y32924D01*
X37236Y32907D01*
X37178Y32862D01*
X37091Y32812D01*
X36998Y32774D01*
X36902Y32748D01*
X36811Y32736D01*
X36811Y33441D01*
G37*
%LPD*%
%LPC*%
G36*
X4059Y61693D02*
X4059Y61693D01*
X4764Y61693D01*
X4752Y61602D01*
X4740Y61556D01*
X4732Y61527D01*
X4726Y61506D01*
X4688Y61413D01*
X4638Y61326D01*
X4576Y61246D01*
X4506Y61175D01*
X4488Y61162D01*
X4450Y61133D01*
X4426Y61114D01*
X4339Y61064D01*
X4246Y61026D01*
X4150Y61000D01*
X4059Y60988D01*
X4059Y61693D01*
G37*
%LPD*%
%LPC*%
G36*
X35988Y33559D02*
X35988Y33559D01*
X36000Y33650D01*
X36004Y33667D01*
X36012Y33696D01*
X36026Y33746D01*
X36064Y33839D01*
X36114Y33926D01*
X36175Y34006D01*
X36246Y34076D01*
X36326Y34138D01*
X36413Y34188D01*
X36506Y34226D01*
X36602Y34252D01*
X36693Y34264D01*
X36693Y33559D01*
X35988Y33559D01*
G37*
%LPD*%
%LPC*%
G36*
X3236Y61811D02*
X3236Y61811D01*
X3248Y61902D01*
X3269Y61980D01*
X3274Y61998D01*
X3312Y62091D01*
X3362Y62178D01*
X3424Y62258D01*
X3494Y62328D01*
X3574Y62390D01*
X3661Y62440D01*
X3754Y62478D01*
X3850Y62504D01*
X3941Y62516D01*
X3941Y61811D01*
X3236Y61811D01*
G37*
%LPD*%
%LPC*%
G36*
X21811Y33941D02*
X21811Y33941D01*
X22516Y33941D01*
X22504Y33850D01*
X22498Y33828D01*
X22490Y33798D01*
X22478Y33754D01*
X22440Y33661D01*
X22390Y33574D01*
X22328Y33494D01*
X22258Y33424D01*
X22233Y33405D01*
X22178Y33362D01*
X22091Y33312D01*
X21998Y33274D01*
X21902Y33248D01*
X21811Y33236D01*
X21811Y33941D01*
G37*
%LPD*%
%LPC*%
G36*
X3236Y52811D02*
X3236Y52811D01*
X3248Y52902D01*
X3267Y52971D01*
X3274Y52998D01*
X3312Y53091D01*
X3362Y53178D01*
X3424Y53258D01*
X3494Y53328D01*
X3574Y53390D01*
X3661Y53440D01*
X3754Y53478D01*
X3850Y53504D01*
X3941Y53516D01*
X3941Y52811D01*
X3236Y52811D01*
G37*
%LPD*%
%LPC*%
G36*
X3236Y43811D02*
X3236Y43811D01*
X3248Y43902D01*
X3272Y43992D01*
X3274Y43998D01*
X3312Y44091D01*
X3362Y44178D01*
X3424Y44258D01*
X3494Y44328D01*
X3569Y44385D01*
X3574Y44390D01*
X3661Y44440D01*
X3754Y44478D01*
X3850Y44504D01*
X3941Y44516D01*
X3941Y43811D01*
X3236Y43811D01*
G37*
%LPD*%
%LPC*%
G36*
X4059Y52693D02*
X4059Y52693D01*
X4764Y52693D01*
X4752Y52602D01*
X4737Y52547D01*
X4729Y52518D01*
X4726Y52506D01*
X4688Y52413D01*
X4638Y52326D01*
X4576Y52246D01*
X4506Y52175D01*
X4439Y52124D01*
X4426Y52114D01*
X4339Y52064D01*
X4246Y52026D01*
X4150Y52000D01*
X4059Y51988D01*
X4059Y52693D01*
G37*
%LPD*%
%LPC*%
G36*
X2736Y34811D02*
X2736Y34811D01*
X2748Y34902D01*
X2770Y34983D01*
X2774Y34998D01*
X2812Y35091D01*
X2862Y35178D01*
X2924Y35258D01*
X2994Y35328D01*
X3019Y35347D01*
X3057Y35376D01*
X3074Y35390D01*
X3161Y35440D01*
X3254Y35478D01*
X3350Y35504D01*
X3441Y35516D01*
X3441Y34811D01*
X2736Y34811D01*
G37*
%LPD*%
%LPC*%
G36*
X37437Y37182D02*
X37437Y37182D01*
X37320Y37230D01*
X37230Y37320D01*
X37182Y37437D01*
X37182Y37563D01*
X37230Y37680D01*
X37320Y37770D01*
X37437Y37818D01*
X37563Y37818D01*
X37680Y37770D01*
X37770Y37680D01*
X37818Y37563D01*
X37818Y37437D01*
X37770Y37320D01*
X37680Y37230D01*
X37563Y37182D01*
X37437Y37182D01*
G37*
%LPD*%
%LPC*%
G36*
X46437Y57682D02*
X46437Y57682D01*
X46320Y57730D01*
X46230Y57820D01*
X46182Y57937D01*
X46182Y58063D01*
X46230Y58180D01*
X46320Y58270D01*
X46437Y58318D01*
X46563Y58318D01*
X46680Y58270D01*
X46770Y58180D01*
X46818Y58063D01*
X46818Y57937D01*
X46770Y57820D01*
X46680Y57730D01*
X46563Y57682D01*
X46437Y57682D01*
G37*
%LPD*%
%LPC*%
G36*
X38837Y62559D02*
X38837Y62559D01*
X38847Y62630D01*
X38853Y62653D01*
X38869Y62714D01*
X38903Y62795D01*
X38946Y62870D01*
X38999Y62939D01*
X39061Y63001D01*
X39130Y63054D01*
X39205Y63097D01*
X39286Y63131D01*
X39370Y63153D01*
X39441Y63163D01*
X39441Y62559D01*
X38837Y62559D01*
G37*
%LPD*%
%LPC*%
G36*
X21837Y62559D02*
X21837Y62559D01*
X21847Y62630D01*
X21853Y62653D01*
X21869Y62714D01*
X21903Y62795D01*
X21946Y62870D01*
X21999Y62939D01*
X22061Y63001D01*
X22130Y63054D01*
X22205Y63097D01*
X22286Y63131D01*
X22370Y63153D01*
X22441Y63163D01*
X22441Y62559D01*
X21837Y62559D01*
G37*
%LPD*%
%LPC*%
G36*
X39559Y62441D02*
X39559Y62441D01*
X40163Y62441D01*
X40153Y62370D01*
X40147Y62346D01*
X40131Y62286D01*
X40097Y62205D01*
X40054Y62130D01*
X40001Y62061D01*
X39939Y61999D01*
X39916Y61981D01*
X39870Y61946D01*
X39795Y61903D01*
X39714Y61869D01*
X39630Y61847D01*
X39559Y61837D01*
X39559Y62441D01*
G37*
%LPD*%
%LPC*%
G36*
X22559Y62441D02*
X22559Y62441D01*
X23163Y62441D01*
X23153Y62370D01*
X23147Y62346D01*
X23131Y62286D01*
X23097Y62205D01*
X23054Y62130D01*
X23001Y62061D01*
X22939Y61999D01*
X22916Y61981D01*
X22870Y61946D01*
X22795Y61903D01*
X22714Y61869D01*
X22630Y61847D01*
X22559Y61837D01*
X22559Y62441D01*
G37*
%LPD*%
%LPC*%
G36*
X39559Y62559D02*
X39559Y62559D01*
X39559Y63163D01*
X39630Y63153D01*
X39714Y63131D01*
X39795Y63097D01*
X39870Y63054D01*
X39939Y63001D01*
X40001Y62939D01*
X40054Y62870D01*
X40097Y62795D01*
X40131Y62714D01*
X40153Y62630D01*
X40163Y62559D01*
X39559Y62559D01*
G37*
%LPD*%
%LPC*%
G36*
X22559Y62559D02*
X22559Y62559D01*
X22559Y63163D01*
X22630Y63153D01*
X22714Y63131D01*
X22795Y63097D01*
X22870Y63054D01*
X22939Y63001D01*
X23001Y62939D01*
X23054Y62870D01*
X23097Y62795D01*
X23131Y62714D01*
X23153Y62630D01*
X23163Y62559D01*
X22559Y62559D01*
G37*
%LPD*%
%LPC*%
G36*
X39370Y61847D02*
X39370Y61847D01*
X39286Y61869D01*
X39205Y61903D01*
X39130Y61946D01*
X39061Y61999D01*
X38999Y62061D01*
X38946Y62130D01*
X38903Y62205D01*
X38869Y62286D01*
X38847Y62370D01*
X38837Y62441D01*
X39441Y62441D01*
X39441Y61837D01*
X39370Y61847D01*
G37*
%LPD*%
%LPC*%
G36*
X22370Y61847D02*
X22370Y61847D01*
X22286Y61869D01*
X22205Y61903D01*
X22130Y61946D01*
X22061Y61999D01*
X21999Y62061D01*
X21946Y62130D01*
X21903Y62205D01*
X21869Y62286D01*
X21847Y62370D01*
X21837Y62441D01*
X22441Y62441D01*
X22441Y61837D01*
X22370Y61847D01*
G37*
%LPD*%
%LPC*%
G36*
X14496Y35559D02*
X14496Y35559D01*
X14496Y36041D01*
X14564Y36030D01*
X14646Y36004D01*
X14722Y35965D01*
X14791Y35915D01*
X14852Y35854D01*
X14902Y35785D01*
X14941Y35709D01*
X14967Y35627D01*
X14978Y35559D01*
X14496Y35559D01*
G37*
%LPD*%
%LPC*%
G36*
X13896Y35559D02*
X13896Y35559D01*
X13907Y35627D01*
X13933Y35709D01*
X13972Y35785D01*
X14022Y35854D01*
X14083Y35915D01*
X14152Y35965D01*
X14228Y36004D01*
X14310Y36030D01*
X14378Y36041D01*
X14378Y35559D01*
X13896Y35559D01*
G37*
%LPD*%
%LPC*%
G36*
X14496Y35441D02*
X14496Y35441D01*
X14978Y35441D01*
X14967Y35373D01*
X14941Y35291D01*
X14902Y35215D01*
X14852Y35146D01*
X14791Y35085D01*
X14722Y35035D01*
X14646Y34996D01*
X14564Y34970D01*
X14496Y34959D01*
X14496Y35441D01*
G37*
%LPD*%
%LPC*%
G36*
X14310Y34970D02*
X14310Y34970D01*
X14228Y34996D01*
X14152Y35035D01*
X14083Y35085D01*
X14022Y35146D01*
X13972Y35215D01*
X13933Y35291D01*
X13907Y35373D01*
X13896Y35441D01*
X14378Y35441D01*
X14378Y34959D01*
X14310Y34970D01*
G37*
%LPD*%
%LPC*%
G36*
X21059Y62441D02*
X21059Y62441D01*
X21511Y62441D01*
X21501Y62380D01*
X21476Y62303D01*
X21440Y62231D01*
X21392Y62165D01*
X21335Y62108D01*
X21269Y62060D01*
X21197Y62024D01*
X21120Y61999D01*
X21059Y61989D01*
X21059Y62441D01*
G37*
%LPD*%
%LPC*%
G36*
X20880Y61999D02*
X20880Y61999D01*
X20803Y62024D01*
X20731Y62060D01*
X20665Y62108D01*
X20608Y62165D01*
X20560Y62231D01*
X20524Y62303D01*
X20499Y62380D01*
X20489Y62441D01*
X20941Y62441D01*
X20941Y61989D01*
X20880Y61999D01*
G37*
%LPD*%
%LPC*%
G36*
X38059Y62441D02*
X38059Y62441D01*
X38511Y62441D01*
X38501Y62380D01*
X38476Y62303D01*
X38440Y62231D01*
X38392Y62165D01*
X38335Y62108D01*
X38269Y62060D01*
X38197Y62024D01*
X38120Y61999D01*
X38059Y61989D01*
X38059Y62441D01*
G37*
%LPD*%
%LPC*%
G36*
X37880Y61999D02*
X37880Y61999D01*
X37803Y62024D01*
X37731Y62060D01*
X37665Y62108D01*
X37608Y62165D01*
X37560Y62231D01*
X37524Y62303D01*
X37499Y62380D01*
X37489Y62441D01*
X37941Y62441D01*
X37941Y61989D01*
X37880Y61999D01*
G37*
%LPD*%
%LPC*%
G36*
X21059Y62559D02*
X21059Y62559D01*
X21059Y63011D01*
X21120Y63001D01*
X21197Y62976D01*
X21269Y62940D01*
X21335Y62892D01*
X21392Y62835D01*
X21440Y62769D01*
X21476Y62697D01*
X21501Y62620D01*
X21511Y62559D01*
X21059Y62559D01*
G37*
%LPD*%
%LPC*%
G36*
X37489Y62559D02*
X37489Y62559D01*
X37499Y62620D01*
X37524Y62697D01*
X37560Y62769D01*
X37608Y62835D01*
X37665Y62892D01*
X37731Y62940D01*
X37803Y62976D01*
X37880Y63001D01*
X37941Y63011D01*
X37941Y62559D01*
X37489Y62559D01*
G37*
%LPD*%
%LPC*%
G36*
X20489Y62559D02*
X20489Y62559D01*
X20499Y62620D01*
X20524Y62697D01*
X20560Y62769D01*
X20608Y62835D01*
X20665Y62892D01*
X20731Y62940D01*
X20803Y62976D01*
X20880Y63001D01*
X20941Y63011D01*
X20941Y62559D01*
X20489Y62559D01*
G37*
%LPD*%
%LPC*%
G36*
X38059Y62559D02*
X38059Y62559D01*
X38059Y63011D01*
X38120Y63001D01*
X38197Y62976D01*
X38269Y62940D01*
X38335Y62892D01*
X38392Y62835D01*
X38440Y62769D01*
X38476Y62697D01*
X38501Y62620D01*
X38511Y62559D01*
X38059Y62559D01*
G37*
%LPD*%
%LPC*%
G36*
X9785Y30659D02*
X9785Y30659D01*
X9785Y30996D01*
X9995Y30996D01*
X10021Y30989D01*
X10044Y30976D01*
X10063Y30957D01*
X10076Y30934D01*
X10083Y30909D01*
X10083Y30659D01*
X9785Y30659D01*
G37*
%LPD*%
%LPC*%
G36*
X9785Y30204D02*
X9785Y30204D01*
X9785Y30541D01*
X10083Y30541D01*
X10083Y30291D01*
X10082Y30288D01*
X10076Y30266D01*
X10063Y30243D01*
X10044Y30224D01*
X10021Y30211D01*
X9995Y30204D01*
X9785Y30204D01*
G37*
%LPD*%
%LPC*%
G36*
X9369Y30659D02*
X9369Y30659D01*
X9369Y30909D01*
X9376Y30934D01*
X9389Y30957D01*
X9408Y30976D01*
X9431Y30989D01*
X9457Y30996D01*
X9667Y30996D01*
X9667Y30659D01*
X9369Y30659D01*
G37*
%LPD*%
%LPC*%
G36*
X9457Y30204D02*
X9457Y30204D01*
X9431Y30211D01*
X9408Y30224D01*
X9389Y30243D01*
X9376Y30266D01*
X9369Y30291D01*
X9369Y30541D01*
X9667Y30541D01*
X9667Y30204D01*
X9457Y30204D01*
G37*
%LPD*%
%LPC*%
G36*
X46559Y51441D02*
X46559Y51441D01*
X46853Y51441D01*
X46844Y51396D01*
X46817Y51330D01*
X46816Y51328D01*
X46778Y51272D01*
X46728Y51222D01*
X46670Y51183D01*
X46604Y51156D01*
X46559Y51147D01*
X46559Y51441D01*
G37*
%LPD*%
%LPC*%
G36*
X46559Y61941D02*
X46559Y61941D01*
X46853Y61941D01*
X46844Y61896D01*
X46817Y61830D01*
X46796Y61799D01*
X46778Y61772D01*
X46728Y61722D01*
X46670Y61683D01*
X46604Y61656D01*
X46559Y61647D01*
X46559Y61941D01*
G37*
%LPD*%
%LPC*%
G36*
X39647Y66059D02*
X39647Y66059D01*
X39656Y66104D01*
X39683Y66170D01*
X39711Y66212D01*
X39722Y66228D01*
X39772Y66278D01*
X39830Y66317D01*
X39896Y66344D01*
X39941Y66353D01*
X39941Y66059D01*
X39647Y66059D01*
G37*
%LPD*%
%LPC*%
G36*
X36647Y66059D02*
X36647Y66059D01*
X36656Y66104D01*
X36683Y66170D01*
X36711Y66212D01*
X36722Y66228D01*
X36772Y66278D01*
X36830Y66317D01*
X36896Y66344D01*
X36941Y66353D01*
X36941Y66059D01*
X36647Y66059D01*
G37*
%LPD*%
%LPC*%
G36*
X46147Y51559D02*
X46147Y51559D01*
X46156Y51604D01*
X46183Y51670D01*
X46206Y51705D01*
X46222Y51728D01*
X46272Y51778D01*
X46330Y51817D01*
X46396Y51844D01*
X46441Y51853D01*
X46441Y51559D01*
X46147Y51559D01*
G37*
%LPD*%
%LPC*%
G36*
X46059Y37441D02*
X46059Y37441D01*
X46353Y37441D01*
X46344Y37396D01*
X46317Y37330D01*
X46289Y37288D01*
X46278Y37272D01*
X46228Y37222D01*
X46170Y37183D01*
X46104Y37156D01*
X46059Y37147D01*
X46059Y37441D01*
G37*
%LPD*%
%LPC*%
G36*
X33559Y37441D02*
X33559Y37441D01*
X33853Y37441D01*
X33844Y37396D01*
X33817Y37330D01*
X33789Y37288D01*
X33778Y37272D01*
X33728Y37222D01*
X33670Y37183D01*
X33604Y37156D01*
X33559Y37147D01*
X33559Y37441D01*
G37*
%LPD*%
%LPC*%
G36*
X33559Y37559D02*
X33559Y37559D01*
X33559Y37853D01*
X33604Y37844D01*
X33670Y37817D01*
X33728Y37778D01*
X33778Y37728D01*
X33817Y37670D01*
X33844Y37604D01*
X33853Y37559D01*
X33559Y37559D01*
G37*
%LPD*%
%LPC*%
G36*
X46059Y37559D02*
X46059Y37559D01*
X46059Y37853D01*
X46104Y37844D01*
X46170Y37817D01*
X46228Y37778D01*
X46278Y37728D01*
X46317Y37670D01*
X46344Y37604D01*
X46353Y37559D01*
X46059Y37559D01*
G37*
%LPD*%
%LPC*%
G36*
X46559Y62059D02*
X46559Y62059D01*
X46559Y62353D01*
X46604Y62344D01*
X46670Y62317D01*
X46728Y62278D01*
X46778Y62228D01*
X46817Y62170D01*
X46844Y62104D01*
X46853Y62059D01*
X46559Y62059D01*
G37*
%LPD*%
%LPC*%
G36*
X33396Y37156D02*
X33396Y37156D01*
X33330Y37183D01*
X33272Y37222D01*
X33222Y37272D01*
X33183Y37330D01*
X33156Y37396D01*
X33147Y37441D01*
X33441Y37441D01*
X33441Y37147D01*
X33396Y37156D01*
G37*
%LPD*%
%LPC*%
G36*
X45896Y37156D02*
X45896Y37156D01*
X45830Y37183D01*
X45772Y37222D01*
X45722Y37272D01*
X45683Y37330D01*
X45656Y37396D01*
X45647Y37441D01*
X45941Y37441D01*
X45941Y37147D01*
X45896Y37156D01*
G37*
%LPD*%
%LPC*%
G36*
X37059Y65941D02*
X37059Y65941D01*
X37353Y65941D01*
X37344Y65896D01*
X37317Y65830D01*
X37278Y65772D01*
X37228Y65722D01*
X37170Y65683D01*
X37104Y65656D01*
X37059Y65647D01*
X37059Y65941D01*
G37*
%LPD*%
%LPC*%
G36*
X46559Y51559D02*
X46559Y51559D01*
X46559Y51853D01*
X46604Y51844D01*
X46670Y51817D01*
X46728Y51778D01*
X46778Y51728D01*
X46817Y51670D01*
X46844Y51604D01*
X46853Y51559D01*
X46559Y51559D01*
G37*
%LPD*%
%LPC*%
G36*
X40059Y65941D02*
X40059Y65941D01*
X40353Y65941D01*
X40344Y65896D01*
X40317Y65830D01*
X40278Y65772D01*
X40228Y65722D01*
X40170Y65683D01*
X40104Y65656D01*
X40059Y65647D01*
X40059Y65941D01*
G37*
%LPD*%
%LPC*%
G36*
X39896Y65656D02*
X39896Y65656D01*
X39830Y65683D01*
X39772Y65722D01*
X39722Y65772D01*
X39683Y65830D01*
X39656Y65896D01*
X39647Y65941D01*
X39941Y65941D01*
X39941Y65647D01*
X39896Y65656D01*
G37*
%LPD*%
%LPC*%
G36*
X36896Y65656D02*
X36896Y65656D01*
X36830Y65683D01*
X36772Y65722D01*
X36722Y65772D01*
X36683Y65830D01*
X36656Y65896D01*
X36647Y65941D01*
X36941Y65941D01*
X36941Y65647D01*
X36896Y65656D01*
G37*
%LPD*%
%LPC*%
G36*
X46396Y51156D02*
X46396Y51156D01*
X46330Y51183D01*
X46272Y51222D01*
X46222Y51272D01*
X46183Y51330D01*
X46156Y51396D01*
X46147Y51441D01*
X46441Y51441D01*
X46441Y51147D01*
X46396Y51156D01*
G37*
%LPD*%
%LPC*%
G36*
X37059Y66059D02*
X37059Y66059D01*
X37059Y66353D01*
X37104Y66344D01*
X37170Y66317D01*
X37228Y66278D01*
X37278Y66228D01*
X37317Y66170D01*
X37344Y66104D01*
X37353Y66059D01*
X37059Y66059D01*
G37*
%LPD*%
%LPC*%
G36*
X40059Y66059D02*
X40059Y66059D01*
X40059Y66353D01*
X40104Y66344D01*
X40170Y66317D01*
X40228Y66278D01*
X40278Y66228D01*
X40317Y66170D01*
X40344Y66104D01*
X40353Y66059D01*
X40059Y66059D01*
G37*
%LPD*%
%LPC*%
G36*
X46396Y61656D02*
X46396Y61656D01*
X46330Y61683D01*
X46272Y61722D01*
X46222Y61772D01*
X46183Y61830D01*
X46156Y61896D01*
X46147Y61941D01*
X46441Y61941D01*
X46441Y61647D01*
X46396Y61656D01*
G37*
%LPD*%
%LPC*%
G36*
X46147Y62059D02*
X46147Y62059D01*
X46156Y62104D01*
X46183Y62170D01*
X46187Y62176D01*
X46222Y62228D01*
X46272Y62278D01*
X46330Y62317D01*
X46396Y62344D01*
X46441Y62353D01*
X46441Y62059D01*
X46147Y62059D01*
G37*
%LPD*%
%LPC*%
G36*
X33147Y37559D02*
X33147Y37559D01*
X33156Y37604D01*
X33183Y37670D01*
X33218Y37723D01*
X33222Y37728D01*
X33272Y37778D01*
X33330Y37817D01*
X33396Y37844D01*
X33441Y37853D01*
X33441Y37559D01*
X33147Y37559D01*
G37*
%LPD*%
%LPC*%
G36*
X45647Y37559D02*
X45647Y37559D01*
X45656Y37604D01*
X45683Y37670D01*
X45718Y37723D01*
X45722Y37728D01*
X45772Y37778D01*
X45830Y37817D01*
X45896Y37844D01*
X45941Y37853D01*
X45941Y37559D01*
X45647Y37559D01*
G37*
%LPD*%
%LPC*%
G36*
X46499Y51499D02*
X46499Y51499D01*
X46499Y51501D01*
X46501Y51501D01*
X46501Y51499D01*
X46499Y51499D01*
G37*
%LPD*%
%LPC*%
G36*
X45999Y37499D02*
X45999Y37499D01*
X45999Y37501D01*
X46001Y37501D01*
X46001Y37499D01*
X45999Y37499D01*
G37*
%LPD*%
%LPC*%
G36*
X33499Y37499D02*
X33499Y37499D01*
X33499Y37501D01*
X33501Y37501D01*
X33501Y37499D01*
X33499Y37499D01*
G37*
%LPD*%
%LPC*%
G36*
X37999Y62499D02*
X37999Y62499D01*
X37999Y62501D01*
X38001Y62501D01*
X38001Y62499D01*
X37999Y62499D01*
G37*
%LPD*%
%LPC*%
G36*
X39999Y65999D02*
X39999Y65999D01*
X39999Y66001D01*
X40001Y66001D01*
X40001Y65999D01*
X39999Y65999D01*
G37*
%LPD*%
%LPC*%
G36*
X36999Y65999D02*
X36999Y65999D01*
X36999Y66001D01*
X37001Y66001D01*
X37001Y65999D01*
X36999Y65999D01*
G37*
%LPD*%
%LPC*%
G36*
X22499Y62499D02*
X22499Y62499D01*
X22499Y62501D01*
X22501Y62501D01*
X22501Y62499D01*
X22499Y62499D01*
G37*
%LPD*%
%LPC*%
G36*
X39499Y62499D02*
X39499Y62499D01*
X39499Y62501D01*
X39501Y62501D01*
X39501Y62499D01*
X39499Y62499D01*
G37*
%LPD*%
%LPC*%
G36*
X20999Y62499D02*
X20999Y62499D01*
X20999Y62501D01*
X21001Y62501D01*
X21001Y62499D01*
X20999Y62499D01*
G37*
%LPD*%
%LPC*%
G36*
X3999Y43751D02*
X3999Y43751D01*
X3999Y43753D01*
X4001Y43753D01*
X4001Y43751D01*
X3999Y43751D01*
G37*
%LPD*%
%LPC*%
G36*
X21751Y33999D02*
X21751Y33999D01*
X21751Y34001D01*
X21753Y34001D01*
X21753Y33999D01*
X21751Y33999D01*
G37*
%LPD*%
%LPC*%
G36*
X3999Y52751D02*
X3999Y52751D01*
X3999Y52753D01*
X4001Y52753D01*
X4001Y52751D01*
X3999Y52751D01*
G37*
%LPD*%
%LPC*%
G36*
X33751Y69999D02*
X33751Y69999D01*
X33751Y70001D01*
X33753Y70001D01*
X33753Y69999D01*
X33751Y69999D01*
G37*
%LPD*%
%LPC*%
G36*
X15751Y69999D02*
X15751Y69999D01*
X15751Y70001D01*
X15753Y70001D01*
X15753Y69999D01*
X15751Y69999D01*
G37*
%LPD*%
%LPC*%
G36*
X36751Y33499D02*
X36751Y33499D01*
X36751Y33501D01*
X36753Y33501D01*
X36753Y33499D01*
X36751Y33499D01*
G37*
%LPD*%
%LPC*%
G36*
X24751Y69999D02*
X24751Y69999D01*
X24751Y70001D01*
X24753Y70001D01*
X24753Y69999D01*
X24751Y69999D01*
G37*
%LPD*%
%LPC*%
G36*
X3999Y70251D02*
X3999Y70251D01*
X3999Y70253D01*
X4001Y70253D01*
X4001Y70251D01*
X3999Y70251D01*
G37*
%LPD*%
%LPC*%
G36*
X14436Y35499D02*
X14436Y35499D01*
X14436Y35501D01*
X14438Y35501D01*
X14438Y35499D01*
X14436Y35499D01*
G37*
%LPD*%
%LPC*%
G36*
X3999Y61751D02*
X3999Y61751D01*
X3999Y61753D01*
X4001Y61753D01*
X4001Y61751D01*
X3999Y61751D01*
G37*
%LPD*%
%LPC*%
G36*
X46499Y61999D02*
X46499Y61999D01*
X46499Y62001D01*
X46501Y62001D01*
X46501Y61999D01*
X46499Y61999D01*
G37*
%LPD*%
%LPC*%
G36*
X3499Y34751D02*
X3499Y34751D01*
X3499Y34753D01*
X3501Y34753D01*
X3501Y34751D01*
X3499Y34751D01*
G37*
%LPD*%
%LPC*%
G36*
X9725Y30599D02*
X9725Y30599D01*
X9725Y30601D01*
X9727Y30601D01*
X9727Y30599D01*
X9725Y30599D01*
G37*
%LPD*%
D10*
X1000Y29500D02*
X51370Y29500D01*
X51370Y74496D01*
X1000Y74496D01*
X1000Y29500D01*
D11*
X52370Y29500D02*
X55768Y29500D01*
X55768Y74496D02*
X52370Y74496D01*
X55000Y74470D02*
X55000Y29526D01*
X54874Y30524D01*
X55126Y30524D01*
X55000Y29526D01*
X54949Y30524D01*
X55051Y30524D02*
X55000Y29526D01*
X54898Y30524D01*
X55102Y30524D02*
X55000Y29526D01*
X54874Y73472D02*
X55000Y74470D01*
X54874Y73472D02*
X55126Y73472D01*
X55000Y74470D01*
X54949Y73472D01*
X55051Y73472D02*
X55000Y74470D01*
X54898Y73472D01*
X55102Y73472D02*
X55000Y74470D01*
D12*
X54104Y50707D02*
X54246Y50529D01*
X54104Y50707D02*
X54744Y50707D01*
X54744Y50529D02*
X54744Y50885D01*
X54246Y51145D02*
X54104Y51322D01*
X54744Y51322D01*
X54744Y51145D02*
X54744Y51500D01*
X54602Y51760D02*
X54104Y51902D01*
X54602Y51760D02*
X54602Y52116D01*
X54744Y52009D02*
X54459Y52009D01*
X54708Y52351D02*
X54744Y52351D01*
X54708Y52351D02*
X54708Y52386D01*
X54744Y52386D01*
X54744Y52351D01*
X54264Y52977D02*
X54241Y52975D01*
X54219Y52971D01*
X54198Y52963D01*
X54177Y52952D01*
X54159Y52938D01*
X54143Y52922D01*
X54129Y52904D01*
X54118Y52883D01*
X54110Y52862D01*
X54106Y52840D01*
X54104Y52817D01*
X54103Y52817D02*
X54105Y52791D01*
X54109Y52766D01*
X54117Y52741D01*
X54129Y52718D01*
X54142Y52696D01*
X54159Y52676D01*
X54178Y52658D01*
X54199Y52643D01*
X54221Y52631D01*
X54246Y52621D01*
X54389Y52924D02*
X54371Y52939D01*
X54352Y52953D01*
X54332Y52963D01*
X54310Y52971D01*
X54287Y52975D01*
X54264Y52977D01*
X54388Y52924D02*
X54744Y52622D01*
X54744Y52977D01*
X54459Y53379D02*
X54459Y53593D01*
X54459Y53379D02*
X54457Y53357D01*
X54452Y53335D01*
X54444Y53315D01*
X54432Y53296D01*
X54417Y53279D01*
X54400Y53264D01*
X54381Y53252D01*
X54361Y53244D01*
X54339Y53239D01*
X54317Y53237D01*
X54282Y53237D01*
X54257Y53239D01*
X54232Y53244D01*
X54208Y53253D01*
X54186Y53265D01*
X54165Y53280D01*
X54147Y53298D01*
X54132Y53319D01*
X54120Y53341D01*
X54111Y53365D01*
X54106Y53390D01*
X54104Y53415D01*
X54106Y53440D01*
X54111Y53465D01*
X54120Y53489D01*
X54132Y53511D01*
X54147Y53532D01*
X54165Y53550D01*
X54186Y53565D01*
X54208Y53577D01*
X54232Y53586D01*
X54257Y53591D01*
X54282Y53593D01*
X54459Y53593D01*
X54459Y53592D02*
X54491Y53590D01*
X54522Y53585D01*
X54553Y53576D01*
X54582Y53564D01*
X54610Y53548D01*
X54636Y53530D01*
X54660Y53509D01*
X54681Y53485D01*
X54699Y53459D01*
X54715Y53431D01*
X54727Y53402D01*
X54736Y53371D01*
X54741Y53340D01*
X54743Y53308D01*
D11*
X1000Y29500D02*
X1000Y27232D01*
X51370Y27232D02*
X51370Y29500D01*
X51344Y28000D02*
X1026Y28000D01*
X2024Y28126D01*
X2024Y27874D01*
X1026Y28000D01*
X2024Y28051D01*
X2024Y27949D02*
X1026Y28000D01*
X2024Y28102D01*
X2024Y27898D02*
X1026Y28000D01*
X50346Y28126D02*
X51344Y28000D01*
X50346Y28126D02*
X50346Y27874D01*
X51344Y28000D01*
X50346Y28051D01*
X50346Y27949D02*
X51344Y28000D01*
X50346Y28102D01*
X50346Y27898D02*
X51344Y28000D01*
D12*
X24857Y28896D02*
X24679Y28754D01*
X24857Y28896D02*
X24857Y28256D01*
X24679Y28256D02*
X25035Y28256D01*
X25650Y28736D02*
X25648Y28759D01*
X25644Y28781D01*
X25636Y28802D01*
X25625Y28823D01*
X25611Y28841D01*
X25595Y28857D01*
X25577Y28871D01*
X25556Y28882D01*
X25535Y28890D01*
X25513Y28894D01*
X25490Y28896D01*
X25490Y28897D02*
X25464Y28895D01*
X25439Y28891D01*
X25414Y28883D01*
X25391Y28871D01*
X25369Y28858D01*
X25349Y28841D01*
X25331Y28822D01*
X25316Y28801D01*
X25304Y28779D01*
X25294Y28754D01*
X25597Y28611D02*
X25612Y28629D01*
X25626Y28648D01*
X25636Y28668D01*
X25644Y28690D01*
X25648Y28713D01*
X25650Y28736D01*
X25597Y28612D02*
X25295Y28256D01*
X25650Y28256D01*
X25910Y28825D02*
X25910Y28896D01*
X26266Y28896D01*
X26088Y28256D01*
X26501Y28256D02*
X26501Y28292D01*
X26537Y28292D01*
X26537Y28256D01*
X26501Y28256D01*
X26914Y28541D02*
X27127Y28541D01*
X26914Y28541D02*
X26892Y28543D01*
X26870Y28548D01*
X26850Y28556D01*
X26831Y28568D01*
X26814Y28583D01*
X26799Y28600D01*
X26787Y28619D01*
X26779Y28639D01*
X26774Y28661D01*
X26772Y28683D01*
X26772Y28718D01*
X26774Y28743D01*
X26779Y28768D01*
X26788Y28792D01*
X26800Y28814D01*
X26815Y28835D01*
X26833Y28853D01*
X26854Y28868D01*
X26876Y28880D01*
X26900Y28889D01*
X26925Y28894D01*
X26950Y28896D01*
X26975Y28894D01*
X27000Y28889D01*
X27024Y28880D01*
X27046Y28868D01*
X27067Y28853D01*
X27085Y28835D01*
X27100Y28814D01*
X27112Y28792D01*
X27121Y28768D01*
X27126Y28743D01*
X27128Y28718D01*
X27127Y28718D02*
X27127Y28541D01*
X27125Y28509D01*
X27120Y28478D01*
X27111Y28447D01*
X27099Y28418D01*
X27083Y28390D01*
X27065Y28364D01*
X27044Y28340D01*
X27020Y28319D01*
X26994Y28301D01*
X26966Y28285D01*
X26937Y28273D01*
X26906Y28264D01*
X26875Y28259D01*
X26843Y28257D01*
X27387Y28398D02*
X27529Y28896D01*
X27387Y28398D02*
X27743Y28398D01*
X27636Y28256D02*
X27636Y28541D01*
D13*
X4000Y59114D03*
X4000Y61752D03*
D10*
X2967Y63878D02*
X2969Y63927D01*
X2975Y63975D01*
X2985Y64023D01*
X2999Y64070D01*
X3016Y64116D01*
X3037Y64160D01*
X3062Y64202D01*
X3090Y64242D01*
X3122Y64280D01*
X3156Y64315D01*
X3193Y64347D01*
X3232Y64376D01*
X3274Y64402D01*
X3318Y64424D01*
X3363Y64442D01*
X3410Y64457D01*
X3457Y64468D01*
X3506Y64475D01*
X3555Y64478D01*
X3604Y64477D01*
X3652Y64472D01*
X3701Y64463D01*
X3748Y64450D01*
X3794Y64433D01*
X3838Y64413D01*
X3881Y64389D01*
X3922Y64362D01*
X3960Y64331D01*
X3996Y64298D01*
X4028Y64262D01*
X4058Y64223D01*
X4085Y64182D01*
X4108Y64138D01*
X4127Y64093D01*
X4143Y64047D01*
X4155Y64000D01*
X4163Y63951D01*
X4167Y63902D01*
X4167Y63854D01*
X4163Y63805D01*
X4155Y63756D01*
X4143Y63709D01*
X4127Y63663D01*
X4108Y63618D01*
X4085Y63574D01*
X4058Y63533D01*
X4028Y63494D01*
X3996Y63458D01*
X3960Y63425D01*
X3922Y63394D01*
X3881Y63367D01*
X3838Y63343D01*
X3794Y63323D01*
X3748Y63306D01*
X3701Y63293D01*
X3652Y63284D01*
X3604Y63279D01*
X3555Y63278D01*
X3506Y63281D01*
X3457Y63288D01*
X3410Y63299D01*
X3363Y63314D01*
X3318Y63332D01*
X3274Y63354D01*
X3232Y63380D01*
X3193Y63409D01*
X3156Y63441D01*
X3122Y63476D01*
X3090Y63514D01*
X3062Y63554D01*
X3037Y63596D01*
X3016Y63640D01*
X2999Y63686D01*
X2985Y63733D01*
X2975Y63781D01*
X2969Y63829D01*
X2967Y63878D01*
D13*
X4000Y67614D03*
X4000Y70252D03*
D10*
X2967Y72378D02*
X2969Y72427D01*
X2975Y72475D01*
X2985Y72523D01*
X2999Y72570D01*
X3016Y72616D01*
X3037Y72660D01*
X3062Y72702D01*
X3090Y72742D01*
X3122Y72780D01*
X3156Y72815D01*
X3193Y72847D01*
X3232Y72876D01*
X3274Y72902D01*
X3318Y72924D01*
X3363Y72942D01*
X3410Y72957D01*
X3457Y72968D01*
X3506Y72975D01*
X3555Y72978D01*
X3604Y72977D01*
X3652Y72972D01*
X3701Y72963D01*
X3748Y72950D01*
X3794Y72933D01*
X3838Y72913D01*
X3881Y72889D01*
X3922Y72862D01*
X3960Y72831D01*
X3996Y72798D01*
X4028Y72762D01*
X4058Y72723D01*
X4085Y72682D01*
X4108Y72638D01*
X4127Y72593D01*
X4143Y72547D01*
X4155Y72500D01*
X4163Y72451D01*
X4167Y72402D01*
X4167Y72354D01*
X4163Y72305D01*
X4155Y72256D01*
X4143Y72209D01*
X4127Y72163D01*
X4108Y72118D01*
X4085Y72074D01*
X4058Y72033D01*
X4028Y71994D01*
X3996Y71958D01*
X3960Y71925D01*
X3922Y71894D01*
X3881Y71867D01*
X3838Y71843D01*
X3794Y71823D01*
X3748Y71806D01*
X3701Y71793D01*
X3652Y71784D01*
X3604Y71779D01*
X3555Y71778D01*
X3506Y71781D01*
X3457Y71788D01*
X3410Y71799D01*
X3363Y71814D01*
X3318Y71832D01*
X3274Y71854D01*
X3232Y71880D01*
X3193Y71909D01*
X3156Y71941D01*
X3122Y71976D01*
X3090Y72014D01*
X3062Y72054D01*
X3037Y72096D01*
X3016Y72140D01*
X2999Y72186D01*
X2985Y72233D01*
X2975Y72281D01*
X2969Y72329D01*
X2967Y72378D01*
D14*
X20839Y38000D03*
X18161Y38000D03*
X29839Y66000D03*
X27161Y66000D03*
X46161Y40000D03*
X48839Y40000D03*
X12661Y66000D03*
X15339Y66000D03*
D15*
X8000Y60339D03*
X8000Y57661D03*
X8000Y52839D03*
X8000Y50161D03*
D14*
X49839Y66000D03*
X47161Y66000D03*
X23161Y38000D03*
X25839Y38000D03*
D15*
X8500Y41661D03*
X8500Y44339D03*
X8000Y67661D03*
X8000Y70339D03*
X7000Y32661D03*
X7000Y35339D03*
D14*
X23339Y66000D03*
X20661Y66000D03*
D13*
X22114Y70000D03*
X24752Y70000D03*
D10*
X26278Y70433D02*
X26280Y70482D01*
X26286Y70530D01*
X26296Y70578D01*
X26310Y70625D01*
X26327Y70671D01*
X26348Y70715D01*
X26373Y70757D01*
X26401Y70797D01*
X26433Y70835D01*
X26467Y70870D01*
X26504Y70902D01*
X26543Y70931D01*
X26585Y70957D01*
X26629Y70979D01*
X26674Y70997D01*
X26721Y71012D01*
X26768Y71023D01*
X26817Y71030D01*
X26866Y71033D01*
X26915Y71032D01*
X26963Y71027D01*
X27012Y71018D01*
X27059Y71005D01*
X27105Y70988D01*
X27149Y70968D01*
X27192Y70944D01*
X27233Y70917D01*
X27271Y70886D01*
X27307Y70853D01*
X27339Y70817D01*
X27369Y70778D01*
X27396Y70737D01*
X27419Y70693D01*
X27438Y70648D01*
X27454Y70602D01*
X27466Y70555D01*
X27474Y70506D01*
X27478Y70457D01*
X27478Y70409D01*
X27474Y70360D01*
X27466Y70311D01*
X27454Y70264D01*
X27438Y70218D01*
X27419Y70173D01*
X27396Y70129D01*
X27369Y70088D01*
X27339Y70049D01*
X27307Y70013D01*
X27271Y69980D01*
X27233Y69949D01*
X27192Y69922D01*
X27149Y69898D01*
X27105Y69878D01*
X27059Y69861D01*
X27012Y69848D01*
X26963Y69839D01*
X26915Y69834D01*
X26866Y69833D01*
X26817Y69836D01*
X26768Y69843D01*
X26721Y69854D01*
X26674Y69869D01*
X26629Y69887D01*
X26585Y69909D01*
X26543Y69935D01*
X26504Y69964D01*
X26467Y69996D01*
X26433Y70031D01*
X26401Y70069D01*
X26373Y70109D01*
X26348Y70151D01*
X26327Y70195D01*
X26310Y70241D01*
X26296Y70288D01*
X26286Y70336D01*
X26280Y70384D01*
X26278Y70433D01*
D13*
X31114Y70000D03*
X33752Y70000D03*
D10*
X35278Y70433D02*
X35280Y70482D01*
X35286Y70530D01*
X35296Y70578D01*
X35310Y70625D01*
X35327Y70671D01*
X35348Y70715D01*
X35373Y70757D01*
X35401Y70797D01*
X35433Y70835D01*
X35467Y70870D01*
X35504Y70902D01*
X35543Y70931D01*
X35585Y70957D01*
X35629Y70979D01*
X35674Y70997D01*
X35721Y71012D01*
X35768Y71023D01*
X35817Y71030D01*
X35866Y71033D01*
X35915Y71032D01*
X35963Y71027D01*
X36012Y71018D01*
X36059Y71005D01*
X36105Y70988D01*
X36149Y70968D01*
X36192Y70944D01*
X36233Y70917D01*
X36271Y70886D01*
X36307Y70853D01*
X36339Y70817D01*
X36369Y70778D01*
X36396Y70737D01*
X36419Y70693D01*
X36438Y70648D01*
X36454Y70602D01*
X36466Y70555D01*
X36474Y70506D01*
X36478Y70457D01*
X36478Y70409D01*
X36474Y70360D01*
X36466Y70311D01*
X36454Y70264D01*
X36438Y70218D01*
X36419Y70173D01*
X36396Y70129D01*
X36369Y70088D01*
X36339Y70049D01*
X36307Y70013D01*
X36271Y69980D01*
X36233Y69949D01*
X36192Y69922D01*
X36149Y69898D01*
X36105Y69878D01*
X36059Y69861D01*
X36012Y69848D01*
X35963Y69839D01*
X35915Y69834D01*
X35866Y69833D01*
X35817Y69836D01*
X35768Y69843D01*
X35721Y69854D01*
X35674Y69869D01*
X35629Y69887D01*
X35585Y69909D01*
X35543Y69935D01*
X35504Y69964D01*
X35467Y69996D01*
X35433Y70031D01*
X35401Y70069D01*
X35373Y70109D01*
X35348Y70151D01*
X35327Y70195D01*
X35310Y70241D01*
X35296Y70288D01*
X35286Y70336D01*
X35280Y70384D01*
X35278Y70433D01*
D16*
X48500Y72000D03*
X42594Y72000D03*
X40626Y72000D03*
X38657Y72000D03*
X38657Y69047D03*
X40626Y69047D03*
X42594Y69047D03*
X48500Y69047D03*
D17*
X29500Y30543D03*
X29500Y33457D03*
D13*
X13114Y70000D03*
X15752Y70000D03*
D10*
X17278Y70433D02*
X17280Y70482D01*
X17286Y70530D01*
X17296Y70578D01*
X17310Y70625D01*
X17327Y70671D01*
X17348Y70715D01*
X17373Y70757D01*
X17401Y70797D01*
X17433Y70835D01*
X17467Y70870D01*
X17504Y70902D01*
X17543Y70931D01*
X17585Y70957D01*
X17629Y70979D01*
X17674Y70997D01*
X17721Y71012D01*
X17768Y71023D01*
X17817Y71030D01*
X17866Y71033D01*
X17915Y71032D01*
X17963Y71027D01*
X18012Y71018D01*
X18059Y71005D01*
X18105Y70988D01*
X18149Y70968D01*
X18192Y70944D01*
X18233Y70917D01*
X18271Y70886D01*
X18307Y70853D01*
X18339Y70817D01*
X18369Y70778D01*
X18396Y70737D01*
X18419Y70693D01*
X18438Y70648D01*
X18454Y70602D01*
X18466Y70555D01*
X18474Y70506D01*
X18478Y70457D01*
X18478Y70409D01*
X18474Y70360D01*
X18466Y70311D01*
X18454Y70264D01*
X18438Y70218D01*
X18419Y70173D01*
X18396Y70129D01*
X18369Y70088D01*
X18339Y70049D01*
X18307Y70013D01*
X18271Y69980D01*
X18233Y69949D01*
X18192Y69922D01*
X18149Y69898D01*
X18105Y69878D01*
X18059Y69861D01*
X18012Y69848D01*
X17963Y69839D01*
X17915Y69834D01*
X17866Y69833D01*
X17817Y69836D01*
X17768Y69843D01*
X17721Y69854D01*
X17674Y69869D01*
X17629Y69887D01*
X17585Y69909D01*
X17543Y69935D01*
X17504Y69964D01*
X17467Y69996D01*
X17433Y70031D01*
X17401Y70069D01*
X17373Y70109D01*
X17348Y70151D01*
X17327Y70195D01*
X17310Y70241D01*
X17296Y70288D01*
X17286Y70336D01*
X17280Y70384D01*
X17278Y70433D01*
D13*
X4000Y50114D03*
X4000Y52752D03*
D10*
X2967Y54878D02*
X2969Y54927D01*
X2975Y54975D01*
X2985Y55023D01*
X2999Y55070D01*
X3016Y55116D01*
X3037Y55160D01*
X3062Y55202D01*
X3090Y55242D01*
X3122Y55280D01*
X3156Y55315D01*
X3193Y55347D01*
X3232Y55376D01*
X3274Y55402D01*
X3318Y55424D01*
X3363Y55442D01*
X3410Y55457D01*
X3457Y55468D01*
X3506Y55475D01*
X3555Y55478D01*
X3604Y55477D01*
X3652Y55472D01*
X3701Y55463D01*
X3748Y55450D01*
X3794Y55433D01*
X3838Y55413D01*
X3881Y55389D01*
X3922Y55362D01*
X3960Y55331D01*
X3996Y55298D01*
X4028Y55262D01*
X4058Y55223D01*
X4085Y55182D01*
X4108Y55138D01*
X4127Y55093D01*
X4143Y55047D01*
X4155Y55000D01*
X4163Y54951D01*
X4167Y54902D01*
X4167Y54854D01*
X4163Y54805D01*
X4155Y54756D01*
X4143Y54709D01*
X4127Y54663D01*
X4108Y54618D01*
X4085Y54574D01*
X4058Y54533D01*
X4028Y54494D01*
X3996Y54458D01*
X3960Y54425D01*
X3922Y54394D01*
X3881Y54367D01*
X3838Y54343D01*
X3794Y54323D01*
X3748Y54306D01*
X3701Y54293D01*
X3652Y54284D01*
X3604Y54279D01*
X3555Y54278D01*
X3506Y54281D01*
X3457Y54288D01*
X3410Y54299D01*
X3363Y54314D01*
X3318Y54332D01*
X3274Y54354D01*
X3232Y54380D01*
X3193Y54409D01*
X3156Y54441D01*
X3122Y54476D01*
X3090Y54514D01*
X3062Y54554D01*
X3037Y54596D01*
X3016Y54640D01*
X2999Y54686D01*
X2985Y54733D01*
X2975Y54781D01*
X2969Y54829D01*
X2967Y54878D01*
D13*
X4000Y41114D03*
X4000Y43752D03*
D10*
X2967Y45878D02*
X2969Y45927D01*
X2975Y45975D01*
X2985Y46023D01*
X2999Y46070D01*
X3016Y46116D01*
X3037Y46160D01*
X3062Y46202D01*
X3090Y46242D01*
X3122Y46280D01*
X3156Y46315D01*
X3193Y46347D01*
X3232Y46376D01*
X3274Y46402D01*
X3318Y46424D01*
X3363Y46442D01*
X3410Y46457D01*
X3457Y46468D01*
X3506Y46475D01*
X3555Y46478D01*
X3604Y46477D01*
X3652Y46472D01*
X3701Y46463D01*
X3748Y46450D01*
X3794Y46433D01*
X3838Y46413D01*
X3881Y46389D01*
X3922Y46362D01*
X3960Y46331D01*
X3996Y46298D01*
X4028Y46262D01*
X4058Y46223D01*
X4085Y46182D01*
X4108Y46138D01*
X4127Y46093D01*
X4143Y46047D01*
X4155Y46000D01*
X4163Y45951D01*
X4167Y45902D01*
X4167Y45854D01*
X4163Y45805D01*
X4155Y45756D01*
X4143Y45709D01*
X4127Y45663D01*
X4108Y45618D01*
X4085Y45574D01*
X4058Y45533D01*
X4028Y45494D01*
X3996Y45458D01*
X3960Y45425D01*
X3922Y45394D01*
X3881Y45367D01*
X3838Y45343D01*
X3794Y45323D01*
X3748Y45306D01*
X3701Y45293D01*
X3652Y45284D01*
X3604Y45279D01*
X3555Y45278D01*
X3506Y45281D01*
X3457Y45288D01*
X3410Y45299D01*
X3363Y45314D01*
X3318Y45332D01*
X3274Y45354D01*
X3232Y45380D01*
X3193Y45409D01*
X3156Y45441D01*
X3122Y45476D01*
X3090Y45514D01*
X3062Y45554D01*
X3037Y45596D01*
X3016Y45640D01*
X2999Y45686D01*
X2985Y45733D01*
X2975Y45781D01*
X2969Y45829D01*
X2967Y45878D01*
D13*
X3500Y32114D03*
X3500Y34752D03*
D10*
X2467Y36878D02*
X2469Y36927D01*
X2475Y36975D01*
X2485Y37023D01*
X2499Y37070D01*
X2516Y37116D01*
X2537Y37160D01*
X2562Y37202D01*
X2590Y37242D01*
X2622Y37280D01*
X2656Y37315D01*
X2693Y37347D01*
X2732Y37376D01*
X2774Y37402D01*
X2818Y37424D01*
X2863Y37442D01*
X2910Y37457D01*
X2957Y37468D01*
X3006Y37475D01*
X3055Y37478D01*
X3104Y37477D01*
X3152Y37472D01*
X3201Y37463D01*
X3248Y37450D01*
X3294Y37433D01*
X3338Y37413D01*
X3381Y37389D01*
X3422Y37362D01*
X3460Y37331D01*
X3496Y37298D01*
X3528Y37262D01*
X3558Y37223D01*
X3585Y37182D01*
X3608Y37138D01*
X3627Y37093D01*
X3643Y37047D01*
X3655Y37000D01*
X3663Y36951D01*
X3667Y36902D01*
X3667Y36854D01*
X3663Y36805D01*
X3655Y36756D01*
X3643Y36709D01*
X3627Y36663D01*
X3608Y36618D01*
X3585Y36574D01*
X3558Y36533D01*
X3528Y36494D01*
X3496Y36458D01*
X3460Y36425D01*
X3422Y36394D01*
X3381Y36367D01*
X3338Y36343D01*
X3294Y36323D01*
X3248Y36306D01*
X3201Y36293D01*
X3152Y36284D01*
X3104Y36279D01*
X3055Y36278D01*
X3006Y36281D01*
X2957Y36288D01*
X2910Y36299D01*
X2863Y36314D01*
X2818Y36332D01*
X2774Y36354D01*
X2732Y36380D01*
X2693Y36409D01*
X2656Y36441D01*
X2622Y36476D01*
X2590Y36514D01*
X2562Y36554D01*
X2537Y36596D01*
X2516Y36640D01*
X2499Y36686D01*
X2485Y36733D01*
X2475Y36781D01*
X2469Y36829D01*
X2467Y36878D01*
D13*
X47000Y44614D03*
X47000Y47252D03*
D10*
X45967Y49378D02*
X45969Y49427D01*
X45975Y49475D01*
X45985Y49523D01*
X45999Y49570D01*
X46016Y49616D01*
X46037Y49660D01*
X46062Y49702D01*
X46090Y49742D01*
X46122Y49780D01*
X46156Y49815D01*
X46193Y49847D01*
X46232Y49876D01*
X46274Y49902D01*
X46318Y49924D01*
X46363Y49942D01*
X46410Y49957D01*
X46457Y49968D01*
X46506Y49975D01*
X46555Y49978D01*
X46604Y49977D01*
X46652Y49972D01*
X46701Y49963D01*
X46748Y49950D01*
X46794Y49933D01*
X46838Y49913D01*
X46881Y49889D01*
X46922Y49862D01*
X46960Y49831D01*
X46996Y49798D01*
X47028Y49762D01*
X47058Y49723D01*
X47085Y49682D01*
X47108Y49638D01*
X47127Y49593D01*
X47143Y49547D01*
X47155Y49500D01*
X47163Y49451D01*
X47167Y49402D01*
X47167Y49354D01*
X47163Y49305D01*
X47155Y49256D01*
X47143Y49209D01*
X47127Y49163D01*
X47108Y49118D01*
X47085Y49074D01*
X47058Y49033D01*
X47028Y48994D01*
X46996Y48958D01*
X46960Y48925D01*
X46922Y48894D01*
X46881Y48867D01*
X46838Y48843D01*
X46794Y48823D01*
X46748Y48806D01*
X46701Y48793D01*
X46652Y48784D01*
X46604Y48779D01*
X46555Y48778D01*
X46506Y48781D01*
X46457Y48788D01*
X46410Y48799D01*
X46363Y48814D01*
X46318Y48832D01*
X46274Y48854D01*
X46232Y48880D01*
X46193Y48909D01*
X46156Y48941D01*
X46122Y48976D01*
X46090Y49014D01*
X46062Y49054D01*
X46037Y49096D01*
X46016Y49140D01*
X45999Y49186D01*
X45985Y49233D01*
X45975Y49281D01*
X45969Y49329D01*
X45967Y49378D01*
D18*
X16500Y42500D03*
X19500Y42500D03*
X22500Y42500D03*
D19*
X22500Y62500D03*
D18*
X21000Y62500D03*
X19500Y62500D03*
X18000Y62500D03*
D19*
X16500Y62500D03*
D18*
X33500Y42500D03*
X36500Y42500D03*
X39500Y42500D03*
D19*
X39500Y62500D03*
D18*
X38000Y62500D03*
X36500Y62500D03*
X35000Y62500D03*
D19*
X33500Y62500D03*
D13*
X19114Y34000D03*
X21752Y34000D03*
D10*
X23278Y34433D02*
X23280Y34482D01*
X23286Y34530D01*
X23296Y34578D01*
X23310Y34625D01*
X23327Y34671D01*
X23348Y34715D01*
X23373Y34757D01*
X23401Y34797D01*
X23433Y34835D01*
X23467Y34870D01*
X23504Y34902D01*
X23543Y34931D01*
X23585Y34957D01*
X23629Y34979D01*
X23674Y34997D01*
X23721Y35012D01*
X23768Y35023D01*
X23817Y35030D01*
X23866Y35033D01*
X23915Y35032D01*
X23963Y35027D01*
X24012Y35018D01*
X24059Y35005D01*
X24105Y34988D01*
X24149Y34968D01*
X24192Y34944D01*
X24233Y34917D01*
X24271Y34886D01*
X24307Y34853D01*
X24339Y34817D01*
X24369Y34778D01*
X24396Y34737D01*
X24419Y34693D01*
X24438Y34648D01*
X24454Y34602D01*
X24466Y34555D01*
X24474Y34506D01*
X24478Y34457D01*
X24478Y34409D01*
X24474Y34360D01*
X24466Y34311D01*
X24454Y34264D01*
X24438Y34218D01*
X24419Y34173D01*
X24396Y34129D01*
X24369Y34088D01*
X24339Y34049D01*
X24307Y34013D01*
X24271Y33980D01*
X24233Y33949D01*
X24192Y33922D01*
X24149Y33898D01*
X24105Y33878D01*
X24059Y33861D01*
X24012Y33848D01*
X23963Y33839D01*
X23915Y33834D01*
X23866Y33833D01*
X23817Y33836D01*
X23768Y33843D01*
X23721Y33854D01*
X23674Y33869D01*
X23629Y33887D01*
X23585Y33909D01*
X23543Y33935D01*
X23504Y33964D01*
X23467Y33996D01*
X23433Y34031D01*
X23401Y34069D01*
X23373Y34109D01*
X23348Y34151D01*
X23327Y34195D01*
X23310Y34241D01*
X23296Y34288D01*
X23286Y34336D01*
X23280Y34384D01*
X23278Y34433D01*
D20*
X37500Y37500D03*
X33500Y37500D03*
X33000Y66000D03*
X37000Y66000D03*
X46000Y37500D03*
X42000Y37500D03*
X40000Y66000D03*
X44000Y66000D03*
D17*
X29500Y35543D03*
X29500Y38457D03*
D20*
X46500Y51500D03*
X46500Y55500D03*
X46500Y62000D03*
X46500Y58000D03*
D13*
X34114Y33500D03*
X36752Y33500D03*
D10*
X38278Y33933D02*
X38280Y33982D01*
X38286Y34030D01*
X38296Y34078D01*
X38310Y34125D01*
X38327Y34171D01*
X38348Y34215D01*
X38373Y34257D01*
X38401Y34297D01*
X38433Y34335D01*
X38467Y34370D01*
X38504Y34402D01*
X38543Y34431D01*
X38585Y34457D01*
X38629Y34479D01*
X38674Y34497D01*
X38721Y34512D01*
X38768Y34523D01*
X38817Y34530D01*
X38866Y34533D01*
X38915Y34532D01*
X38963Y34527D01*
X39012Y34518D01*
X39059Y34505D01*
X39105Y34488D01*
X39149Y34468D01*
X39192Y34444D01*
X39233Y34417D01*
X39271Y34386D01*
X39307Y34353D01*
X39339Y34317D01*
X39369Y34278D01*
X39396Y34237D01*
X39419Y34193D01*
X39438Y34148D01*
X39454Y34102D01*
X39466Y34055D01*
X39474Y34006D01*
X39478Y33957D01*
X39478Y33909D01*
X39474Y33860D01*
X39466Y33811D01*
X39454Y33764D01*
X39438Y33718D01*
X39419Y33673D01*
X39396Y33629D01*
X39369Y33588D01*
X39339Y33549D01*
X39307Y33513D01*
X39271Y33480D01*
X39233Y33449D01*
X39192Y33422D01*
X39149Y33398D01*
X39105Y33378D01*
X39059Y33361D01*
X39012Y33348D01*
X38963Y33339D01*
X38915Y33334D01*
X38866Y33333D01*
X38817Y33336D01*
X38768Y33343D01*
X38721Y33354D01*
X38674Y33369D01*
X38629Y33387D01*
X38585Y33409D01*
X38543Y33435D01*
X38504Y33464D01*
X38467Y33496D01*
X38433Y33531D01*
X38401Y33569D01*
X38373Y33609D01*
X38348Y33651D01*
X38327Y33695D01*
X38310Y33741D01*
X38296Y33788D01*
X38286Y33836D01*
X38280Y33884D01*
X38278Y33933D01*
D13*
X43614Y33500D03*
X46252Y33500D03*
D10*
X47778Y33933D02*
X47780Y33982D01*
X47786Y34030D01*
X47796Y34078D01*
X47810Y34125D01*
X47827Y34171D01*
X47848Y34215D01*
X47873Y34257D01*
X47901Y34297D01*
X47933Y34335D01*
X47967Y34370D01*
X48004Y34402D01*
X48043Y34431D01*
X48085Y34457D01*
X48129Y34479D01*
X48174Y34497D01*
X48221Y34512D01*
X48268Y34523D01*
X48317Y34530D01*
X48366Y34533D01*
X48415Y34532D01*
X48463Y34527D01*
X48512Y34518D01*
X48559Y34505D01*
X48605Y34488D01*
X48649Y34468D01*
X48692Y34444D01*
X48733Y34417D01*
X48771Y34386D01*
X48807Y34353D01*
X48839Y34317D01*
X48869Y34278D01*
X48896Y34237D01*
X48919Y34193D01*
X48938Y34148D01*
X48954Y34102D01*
X48966Y34055D01*
X48974Y34006D01*
X48978Y33957D01*
X48978Y33909D01*
X48974Y33860D01*
X48966Y33811D01*
X48954Y33764D01*
X48938Y33718D01*
X48919Y33673D01*
X48896Y33629D01*
X48869Y33588D01*
X48839Y33549D01*
X48807Y33513D01*
X48771Y33480D01*
X48733Y33449D01*
X48692Y33422D01*
X48649Y33398D01*
X48605Y33378D01*
X48559Y33361D01*
X48512Y33348D01*
X48463Y33339D01*
X48415Y33334D01*
X48366Y33333D01*
X48317Y33336D01*
X48268Y33343D01*
X48221Y33354D01*
X48174Y33369D01*
X48129Y33387D01*
X48085Y33409D01*
X48043Y33435D01*
X48004Y33464D01*
X47967Y33496D01*
X47933Y33531D01*
X47901Y33569D01*
X47873Y33609D01*
X47848Y33651D01*
X47827Y33695D01*
X47810Y33741D01*
X47796Y33788D01*
X47786Y33836D01*
X47780Y33884D01*
X47778Y33933D01*
D21*
X10500Y35500D03*
X12469Y37469D03*
X14437Y35500D03*
X12469Y33531D03*
X12469Y35500D03*
D22*
X7543Y64000D03*
X10457Y64000D03*
D23*
X9726Y30600D03*
X10474Y30600D03*
D24*
X21000Y62520D02*
X22500Y62520D01*
X21000Y62520D02*
X21000Y62500D01*
X22500Y62520D02*
X22500Y62910D01*
X24720Y65130D01*
X24720Y69960D01*
X22500Y62520D02*
X22500Y62500D01*
X24720Y69960D02*
X24752Y70000D01*
X37000Y66000D02*
X40000Y66000D01*
X39480Y62520D02*
X38040Y62520D01*
X38000Y62500D01*
X39480Y62520D02*
X39500Y62500D01*
X33780Y69180D02*
X33780Y69960D01*
X33780Y69180D02*
X36960Y66000D01*
X33780Y69960D02*
X33752Y70000D01*
X36960Y66000D02*
X37000Y66000D01*
X46500Y62800D02*
X46500Y62000D01*
X46500Y62800D02*
X48480Y64780D01*
X48480Y67390D01*
X41410Y67390D01*
X40020Y66000D01*
X40000Y66000D01*
X33540Y37500D02*
X33540Y36720D01*
X36720Y33540D01*
X33540Y37500D02*
X33500Y37500D01*
X36720Y33540D02*
X36752Y33500D01*
X3960Y61180D02*
X3960Y61740D01*
X3960Y61180D02*
X2020Y59240D01*
X2020Y54240D01*
X3508Y52752D01*
X3960Y61740D02*
X4000Y61752D01*
X4000Y52752D02*
X3508Y52752D01*
X29520Y31640D02*
X29520Y30600D01*
X29520Y31640D02*
X30660Y32780D01*
X30660Y34380D01*
X29520Y35520D01*
X29520Y30600D02*
X29500Y30543D01*
X29520Y35520D02*
X29500Y35543D01*
X18620Y38040D02*
X18180Y38040D01*
X18620Y38040D02*
X19960Y39380D01*
X24460Y39380D01*
X25800Y38040D01*
X18180Y38040D02*
X18161Y38000D01*
X25800Y38040D02*
X25839Y38000D01*
X28260Y35580D02*
X29460Y35580D01*
X28260Y35580D02*
X25860Y37980D01*
X29460Y35580D02*
X29500Y35543D01*
X25860Y37980D02*
X25839Y38000D01*
X7020Y37840D02*
X7020Y35340D01*
X7020Y37840D02*
X9660Y40480D01*
X9660Y41680D02*
X9660Y43140D01*
X8520Y44280D01*
X7020Y35340D02*
X7000Y35339D01*
X8520Y44280D02*
X8500Y44339D01*
X8040Y44760D02*
X8040Y50160D01*
X8040Y44760D02*
X8460Y44340D01*
X8040Y50160D02*
X8000Y50161D01*
X8460Y44340D02*
X8500Y44339D01*
X7560Y63080D02*
X7560Y63960D01*
X7560Y63080D02*
X9380Y61260D01*
X9380Y59060D01*
X8040Y57720D01*
X7560Y63960D02*
X7543Y64000D01*
X8040Y57720D02*
X8000Y57661D01*
X8040Y70180D02*
X8040Y70320D01*
X8040Y70180D02*
X9880Y68340D01*
X9880Y65340D01*
X8880Y65340D02*
X7560Y64020D01*
X8040Y70320D02*
X8000Y70339D01*
X7560Y64020D02*
X7543Y64000D01*
X22740Y61300D02*
X27161Y65721D01*
X22740Y61300D02*
X20940Y61300D01*
X20260Y61980D01*
X10970Y65340D02*
X9880Y65340D01*
X10970Y65340D02*
X11550Y64760D01*
X14060Y64760D01*
X15300Y66000D01*
X15339Y66000D01*
X9380Y51400D02*
X8141Y50161D01*
X9380Y51400D02*
X9380Y56320D01*
X8040Y57660D01*
X8000Y57661D01*
X13300Y38040D02*
X18120Y38040D01*
X13300Y38040D02*
X9660Y41680D01*
X18120Y38040D02*
X18161Y38000D01*
X8141Y50161D02*
X8000Y50161D01*
X27161Y65721D02*
X27161Y66000D01*
X20260Y66000D02*
X20250Y66000D01*
X20050Y66000D01*
X19650Y66000D01*
X19500Y66000D01*
X15339Y66000D01*
X9660Y41680D02*
X9660Y40480D01*
X9880Y65340D02*
X8880Y65340D01*
X19650Y66000D02*
X20050Y66000D01*
D25*
X20260Y61980D03*
D24*
X20250Y66000D02*
X19500Y66000D01*
X20250Y66000D02*
X20661Y66000D01*
X20260Y65990D02*
X20260Y61980D01*
X20260Y65990D02*
X20250Y66000D01*
X45700Y45940D02*
X45700Y40461D01*
X45700Y45940D02*
X46980Y47220D01*
X47000Y47252D01*
X49800Y50040D02*
X49800Y66000D01*
X49800Y50040D02*
X47040Y47280D01*
X49800Y66000D02*
X49839Y66000D01*
X47040Y47280D02*
X47000Y47252D01*
X45700Y40461D02*
X46161Y40000D01*
X7980Y60300D02*
X5160Y60300D01*
X7980Y60300D02*
X8000Y60339D01*
X4020Y59160D02*
X4000Y59114D01*
X4020Y59160D02*
X5160Y60300D01*
X42600Y69060D02*
X45540Y69060D01*
X48480Y72000D01*
X42600Y69060D02*
X42594Y69047D01*
X48480Y72000D02*
X48500Y72000D01*
X37410Y38400D02*
X29520Y38400D01*
X37410Y38400D02*
X41050Y34760D01*
X44980Y34760D01*
X46200Y33540D01*
X29520Y38400D02*
X29500Y38457D01*
X46200Y33540D02*
X46252Y33500D01*
X23160Y37980D02*
X19140Y33960D01*
X23160Y37980D02*
X23161Y38000D01*
X19114Y34000D02*
X19140Y33960D01*
X7980Y67620D02*
X4020Y67620D01*
X7980Y67620D02*
X8000Y67661D01*
X4020Y67620D02*
X4000Y67614D01*
X40020Y37500D02*
X42000Y37500D01*
X40020Y37500D02*
X36540Y40980D01*
X33500Y42500D01*
X47160Y64140D02*
X47160Y66000D01*
X47160Y64140D02*
X42000Y58980D01*
X42000Y37500D01*
X47160Y66000D02*
X47161Y66000D01*
X22500Y42480D02*
X19500Y42480D01*
X19500Y42500D01*
X22500Y42480D02*
X22500Y42500D01*
X33000Y64290D02*
X33000Y66000D01*
X33000Y64290D02*
X32520Y63810D01*
X32520Y45900D01*
X32820Y46200D02*
X36480Y42540D01*
X36500Y42500D01*
X29160Y42540D02*
X22500Y42540D01*
X32770Y46150D02*
X32820Y46200D01*
X22500Y42540D02*
X22500Y42500D01*
X29160Y42540D02*
X32320Y45700D01*
X32720Y46100D01*
X32770Y46150D01*
X32520Y45900D01*
X29880Y66000D02*
X29880Y68760D01*
X31080Y69960D01*
X29880Y66000D02*
X29839Y66000D01*
X31080Y69960D02*
X31114Y70000D01*
X46500Y55500D02*
X46500Y52570D01*
X44620Y50690D01*
X44620Y38740D01*
X44740Y38620D01*
X47440Y38620D01*
X48780Y39960D01*
X48839Y40000D01*
X18280Y42480D02*
X16500Y42480D01*
X18280Y42480D02*
X20640Y40120D01*
X36220Y40120D01*
X39700Y36640D01*
X42520Y36640D01*
X44620Y38740D01*
X16500Y42480D02*
X16500Y42500D01*
X12720Y66000D02*
X12720Y69600D01*
X13080Y69960D01*
X12720Y66000D02*
X12661Y66000D01*
X13080Y69960D02*
X13114Y70000D01*
X23280Y68820D02*
X23280Y66000D01*
X23280Y68820D02*
X22140Y69960D01*
X23280Y66000D02*
X23339Y66000D01*
X22140Y69960D02*
X22114Y70000D01*
X6960Y32640D02*
X4020Y32640D01*
X3540Y32160D01*
X6960Y32640D02*
X7000Y32661D01*
X3540Y32160D02*
X3500Y32114D01*
X6660Y52800D02*
X7980Y52800D01*
X6660Y52800D02*
X4020Y50160D01*
X7980Y52800D02*
X8000Y52839D01*
X4020Y50160D02*
X4000Y50114D01*
X4500Y41640D02*
X8460Y41640D01*
X4500Y41640D02*
X4020Y41160D01*
X8460Y41640D02*
X8500Y41661D01*
X4020Y41160D02*
X4000Y41114D01*
X41000Y66000D02*
X44000Y66000D01*
X41000Y66000D02*
X38410Y63410D01*
X35930Y63410D01*
X35040Y62520D01*
X35000Y62500D01*
X29520Y34740D02*
X29520Y33480D01*
X29500Y33457D01*
X33540Y62520D02*
X34980Y62520D01*
X35000Y62500D01*
X33540Y62520D02*
X33500Y62500D01*
D26*
X29520Y34740D03*
D24*
X15060Y63960D02*
X10500Y63960D01*
X15060Y63960D02*
X16500Y62520D01*
X10500Y63960D02*
X10457Y64000D01*
X16500Y62520D02*
X18000Y62520D01*
X16500Y62520D02*
X16500Y62500D01*
X18000Y62520D02*
X18000Y62500D01*
X12469Y37469D02*
X13487Y36450D01*
X19289Y36450D02*
X20839Y38000D01*
X19289Y36450D02*
X13487Y36450D01*
X10474Y35474D02*
X10474Y30600D01*
X10474Y35474D02*
X10500Y35500D01*
M02*
