G04 EAGLE Gerber RS-274X export*
G04 #@! %TF.Part,Single*
G04 #@! %TF.FileFunction,Other,Top Silkscreen*
G04 #@! %TF.FilePolarity,Positive*
G04 #@! %TF.GenerationSoftware,Autodesk,EAGLE,9.5.2*
G04 #@! %TF.CreationDate,2020-01-10T22:13:51Z*
G75*
%MOIN*%
%FSLAX34Y34*%
%LPD*%
%INTop Silkscreen*%
%IPPOS*%
%AMOC8*
5,1,8,0,0,1.08239X$1,22.5*%
G01*
%ADD10C,0.003937*%
%ADD11C,0.004000*%
%ADD12C,0.007874*%
%ADD13R,0.007874X0.078740*%
%ADD14R,0.059055X0.039370*%
%ADD15R,0.078740X0.007874*%
%ADD16R,0.039370X0.059055*%
%ADD17C,0.007874*%
%ADD18C,0.008000*%
%ADD19R,0.244094X0.049213*%
%ADD20C,0.011811*%
%ADD21C,0.011811*%
%ADD22C,0.005000*%
%ADD23R,0.049213X0.244094*%


D10*
X2819Y63366D02*
X2386Y63366D01*
X2386Y57500D01*
X5614Y57500D01*
X5614Y63366D01*
X4394Y63366D01*
D11*
X2974Y57970D02*
X2974Y57842D01*
X2974Y57970D02*
X2976Y57991D01*
X2981Y58012D01*
X2989Y58031D01*
X3001Y58049D01*
X3015Y58064D01*
X3032Y58077D01*
X3051Y58087D01*
X3071Y58094D01*
X3091Y58098D01*
X3113Y58098D01*
X3133Y58094D01*
X3153Y58087D01*
X3172Y58077D01*
X3189Y58064D01*
X3203Y58049D01*
X3215Y58031D01*
X3223Y58012D01*
X3228Y57991D01*
X3230Y57970D01*
X3230Y57842D01*
X2770Y57842D01*
X2770Y57970D01*
X2772Y57989D01*
X2777Y58007D01*
X2785Y58024D01*
X2797Y58039D01*
X2811Y58051D01*
X2827Y58061D01*
X2844Y58068D01*
X2863Y58072D01*
X2881Y58072D01*
X2900Y58068D01*
X2917Y58061D01*
X2933Y58051D01*
X2947Y58039D01*
X2959Y58024D01*
X2967Y58007D01*
X2972Y57989D01*
X2974Y57970D01*
X3230Y58245D02*
X2770Y58398D01*
X3230Y58552D01*
X3115Y58513D02*
X3115Y58283D01*
X3230Y58821D02*
X3230Y58924D01*
X3230Y58821D02*
X3228Y58803D01*
X3224Y58786D01*
X3216Y58770D01*
X3206Y58755D01*
X3194Y58743D01*
X3179Y58733D01*
X3163Y58725D01*
X3146Y58721D01*
X3128Y58719D01*
X2872Y58719D01*
X2852Y58721D01*
X2833Y58727D01*
X2815Y58736D01*
X2800Y58749D01*
X2787Y58764D01*
X2778Y58782D01*
X2772Y58801D01*
X2770Y58821D01*
X2770Y58924D01*
X2770Y59117D02*
X3230Y59117D01*
X3051Y59117D02*
X2770Y59373D01*
X2949Y59219D02*
X3230Y59373D01*
X3102Y59560D02*
X2770Y59560D01*
X3102Y59560D02*
X3123Y59562D01*
X3144Y59567D01*
X3163Y59575D01*
X3181Y59587D01*
X3196Y59601D01*
X3209Y59618D01*
X3219Y59637D01*
X3226Y59657D01*
X3230Y59677D01*
X3230Y59699D01*
X3226Y59719D01*
X3219Y59739D01*
X3209Y59758D01*
X3196Y59775D01*
X3181Y59789D01*
X3163Y59801D01*
X3144Y59809D01*
X3123Y59814D01*
X3102Y59816D01*
X2770Y59816D01*
X2770Y60047D02*
X3230Y60047D01*
X2770Y60047D02*
X2770Y60175D01*
X2772Y60196D01*
X2777Y60217D01*
X2785Y60236D01*
X2797Y60254D01*
X2811Y60269D01*
X2828Y60282D01*
X2847Y60292D01*
X2867Y60299D01*
X2887Y60303D01*
X2909Y60303D01*
X2929Y60299D01*
X2949Y60292D01*
X2968Y60282D01*
X2985Y60269D01*
X2999Y60254D01*
X3011Y60236D01*
X3019Y60217D01*
X3024Y60196D01*
X3026Y60175D01*
X3026Y60047D01*
X3051Y60480D02*
X3051Y60787D01*
X3230Y61086D02*
X3230Y61189D01*
X3230Y61086D02*
X3228Y61068D01*
X3224Y61051D01*
X3216Y61035D01*
X3206Y61020D01*
X3194Y61008D01*
X3179Y60998D01*
X3163Y60990D01*
X3146Y60986D01*
X3128Y60984D01*
X2872Y60984D01*
X2852Y60986D01*
X2833Y60992D01*
X2815Y61001D01*
X2800Y61014D01*
X2787Y61029D01*
X2778Y61047D01*
X2772Y61066D01*
X2770Y61086D01*
X2770Y61189D01*
X2770Y61488D02*
X3230Y61335D01*
X3230Y61642D02*
X2770Y61488D01*
X3115Y61603D02*
X3115Y61373D01*
X3230Y61830D02*
X2770Y61830D01*
X3026Y61983D01*
X2770Y62137D01*
X3230Y62137D01*
X4770Y57404D02*
X4872Y57277D01*
X4770Y57404D02*
X5230Y57404D01*
X5230Y57277D02*
X5230Y57532D01*
X5230Y57727D02*
X5230Y57880D01*
X5228Y57898D01*
X5224Y57915D01*
X5216Y57931D01*
X5206Y57946D01*
X5194Y57958D01*
X5179Y57968D01*
X5163Y57976D01*
X5146Y57980D01*
X5128Y57982D01*
X5077Y57982D01*
X5059Y57980D01*
X5042Y57976D01*
X5026Y57968D01*
X5011Y57958D01*
X4999Y57946D01*
X4989Y57931D01*
X4981Y57915D01*
X4977Y57898D01*
X4975Y57880D01*
X4974Y57880D02*
X4974Y57727D01*
X4770Y57727D01*
X4770Y57982D01*
X5051Y58181D02*
X5051Y58488D01*
X5230Y58687D02*
X5230Y58814D01*
X5228Y58835D01*
X5223Y58856D01*
X5215Y58875D01*
X5203Y58893D01*
X5189Y58908D01*
X5172Y58921D01*
X5153Y58931D01*
X5133Y58938D01*
X5113Y58942D01*
X5091Y58942D01*
X5071Y58938D01*
X5051Y58931D01*
X5032Y58921D01*
X5015Y58908D01*
X5001Y58893D01*
X4989Y58875D01*
X4981Y58856D01*
X4976Y58835D01*
X4974Y58814D01*
X4770Y58840D02*
X4770Y58687D01*
X4770Y58840D02*
X4772Y58859D01*
X4777Y58877D01*
X4785Y58894D01*
X4797Y58909D01*
X4811Y58921D01*
X4827Y58931D01*
X4844Y58938D01*
X4863Y58942D01*
X4881Y58942D01*
X4900Y58938D01*
X4917Y58931D01*
X4933Y58921D01*
X4947Y58909D01*
X4959Y58894D01*
X4967Y58877D01*
X4972Y58859D01*
X4974Y58840D01*
X4974Y58738D01*
X4872Y59137D02*
X4770Y59264D01*
X5230Y59264D01*
X5230Y59137D02*
X5230Y59392D01*
X5051Y59591D02*
X5051Y59898D01*
X4872Y60097D02*
X4770Y60224D01*
X5230Y60224D01*
X5230Y60097D02*
X5230Y60352D01*
X5000Y60547D02*
X4966Y60549D01*
X4932Y60553D01*
X4898Y60561D01*
X4865Y60572D01*
X4834Y60585D01*
X4834Y60584D02*
X4819Y60591D01*
X4805Y60600D01*
X4793Y60612D01*
X4783Y60626D01*
X4776Y60641D01*
X4771Y60657D01*
X4770Y60674D01*
X4771Y60691D01*
X4776Y60707D01*
X4783Y60722D01*
X4793Y60736D01*
X4805Y60748D01*
X4819Y60757D01*
X4834Y60764D01*
X4865Y60777D01*
X4898Y60788D01*
X4932Y60796D01*
X4966Y60800D01*
X5000Y60802D01*
X5000Y60547D02*
X5034Y60549D01*
X5068Y60553D01*
X5102Y60561D01*
X5135Y60572D01*
X5166Y60585D01*
X5166Y60584D02*
X5181Y60591D01*
X5195Y60600D01*
X5207Y60612D01*
X5217Y60626D01*
X5224Y60641D01*
X5229Y60657D01*
X5230Y60674D01*
X5166Y60764D02*
X5135Y60777D01*
X5102Y60788D01*
X5068Y60796D01*
X5034Y60800D01*
X5000Y60802D01*
X5166Y60764D02*
X5181Y60757D01*
X5195Y60748D01*
X5207Y60736D01*
X5217Y60722D01*
X5224Y60707D01*
X5229Y60691D01*
X5230Y60674D01*
X5128Y60572D02*
X4872Y60777D01*
X4770Y61137D02*
X4772Y61157D01*
X4777Y61176D01*
X4785Y61195D01*
X4797Y61211D01*
X4811Y61225D01*
X4828Y61237D01*
X4846Y61245D01*
X4865Y61250D01*
X4885Y61252D01*
X4770Y61137D02*
X4772Y61114D01*
X4777Y61091D01*
X4786Y61070D01*
X4798Y61050D01*
X4813Y61032D01*
X4831Y61017D01*
X4851Y61005D01*
X4872Y60996D01*
X4975Y61215D02*
X4960Y61228D01*
X4943Y61239D01*
X4924Y61247D01*
X4905Y61251D01*
X4885Y61253D01*
X4974Y61214D02*
X5230Y60997D01*
X5230Y61252D01*
X4974Y61447D02*
X4974Y61600D01*
X4975Y61600D02*
X4977Y61618D01*
X4981Y61635D01*
X4989Y61651D01*
X4999Y61666D01*
X5011Y61678D01*
X5026Y61688D01*
X5042Y61696D01*
X5059Y61700D01*
X5077Y61702D01*
X5102Y61702D01*
X5123Y61700D01*
X5144Y61695D01*
X5163Y61687D01*
X5181Y61675D01*
X5196Y61661D01*
X5209Y61644D01*
X5219Y61625D01*
X5226Y61605D01*
X5230Y61585D01*
X5230Y61563D01*
X5226Y61543D01*
X5219Y61523D01*
X5209Y61504D01*
X5196Y61487D01*
X5181Y61473D01*
X5163Y61461D01*
X5144Y61453D01*
X5123Y61448D01*
X5102Y61446D01*
X5102Y61447D02*
X4974Y61447D01*
X4947Y61449D01*
X4921Y61454D01*
X4896Y61463D01*
X4872Y61474D01*
X4850Y61489D01*
X4830Y61507D01*
X4812Y61527D01*
X4797Y61549D01*
X4786Y61573D01*
X4777Y61598D01*
X4772Y61624D01*
X4770Y61651D01*
D10*
X2819Y71866D02*
X2386Y71866D01*
X2386Y66000D01*
X5614Y66000D01*
X5614Y71866D01*
X4394Y71866D01*
D11*
X2974Y66513D02*
X2974Y66385D01*
X2974Y66513D02*
X2976Y66534D01*
X2981Y66555D01*
X2989Y66574D01*
X3001Y66592D01*
X3015Y66607D01*
X3032Y66620D01*
X3051Y66630D01*
X3071Y66637D01*
X3091Y66641D01*
X3113Y66641D01*
X3133Y66637D01*
X3153Y66630D01*
X3172Y66620D01*
X3189Y66607D01*
X3203Y66592D01*
X3215Y66574D01*
X3223Y66555D01*
X3228Y66534D01*
X3230Y66513D01*
X3230Y66385D01*
X2770Y66385D01*
X2770Y66513D01*
X2772Y66532D01*
X2777Y66550D01*
X2785Y66567D01*
X2797Y66582D01*
X2811Y66594D01*
X2827Y66604D01*
X2844Y66611D01*
X2863Y66615D01*
X2881Y66615D01*
X2900Y66611D01*
X2917Y66604D01*
X2933Y66594D01*
X2947Y66582D01*
X2959Y66567D01*
X2967Y66550D01*
X2972Y66532D01*
X2974Y66513D01*
X2770Y66833D02*
X3230Y66833D01*
X3026Y66986D02*
X2770Y66833D01*
X3026Y66986D02*
X2770Y67139D01*
X3230Y67139D01*
X3230Y67492D02*
X3228Y67510D01*
X3224Y67527D01*
X3216Y67543D01*
X3206Y67558D01*
X3194Y67570D01*
X3179Y67580D01*
X3163Y67588D01*
X3146Y67592D01*
X3128Y67594D01*
X3230Y67492D02*
X3228Y67464D01*
X3223Y67436D01*
X3213Y67409D01*
X3201Y67383D01*
X3185Y67360D01*
X3166Y67339D01*
X2872Y67351D02*
X2854Y67353D01*
X2837Y67357D01*
X2821Y67365D01*
X2806Y67375D01*
X2794Y67387D01*
X2784Y67402D01*
X2776Y67418D01*
X2772Y67435D01*
X2770Y67453D01*
X2772Y67478D01*
X2776Y67502D01*
X2784Y67525D01*
X2795Y67548D01*
X2808Y67568D01*
X2872Y67351D02*
X2890Y67353D01*
X2907Y67357D01*
X2924Y67365D01*
X2938Y67375D01*
X2951Y67388D01*
X2962Y67402D01*
X3038Y67543D02*
X3049Y67557D01*
X3062Y67570D01*
X3076Y67580D01*
X3093Y67588D01*
X3110Y67592D01*
X3128Y67594D01*
X3038Y67543D02*
X2962Y67402D01*
X4770Y65904D02*
X4872Y65777D01*
X4770Y65904D02*
X5230Y65904D01*
X5230Y65777D02*
X5230Y66032D01*
X5230Y66227D02*
X5230Y66380D01*
X5228Y66398D01*
X5224Y66415D01*
X5216Y66431D01*
X5206Y66446D01*
X5194Y66458D01*
X5179Y66468D01*
X5163Y66476D01*
X5146Y66480D01*
X5128Y66482D01*
X5077Y66482D01*
X5059Y66480D01*
X5042Y66476D01*
X5026Y66468D01*
X5011Y66458D01*
X4999Y66446D01*
X4989Y66431D01*
X4981Y66415D01*
X4977Y66398D01*
X4975Y66380D01*
X4974Y66380D02*
X4974Y66227D01*
X4770Y66227D01*
X4770Y66482D01*
X5051Y66681D02*
X5051Y66988D01*
X5230Y67187D02*
X5230Y67314D01*
X5228Y67335D01*
X5223Y67356D01*
X5215Y67375D01*
X5203Y67393D01*
X5189Y67408D01*
X5172Y67421D01*
X5153Y67431D01*
X5133Y67438D01*
X5113Y67442D01*
X5091Y67442D01*
X5071Y67438D01*
X5051Y67431D01*
X5032Y67421D01*
X5015Y67408D01*
X5001Y67393D01*
X4989Y67375D01*
X4981Y67356D01*
X4976Y67335D01*
X4974Y67314D01*
X4770Y67340D02*
X4770Y67187D01*
X4770Y67340D02*
X4772Y67359D01*
X4777Y67377D01*
X4785Y67394D01*
X4797Y67409D01*
X4811Y67421D01*
X4827Y67431D01*
X4844Y67438D01*
X4863Y67442D01*
X4881Y67442D01*
X4900Y67438D01*
X4917Y67431D01*
X4933Y67421D01*
X4947Y67409D01*
X4959Y67394D01*
X4967Y67377D01*
X4972Y67359D01*
X4974Y67340D01*
X4974Y67238D01*
X4872Y67637D02*
X4770Y67764D01*
X5230Y67764D01*
X5230Y67637D02*
X5230Y67892D01*
X5051Y68091D02*
X5051Y68398D01*
X4872Y68597D02*
X4770Y68724D01*
X5230Y68724D01*
X5230Y68597D02*
X5230Y68852D01*
X5000Y69047D02*
X4966Y69049D01*
X4932Y69053D01*
X4898Y69061D01*
X4865Y69072D01*
X4834Y69085D01*
X4834Y69084D02*
X4819Y69091D01*
X4805Y69100D01*
X4793Y69112D01*
X4783Y69126D01*
X4776Y69141D01*
X4771Y69157D01*
X4770Y69174D01*
X4771Y69191D01*
X4776Y69207D01*
X4783Y69222D01*
X4793Y69236D01*
X4805Y69248D01*
X4819Y69257D01*
X4834Y69264D01*
X4865Y69277D01*
X4898Y69288D01*
X4932Y69296D01*
X4966Y69300D01*
X5000Y69302D01*
X5000Y69047D02*
X5034Y69049D01*
X5068Y69053D01*
X5102Y69061D01*
X5135Y69072D01*
X5166Y69085D01*
X5166Y69084D02*
X5181Y69091D01*
X5195Y69100D01*
X5207Y69112D01*
X5217Y69126D01*
X5224Y69141D01*
X5229Y69157D01*
X5230Y69174D01*
X5166Y69264D02*
X5135Y69277D01*
X5102Y69288D01*
X5068Y69296D01*
X5034Y69300D01*
X5000Y69302D01*
X5166Y69264D02*
X5181Y69257D01*
X5195Y69248D01*
X5207Y69236D01*
X5217Y69222D01*
X5224Y69207D01*
X5229Y69191D01*
X5230Y69174D01*
X5128Y69072D02*
X4872Y69277D01*
X4770Y69637D02*
X4772Y69657D01*
X4777Y69676D01*
X4785Y69695D01*
X4797Y69711D01*
X4811Y69725D01*
X4828Y69737D01*
X4846Y69745D01*
X4865Y69750D01*
X4885Y69752D01*
X4770Y69637D02*
X4772Y69614D01*
X4777Y69591D01*
X4786Y69570D01*
X4798Y69550D01*
X4813Y69532D01*
X4831Y69517D01*
X4851Y69505D01*
X4872Y69496D01*
X4975Y69715D02*
X4960Y69728D01*
X4943Y69739D01*
X4924Y69747D01*
X4905Y69751D01*
X4885Y69753D01*
X4974Y69714D02*
X5230Y69497D01*
X5230Y69752D01*
X4974Y69947D02*
X4974Y70100D01*
X4975Y70100D02*
X4977Y70118D01*
X4981Y70135D01*
X4989Y70151D01*
X4999Y70166D01*
X5011Y70178D01*
X5026Y70188D01*
X5042Y70196D01*
X5059Y70200D01*
X5077Y70202D01*
X5102Y70202D01*
X5123Y70200D01*
X5144Y70195D01*
X5163Y70187D01*
X5181Y70175D01*
X5196Y70161D01*
X5209Y70144D01*
X5219Y70125D01*
X5226Y70105D01*
X5230Y70085D01*
X5230Y70063D01*
X5226Y70043D01*
X5219Y70023D01*
X5209Y70004D01*
X5196Y69987D01*
X5181Y69973D01*
X5163Y69961D01*
X5144Y69953D01*
X5123Y69948D01*
X5102Y69946D01*
X5102Y69947D02*
X4974Y69947D01*
X4947Y69949D01*
X4921Y69954D01*
X4896Y69963D01*
X4872Y69974D01*
X4850Y69989D01*
X4830Y70007D01*
X4812Y70027D01*
X4797Y70049D01*
X4786Y70073D01*
X4777Y70098D01*
X4772Y70124D01*
X4770Y70151D01*
D12*
X17610Y37055D02*
X18713Y37055D01*
X20287Y37055D01*
X21390Y37055D01*
X21390Y38945D01*
X20287Y38945D01*
X18713Y38945D01*
X17610Y38945D01*
X17610Y37055D01*
X20287Y37055D02*
X20287Y38945D01*
X18713Y38945D02*
X18713Y37055D01*
X18791Y37528D02*
X18280Y37528D01*
X18791Y37528D02*
X20209Y37528D01*
X20720Y37528D01*
X20720Y38472D01*
X20209Y38472D01*
X18791Y38472D01*
X18280Y38472D01*
X18280Y37528D01*
X20209Y37528D02*
X20209Y38472D01*
X18791Y38472D02*
X18791Y37528D01*
D13*
X21469Y38000D03*
X17531Y38000D03*
D14*
X21055Y38000D03*
X17945Y38000D03*
D11*
X18773Y36418D02*
X18876Y36418D01*
X18773Y36418D02*
X18755Y36420D01*
X18738Y36424D01*
X18722Y36432D01*
X18707Y36442D01*
X18695Y36454D01*
X18685Y36469D01*
X18677Y36485D01*
X18673Y36502D01*
X18671Y36520D01*
X18671Y36775D01*
X18673Y36795D01*
X18679Y36814D01*
X18688Y36832D01*
X18701Y36847D01*
X18716Y36860D01*
X18734Y36869D01*
X18753Y36875D01*
X18773Y36877D01*
X18773Y36878D02*
X18876Y36878D01*
X19175Y36878D02*
X19022Y36418D01*
X19329Y36418D02*
X19175Y36878D01*
X19290Y36533D02*
X19060Y36533D01*
X19513Y36418D02*
X19513Y36878D01*
X19768Y36418D01*
X19768Y36878D01*
X19993Y36878D02*
X19993Y36418D01*
X19993Y36878D02*
X20198Y36878D01*
X20198Y36673D02*
X19993Y36673D01*
X20383Y36545D02*
X20383Y36878D01*
X20382Y36545D02*
X20384Y36524D01*
X20389Y36503D01*
X20397Y36484D01*
X20409Y36466D01*
X20423Y36451D01*
X20440Y36438D01*
X20459Y36428D01*
X20479Y36421D01*
X20499Y36417D01*
X20521Y36417D01*
X20541Y36421D01*
X20561Y36428D01*
X20580Y36438D01*
X20597Y36451D01*
X20611Y36466D01*
X20623Y36484D01*
X20631Y36503D01*
X20636Y36524D01*
X20638Y36545D01*
X20638Y36878D01*
X21088Y36520D02*
X21086Y36502D01*
X21082Y36485D01*
X21074Y36469D01*
X21064Y36454D01*
X21052Y36442D01*
X21037Y36432D01*
X21021Y36424D01*
X21004Y36420D01*
X20986Y36418D01*
X20958Y36420D01*
X20930Y36425D01*
X20903Y36435D01*
X20877Y36447D01*
X20854Y36463D01*
X20833Y36482D01*
X20846Y36775D02*
X20848Y36793D01*
X20852Y36810D01*
X20860Y36826D01*
X20870Y36841D01*
X20882Y36853D01*
X20897Y36863D01*
X20913Y36871D01*
X20930Y36875D01*
X20948Y36877D01*
X20948Y36878D02*
X20973Y36876D01*
X20997Y36872D01*
X21020Y36864D01*
X21043Y36853D01*
X21063Y36840D01*
X20845Y36775D02*
X20847Y36757D01*
X20851Y36740D01*
X20859Y36723D01*
X20869Y36709D01*
X20882Y36696D01*
X20896Y36685D01*
X21037Y36610D02*
X21051Y36599D01*
X21064Y36586D01*
X21074Y36572D01*
X21082Y36555D01*
X21086Y36538D01*
X21088Y36520D01*
X21037Y36609D02*
X20896Y36686D01*
X21283Y36418D02*
X21488Y36418D01*
X21283Y36418D02*
X21283Y36878D01*
X21488Y36878D01*
X21437Y36673D02*
X21283Y36673D01*
X17640Y39582D02*
X17512Y39480D01*
X17640Y39582D02*
X17640Y39122D01*
X17512Y39122D02*
X17768Y39122D01*
X17942Y39122D02*
X17942Y39148D01*
X17968Y39148D01*
X17968Y39122D01*
X17942Y39122D01*
X18142Y39122D02*
X18270Y39122D01*
X18291Y39124D01*
X18312Y39129D01*
X18331Y39137D01*
X18349Y39149D01*
X18364Y39163D01*
X18377Y39180D01*
X18387Y39199D01*
X18394Y39219D01*
X18398Y39239D01*
X18398Y39261D01*
X18394Y39281D01*
X18387Y39301D01*
X18377Y39320D01*
X18364Y39337D01*
X18349Y39351D01*
X18331Y39363D01*
X18312Y39371D01*
X18291Y39376D01*
X18270Y39378D01*
X18295Y39582D02*
X18142Y39582D01*
X18295Y39582D02*
X18314Y39580D01*
X18332Y39575D01*
X18349Y39567D01*
X18364Y39555D01*
X18376Y39541D01*
X18386Y39525D01*
X18393Y39508D01*
X18397Y39489D01*
X18397Y39471D01*
X18393Y39452D01*
X18386Y39435D01*
X18376Y39419D01*
X18364Y39405D01*
X18349Y39393D01*
X18332Y39385D01*
X18314Y39380D01*
X18295Y39378D01*
X18193Y39378D01*
X18807Y39122D02*
X18960Y39582D01*
X19113Y39122D01*
X19075Y39237D02*
X18845Y39237D01*
D12*
X26610Y65055D02*
X27713Y65055D01*
X29287Y65055D01*
X30390Y65055D01*
X30390Y66945D01*
X29287Y66945D01*
X27713Y66945D01*
X26610Y66945D01*
X26610Y65055D01*
X29287Y65055D02*
X29287Y66945D01*
X27713Y66945D02*
X27713Y65055D01*
X27791Y65528D02*
X27280Y65528D01*
X27791Y65528D02*
X29209Y65528D01*
X29720Y65528D01*
X29720Y66472D01*
X29209Y66472D01*
X27791Y66472D01*
X27280Y66472D01*
X27280Y65528D01*
X29209Y65528D02*
X29209Y66472D01*
X27791Y66472D02*
X27791Y65528D01*
D13*
X30469Y66000D03*
X26531Y66000D03*
D14*
X30055Y66000D03*
X26945Y66000D03*
D11*
X26618Y64878D02*
X26618Y64418D01*
X26618Y64673D02*
X26873Y64673D01*
X26873Y64878D02*
X26873Y64418D01*
X27083Y64545D02*
X27083Y64750D01*
X27082Y64750D02*
X27084Y64771D01*
X27089Y64792D01*
X27097Y64811D01*
X27109Y64829D01*
X27123Y64844D01*
X27140Y64857D01*
X27159Y64867D01*
X27179Y64874D01*
X27199Y64878D01*
X27221Y64878D01*
X27241Y64874D01*
X27261Y64867D01*
X27280Y64857D01*
X27297Y64844D01*
X27311Y64829D01*
X27323Y64811D01*
X27331Y64792D01*
X27336Y64771D01*
X27338Y64750D01*
X27338Y64545D01*
X27336Y64524D01*
X27331Y64503D01*
X27323Y64484D01*
X27311Y64466D01*
X27297Y64451D01*
X27280Y64438D01*
X27261Y64428D01*
X27241Y64421D01*
X27221Y64417D01*
X27199Y64417D01*
X27179Y64421D01*
X27159Y64428D01*
X27140Y64438D01*
X27123Y64451D01*
X27109Y64466D01*
X27097Y64484D01*
X27089Y64503D01*
X27084Y64524D01*
X27082Y64545D01*
X27550Y64418D02*
X27550Y64878D01*
X27678Y64878D01*
X27699Y64876D01*
X27720Y64871D01*
X27739Y64863D01*
X27757Y64851D01*
X27772Y64837D01*
X27785Y64820D01*
X27795Y64801D01*
X27802Y64781D01*
X27806Y64761D01*
X27806Y64739D01*
X27802Y64719D01*
X27795Y64699D01*
X27785Y64680D01*
X27772Y64663D01*
X27757Y64649D01*
X27739Y64637D01*
X27720Y64629D01*
X27699Y64624D01*
X27678Y64622D01*
X27550Y64622D01*
X27704Y64622D02*
X27806Y64418D01*
X28013Y64418D02*
X28013Y64878D01*
X28268Y64418D01*
X28268Y64878D01*
X28493Y64878D02*
X28493Y64418D01*
X28493Y64878D02*
X28698Y64878D01*
X28698Y64673D02*
X28493Y64673D01*
X28883Y64545D02*
X28883Y64878D01*
X28882Y64545D02*
X28884Y64524D01*
X28889Y64503D01*
X28897Y64484D01*
X28909Y64466D01*
X28923Y64451D01*
X28940Y64438D01*
X28959Y64428D01*
X28979Y64421D01*
X28999Y64417D01*
X29021Y64417D01*
X29041Y64421D01*
X29061Y64428D01*
X29080Y64438D01*
X29097Y64451D01*
X29111Y64466D01*
X29123Y64484D01*
X29131Y64503D01*
X29136Y64524D01*
X29138Y64545D01*
X29138Y64878D01*
X29588Y64520D02*
X29586Y64502D01*
X29582Y64485D01*
X29574Y64469D01*
X29564Y64454D01*
X29552Y64442D01*
X29537Y64432D01*
X29521Y64424D01*
X29504Y64420D01*
X29486Y64418D01*
X29458Y64420D01*
X29430Y64425D01*
X29403Y64435D01*
X29377Y64447D01*
X29354Y64463D01*
X29333Y64482D01*
X29346Y64775D02*
X29348Y64793D01*
X29352Y64810D01*
X29360Y64826D01*
X29370Y64841D01*
X29382Y64853D01*
X29397Y64863D01*
X29413Y64871D01*
X29430Y64875D01*
X29448Y64877D01*
X29448Y64878D02*
X29473Y64876D01*
X29497Y64872D01*
X29520Y64864D01*
X29543Y64853D01*
X29563Y64840D01*
X29345Y64775D02*
X29347Y64757D01*
X29351Y64740D01*
X29359Y64723D01*
X29369Y64709D01*
X29382Y64696D01*
X29396Y64685D01*
X29537Y64610D02*
X29551Y64599D01*
X29564Y64586D01*
X29574Y64572D01*
X29582Y64555D01*
X29586Y64538D01*
X29588Y64520D01*
X29537Y64609D02*
X29396Y64686D01*
X29783Y64418D02*
X29988Y64418D01*
X29783Y64418D02*
X29783Y64878D01*
X29988Y64878D01*
X29937Y64673D02*
X29783Y64673D01*
X26640Y67582D02*
X26512Y67480D01*
X26640Y67582D02*
X26640Y67122D01*
X26512Y67122D02*
X26768Y67122D01*
X26942Y67122D02*
X26942Y67148D01*
X26968Y67148D01*
X26968Y67122D01*
X26942Y67122D01*
X27142Y67122D02*
X27295Y67122D01*
X27295Y67123D02*
X27313Y67125D01*
X27330Y67129D01*
X27346Y67137D01*
X27361Y67147D01*
X27373Y67159D01*
X27383Y67174D01*
X27391Y67190D01*
X27395Y67207D01*
X27397Y67225D01*
X27398Y67225D02*
X27398Y67276D01*
X27397Y67276D02*
X27395Y67294D01*
X27391Y67311D01*
X27383Y67327D01*
X27373Y67342D01*
X27361Y67354D01*
X27346Y67364D01*
X27330Y67372D01*
X27313Y67376D01*
X27295Y67378D01*
X27142Y67378D01*
X27142Y67582D01*
X27398Y67582D01*
X27960Y67582D02*
X27807Y67122D01*
X28113Y67122D02*
X27960Y67582D01*
X28075Y67237D02*
X27845Y67237D01*
D12*
X48287Y40945D02*
X49390Y40945D01*
X48287Y40945D02*
X46713Y40945D01*
X45610Y40945D01*
X45610Y39055D01*
X46713Y39055D01*
X48287Y39055D01*
X49390Y39055D01*
X49390Y40945D01*
X46713Y40945D02*
X46713Y39055D01*
X48287Y39055D02*
X48287Y40945D01*
X48209Y40472D02*
X48720Y40472D01*
X48209Y40472D02*
X46791Y40472D01*
X46280Y40472D01*
X46280Y39528D01*
X46791Y39528D01*
X48209Y39528D01*
X48720Y39528D01*
X48720Y40472D01*
X46791Y40472D02*
X46791Y39528D01*
X48209Y39528D02*
X48209Y40472D01*
D13*
X45531Y40000D03*
X49469Y40000D03*
D14*
X45945Y40000D03*
X49055Y40000D03*
D11*
X45665Y41122D02*
X45512Y41582D01*
X45819Y41582D02*
X45665Y41122D01*
X45962Y41122D02*
X46115Y41582D01*
X46269Y41122D01*
X46230Y41237D02*
X46000Y41237D01*
X46456Y41122D02*
X46456Y41582D01*
X46583Y41582D01*
X46583Y41583D02*
X46604Y41581D01*
X46625Y41576D01*
X46644Y41568D01*
X46662Y41556D01*
X46677Y41542D01*
X46690Y41525D01*
X46700Y41506D01*
X46707Y41486D01*
X46711Y41466D01*
X46711Y41444D01*
X46707Y41424D01*
X46700Y41404D01*
X46690Y41385D01*
X46677Y41368D01*
X46662Y41354D01*
X46644Y41342D01*
X46625Y41334D01*
X46604Y41329D01*
X46583Y41327D01*
X46456Y41327D01*
X46609Y41327D02*
X46711Y41122D01*
X46924Y41378D02*
X47052Y41378D01*
X47073Y41376D01*
X47094Y41371D01*
X47113Y41363D01*
X47131Y41351D01*
X47146Y41337D01*
X47159Y41320D01*
X47169Y41301D01*
X47176Y41281D01*
X47180Y41261D01*
X47180Y41239D01*
X47176Y41219D01*
X47169Y41199D01*
X47159Y41180D01*
X47146Y41163D01*
X47131Y41149D01*
X47113Y41137D01*
X47094Y41129D01*
X47073Y41124D01*
X47052Y41122D01*
X46924Y41122D01*
X46924Y41582D01*
X47052Y41582D01*
X47071Y41580D01*
X47089Y41575D01*
X47106Y41567D01*
X47121Y41555D01*
X47133Y41541D01*
X47143Y41525D01*
X47150Y41508D01*
X47154Y41489D01*
X47154Y41471D01*
X47150Y41452D01*
X47143Y41435D01*
X47133Y41419D01*
X47121Y41405D01*
X47106Y41393D01*
X47089Y41385D01*
X47071Y41380D01*
X47052Y41378D01*
X47368Y41250D02*
X47368Y41582D01*
X47367Y41250D02*
X47369Y41229D01*
X47374Y41208D01*
X47382Y41189D01*
X47394Y41171D01*
X47408Y41156D01*
X47425Y41143D01*
X47444Y41133D01*
X47464Y41126D01*
X47484Y41122D01*
X47506Y41122D01*
X47526Y41126D01*
X47546Y41133D01*
X47565Y41143D01*
X47582Y41156D01*
X47596Y41171D01*
X47608Y41189D01*
X47616Y41208D01*
X47621Y41229D01*
X47623Y41250D01*
X47623Y41582D01*
X47934Y41122D02*
X48036Y41122D01*
X47934Y41123D02*
X47916Y41125D01*
X47899Y41129D01*
X47883Y41137D01*
X47868Y41147D01*
X47856Y41159D01*
X47846Y41174D01*
X47838Y41190D01*
X47834Y41207D01*
X47832Y41225D01*
X47831Y41225D02*
X47831Y41480D01*
X47832Y41480D02*
X47834Y41500D01*
X47840Y41519D01*
X47849Y41537D01*
X47862Y41552D01*
X47877Y41565D01*
X47895Y41574D01*
X47914Y41580D01*
X47934Y41582D01*
X48036Y41582D01*
X48229Y41582D02*
X48229Y41122D01*
X48229Y41301D02*
X48485Y41582D01*
X48332Y41403D02*
X48485Y41122D01*
X48674Y41122D02*
X48674Y41582D01*
X48878Y41582D01*
X48878Y41378D02*
X48674Y41378D01*
X49063Y41250D02*
X49063Y41582D01*
X49062Y41250D02*
X49064Y41229D01*
X49069Y41208D01*
X49077Y41189D01*
X49089Y41171D01*
X49103Y41156D01*
X49120Y41143D01*
X49139Y41133D01*
X49159Y41126D01*
X49179Y41122D01*
X49201Y41122D01*
X49221Y41126D01*
X49241Y41133D01*
X49260Y41143D01*
X49277Y41156D01*
X49291Y41171D01*
X49303Y41189D01*
X49311Y41208D01*
X49316Y41229D01*
X49318Y41250D01*
X49318Y41582D01*
X49768Y41225D02*
X49766Y41207D01*
X49762Y41190D01*
X49754Y41174D01*
X49744Y41159D01*
X49732Y41147D01*
X49717Y41137D01*
X49701Y41129D01*
X49684Y41125D01*
X49666Y41123D01*
X49666Y41122D02*
X49638Y41124D01*
X49610Y41129D01*
X49583Y41139D01*
X49557Y41151D01*
X49534Y41167D01*
X49513Y41186D01*
X49526Y41480D02*
X49528Y41498D01*
X49532Y41515D01*
X49540Y41531D01*
X49550Y41546D01*
X49562Y41558D01*
X49577Y41568D01*
X49593Y41576D01*
X49610Y41580D01*
X49628Y41582D01*
X49628Y41583D02*
X49653Y41581D01*
X49677Y41577D01*
X49700Y41569D01*
X49723Y41558D01*
X49743Y41545D01*
X49525Y41480D02*
X49527Y41462D01*
X49531Y41445D01*
X49539Y41428D01*
X49549Y41414D01*
X49562Y41401D01*
X49576Y41390D01*
X49717Y41315D02*
X49731Y41304D01*
X49744Y41291D01*
X49754Y41277D01*
X49762Y41260D01*
X49766Y41243D01*
X49768Y41225D01*
X49717Y41314D02*
X49577Y41391D01*
X49964Y41122D02*
X50168Y41122D01*
X49964Y41122D02*
X49964Y41582D01*
X50168Y41582D01*
X50117Y41378D02*
X49964Y41378D01*
X48897Y38878D02*
X48917Y38876D01*
X48936Y38871D01*
X48955Y38863D01*
X48971Y38851D01*
X48985Y38837D01*
X48997Y38821D01*
X49005Y38802D01*
X49010Y38783D01*
X49012Y38763D01*
X48897Y38878D02*
X48874Y38876D01*
X48851Y38871D01*
X48830Y38862D01*
X48810Y38850D01*
X48792Y38835D01*
X48777Y38817D01*
X48765Y38797D01*
X48756Y38776D01*
X48975Y38673D02*
X48988Y38688D01*
X48999Y38705D01*
X49007Y38724D01*
X49011Y38743D01*
X49013Y38763D01*
X48974Y38673D02*
X48757Y38418D01*
X49012Y38418D01*
X49181Y38418D02*
X49335Y38878D01*
X49488Y38418D01*
X49450Y38533D02*
X49220Y38533D01*
D12*
X15890Y66945D02*
X14787Y66945D01*
X13213Y66945D01*
X12110Y66945D01*
X12110Y65055D01*
X13213Y65055D01*
X14787Y65055D01*
X15890Y65055D01*
X15890Y66945D01*
X13213Y66945D02*
X13213Y65055D01*
X14787Y65055D02*
X14787Y66945D01*
X14709Y66472D02*
X15220Y66472D01*
X14709Y66472D02*
X13291Y66472D01*
X12780Y66472D01*
X12780Y65528D01*
X13291Y65528D01*
X14709Y65528D01*
X15220Y65528D01*
X15220Y66472D01*
X13291Y66472D02*
X13291Y65528D01*
X14709Y65528D02*
X14709Y66472D01*
D13*
X12031Y66000D03*
X15969Y66000D03*
D14*
X12445Y66000D03*
X15555Y66000D03*
D11*
X12165Y67122D02*
X12012Y67582D01*
X12319Y67582D02*
X12165Y67122D01*
X12462Y67122D02*
X12615Y67582D01*
X12769Y67122D01*
X12730Y67237D02*
X12500Y67237D01*
X12956Y67122D02*
X12956Y67582D01*
X13083Y67582D01*
X13083Y67583D02*
X13104Y67581D01*
X13125Y67576D01*
X13144Y67568D01*
X13162Y67556D01*
X13177Y67542D01*
X13190Y67525D01*
X13200Y67506D01*
X13207Y67486D01*
X13211Y67466D01*
X13211Y67444D01*
X13207Y67424D01*
X13200Y67404D01*
X13190Y67385D01*
X13177Y67368D01*
X13162Y67354D01*
X13144Y67342D01*
X13125Y67334D01*
X13104Y67329D01*
X13083Y67327D01*
X12956Y67327D01*
X13109Y67327D02*
X13211Y67122D01*
X13422Y67122D02*
X13422Y67582D01*
X13575Y67327D01*
X13729Y67582D01*
X13729Y67122D01*
X13964Y67122D02*
X13964Y67582D01*
X14092Y67582D01*
X14092Y67583D02*
X14113Y67581D01*
X14134Y67576D01*
X14153Y67568D01*
X14171Y67556D01*
X14186Y67542D01*
X14199Y67525D01*
X14209Y67506D01*
X14216Y67486D01*
X14220Y67466D01*
X14220Y67444D01*
X14216Y67424D01*
X14209Y67404D01*
X14199Y67385D01*
X14186Y67368D01*
X14171Y67354D01*
X14153Y67342D01*
X14134Y67334D01*
X14113Y67329D01*
X14092Y67327D01*
X13964Y67327D01*
X14409Y67122D02*
X14409Y67582D01*
X14613Y67582D01*
X14613Y67378D02*
X14409Y67378D01*
X14798Y67250D02*
X14798Y67582D01*
X14797Y67250D02*
X14799Y67229D01*
X14804Y67208D01*
X14812Y67189D01*
X14824Y67171D01*
X14838Y67156D01*
X14855Y67143D01*
X14874Y67133D01*
X14894Y67126D01*
X14914Y67122D01*
X14936Y67122D01*
X14956Y67126D01*
X14976Y67133D01*
X14995Y67143D01*
X15012Y67156D01*
X15026Y67171D01*
X15038Y67189D01*
X15046Y67208D01*
X15051Y67229D01*
X15053Y67250D01*
X15053Y67582D01*
X15503Y67225D02*
X15501Y67207D01*
X15497Y67190D01*
X15489Y67174D01*
X15479Y67159D01*
X15467Y67147D01*
X15452Y67137D01*
X15436Y67129D01*
X15419Y67125D01*
X15401Y67123D01*
X15401Y67122D02*
X15373Y67124D01*
X15345Y67129D01*
X15318Y67139D01*
X15292Y67151D01*
X15269Y67167D01*
X15248Y67186D01*
X15261Y67480D02*
X15263Y67498D01*
X15267Y67515D01*
X15275Y67531D01*
X15285Y67546D01*
X15297Y67558D01*
X15312Y67568D01*
X15328Y67576D01*
X15345Y67580D01*
X15363Y67582D01*
X15363Y67583D02*
X15388Y67581D01*
X15412Y67577D01*
X15435Y67569D01*
X15458Y67558D01*
X15478Y67545D01*
X15260Y67480D02*
X15262Y67462D01*
X15266Y67445D01*
X15274Y67428D01*
X15284Y67414D01*
X15297Y67401D01*
X15311Y67390D01*
X15452Y67315D02*
X15466Y67304D01*
X15479Y67291D01*
X15489Y67277D01*
X15497Y67260D01*
X15501Y67243D01*
X15503Y67225D01*
X15452Y67314D02*
X15312Y67391D01*
X15699Y67122D02*
X15903Y67122D01*
X15699Y67122D02*
X15699Y67582D01*
X15903Y67582D01*
X15852Y67378D02*
X15699Y67378D01*
X14425Y64814D02*
X14412Y64783D01*
X14401Y64750D01*
X14393Y64716D01*
X14389Y64682D01*
X14387Y64648D01*
X14425Y64814D02*
X14432Y64829D01*
X14441Y64843D01*
X14453Y64855D01*
X14467Y64865D01*
X14482Y64872D01*
X14498Y64877D01*
X14515Y64878D01*
X14532Y64877D01*
X14548Y64872D01*
X14563Y64865D01*
X14577Y64855D01*
X14589Y64843D01*
X14598Y64829D01*
X14605Y64814D01*
X14604Y64814D02*
X14617Y64783D01*
X14628Y64750D01*
X14636Y64716D01*
X14640Y64682D01*
X14642Y64648D01*
X14387Y64648D02*
X14389Y64614D01*
X14393Y64580D01*
X14401Y64546D01*
X14412Y64513D01*
X14425Y64482D01*
X14425Y64481D02*
X14432Y64466D01*
X14441Y64452D01*
X14453Y64440D01*
X14467Y64430D01*
X14482Y64423D01*
X14498Y64418D01*
X14515Y64417D01*
X14604Y64482D02*
X14617Y64513D01*
X14628Y64546D01*
X14636Y64580D01*
X14640Y64614D01*
X14642Y64648D01*
X14605Y64481D02*
X14598Y64466D01*
X14589Y64452D01*
X14577Y64440D01*
X14563Y64430D01*
X14548Y64423D01*
X14532Y64418D01*
X14515Y64417D01*
X14412Y64520D02*
X14617Y64775D01*
X14817Y64443D02*
X14817Y64418D01*
X14817Y64443D02*
X14842Y64443D01*
X14842Y64418D01*
X14817Y64418D01*
X15017Y64827D02*
X15017Y64878D01*
X15272Y64878D01*
X15145Y64418D01*
X15681Y64418D02*
X15835Y64878D01*
X15988Y64418D01*
X15950Y64533D02*
X15720Y64533D01*
D12*
X8945Y58213D02*
X8945Y57110D01*
X8945Y58213D02*
X8945Y59787D01*
X8945Y60890D01*
X7055Y60890D01*
X7055Y59787D01*
X7055Y58213D01*
X7055Y57110D01*
X8945Y57110D01*
X8945Y59787D02*
X7055Y59787D01*
X7055Y58213D02*
X8945Y58213D01*
X8472Y58291D02*
X8472Y57780D01*
X8472Y58291D02*
X8472Y59709D01*
X8472Y60220D01*
X7528Y60220D01*
X7528Y59709D01*
X7528Y58291D01*
X7528Y57780D01*
X8472Y57780D01*
X8472Y59709D02*
X7528Y59709D01*
X7528Y58291D02*
X8472Y58291D01*
D15*
X8000Y60969D03*
X8000Y57031D03*
D16*
X8000Y60555D03*
X8000Y57445D03*
D11*
X9327Y56057D02*
X9327Y55929D01*
X9327Y56057D02*
X9329Y56078D01*
X9334Y56099D01*
X9342Y56118D01*
X9354Y56136D01*
X9368Y56151D01*
X9385Y56164D01*
X9404Y56174D01*
X9424Y56181D01*
X9444Y56185D01*
X9466Y56185D01*
X9486Y56181D01*
X9506Y56174D01*
X9525Y56164D01*
X9542Y56151D01*
X9556Y56136D01*
X9568Y56118D01*
X9576Y56099D01*
X9581Y56078D01*
X9583Y56057D01*
X9582Y56057D02*
X9582Y55929D01*
X9122Y55929D01*
X9122Y56057D01*
X9123Y56057D02*
X9125Y56076D01*
X9130Y56094D01*
X9138Y56111D01*
X9150Y56126D01*
X9164Y56138D01*
X9180Y56148D01*
X9197Y56155D01*
X9216Y56159D01*
X9234Y56159D01*
X9253Y56155D01*
X9270Y56148D01*
X9286Y56138D01*
X9300Y56126D01*
X9312Y56111D01*
X9320Y56094D01*
X9325Y56076D01*
X9327Y56057D01*
X9582Y56458D02*
X9582Y56561D01*
X9582Y56458D02*
X9580Y56440D01*
X9576Y56423D01*
X9568Y56407D01*
X9558Y56392D01*
X9546Y56380D01*
X9531Y56370D01*
X9515Y56362D01*
X9498Y56358D01*
X9480Y56356D01*
X9225Y56356D01*
X9205Y56358D01*
X9186Y56364D01*
X9168Y56373D01*
X9153Y56386D01*
X9140Y56401D01*
X9131Y56419D01*
X9125Y56438D01*
X9123Y56458D01*
X9122Y56458D02*
X9122Y56561D01*
X9122Y56754D02*
X9582Y56754D01*
X9403Y56754D02*
X9122Y57010D01*
X9301Y56856D02*
X9582Y57010D01*
X9455Y57198D02*
X9122Y57198D01*
X9455Y57197D02*
X9476Y57199D01*
X9497Y57204D01*
X9516Y57212D01*
X9534Y57224D01*
X9549Y57238D01*
X9562Y57255D01*
X9572Y57274D01*
X9579Y57294D01*
X9583Y57314D01*
X9583Y57336D01*
X9579Y57356D01*
X9572Y57376D01*
X9562Y57395D01*
X9549Y57412D01*
X9534Y57426D01*
X9516Y57438D01*
X9497Y57446D01*
X9476Y57451D01*
X9455Y57453D01*
X9122Y57453D01*
X9122Y57684D02*
X9582Y57684D01*
X9122Y57684D02*
X9122Y57812D01*
X9124Y57833D01*
X9129Y57854D01*
X9137Y57873D01*
X9149Y57891D01*
X9163Y57906D01*
X9180Y57919D01*
X9199Y57929D01*
X9219Y57936D01*
X9239Y57940D01*
X9261Y57940D01*
X9281Y57936D01*
X9301Y57929D01*
X9320Y57919D01*
X9337Y57906D01*
X9351Y57891D01*
X9363Y57873D01*
X9371Y57854D01*
X9376Y57833D01*
X9378Y57812D01*
X9378Y57684D01*
X9582Y58213D02*
X9582Y58316D01*
X9582Y58213D02*
X9580Y58195D01*
X9576Y58178D01*
X9568Y58162D01*
X9558Y58147D01*
X9546Y58135D01*
X9531Y58125D01*
X9515Y58117D01*
X9498Y58113D01*
X9480Y58111D01*
X9225Y58111D01*
X9205Y58113D01*
X9186Y58119D01*
X9168Y58128D01*
X9153Y58141D01*
X9140Y58156D01*
X9131Y58174D01*
X9125Y58193D01*
X9123Y58213D01*
X9122Y58213D02*
X9122Y58316D01*
X9122Y58615D02*
X9582Y58462D01*
X9582Y58769D02*
X9122Y58615D01*
X9467Y58730D02*
X9467Y58500D01*
X9582Y58957D02*
X9122Y58957D01*
X9378Y59110D01*
X9122Y59264D01*
X9582Y59264D01*
X9582Y59493D02*
X9122Y59493D01*
X9122Y59698D01*
X9327Y59698D02*
X9327Y59493D01*
X9455Y59883D02*
X9122Y59883D01*
X9455Y59882D02*
X9476Y59884D01*
X9497Y59889D01*
X9516Y59897D01*
X9534Y59909D01*
X9549Y59923D01*
X9562Y59940D01*
X9572Y59959D01*
X9579Y59979D01*
X9583Y59999D01*
X9583Y60021D01*
X9579Y60041D01*
X9572Y60061D01*
X9562Y60080D01*
X9549Y60097D01*
X9534Y60111D01*
X9516Y60123D01*
X9497Y60131D01*
X9476Y60136D01*
X9455Y60138D01*
X9122Y60138D01*
X9480Y60588D02*
X9498Y60586D01*
X9515Y60582D01*
X9531Y60574D01*
X9546Y60564D01*
X9558Y60552D01*
X9568Y60537D01*
X9576Y60521D01*
X9580Y60504D01*
X9582Y60486D01*
X9580Y60458D01*
X9575Y60430D01*
X9565Y60403D01*
X9553Y60377D01*
X9537Y60354D01*
X9518Y60333D01*
X9225Y60346D02*
X9207Y60348D01*
X9190Y60352D01*
X9174Y60360D01*
X9159Y60370D01*
X9147Y60382D01*
X9137Y60397D01*
X9129Y60413D01*
X9125Y60430D01*
X9123Y60448D01*
X9122Y60448D02*
X9124Y60473D01*
X9128Y60497D01*
X9136Y60520D01*
X9147Y60543D01*
X9160Y60563D01*
X9225Y60345D02*
X9243Y60347D01*
X9260Y60351D01*
X9277Y60359D01*
X9291Y60369D01*
X9304Y60382D01*
X9315Y60396D01*
X9390Y60537D02*
X9401Y60551D01*
X9414Y60564D01*
X9428Y60574D01*
X9445Y60582D01*
X9462Y60586D01*
X9480Y60588D01*
X9391Y60537D02*
X9314Y60396D01*
X9582Y60783D02*
X9582Y60988D01*
X9582Y60783D02*
X9122Y60783D01*
X9122Y60988D01*
X9327Y60937D02*
X9327Y60783D01*
X6878Y57012D02*
X6852Y57012D01*
X6852Y57038D01*
X6878Y57038D01*
X6878Y57012D01*
X6533Y57468D02*
X6513Y57466D01*
X6494Y57461D01*
X6476Y57453D01*
X6459Y57441D01*
X6445Y57427D01*
X6433Y57411D01*
X6425Y57392D01*
X6420Y57373D01*
X6418Y57353D01*
X6417Y57353D02*
X6419Y57330D01*
X6424Y57307D01*
X6433Y57286D01*
X6445Y57266D01*
X6460Y57248D01*
X6478Y57233D01*
X6498Y57221D01*
X6519Y57212D01*
X6623Y57430D02*
X6608Y57443D01*
X6591Y57454D01*
X6572Y57462D01*
X6553Y57466D01*
X6533Y57468D01*
X6622Y57429D02*
X6878Y57212D01*
X6878Y57468D01*
X6878Y57662D02*
X6878Y57815D01*
X6877Y57815D02*
X6875Y57833D01*
X6871Y57850D01*
X6863Y57866D01*
X6853Y57881D01*
X6841Y57893D01*
X6826Y57903D01*
X6810Y57911D01*
X6793Y57915D01*
X6775Y57917D01*
X6775Y57918D02*
X6724Y57918D01*
X6724Y57917D02*
X6706Y57915D01*
X6689Y57911D01*
X6673Y57903D01*
X6658Y57893D01*
X6646Y57881D01*
X6636Y57866D01*
X6628Y57850D01*
X6624Y57833D01*
X6622Y57815D01*
X6622Y57662D01*
X6418Y57662D01*
X6418Y57918D01*
D12*
X8945Y50713D02*
X8945Y49610D01*
X8945Y50713D02*
X8945Y52287D01*
X8945Y53390D01*
X7055Y53390D01*
X7055Y52287D01*
X7055Y50713D01*
X7055Y49610D01*
X8945Y49610D01*
X8945Y52287D02*
X7055Y52287D01*
X7055Y50713D02*
X8945Y50713D01*
X8472Y50791D02*
X8472Y50280D01*
X8472Y50791D02*
X8472Y52209D01*
X8472Y52720D01*
X7528Y52720D01*
X7528Y52209D01*
X7528Y50791D01*
X7528Y50280D01*
X8472Y50280D01*
X8472Y52209D02*
X7528Y52209D01*
X7528Y50791D02*
X8472Y50791D01*
D15*
X8000Y53469D03*
X8000Y49531D03*
D16*
X8000Y53055D03*
X8000Y49945D03*
D11*
X9122Y50557D02*
X9582Y50557D01*
X9378Y50710D02*
X9122Y50557D01*
X9378Y50710D02*
X9122Y50864D01*
X9582Y50864D01*
X9582Y51099D02*
X9122Y51099D01*
X9122Y51227D01*
X9124Y51248D01*
X9129Y51269D01*
X9137Y51288D01*
X9149Y51306D01*
X9163Y51321D01*
X9180Y51334D01*
X9199Y51344D01*
X9219Y51351D01*
X9239Y51355D01*
X9261Y51355D01*
X9281Y51351D01*
X9301Y51344D01*
X9320Y51334D01*
X9337Y51321D01*
X9351Y51306D01*
X9363Y51288D01*
X9371Y51269D01*
X9376Y51248D01*
X9378Y51227D01*
X9378Y51099D01*
X9225Y51528D02*
X9122Y51655D01*
X9582Y51655D01*
X9582Y51528D02*
X9582Y51783D01*
X9582Y51993D02*
X9122Y51993D01*
X9122Y52198D01*
X9327Y52198D02*
X9327Y51993D01*
X9455Y52383D02*
X9122Y52383D01*
X9455Y52382D02*
X9476Y52384D01*
X9497Y52389D01*
X9516Y52397D01*
X9534Y52409D01*
X9549Y52423D01*
X9562Y52440D01*
X9572Y52459D01*
X9579Y52479D01*
X9583Y52499D01*
X9583Y52521D01*
X9579Y52541D01*
X9572Y52561D01*
X9562Y52580D01*
X9549Y52597D01*
X9534Y52611D01*
X9516Y52623D01*
X9497Y52631D01*
X9476Y52636D01*
X9455Y52638D01*
X9122Y52638D01*
X9480Y53088D02*
X9498Y53086D01*
X9515Y53082D01*
X9531Y53074D01*
X9546Y53064D01*
X9558Y53052D01*
X9568Y53037D01*
X9576Y53021D01*
X9580Y53004D01*
X9582Y52986D01*
X9580Y52958D01*
X9575Y52930D01*
X9565Y52903D01*
X9553Y52877D01*
X9537Y52854D01*
X9518Y52833D01*
X9225Y52846D02*
X9207Y52848D01*
X9190Y52852D01*
X9174Y52860D01*
X9159Y52870D01*
X9147Y52882D01*
X9137Y52897D01*
X9129Y52913D01*
X9125Y52930D01*
X9123Y52948D01*
X9122Y52948D02*
X9124Y52973D01*
X9128Y52997D01*
X9136Y53020D01*
X9147Y53043D01*
X9160Y53063D01*
X9225Y52845D02*
X9243Y52847D01*
X9260Y52851D01*
X9277Y52859D01*
X9291Y52869D01*
X9304Y52882D01*
X9315Y52896D01*
X9390Y53037D02*
X9401Y53051D01*
X9414Y53064D01*
X9428Y53074D01*
X9445Y53082D01*
X9462Y53086D01*
X9480Y53088D01*
X9391Y53037D02*
X9314Y52896D01*
X9582Y53283D02*
X9582Y53488D01*
X9582Y53283D02*
X9122Y53283D01*
X9122Y53488D01*
X9327Y53437D02*
X9327Y53283D01*
X6418Y49640D02*
X6520Y49512D01*
X6418Y49640D02*
X6878Y49640D01*
X6878Y49512D02*
X6878Y49768D01*
X6878Y49937D02*
X6418Y50090D01*
X6878Y50243D01*
X6763Y50205D02*
X6763Y49975D01*
D12*
X46610Y65055D02*
X47713Y65055D01*
X49287Y65055D01*
X50390Y65055D01*
X50390Y66945D01*
X49287Y66945D01*
X47713Y66945D01*
X46610Y66945D01*
X46610Y65055D01*
X49287Y65055D02*
X49287Y66945D01*
X47713Y66945D02*
X47713Y65055D01*
X47791Y65528D02*
X47280Y65528D01*
X47791Y65528D02*
X49209Y65528D01*
X49720Y65528D01*
X49720Y66472D01*
X49209Y66472D01*
X47791Y66472D01*
X47280Y66472D01*
X47280Y65528D01*
X49209Y65528D02*
X49209Y66472D01*
X47791Y66472D02*
X47791Y65528D01*
D13*
X50469Y66000D03*
X46531Y66000D03*
D14*
X50055Y66000D03*
X46945Y66000D03*
D11*
X45753Y64520D02*
X45751Y64502D01*
X45747Y64485D01*
X45739Y64469D01*
X45729Y64454D01*
X45717Y64442D01*
X45702Y64432D01*
X45686Y64424D01*
X45669Y64420D01*
X45651Y64418D01*
X45623Y64420D01*
X45595Y64425D01*
X45568Y64435D01*
X45542Y64447D01*
X45519Y64463D01*
X45498Y64482D01*
X45511Y64775D02*
X45513Y64793D01*
X45517Y64810D01*
X45525Y64826D01*
X45535Y64841D01*
X45547Y64853D01*
X45562Y64863D01*
X45578Y64871D01*
X45595Y64875D01*
X45613Y64877D01*
X45613Y64878D02*
X45638Y64876D01*
X45662Y64872D01*
X45685Y64864D01*
X45708Y64853D01*
X45728Y64840D01*
X45510Y64775D02*
X45512Y64757D01*
X45516Y64740D01*
X45524Y64723D01*
X45534Y64709D01*
X45547Y64696D01*
X45561Y64685D01*
X45702Y64610D02*
X45716Y64599D01*
X45729Y64586D01*
X45739Y64572D01*
X45747Y64555D01*
X45751Y64538D01*
X45753Y64520D01*
X45702Y64609D02*
X45561Y64686D01*
X45948Y64418D02*
X46153Y64418D01*
X45948Y64418D02*
X45948Y64878D01*
X46153Y64878D01*
X46102Y64673D02*
X45948Y64673D01*
X46338Y64878D02*
X46338Y64418D01*
X46593Y64418D02*
X46338Y64878D01*
X46593Y64878D02*
X46593Y64418D01*
X46941Y64418D02*
X46959Y64420D01*
X46976Y64424D01*
X46992Y64432D01*
X47007Y64442D01*
X47019Y64454D01*
X47029Y64469D01*
X47037Y64485D01*
X47041Y64502D01*
X47043Y64520D01*
X46941Y64418D02*
X46913Y64420D01*
X46885Y64425D01*
X46858Y64435D01*
X46832Y64447D01*
X46809Y64463D01*
X46788Y64482D01*
X46801Y64775D02*
X46803Y64793D01*
X46807Y64810D01*
X46815Y64826D01*
X46825Y64841D01*
X46837Y64853D01*
X46852Y64863D01*
X46868Y64871D01*
X46885Y64875D01*
X46903Y64877D01*
X46903Y64878D02*
X46928Y64876D01*
X46952Y64872D01*
X46975Y64864D01*
X46998Y64853D01*
X47018Y64840D01*
X46800Y64775D02*
X46802Y64757D01*
X46806Y64740D01*
X46814Y64723D01*
X46824Y64709D01*
X46837Y64696D01*
X46851Y64685D01*
X46992Y64610D02*
X47006Y64599D01*
X47019Y64586D01*
X47029Y64572D01*
X47037Y64555D01*
X47041Y64538D01*
X47043Y64520D01*
X46992Y64609D02*
X46851Y64686D01*
X47244Y64673D02*
X47372Y64673D01*
X47393Y64671D01*
X47414Y64666D01*
X47433Y64658D01*
X47451Y64646D01*
X47466Y64632D01*
X47479Y64615D01*
X47489Y64596D01*
X47496Y64576D01*
X47500Y64556D01*
X47500Y64534D01*
X47496Y64514D01*
X47489Y64494D01*
X47479Y64475D01*
X47466Y64458D01*
X47451Y64444D01*
X47433Y64432D01*
X47414Y64424D01*
X47393Y64419D01*
X47372Y64417D01*
X47372Y64418D02*
X47244Y64418D01*
X47244Y64878D01*
X47372Y64878D01*
X47372Y64877D02*
X47391Y64875D01*
X47409Y64870D01*
X47426Y64862D01*
X47441Y64850D01*
X47453Y64836D01*
X47463Y64820D01*
X47470Y64803D01*
X47474Y64784D01*
X47474Y64766D01*
X47470Y64747D01*
X47463Y64730D01*
X47453Y64714D01*
X47441Y64700D01*
X47426Y64688D01*
X47409Y64680D01*
X47391Y64675D01*
X47372Y64673D01*
X47688Y64545D02*
X47688Y64878D01*
X47687Y64545D02*
X47689Y64524D01*
X47694Y64503D01*
X47702Y64484D01*
X47714Y64466D01*
X47728Y64451D01*
X47745Y64438D01*
X47764Y64428D01*
X47784Y64421D01*
X47804Y64417D01*
X47826Y64417D01*
X47846Y64421D01*
X47866Y64428D01*
X47885Y64438D01*
X47902Y64451D01*
X47916Y64466D01*
X47928Y64484D01*
X47936Y64503D01*
X47941Y64524D01*
X47943Y64545D01*
X47943Y64878D01*
X48253Y64418D02*
X48356Y64418D01*
X48253Y64418D02*
X48235Y64420D01*
X48218Y64424D01*
X48202Y64432D01*
X48187Y64442D01*
X48175Y64454D01*
X48165Y64469D01*
X48157Y64485D01*
X48153Y64502D01*
X48151Y64520D01*
X48151Y64775D01*
X48153Y64795D01*
X48159Y64814D01*
X48168Y64832D01*
X48181Y64847D01*
X48196Y64860D01*
X48214Y64869D01*
X48233Y64875D01*
X48253Y64877D01*
X48253Y64878D02*
X48356Y64878D01*
X48549Y64878D02*
X48549Y64418D01*
X48549Y64597D02*
X48805Y64878D01*
X48651Y64699D02*
X48805Y64418D01*
X48993Y64418D02*
X48993Y64878D01*
X49198Y64878D01*
X49198Y64673D02*
X48993Y64673D01*
X49383Y64545D02*
X49383Y64878D01*
X49382Y64545D02*
X49384Y64524D01*
X49389Y64503D01*
X49397Y64484D01*
X49409Y64466D01*
X49423Y64451D01*
X49440Y64438D01*
X49459Y64428D01*
X49479Y64421D01*
X49499Y64417D01*
X49521Y64417D01*
X49541Y64421D01*
X49561Y64428D01*
X49580Y64438D01*
X49597Y64451D01*
X49611Y64466D01*
X49623Y64484D01*
X49631Y64503D01*
X49636Y64524D01*
X49638Y64545D01*
X49638Y64878D01*
X50088Y64520D02*
X50086Y64502D01*
X50082Y64485D01*
X50074Y64469D01*
X50064Y64454D01*
X50052Y64442D01*
X50037Y64432D01*
X50021Y64424D01*
X50004Y64420D01*
X49986Y64418D01*
X49958Y64420D01*
X49930Y64425D01*
X49903Y64435D01*
X49877Y64447D01*
X49854Y64463D01*
X49833Y64482D01*
X49846Y64775D02*
X49848Y64793D01*
X49852Y64810D01*
X49860Y64826D01*
X49870Y64841D01*
X49882Y64853D01*
X49897Y64863D01*
X49913Y64871D01*
X49930Y64875D01*
X49948Y64877D01*
X49948Y64878D02*
X49973Y64876D01*
X49997Y64872D01*
X50020Y64864D01*
X50043Y64853D01*
X50063Y64840D01*
X49845Y64775D02*
X49847Y64757D01*
X49851Y64740D01*
X49859Y64723D01*
X49869Y64709D01*
X49882Y64696D01*
X49896Y64685D01*
X50037Y64610D02*
X50051Y64599D01*
X50064Y64586D01*
X50074Y64572D01*
X50082Y64555D01*
X50086Y64538D01*
X50088Y64520D01*
X50037Y64609D02*
X49896Y64686D01*
X50283Y64418D02*
X50488Y64418D01*
X50283Y64418D02*
X50283Y64878D01*
X50488Y64878D01*
X50437Y64673D02*
X50283Y64673D01*
X46768Y67467D02*
X46766Y67487D01*
X46761Y67506D01*
X46753Y67525D01*
X46741Y67541D01*
X46727Y67555D01*
X46711Y67567D01*
X46692Y67575D01*
X46673Y67580D01*
X46653Y67582D01*
X46653Y67583D02*
X46630Y67581D01*
X46607Y67576D01*
X46586Y67567D01*
X46566Y67555D01*
X46548Y67540D01*
X46533Y67522D01*
X46521Y67502D01*
X46512Y67481D01*
X46730Y67377D02*
X46743Y67392D01*
X46754Y67409D01*
X46762Y67428D01*
X46766Y67447D01*
X46768Y67467D01*
X46729Y67378D02*
X46512Y67122D01*
X46768Y67122D01*
X46937Y67122D02*
X47090Y67582D01*
X47243Y67122D01*
X47205Y67237D02*
X46975Y67237D01*
D12*
X26390Y38945D02*
X25287Y38945D01*
X23713Y38945D01*
X22610Y38945D01*
X22610Y37055D01*
X23713Y37055D01*
X25287Y37055D01*
X26390Y37055D01*
X26390Y38945D01*
X23713Y38945D02*
X23713Y37055D01*
X25287Y37055D02*
X25287Y38945D01*
X25209Y38472D02*
X25720Y38472D01*
X25209Y38472D02*
X23791Y38472D01*
X23280Y38472D01*
X23280Y37528D01*
X23791Y37528D01*
X25209Y37528D01*
X25720Y37528D01*
X25720Y38472D01*
X23791Y38472D02*
X23791Y37528D01*
X25209Y37528D02*
X25209Y38472D01*
D13*
X22531Y38000D03*
X26469Y38000D03*
D14*
X22945Y38000D03*
X26055Y38000D03*
D11*
X23012Y39122D02*
X23012Y39582D01*
X23140Y39582D01*
X23140Y39583D02*
X23161Y39581D01*
X23182Y39576D01*
X23201Y39568D01*
X23219Y39556D01*
X23234Y39542D01*
X23247Y39525D01*
X23257Y39506D01*
X23264Y39486D01*
X23268Y39466D01*
X23268Y39444D01*
X23264Y39424D01*
X23257Y39404D01*
X23247Y39385D01*
X23234Y39368D01*
X23219Y39354D01*
X23201Y39342D01*
X23182Y39334D01*
X23161Y39329D01*
X23140Y39327D01*
X23012Y39327D01*
X23165Y39327D02*
X23268Y39122D01*
X23475Y39122D02*
X23475Y39582D01*
X23680Y39582D01*
X23680Y39378D02*
X23475Y39378D01*
X23865Y39582D02*
X23865Y39122D01*
X23865Y39582D02*
X24070Y39582D01*
X24070Y39378D02*
X23865Y39378D01*
X24254Y39250D02*
X24254Y39582D01*
X24254Y39250D02*
X24256Y39229D01*
X24261Y39208D01*
X24269Y39189D01*
X24281Y39171D01*
X24295Y39156D01*
X24312Y39143D01*
X24331Y39133D01*
X24351Y39126D01*
X24371Y39122D01*
X24393Y39122D01*
X24413Y39126D01*
X24433Y39133D01*
X24452Y39143D01*
X24469Y39156D01*
X24483Y39171D01*
X24495Y39189D01*
X24503Y39208D01*
X24508Y39229D01*
X24510Y39250D01*
X24510Y39582D01*
X24960Y39225D02*
X24958Y39207D01*
X24954Y39190D01*
X24946Y39174D01*
X24936Y39159D01*
X24924Y39147D01*
X24909Y39137D01*
X24893Y39129D01*
X24876Y39125D01*
X24858Y39123D01*
X24858Y39122D02*
X24830Y39124D01*
X24802Y39129D01*
X24775Y39139D01*
X24749Y39151D01*
X24726Y39167D01*
X24705Y39186D01*
X24717Y39480D02*
X24719Y39498D01*
X24723Y39515D01*
X24731Y39531D01*
X24741Y39546D01*
X24753Y39558D01*
X24768Y39568D01*
X24784Y39576D01*
X24801Y39580D01*
X24819Y39582D01*
X24819Y39583D02*
X24844Y39581D01*
X24868Y39577D01*
X24891Y39569D01*
X24914Y39558D01*
X24934Y39545D01*
X24717Y39480D02*
X24719Y39462D01*
X24723Y39445D01*
X24731Y39428D01*
X24741Y39414D01*
X24754Y39401D01*
X24768Y39390D01*
X24909Y39315D02*
X24923Y39304D01*
X24936Y39291D01*
X24946Y39277D01*
X24954Y39260D01*
X24958Y39243D01*
X24960Y39225D01*
X24909Y39314D02*
X24768Y39391D01*
X25155Y39122D02*
X25360Y39122D01*
X25155Y39122D02*
X25155Y39582D01*
X25360Y39582D01*
X25308Y39378D02*
X25155Y39378D01*
X24925Y36814D02*
X24912Y36783D01*
X24901Y36750D01*
X24893Y36716D01*
X24889Y36682D01*
X24887Y36648D01*
X24925Y36814D02*
X24932Y36829D01*
X24941Y36843D01*
X24953Y36855D01*
X24967Y36865D01*
X24982Y36872D01*
X24998Y36877D01*
X25015Y36878D01*
X25032Y36877D01*
X25048Y36872D01*
X25063Y36865D01*
X25077Y36855D01*
X25089Y36843D01*
X25098Y36829D01*
X25105Y36814D01*
X25104Y36814D02*
X25117Y36783D01*
X25128Y36750D01*
X25136Y36716D01*
X25140Y36682D01*
X25142Y36648D01*
X24887Y36648D02*
X24889Y36614D01*
X24893Y36580D01*
X24901Y36546D01*
X24912Y36513D01*
X24925Y36482D01*
X24925Y36481D02*
X24932Y36466D01*
X24941Y36452D01*
X24953Y36440D01*
X24967Y36430D01*
X24982Y36423D01*
X24998Y36418D01*
X25015Y36417D01*
X25104Y36482D02*
X25117Y36513D01*
X25128Y36546D01*
X25136Y36580D01*
X25140Y36614D01*
X25142Y36648D01*
X25105Y36481D02*
X25098Y36466D01*
X25089Y36452D01*
X25077Y36440D01*
X25063Y36430D01*
X25048Y36423D01*
X25032Y36418D01*
X25015Y36417D01*
X24912Y36520D02*
X25117Y36775D01*
X25317Y36443D02*
X25317Y36418D01*
X25317Y36443D02*
X25342Y36443D01*
X25342Y36418D01*
X25317Y36418D01*
X25517Y36520D02*
X25619Y36878D01*
X25517Y36520D02*
X25772Y36520D01*
X25696Y36622D02*
X25696Y36418D01*
X26181Y36418D02*
X26335Y36878D01*
X26488Y36418D01*
X26450Y36533D02*
X26220Y36533D01*
D12*
X7555Y43787D02*
X7555Y44890D01*
X7555Y43787D02*
X7555Y42213D01*
X7555Y41110D01*
X9445Y41110D01*
X9445Y42213D01*
X9445Y43787D01*
X9445Y44890D01*
X7555Y44890D01*
X7555Y42213D02*
X9445Y42213D01*
X9445Y43787D02*
X7555Y43787D01*
X8028Y43709D02*
X8028Y44220D01*
X8028Y43709D02*
X8028Y42291D01*
X8028Y41780D01*
X8972Y41780D01*
X8972Y42291D01*
X8972Y43709D01*
X8972Y44220D01*
X8028Y44220D01*
X8028Y42291D02*
X8972Y42291D01*
X8972Y43709D02*
X8028Y43709D01*
D15*
X8500Y41031D03*
X8500Y44969D03*
D16*
X8500Y41445D03*
X8500Y44555D03*
D11*
X7378Y41012D02*
X6918Y41012D01*
X7173Y41165D01*
X6918Y41319D01*
X7378Y41319D01*
X7378Y41554D02*
X6918Y41554D01*
X6918Y41682D01*
X6917Y41682D02*
X6919Y41703D01*
X6924Y41724D01*
X6932Y41743D01*
X6944Y41761D01*
X6958Y41776D01*
X6975Y41789D01*
X6994Y41799D01*
X7014Y41806D01*
X7034Y41810D01*
X7056Y41810D01*
X7076Y41806D01*
X7096Y41799D01*
X7115Y41789D01*
X7132Y41776D01*
X7146Y41761D01*
X7158Y41743D01*
X7166Y41724D01*
X7171Y41703D01*
X7173Y41682D01*
X7173Y41554D01*
X6918Y42123D02*
X6920Y42143D01*
X6925Y42162D01*
X6933Y42181D01*
X6945Y42197D01*
X6959Y42211D01*
X6976Y42223D01*
X6994Y42231D01*
X7013Y42236D01*
X7033Y42238D01*
X6917Y42123D02*
X6919Y42100D01*
X6924Y42077D01*
X6933Y42056D01*
X6945Y42036D01*
X6960Y42018D01*
X6978Y42003D01*
X6998Y41991D01*
X7019Y41982D01*
X7123Y42201D02*
X7108Y42214D01*
X7091Y42225D01*
X7072Y42233D01*
X7053Y42237D01*
X7033Y42239D01*
X7122Y42200D02*
X7378Y41983D01*
X7378Y42238D01*
X7378Y42449D02*
X6918Y42449D01*
X6918Y42653D01*
X7122Y42653D02*
X7122Y42449D01*
X7250Y42838D02*
X6918Y42838D01*
X7250Y42837D02*
X7271Y42839D01*
X7292Y42844D01*
X7311Y42852D01*
X7329Y42864D01*
X7344Y42878D01*
X7357Y42895D01*
X7367Y42914D01*
X7374Y42934D01*
X7378Y42954D01*
X7378Y42976D01*
X7374Y42996D01*
X7367Y43016D01*
X7357Y43035D01*
X7344Y43052D01*
X7329Y43066D01*
X7311Y43078D01*
X7292Y43086D01*
X7271Y43091D01*
X7250Y43093D01*
X6918Y43093D01*
X7275Y43543D02*
X7293Y43541D01*
X7310Y43537D01*
X7326Y43529D01*
X7341Y43519D01*
X7353Y43507D01*
X7363Y43492D01*
X7371Y43476D01*
X7375Y43459D01*
X7377Y43441D01*
X7378Y43441D02*
X7376Y43413D01*
X7371Y43385D01*
X7361Y43358D01*
X7349Y43332D01*
X7333Y43309D01*
X7314Y43288D01*
X7020Y43301D02*
X7002Y43303D01*
X6985Y43307D01*
X6969Y43315D01*
X6954Y43325D01*
X6942Y43337D01*
X6932Y43352D01*
X6924Y43368D01*
X6920Y43385D01*
X6918Y43403D01*
X6917Y43403D02*
X6919Y43428D01*
X6923Y43452D01*
X6931Y43475D01*
X6942Y43498D01*
X6955Y43518D01*
X7020Y43300D02*
X7038Y43302D01*
X7055Y43306D01*
X7072Y43314D01*
X7086Y43324D01*
X7099Y43337D01*
X7110Y43351D01*
X7185Y43492D02*
X7196Y43506D01*
X7209Y43519D01*
X7223Y43529D01*
X7240Y43537D01*
X7257Y43541D01*
X7275Y43543D01*
X7186Y43492D02*
X7109Y43352D01*
X7378Y43739D02*
X7378Y43943D01*
X7378Y43739D02*
X6918Y43739D01*
X6918Y43943D01*
X7122Y43892D02*
X7122Y43739D01*
X9622Y44385D02*
X9725Y44257D01*
X9622Y44385D02*
X10082Y44385D01*
X10082Y44512D02*
X10082Y44257D01*
X10082Y44681D02*
X9622Y44835D01*
X10082Y44988D01*
X9967Y44950D02*
X9967Y44720D01*
D12*
X7055Y69787D02*
X7055Y70890D01*
X7055Y69787D02*
X7055Y68213D01*
X7055Y67110D01*
X8945Y67110D01*
X8945Y68213D01*
X8945Y69787D01*
X8945Y70890D01*
X7055Y70890D01*
X7055Y68213D02*
X8945Y68213D01*
X8945Y69787D02*
X7055Y69787D01*
X7528Y69709D02*
X7528Y70220D01*
X7528Y69709D02*
X7528Y68291D01*
X7528Y67780D01*
X8472Y67780D01*
X8472Y68291D01*
X8472Y69709D01*
X8472Y70220D01*
X7528Y70220D01*
X7528Y68291D02*
X8472Y68291D01*
X8472Y69709D02*
X7528Y69709D01*
D15*
X8000Y67031D03*
X8000Y70969D03*
D16*
X8000Y67445D03*
X8000Y70555D03*
D11*
X6622Y67140D02*
X6622Y67012D01*
X6622Y67140D02*
X6624Y67161D01*
X6629Y67182D01*
X6637Y67201D01*
X6649Y67219D01*
X6663Y67234D01*
X6680Y67247D01*
X6699Y67257D01*
X6719Y67264D01*
X6739Y67268D01*
X6761Y67268D01*
X6781Y67264D01*
X6801Y67257D01*
X6820Y67247D01*
X6837Y67234D01*
X6851Y67219D01*
X6863Y67201D01*
X6871Y67182D01*
X6876Y67161D01*
X6878Y67140D01*
X6878Y67012D01*
X6418Y67012D01*
X6418Y67140D01*
X6420Y67159D01*
X6425Y67177D01*
X6433Y67194D01*
X6445Y67209D01*
X6459Y67221D01*
X6475Y67231D01*
X6492Y67238D01*
X6511Y67242D01*
X6529Y67242D01*
X6548Y67238D01*
X6565Y67231D01*
X6581Y67221D01*
X6595Y67209D01*
X6607Y67194D01*
X6615Y67177D01*
X6620Y67159D01*
X6622Y67140D01*
X6418Y67460D02*
X6878Y67460D01*
X6673Y67613D02*
X6418Y67460D01*
X6673Y67613D02*
X6418Y67767D01*
X6878Y67767D01*
X6877Y68119D02*
X6875Y68137D01*
X6871Y68154D01*
X6863Y68170D01*
X6853Y68185D01*
X6841Y68197D01*
X6826Y68207D01*
X6810Y68215D01*
X6793Y68219D01*
X6775Y68221D01*
X6878Y68119D02*
X6876Y68091D01*
X6871Y68063D01*
X6861Y68036D01*
X6849Y68010D01*
X6833Y67987D01*
X6814Y67966D01*
X6520Y67978D02*
X6502Y67980D01*
X6485Y67984D01*
X6469Y67992D01*
X6454Y68002D01*
X6442Y68014D01*
X6432Y68029D01*
X6424Y68045D01*
X6420Y68062D01*
X6418Y68080D01*
X6417Y68080D02*
X6419Y68105D01*
X6423Y68129D01*
X6431Y68152D01*
X6442Y68175D01*
X6455Y68195D01*
X6520Y67978D02*
X6538Y67980D01*
X6555Y67984D01*
X6572Y67992D01*
X6586Y68002D01*
X6599Y68015D01*
X6610Y68029D01*
X6685Y68170D02*
X6696Y68184D01*
X6709Y68197D01*
X6723Y68207D01*
X6740Y68215D01*
X6757Y68219D01*
X6775Y68221D01*
X6686Y68170D02*
X6609Y68029D01*
X6545Y68400D02*
X6750Y68400D01*
X6545Y68400D02*
X6524Y68402D01*
X6503Y68407D01*
X6484Y68415D01*
X6466Y68427D01*
X6451Y68441D01*
X6438Y68458D01*
X6428Y68477D01*
X6421Y68497D01*
X6417Y68517D01*
X6417Y68539D01*
X6421Y68559D01*
X6428Y68579D01*
X6438Y68598D01*
X6451Y68615D01*
X6466Y68629D01*
X6484Y68641D01*
X6503Y68649D01*
X6524Y68654D01*
X6545Y68656D01*
X6750Y68656D01*
X6771Y68654D01*
X6792Y68649D01*
X6811Y68641D01*
X6829Y68629D01*
X6844Y68615D01*
X6857Y68598D01*
X6867Y68579D01*
X6874Y68559D01*
X6878Y68539D01*
X6878Y68517D01*
X6874Y68497D01*
X6867Y68477D01*
X6857Y68458D01*
X6844Y68441D01*
X6829Y68427D01*
X6811Y68415D01*
X6792Y68407D01*
X6771Y68402D01*
X6750Y68400D01*
X6750Y68865D02*
X6418Y68865D01*
X6750Y68865D02*
X6771Y68867D01*
X6792Y68872D01*
X6811Y68880D01*
X6829Y68892D01*
X6844Y68906D01*
X6857Y68923D01*
X6867Y68942D01*
X6874Y68962D01*
X6878Y68982D01*
X6878Y69004D01*
X6874Y69024D01*
X6867Y69044D01*
X6857Y69063D01*
X6844Y69080D01*
X6829Y69094D01*
X6811Y69106D01*
X6792Y69114D01*
X6771Y69119D01*
X6750Y69121D01*
X6418Y69121D01*
X6418Y69428D02*
X6878Y69428D01*
X6418Y69300D02*
X6418Y69556D01*
X6418Y69736D02*
X6878Y69736D01*
X6418Y69736D02*
X6418Y69941D01*
X6622Y69941D02*
X6622Y69736D01*
X6750Y70125D02*
X6418Y70125D01*
X6750Y70125D02*
X6771Y70127D01*
X6792Y70132D01*
X6811Y70140D01*
X6829Y70152D01*
X6844Y70166D01*
X6857Y70183D01*
X6867Y70202D01*
X6874Y70222D01*
X6878Y70242D01*
X6878Y70264D01*
X6874Y70284D01*
X6867Y70304D01*
X6857Y70323D01*
X6844Y70340D01*
X6829Y70354D01*
X6811Y70366D01*
X6792Y70374D01*
X6771Y70379D01*
X6750Y70381D01*
X6418Y70381D01*
X6775Y70831D02*
X6793Y70829D01*
X6810Y70825D01*
X6826Y70817D01*
X6841Y70807D01*
X6853Y70795D01*
X6863Y70780D01*
X6871Y70764D01*
X6875Y70747D01*
X6877Y70729D01*
X6878Y70729D02*
X6876Y70701D01*
X6871Y70673D01*
X6861Y70646D01*
X6849Y70620D01*
X6833Y70597D01*
X6814Y70576D01*
X6520Y70588D02*
X6502Y70590D01*
X6485Y70594D01*
X6469Y70602D01*
X6454Y70612D01*
X6442Y70624D01*
X6432Y70639D01*
X6424Y70655D01*
X6420Y70672D01*
X6418Y70690D01*
X6417Y70690D02*
X6419Y70715D01*
X6423Y70739D01*
X6431Y70762D01*
X6442Y70785D01*
X6455Y70805D01*
X6520Y70588D02*
X6538Y70590D01*
X6555Y70594D01*
X6572Y70602D01*
X6586Y70612D01*
X6599Y70625D01*
X6610Y70639D01*
X6685Y70780D02*
X6696Y70794D01*
X6709Y70807D01*
X6723Y70817D01*
X6740Y70825D01*
X6757Y70829D01*
X6775Y70831D01*
X6686Y70780D02*
X6609Y70639D01*
X6878Y71026D02*
X6878Y71231D01*
X6878Y71026D02*
X6418Y71026D01*
X6418Y71231D01*
X6622Y71180D02*
X6622Y71026D01*
X9122Y69755D02*
X9225Y69627D01*
X9122Y69755D02*
X9582Y69755D01*
X9582Y69882D02*
X9582Y69627D01*
X9582Y70057D02*
X9557Y70057D01*
X9557Y70082D01*
X9582Y70082D01*
X9582Y70057D01*
X9237Y70512D02*
X9217Y70510D01*
X9198Y70505D01*
X9180Y70497D01*
X9163Y70485D01*
X9149Y70471D01*
X9137Y70455D01*
X9129Y70436D01*
X9124Y70417D01*
X9122Y70397D01*
X9124Y70374D01*
X9129Y70351D01*
X9138Y70330D01*
X9150Y70310D01*
X9165Y70292D01*
X9183Y70277D01*
X9203Y70265D01*
X9224Y70256D01*
X9327Y70475D02*
X9312Y70488D01*
X9295Y70499D01*
X9276Y70507D01*
X9257Y70511D01*
X9237Y70513D01*
X9327Y70474D02*
X9582Y70257D01*
X9582Y70512D01*
X9582Y70681D02*
X9122Y70835D01*
X9582Y70988D01*
X9467Y70950D02*
X9467Y70720D01*
D12*
X6055Y35890D02*
X6055Y34787D01*
X6055Y33213D01*
X6055Y32110D01*
X7945Y32110D01*
X7945Y33213D01*
X7945Y34787D01*
X7945Y35890D01*
X6055Y35890D01*
X6055Y33213D02*
X7945Y33213D01*
X7945Y34787D02*
X6055Y34787D01*
X6528Y34709D02*
X6528Y35220D01*
X6528Y34709D02*
X6528Y33291D01*
X6528Y32780D01*
X7472Y32780D01*
X7472Y33291D01*
X7472Y34709D01*
X7472Y35220D01*
X6528Y35220D01*
X6528Y33291D02*
X7472Y33291D01*
X7472Y34709D02*
X6528Y34709D01*
D15*
X7000Y32031D03*
X7000Y35969D03*
D16*
X7000Y32445D03*
X7000Y35555D03*
D11*
X5878Y32012D02*
X5418Y32012D01*
X5673Y32165D01*
X5418Y32319D01*
X5878Y32319D01*
X5878Y32554D02*
X5418Y32554D01*
X5418Y32682D01*
X5417Y32682D02*
X5419Y32703D01*
X5424Y32724D01*
X5432Y32743D01*
X5444Y32761D01*
X5458Y32776D01*
X5475Y32789D01*
X5494Y32799D01*
X5514Y32806D01*
X5534Y32810D01*
X5556Y32810D01*
X5576Y32806D01*
X5596Y32799D01*
X5615Y32789D01*
X5632Y32776D01*
X5646Y32761D01*
X5658Y32743D01*
X5666Y32724D01*
X5671Y32703D01*
X5673Y32682D01*
X5673Y32554D01*
X5878Y32983D02*
X5878Y33110D01*
X5876Y33131D01*
X5871Y33152D01*
X5863Y33171D01*
X5851Y33189D01*
X5837Y33204D01*
X5820Y33217D01*
X5801Y33227D01*
X5781Y33234D01*
X5761Y33238D01*
X5739Y33238D01*
X5719Y33234D01*
X5699Y33227D01*
X5680Y33217D01*
X5663Y33204D01*
X5649Y33189D01*
X5637Y33171D01*
X5629Y33152D01*
X5624Y33131D01*
X5622Y33110D01*
X5418Y33136D02*
X5418Y32983D01*
X5418Y33136D02*
X5420Y33155D01*
X5425Y33173D01*
X5433Y33190D01*
X5445Y33205D01*
X5459Y33217D01*
X5475Y33227D01*
X5492Y33234D01*
X5511Y33238D01*
X5529Y33238D01*
X5548Y33234D01*
X5565Y33227D01*
X5581Y33217D01*
X5595Y33205D01*
X5607Y33190D01*
X5615Y33173D01*
X5620Y33155D01*
X5622Y33136D01*
X5622Y33034D01*
X5418Y33449D02*
X5878Y33449D01*
X5418Y33449D02*
X5418Y33653D01*
X5622Y33653D02*
X5622Y33449D01*
X5750Y33838D02*
X5418Y33838D01*
X5750Y33837D02*
X5771Y33839D01*
X5792Y33844D01*
X5811Y33852D01*
X5829Y33864D01*
X5844Y33878D01*
X5857Y33895D01*
X5867Y33914D01*
X5874Y33934D01*
X5878Y33954D01*
X5878Y33976D01*
X5874Y33996D01*
X5867Y34016D01*
X5857Y34035D01*
X5844Y34052D01*
X5829Y34066D01*
X5811Y34078D01*
X5792Y34086D01*
X5771Y34091D01*
X5750Y34093D01*
X5418Y34093D01*
X5775Y34543D02*
X5793Y34541D01*
X5810Y34537D01*
X5826Y34529D01*
X5841Y34519D01*
X5853Y34507D01*
X5863Y34492D01*
X5871Y34476D01*
X5875Y34459D01*
X5877Y34441D01*
X5878Y34441D02*
X5876Y34413D01*
X5871Y34385D01*
X5861Y34358D01*
X5849Y34332D01*
X5833Y34309D01*
X5814Y34288D01*
X5520Y34301D02*
X5502Y34303D01*
X5485Y34307D01*
X5469Y34315D01*
X5454Y34325D01*
X5442Y34337D01*
X5432Y34352D01*
X5424Y34368D01*
X5420Y34385D01*
X5418Y34403D01*
X5417Y34403D02*
X5419Y34428D01*
X5423Y34452D01*
X5431Y34475D01*
X5442Y34498D01*
X5455Y34518D01*
X5520Y34300D02*
X5538Y34302D01*
X5555Y34306D01*
X5572Y34314D01*
X5586Y34324D01*
X5599Y34337D01*
X5610Y34351D01*
X5685Y34492D02*
X5696Y34506D01*
X5709Y34519D01*
X5723Y34529D01*
X5740Y34537D01*
X5757Y34541D01*
X5775Y34543D01*
X5686Y34492D02*
X5609Y34352D01*
X5878Y34739D02*
X5878Y34943D01*
X5878Y34739D02*
X5418Y34739D01*
X5418Y34943D01*
X5622Y34892D02*
X5622Y34739D01*
X8122Y35385D02*
X8225Y35257D01*
X8122Y35385D02*
X8582Y35385D01*
X8582Y35512D02*
X8582Y35257D01*
X8582Y35681D02*
X8122Y35835D01*
X8582Y35988D01*
X8467Y35950D02*
X8467Y35720D01*
D12*
X20110Y65055D02*
X21213Y65055D01*
X22787Y65055D01*
X23890Y65055D01*
X23890Y66945D01*
X22787Y66945D01*
X21213Y66945D01*
X20110Y66945D01*
X20110Y65055D01*
X22787Y65055D02*
X22787Y66945D01*
X21213Y66945D02*
X21213Y65055D01*
X21291Y65528D02*
X20780Y65528D01*
X21291Y65528D02*
X22709Y65528D01*
X23220Y65528D01*
X23220Y66472D01*
X22709Y66472D01*
X21291Y66472D01*
X20780Y66472D01*
X20780Y65528D01*
X22709Y65528D02*
X22709Y66472D01*
X21291Y66472D02*
X21291Y65528D01*
D13*
X23969Y66000D03*
X20031Y66000D03*
D14*
X23555Y66000D03*
X20445Y66000D03*
D11*
X21173Y64878D02*
X21173Y64418D01*
X21173Y64878D02*
X21378Y64878D01*
X21378Y64673D02*
X21173Y64673D01*
X21522Y64418D02*
X21675Y64878D01*
X21829Y64418D01*
X21790Y64533D02*
X21560Y64533D01*
X22013Y64418D02*
X22013Y64878D01*
X22268Y64418D01*
X22268Y64878D01*
X22493Y64878D02*
X22493Y64418D01*
X22493Y64878D02*
X22698Y64878D01*
X22698Y64673D02*
X22493Y64673D01*
X22883Y64545D02*
X22883Y64878D01*
X22882Y64545D02*
X22884Y64524D01*
X22889Y64503D01*
X22897Y64484D01*
X22909Y64466D01*
X22923Y64451D01*
X22940Y64438D01*
X22959Y64428D01*
X22979Y64421D01*
X22999Y64417D01*
X23021Y64417D01*
X23041Y64421D01*
X23061Y64428D01*
X23080Y64438D01*
X23097Y64451D01*
X23111Y64466D01*
X23123Y64484D01*
X23131Y64503D01*
X23136Y64524D01*
X23138Y64545D01*
X23138Y64878D01*
X23588Y64520D02*
X23586Y64502D01*
X23582Y64485D01*
X23574Y64469D01*
X23564Y64454D01*
X23552Y64442D01*
X23537Y64432D01*
X23521Y64424D01*
X23504Y64420D01*
X23486Y64418D01*
X23458Y64420D01*
X23430Y64425D01*
X23403Y64435D01*
X23377Y64447D01*
X23354Y64463D01*
X23333Y64482D01*
X23346Y64775D02*
X23348Y64793D01*
X23352Y64810D01*
X23360Y64826D01*
X23370Y64841D01*
X23382Y64853D01*
X23397Y64863D01*
X23413Y64871D01*
X23430Y64875D01*
X23448Y64877D01*
X23448Y64878D02*
X23473Y64876D01*
X23497Y64872D01*
X23520Y64864D01*
X23543Y64853D01*
X23563Y64840D01*
X23345Y64775D02*
X23347Y64757D01*
X23351Y64740D01*
X23359Y64723D01*
X23369Y64709D01*
X23382Y64696D01*
X23396Y64685D01*
X23537Y64610D02*
X23551Y64599D01*
X23564Y64586D01*
X23574Y64572D01*
X23582Y64555D01*
X23586Y64538D01*
X23588Y64520D01*
X23537Y64609D02*
X23396Y64686D01*
X23783Y64418D02*
X23988Y64418D01*
X23783Y64418D02*
X23783Y64878D01*
X23988Y64878D01*
X23937Y64673D02*
X23783Y64673D01*
X20165Y67378D02*
X20012Y67378D01*
X20165Y67378D02*
X20183Y67376D01*
X20200Y67372D01*
X20216Y67364D01*
X20231Y67354D01*
X20243Y67342D01*
X20253Y67327D01*
X20261Y67311D01*
X20265Y67294D01*
X20267Y67276D01*
X20268Y67276D02*
X20268Y67250D01*
X20266Y67229D01*
X20261Y67208D01*
X20253Y67189D01*
X20241Y67171D01*
X20227Y67156D01*
X20210Y67143D01*
X20191Y67133D01*
X20171Y67126D01*
X20151Y67122D01*
X20129Y67122D01*
X20109Y67126D01*
X20089Y67133D01*
X20070Y67143D01*
X20053Y67156D01*
X20039Y67171D01*
X20027Y67189D01*
X20019Y67208D01*
X20014Y67229D01*
X20012Y67250D01*
X20012Y67378D01*
X20013Y67378D02*
X20015Y67405D01*
X20020Y67431D01*
X20029Y67456D01*
X20040Y67480D01*
X20055Y67502D01*
X20073Y67522D01*
X20093Y67540D01*
X20115Y67555D01*
X20139Y67566D01*
X20164Y67575D01*
X20190Y67580D01*
X20217Y67582D01*
X20830Y67582D02*
X20677Y67122D01*
X20983Y67122D02*
X20830Y67582D01*
X20945Y67237D02*
X20715Y67237D01*
D10*
X26366Y71181D02*
X26366Y71614D01*
X20500Y71614D01*
X20500Y68386D01*
X26366Y68386D01*
X26366Y69606D01*
D11*
X22717Y70770D02*
X22717Y71230D01*
X22921Y71230D01*
X22921Y71026D02*
X22717Y71026D01*
X23066Y70770D02*
X23219Y71230D01*
X23372Y70770D01*
X23334Y70885D02*
X23104Y70885D01*
X23556Y70770D02*
X23556Y71230D01*
X23812Y70770D01*
X23812Y71230D01*
X24261Y70872D02*
X24259Y70854D01*
X24255Y70837D01*
X24247Y70821D01*
X24237Y70806D01*
X24225Y70794D01*
X24210Y70784D01*
X24194Y70776D01*
X24177Y70772D01*
X24159Y70770D01*
X24131Y70772D01*
X24103Y70777D01*
X24076Y70787D01*
X24050Y70799D01*
X24027Y70815D01*
X24006Y70834D01*
X24019Y71128D02*
X24021Y71146D01*
X24025Y71163D01*
X24033Y71179D01*
X24043Y71194D01*
X24055Y71206D01*
X24070Y71216D01*
X24086Y71224D01*
X24103Y71228D01*
X24121Y71230D01*
X24146Y71228D01*
X24170Y71224D01*
X24193Y71216D01*
X24216Y71205D01*
X24236Y71192D01*
X24019Y71128D02*
X24021Y71110D01*
X24025Y71093D01*
X24033Y71076D01*
X24043Y71062D01*
X24056Y71049D01*
X24070Y71038D01*
X24211Y70962D02*
X24225Y70951D01*
X24238Y70938D01*
X24248Y70924D01*
X24256Y70907D01*
X24260Y70890D01*
X24262Y70872D01*
X24211Y70962D02*
X24070Y71038D01*
X20904Y69230D02*
X20777Y69128D01*
X20904Y69230D02*
X20904Y68770D01*
X20777Y68770D02*
X21032Y68770D01*
X21227Y68770D02*
X21380Y68770D01*
X21398Y68772D01*
X21415Y68776D01*
X21431Y68784D01*
X21446Y68794D01*
X21458Y68806D01*
X21468Y68821D01*
X21476Y68837D01*
X21480Y68854D01*
X21482Y68872D01*
X21482Y68923D01*
X21480Y68941D01*
X21476Y68958D01*
X21468Y68974D01*
X21458Y68989D01*
X21446Y69001D01*
X21431Y69011D01*
X21415Y69019D01*
X21398Y69023D01*
X21380Y69025D01*
X21380Y69026D02*
X21227Y69026D01*
X21227Y69230D01*
X21482Y69230D01*
X21681Y68949D02*
X21988Y68949D01*
X22187Y68770D02*
X22314Y68770D01*
X22335Y68772D01*
X22356Y68777D01*
X22375Y68785D01*
X22393Y68797D01*
X22408Y68811D01*
X22421Y68828D01*
X22431Y68847D01*
X22438Y68867D01*
X22442Y68887D01*
X22442Y68909D01*
X22438Y68929D01*
X22431Y68949D01*
X22421Y68968D01*
X22408Y68985D01*
X22393Y68999D01*
X22375Y69011D01*
X22356Y69019D01*
X22335Y69024D01*
X22314Y69026D01*
X22340Y69230D02*
X22187Y69230D01*
X22340Y69230D02*
X22359Y69228D01*
X22377Y69223D01*
X22394Y69215D01*
X22409Y69203D01*
X22421Y69189D01*
X22431Y69173D01*
X22438Y69156D01*
X22442Y69137D01*
X22442Y69119D01*
X22438Y69100D01*
X22431Y69083D01*
X22421Y69067D01*
X22409Y69053D01*
X22394Y69041D01*
X22377Y69033D01*
X22359Y69028D01*
X22340Y69026D01*
X22238Y69026D01*
X22637Y69128D02*
X22764Y69230D01*
X22764Y68770D01*
X22637Y68770D02*
X22892Y68770D01*
X23091Y68949D02*
X23398Y68949D01*
X23597Y69128D02*
X23724Y69230D01*
X23724Y68770D01*
X23597Y68770D02*
X23852Y68770D01*
X24047Y69000D02*
X24049Y69034D01*
X24053Y69068D01*
X24061Y69102D01*
X24072Y69135D01*
X24085Y69166D01*
X24084Y69166D02*
X24091Y69181D01*
X24100Y69195D01*
X24112Y69207D01*
X24126Y69217D01*
X24141Y69224D01*
X24157Y69229D01*
X24174Y69230D01*
X24191Y69229D01*
X24207Y69224D01*
X24222Y69217D01*
X24236Y69207D01*
X24248Y69195D01*
X24257Y69181D01*
X24264Y69166D01*
X24277Y69135D01*
X24288Y69102D01*
X24296Y69068D01*
X24300Y69034D01*
X24302Y69000D01*
X24047Y69000D02*
X24049Y68966D01*
X24053Y68932D01*
X24061Y68898D01*
X24072Y68865D01*
X24085Y68834D01*
X24084Y68834D02*
X24091Y68819D01*
X24100Y68805D01*
X24112Y68793D01*
X24126Y68783D01*
X24141Y68776D01*
X24157Y68771D01*
X24174Y68770D01*
X24264Y68834D02*
X24277Y68865D01*
X24288Y68898D01*
X24296Y68932D01*
X24300Y68966D01*
X24302Y69000D01*
X24264Y68834D02*
X24257Y68819D01*
X24248Y68805D01*
X24236Y68793D01*
X24222Y68783D01*
X24207Y68776D01*
X24191Y68771D01*
X24174Y68770D01*
X24072Y68872D02*
X24277Y69128D01*
X24637Y69230D02*
X24657Y69228D01*
X24676Y69223D01*
X24695Y69215D01*
X24711Y69203D01*
X24725Y69189D01*
X24737Y69173D01*
X24745Y69154D01*
X24750Y69135D01*
X24752Y69115D01*
X24637Y69230D02*
X24614Y69228D01*
X24591Y69223D01*
X24570Y69214D01*
X24550Y69202D01*
X24532Y69187D01*
X24517Y69169D01*
X24505Y69149D01*
X24496Y69128D01*
X24715Y69025D02*
X24728Y69040D01*
X24739Y69057D01*
X24747Y69076D01*
X24751Y69095D01*
X24753Y69115D01*
X24714Y69026D02*
X24497Y68770D01*
X24752Y68770D01*
X24947Y69026D02*
X25100Y69026D01*
X25100Y69025D02*
X25118Y69023D01*
X25135Y69019D01*
X25151Y69011D01*
X25166Y69001D01*
X25178Y68989D01*
X25188Y68974D01*
X25196Y68958D01*
X25200Y68941D01*
X25202Y68923D01*
X25202Y68898D01*
X25200Y68877D01*
X25195Y68856D01*
X25187Y68837D01*
X25175Y68819D01*
X25161Y68804D01*
X25144Y68791D01*
X25125Y68781D01*
X25105Y68774D01*
X25085Y68770D01*
X25063Y68770D01*
X25043Y68774D01*
X25023Y68781D01*
X25004Y68791D01*
X24987Y68804D01*
X24973Y68819D01*
X24961Y68837D01*
X24953Y68856D01*
X24948Y68877D01*
X24946Y68898D01*
X24947Y68898D02*
X24947Y69026D01*
X24949Y69053D01*
X24954Y69079D01*
X24963Y69104D01*
X24974Y69128D01*
X24989Y69150D01*
X25007Y69170D01*
X25027Y69188D01*
X25049Y69203D01*
X25073Y69214D01*
X25098Y69223D01*
X25124Y69228D01*
X25151Y69230D01*
D10*
X35366Y71181D02*
X35366Y71614D01*
X29500Y71614D01*
X29500Y68386D01*
X35366Y68386D01*
X35366Y69606D01*
D11*
X31664Y70770D02*
X31664Y71230D01*
X31664Y71026D02*
X31920Y71026D01*
X31920Y71230D02*
X31920Y70770D01*
X32129Y70898D02*
X32129Y71102D01*
X32131Y71123D01*
X32136Y71144D01*
X32144Y71163D01*
X32156Y71181D01*
X32170Y71196D01*
X32187Y71209D01*
X32206Y71219D01*
X32226Y71226D01*
X32246Y71230D01*
X32268Y71230D01*
X32288Y71226D01*
X32308Y71219D01*
X32327Y71209D01*
X32344Y71196D01*
X32358Y71181D01*
X32370Y71163D01*
X32378Y71144D01*
X32383Y71123D01*
X32385Y71102D01*
X32385Y70898D01*
X32383Y70877D01*
X32378Y70856D01*
X32370Y70837D01*
X32358Y70819D01*
X32344Y70804D01*
X32327Y70791D01*
X32308Y70781D01*
X32288Y70774D01*
X32268Y70770D01*
X32246Y70770D01*
X32226Y70774D01*
X32206Y70781D01*
X32187Y70791D01*
X32170Y70804D01*
X32156Y70819D01*
X32144Y70837D01*
X32136Y70856D01*
X32131Y70877D01*
X32129Y70898D01*
X32597Y70770D02*
X32597Y71230D01*
X32725Y71230D01*
X32746Y71228D01*
X32767Y71223D01*
X32786Y71215D01*
X32804Y71203D01*
X32819Y71189D01*
X32832Y71172D01*
X32842Y71153D01*
X32849Y71133D01*
X32853Y71113D01*
X32853Y71091D01*
X32849Y71071D01*
X32842Y71051D01*
X32832Y71032D01*
X32819Y71015D01*
X32804Y71001D01*
X32786Y70989D01*
X32767Y70981D01*
X32746Y70976D01*
X32725Y70974D01*
X32597Y70974D01*
X32750Y70974D02*
X32853Y70770D01*
X33059Y70770D02*
X33059Y71230D01*
X33315Y70770D01*
X33315Y71230D01*
X30404Y69230D02*
X30277Y69128D01*
X30404Y69230D02*
X30404Y68770D01*
X30277Y68770D02*
X30532Y68770D01*
X30727Y68770D02*
X30880Y68770D01*
X30898Y68772D01*
X30915Y68776D01*
X30931Y68784D01*
X30946Y68794D01*
X30958Y68806D01*
X30968Y68821D01*
X30976Y68837D01*
X30980Y68854D01*
X30982Y68872D01*
X30982Y68923D01*
X30980Y68941D01*
X30976Y68958D01*
X30968Y68974D01*
X30958Y68989D01*
X30946Y69001D01*
X30931Y69011D01*
X30915Y69019D01*
X30898Y69023D01*
X30880Y69025D01*
X30880Y69026D02*
X30727Y69026D01*
X30727Y69230D01*
X30982Y69230D01*
X31181Y68949D02*
X31488Y68949D01*
X31687Y68770D02*
X31814Y68770D01*
X31835Y68772D01*
X31856Y68777D01*
X31875Y68785D01*
X31893Y68797D01*
X31908Y68811D01*
X31921Y68828D01*
X31931Y68847D01*
X31938Y68867D01*
X31942Y68887D01*
X31942Y68909D01*
X31938Y68929D01*
X31931Y68949D01*
X31921Y68968D01*
X31908Y68985D01*
X31893Y68999D01*
X31875Y69011D01*
X31856Y69019D01*
X31835Y69024D01*
X31814Y69026D01*
X31840Y69230D02*
X31687Y69230D01*
X31840Y69230D02*
X31859Y69228D01*
X31877Y69223D01*
X31894Y69215D01*
X31909Y69203D01*
X31921Y69189D01*
X31931Y69173D01*
X31938Y69156D01*
X31942Y69137D01*
X31942Y69119D01*
X31938Y69100D01*
X31931Y69083D01*
X31921Y69067D01*
X31909Y69053D01*
X31894Y69041D01*
X31877Y69033D01*
X31859Y69028D01*
X31840Y69026D01*
X31738Y69026D01*
X32137Y69128D02*
X32264Y69230D01*
X32264Y68770D01*
X32137Y68770D02*
X32392Y68770D01*
X32591Y68949D02*
X32898Y68949D01*
X33097Y69128D02*
X33224Y69230D01*
X33224Y68770D01*
X33097Y68770D02*
X33352Y68770D01*
X33547Y69000D02*
X33549Y69034D01*
X33553Y69068D01*
X33561Y69102D01*
X33572Y69135D01*
X33585Y69166D01*
X33584Y69166D02*
X33591Y69181D01*
X33600Y69195D01*
X33612Y69207D01*
X33626Y69217D01*
X33641Y69224D01*
X33657Y69229D01*
X33674Y69230D01*
X33691Y69229D01*
X33707Y69224D01*
X33722Y69217D01*
X33736Y69207D01*
X33748Y69195D01*
X33757Y69181D01*
X33764Y69166D01*
X33777Y69135D01*
X33788Y69102D01*
X33796Y69068D01*
X33800Y69034D01*
X33802Y69000D01*
X33547Y69000D02*
X33549Y68966D01*
X33553Y68932D01*
X33561Y68898D01*
X33572Y68865D01*
X33585Y68834D01*
X33584Y68834D02*
X33591Y68819D01*
X33600Y68805D01*
X33612Y68793D01*
X33626Y68783D01*
X33641Y68776D01*
X33657Y68771D01*
X33674Y68770D01*
X33764Y68834D02*
X33777Y68865D01*
X33788Y68898D01*
X33796Y68932D01*
X33800Y68966D01*
X33802Y69000D01*
X33764Y68834D02*
X33757Y68819D01*
X33748Y68805D01*
X33736Y68793D01*
X33722Y68783D01*
X33707Y68776D01*
X33691Y68771D01*
X33674Y68770D01*
X33572Y68872D02*
X33777Y69128D01*
X34137Y69230D02*
X34157Y69228D01*
X34176Y69223D01*
X34195Y69215D01*
X34211Y69203D01*
X34225Y69189D01*
X34237Y69173D01*
X34245Y69154D01*
X34250Y69135D01*
X34252Y69115D01*
X34137Y69230D02*
X34114Y69228D01*
X34091Y69223D01*
X34070Y69214D01*
X34050Y69202D01*
X34032Y69187D01*
X34017Y69169D01*
X34005Y69149D01*
X33996Y69128D01*
X34215Y69025D02*
X34228Y69040D01*
X34239Y69057D01*
X34247Y69076D01*
X34251Y69095D01*
X34253Y69115D01*
X34214Y69026D02*
X33997Y68770D01*
X34252Y68770D01*
X34447Y69026D02*
X34600Y69026D01*
X34600Y69025D02*
X34618Y69023D01*
X34635Y69019D01*
X34651Y69011D01*
X34666Y69001D01*
X34678Y68989D01*
X34688Y68974D01*
X34696Y68958D01*
X34700Y68941D01*
X34702Y68923D01*
X34702Y68898D01*
X34700Y68877D01*
X34695Y68856D01*
X34687Y68837D01*
X34675Y68819D01*
X34661Y68804D01*
X34644Y68791D01*
X34625Y68781D01*
X34605Y68774D01*
X34585Y68770D01*
X34563Y68770D01*
X34543Y68774D01*
X34523Y68781D01*
X34504Y68791D01*
X34487Y68804D01*
X34473Y68819D01*
X34461Y68837D01*
X34453Y68856D01*
X34448Y68877D01*
X34446Y68898D01*
X34447Y68898D02*
X34447Y69026D01*
X34449Y69053D01*
X34454Y69079D01*
X34463Y69104D01*
X34474Y69128D01*
X34489Y69150D01*
X34507Y69170D01*
X34527Y69188D01*
X34549Y69203D01*
X34573Y69214D01*
X34598Y69223D01*
X34624Y69228D01*
X34651Y69230D01*
D10*
X38146Y68063D02*
X49484Y68063D01*
X38146Y68063D02*
X38146Y72984D01*
X49484Y72984D01*
X49484Y68063D01*
D17*
X49839Y71961D03*
D12*
X49837Y71969D01*
X49833Y71975D01*
X49827Y71979D01*
X49819Y71981D01*
X49811Y71979D01*
X49805Y71975D01*
X49801Y71969D01*
X49799Y71961D01*
D17*
X49799Y71961D03*
D12*
X49801Y71953D01*
X49805Y71947D01*
X49811Y71943D01*
X49819Y71941D01*
X49827Y71943D01*
X49833Y71947D01*
X49837Y71953D01*
X49839Y71961D01*
D17*
X49839Y71961D03*
D12*
X49837Y71969D01*
X49833Y71975D01*
X49827Y71979D01*
X49819Y71981D01*
X49811Y71979D01*
X49805Y71975D01*
X49801Y71969D01*
X49799Y71961D01*
D11*
X43650Y70754D02*
X43650Y70294D01*
X43650Y70473D02*
X43906Y70754D01*
X43752Y70575D02*
X43906Y70294D01*
X44079Y70651D02*
X44206Y70754D01*
X44206Y70294D01*
X44079Y70294D02*
X44334Y70294D01*
X42182Y70754D02*
X42028Y70294D01*
X42335Y70294D02*
X42182Y70754D01*
X42297Y70409D02*
X42067Y70409D01*
X42520Y70294D02*
X42520Y70754D01*
X42520Y70294D02*
X42724Y70294D01*
X42879Y70754D02*
X43134Y70754D01*
X42879Y70294D01*
X43134Y70294D01*
X43314Y70651D02*
X43442Y70754D01*
X43442Y70294D01*
X43569Y70294D02*
X43314Y70294D01*
X43904Y70754D02*
X43924Y70752D01*
X43943Y70747D01*
X43962Y70739D01*
X43978Y70727D01*
X43992Y70713D01*
X44004Y70697D01*
X44012Y70678D01*
X44017Y70659D01*
X44019Y70639D01*
X43904Y70754D02*
X43881Y70752D01*
X43858Y70747D01*
X43837Y70738D01*
X43817Y70726D01*
X43799Y70711D01*
X43784Y70693D01*
X43772Y70673D01*
X43763Y70652D01*
X43982Y70549D02*
X43995Y70564D01*
X44006Y70581D01*
X44014Y70600D01*
X44018Y70619D01*
X44020Y70639D01*
X43981Y70549D02*
X43764Y70294D01*
X44019Y70294D01*
X44235Y70549D02*
X44363Y70549D01*
X44384Y70547D01*
X44405Y70542D01*
X44424Y70534D01*
X44442Y70522D01*
X44457Y70508D01*
X44470Y70491D01*
X44480Y70472D01*
X44487Y70452D01*
X44491Y70432D01*
X44491Y70410D01*
X44487Y70390D01*
X44480Y70370D01*
X44470Y70351D01*
X44457Y70334D01*
X44442Y70320D01*
X44424Y70308D01*
X44405Y70300D01*
X44384Y70295D01*
X44363Y70293D01*
X44363Y70294D02*
X44235Y70294D01*
X44235Y70754D01*
X44363Y70754D01*
X44363Y70753D02*
X44382Y70751D01*
X44400Y70746D01*
X44417Y70738D01*
X44432Y70726D01*
X44444Y70712D01*
X44454Y70696D01*
X44461Y70679D01*
X44465Y70660D01*
X44465Y70642D01*
X44461Y70623D01*
X44454Y70606D01*
X44444Y70590D01*
X44432Y70576D01*
X44417Y70564D01*
X44400Y70556D01*
X44382Y70551D01*
X44363Y70549D01*
X44664Y70651D02*
X44792Y70754D01*
X44792Y70294D01*
X44919Y70294D02*
X44664Y70294D01*
X45254Y70754D02*
X45274Y70752D01*
X45293Y70747D01*
X45312Y70739D01*
X45328Y70727D01*
X45342Y70713D01*
X45354Y70697D01*
X45362Y70678D01*
X45367Y70659D01*
X45369Y70639D01*
X45254Y70754D02*
X45231Y70752D01*
X45208Y70747D01*
X45187Y70738D01*
X45167Y70726D01*
X45149Y70711D01*
X45134Y70693D01*
X45122Y70673D01*
X45113Y70652D01*
X45332Y70549D02*
X45345Y70564D01*
X45356Y70581D01*
X45364Y70600D01*
X45368Y70619D01*
X45370Y70639D01*
X45331Y70549D02*
X45114Y70294D01*
X45369Y70294D01*
X45649Y70294D02*
X45547Y70754D01*
X45752Y70600D02*
X45649Y70294D01*
X45854Y70294D02*
X45752Y70600D01*
X45956Y70754D02*
X45854Y70294D01*
X28278Y33402D02*
X28278Y30598D01*
X30722Y30598D02*
X30722Y33402D01*
D18*
X29106Y32214D02*
X29500Y31673D01*
X29894Y32214D01*
X29106Y32214D01*
D19*
X29500Y31419D03*
D11*
X27902Y30786D02*
X27902Y30658D01*
X27902Y30786D02*
X27904Y30807D01*
X27909Y30828D01*
X27917Y30847D01*
X27929Y30865D01*
X27943Y30880D01*
X27960Y30893D01*
X27979Y30903D01*
X27999Y30910D01*
X28019Y30914D01*
X28041Y30914D01*
X28061Y30910D01*
X28081Y30903D01*
X28100Y30893D01*
X28117Y30880D01*
X28131Y30865D01*
X28143Y30847D01*
X28151Y30828D01*
X28156Y30807D01*
X28158Y30786D01*
X28158Y30658D01*
X27698Y30658D01*
X27698Y30786D01*
X27700Y30805D01*
X27705Y30823D01*
X27713Y30840D01*
X27725Y30855D01*
X27739Y30867D01*
X27755Y30877D01*
X27772Y30884D01*
X27791Y30888D01*
X27809Y30888D01*
X27828Y30884D01*
X27845Y30877D01*
X27861Y30867D01*
X27875Y30855D01*
X27887Y30840D01*
X27895Y30823D01*
X27900Y30805D01*
X27902Y30786D01*
X28030Y31102D02*
X27698Y31102D01*
X28030Y31101D02*
X28051Y31103D01*
X28072Y31108D01*
X28091Y31116D01*
X28109Y31128D01*
X28124Y31142D01*
X28137Y31159D01*
X28147Y31178D01*
X28154Y31198D01*
X28158Y31218D01*
X28158Y31240D01*
X28154Y31260D01*
X28147Y31280D01*
X28137Y31299D01*
X28124Y31316D01*
X28109Y31330D01*
X28091Y31342D01*
X28072Y31350D01*
X28051Y31355D01*
X28030Y31357D01*
X27698Y31357D01*
X28158Y31667D02*
X28158Y31770D01*
X28157Y31667D02*
X28155Y31649D01*
X28151Y31632D01*
X28143Y31616D01*
X28133Y31601D01*
X28121Y31589D01*
X28106Y31579D01*
X28090Y31571D01*
X28073Y31567D01*
X28055Y31565D01*
X27800Y31565D01*
X27780Y31567D01*
X27761Y31573D01*
X27743Y31582D01*
X27728Y31595D01*
X27715Y31610D01*
X27706Y31628D01*
X27700Y31647D01*
X27698Y31667D01*
X27698Y31770D01*
X27698Y31963D02*
X28158Y31963D01*
X27979Y31963D02*
X27698Y32219D01*
X27876Y32065D02*
X28158Y32219D01*
X28158Y32413D02*
X27698Y32413D01*
X27698Y32541D01*
X27697Y32541D02*
X27699Y32562D01*
X27704Y32583D01*
X27712Y32602D01*
X27724Y32620D01*
X27738Y32635D01*
X27755Y32648D01*
X27774Y32658D01*
X27794Y32665D01*
X27814Y32669D01*
X27836Y32669D01*
X27856Y32665D01*
X27876Y32658D01*
X27895Y32648D01*
X27912Y32635D01*
X27926Y32620D01*
X27938Y32602D01*
X27946Y32583D01*
X27951Y32562D01*
X27953Y32541D01*
X27953Y32413D01*
X28158Y32859D02*
X27698Y32859D01*
X27698Y32987D01*
X27697Y32987D02*
X27699Y33008D01*
X27704Y33029D01*
X27712Y33048D01*
X27724Y33066D01*
X27738Y33081D01*
X27755Y33094D01*
X27774Y33104D01*
X27794Y33111D01*
X27814Y33115D01*
X27836Y33115D01*
X27856Y33111D01*
X27876Y33104D01*
X27895Y33094D01*
X27912Y33081D01*
X27926Y33066D01*
X27938Y33048D01*
X27946Y33029D01*
X27951Y33008D01*
X27953Y32987D01*
X27953Y32859D01*
X27953Y33013D02*
X28158Y33115D01*
X28030Y33307D02*
X27825Y33307D01*
X27825Y33306D02*
X27804Y33308D01*
X27783Y33313D01*
X27764Y33321D01*
X27746Y33333D01*
X27731Y33347D01*
X27718Y33364D01*
X27708Y33383D01*
X27701Y33403D01*
X27697Y33423D01*
X27697Y33445D01*
X27701Y33465D01*
X27708Y33485D01*
X27718Y33504D01*
X27731Y33521D01*
X27746Y33535D01*
X27764Y33547D01*
X27783Y33555D01*
X27804Y33560D01*
X27825Y33562D01*
X28030Y33562D01*
X28051Y33560D01*
X28072Y33555D01*
X28091Y33547D01*
X28109Y33535D01*
X28124Y33521D01*
X28137Y33504D01*
X28147Y33485D01*
X28154Y33465D01*
X28158Y33445D01*
X28158Y33423D01*
X28154Y33403D01*
X28147Y33383D01*
X28137Y33364D01*
X28124Y33347D01*
X28109Y33333D01*
X28091Y33321D01*
X28072Y33313D01*
X28051Y33308D01*
X28030Y33306D01*
X28158Y33854D02*
X27698Y33854D01*
X27698Y33727D02*
X27698Y33982D01*
X28158Y34162D02*
X28158Y34367D01*
X28158Y34162D02*
X27698Y34162D01*
X27698Y34367D01*
X27902Y34316D02*
X27902Y34162D01*
X28158Y34637D02*
X28158Y34740D01*
X28157Y34637D02*
X28155Y34619D01*
X28151Y34602D01*
X28143Y34586D01*
X28133Y34571D01*
X28121Y34559D01*
X28106Y34549D01*
X28090Y34541D01*
X28073Y34537D01*
X28055Y34535D01*
X27800Y34535D01*
X27780Y34537D01*
X27761Y34543D01*
X27743Y34552D01*
X27728Y34565D01*
X27715Y34580D01*
X27706Y34598D01*
X27700Y34617D01*
X27698Y34637D01*
X27698Y34740D01*
X27698Y35009D02*
X28158Y35009D01*
X27698Y34882D02*
X27698Y35137D01*
X27698Y35317D02*
X28158Y35317D01*
X27698Y35317D02*
X27698Y35444D01*
X27697Y35444D02*
X27699Y35464D01*
X27703Y35484D01*
X27711Y35502D01*
X27721Y35519D01*
X27734Y35535D01*
X27750Y35548D01*
X27767Y35558D01*
X27785Y35566D01*
X27805Y35570D01*
X27825Y35572D01*
X28030Y35572D01*
X28050Y35570D01*
X28070Y35566D01*
X28088Y35558D01*
X28105Y35548D01*
X28121Y35535D01*
X28134Y35519D01*
X28144Y35502D01*
X28152Y35484D01*
X28156Y35464D01*
X28158Y35444D01*
X28158Y35317D01*
X28158Y35819D02*
X27698Y35819D01*
X28158Y35768D02*
X28158Y35870D01*
X27698Y35870D02*
X27698Y35768D01*
X27825Y36052D02*
X28030Y36052D01*
X27825Y36051D02*
X27804Y36053D01*
X27783Y36058D01*
X27764Y36066D01*
X27746Y36078D01*
X27731Y36092D01*
X27718Y36109D01*
X27708Y36128D01*
X27701Y36148D01*
X27697Y36168D01*
X27697Y36190D01*
X27701Y36210D01*
X27708Y36230D01*
X27718Y36249D01*
X27731Y36266D01*
X27746Y36280D01*
X27764Y36292D01*
X27783Y36300D01*
X27804Y36305D01*
X27825Y36307D01*
X28030Y36307D01*
X28051Y36305D01*
X28072Y36300D01*
X28091Y36292D01*
X28109Y36280D01*
X28124Y36266D01*
X28137Y36249D01*
X28147Y36230D01*
X28154Y36210D01*
X28158Y36190D01*
X28158Y36168D01*
X28154Y36148D01*
X28147Y36128D01*
X28137Y36109D01*
X28124Y36092D01*
X28109Y36078D01*
X28091Y36066D01*
X28072Y36058D01*
X28051Y36053D01*
X28030Y36051D01*
X28158Y36517D02*
X27698Y36517D01*
X27698Y36644D01*
X27697Y36644D02*
X27699Y36664D01*
X27703Y36684D01*
X27711Y36702D01*
X27721Y36719D01*
X27734Y36735D01*
X27750Y36748D01*
X27767Y36758D01*
X27785Y36766D01*
X27805Y36770D01*
X27825Y36772D01*
X28030Y36772D01*
X28050Y36770D01*
X28070Y36766D01*
X28088Y36758D01*
X28105Y36748D01*
X28121Y36735D01*
X28134Y36719D01*
X28144Y36702D01*
X28152Y36684D01*
X28156Y36664D01*
X28158Y36644D01*
X28158Y36517D01*
X28158Y36997D02*
X28158Y37202D01*
X28158Y36997D02*
X27698Y36997D01*
X27698Y37202D01*
X27902Y37151D02*
X27902Y36997D01*
X31200Y30914D02*
X31218Y30912D01*
X31235Y30908D01*
X31251Y30900D01*
X31266Y30890D01*
X31278Y30878D01*
X31288Y30863D01*
X31296Y30847D01*
X31300Y30830D01*
X31302Y30812D01*
X31300Y30784D01*
X31295Y30756D01*
X31285Y30729D01*
X31273Y30703D01*
X31257Y30680D01*
X31238Y30659D01*
X30945Y30671D02*
X30927Y30673D01*
X30910Y30677D01*
X30894Y30685D01*
X30879Y30695D01*
X30867Y30707D01*
X30857Y30722D01*
X30849Y30738D01*
X30845Y30755D01*
X30843Y30773D01*
X30842Y30773D02*
X30844Y30798D01*
X30848Y30822D01*
X30856Y30845D01*
X30867Y30868D01*
X30880Y30888D01*
X30945Y30671D02*
X30963Y30673D01*
X30980Y30677D01*
X30997Y30685D01*
X31011Y30695D01*
X31024Y30708D01*
X31035Y30722D01*
X31110Y30863D02*
X31121Y30877D01*
X31134Y30890D01*
X31148Y30900D01*
X31165Y30908D01*
X31182Y30912D01*
X31200Y30914D01*
X31111Y30863D02*
X31034Y30722D01*
X30842Y31109D02*
X31302Y31109D01*
X31302Y31314D01*
X31200Y31483D02*
X30842Y31585D01*
X31200Y31483D02*
X31200Y31739D01*
X31098Y31662D02*
X31302Y31662D01*
X31200Y31933D02*
X30842Y32035D01*
X31200Y31933D02*
X31200Y32189D01*
X31098Y32112D02*
X31302Y32112D01*
X31302Y32398D02*
X30842Y32398D01*
X31047Y32398D02*
X31047Y32654D01*
X30842Y32654D02*
X31302Y32654D01*
X31302Y32879D02*
X31302Y33084D01*
X31302Y32879D02*
X30842Y32879D01*
X30842Y33084D01*
X31047Y33032D02*
X31047Y32879D01*
X31302Y33253D02*
X31302Y33381D01*
X31303Y33381D02*
X31301Y33402D01*
X31296Y33423D01*
X31288Y33442D01*
X31276Y33460D01*
X31262Y33475D01*
X31245Y33488D01*
X31226Y33498D01*
X31206Y33505D01*
X31186Y33509D01*
X31164Y33509D01*
X31144Y33505D01*
X31124Y33498D01*
X31105Y33488D01*
X31088Y33475D01*
X31074Y33460D01*
X31062Y33442D01*
X31054Y33423D01*
X31049Y33402D01*
X31047Y33381D01*
X30842Y33407D02*
X30842Y33253D01*
X30843Y33407D02*
X30845Y33426D01*
X30850Y33444D01*
X30858Y33461D01*
X30870Y33476D01*
X30884Y33488D01*
X30900Y33498D01*
X30917Y33505D01*
X30936Y33509D01*
X30954Y33509D01*
X30973Y33505D01*
X30990Y33498D01*
X31006Y33488D01*
X31020Y33476D01*
X31032Y33461D01*
X31040Y33444D01*
X31045Y33426D01*
X31047Y33407D01*
X31047Y33304D01*
D10*
X17366Y71181D02*
X17366Y71614D01*
X11500Y71614D01*
X11500Y68386D01*
X17366Y68386D01*
X17366Y69606D01*
D11*
X13539Y70770D02*
X13385Y71230D01*
X13692Y71230D02*
X13539Y70770D01*
X13835Y70770D02*
X13989Y71230D01*
X14142Y70770D01*
X14104Y70885D02*
X13874Y70885D01*
X14329Y70770D02*
X14329Y71230D01*
X14457Y71230D01*
X14478Y71228D01*
X14499Y71223D01*
X14518Y71215D01*
X14536Y71203D01*
X14551Y71189D01*
X14564Y71172D01*
X14574Y71153D01*
X14581Y71133D01*
X14585Y71113D01*
X14585Y71091D01*
X14581Y71071D01*
X14574Y71051D01*
X14564Y71032D01*
X14551Y71015D01*
X14536Y71001D01*
X14518Y70989D01*
X14499Y70981D01*
X14478Y70976D01*
X14457Y70974D01*
X14329Y70974D01*
X14482Y70974D02*
X14584Y70770D01*
X14795Y70770D02*
X14795Y71230D01*
X14949Y70974D01*
X15102Y71230D01*
X15102Y70770D01*
X15338Y70770D02*
X15338Y71230D01*
X15465Y71230D01*
X15486Y71228D01*
X15507Y71223D01*
X15526Y71215D01*
X15544Y71203D01*
X15559Y71189D01*
X15572Y71172D01*
X15582Y71153D01*
X15589Y71133D01*
X15593Y71113D01*
X15593Y71091D01*
X15589Y71071D01*
X15582Y71051D01*
X15572Y71032D01*
X15559Y71015D01*
X15544Y71001D01*
X15526Y70989D01*
X15507Y70981D01*
X15486Y70976D01*
X15465Y70974D01*
X15338Y70974D01*
X12404Y69230D02*
X12277Y69128D01*
X12404Y69230D02*
X12404Y68770D01*
X12277Y68770D02*
X12532Y68770D01*
X12727Y68770D02*
X12880Y68770D01*
X12898Y68772D01*
X12915Y68776D01*
X12931Y68784D01*
X12946Y68794D01*
X12958Y68806D01*
X12968Y68821D01*
X12976Y68837D01*
X12980Y68854D01*
X12982Y68872D01*
X12982Y68923D01*
X12980Y68941D01*
X12976Y68958D01*
X12968Y68974D01*
X12958Y68989D01*
X12946Y69001D01*
X12931Y69011D01*
X12915Y69019D01*
X12898Y69023D01*
X12880Y69025D01*
X12880Y69026D02*
X12727Y69026D01*
X12727Y69230D01*
X12982Y69230D01*
X13181Y68949D02*
X13488Y68949D01*
X13687Y68770D02*
X13814Y68770D01*
X13835Y68772D01*
X13856Y68777D01*
X13875Y68785D01*
X13893Y68797D01*
X13908Y68811D01*
X13921Y68828D01*
X13931Y68847D01*
X13938Y68867D01*
X13942Y68887D01*
X13942Y68909D01*
X13938Y68929D01*
X13931Y68949D01*
X13921Y68968D01*
X13908Y68985D01*
X13893Y68999D01*
X13875Y69011D01*
X13856Y69019D01*
X13835Y69024D01*
X13814Y69026D01*
X13840Y69230D02*
X13687Y69230D01*
X13840Y69230D02*
X13859Y69228D01*
X13877Y69223D01*
X13894Y69215D01*
X13909Y69203D01*
X13921Y69189D01*
X13931Y69173D01*
X13938Y69156D01*
X13942Y69137D01*
X13942Y69119D01*
X13938Y69100D01*
X13931Y69083D01*
X13921Y69067D01*
X13909Y69053D01*
X13894Y69041D01*
X13877Y69033D01*
X13859Y69028D01*
X13840Y69026D01*
X13738Y69026D01*
X14137Y69128D02*
X14264Y69230D01*
X14264Y68770D01*
X14137Y68770D02*
X14392Y68770D01*
X14591Y68949D02*
X14898Y68949D01*
X15097Y69128D02*
X15224Y69230D01*
X15224Y68770D01*
X15097Y68770D02*
X15352Y68770D01*
X15547Y69000D02*
X15549Y69034D01*
X15553Y69068D01*
X15561Y69102D01*
X15572Y69135D01*
X15585Y69166D01*
X15584Y69166D02*
X15591Y69181D01*
X15600Y69195D01*
X15612Y69207D01*
X15626Y69217D01*
X15641Y69224D01*
X15657Y69229D01*
X15674Y69230D01*
X15691Y69229D01*
X15707Y69224D01*
X15722Y69217D01*
X15736Y69207D01*
X15748Y69195D01*
X15757Y69181D01*
X15764Y69166D01*
X15777Y69135D01*
X15788Y69102D01*
X15796Y69068D01*
X15800Y69034D01*
X15802Y69000D01*
X15547Y69000D02*
X15549Y68966D01*
X15553Y68932D01*
X15561Y68898D01*
X15572Y68865D01*
X15585Y68834D01*
X15584Y68834D02*
X15591Y68819D01*
X15600Y68805D01*
X15612Y68793D01*
X15626Y68783D01*
X15641Y68776D01*
X15657Y68771D01*
X15674Y68770D01*
X15764Y68834D02*
X15777Y68865D01*
X15788Y68898D01*
X15796Y68932D01*
X15800Y68966D01*
X15802Y69000D01*
X15764Y68834D02*
X15757Y68819D01*
X15748Y68805D01*
X15736Y68793D01*
X15722Y68783D01*
X15707Y68776D01*
X15691Y68771D01*
X15674Y68770D01*
X15572Y68872D02*
X15777Y69128D01*
X16137Y69230D02*
X16157Y69228D01*
X16176Y69223D01*
X16195Y69215D01*
X16211Y69203D01*
X16225Y69189D01*
X16237Y69173D01*
X16245Y69154D01*
X16250Y69135D01*
X16252Y69115D01*
X16137Y69230D02*
X16114Y69228D01*
X16091Y69223D01*
X16070Y69214D01*
X16050Y69202D01*
X16032Y69187D01*
X16017Y69169D01*
X16005Y69149D01*
X15996Y69128D01*
X16215Y69025D02*
X16228Y69040D01*
X16239Y69057D01*
X16247Y69076D01*
X16251Y69095D01*
X16253Y69115D01*
X16214Y69026D02*
X15997Y68770D01*
X16252Y68770D01*
X16447Y69026D02*
X16600Y69026D01*
X16600Y69025D02*
X16618Y69023D01*
X16635Y69019D01*
X16651Y69011D01*
X16666Y69001D01*
X16678Y68989D01*
X16688Y68974D01*
X16696Y68958D01*
X16700Y68941D01*
X16702Y68923D01*
X16702Y68898D01*
X16700Y68877D01*
X16695Y68856D01*
X16687Y68837D01*
X16675Y68819D01*
X16661Y68804D01*
X16644Y68791D01*
X16625Y68781D01*
X16605Y68774D01*
X16585Y68770D01*
X16563Y68770D01*
X16543Y68774D01*
X16523Y68781D01*
X16504Y68791D01*
X16487Y68804D01*
X16473Y68819D01*
X16461Y68837D01*
X16453Y68856D01*
X16448Y68877D01*
X16446Y68898D01*
X16447Y68898D02*
X16447Y69026D01*
X16449Y69053D01*
X16454Y69079D01*
X16463Y69104D01*
X16474Y69128D01*
X16489Y69150D01*
X16507Y69170D01*
X16527Y69188D01*
X16549Y69203D01*
X16573Y69214D01*
X16598Y69223D01*
X16624Y69228D01*
X16651Y69230D01*
D10*
X2819Y54366D02*
X2386Y54366D01*
X2386Y48500D01*
X5614Y48500D01*
X5614Y54366D01*
X4394Y54366D01*
D11*
X3230Y50876D02*
X2770Y50876D01*
X3026Y51030D01*
X2770Y51183D01*
X3230Y51183D01*
X3230Y51419D02*
X2770Y51419D01*
X2770Y51546D01*
X2772Y51567D01*
X2777Y51588D01*
X2785Y51607D01*
X2797Y51625D01*
X2811Y51640D01*
X2828Y51653D01*
X2847Y51663D01*
X2867Y51670D01*
X2887Y51674D01*
X2909Y51674D01*
X2929Y51670D01*
X2949Y51663D01*
X2968Y51653D01*
X2985Y51640D01*
X2999Y51625D01*
X3011Y51607D01*
X3019Y51588D01*
X3024Y51567D01*
X3026Y51546D01*
X3026Y51419D01*
X2872Y51847D02*
X2770Y51975D01*
X3230Y51975D01*
X3230Y52102D02*
X3230Y51847D01*
X4770Y49904D02*
X4872Y49777D01*
X4770Y49904D02*
X5230Y49904D01*
X5230Y49777D02*
X5230Y50032D01*
X5230Y50227D02*
X5230Y50380D01*
X5228Y50398D01*
X5224Y50415D01*
X5216Y50431D01*
X5206Y50446D01*
X5194Y50458D01*
X5179Y50468D01*
X5163Y50476D01*
X5146Y50480D01*
X5128Y50482D01*
X5077Y50482D01*
X5059Y50480D01*
X5042Y50476D01*
X5026Y50468D01*
X5011Y50458D01*
X4999Y50446D01*
X4989Y50431D01*
X4981Y50415D01*
X4977Y50398D01*
X4975Y50380D01*
X4974Y50380D02*
X4974Y50227D01*
X4770Y50227D01*
X4770Y50482D01*
X5051Y50681D02*
X5051Y50988D01*
X5230Y51187D02*
X5230Y51314D01*
X5228Y51335D01*
X5223Y51356D01*
X5215Y51375D01*
X5203Y51393D01*
X5189Y51408D01*
X5172Y51421D01*
X5153Y51431D01*
X5133Y51438D01*
X5113Y51442D01*
X5091Y51442D01*
X5071Y51438D01*
X5051Y51431D01*
X5032Y51421D01*
X5015Y51408D01*
X5001Y51393D01*
X4989Y51375D01*
X4981Y51356D01*
X4976Y51335D01*
X4974Y51314D01*
X4770Y51340D02*
X4770Y51187D01*
X4770Y51340D02*
X4772Y51359D01*
X4777Y51377D01*
X4785Y51394D01*
X4797Y51409D01*
X4811Y51421D01*
X4827Y51431D01*
X4844Y51438D01*
X4863Y51442D01*
X4881Y51442D01*
X4900Y51438D01*
X4917Y51431D01*
X4933Y51421D01*
X4947Y51409D01*
X4959Y51394D01*
X4967Y51377D01*
X4972Y51359D01*
X4974Y51340D01*
X4974Y51238D01*
X4872Y51637D02*
X4770Y51764D01*
X5230Y51764D01*
X5230Y51637D02*
X5230Y51892D01*
X5051Y52091D02*
X5051Y52398D01*
X4872Y52597D02*
X4770Y52724D01*
X5230Y52724D01*
X5230Y52597D02*
X5230Y52852D01*
X5000Y53047D02*
X4966Y53049D01*
X4932Y53053D01*
X4898Y53061D01*
X4865Y53072D01*
X4834Y53085D01*
X4834Y53084D02*
X4819Y53091D01*
X4805Y53100D01*
X4793Y53112D01*
X4783Y53126D01*
X4776Y53141D01*
X4771Y53157D01*
X4770Y53174D01*
X4771Y53191D01*
X4776Y53207D01*
X4783Y53222D01*
X4793Y53236D01*
X4805Y53248D01*
X4819Y53257D01*
X4834Y53264D01*
X4865Y53277D01*
X4898Y53288D01*
X4932Y53296D01*
X4966Y53300D01*
X5000Y53302D01*
X5000Y53047D02*
X5034Y53049D01*
X5068Y53053D01*
X5102Y53061D01*
X5135Y53072D01*
X5166Y53085D01*
X5166Y53084D02*
X5181Y53091D01*
X5195Y53100D01*
X5207Y53112D01*
X5217Y53126D01*
X5224Y53141D01*
X5229Y53157D01*
X5230Y53174D01*
X5166Y53264D02*
X5135Y53277D01*
X5102Y53288D01*
X5068Y53296D01*
X5034Y53300D01*
X5000Y53302D01*
X5166Y53264D02*
X5181Y53257D01*
X5195Y53248D01*
X5207Y53236D01*
X5217Y53222D01*
X5224Y53207D01*
X5229Y53191D01*
X5230Y53174D01*
X5128Y53072D02*
X4872Y53277D01*
X4770Y53637D02*
X4772Y53657D01*
X4777Y53676D01*
X4785Y53695D01*
X4797Y53711D01*
X4811Y53725D01*
X4828Y53737D01*
X4846Y53745D01*
X4865Y53750D01*
X4885Y53752D01*
X4770Y53637D02*
X4772Y53614D01*
X4777Y53591D01*
X4786Y53570D01*
X4798Y53550D01*
X4813Y53532D01*
X4831Y53517D01*
X4851Y53505D01*
X4872Y53496D01*
X4975Y53715D02*
X4960Y53728D01*
X4943Y53739D01*
X4924Y53747D01*
X4905Y53751D01*
X4885Y53753D01*
X4974Y53714D02*
X5230Y53497D01*
X5230Y53752D01*
X4974Y53947D02*
X4974Y54100D01*
X4975Y54100D02*
X4977Y54118D01*
X4981Y54135D01*
X4989Y54151D01*
X4999Y54166D01*
X5011Y54178D01*
X5026Y54188D01*
X5042Y54196D01*
X5059Y54200D01*
X5077Y54202D01*
X5102Y54202D01*
X5123Y54200D01*
X5144Y54195D01*
X5163Y54187D01*
X5181Y54175D01*
X5196Y54161D01*
X5209Y54144D01*
X5219Y54125D01*
X5226Y54105D01*
X5230Y54085D01*
X5230Y54063D01*
X5226Y54043D01*
X5219Y54023D01*
X5209Y54004D01*
X5196Y53987D01*
X5181Y53973D01*
X5163Y53961D01*
X5144Y53953D01*
X5123Y53948D01*
X5102Y53946D01*
X5102Y53947D02*
X4974Y53947D01*
X4947Y53949D01*
X4921Y53954D01*
X4896Y53963D01*
X4872Y53974D01*
X4850Y53989D01*
X4830Y54007D01*
X4812Y54027D01*
X4797Y54049D01*
X4786Y54073D01*
X4777Y54098D01*
X4772Y54124D01*
X4770Y54151D01*
D10*
X2819Y45366D02*
X2386Y45366D01*
X2386Y39500D01*
X5614Y39500D01*
X5614Y45366D01*
X4394Y45366D01*
D11*
X3230Y40376D02*
X2770Y40376D01*
X3026Y40530D01*
X2770Y40683D01*
X3230Y40683D01*
X3230Y40919D02*
X2770Y40919D01*
X2770Y41046D01*
X2772Y41067D01*
X2777Y41088D01*
X2785Y41107D01*
X2797Y41125D01*
X2811Y41140D01*
X2828Y41153D01*
X2847Y41163D01*
X2867Y41170D01*
X2887Y41174D01*
X2909Y41174D01*
X2929Y41170D01*
X2949Y41163D01*
X2968Y41153D01*
X2985Y41140D01*
X2999Y41125D01*
X3011Y41107D01*
X3019Y41088D01*
X3024Y41067D01*
X3026Y41046D01*
X3026Y40919D01*
X2770Y41487D02*
X2772Y41507D01*
X2777Y41526D01*
X2785Y41545D01*
X2797Y41561D01*
X2811Y41575D01*
X2828Y41587D01*
X2846Y41595D01*
X2865Y41600D01*
X2885Y41602D01*
X2770Y41487D02*
X2772Y41464D01*
X2777Y41441D01*
X2786Y41420D01*
X2798Y41400D01*
X2813Y41382D01*
X2831Y41367D01*
X2851Y41355D01*
X2872Y41346D01*
X2975Y41565D02*
X2960Y41578D01*
X2943Y41589D01*
X2924Y41597D01*
X2905Y41601D01*
X2885Y41603D01*
X2974Y41564D02*
X3230Y41347D01*
X3230Y41602D01*
X4770Y39904D02*
X4872Y39777D01*
X4770Y39904D02*
X5230Y39904D01*
X5230Y39777D02*
X5230Y40032D01*
X5230Y40227D02*
X5230Y40380D01*
X5228Y40398D01*
X5224Y40415D01*
X5216Y40431D01*
X5206Y40446D01*
X5194Y40458D01*
X5179Y40468D01*
X5163Y40476D01*
X5146Y40480D01*
X5128Y40482D01*
X5077Y40482D01*
X5059Y40480D01*
X5042Y40476D01*
X5026Y40468D01*
X5011Y40458D01*
X4999Y40446D01*
X4989Y40431D01*
X4981Y40415D01*
X4977Y40398D01*
X4975Y40380D01*
X4974Y40380D02*
X4974Y40227D01*
X4770Y40227D01*
X4770Y40482D01*
X5051Y40681D02*
X5051Y40988D01*
X5230Y41187D02*
X5230Y41314D01*
X5228Y41335D01*
X5223Y41356D01*
X5215Y41375D01*
X5203Y41393D01*
X5189Y41408D01*
X5172Y41421D01*
X5153Y41431D01*
X5133Y41438D01*
X5113Y41442D01*
X5091Y41442D01*
X5071Y41438D01*
X5051Y41431D01*
X5032Y41421D01*
X5015Y41408D01*
X5001Y41393D01*
X4989Y41375D01*
X4981Y41356D01*
X4976Y41335D01*
X4974Y41314D01*
X4770Y41340D02*
X4770Y41187D01*
X4770Y41340D02*
X4772Y41359D01*
X4777Y41377D01*
X4785Y41394D01*
X4797Y41409D01*
X4811Y41421D01*
X4827Y41431D01*
X4844Y41438D01*
X4863Y41442D01*
X4881Y41442D01*
X4900Y41438D01*
X4917Y41431D01*
X4933Y41421D01*
X4947Y41409D01*
X4959Y41394D01*
X4967Y41377D01*
X4972Y41359D01*
X4974Y41340D01*
X4974Y41238D01*
X4872Y41637D02*
X4770Y41764D01*
X5230Y41764D01*
X5230Y41637D02*
X5230Y41892D01*
X5051Y42091D02*
X5051Y42398D01*
X4872Y42597D02*
X4770Y42724D01*
X5230Y42724D01*
X5230Y42597D02*
X5230Y42852D01*
X5000Y43047D02*
X4966Y43049D01*
X4932Y43053D01*
X4898Y43061D01*
X4865Y43072D01*
X4834Y43085D01*
X4834Y43084D02*
X4819Y43091D01*
X4805Y43100D01*
X4793Y43112D01*
X4783Y43126D01*
X4776Y43141D01*
X4771Y43157D01*
X4770Y43174D01*
X4771Y43191D01*
X4776Y43207D01*
X4783Y43222D01*
X4793Y43236D01*
X4805Y43248D01*
X4819Y43257D01*
X4834Y43264D01*
X4865Y43277D01*
X4898Y43288D01*
X4932Y43296D01*
X4966Y43300D01*
X5000Y43302D01*
X5000Y43047D02*
X5034Y43049D01*
X5068Y43053D01*
X5102Y43061D01*
X5135Y43072D01*
X5166Y43085D01*
X5166Y43084D02*
X5181Y43091D01*
X5195Y43100D01*
X5207Y43112D01*
X5217Y43126D01*
X5224Y43141D01*
X5229Y43157D01*
X5230Y43174D01*
X5166Y43264D02*
X5135Y43277D01*
X5102Y43288D01*
X5068Y43296D01*
X5034Y43300D01*
X5000Y43302D01*
X5166Y43264D02*
X5181Y43257D01*
X5195Y43248D01*
X5207Y43236D01*
X5217Y43222D01*
X5224Y43207D01*
X5229Y43191D01*
X5230Y43174D01*
X5128Y43072D02*
X4872Y43277D01*
X4770Y43637D02*
X4772Y43657D01*
X4777Y43676D01*
X4785Y43695D01*
X4797Y43711D01*
X4811Y43725D01*
X4828Y43737D01*
X4846Y43745D01*
X4865Y43750D01*
X4885Y43752D01*
X4770Y43637D02*
X4772Y43614D01*
X4777Y43591D01*
X4786Y43570D01*
X4798Y43550D01*
X4813Y43532D01*
X4831Y43517D01*
X4851Y43505D01*
X4872Y43496D01*
X4975Y43715D02*
X4960Y43728D01*
X4943Y43739D01*
X4924Y43747D01*
X4905Y43751D01*
X4885Y43753D01*
X4974Y43714D02*
X5230Y43497D01*
X5230Y43752D01*
X4974Y43947D02*
X4974Y44100D01*
X4975Y44100D02*
X4977Y44118D01*
X4981Y44135D01*
X4989Y44151D01*
X4999Y44166D01*
X5011Y44178D01*
X5026Y44188D01*
X5042Y44196D01*
X5059Y44200D01*
X5077Y44202D01*
X5102Y44202D01*
X5123Y44200D01*
X5144Y44195D01*
X5163Y44187D01*
X5181Y44175D01*
X5196Y44161D01*
X5209Y44144D01*
X5219Y44125D01*
X5226Y44105D01*
X5230Y44085D01*
X5230Y44063D01*
X5226Y44043D01*
X5219Y44023D01*
X5209Y44004D01*
X5196Y43987D01*
X5181Y43973D01*
X5163Y43961D01*
X5144Y43953D01*
X5123Y43948D01*
X5102Y43946D01*
X5102Y43947D02*
X4974Y43947D01*
X4947Y43949D01*
X4921Y43954D01*
X4896Y43963D01*
X4872Y43974D01*
X4850Y43989D01*
X4830Y44007D01*
X4812Y44027D01*
X4797Y44049D01*
X4786Y44073D01*
X4777Y44098D01*
X4772Y44124D01*
X4770Y44151D01*
D10*
X2319Y36366D02*
X1886Y36366D01*
X1886Y30500D01*
X5114Y30500D01*
X5114Y36366D01*
X3894Y36366D01*
D11*
X2730Y31876D02*
X2270Y31876D01*
X2526Y32030D01*
X2270Y32183D01*
X2730Y32183D01*
X2730Y32419D02*
X2270Y32419D01*
X2270Y32546D01*
X2272Y32567D01*
X2277Y32588D01*
X2285Y32607D01*
X2297Y32625D01*
X2311Y32640D01*
X2328Y32653D01*
X2347Y32663D01*
X2367Y32670D01*
X2387Y32674D01*
X2409Y32674D01*
X2429Y32670D01*
X2449Y32663D01*
X2468Y32653D01*
X2485Y32640D01*
X2499Y32625D01*
X2511Y32607D01*
X2519Y32588D01*
X2524Y32567D01*
X2526Y32546D01*
X2526Y32419D01*
X2730Y32847D02*
X2730Y32975D01*
X2728Y32996D01*
X2723Y33017D01*
X2715Y33036D01*
X2703Y33054D01*
X2689Y33069D01*
X2672Y33082D01*
X2653Y33092D01*
X2633Y33099D01*
X2613Y33103D01*
X2591Y33103D01*
X2571Y33099D01*
X2551Y33092D01*
X2532Y33082D01*
X2515Y33069D01*
X2501Y33054D01*
X2489Y33036D01*
X2481Y33017D01*
X2476Y32996D01*
X2474Y32975D01*
X2270Y33000D02*
X2270Y32847D01*
X2270Y33000D02*
X2272Y33019D01*
X2277Y33037D01*
X2285Y33054D01*
X2297Y33069D01*
X2311Y33081D01*
X2327Y33091D01*
X2344Y33098D01*
X2363Y33102D01*
X2381Y33102D01*
X2400Y33098D01*
X2417Y33091D01*
X2433Y33081D01*
X2447Y33069D01*
X2459Y33054D01*
X2467Y33037D01*
X2472Y33019D01*
X2474Y33000D01*
X2474Y32898D01*
X4270Y30904D02*
X4372Y30777D01*
X4270Y30904D02*
X4730Y30904D01*
X4730Y30777D02*
X4730Y31032D01*
X4730Y31227D02*
X4730Y31380D01*
X4728Y31398D01*
X4724Y31415D01*
X4716Y31431D01*
X4706Y31446D01*
X4694Y31458D01*
X4679Y31468D01*
X4663Y31476D01*
X4646Y31480D01*
X4628Y31482D01*
X4577Y31482D01*
X4559Y31480D01*
X4542Y31476D01*
X4526Y31468D01*
X4511Y31458D01*
X4499Y31446D01*
X4489Y31431D01*
X4481Y31415D01*
X4477Y31398D01*
X4475Y31380D01*
X4474Y31380D02*
X4474Y31227D01*
X4270Y31227D01*
X4270Y31482D01*
X4551Y31681D02*
X4551Y31988D01*
X4730Y32187D02*
X4730Y32314D01*
X4728Y32335D01*
X4723Y32356D01*
X4715Y32375D01*
X4703Y32393D01*
X4689Y32408D01*
X4672Y32421D01*
X4653Y32431D01*
X4633Y32438D01*
X4613Y32442D01*
X4591Y32442D01*
X4571Y32438D01*
X4551Y32431D01*
X4532Y32421D01*
X4515Y32408D01*
X4501Y32393D01*
X4489Y32375D01*
X4481Y32356D01*
X4476Y32335D01*
X4474Y32314D01*
X4270Y32340D02*
X4270Y32187D01*
X4270Y32340D02*
X4272Y32359D01*
X4277Y32377D01*
X4285Y32394D01*
X4297Y32409D01*
X4311Y32421D01*
X4327Y32431D01*
X4344Y32438D01*
X4363Y32442D01*
X4381Y32442D01*
X4400Y32438D01*
X4417Y32431D01*
X4433Y32421D01*
X4447Y32409D01*
X4459Y32394D01*
X4467Y32377D01*
X4472Y32359D01*
X4474Y32340D01*
X4474Y32238D01*
X4372Y32637D02*
X4270Y32764D01*
X4730Y32764D01*
X4730Y32637D02*
X4730Y32892D01*
X4551Y33091D02*
X4551Y33398D01*
X4372Y33597D02*
X4270Y33724D01*
X4730Y33724D01*
X4730Y33597D02*
X4730Y33852D01*
X4500Y34047D02*
X4466Y34049D01*
X4432Y34053D01*
X4398Y34061D01*
X4365Y34072D01*
X4334Y34085D01*
X4334Y34084D02*
X4319Y34091D01*
X4305Y34100D01*
X4293Y34112D01*
X4283Y34126D01*
X4276Y34141D01*
X4271Y34157D01*
X4270Y34174D01*
X4271Y34191D01*
X4276Y34207D01*
X4283Y34222D01*
X4293Y34236D01*
X4305Y34248D01*
X4319Y34257D01*
X4334Y34264D01*
X4365Y34277D01*
X4398Y34288D01*
X4432Y34296D01*
X4466Y34300D01*
X4500Y34302D01*
X4500Y34047D02*
X4534Y34049D01*
X4568Y34053D01*
X4602Y34061D01*
X4635Y34072D01*
X4666Y34085D01*
X4666Y34084D02*
X4681Y34091D01*
X4695Y34100D01*
X4707Y34112D01*
X4717Y34126D01*
X4724Y34141D01*
X4729Y34157D01*
X4730Y34174D01*
X4666Y34264D02*
X4635Y34277D01*
X4602Y34288D01*
X4568Y34296D01*
X4534Y34300D01*
X4500Y34302D01*
X4666Y34264D02*
X4681Y34257D01*
X4695Y34248D01*
X4707Y34236D01*
X4717Y34222D01*
X4724Y34207D01*
X4729Y34191D01*
X4730Y34174D01*
X4628Y34072D02*
X4372Y34277D01*
X4270Y34637D02*
X4272Y34657D01*
X4277Y34676D01*
X4285Y34695D01*
X4297Y34711D01*
X4311Y34725D01*
X4328Y34737D01*
X4346Y34745D01*
X4365Y34750D01*
X4385Y34752D01*
X4270Y34637D02*
X4272Y34614D01*
X4277Y34591D01*
X4286Y34570D01*
X4298Y34550D01*
X4313Y34532D01*
X4331Y34517D01*
X4351Y34505D01*
X4372Y34496D01*
X4475Y34715D02*
X4460Y34728D01*
X4443Y34739D01*
X4424Y34747D01*
X4405Y34751D01*
X4385Y34753D01*
X4474Y34714D02*
X4730Y34497D01*
X4730Y34752D01*
X4474Y34947D02*
X4474Y35100D01*
X4475Y35100D02*
X4477Y35118D01*
X4481Y35135D01*
X4489Y35151D01*
X4499Y35166D01*
X4511Y35178D01*
X4526Y35188D01*
X4542Y35196D01*
X4559Y35200D01*
X4577Y35202D01*
X4602Y35202D01*
X4623Y35200D01*
X4644Y35195D01*
X4663Y35187D01*
X4681Y35175D01*
X4696Y35161D01*
X4709Y35144D01*
X4719Y35125D01*
X4726Y35105D01*
X4730Y35085D01*
X4730Y35063D01*
X4726Y35043D01*
X4719Y35023D01*
X4709Y35004D01*
X4696Y34987D01*
X4681Y34973D01*
X4663Y34961D01*
X4644Y34953D01*
X4623Y34948D01*
X4602Y34946D01*
X4602Y34947D02*
X4474Y34947D01*
X4447Y34949D01*
X4421Y34954D01*
X4396Y34963D01*
X4372Y34974D01*
X4350Y34989D01*
X4330Y35007D01*
X4312Y35027D01*
X4297Y35049D01*
X4286Y35073D01*
X4277Y35098D01*
X4272Y35124D01*
X4270Y35151D01*
D10*
X45386Y48866D02*
X45819Y48866D01*
X45386Y48866D02*
X45386Y43000D01*
X48614Y43000D01*
X48614Y48866D01*
X47394Y48866D01*
D11*
X46230Y42527D02*
X45770Y42527D01*
X45974Y42527D02*
X45974Y42782D01*
X45770Y42782D02*
X46230Y42782D01*
X46230Y43029D02*
X45770Y43029D01*
X46230Y42978D02*
X46230Y43080D01*
X45770Y43080D02*
X45770Y42978D01*
X45974Y43455D02*
X45974Y43532D01*
X46230Y43532D01*
X46230Y43379D01*
X46228Y43361D01*
X46224Y43344D01*
X46216Y43328D01*
X46206Y43313D01*
X46194Y43301D01*
X46179Y43291D01*
X46163Y43283D01*
X46146Y43279D01*
X46128Y43277D01*
X45872Y43277D01*
X45852Y43279D01*
X45833Y43285D01*
X45815Y43294D01*
X45800Y43307D01*
X45787Y43322D01*
X45778Y43340D01*
X45772Y43359D01*
X45770Y43379D01*
X45770Y43532D01*
X45770Y43757D02*
X46230Y43757D01*
X45974Y43757D02*
X45974Y44012D01*
X45770Y44012D02*
X46230Y44012D01*
X46230Y44243D02*
X45770Y44243D01*
X45770Y44371D01*
X45772Y44392D01*
X45777Y44413D01*
X45785Y44432D01*
X45797Y44450D01*
X45811Y44465D01*
X45828Y44478D01*
X45847Y44488D01*
X45867Y44495D01*
X45887Y44499D01*
X45909Y44499D01*
X45929Y44495D01*
X45949Y44488D01*
X45968Y44478D01*
X45985Y44465D01*
X45999Y44450D01*
X46011Y44432D01*
X46019Y44413D01*
X46024Y44392D01*
X46026Y44371D01*
X46026Y44243D01*
X46102Y44672D02*
X45898Y44672D01*
X45898Y44671D02*
X45877Y44673D01*
X45856Y44678D01*
X45837Y44686D01*
X45819Y44698D01*
X45804Y44712D01*
X45791Y44729D01*
X45781Y44748D01*
X45774Y44768D01*
X45770Y44788D01*
X45770Y44810D01*
X45774Y44830D01*
X45781Y44850D01*
X45791Y44869D01*
X45804Y44886D01*
X45819Y44900D01*
X45837Y44912D01*
X45856Y44920D01*
X45877Y44925D01*
X45898Y44927D01*
X46102Y44927D01*
X46123Y44925D01*
X46144Y44920D01*
X46163Y44912D01*
X46181Y44900D01*
X46196Y44886D01*
X46209Y44869D01*
X46219Y44850D01*
X46226Y44830D01*
X46230Y44810D01*
X46230Y44788D01*
X46226Y44768D01*
X46219Y44748D01*
X46209Y44729D01*
X46196Y44712D01*
X46181Y44698D01*
X46163Y44686D01*
X46144Y44678D01*
X46123Y44673D01*
X46102Y44671D01*
X45770Y45105D02*
X46230Y45207D01*
X45923Y45309D01*
X46230Y45412D01*
X45770Y45514D01*
X46230Y45707D02*
X46230Y45912D01*
X46230Y45707D02*
X45770Y45707D01*
X45770Y45912D01*
X45974Y45861D02*
X45974Y45707D01*
X45770Y46099D02*
X46230Y46099D01*
X45770Y46099D02*
X45770Y46227D01*
X45772Y46248D01*
X45777Y46269D01*
X45785Y46288D01*
X45797Y46306D01*
X45811Y46321D01*
X45828Y46334D01*
X45847Y46344D01*
X45867Y46351D01*
X45887Y46355D01*
X45909Y46355D01*
X45929Y46351D01*
X45949Y46344D01*
X45968Y46334D01*
X45985Y46321D01*
X45999Y46306D01*
X46011Y46288D01*
X46019Y46269D01*
X46024Y46248D01*
X46026Y46227D01*
X46026Y46099D01*
X46026Y46253D02*
X46230Y46355D01*
X46230Y46584D02*
X45770Y46584D01*
X46230Y46533D02*
X46230Y46635D01*
X45770Y46635D02*
X45770Y46533D01*
X45770Y46832D02*
X46230Y46832D01*
X46230Y47087D02*
X45770Y46832D01*
X45770Y47087D02*
X46230Y47087D01*
X46230Y47318D02*
X45770Y47318D01*
X45770Y47446D01*
X45772Y47467D01*
X45777Y47488D01*
X45785Y47507D01*
X45797Y47525D01*
X45811Y47540D01*
X45828Y47553D01*
X45847Y47563D01*
X45867Y47570D01*
X45887Y47574D01*
X45909Y47574D01*
X45929Y47570D01*
X45949Y47563D01*
X45968Y47553D01*
X45985Y47540D01*
X45999Y47525D01*
X46011Y47507D01*
X46019Y47488D01*
X46024Y47467D01*
X46026Y47446D01*
X46026Y47318D01*
X46102Y47762D02*
X45770Y47762D01*
X46102Y47761D02*
X46123Y47763D01*
X46144Y47768D01*
X46163Y47776D01*
X46181Y47788D01*
X46196Y47802D01*
X46209Y47819D01*
X46219Y47838D01*
X46226Y47858D01*
X46230Y47878D01*
X46230Y47900D01*
X46226Y47920D01*
X46219Y47940D01*
X46209Y47959D01*
X46196Y47976D01*
X46181Y47990D01*
X46163Y48002D01*
X46144Y48010D01*
X46123Y48015D01*
X46102Y48017D01*
X45770Y48017D01*
X45770Y48324D02*
X46230Y48324D01*
X45770Y48197D02*
X45770Y48452D01*
X47770Y43904D02*
X47872Y43777D01*
X47770Y43904D02*
X48230Y43904D01*
X48230Y43777D02*
X48230Y44032D01*
X48230Y44227D02*
X48230Y44380D01*
X48228Y44398D01*
X48224Y44415D01*
X48216Y44431D01*
X48206Y44446D01*
X48194Y44458D01*
X48179Y44468D01*
X48163Y44476D01*
X48146Y44480D01*
X48128Y44482D01*
X48077Y44482D01*
X48059Y44480D01*
X48042Y44476D01*
X48026Y44468D01*
X48011Y44458D01*
X47999Y44446D01*
X47989Y44431D01*
X47981Y44415D01*
X47977Y44398D01*
X47975Y44380D01*
X47974Y44380D02*
X47974Y44227D01*
X47770Y44227D01*
X47770Y44482D01*
X48051Y44681D02*
X48051Y44988D01*
X48230Y45187D02*
X48230Y45314D01*
X48228Y45335D01*
X48223Y45356D01*
X48215Y45375D01*
X48203Y45393D01*
X48189Y45408D01*
X48172Y45421D01*
X48153Y45431D01*
X48133Y45438D01*
X48113Y45442D01*
X48091Y45442D01*
X48071Y45438D01*
X48051Y45431D01*
X48032Y45421D01*
X48015Y45408D01*
X48001Y45393D01*
X47989Y45375D01*
X47981Y45356D01*
X47976Y45335D01*
X47974Y45314D01*
X47770Y45340D02*
X47770Y45187D01*
X47770Y45340D02*
X47772Y45359D01*
X47777Y45377D01*
X47785Y45394D01*
X47797Y45409D01*
X47811Y45421D01*
X47827Y45431D01*
X47844Y45438D01*
X47863Y45442D01*
X47881Y45442D01*
X47900Y45438D01*
X47917Y45431D01*
X47933Y45421D01*
X47947Y45409D01*
X47959Y45394D01*
X47967Y45377D01*
X47972Y45359D01*
X47974Y45340D01*
X47974Y45238D01*
X47872Y45637D02*
X47770Y45764D01*
X48230Y45764D01*
X48230Y45637D02*
X48230Y45892D01*
X48051Y46091D02*
X48051Y46398D01*
X47872Y46597D02*
X47770Y46724D01*
X48230Y46724D01*
X48230Y46597D02*
X48230Y46852D01*
X48000Y47047D02*
X47966Y47049D01*
X47932Y47053D01*
X47898Y47061D01*
X47865Y47072D01*
X47834Y47085D01*
X47834Y47084D02*
X47819Y47091D01*
X47805Y47100D01*
X47793Y47112D01*
X47783Y47126D01*
X47776Y47141D01*
X47771Y47157D01*
X47770Y47174D01*
X47771Y47191D01*
X47776Y47207D01*
X47783Y47222D01*
X47793Y47236D01*
X47805Y47248D01*
X47819Y47257D01*
X47834Y47264D01*
X47865Y47277D01*
X47898Y47288D01*
X47932Y47296D01*
X47966Y47300D01*
X48000Y47302D01*
X48000Y47047D02*
X48034Y47049D01*
X48068Y47053D01*
X48102Y47061D01*
X48135Y47072D01*
X48166Y47085D01*
X48166Y47084D02*
X48181Y47091D01*
X48195Y47100D01*
X48207Y47112D01*
X48217Y47126D01*
X48224Y47141D01*
X48229Y47157D01*
X48230Y47174D01*
X48166Y47264D02*
X48135Y47277D01*
X48102Y47288D01*
X48068Y47296D01*
X48034Y47300D01*
X48000Y47302D01*
X48166Y47264D02*
X48181Y47257D01*
X48195Y47248D01*
X48207Y47236D01*
X48217Y47222D01*
X48224Y47207D01*
X48229Y47191D01*
X48230Y47174D01*
X48128Y47072D02*
X47872Y47277D01*
X47770Y47637D02*
X47772Y47657D01*
X47777Y47676D01*
X47785Y47695D01*
X47797Y47711D01*
X47811Y47725D01*
X47828Y47737D01*
X47846Y47745D01*
X47865Y47750D01*
X47885Y47752D01*
X47770Y47637D02*
X47772Y47614D01*
X47777Y47591D01*
X47786Y47570D01*
X47798Y47550D01*
X47813Y47532D01*
X47831Y47517D01*
X47851Y47505D01*
X47872Y47496D01*
X47975Y47715D02*
X47960Y47728D01*
X47943Y47739D01*
X47924Y47747D01*
X47905Y47751D01*
X47885Y47753D01*
X47974Y47714D02*
X48230Y47497D01*
X48230Y47752D01*
X47974Y47947D02*
X47974Y48100D01*
X47975Y48100D02*
X47977Y48118D01*
X47981Y48135D01*
X47989Y48151D01*
X47999Y48166D01*
X48011Y48178D01*
X48026Y48188D01*
X48042Y48196D01*
X48059Y48200D01*
X48077Y48202D01*
X48102Y48202D01*
X48123Y48200D01*
X48144Y48195D01*
X48163Y48187D01*
X48181Y48175D01*
X48196Y48161D01*
X48209Y48144D01*
X48219Y48125D01*
X48226Y48105D01*
X48230Y48085D01*
X48230Y48063D01*
X48226Y48043D01*
X48219Y48023D01*
X48209Y48004D01*
X48196Y47987D01*
X48181Y47973D01*
X48163Y47961D01*
X48144Y47953D01*
X48123Y47948D01*
X48102Y47946D01*
X48102Y47947D02*
X47974Y47947D01*
X47947Y47949D01*
X47921Y47954D01*
X47896Y47963D01*
X47872Y47974D01*
X47850Y47989D01*
X47830Y48007D01*
X47812Y48027D01*
X47797Y48049D01*
X47786Y48073D01*
X47777Y48098D01*
X47772Y48124D01*
X47770Y48151D01*
D10*
X12256Y41102D02*
X12256Y63898D01*
X26744Y63898D01*
X26744Y41102D01*
X12256Y41102D01*
D20*
X16350Y40689D03*
D21*
X16339Y40687D01*
X16329Y40683D01*
X16321Y40676D01*
X16315Y40666D01*
X16311Y40656D01*
X16311Y40644D01*
X16315Y40634D01*
X16321Y40624D01*
X16329Y40617D01*
X16339Y40613D01*
X16350Y40611D01*
D20*
X16350Y40610D03*
D21*
X16350Y40611D02*
X16361Y40613D01*
X16371Y40617D01*
X16379Y40624D01*
X16385Y40634D01*
X16389Y40644D01*
X16389Y40656D01*
X16385Y40666D01*
X16379Y40676D01*
X16371Y40683D01*
X16361Y40687D01*
X16350Y40689D01*
D11*
X19270Y51702D02*
X19730Y51702D01*
X19270Y51702D02*
X19270Y51830D01*
X19272Y51851D01*
X19277Y51872D01*
X19285Y51891D01*
X19297Y51909D01*
X19311Y51924D01*
X19328Y51937D01*
X19347Y51947D01*
X19367Y51954D01*
X19387Y51958D01*
X19409Y51958D01*
X19429Y51954D01*
X19449Y51947D01*
X19468Y51937D01*
X19485Y51924D01*
X19499Y51909D01*
X19511Y51891D01*
X19519Y51872D01*
X19524Y51851D01*
X19526Y51830D01*
X19526Y51702D01*
X19730Y52269D02*
X19728Y52287D01*
X19724Y52304D01*
X19716Y52320D01*
X19706Y52335D01*
X19694Y52347D01*
X19679Y52357D01*
X19663Y52365D01*
X19646Y52369D01*
X19628Y52371D01*
X19730Y52269D02*
X19728Y52241D01*
X19723Y52213D01*
X19713Y52186D01*
X19701Y52160D01*
X19685Y52137D01*
X19666Y52116D01*
X19372Y52128D02*
X19354Y52130D01*
X19337Y52134D01*
X19321Y52142D01*
X19306Y52152D01*
X19294Y52164D01*
X19284Y52179D01*
X19276Y52195D01*
X19272Y52212D01*
X19270Y52230D01*
X19272Y52255D01*
X19276Y52279D01*
X19284Y52302D01*
X19295Y52325D01*
X19308Y52345D01*
X19372Y52128D02*
X19390Y52130D01*
X19407Y52134D01*
X19424Y52142D01*
X19438Y52152D01*
X19451Y52165D01*
X19462Y52179D01*
X19538Y52320D02*
X19549Y52334D01*
X19562Y52347D01*
X19576Y52357D01*
X19593Y52365D01*
X19610Y52369D01*
X19628Y52371D01*
X19538Y52320D02*
X19462Y52179D01*
X19730Y52550D02*
X19730Y52678D01*
X19728Y52699D01*
X19723Y52720D01*
X19715Y52739D01*
X19703Y52757D01*
X19689Y52772D01*
X19672Y52785D01*
X19653Y52795D01*
X19633Y52802D01*
X19613Y52806D01*
X19591Y52806D01*
X19571Y52802D01*
X19551Y52795D01*
X19532Y52785D01*
X19515Y52772D01*
X19501Y52757D01*
X19489Y52739D01*
X19481Y52720D01*
X19476Y52699D01*
X19474Y52678D01*
X19270Y52704D02*
X19270Y52550D01*
X19270Y52704D02*
X19272Y52723D01*
X19277Y52741D01*
X19285Y52758D01*
X19297Y52773D01*
X19311Y52785D01*
X19327Y52795D01*
X19344Y52802D01*
X19363Y52806D01*
X19381Y52806D01*
X19400Y52802D01*
X19417Y52795D01*
X19433Y52785D01*
X19447Y52773D01*
X19459Y52758D01*
X19467Y52741D01*
X19472Y52723D01*
X19474Y52704D01*
X19474Y52601D01*
X19270Y48552D02*
X19730Y48552D01*
X19730Y48501D02*
X19730Y48603D01*
X19270Y48603D02*
X19270Y48501D01*
X19270Y48802D02*
X19730Y48802D01*
X19270Y48802D02*
X19270Y48930D01*
X19272Y48951D01*
X19277Y48972D01*
X19285Y48991D01*
X19297Y49009D01*
X19311Y49024D01*
X19328Y49037D01*
X19347Y49047D01*
X19367Y49054D01*
X19387Y49058D01*
X19409Y49058D01*
X19429Y49054D01*
X19449Y49047D01*
X19468Y49037D01*
X19485Y49024D01*
X19499Y49009D01*
X19511Y48991D01*
X19519Y48972D01*
X19524Y48951D01*
X19526Y48930D01*
X19526Y48802D01*
X19526Y48955D02*
X19730Y49057D01*
X19602Y49275D02*
X19398Y49275D01*
X19377Y49277D01*
X19356Y49282D01*
X19337Y49290D01*
X19319Y49302D01*
X19304Y49316D01*
X19291Y49333D01*
X19281Y49352D01*
X19274Y49372D01*
X19270Y49392D01*
X19270Y49414D01*
X19274Y49434D01*
X19281Y49454D01*
X19291Y49473D01*
X19304Y49490D01*
X19319Y49504D01*
X19337Y49516D01*
X19356Y49524D01*
X19377Y49529D01*
X19398Y49531D01*
X19602Y49531D01*
X19623Y49529D01*
X19644Y49524D01*
X19663Y49516D01*
X19681Y49504D01*
X19696Y49490D01*
X19709Y49473D01*
X19719Y49454D01*
X19726Y49434D01*
X19730Y49414D01*
X19730Y49392D01*
X19726Y49372D01*
X19719Y49352D01*
X19709Y49333D01*
X19696Y49316D01*
X19681Y49302D01*
X19663Y49290D01*
X19644Y49282D01*
X19623Y49277D01*
X19602Y49275D01*
X19628Y49480D02*
X19730Y49582D01*
X19551Y49718D02*
X19551Y50025D01*
X19372Y50224D02*
X19270Y50352D01*
X19730Y50352D01*
X19730Y50224D02*
X19730Y50480D01*
X19385Y50930D02*
X19365Y50928D01*
X19346Y50923D01*
X19328Y50915D01*
X19311Y50903D01*
X19297Y50889D01*
X19285Y50873D01*
X19277Y50854D01*
X19272Y50835D01*
X19270Y50815D01*
X19272Y50792D01*
X19277Y50769D01*
X19286Y50748D01*
X19298Y50728D01*
X19313Y50710D01*
X19331Y50695D01*
X19351Y50683D01*
X19372Y50674D01*
X19475Y50892D02*
X19460Y50905D01*
X19443Y50916D01*
X19424Y50924D01*
X19405Y50928D01*
X19385Y50930D01*
X19474Y50891D02*
X19730Y50674D01*
X19730Y50930D01*
X19781Y51105D02*
X19781Y51309D01*
X19602Y51484D02*
X19581Y51486D01*
X19560Y51491D01*
X19541Y51499D01*
X19523Y51511D01*
X19508Y51525D01*
X19495Y51542D01*
X19485Y51561D01*
X19478Y51581D01*
X19474Y51601D01*
X19474Y51623D01*
X19478Y51643D01*
X19485Y51663D01*
X19495Y51682D01*
X19508Y51699D01*
X19523Y51713D01*
X19541Y51725D01*
X19560Y51733D01*
X19581Y51738D01*
X19602Y51740D01*
X19623Y51738D01*
X19644Y51733D01*
X19663Y51725D01*
X19681Y51713D01*
X19696Y51699D01*
X19709Y51682D01*
X19719Y51663D01*
X19726Y51643D01*
X19730Y51623D01*
X19730Y51601D01*
X19726Y51581D01*
X19719Y51561D01*
X19709Y51542D01*
X19696Y51525D01*
X19681Y51511D01*
X19663Y51499D01*
X19644Y51491D01*
X19623Y51486D01*
X19602Y51484D01*
X19372Y51510D02*
X19353Y51512D01*
X19335Y51517D01*
X19318Y51525D01*
X19303Y51537D01*
X19291Y51551D01*
X19281Y51567D01*
X19274Y51584D01*
X19270Y51603D01*
X19270Y51621D01*
X19274Y51640D01*
X19281Y51657D01*
X19291Y51673D01*
X19303Y51687D01*
X19318Y51699D01*
X19335Y51707D01*
X19353Y51712D01*
X19372Y51714D01*
X19391Y51712D01*
X19409Y51707D01*
X19426Y51699D01*
X19441Y51687D01*
X19453Y51673D01*
X19463Y51657D01*
X19470Y51640D01*
X19474Y51621D01*
X19474Y51603D01*
X19470Y51584D01*
X19463Y51567D01*
X19453Y51551D01*
X19441Y51537D01*
X19426Y51525D01*
X19409Y51517D01*
X19391Y51512D01*
X19372Y51510D01*
X19704Y51914D02*
X19730Y51914D01*
X19704Y51914D02*
X19704Y51940D01*
X19730Y51940D01*
X19730Y51914D01*
X19730Y52114D02*
X19730Y52242D01*
X19728Y52263D01*
X19723Y52284D01*
X19715Y52303D01*
X19703Y52321D01*
X19689Y52336D01*
X19672Y52349D01*
X19653Y52359D01*
X19633Y52366D01*
X19613Y52370D01*
X19591Y52370D01*
X19571Y52366D01*
X19551Y52359D01*
X19532Y52349D01*
X19515Y52336D01*
X19501Y52321D01*
X19489Y52303D01*
X19481Y52284D01*
X19476Y52263D01*
X19474Y52242D01*
X19270Y52267D02*
X19270Y52114D01*
X19270Y52267D02*
X19272Y52286D01*
X19277Y52304D01*
X19285Y52321D01*
X19297Y52336D01*
X19311Y52348D01*
X19327Y52358D01*
X19344Y52365D01*
X19363Y52369D01*
X19381Y52369D01*
X19400Y52365D01*
X19417Y52358D01*
X19433Y52348D01*
X19447Y52336D01*
X19459Y52321D01*
X19467Y52304D01*
X19472Y52286D01*
X19474Y52267D01*
X19474Y52165D01*
X19551Y52568D02*
X19551Y52875D01*
X19730Y53172D02*
X19270Y53172D01*
X19270Y53044D02*
X19270Y53300D01*
X19372Y53464D02*
X19270Y53592D01*
X19730Y53592D01*
X19730Y53464D02*
X19730Y53720D01*
X19372Y53914D02*
X19270Y54042D01*
X19730Y54042D01*
X19730Y53914D02*
X19730Y54170D01*
X19500Y54364D02*
X19466Y54366D01*
X19432Y54370D01*
X19398Y54378D01*
X19365Y54389D01*
X19334Y54402D01*
X19319Y54409D01*
X19305Y54418D01*
X19293Y54430D01*
X19283Y54444D01*
X19276Y54459D01*
X19271Y54475D01*
X19270Y54492D01*
X19271Y54509D01*
X19276Y54525D01*
X19283Y54540D01*
X19293Y54554D01*
X19305Y54566D01*
X19319Y54575D01*
X19334Y54582D01*
X19365Y54595D01*
X19398Y54606D01*
X19432Y54614D01*
X19466Y54618D01*
X19500Y54620D01*
X19500Y54364D02*
X19534Y54366D01*
X19568Y54370D01*
X19602Y54378D01*
X19635Y54389D01*
X19666Y54402D01*
X19681Y54409D01*
X19695Y54418D01*
X19707Y54430D01*
X19717Y54444D01*
X19724Y54459D01*
X19729Y54475D01*
X19730Y54492D01*
X19666Y54582D02*
X19635Y54595D01*
X19602Y54606D01*
X19568Y54614D01*
X19534Y54618D01*
X19500Y54620D01*
X19666Y54582D02*
X19681Y54575D01*
X19695Y54566D01*
X19707Y54554D01*
X19717Y54540D01*
X19724Y54525D01*
X19729Y54509D01*
X19730Y54492D01*
X19628Y54390D02*
X19372Y54594D01*
X19270Y54829D02*
X19730Y54829D01*
X19730Y55085D02*
X19270Y54829D01*
X19270Y55085D02*
X19730Y55085D01*
X19551Y55298D02*
X19551Y55605D01*
X19730Y55905D02*
X19730Y56007D01*
X19730Y55905D02*
X19728Y55887D01*
X19724Y55870D01*
X19716Y55854D01*
X19706Y55839D01*
X19694Y55827D01*
X19679Y55817D01*
X19663Y55809D01*
X19646Y55805D01*
X19628Y55803D01*
X19372Y55803D01*
X19352Y55805D01*
X19333Y55811D01*
X19315Y55820D01*
X19300Y55833D01*
X19287Y55848D01*
X19278Y55866D01*
X19272Y55885D01*
X19270Y55905D01*
X19270Y56007D01*
D10*
X29256Y63898D02*
X29256Y41102D01*
X29256Y63898D02*
X43744Y63898D01*
X43744Y41102D01*
X29256Y41102D01*
D20*
X33350Y40689D03*
D21*
X33339Y40687D01*
X33329Y40683D01*
X33321Y40676D01*
X33315Y40666D01*
X33311Y40656D01*
X33311Y40644D01*
X33315Y40634D01*
X33321Y40624D01*
X33329Y40617D01*
X33339Y40613D01*
X33350Y40611D01*
D20*
X33350Y40610D03*
D21*
X33350Y40611D02*
X33361Y40613D01*
X33371Y40617D01*
X33379Y40624D01*
X33385Y40634D01*
X33389Y40644D01*
X33389Y40656D01*
X33385Y40666D01*
X33379Y40676D01*
X33371Y40683D01*
X33361Y40687D01*
X33350Y40689D01*
D11*
X36270Y51702D02*
X36730Y51702D01*
X36270Y51702D02*
X36270Y51830D01*
X36272Y51851D01*
X36277Y51872D01*
X36285Y51891D01*
X36297Y51909D01*
X36311Y51924D01*
X36328Y51937D01*
X36347Y51947D01*
X36367Y51954D01*
X36387Y51958D01*
X36409Y51958D01*
X36429Y51954D01*
X36449Y51947D01*
X36468Y51937D01*
X36485Y51924D01*
X36499Y51909D01*
X36511Y51891D01*
X36519Y51872D01*
X36524Y51851D01*
X36526Y51830D01*
X36526Y51702D01*
X36730Y52269D02*
X36728Y52287D01*
X36724Y52304D01*
X36716Y52320D01*
X36706Y52335D01*
X36694Y52347D01*
X36679Y52357D01*
X36663Y52365D01*
X36646Y52369D01*
X36628Y52371D01*
X36730Y52269D02*
X36728Y52241D01*
X36723Y52213D01*
X36713Y52186D01*
X36701Y52160D01*
X36685Y52137D01*
X36666Y52116D01*
X36372Y52128D02*
X36354Y52130D01*
X36337Y52134D01*
X36321Y52142D01*
X36306Y52152D01*
X36294Y52164D01*
X36284Y52179D01*
X36276Y52195D01*
X36272Y52212D01*
X36270Y52230D01*
X36272Y52255D01*
X36276Y52279D01*
X36284Y52302D01*
X36295Y52325D01*
X36308Y52345D01*
X36372Y52128D02*
X36390Y52130D01*
X36407Y52134D01*
X36424Y52142D01*
X36438Y52152D01*
X36451Y52165D01*
X36462Y52179D01*
X36538Y52320D02*
X36549Y52334D01*
X36562Y52347D01*
X36576Y52357D01*
X36593Y52365D01*
X36610Y52369D01*
X36628Y52371D01*
X36538Y52320D02*
X36462Y52179D01*
X36628Y52550D02*
X36270Y52653D01*
X36628Y52550D02*
X36628Y52806D01*
X36526Y52729D02*
X36730Y52729D01*
X35730Y46552D02*
X35270Y46552D01*
X35730Y46501D02*
X35730Y46603D01*
X35270Y46603D02*
X35270Y46501D01*
X35270Y46802D02*
X35730Y46802D01*
X35270Y46802D02*
X35270Y46930D01*
X35272Y46951D01*
X35277Y46972D01*
X35285Y46991D01*
X35297Y47009D01*
X35311Y47024D01*
X35328Y47037D01*
X35347Y47047D01*
X35367Y47054D01*
X35387Y47058D01*
X35409Y47058D01*
X35429Y47054D01*
X35449Y47047D01*
X35468Y47037D01*
X35485Y47024D01*
X35499Y47009D01*
X35511Y46991D01*
X35519Y46972D01*
X35524Y46951D01*
X35526Y46930D01*
X35526Y46802D01*
X35526Y46955D02*
X35730Y47057D01*
X35602Y47275D02*
X35398Y47275D01*
X35377Y47277D01*
X35356Y47282D01*
X35337Y47290D01*
X35319Y47302D01*
X35304Y47316D01*
X35291Y47333D01*
X35281Y47352D01*
X35274Y47372D01*
X35270Y47392D01*
X35270Y47414D01*
X35274Y47434D01*
X35281Y47454D01*
X35291Y47473D01*
X35304Y47490D01*
X35319Y47504D01*
X35337Y47516D01*
X35356Y47524D01*
X35377Y47529D01*
X35398Y47531D01*
X35602Y47531D01*
X35623Y47529D01*
X35644Y47524D01*
X35663Y47516D01*
X35681Y47504D01*
X35696Y47490D01*
X35709Y47473D01*
X35719Y47454D01*
X35726Y47434D01*
X35730Y47414D01*
X35730Y47392D01*
X35726Y47372D01*
X35719Y47352D01*
X35709Y47333D01*
X35696Y47316D01*
X35681Y47302D01*
X35663Y47290D01*
X35644Y47282D01*
X35623Y47277D01*
X35602Y47275D01*
X35628Y47480D02*
X35730Y47582D01*
X35551Y47718D02*
X35551Y48025D01*
X35372Y48224D02*
X35270Y48352D01*
X35730Y48352D01*
X35730Y48224D02*
X35730Y48480D01*
X35385Y48930D02*
X35365Y48928D01*
X35346Y48923D01*
X35328Y48915D01*
X35311Y48903D01*
X35297Y48889D01*
X35285Y48873D01*
X35277Y48854D01*
X35272Y48835D01*
X35270Y48815D01*
X35272Y48792D01*
X35277Y48769D01*
X35286Y48748D01*
X35298Y48728D01*
X35313Y48710D01*
X35331Y48695D01*
X35351Y48683D01*
X35372Y48674D01*
X35475Y48892D02*
X35460Y48905D01*
X35443Y48916D01*
X35424Y48924D01*
X35405Y48928D01*
X35385Y48930D01*
X35474Y48891D02*
X35730Y48674D01*
X35730Y48930D01*
X35781Y49105D02*
X35781Y49309D01*
X35602Y49484D02*
X35581Y49486D01*
X35560Y49491D01*
X35541Y49499D01*
X35523Y49511D01*
X35508Y49525D01*
X35495Y49542D01*
X35485Y49561D01*
X35478Y49581D01*
X35474Y49601D01*
X35474Y49623D01*
X35478Y49643D01*
X35485Y49663D01*
X35495Y49682D01*
X35508Y49699D01*
X35523Y49713D01*
X35541Y49725D01*
X35560Y49733D01*
X35581Y49738D01*
X35602Y49740D01*
X35623Y49738D01*
X35644Y49733D01*
X35663Y49725D01*
X35681Y49713D01*
X35696Y49699D01*
X35709Y49682D01*
X35719Y49663D01*
X35726Y49643D01*
X35730Y49623D01*
X35730Y49601D01*
X35726Y49581D01*
X35719Y49561D01*
X35709Y49542D01*
X35696Y49525D01*
X35681Y49511D01*
X35663Y49499D01*
X35644Y49491D01*
X35623Y49486D01*
X35602Y49484D01*
X35372Y49510D02*
X35353Y49512D01*
X35335Y49517D01*
X35318Y49525D01*
X35303Y49537D01*
X35291Y49551D01*
X35281Y49567D01*
X35274Y49584D01*
X35270Y49603D01*
X35270Y49621D01*
X35274Y49640D01*
X35281Y49657D01*
X35291Y49673D01*
X35303Y49687D01*
X35318Y49699D01*
X35335Y49707D01*
X35353Y49712D01*
X35372Y49714D01*
X35391Y49712D01*
X35409Y49707D01*
X35426Y49699D01*
X35441Y49687D01*
X35453Y49673D01*
X35463Y49657D01*
X35470Y49640D01*
X35474Y49621D01*
X35474Y49603D01*
X35470Y49584D01*
X35463Y49567D01*
X35453Y49551D01*
X35441Y49537D01*
X35426Y49525D01*
X35409Y49517D01*
X35391Y49512D01*
X35372Y49510D01*
X35704Y49914D02*
X35730Y49914D01*
X35704Y49914D02*
X35704Y49940D01*
X35730Y49940D01*
X35730Y49914D01*
X35730Y50114D02*
X35730Y50242D01*
X35728Y50263D01*
X35723Y50284D01*
X35715Y50303D01*
X35703Y50321D01*
X35689Y50336D01*
X35672Y50349D01*
X35653Y50359D01*
X35633Y50366D01*
X35613Y50370D01*
X35591Y50370D01*
X35571Y50366D01*
X35551Y50359D01*
X35532Y50349D01*
X35515Y50336D01*
X35501Y50321D01*
X35489Y50303D01*
X35481Y50284D01*
X35476Y50263D01*
X35474Y50242D01*
X35270Y50267D02*
X35270Y50114D01*
X35270Y50267D02*
X35272Y50286D01*
X35277Y50304D01*
X35285Y50321D01*
X35297Y50336D01*
X35311Y50348D01*
X35327Y50358D01*
X35344Y50365D01*
X35363Y50369D01*
X35381Y50369D01*
X35400Y50365D01*
X35417Y50358D01*
X35433Y50348D01*
X35447Y50336D01*
X35459Y50321D01*
X35467Y50304D01*
X35472Y50286D01*
X35474Y50267D01*
X35474Y50165D01*
X35551Y50568D02*
X35551Y50875D01*
X35730Y51172D02*
X35270Y51172D01*
X35270Y51044D02*
X35270Y51300D01*
X35372Y51464D02*
X35270Y51592D01*
X35730Y51592D01*
X35730Y51464D02*
X35730Y51720D01*
X35372Y51914D02*
X35270Y52042D01*
X35730Y52042D01*
X35730Y51914D02*
X35730Y52170D01*
X35500Y52364D02*
X35466Y52366D01*
X35432Y52370D01*
X35398Y52378D01*
X35365Y52389D01*
X35334Y52402D01*
X35319Y52409D01*
X35305Y52418D01*
X35293Y52430D01*
X35283Y52444D01*
X35276Y52459D01*
X35271Y52475D01*
X35270Y52492D01*
X35271Y52509D01*
X35276Y52525D01*
X35283Y52540D01*
X35293Y52554D01*
X35305Y52566D01*
X35319Y52575D01*
X35334Y52582D01*
X35365Y52595D01*
X35398Y52606D01*
X35432Y52614D01*
X35466Y52618D01*
X35500Y52620D01*
X35500Y52364D02*
X35534Y52366D01*
X35568Y52370D01*
X35602Y52378D01*
X35635Y52389D01*
X35666Y52402D01*
X35681Y52409D01*
X35695Y52418D01*
X35707Y52430D01*
X35717Y52444D01*
X35724Y52459D01*
X35729Y52475D01*
X35730Y52492D01*
X35666Y52582D02*
X35635Y52595D01*
X35602Y52606D01*
X35568Y52614D01*
X35534Y52618D01*
X35500Y52620D01*
X35666Y52582D02*
X35681Y52575D01*
X35695Y52566D01*
X35707Y52554D01*
X35717Y52540D01*
X35724Y52525D01*
X35729Y52509D01*
X35730Y52492D01*
X35628Y52390D02*
X35372Y52594D01*
X35270Y52829D02*
X35730Y52829D01*
X35730Y53085D02*
X35270Y52829D01*
X35270Y53085D02*
X35730Y53085D01*
X35551Y53298D02*
X35551Y53605D01*
X35730Y53905D02*
X35730Y54007D01*
X35730Y53905D02*
X35728Y53887D01*
X35724Y53870D01*
X35716Y53854D01*
X35706Y53839D01*
X35694Y53827D01*
X35679Y53817D01*
X35663Y53809D01*
X35646Y53805D01*
X35628Y53803D01*
X35372Y53803D01*
X35352Y53805D01*
X35333Y53811D01*
X35315Y53820D01*
X35300Y53833D01*
X35287Y53848D01*
X35278Y53866D01*
X35272Y53885D01*
X35270Y53905D01*
X35270Y54007D01*
D10*
X23366Y35614D02*
X23366Y35181D01*
X23366Y35614D02*
X17500Y35614D01*
X17500Y32386D01*
X23366Y32386D01*
X23366Y33606D01*
D11*
X20156Y34770D02*
X20156Y35230D01*
X20283Y35230D01*
X20304Y35228D01*
X20325Y35223D01*
X20344Y35215D01*
X20362Y35203D01*
X20377Y35189D01*
X20390Y35172D01*
X20400Y35153D01*
X20407Y35133D01*
X20411Y35113D01*
X20411Y35091D01*
X20407Y35071D01*
X20400Y35051D01*
X20390Y35032D01*
X20377Y35015D01*
X20362Y35001D01*
X20344Y34989D01*
X20325Y34981D01*
X20304Y34976D01*
X20283Y34974D01*
X20156Y34974D01*
X20309Y34974D02*
X20411Y34770D01*
X20619Y34770D02*
X20619Y35230D01*
X20823Y35230D01*
X20823Y35026D02*
X20619Y35026D01*
X18404Y33230D02*
X18277Y33128D01*
X18404Y33230D02*
X18404Y32770D01*
X18277Y32770D02*
X18532Y32770D01*
X18727Y32770D02*
X18880Y32770D01*
X18898Y32772D01*
X18915Y32776D01*
X18931Y32784D01*
X18946Y32794D01*
X18958Y32806D01*
X18968Y32821D01*
X18976Y32837D01*
X18980Y32854D01*
X18982Y32872D01*
X18982Y32923D01*
X18980Y32941D01*
X18976Y32958D01*
X18968Y32974D01*
X18958Y32989D01*
X18946Y33001D01*
X18931Y33011D01*
X18915Y33019D01*
X18898Y33023D01*
X18880Y33025D01*
X18880Y33026D02*
X18727Y33026D01*
X18727Y33230D01*
X18982Y33230D01*
X19181Y32949D02*
X19488Y32949D01*
X19687Y32770D02*
X19814Y32770D01*
X19835Y32772D01*
X19856Y32777D01*
X19875Y32785D01*
X19893Y32797D01*
X19908Y32811D01*
X19921Y32828D01*
X19931Y32847D01*
X19938Y32867D01*
X19942Y32887D01*
X19942Y32909D01*
X19938Y32929D01*
X19931Y32949D01*
X19921Y32968D01*
X19908Y32985D01*
X19893Y32999D01*
X19875Y33011D01*
X19856Y33019D01*
X19835Y33024D01*
X19814Y33026D01*
X19840Y33230D02*
X19687Y33230D01*
X19840Y33230D02*
X19859Y33228D01*
X19877Y33223D01*
X19894Y33215D01*
X19909Y33203D01*
X19921Y33189D01*
X19931Y33173D01*
X19938Y33156D01*
X19942Y33137D01*
X19942Y33119D01*
X19938Y33100D01*
X19931Y33083D01*
X19921Y33067D01*
X19909Y33053D01*
X19894Y33041D01*
X19877Y33033D01*
X19859Y33028D01*
X19840Y33026D01*
X19738Y33026D01*
X20137Y33128D02*
X20264Y33230D01*
X20264Y32770D01*
X20137Y32770D02*
X20392Y32770D01*
X20591Y32949D02*
X20898Y32949D01*
X21097Y33128D02*
X21224Y33230D01*
X21224Y32770D01*
X21097Y32770D02*
X21352Y32770D01*
X21547Y33000D02*
X21549Y33034D01*
X21553Y33068D01*
X21561Y33102D01*
X21572Y33135D01*
X21585Y33166D01*
X21584Y33166D02*
X21591Y33181D01*
X21600Y33195D01*
X21612Y33207D01*
X21626Y33217D01*
X21641Y33224D01*
X21657Y33229D01*
X21674Y33230D01*
X21691Y33229D01*
X21707Y33224D01*
X21722Y33217D01*
X21736Y33207D01*
X21748Y33195D01*
X21757Y33181D01*
X21764Y33166D01*
X21777Y33135D01*
X21788Y33102D01*
X21796Y33068D01*
X21800Y33034D01*
X21802Y33000D01*
X21547Y33000D02*
X21549Y32966D01*
X21553Y32932D01*
X21561Y32898D01*
X21572Y32865D01*
X21585Y32834D01*
X21584Y32834D02*
X21591Y32819D01*
X21600Y32805D01*
X21612Y32793D01*
X21626Y32783D01*
X21641Y32776D01*
X21657Y32771D01*
X21674Y32770D01*
X21764Y32834D02*
X21777Y32865D01*
X21788Y32898D01*
X21796Y32932D01*
X21800Y32966D01*
X21802Y33000D01*
X21764Y32834D02*
X21757Y32819D01*
X21748Y32805D01*
X21736Y32793D01*
X21722Y32783D01*
X21707Y32776D01*
X21691Y32771D01*
X21674Y32770D01*
X21572Y32872D02*
X21777Y33128D01*
X22137Y33230D02*
X22157Y33228D01*
X22176Y33223D01*
X22195Y33215D01*
X22211Y33203D01*
X22225Y33189D01*
X22237Y33173D01*
X22245Y33154D01*
X22250Y33135D01*
X22252Y33115D01*
X22137Y33230D02*
X22114Y33228D01*
X22091Y33223D01*
X22070Y33214D01*
X22050Y33202D01*
X22032Y33187D01*
X22017Y33169D01*
X22005Y33149D01*
X21996Y33128D01*
X22215Y33025D02*
X22228Y33040D01*
X22239Y33057D01*
X22247Y33076D01*
X22251Y33095D01*
X22253Y33115D01*
X22214Y33026D02*
X21997Y32770D01*
X22252Y32770D01*
X22447Y33026D02*
X22600Y33026D01*
X22600Y33025D02*
X22618Y33023D01*
X22635Y33019D01*
X22651Y33011D01*
X22666Y33001D01*
X22678Y32989D01*
X22688Y32974D01*
X22696Y32958D01*
X22700Y32941D01*
X22702Y32923D01*
X22702Y32898D01*
X22700Y32877D01*
X22695Y32856D01*
X22687Y32837D01*
X22675Y32819D01*
X22661Y32804D01*
X22644Y32791D01*
X22625Y32781D01*
X22605Y32774D01*
X22585Y32770D01*
X22563Y32770D01*
X22543Y32774D01*
X22523Y32781D01*
X22504Y32791D01*
X22487Y32804D01*
X22473Y32819D01*
X22461Y32837D01*
X22453Y32856D01*
X22448Y32877D01*
X22446Y32898D01*
X22447Y32898D02*
X22447Y33026D01*
X22449Y33053D01*
X22454Y33079D01*
X22463Y33104D01*
X22474Y33128D01*
X22489Y33150D01*
X22507Y33170D01*
X22527Y33188D01*
X22549Y33203D01*
X22573Y33214D01*
X22598Y33223D01*
X22624Y33228D01*
X22651Y33230D01*
D22*
X38500Y36500D02*
X38500Y38500D01*
X38500Y36500D02*
X32500Y36500D01*
X32500Y38500D01*
X38500Y38500D01*
X32000Y65000D02*
X32000Y67000D01*
X38000Y67000D01*
X38000Y65000D01*
X32000Y65000D01*
X47000Y38500D02*
X47000Y36500D01*
X41000Y36500D01*
X41000Y38500D01*
X47000Y38500D01*
X39000Y65000D02*
X39000Y67000D01*
X45000Y67000D01*
X45000Y65000D01*
X39000Y65000D01*
D11*
X28278Y38402D02*
X28278Y35598D01*
X30722Y35598D02*
X30722Y38402D01*
D18*
X29106Y37214D02*
X29500Y36673D01*
X29894Y37214D01*
X29106Y37214D01*
D19*
X29500Y36419D03*
D11*
X27658Y38158D02*
X27198Y38158D01*
X27198Y38286D01*
X27197Y38286D02*
X27199Y38307D01*
X27204Y38328D01*
X27212Y38347D01*
X27224Y38365D01*
X27238Y38380D01*
X27255Y38393D01*
X27274Y38403D01*
X27294Y38410D01*
X27314Y38414D01*
X27336Y38414D01*
X27356Y38410D01*
X27376Y38403D01*
X27395Y38393D01*
X27412Y38380D01*
X27426Y38365D01*
X27438Y38347D01*
X27446Y38328D01*
X27451Y38307D01*
X27453Y38286D01*
X27453Y38158D01*
X27453Y38312D02*
X27658Y38414D01*
X27658Y38621D02*
X27658Y38826D01*
X27658Y38621D02*
X27198Y38621D01*
X27198Y38826D01*
X27402Y38775D02*
X27402Y38621D01*
X27198Y39011D02*
X27658Y39011D01*
X27658Y39216D01*
X27658Y39360D02*
X27198Y39513D01*
X27658Y39666D01*
X27543Y39628D02*
X27543Y39398D01*
X27198Y39810D02*
X27415Y39963D01*
X27198Y40116D01*
X27415Y39963D02*
X27658Y39963D01*
X27658Y40307D02*
X27198Y40307D01*
X27198Y40435D01*
X27197Y40435D02*
X27199Y40456D01*
X27204Y40477D01*
X27212Y40496D01*
X27224Y40514D01*
X27238Y40529D01*
X27255Y40542D01*
X27274Y40552D01*
X27294Y40559D01*
X27314Y40563D01*
X27336Y40563D01*
X27356Y40559D01*
X27376Y40552D01*
X27395Y40542D01*
X27412Y40529D01*
X27426Y40514D01*
X27438Y40496D01*
X27446Y40477D01*
X27451Y40456D01*
X27453Y40435D01*
X27453Y40307D01*
X27658Y40753D02*
X27198Y40753D01*
X27198Y40881D01*
X27197Y40881D02*
X27199Y40902D01*
X27204Y40923D01*
X27212Y40942D01*
X27224Y40960D01*
X27238Y40975D01*
X27255Y40988D01*
X27274Y40998D01*
X27294Y41005D01*
X27314Y41009D01*
X27336Y41009D01*
X27356Y41005D01*
X27376Y40998D01*
X27395Y40988D01*
X27412Y40975D01*
X27426Y40960D01*
X27438Y40942D01*
X27446Y40923D01*
X27451Y40902D01*
X27453Y40881D01*
X27453Y40753D01*
X27453Y40907D02*
X27658Y41009D01*
X27530Y41200D02*
X27325Y41200D01*
X27304Y41202D01*
X27283Y41207D01*
X27264Y41215D01*
X27246Y41227D01*
X27231Y41241D01*
X27218Y41258D01*
X27208Y41277D01*
X27201Y41297D01*
X27197Y41317D01*
X27197Y41339D01*
X27201Y41359D01*
X27208Y41379D01*
X27218Y41398D01*
X27231Y41415D01*
X27246Y41429D01*
X27264Y41441D01*
X27283Y41449D01*
X27304Y41454D01*
X27325Y41456D01*
X27530Y41456D01*
X27551Y41454D01*
X27572Y41449D01*
X27591Y41441D01*
X27609Y41429D01*
X27624Y41415D01*
X27637Y41398D01*
X27647Y41379D01*
X27654Y41359D01*
X27658Y41339D01*
X27658Y41317D01*
X27654Y41297D01*
X27647Y41277D01*
X27637Y41258D01*
X27624Y41241D01*
X27609Y41227D01*
X27591Y41215D01*
X27572Y41207D01*
X27551Y41202D01*
X27530Y41200D01*
X27658Y41748D02*
X27198Y41748D01*
X27198Y41620D02*
X27198Y41876D01*
X27658Y42056D02*
X27658Y42261D01*
X27658Y42056D02*
X27198Y42056D01*
X27198Y42261D01*
X27402Y42210D02*
X27402Y42056D01*
X27658Y42531D02*
X27658Y42633D01*
X27657Y42531D02*
X27655Y42513D01*
X27651Y42496D01*
X27643Y42480D01*
X27633Y42465D01*
X27621Y42453D01*
X27606Y42443D01*
X27590Y42435D01*
X27573Y42431D01*
X27555Y42429D01*
X27300Y42429D01*
X27280Y42431D01*
X27261Y42437D01*
X27243Y42446D01*
X27228Y42459D01*
X27215Y42474D01*
X27206Y42492D01*
X27200Y42511D01*
X27198Y42531D01*
X27198Y42633D01*
X27198Y42903D02*
X27658Y42903D01*
X27198Y42775D02*
X27198Y43031D01*
X27198Y43210D02*
X27658Y43210D01*
X27198Y43210D02*
X27198Y43338D01*
X27197Y43338D02*
X27199Y43358D01*
X27203Y43378D01*
X27211Y43396D01*
X27221Y43413D01*
X27234Y43429D01*
X27250Y43442D01*
X27267Y43452D01*
X27285Y43460D01*
X27305Y43464D01*
X27325Y43466D01*
X27530Y43466D01*
X27550Y43464D01*
X27570Y43460D01*
X27588Y43452D01*
X27605Y43442D01*
X27621Y43429D01*
X27634Y43413D01*
X27644Y43396D01*
X27652Y43378D01*
X27656Y43358D01*
X27658Y43338D01*
X27658Y43210D01*
X27658Y43713D02*
X27198Y43713D01*
X27658Y43662D02*
X27658Y43764D01*
X27198Y43764D02*
X27198Y43662D01*
X27325Y43945D02*
X27530Y43945D01*
X27325Y43945D02*
X27304Y43947D01*
X27283Y43952D01*
X27264Y43960D01*
X27246Y43972D01*
X27231Y43986D01*
X27218Y44003D01*
X27208Y44022D01*
X27201Y44042D01*
X27197Y44062D01*
X27197Y44084D01*
X27201Y44104D01*
X27208Y44124D01*
X27218Y44143D01*
X27231Y44160D01*
X27246Y44174D01*
X27264Y44186D01*
X27283Y44194D01*
X27304Y44199D01*
X27325Y44201D01*
X27530Y44201D01*
X27551Y44199D01*
X27572Y44194D01*
X27591Y44186D01*
X27609Y44174D01*
X27624Y44160D01*
X27637Y44143D01*
X27647Y44124D01*
X27654Y44104D01*
X27658Y44084D01*
X27658Y44062D01*
X27654Y44042D01*
X27647Y44022D01*
X27637Y44003D01*
X27624Y43986D01*
X27609Y43972D01*
X27591Y43960D01*
X27572Y43952D01*
X27551Y43947D01*
X27530Y43945D01*
X27658Y44410D02*
X27198Y44410D01*
X27198Y44538D01*
X27197Y44538D02*
X27199Y44558D01*
X27203Y44578D01*
X27211Y44596D01*
X27221Y44613D01*
X27234Y44629D01*
X27250Y44642D01*
X27267Y44652D01*
X27285Y44660D01*
X27305Y44664D01*
X27325Y44666D01*
X27530Y44666D01*
X27550Y44664D01*
X27570Y44660D01*
X27588Y44652D01*
X27605Y44642D01*
X27621Y44629D01*
X27634Y44613D01*
X27644Y44596D01*
X27652Y44578D01*
X27656Y44558D01*
X27658Y44538D01*
X27658Y44410D01*
X27658Y44891D02*
X27658Y45096D01*
X27658Y44891D02*
X27198Y44891D01*
X27198Y45096D01*
X27402Y45045D02*
X27402Y44891D01*
X31200Y35914D02*
X31218Y35912D01*
X31235Y35908D01*
X31251Y35900D01*
X31266Y35890D01*
X31278Y35878D01*
X31288Y35863D01*
X31296Y35847D01*
X31300Y35830D01*
X31302Y35812D01*
X31300Y35784D01*
X31295Y35756D01*
X31285Y35729D01*
X31273Y35703D01*
X31257Y35680D01*
X31238Y35659D01*
X30945Y35671D02*
X30927Y35673D01*
X30910Y35677D01*
X30894Y35685D01*
X30879Y35695D01*
X30867Y35707D01*
X30857Y35722D01*
X30849Y35738D01*
X30845Y35755D01*
X30843Y35773D01*
X30842Y35773D02*
X30844Y35798D01*
X30848Y35822D01*
X30856Y35845D01*
X30867Y35868D01*
X30880Y35888D01*
X30945Y35671D02*
X30963Y35673D01*
X30980Y35677D01*
X30997Y35685D01*
X31011Y35695D01*
X31024Y35708D01*
X31035Y35722D01*
X31110Y35863D02*
X31121Y35877D01*
X31134Y35890D01*
X31148Y35900D01*
X31165Y35908D01*
X31182Y35912D01*
X31200Y35914D01*
X31111Y35863D02*
X31034Y35722D01*
X30842Y36109D02*
X31302Y36109D01*
X31302Y36314D01*
X31200Y36483D02*
X30842Y36585D01*
X31200Y36483D02*
X31200Y36739D01*
X31098Y36662D02*
X31302Y36662D01*
X31200Y36933D02*
X30842Y37035D01*
X31200Y36933D02*
X31200Y37189D01*
X31098Y37112D02*
X31302Y37112D01*
X31302Y37398D02*
X30842Y37398D01*
X31047Y37398D02*
X31047Y37654D01*
X30842Y37654D02*
X31302Y37654D01*
X31302Y37879D02*
X31302Y38084D01*
X31302Y37879D02*
X30842Y37879D01*
X30842Y38084D01*
X31047Y38032D02*
X31047Y37879D01*
X31302Y38253D02*
X31302Y38381D01*
X31303Y38381D02*
X31301Y38402D01*
X31296Y38423D01*
X31288Y38442D01*
X31276Y38460D01*
X31262Y38475D01*
X31245Y38488D01*
X31226Y38498D01*
X31206Y38505D01*
X31186Y38509D01*
X31164Y38509D01*
X31144Y38505D01*
X31124Y38498D01*
X31105Y38488D01*
X31088Y38475D01*
X31074Y38460D01*
X31062Y38442D01*
X31054Y38423D01*
X31049Y38402D01*
X31047Y38381D01*
X30842Y38407D02*
X30842Y38253D01*
X30843Y38407D02*
X30845Y38426D01*
X30850Y38444D01*
X30858Y38461D01*
X30870Y38476D01*
X30884Y38488D01*
X30900Y38498D01*
X30917Y38505D01*
X30936Y38509D01*
X30954Y38509D01*
X30973Y38505D01*
X30990Y38498D01*
X31006Y38488D01*
X31020Y38476D01*
X31032Y38461D01*
X31040Y38444D01*
X31045Y38426D01*
X31047Y38407D01*
X31047Y38304D01*
D22*
X45500Y50500D02*
X47500Y50500D01*
X45500Y50500D02*
X45500Y56500D01*
X47500Y56500D01*
X47500Y50500D01*
X47500Y63000D02*
X45500Y63000D01*
X47500Y63000D02*
X47500Y57000D01*
X45500Y57000D01*
X45500Y63000D01*
D10*
X38366Y35114D02*
X38366Y34681D01*
X38366Y35114D02*
X32500Y35114D01*
X32500Y31886D01*
X38366Y31886D01*
X38366Y33106D01*
D11*
X34261Y34270D02*
X34415Y34730D01*
X34568Y34270D01*
X34530Y34385D02*
X34300Y34385D01*
X34752Y34398D02*
X34752Y34730D01*
X34752Y34398D02*
X34754Y34377D01*
X34759Y34356D01*
X34767Y34337D01*
X34779Y34319D01*
X34793Y34304D01*
X34810Y34291D01*
X34829Y34281D01*
X34849Y34274D01*
X34869Y34270D01*
X34891Y34270D01*
X34911Y34274D01*
X34931Y34281D01*
X34950Y34291D01*
X34967Y34304D01*
X34981Y34319D01*
X34993Y34337D01*
X35001Y34356D01*
X35006Y34377D01*
X35008Y34398D01*
X35007Y34398D02*
X35007Y34730D01*
X35498Y34730D02*
X35191Y34270D01*
X35498Y34270D02*
X35191Y34730D01*
X35671Y34449D02*
X35978Y34449D01*
X36215Y34270D02*
X36215Y34730D01*
X36164Y34270D02*
X36266Y34270D01*
X36266Y34730D02*
X36164Y34730D01*
X36462Y34730D02*
X36462Y34270D01*
X36717Y34270D02*
X36462Y34730D01*
X36717Y34730D02*
X36717Y34270D01*
X33404Y32730D02*
X33277Y32628D01*
X33404Y32730D02*
X33404Y32270D01*
X33277Y32270D02*
X33532Y32270D01*
X33727Y32270D02*
X33880Y32270D01*
X33898Y32272D01*
X33915Y32276D01*
X33931Y32284D01*
X33946Y32294D01*
X33958Y32306D01*
X33968Y32321D01*
X33976Y32337D01*
X33980Y32354D01*
X33982Y32372D01*
X33982Y32423D01*
X33980Y32441D01*
X33976Y32458D01*
X33968Y32474D01*
X33958Y32489D01*
X33946Y32501D01*
X33931Y32511D01*
X33915Y32519D01*
X33898Y32523D01*
X33880Y32525D01*
X33880Y32526D02*
X33727Y32526D01*
X33727Y32730D01*
X33982Y32730D01*
X34181Y32449D02*
X34488Y32449D01*
X34687Y32270D02*
X34814Y32270D01*
X34835Y32272D01*
X34856Y32277D01*
X34875Y32285D01*
X34893Y32297D01*
X34908Y32311D01*
X34921Y32328D01*
X34931Y32347D01*
X34938Y32367D01*
X34942Y32387D01*
X34942Y32409D01*
X34938Y32429D01*
X34931Y32449D01*
X34921Y32468D01*
X34908Y32485D01*
X34893Y32499D01*
X34875Y32511D01*
X34856Y32519D01*
X34835Y32524D01*
X34814Y32526D01*
X34840Y32730D02*
X34687Y32730D01*
X34840Y32730D02*
X34859Y32728D01*
X34877Y32723D01*
X34894Y32715D01*
X34909Y32703D01*
X34921Y32689D01*
X34931Y32673D01*
X34938Y32656D01*
X34942Y32637D01*
X34942Y32619D01*
X34938Y32600D01*
X34931Y32583D01*
X34921Y32567D01*
X34909Y32553D01*
X34894Y32541D01*
X34877Y32533D01*
X34859Y32528D01*
X34840Y32526D01*
X34738Y32526D01*
X35137Y32628D02*
X35264Y32730D01*
X35264Y32270D01*
X35137Y32270D02*
X35392Y32270D01*
X35591Y32449D02*
X35898Y32449D01*
X36097Y32628D02*
X36224Y32730D01*
X36224Y32270D01*
X36097Y32270D02*
X36352Y32270D01*
X36547Y32500D02*
X36549Y32534D01*
X36553Y32568D01*
X36561Y32602D01*
X36572Y32635D01*
X36585Y32666D01*
X36584Y32666D02*
X36591Y32681D01*
X36600Y32695D01*
X36612Y32707D01*
X36626Y32717D01*
X36641Y32724D01*
X36657Y32729D01*
X36674Y32730D01*
X36691Y32729D01*
X36707Y32724D01*
X36722Y32717D01*
X36736Y32707D01*
X36748Y32695D01*
X36757Y32681D01*
X36764Y32666D01*
X36777Y32635D01*
X36788Y32602D01*
X36796Y32568D01*
X36800Y32534D01*
X36802Y32500D01*
X36547Y32500D02*
X36549Y32466D01*
X36553Y32432D01*
X36561Y32398D01*
X36572Y32365D01*
X36585Y32334D01*
X36584Y32334D02*
X36591Y32319D01*
X36600Y32305D01*
X36612Y32293D01*
X36626Y32283D01*
X36641Y32276D01*
X36657Y32271D01*
X36674Y32270D01*
X36764Y32334D02*
X36777Y32365D01*
X36788Y32398D01*
X36796Y32432D01*
X36800Y32466D01*
X36802Y32500D01*
X36764Y32334D02*
X36757Y32319D01*
X36748Y32305D01*
X36736Y32293D01*
X36722Y32283D01*
X36707Y32276D01*
X36691Y32271D01*
X36674Y32270D01*
X36572Y32372D02*
X36777Y32628D01*
X37137Y32730D02*
X37157Y32728D01*
X37176Y32723D01*
X37195Y32715D01*
X37211Y32703D01*
X37225Y32689D01*
X37237Y32673D01*
X37245Y32654D01*
X37250Y32635D01*
X37252Y32615D01*
X37137Y32730D02*
X37114Y32728D01*
X37091Y32723D01*
X37070Y32714D01*
X37050Y32702D01*
X37032Y32687D01*
X37017Y32669D01*
X37005Y32649D01*
X36996Y32628D01*
X37215Y32525D02*
X37228Y32540D01*
X37239Y32557D01*
X37247Y32576D01*
X37251Y32595D01*
X37253Y32615D01*
X37214Y32526D02*
X36997Y32270D01*
X37252Y32270D01*
X37447Y32526D02*
X37600Y32526D01*
X37600Y32525D02*
X37618Y32523D01*
X37635Y32519D01*
X37651Y32511D01*
X37666Y32501D01*
X37678Y32489D01*
X37688Y32474D01*
X37696Y32458D01*
X37700Y32441D01*
X37702Y32423D01*
X37702Y32398D01*
X37700Y32377D01*
X37695Y32356D01*
X37687Y32337D01*
X37675Y32319D01*
X37661Y32304D01*
X37644Y32291D01*
X37625Y32281D01*
X37605Y32274D01*
X37585Y32270D01*
X37563Y32270D01*
X37543Y32274D01*
X37523Y32281D01*
X37504Y32291D01*
X37487Y32304D01*
X37473Y32319D01*
X37461Y32337D01*
X37453Y32356D01*
X37448Y32377D01*
X37446Y32398D01*
X37447Y32398D02*
X37447Y32526D01*
X37449Y32553D01*
X37454Y32579D01*
X37463Y32604D01*
X37474Y32628D01*
X37489Y32650D01*
X37507Y32670D01*
X37527Y32688D01*
X37549Y32703D01*
X37573Y32714D01*
X37598Y32723D01*
X37624Y32728D01*
X37651Y32730D01*
D10*
X47866Y34681D02*
X47866Y35114D01*
X42000Y35114D01*
X42000Y31886D01*
X47866Y31886D01*
X47866Y33106D01*
D11*
X43470Y34526D02*
X43342Y34526D01*
X43470Y34526D02*
X43491Y34524D01*
X43512Y34519D01*
X43531Y34511D01*
X43549Y34499D01*
X43564Y34485D01*
X43577Y34468D01*
X43587Y34449D01*
X43594Y34429D01*
X43598Y34409D01*
X43598Y34387D01*
X43594Y34367D01*
X43587Y34347D01*
X43577Y34328D01*
X43564Y34311D01*
X43549Y34297D01*
X43531Y34285D01*
X43512Y34277D01*
X43491Y34272D01*
X43470Y34270D01*
X43342Y34270D01*
X43342Y34730D01*
X43470Y34730D01*
X43489Y34728D01*
X43507Y34723D01*
X43524Y34715D01*
X43539Y34703D01*
X43551Y34689D01*
X43561Y34673D01*
X43568Y34656D01*
X43572Y34637D01*
X43572Y34619D01*
X43568Y34600D01*
X43561Y34583D01*
X43551Y34567D01*
X43539Y34553D01*
X43524Y34541D01*
X43507Y34533D01*
X43489Y34528D01*
X43470Y34526D01*
X43790Y34730D02*
X43790Y34270D01*
X43944Y34474D02*
X43790Y34730D01*
X43944Y34474D02*
X44097Y34730D01*
X44097Y34270D01*
X44449Y34270D02*
X44467Y34272D01*
X44484Y34276D01*
X44500Y34284D01*
X44515Y34294D01*
X44527Y34306D01*
X44537Y34321D01*
X44545Y34337D01*
X44549Y34354D01*
X44551Y34372D01*
X44449Y34270D02*
X44421Y34272D01*
X44393Y34277D01*
X44366Y34287D01*
X44340Y34299D01*
X44317Y34315D01*
X44296Y34334D01*
X44309Y34628D02*
X44311Y34646D01*
X44315Y34663D01*
X44323Y34679D01*
X44333Y34694D01*
X44345Y34706D01*
X44360Y34716D01*
X44376Y34724D01*
X44393Y34728D01*
X44411Y34730D01*
X44436Y34728D01*
X44460Y34724D01*
X44483Y34716D01*
X44506Y34705D01*
X44526Y34692D01*
X44308Y34628D02*
X44310Y34610D01*
X44314Y34593D01*
X44322Y34576D01*
X44332Y34562D01*
X44345Y34549D01*
X44359Y34538D01*
X44500Y34462D02*
X44514Y34451D01*
X44527Y34438D01*
X44537Y34424D01*
X44545Y34407D01*
X44549Y34390D01*
X44551Y34372D01*
X44500Y34462D02*
X44360Y34538D01*
X44769Y34730D02*
X44769Y34270D01*
X44820Y34270D02*
X44717Y34270D01*
X44717Y34730D02*
X44820Y34730D01*
X45016Y34730D02*
X45016Y34270D01*
X45271Y34270D02*
X45016Y34730D01*
X45271Y34730D02*
X45271Y34270D01*
X45502Y34270D02*
X45502Y34730D01*
X45630Y34730D01*
X45651Y34728D01*
X45672Y34723D01*
X45691Y34715D01*
X45709Y34703D01*
X45724Y34689D01*
X45737Y34672D01*
X45747Y34653D01*
X45754Y34633D01*
X45758Y34613D01*
X45758Y34591D01*
X45754Y34571D01*
X45747Y34551D01*
X45737Y34532D01*
X45724Y34515D01*
X45709Y34501D01*
X45691Y34489D01*
X45672Y34481D01*
X45651Y34476D01*
X45630Y34474D01*
X45502Y34474D01*
X45946Y34398D02*
X45946Y34730D01*
X45946Y34398D02*
X45948Y34377D01*
X45953Y34356D01*
X45961Y34337D01*
X45973Y34319D01*
X45987Y34304D01*
X46004Y34291D01*
X46023Y34281D01*
X46043Y34274D01*
X46063Y34270D01*
X46085Y34270D01*
X46105Y34274D01*
X46125Y34281D01*
X46144Y34291D01*
X46161Y34304D01*
X46175Y34319D01*
X46187Y34337D01*
X46195Y34356D01*
X46200Y34377D01*
X46202Y34398D01*
X46201Y34398D02*
X46201Y34730D01*
X46509Y34730D02*
X46509Y34270D01*
X46381Y34730D02*
X46636Y34730D01*
X42904Y32730D02*
X42777Y32628D01*
X42904Y32730D02*
X42904Y32270D01*
X42777Y32270D02*
X43032Y32270D01*
X43227Y32270D02*
X43380Y32270D01*
X43398Y32272D01*
X43415Y32276D01*
X43431Y32284D01*
X43446Y32294D01*
X43458Y32306D01*
X43468Y32321D01*
X43476Y32337D01*
X43480Y32354D01*
X43482Y32372D01*
X43482Y32423D01*
X43480Y32441D01*
X43476Y32458D01*
X43468Y32474D01*
X43458Y32489D01*
X43446Y32501D01*
X43431Y32511D01*
X43415Y32519D01*
X43398Y32523D01*
X43380Y32525D01*
X43380Y32526D02*
X43227Y32526D01*
X43227Y32730D01*
X43482Y32730D01*
X43681Y32449D02*
X43988Y32449D01*
X44187Y32270D02*
X44314Y32270D01*
X44335Y32272D01*
X44356Y32277D01*
X44375Y32285D01*
X44393Y32297D01*
X44408Y32311D01*
X44421Y32328D01*
X44431Y32347D01*
X44438Y32367D01*
X44442Y32387D01*
X44442Y32409D01*
X44438Y32429D01*
X44431Y32449D01*
X44421Y32468D01*
X44408Y32485D01*
X44393Y32499D01*
X44375Y32511D01*
X44356Y32519D01*
X44335Y32524D01*
X44314Y32526D01*
X44340Y32730D02*
X44187Y32730D01*
X44340Y32730D02*
X44359Y32728D01*
X44377Y32723D01*
X44394Y32715D01*
X44409Y32703D01*
X44421Y32689D01*
X44431Y32673D01*
X44438Y32656D01*
X44442Y32637D01*
X44442Y32619D01*
X44438Y32600D01*
X44431Y32583D01*
X44421Y32567D01*
X44409Y32553D01*
X44394Y32541D01*
X44377Y32533D01*
X44359Y32528D01*
X44340Y32526D01*
X44238Y32526D01*
X44637Y32628D02*
X44764Y32730D01*
X44764Y32270D01*
X44637Y32270D02*
X44892Y32270D01*
X45091Y32449D02*
X45398Y32449D01*
X45597Y32628D02*
X45724Y32730D01*
X45724Y32270D01*
X45597Y32270D02*
X45852Y32270D01*
X46047Y32500D02*
X46049Y32534D01*
X46053Y32568D01*
X46061Y32602D01*
X46072Y32635D01*
X46085Y32666D01*
X46084Y32666D02*
X46091Y32681D01*
X46100Y32695D01*
X46112Y32707D01*
X46126Y32717D01*
X46141Y32724D01*
X46157Y32729D01*
X46174Y32730D01*
X46191Y32729D01*
X46207Y32724D01*
X46222Y32717D01*
X46236Y32707D01*
X46248Y32695D01*
X46257Y32681D01*
X46264Y32666D01*
X46277Y32635D01*
X46288Y32602D01*
X46296Y32568D01*
X46300Y32534D01*
X46302Y32500D01*
X46047Y32500D02*
X46049Y32466D01*
X46053Y32432D01*
X46061Y32398D01*
X46072Y32365D01*
X46085Y32334D01*
X46084Y32334D02*
X46091Y32319D01*
X46100Y32305D01*
X46112Y32293D01*
X46126Y32283D01*
X46141Y32276D01*
X46157Y32271D01*
X46174Y32270D01*
X46264Y32334D02*
X46277Y32365D01*
X46288Y32398D01*
X46296Y32432D01*
X46300Y32466D01*
X46302Y32500D01*
X46264Y32334D02*
X46257Y32319D01*
X46248Y32305D01*
X46236Y32293D01*
X46222Y32283D01*
X46207Y32276D01*
X46191Y32271D01*
X46174Y32270D01*
X46072Y32372D02*
X46277Y32628D01*
X46637Y32730D02*
X46657Y32728D01*
X46676Y32723D01*
X46695Y32715D01*
X46711Y32703D01*
X46725Y32689D01*
X46737Y32673D01*
X46745Y32654D01*
X46750Y32635D01*
X46752Y32615D01*
X46637Y32730D02*
X46614Y32728D01*
X46591Y32723D01*
X46570Y32714D01*
X46550Y32702D01*
X46532Y32687D01*
X46517Y32669D01*
X46505Y32649D01*
X46496Y32628D01*
X46715Y32525D02*
X46728Y32540D01*
X46739Y32557D01*
X46747Y32576D01*
X46751Y32595D01*
X46753Y32615D01*
X46714Y32526D02*
X46497Y32270D01*
X46752Y32270D01*
X46947Y32526D02*
X47100Y32526D01*
X47100Y32525D02*
X47118Y32523D01*
X47135Y32519D01*
X47151Y32511D01*
X47166Y32501D01*
X47178Y32489D01*
X47188Y32474D01*
X47196Y32458D01*
X47200Y32441D01*
X47202Y32423D01*
X47202Y32398D01*
X47200Y32377D01*
X47195Y32356D01*
X47187Y32337D01*
X47175Y32319D01*
X47161Y32304D01*
X47144Y32291D01*
X47125Y32281D01*
X47105Y32274D01*
X47085Y32270D01*
X47063Y32270D01*
X47043Y32274D01*
X47023Y32281D01*
X47004Y32291D01*
X46987Y32304D01*
X46973Y32319D01*
X46961Y32337D01*
X46953Y32356D01*
X46948Y32377D01*
X46946Y32398D01*
X46947Y32398D02*
X46947Y32526D01*
X46949Y32553D01*
X46954Y32579D01*
X46963Y32604D01*
X46974Y32628D01*
X46989Y32650D01*
X47007Y32670D01*
X47027Y32688D01*
X47049Y32703D01*
X47073Y32714D01*
X47098Y32723D01*
X47124Y32728D01*
X47151Y32730D01*
D10*
X8925Y33531D02*
X8925Y37469D01*
X16012Y37469D02*
X16012Y33531D01*
X13453Y39043D02*
X11484Y39043D01*
X11484Y31957D02*
X13453Y31957D01*
D17*
X8689Y35539D03*
D12*
X8678Y35537D01*
X8668Y35533D01*
X8660Y35526D01*
X8654Y35516D01*
X8650Y35506D01*
X8650Y35494D01*
X8654Y35484D01*
X8660Y35474D01*
X8668Y35467D01*
X8678Y35463D01*
X8689Y35461D01*
D17*
X8689Y35461D03*
D12*
X8700Y35463D01*
X8710Y35467D01*
X8718Y35474D01*
X8724Y35484D01*
X8728Y35494D01*
X8728Y35506D01*
X8724Y35516D01*
X8718Y35526D01*
X8710Y35533D01*
X8700Y35537D01*
X8689Y35539D01*
D11*
X12176Y35372D02*
X12176Y35730D01*
X12176Y35372D02*
X12174Y35354D01*
X12170Y35337D01*
X12162Y35321D01*
X12152Y35306D01*
X12140Y35294D01*
X12125Y35284D01*
X12109Y35276D01*
X12092Y35272D01*
X12074Y35270D01*
X12022Y35270D01*
X12383Y35628D02*
X12511Y35730D01*
X12511Y35270D01*
X12383Y35270D02*
X12639Y35270D01*
X8306Y36730D02*
X8178Y36628D01*
X8306Y36730D02*
X8306Y36270D01*
X8433Y36270D02*
X8178Y36270D01*
X8768Y36730D02*
X8788Y36728D01*
X8807Y36723D01*
X8826Y36715D01*
X8842Y36703D01*
X8856Y36689D01*
X8868Y36673D01*
X8876Y36654D01*
X8881Y36635D01*
X8883Y36615D01*
X8768Y36730D02*
X8745Y36728D01*
X8722Y36723D01*
X8701Y36714D01*
X8681Y36702D01*
X8663Y36687D01*
X8648Y36669D01*
X8636Y36649D01*
X8627Y36628D01*
X8846Y36525D02*
X8859Y36540D01*
X8870Y36557D01*
X8878Y36576D01*
X8882Y36595D01*
X8884Y36615D01*
X8845Y36526D02*
X8628Y36270D01*
X8883Y36270D01*
X9078Y36500D02*
X9080Y36534D01*
X9084Y36568D01*
X9092Y36602D01*
X9103Y36635D01*
X9116Y36666D01*
X9123Y36681D01*
X9132Y36695D01*
X9144Y36707D01*
X9158Y36717D01*
X9173Y36724D01*
X9189Y36729D01*
X9206Y36730D01*
X9223Y36729D01*
X9239Y36724D01*
X9254Y36717D01*
X9268Y36707D01*
X9280Y36695D01*
X9289Y36681D01*
X9296Y36666D01*
X9295Y36666D02*
X9308Y36635D01*
X9319Y36602D01*
X9327Y36568D01*
X9331Y36534D01*
X9333Y36500D01*
X9078Y36500D02*
X9080Y36466D01*
X9084Y36432D01*
X9092Y36398D01*
X9103Y36365D01*
X9116Y36334D01*
X9123Y36319D01*
X9132Y36305D01*
X9144Y36293D01*
X9158Y36283D01*
X9173Y36276D01*
X9189Y36271D01*
X9206Y36270D01*
X9295Y36334D02*
X9308Y36365D01*
X9319Y36398D01*
X9327Y36432D01*
X9331Y36466D01*
X9333Y36500D01*
X9296Y36334D02*
X9289Y36319D01*
X9280Y36305D01*
X9268Y36293D01*
X9254Y36283D01*
X9239Y36276D01*
X9223Y36271D01*
X9206Y36270D01*
X9103Y36372D02*
X9308Y36628D01*
X9528Y36500D02*
X9530Y36534D01*
X9534Y36568D01*
X9542Y36602D01*
X9553Y36635D01*
X9566Y36666D01*
X9573Y36681D01*
X9582Y36695D01*
X9594Y36707D01*
X9608Y36717D01*
X9623Y36724D01*
X9639Y36729D01*
X9656Y36730D01*
X9673Y36729D01*
X9689Y36724D01*
X9704Y36717D01*
X9718Y36707D01*
X9730Y36695D01*
X9739Y36681D01*
X9746Y36666D01*
X9745Y36666D02*
X9758Y36635D01*
X9769Y36602D01*
X9777Y36568D01*
X9781Y36534D01*
X9783Y36500D01*
X9528Y36500D02*
X9530Y36466D01*
X9534Y36432D01*
X9542Y36398D01*
X9553Y36365D01*
X9566Y36334D01*
X9573Y36319D01*
X9582Y36305D01*
X9594Y36293D01*
X9608Y36283D01*
X9623Y36276D01*
X9639Y36271D01*
X9656Y36270D01*
X9745Y36334D02*
X9758Y36365D01*
X9769Y36398D01*
X9777Y36432D01*
X9781Y36466D01*
X9783Y36500D01*
X9746Y36334D02*
X9739Y36319D01*
X9730Y36305D01*
X9718Y36293D01*
X9704Y36283D01*
X9689Y36276D01*
X9673Y36271D01*
X9656Y36270D01*
X9553Y36372D02*
X9758Y36628D01*
X9978Y36398D02*
X9980Y36419D01*
X9985Y36440D01*
X9993Y36459D01*
X10005Y36477D01*
X10019Y36492D01*
X10036Y36505D01*
X10055Y36515D01*
X10075Y36522D01*
X10095Y36526D01*
X10117Y36526D01*
X10137Y36522D01*
X10157Y36515D01*
X10176Y36505D01*
X10193Y36492D01*
X10207Y36477D01*
X10219Y36459D01*
X10227Y36440D01*
X10232Y36419D01*
X10234Y36398D01*
X10232Y36377D01*
X10227Y36356D01*
X10219Y36337D01*
X10207Y36319D01*
X10193Y36304D01*
X10176Y36291D01*
X10157Y36281D01*
X10137Y36274D01*
X10117Y36270D01*
X10095Y36270D01*
X10075Y36274D01*
X10055Y36281D01*
X10036Y36291D01*
X10019Y36304D01*
X10005Y36319D01*
X9993Y36337D01*
X9985Y36356D01*
X9980Y36377D01*
X9978Y36398D01*
X10004Y36628D02*
X10006Y36647D01*
X10011Y36665D01*
X10019Y36682D01*
X10031Y36697D01*
X10045Y36709D01*
X10061Y36719D01*
X10078Y36726D01*
X10097Y36730D01*
X10115Y36730D01*
X10134Y36726D01*
X10151Y36719D01*
X10167Y36709D01*
X10181Y36697D01*
X10193Y36682D01*
X10201Y36665D01*
X10206Y36647D01*
X10208Y36628D01*
X10206Y36609D01*
X10201Y36591D01*
X10193Y36574D01*
X10181Y36559D01*
X10167Y36547D01*
X10151Y36537D01*
X10134Y36530D01*
X10115Y36526D01*
X10097Y36526D01*
X10078Y36530D01*
X10061Y36537D01*
X10045Y36547D01*
X10031Y36559D01*
X10019Y36574D01*
X10011Y36591D01*
X10006Y36609D01*
X10004Y36628D01*
X10428Y36372D02*
X10530Y36730D01*
X10428Y36372D02*
X10683Y36372D01*
X10607Y36474D02*
X10607Y36270D01*
X10878Y36270D02*
X11031Y36270D01*
X11049Y36272D01*
X11066Y36276D01*
X11082Y36284D01*
X11097Y36294D01*
X11109Y36306D01*
X11119Y36321D01*
X11127Y36337D01*
X11131Y36354D01*
X11133Y36372D01*
X11133Y36423D01*
X11131Y36441D01*
X11127Y36458D01*
X11119Y36474D01*
X11109Y36489D01*
X11097Y36501D01*
X11082Y36511D01*
X11066Y36519D01*
X11049Y36523D01*
X11031Y36525D01*
X11031Y36526D02*
X10878Y36526D01*
X10878Y36730D01*
X11133Y36730D01*
X11328Y36628D02*
X11456Y36730D01*
X11456Y36270D01*
X11583Y36270D02*
X11328Y36270D01*
X11778Y36270D02*
X11906Y36270D01*
X11927Y36272D01*
X11948Y36277D01*
X11967Y36285D01*
X11985Y36297D01*
X12000Y36311D01*
X12013Y36328D01*
X12023Y36347D01*
X12030Y36367D01*
X12034Y36387D01*
X12034Y36409D01*
X12030Y36429D01*
X12023Y36449D01*
X12013Y36468D01*
X12000Y36485D01*
X11985Y36499D01*
X11967Y36511D01*
X11948Y36519D01*
X11927Y36524D01*
X11906Y36526D01*
X11931Y36730D02*
X11778Y36730D01*
X11931Y36730D02*
X11950Y36728D01*
X11968Y36723D01*
X11985Y36715D01*
X12000Y36703D01*
X12012Y36689D01*
X12022Y36673D01*
X12029Y36656D01*
X12033Y36637D01*
X12033Y36619D01*
X12029Y36600D01*
X12022Y36583D01*
X12012Y36567D01*
X12000Y36553D01*
X11985Y36541D01*
X11968Y36533D01*
X11950Y36528D01*
X11931Y36526D01*
X11829Y36526D01*
X12228Y36270D02*
X12356Y36270D01*
X12377Y36272D01*
X12398Y36277D01*
X12417Y36285D01*
X12435Y36297D01*
X12450Y36311D01*
X12463Y36328D01*
X12473Y36347D01*
X12480Y36367D01*
X12484Y36387D01*
X12484Y36409D01*
X12480Y36429D01*
X12473Y36449D01*
X12463Y36468D01*
X12450Y36485D01*
X12435Y36499D01*
X12417Y36511D01*
X12398Y36519D01*
X12377Y36524D01*
X12356Y36526D01*
X12381Y36730D02*
X12228Y36730D01*
X12381Y36730D02*
X12400Y36728D01*
X12418Y36723D01*
X12435Y36715D01*
X12450Y36703D01*
X12462Y36689D01*
X12472Y36673D01*
X12479Y36656D01*
X12483Y36637D01*
X12483Y36619D01*
X12479Y36600D01*
X12472Y36583D01*
X12462Y36567D01*
X12450Y36553D01*
X12435Y36541D01*
X12418Y36533D01*
X12400Y36528D01*
X12381Y36526D01*
X12279Y36526D01*
X10402Y65222D02*
X7598Y65222D01*
X7598Y62778D02*
X10402Y62778D01*
D18*
X9214Y64394D02*
X8673Y64000D01*
X9214Y63606D01*
X9214Y64394D01*
D23*
X8419Y64000D03*
D11*
X7812Y65342D02*
X7658Y65802D01*
X7965Y65802D02*
X7812Y65342D01*
X8108Y65342D02*
X8262Y65802D01*
X8415Y65342D01*
X8377Y65457D02*
X8147Y65457D01*
X8602Y65342D02*
X8602Y65802D01*
X8729Y65802D01*
X8729Y65803D02*
X8750Y65801D01*
X8771Y65796D01*
X8790Y65788D01*
X8808Y65776D01*
X8823Y65762D01*
X8836Y65745D01*
X8846Y65726D01*
X8853Y65706D01*
X8857Y65686D01*
X8857Y65664D01*
X8853Y65644D01*
X8846Y65624D01*
X8836Y65605D01*
X8823Y65588D01*
X8808Y65574D01*
X8790Y65562D01*
X8771Y65554D01*
X8750Y65549D01*
X8729Y65547D01*
X8602Y65547D01*
X8755Y65547D02*
X8857Y65342D01*
X9070Y65598D02*
X9198Y65598D01*
X9219Y65596D01*
X9240Y65591D01*
X9259Y65583D01*
X9277Y65571D01*
X9292Y65557D01*
X9305Y65540D01*
X9315Y65521D01*
X9322Y65501D01*
X9326Y65481D01*
X9326Y65459D01*
X9322Y65439D01*
X9315Y65419D01*
X9305Y65400D01*
X9292Y65383D01*
X9277Y65369D01*
X9259Y65357D01*
X9240Y65349D01*
X9219Y65344D01*
X9198Y65342D01*
X9070Y65342D01*
X9070Y65802D01*
X9198Y65802D01*
X9217Y65800D01*
X9235Y65795D01*
X9252Y65787D01*
X9267Y65775D01*
X9279Y65761D01*
X9289Y65745D01*
X9296Y65728D01*
X9300Y65709D01*
X9300Y65691D01*
X9296Y65672D01*
X9289Y65655D01*
X9279Y65639D01*
X9267Y65625D01*
X9252Y65613D01*
X9235Y65605D01*
X9217Y65600D01*
X9198Y65598D01*
X9514Y65470D02*
X9514Y65802D01*
X9514Y65470D02*
X9516Y65449D01*
X9521Y65428D01*
X9529Y65409D01*
X9541Y65391D01*
X9555Y65376D01*
X9572Y65363D01*
X9591Y65353D01*
X9611Y65346D01*
X9631Y65342D01*
X9653Y65342D01*
X9673Y65346D01*
X9693Y65353D01*
X9712Y65363D01*
X9729Y65376D01*
X9743Y65391D01*
X9755Y65409D01*
X9763Y65428D01*
X9768Y65449D01*
X9770Y65470D01*
X9769Y65470D02*
X9769Y65802D01*
X10080Y65342D02*
X10182Y65342D01*
X10080Y65343D02*
X10062Y65345D01*
X10045Y65349D01*
X10029Y65357D01*
X10014Y65367D01*
X10002Y65379D01*
X9992Y65394D01*
X9984Y65410D01*
X9980Y65427D01*
X9978Y65445D01*
X9977Y65445D02*
X9977Y65700D01*
X9978Y65700D02*
X9980Y65720D01*
X9986Y65739D01*
X9995Y65757D01*
X10008Y65772D01*
X10023Y65785D01*
X10041Y65794D01*
X10060Y65800D01*
X10080Y65802D01*
X10182Y65802D01*
X10375Y65802D02*
X10375Y65342D01*
X10375Y65521D02*
X10631Y65802D01*
X10478Y65624D02*
X10631Y65342D01*
X10825Y65342D02*
X10825Y65802D01*
X10953Y65802D01*
X10953Y65803D02*
X10974Y65801D01*
X10995Y65796D01*
X11014Y65788D01*
X11032Y65776D01*
X11047Y65762D01*
X11060Y65745D01*
X11070Y65726D01*
X11077Y65706D01*
X11081Y65686D01*
X11081Y65664D01*
X11077Y65644D01*
X11070Y65624D01*
X11060Y65605D01*
X11047Y65588D01*
X11032Y65574D01*
X11014Y65562D01*
X10995Y65554D01*
X10974Y65549D01*
X10953Y65547D01*
X10825Y65547D01*
X11272Y65342D02*
X11272Y65802D01*
X11399Y65802D01*
X11399Y65803D02*
X11420Y65801D01*
X11441Y65796D01*
X11460Y65788D01*
X11478Y65776D01*
X11493Y65762D01*
X11506Y65745D01*
X11516Y65726D01*
X11523Y65706D01*
X11527Y65686D01*
X11527Y65664D01*
X11523Y65644D01*
X11516Y65624D01*
X11506Y65605D01*
X11493Y65588D01*
X11478Y65574D01*
X11460Y65562D01*
X11441Y65554D01*
X11420Y65549D01*
X11399Y65547D01*
X11272Y65547D01*
X11425Y65547D02*
X11527Y65342D01*
X11719Y65470D02*
X11719Y65675D01*
X11721Y65696D01*
X11726Y65717D01*
X11734Y65736D01*
X11746Y65754D01*
X11760Y65769D01*
X11777Y65782D01*
X11796Y65792D01*
X11816Y65799D01*
X11836Y65803D01*
X11858Y65803D01*
X11878Y65799D01*
X11898Y65792D01*
X11917Y65782D01*
X11934Y65769D01*
X11948Y65754D01*
X11960Y65736D01*
X11968Y65717D01*
X11973Y65696D01*
X11975Y65675D01*
X11974Y65675D02*
X11974Y65470D01*
X11975Y65470D02*
X11973Y65449D01*
X11968Y65428D01*
X11960Y65409D01*
X11948Y65391D01*
X11934Y65376D01*
X11917Y65363D01*
X11898Y65353D01*
X11878Y65346D01*
X11858Y65342D01*
X11836Y65342D01*
X11816Y65346D01*
X11796Y65353D01*
X11777Y65363D01*
X11760Y65376D01*
X11746Y65391D01*
X11734Y65409D01*
X11726Y65428D01*
X11721Y65449D01*
X11719Y65470D01*
X12267Y65342D02*
X12267Y65802D01*
X12394Y65802D02*
X12139Y65802D01*
X12575Y65342D02*
X12779Y65342D01*
X12575Y65342D02*
X12575Y65802D01*
X12779Y65802D01*
X12728Y65598D02*
X12575Y65598D01*
X13050Y65342D02*
X13152Y65342D01*
X13050Y65343D02*
X13032Y65345D01*
X13015Y65349D01*
X12999Y65357D01*
X12984Y65367D01*
X12972Y65379D01*
X12962Y65394D01*
X12954Y65410D01*
X12950Y65427D01*
X12948Y65445D01*
X12947Y65445D02*
X12947Y65700D01*
X12948Y65700D02*
X12950Y65720D01*
X12956Y65739D01*
X12965Y65757D01*
X12978Y65772D01*
X12993Y65785D01*
X13011Y65794D01*
X13030Y65800D01*
X13050Y65802D01*
X13152Y65802D01*
X13422Y65802D02*
X13422Y65342D01*
X13294Y65802D02*
X13549Y65802D01*
X13729Y65802D02*
X13729Y65342D01*
X13729Y65802D02*
X13857Y65802D01*
X13857Y65803D02*
X13877Y65801D01*
X13897Y65797D01*
X13915Y65789D01*
X13932Y65779D01*
X13948Y65766D01*
X13961Y65750D01*
X13971Y65733D01*
X13979Y65715D01*
X13983Y65695D01*
X13985Y65675D01*
X13984Y65675D02*
X13984Y65470D01*
X13985Y65470D02*
X13983Y65450D01*
X13979Y65430D01*
X13971Y65412D01*
X13961Y65395D01*
X13948Y65379D01*
X13932Y65366D01*
X13915Y65356D01*
X13897Y65348D01*
X13877Y65344D01*
X13857Y65342D01*
X13729Y65342D01*
X14232Y65342D02*
X14232Y65802D01*
X14180Y65342D02*
X14283Y65342D01*
X14283Y65802D02*
X14180Y65802D01*
X14464Y65675D02*
X14464Y65470D01*
X14464Y65675D02*
X14466Y65696D01*
X14471Y65717D01*
X14479Y65736D01*
X14491Y65754D01*
X14505Y65769D01*
X14522Y65782D01*
X14541Y65792D01*
X14561Y65799D01*
X14581Y65803D01*
X14603Y65803D01*
X14623Y65799D01*
X14643Y65792D01*
X14662Y65782D01*
X14679Y65769D01*
X14693Y65754D01*
X14705Y65736D01*
X14713Y65717D01*
X14718Y65696D01*
X14720Y65675D01*
X14719Y65675D02*
X14719Y65470D01*
X14720Y65470D02*
X14718Y65449D01*
X14713Y65428D01*
X14705Y65409D01*
X14693Y65391D01*
X14679Y65376D01*
X14662Y65363D01*
X14643Y65353D01*
X14623Y65346D01*
X14603Y65342D01*
X14581Y65342D01*
X14561Y65346D01*
X14541Y65353D01*
X14522Y65363D01*
X14505Y65376D01*
X14491Y65391D01*
X14479Y65409D01*
X14471Y65428D01*
X14466Y65449D01*
X14464Y65470D01*
X14929Y65342D02*
X14929Y65802D01*
X15057Y65802D01*
X15057Y65803D02*
X15077Y65801D01*
X15097Y65797D01*
X15115Y65789D01*
X15132Y65779D01*
X15148Y65766D01*
X15161Y65750D01*
X15171Y65733D01*
X15179Y65715D01*
X15183Y65695D01*
X15185Y65675D01*
X15184Y65675D02*
X15184Y65470D01*
X15185Y65470D02*
X15183Y65450D01*
X15179Y65430D01*
X15171Y65412D01*
X15161Y65395D01*
X15148Y65379D01*
X15132Y65366D01*
X15115Y65356D01*
X15097Y65348D01*
X15077Y65344D01*
X15057Y65342D01*
X14929Y65342D01*
X15410Y65342D02*
X15614Y65342D01*
X15410Y65342D02*
X15410Y65802D01*
X15614Y65802D01*
X15563Y65598D02*
X15410Y65598D01*
X7914Y62300D02*
X7912Y62282D01*
X7908Y62265D01*
X7900Y62249D01*
X7890Y62234D01*
X7878Y62222D01*
X7863Y62212D01*
X7847Y62204D01*
X7830Y62200D01*
X7812Y62198D01*
X7784Y62200D01*
X7756Y62205D01*
X7729Y62215D01*
X7703Y62227D01*
X7680Y62243D01*
X7659Y62262D01*
X7671Y62555D02*
X7673Y62573D01*
X7677Y62590D01*
X7685Y62606D01*
X7695Y62621D01*
X7707Y62633D01*
X7722Y62643D01*
X7738Y62651D01*
X7755Y62655D01*
X7773Y62657D01*
X7773Y62658D02*
X7798Y62656D01*
X7822Y62652D01*
X7845Y62644D01*
X7868Y62633D01*
X7888Y62620D01*
X7671Y62555D02*
X7673Y62537D01*
X7677Y62520D01*
X7685Y62503D01*
X7695Y62489D01*
X7708Y62476D01*
X7722Y62465D01*
X7863Y62390D02*
X7877Y62379D01*
X7890Y62366D01*
X7900Y62352D01*
X7908Y62335D01*
X7912Y62318D01*
X7914Y62300D01*
X7863Y62389D02*
X7722Y62466D01*
X8109Y62658D02*
X8109Y62198D01*
X8314Y62198D01*
X8483Y62300D02*
X8585Y62658D01*
X8483Y62300D02*
X8739Y62300D01*
X8662Y62402D02*
X8662Y62198D01*
X8933Y62300D02*
X9035Y62658D01*
X8933Y62300D02*
X9189Y62300D01*
X9112Y62402D02*
X9112Y62198D01*
X9398Y62198D02*
X9398Y62658D01*
X9398Y62453D02*
X9654Y62453D01*
X9654Y62658D02*
X9654Y62198D01*
X9879Y62198D02*
X10084Y62198D01*
X9879Y62198D02*
X9879Y62658D01*
X10084Y62658D01*
X10032Y62453D02*
X9879Y62453D01*
X10253Y62198D02*
X10381Y62198D01*
X10381Y62197D02*
X10402Y62199D01*
X10423Y62204D01*
X10442Y62212D01*
X10460Y62224D01*
X10475Y62238D01*
X10488Y62255D01*
X10498Y62274D01*
X10505Y62294D01*
X10509Y62314D01*
X10509Y62336D01*
X10505Y62356D01*
X10498Y62376D01*
X10488Y62395D01*
X10475Y62412D01*
X10460Y62426D01*
X10442Y62438D01*
X10423Y62446D01*
X10402Y62451D01*
X10381Y62453D01*
X10407Y62658D02*
X10253Y62658D01*
X10407Y62657D02*
X10426Y62655D01*
X10444Y62650D01*
X10461Y62642D01*
X10476Y62630D01*
X10488Y62616D01*
X10498Y62600D01*
X10505Y62583D01*
X10509Y62564D01*
X10509Y62546D01*
X10505Y62527D01*
X10498Y62510D01*
X10488Y62494D01*
X10476Y62480D01*
X10461Y62468D01*
X10444Y62460D01*
X10426Y62455D01*
X10407Y62453D01*
X10304Y62453D01*
X9870Y31580D02*
X9870Y31120D01*
X9870Y31580D02*
X9998Y31580D01*
X10019Y31578D01*
X10040Y31573D01*
X10059Y31565D01*
X10077Y31553D01*
X10092Y31539D01*
X10105Y31522D01*
X10115Y31503D01*
X10122Y31483D01*
X10126Y31463D01*
X10126Y31441D01*
X10122Y31421D01*
X10115Y31401D01*
X10105Y31382D01*
X10092Y31365D01*
X10077Y31351D01*
X10059Y31339D01*
X10040Y31331D01*
X10019Y31326D01*
X9998Y31324D01*
X9870Y31324D01*
X10023Y31324D02*
X10126Y31120D01*
X10317Y31478D02*
X10445Y31580D01*
X10445Y31120D01*
X10317Y31120D02*
X10573Y31120D01*
X9908Y30016D02*
X9895Y29985D01*
X9884Y29952D01*
X9876Y29918D01*
X9872Y29884D01*
X9870Y29850D01*
X9908Y30016D02*
X9915Y30031D01*
X9924Y30045D01*
X9936Y30057D01*
X9950Y30067D01*
X9965Y30074D01*
X9981Y30079D01*
X9998Y30080D01*
X10015Y30079D01*
X10031Y30074D01*
X10046Y30067D01*
X10060Y30057D01*
X10072Y30045D01*
X10081Y30031D01*
X10088Y30016D01*
X10087Y30016D02*
X10100Y29985D01*
X10111Y29952D01*
X10119Y29918D01*
X10123Y29884D01*
X10125Y29850D01*
X9870Y29850D02*
X9872Y29816D01*
X9876Y29782D01*
X9884Y29748D01*
X9895Y29715D01*
X9908Y29684D01*
X9915Y29669D01*
X9924Y29655D01*
X9936Y29643D01*
X9950Y29633D01*
X9965Y29626D01*
X9981Y29621D01*
X9998Y29620D01*
X10087Y29684D02*
X10100Y29715D01*
X10111Y29748D01*
X10119Y29782D01*
X10123Y29816D01*
X10125Y29850D01*
X10088Y29684D02*
X10081Y29669D01*
X10072Y29655D01*
X10060Y29643D01*
X10046Y29633D01*
X10031Y29626D01*
X10015Y29621D01*
X9998Y29620D01*
X9896Y29722D02*
X10100Y29978D01*
M02*
