G04 EAGLE Gerber RS-274X export*
G04 #@! %TF.Part,Single*
G04 #@! %TF.FileFunction,Other,Top Soldermask*
G04 #@! %TF.FilePolarity,Positive*
G04 #@! %TF.GenerationSoftware,Autodesk,EAGLE,9.5.2*
G04 #@! %TF.CreationDate,2020-01-10T22:13:51Z*
G75*
%MOIN*%
%FSLAX34Y34*%
%LPD*%
%INTop Soldermask*%
%IPPOS*%
%AMOC8*
5,1,8,0,0,1.08239X$1,22.5*%
G01*
%ADD10C,0.140874*%
%ADD11C,0.128079*%
%ADD12R,0.193039X0.157606*%
%ADD13R,0.157606X0.193039*%
%ADD14C,0.084772*%
%ADD15R,0.157606X0.118236*%
%ADD16C,0.090677*%
%ADD17C,0.120795*%
%ADD18C,0.059496*%
%ADD19C,0.096583*%
%ADD20R,0.118236X0.157606*%
%ADD21R,0.059181X0.067055*%
%ADD22C,0.037780*%


D10*
X4000Y59114D03*
X4000Y61752D03*
D11*
X3567Y63878D03*
D10*
X4000Y67614D03*
X4000Y70252D03*
D11*
X3567Y72378D03*
D12*
X20839Y38000D03*
X18161Y38000D03*
X29839Y66000D03*
X27161Y66000D03*
X46161Y40000D03*
X48839Y40000D03*
X12661Y66000D03*
X15339Y66000D03*
D13*
X8000Y60339D03*
X8000Y57661D03*
X8000Y52839D03*
X8000Y50161D03*
D12*
X49839Y66000D03*
X47161Y66000D03*
X23161Y38000D03*
X25839Y38000D03*
D13*
X8500Y41661D03*
X8500Y44339D03*
X8000Y67661D03*
X8000Y70339D03*
X7000Y32661D03*
X7000Y35339D03*
D12*
X23339Y66000D03*
X20661Y66000D03*
D10*
X22114Y70000D03*
X24752Y70000D03*
D11*
X26878Y70433D03*
D10*
X31114Y70000D03*
X33752Y70000D03*
D11*
X35878Y70433D03*
D14*
X48500Y72000D03*
X42594Y72000D03*
X40626Y72000D03*
X38657Y72000D03*
X38657Y69047D03*
X40626Y69047D03*
X42594Y69047D03*
X48500Y69047D03*
D15*
X29500Y30543D03*
X29500Y33457D03*
D10*
X13114Y70000D03*
X15752Y70000D03*
D11*
X17878Y70433D03*
D10*
X4000Y50114D03*
X4000Y52752D03*
D11*
X3567Y54878D03*
D10*
X4000Y41114D03*
X4000Y43752D03*
D11*
X3567Y45878D03*
D10*
X3500Y32114D03*
X3500Y34752D03*
D11*
X3067Y36878D03*
D10*
X47000Y44614D03*
X47000Y47252D03*
D11*
X46567Y49378D03*
D16*
X16500Y42500D03*
X19500Y42500D03*
X22500Y42500D03*
D17*
X22500Y62500D03*
D16*
X21000Y62500D03*
X19500Y62500D03*
X18000Y62500D03*
D17*
X16500Y62500D03*
D16*
X33500Y42500D03*
X36500Y42500D03*
X39500Y42500D03*
D17*
X39500Y62500D03*
D16*
X38000Y62500D03*
X36500Y62500D03*
X35000Y62500D03*
D17*
X33500Y62500D03*
D10*
X19114Y34000D03*
X21752Y34000D03*
D11*
X23878Y34433D03*
D18*
X37500Y37500D03*
X33500Y37500D03*
X33000Y66000D03*
X37000Y66000D03*
X46000Y37500D03*
X42000Y37500D03*
X40000Y66000D03*
X44000Y66000D03*
D15*
X29500Y35543D03*
X29500Y38457D03*
D18*
X46500Y51500D03*
X46500Y55500D03*
X46500Y62000D03*
X46500Y58000D03*
D10*
X34114Y33500D03*
X36752Y33500D03*
D11*
X38878Y33933D03*
D10*
X43614Y33500D03*
X46252Y33500D03*
D11*
X48378Y33933D03*
D19*
X10500Y35500D03*
X12469Y37469D03*
X14437Y35500D03*
X12469Y33531D03*
X12469Y35500D03*
D20*
X7543Y64000D03*
X10457Y64000D03*
D21*
X9726Y30600D03*
X10474Y30600D03*
D22*
X29520Y34740D03*
M02*
