M48
;GenerationSoftware,Autodesk,EAGLE,9.5.2*%
;CreationDate,2020-01-10T22:13:51Z*%
FMAT,2
ICI,OFF
INCH,TZ,000.000
T8C0.014
T7C0.031
T6C0.051
T5C0.055
T4C0.059
T3C0.075
T2C0.089
T1C0.120
%
G90
M72
T1
X4657Y4938
X357Y6388
X357Y7238
X2688Y7043
X3588Y7043
X1788Y7043
X357Y5488
X357Y4588
X307Y3688
X4838Y3393
X2388Y3443
X3888Y3393
T2
X2475Y7000
X400Y5911
X400Y6175
X400Y6761
X400Y7025
X2211Y7000
X3675Y3350
X3111Y7000
X3375Y7000
X3411Y3350
X4361Y3350
X2175Y3400
X1911Y3400
X1311Y7000
X1575Y7000
X400Y5011
X400Y5275
X400Y4111
X400Y4375
X350Y3211
X350Y3475
X4700Y4461
X4700Y4725
X4625Y3350
T3
X2250Y6250
X3350Y6250
X3950Y6250
X1650Y6250
T4
X1247Y3550
X1050Y3550
X1247Y3747
X1444Y3550
X1247Y3353
T5
X3350Y4250
X3650Y4250
X3950Y4250
X3800Y6250
X3650Y6250
X3500Y6250
X1650Y4250
X1950Y4250
X2250Y4250
X2100Y6250
X1950Y6250
X1800Y6250
T6
X4259Y7200
X4850Y7200
X4259Y6905
X4850Y6905
X4063Y6905
X3866Y6905
X3866Y7200
X4063Y7200
T7
X3750Y3750
X3350Y3750
X3700Y6600
X4600Y3750
X4200Y3750
X4000Y6600
X4400Y6600
X4650Y5150
X4650Y5550
X4650Y6200
X3300Y6600
X4650Y5800
T8
X2952Y3474
M30