M48
;GenerationSoftware,Autodesk,EAGLE,9.5.1*%
;CreationDate,2020-01-16T02:44:27Z*%
FMAT,2
ICI,OFF
METRIC,TZ,000.000
T9C0.350
T8C0.800
T7C1.200
T6C1.300
T5C1.400
T4C1.910
T3C2.250
T2C3.050
T1C4.000
%
G90
M71
T1
X81661Y120141
X22000Y191000
X22000Y71500
X127000Y71500
X127000Y191000
X82042Y133476
X82042Y146049
T2
X9060Y162250
X9060Y183840
X68270Y178900
X114498Y179027
X45410Y178900
X9060Y139390
X9060Y116530
X7790Y93670
X141648Y125547
X91638Y82507
X122118Y86317
X146248Y86317
T3
X142748Y120147
X10160Y150150
X10160Y156850
X10160Y171740
X10160Y178440
X56170Y177800
X62870Y177800
X102398Y177927
X109098Y177927
X116718Y85217
X134148Y85217
X86238Y81407
X79538Y81407
X140848Y85217
X110018Y85217
X142748Y113447
X8890Y88270
X33310Y177800
X40010Y177800
X10160Y127290
X10160Y133990
X10160Y104430
X10160Y111130
X8890Y81570
T4
X57150Y158750
X41910Y158750
X123698Y158877
X108458Y158877
T5
X41910Y107950
X49530Y107950
X57150Y107950
X53340Y158750
X49530Y158750
X45720Y158750
X108458Y108077
X116078Y108077
X123698Y108077
X119888Y158877
X116078Y158877
X112268Y158877
T6
X146558Y175507
X131558Y175507
X121558Y175507
X121558Y183007
X126558Y183007
X131558Y183007
X146558Y183007
X126558Y175507
T7
X59777Y87884
X32385Y88265
X34885Y90765
X37385Y88265
X34885Y85765
X34885Y88265
X57277Y87884
X59777Y90384
X62277Y87884
X59777Y85384
T8
X140208Y95377
X130048Y95377
X124968Y167767
X135128Y167767
X141478Y130937
X141478Y141097
X141478Y157607
X141478Y147447
X107188Y167767
X108458Y95377
X118618Y95377
X117348Y167767
T9
X98349Y88367
M30