G75*
%MOIN*%
%OFA0B0*%
%FSLAX25Y25*%
%IPPOS*%
%LPD*%
%AMOC8*
5,1,8,0,0,1.08239X$1,22.5*
%
%ADD10R,0.04724X0.03150*%
%ADD11R,0.03150X0.04724*%
%ADD12R,0.18504X0.14961*%
%ADD13R,0.04799X0.08799*%
%ADD14R,0.14173X0.08661*%
%ADD15R,0.08661X0.02362*%
%ADD16R,0.04500X0.03000*%
D10*
X0064350Y0160435D03*
X0064350Y0167522D03*
X0074350Y0167522D03*
X0074350Y0160435D03*
X0074350Y0225435D03*
X0074350Y0232522D03*
X0064350Y0232522D03*
X0064350Y0225435D03*
X0154350Y0162522D03*
X0154350Y0155435D03*
D11*
X0183306Y0131478D03*
X0190393Y0131478D03*
X0182893Y0113978D03*
X0175806Y0113978D03*
X0193306Y0198978D03*
X0200393Y0198978D03*
X0200393Y0211478D03*
X0193306Y0211478D03*
D12*
X0055964Y0117728D03*
X0082736Y0117728D03*
X0080236Y0294603D03*
X0053464Y0294603D03*
X0110026Y0294916D03*
X0136798Y0294916D03*
D13*
X0073448Y0241778D03*
X0064350Y0241778D03*
X0055251Y0241778D03*
X0055251Y0176778D03*
X0064350Y0176778D03*
X0073448Y0176778D03*
D14*
X0064350Y0201179D03*
X0064350Y0266179D03*
D15*
X0174113Y0156478D03*
X0174113Y0151478D03*
X0174113Y0146478D03*
X0174113Y0141478D03*
X0194586Y0141478D03*
X0194586Y0146478D03*
X0194586Y0151478D03*
X0194586Y0156478D03*
D16*
X0163200Y0183978D03*
X0163200Y0188978D03*
X0163200Y0193978D03*
X0163200Y0198978D03*
X0163200Y0203978D03*
X0163200Y0208978D03*
X0163200Y0213978D03*
X0163200Y0218978D03*
X0163200Y0223978D03*
X0125500Y0223978D03*
X0125500Y0218978D03*
X0125500Y0213978D03*
X0125500Y0208978D03*
X0125500Y0203978D03*
X0125500Y0198978D03*
X0125500Y0193978D03*
X0125500Y0188978D03*
X0125500Y0183978D03*
M02*
