G75*
%MOIN*%
%OFA0B0*%
%FSLAX25Y25*%
%IPPOS*%
%LPD*%
%AMOC8*
5,1,8,0,0,1.08239X$1,22.5*
%
%ADD10C,0.00600*%
%ADD11C,0.00800*%
%ADD12R,0.09843X0.05906*%
%ADD13C,0.00787*%
%ADD14R,0.00787X0.07874*%
%ADD15R,0.05906X0.03937*%
%ADD16C,0.00500*%
%ADD17C,0.00400*%
%ADD18R,0.02000X0.02000*%
%ADD19C,0.00300*%
D10*
X0061988Y0162797D02*
X0061988Y0165160D01*
X0066712Y0165160D02*
X0066712Y0162797D01*
X0071988Y0162797D02*
X0071988Y0165160D01*
X0076712Y0165160D02*
X0076712Y0162797D01*
X0076712Y0227797D02*
X0076712Y0230160D01*
X0071988Y0230160D02*
X0071988Y0227797D01*
X0066712Y0227797D02*
X0066712Y0230160D01*
X0061988Y0230160D02*
X0061988Y0227797D01*
X0129900Y0226178D02*
X0129900Y0181678D01*
X0158900Y0181678D01*
X0158900Y0226178D01*
X0129900Y0226178D01*
X0153200Y0185578D02*
X0153202Y0185670D01*
X0153208Y0185761D01*
X0153218Y0185852D01*
X0153232Y0185943D01*
X0153250Y0186033D01*
X0153272Y0186122D01*
X0153297Y0186209D01*
X0153327Y0186296D01*
X0153360Y0186382D01*
X0153397Y0186465D01*
X0153437Y0186548D01*
X0153481Y0186628D01*
X0153529Y0186706D01*
X0153580Y0186783D01*
X0153634Y0186856D01*
X0153691Y0186928D01*
X0153752Y0186997D01*
X0153815Y0187063D01*
X0153881Y0187126D01*
X0153950Y0187187D01*
X0154022Y0187244D01*
X0154095Y0187298D01*
X0154172Y0187349D01*
X0154250Y0187397D01*
X0154330Y0187441D01*
X0154413Y0187481D01*
X0154496Y0187518D01*
X0154582Y0187551D01*
X0154669Y0187581D01*
X0154756Y0187606D01*
X0154845Y0187628D01*
X0154935Y0187646D01*
X0155026Y0187660D01*
X0155117Y0187670D01*
X0155208Y0187676D01*
X0155300Y0187678D01*
X0155392Y0187676D01*
X0155483Y0187670D01*
X0155574Y0187660D01*
X0155665Y0187646D01*
X0155755Y0187628D01*
X0155844Y0187606D01*
X0155931Y0187581D01*
X0156018Y0187551D01*
X0156104Y0187518D01*
X0156187Y0187481D01*
X0156270Y0187441D01*
X0156350Y0187397D01*
X0156428Y0187349D01*
X0156505Y0187298D01*
X0156578Y0187244D01*
X0156650Y0187187D01*
X0156719Y0187126D01*
X0156785Y0187063D01*
X0156848Y0186997D01*
X0156909Y0186928D01*
X0156966Y0186856D01*
X0157020Y0186783D01*
X0157071Y0186706D01*
X0157119Y0186628D01*
X0157163Y0186548D01*
X0157203Y0186465D01*
X0157240Y0186382D01*
X0157273Y0186296D01*
X0157303Y0186209D01*
X0157328Y0186122D01*
X0157350Y0186033D01*
X0157368Y0185943D01*
X0157382Y0185852D01*
X0157392Y0185761D01*
X0157398Y0185670D01*
X0157400Y0185578D01*
X0157398Y0185486D01*
X0157392Y0185395D01*
X0157382Y0185304D01*
X0157368Y0185213D01*
X0157350Y0185123D01*
X0157328Y0185034D01*
X0157303Y0184947D01*
X0157273Y0184860D01*
X0157240Y0184774D01*
X0157203Y0184691D01*
X0157163Y0184608D01*
X0157119Y0184528D01*
X0157071Y0184450D01*
X0157020Y0184373D01*
X0156966Y0184300D01*
X0156909Y0184228D01*
X0156848Y0184159D01*
X0156785Y0184093D01*
X0156719Y0184030D01*
X0156650Y0183969D01*
X0156578Y0183912D01*
X0156505Y0183858D01*
X0156428Y0183807D01*
X0156350Y0183759D01*
X0156270Y0183715D01*
X0156187Y0183675D01*
X0156104Y0183638D01*
X0156018Y0183605D01*
X0155931Y0183575D01*
X0155844Y0183550D01*
X0155755Y0183528D01*
X0155665Y0183510D01*
X0155574Y0183496D01*
X0155483Y0183486D01*
X0155392Y0183480D01*
X0155300Y0183478D01*
X0155208Y0183480D01*
X0155117Y0183486D01*
X0155026Y0183496D01*
X0154935Y0183510D01*
X0154845Y0183528D01*
X0154756Y0183550D01*
X0154669Y0183575D01*
X0154582Y0183605D01*
X0154496Y0183638D01*
X0154413Y0183675D01*
X0154330Y0183715D01*
X0154250Y0183759D01*
X0154172Y0183807D01*
X0154095Y0183858D01*
X0154022Y0183912D01*
X0153950Y0183969D01*
X0153881Y0184030D01*
X0153815Y0184093D01*
X0153752Y0184159D01*
X0153691Y0184228D01*
X0153634Y0184300D01*
X0153580Y0184373D01*
X0153529Y0184450D01*
X0153481Y0184528D01*
X0153437Y0184608D01*
X0153397Y0184691D01*
X0153360Y0184774D01*
X0153327Y0184860D01*
X0153297Y0184947D01*
X0153272Y0185034D01*
X0153250Y0185123D01*
X0153232Y0185213D01*
X0153218Y0185304D01*
X0153208Y0185395D01*
X0153202Y0185486D01*
X0153200Y0185578D01*
X0151988Y0160160D02*
X0151988Y0157797D01*
X0156712Y0157797D02*
X0156712Y0160160D01*
X0185669Y0133841D02*
X0188031Y0133841D01*
X0188031Y0129116D02*
X0185669Y0129116D01*
X0180531Y0116341D02*
X0178169Y0116341D01*
X0178169Y0111616D02*
X0180531Y0111616D01*
X0195669Y0196616D02*
X0198031Y0196616D01*
X0198031Y0201341D02*
X0195669Y0201341D01*
X0195669Y0209116D02*
X0198031Y0209116D01*
X0198031Y0213841D02*
X0195669Y0213841D01*
X0194822Y0322716D02*
X0194822Y0326986D01*
X0192687Y0329121D01*
X0190552Y0326986D01*
X0190552Y0322716D01*
X0188377Y0323784D02*
X0187309Y0322716D01*
X0185174Y0322716D01*
X0184107Y0323784D01*
X0184107Y0328054D01*
X0185174Y0329121D01*
X0187309Y0329121D01*
X0188377Y0328054D01*
X0190552Y0325919D02*
X0194822Y0325919D01*
X0196998Y0329121D02*
X0196998Y0322716D01*
X0201268Y0322716D02*
X0201268Y0329121D01*
X0196998Y0329121D02*
X0201268Y0322716D01*
X0209889Y0322716D02*
X0213091Y0322716D01*
X0214159Y0323784D01*
X0214159Y0324851D01*
X0213091Y0325919D01*
X0209889Y0325919D01*
X0213091Y0325919D02*
X0214159Y0326986D01*
X0214159Y0328054D01*
X0213091Y0329121D01*
X0209889Y0329121D01*
X0209889Y0322716D01*
X0216334Y0323784D02*
X0217402Y0322716D01*
X0219537Y0322716D01*
X0220604Y0323784D01*
X0220604Y0325919D01*
X0219537Y0326986D01*
X0217402Y0326986D01*
X0216334Y0325919D01*
X0216334Y0323784D01*
X0222780Y0323784D02*
X0223847Y0324851D01*
X0227050Y0324851D01*
X0227050Y0325919D02*
X0227050Y0322716D01*
X0223847Y0322716D01*
X0222780Y0323784D01*
X0223847Y0326986D02*
X0225982Y0326986D01*
X0227050Y0325919D01*
X0229225Y0326986D02*
X0229225Y0322716D01*
X0229225Y0324851D02*
X0231360Y0326986D01*
X0232428Y0326986D01*
X0234596Y0325919D02*
X0234596Y0323784D01*
X0235664Y0322716D01*
X0238867Y0322716D01*
X0238867Y0329121D01*
X0238867Y0326986D02*
X0235664Y0326986D01*
X0234596Y0325919D01*
X0175486Y0325919D02*
X0175486Y0322716D01*
X0175486Y0325919D02*
X0174418Y0326986D01*
X0171216Y0326986D01*
X0171216Y0322716D01*
X0169040Y0324851D02*
X0169040Y0325919D01*
X0167973Y0326986D01*
X0165838Y0326986D01*
X0164770Y0325919D01*
X0164770Y0323784D01*
X0165838Y0322716D01*
X0167973Y0322716D01*
X0169040Y0324851D02*
X0164770Y0324851D01*
X0162595Y0324851D02*
X0162595Y0325919D01*
X0161527Y0326986D01*
X0159392Y0326986D01*
X0158325Y0325919D01*
X0158325Y0323784D01*
X0159392Y0322716D01*
X0161527Y0322716D01*
X0162595Y0324851D02*
X0158325Y0324851D01*
X0156156Y0326986D02*
X0155089Y0326986D01*
X0152953Y0324851D01*
X0152953Y0322716D02*
X0152953Y0326986D01*
X0150778Y0326986D02*
X0147575Y0326986D01*
X0146508Y0325919D01*
X0146508Y0323784D01*
X0147575Y0322716D01*
X0150778Y0322716D01*
X0144333Y0323784D02*
X0143265Y0322716D01*
X0141130Y0322716D01*
X0140062Y0323784D01*
X0141130Y0325919D02*
X0143265Y0325919D01*
X0144333Y0324851D01*
X0144333Y0323784D01*
X0141130Y0325919D02*
X0140062Y0326986D01*
X0140062Y0328054D01*
X0141130Y0329121D01*
X0143265Y0329121D01*
X0144333Y0328054D01*
X0131442Y0328054D02*
X0131442Y0323784D01*
X0130374Y0322716D01*
X0127171Y0322716D01*
X0127171Y0329121D01*
X0130374Y0329121D01*
X0131442Y0328054D01*
X0124996Y0328054D02*
X0123929Y0329121D01*
X0121794Y0329121D01*
X0120726Y0328054D01*
X0120726Y0323784D01*
X0121794Y0322716D01*
X0123929Y0322716D01*
X0124996Y0323784D01*
X0118551Y0322716D02*
X0114280Y0322716D01*
X0114280Y0329121D01*
X0105660Y0329121D02*
X0105660Y0322716D01*
X0102457Y0322716D01*
X0101389Y0323784D01*
X0101389Y0325919D01*
X0102457Y0326986D01*
X0105660Y0326986D01*
X0099221Y0326986D02*
X0098153Y0326986D01*
X0096018Y0324851D01*
X0096018Y0322716D02*
X0096018Y0326986D01*
X0093843Y0325919D02*
X0093843Y0322716D01*
X0090640Y0322716D01*
X0089573Y0323784D01*
X0090640Y0324851D01*
X0093843Y0324851D01*
X0093843Y0325919D02*
X0092775Y0326986D01*
X0090640Y0326986D01*
X0087398Y0325919D02*
X0087398Y0323784D01*
X0086330Y0322716D01*
X0084195Y0322716D01*
X0083127Y0323784D01*
X0083127Y0325919D01*
X0084195Y0326986D01*
X0086330Y0326986D01*
X0087398Y0325919D01*
X0080952Y0325919D02*
X0080952Y0323784D01*
X0079884Y0322716D01*
X0076682Y0322716D01*
X0076682Y0329121D01*
X0076682Y0326986D02*
X0079884Y0326986D01*
X0080952Y0325919D01*
X0074507Y0325919D02*
X0074507Y0322716D01*
X0074507Y0325919D02*
X0073439Y0326986D01*
X0071304Y0326986D01*
X0070236Y0325919D01*
X0068061Y0326986D02*
X0064858Y0326986D01*
X0063791Y0325919D01*
X0064858Y0324851D01*
X0066993Y0324851D01*
X0068061Y0323784D01*
X0066993Y0322716D01*
X0063791Y0322716D01*
X0061616Y0322716D02*
X0061616Y0325919D01*
X0060548Y0326986D01*
X0058413Y0326986D01*
X0058413Y0324851D02*
X0061616Y0324851D01*
X0061616Y0322716D02*
X0058413Y0322716D01*
X0057345Y0323784D01*
X0058413Y0324851D01*
X0055170Y0323784D02*
X0055170Y0328054D01*
X0054102Y0329121D01*
X0050900Y0329121D01*
X0050900Y0322716D01*
X0054102Y0322716D01*
X0055170Y0323784D01*
X0070236Y0322716D02*
X0070236Y0329121D01*
D11*
X0077251Y0260978D02*
X0051448Y0260978D01*
X0051448Y0246978D01*
X0077251Y0246978D01*
X0077251Y0260978D01*
X0077251Y0195978D02*
X0051448Y0195978D01*
X0051448Y0181978D01*
X0077251Y0181978D01*
X0077251Y0195978D01*
X0157541Y0074868D02*
X0157541Y0024474D01*
X0196159Y0024474D01*
X0196159Y0074080D01*
X0191828Y0074080D01*
X0161871Y0074868D02*
X0157541Y0074868D01*
X0170350Y0190478D02*
X0170350Y0217478D01*
X0170353Y0217697D01*
X0170361Y0217916D01*
X0170374Y0218135D01*
X0170393Y0218353D01*
X0170417Y0218571D01*
X0170446Y0218788D01*
X0170480Y0219005D01*
X0170520Y0219220D01*
X0170565Y0219435D01*
X0170616Y0219648D01*
X0170671Y0219860D01*
X0170732Y0220071D01*
X0170797Y0220280D01*
X0170868Y0220487D01*
X0170944Y0220693D01*
X0171025Y0220897D01*
X0171110Y0221099D01*
X0171201Y0221298D01*
X0171296Y0221495D01*
X0171397Y0221690D01*
X0171502Y0221883D01*
X0171611Y0222073D01*
X0171725Y0222260D01*
X0171844Y0222444D01*
X0171967Y0222625D01*
X0172095Y0222803D01*
X0172227Y0222979D01*
X0172363Y0223150D01*
X0172503Y0223319D01*
X0172647Y0223484D01*
X0172795Y0223645D01*
X0172947Y0223803D01*
X0173103Y0223957D01*
X0173263Y0224107D01*
X0173426Y0224254D01*
X0173593Y0224396D01*
X0173763Y0224534D01*
X0173937Y0224668D01*
X0174113Y0224798D01*
X0174293Y0224923D01*
X0174476Y0225044D01*
X0174662Y0225160D01*
X0174850Y0225272D01*
X0175041Y0225379D01*
X0175235Y0225482D01*
X0175431Y0225580D01*
X0175629Y0225673D01*
X0175830Y0225761D01*
X0176033Y0225844D01*
X0176238Y0225923D01*
X0176444Y0225996D01*
X0176652Y0226064D01*
X0176862Y0226127D01*
X0177074Y0226185D01*
X0177286Y0226238D01*
X0177500Y0226286D01*
X0177715Y0226328D01*
X0177931Y0226365D01*
X0178148Y0226397D01*
X0178366Y0226424D01*
X0178584Y0226445D01*
X0178802Y0226461D01*
X0179021Y0226472D01*
X0179240Y0226477D01*
X0179460Y0226477D01*
X0179679Y0226472D01*
X0179898Y0226461D01*
X0180116Y0226445D01*
X0180334Y0226424D01*
X0180552Y0226397D01*
X0180769Y0226365D01*
X0180985Y0226328D01*
X0181200Y0226286D01*
X0181414Y0226238D01*
X0181626Y0226185D01*
X0181838Y0226127D01*
X0182048Y0226064D01*
X0182256Y0225996D01*
X0182462Y0225923D01*
X0182667Y0225844D01*
X0182870Y0225761D01*
X0183071Y0225673D01*
X0183269Y0225580D01*
X0183465Y0225482D01*
X0183659Y0225379D01*
X0183850Y0225272D01*
X0184038Y0225160D01*
X0184224Y0225044D01*
X0184407Y0224923D01*
X0184587Y0224798D01*
X0184763Y0224668D01*
X0184937Y0224534D01*
X0185107Y0224396D01*
X0185274Y0224254D01*
X0185437Y0224107D01*
X0185597Y0223957D01*
X0185753Y0223803D01*
X0185905Y0223645D01*
X0186053Y0223484D01*
X0186197Y0223319D01*
X0186337Y0223150D01*
X0186473Y0222979D01*
X0186605Y0222803D01*
X0186733Y0222625D01*
X0186856Y0222444D01*
X0186975Y0222260D01*
X0187089Y0222073D01*
X0187198Y0221883D01*
X0187303Y0221690D01*
X0187404Y0221495D01*
X0187499Y0221298D01*
X0187590Y0221099D01*
X0187675Y0220897D01*
X0187756Y0220693D01*
X0187832Y0220487D01*
X0187903Y0220280D01*
X0187968Y0220071D01*
X0188029Y0219860D01*
X0188084Y0219648D01*
X0188135Y0219435D01*
X0188180Y0219220D01*
X0188220Y0219005D01*
X0188254Y0218788D01*
X0188283Y0218571D01*
X0188307Y0218353D01*
X0188326Y0218135D01*
X0188339Y0217916D01*
X0188347Y0217697D01*
X0188350Y0217478D01*
X0188350Y0190478D01*
X0188347Y0190259D01*
X0188339Y0190040D01*
X0188326Y0189821D01*
X0188307Y0189603D01*
X0188283Y0189385D01*
X0188254Y0189168D01*
X0188220Y0188951D01*
X0188180Y0188736D01*
X0188135Y0188521D01*
X0188084Y0188308D01*
X0188029Y0188096D01*
X0187968Y0187885D01*
X0187903Y0187676D01*
X0187832Y0187469D01*
X0187756Y0187263D01*
X0187675Y0187059D01*
X0187590Y0186857D01*
X0187499Y0186658D01*
X0187404Y0186461D01*
X0187303Y0186266D01*
X0187198Y0186073D01*
X0187089Y0185883D01*
X0186975Y0185696D01*
X0186856Y0185512D01*
X0186733Y0185331D01*
X0186605Y0185153D01*
X0186473Y0184977D01*
X0186337Y0184806D01*
X0186197Y0184637D01*
X0186053Y0184472D01*
X0185905Y0184311D01*
X0185753Y0184153D01*
X0185597Y0183999D01*
X0185437Y0183849D01*
X0185274Y0183702D01*
X0185107Y0183560D01*
X0184937Y0183422D01*
X0184763Y0183288D01*
X0184587Y0183158D01*
X0184407Y0183033D01*
X0184224Y0182912D01*
X0184038Y0182796D01*
X0183850Y0182684D01*
X0183659Y0182577D01*
X0183465Y0182474D01*
X0183269Y0182376D01*
X0183071Y0182283D01*
X0182870Y0182195D01*
X0182667Y0182112D01*
X0182462Y0182033D01*
X0182256Y0181960D01*
X0182048Y0181892D01*
X0181838Y0181829D01*
X0181626Y0181771D01*
X0181414Y0181718D01*
X0181200Y0181670D01*
X0180985Y0181628D01*
X0180769Y0181591D01*
X0180552Y0181559D01*
X0180334Y0181532D01*
X0180116Y0181511D01*
X0179898Y0181495D01*
X0179679Y0181484D01*
X0179460Y0181479D01*
X0179240Y0181479D01*
X0179021Y0181484D01*
X0178802Y0181495D01*
X0178584Y0181511D01*
X0178366Y0181532D01*
X0178148Y0181559D01*
X0177931Y0181591D01*
X0177715Y0181628D01*
X0177500Y0181670D01*
X0177286Y0181718D01*
X0177074Y0181771D01*
X0176862Y0181829D01*
X0176652Y0181892D01*
X0176444Y0181960D01*
X0176238Y0182033D01*
X0176033Y0182112D01*
X0175830Y0182195D01*
X0175629Y0182283D01*
X0175431Y0182376D01*
X0175235Y0182474D01*
X0175041Y0182577D01*
X0174850Y0182684D01*
X0174662Y0182796D01*
X0174476Y0182912D01*
X0174293Y0183033D01*
X0174113Y0183158D01*
X0173937Y0183288D01*
X0173763Y0183422D01*
X0173593Y0183560D01*
X0173426Y0183702D01*
X0173263Y0183849D01*
X0173103Y0183999D01*
X0172947Y0184153D01*
X0172795Y0184311D01*
X0172647Y0184472D01*
X0172503Y0184637D01*
X0172363Y0184806D01*
X0172227Y0184977D01*
X0172095Y0185153D01*
X0171967Y0185331D01*
X0171844Y0185512D01*
X0171725Y0185696D01*
X0171611Y0185883D01*
X0171502Y0186073D01*
X0171397Y0186266D01*
X0171296Y0186461D01*
X0171201Y0186658D01*
X0171110Y0186857D01*
X0171025Y0187059D01*
X0170944Y0187263D01*
X0170868Y0187469D01*
X0170797Y0187676D01*
X0170732Y0187885D01*
X0170671Y0188096D01*
X0170616Y0188308D01*
X0170565Y0188521D01*
X0170520Y0188736D01*
X0170480Y0188951D01*
X0170446Y0189168D01*
X0170417Y0189385D01*
X0170393Y0189603D01*
X0170374Y0189821D01*
X0170361Y0190040D01*
X0170353Y0190259D01*
X0170350Y0190478D01*
D12*
X0176850Y0027821D03*
D13*
X0088247Y0108280D02*
X0088247Y0127177D01*
X0077224Y0127177D01*
X0077224Y0108280D01*
X0088247Y0108280D01*
X0081554Y0113004D02*
X0081554Y0122453D01*
X0076436Y0122453D01*
X0076436Y0113004D01*
X0081554Y0113004D01*
X0076436Y0113004D02*
X0062263Y0113004D01*
X0062263Y0122453D01*
X0057145Y0122453D01*
X0057145Y0113004D01*
X0062263Y0113004D01*
X0061476Y0108280D02*
X0061476Y0127177D01*
X0050452Y0127177D01*
X0050452Y0108280D01*
X0061476Y0108280D01*
X0077224Y0108280D01*
X0076436Y0122453D02*
X0062263Y0122453D01*
X0061476Y0127177D02*
X0077224Y0127177D01*
X0074724Y0285155D02*
X0058976Y0285155D01*
X0058976Y0304052D01*
X0047952Y0304052D01*
X0047952Y0285155D01*
X0058976Y0285155D01*
X0059763Y0289879D02*
X0054645Y0289879D01*
X0054645Y0299328D01*
X0059763Y0299328D01*
X0059763Y0289879D01*
X0073936Y0289879D01*
X0073936Y0299328D01*
X0059763Y0299328D01*
X0058976Y0304052D02*
X0074724Y0304052D01*
X0074724Y0285155D01*
X0085747Y0285155D01*
X0085747Y0304052D01*
X0074724Y0304052D01*
X0073936Y0299328D02*
X0079054Y0299328D01*
X0079054Y0289879D01*
X0073936Y0289879D01*
X0104515Y0285467D02*
X0115538Y0285467D01*
X0115538Y0304365D01*
X0104515Y0304365D01*
X0104515Y0285467D01*
X0111207Y0290192D02*
X0116326Y0290192D01*
X0116326Y0299640D01*
X0111207Y0299640D01*
X0111207Y0290192D01*
X0116326Y0290192D02*
X0130499Y0290192D01*
X0130499Y0299640D01*
X0116326Y0299640D01*
X0115538Y0304365D02*
X0131286Y0304365D01*
X0131286Y0285467D01*
X0142310Y0285467D01*
X0142310Y0304365D01*
X0131286Y0304365D01*
X0130499Y0299640D02*
X0135617Y0299640D01*
X0135617Y0290192D01*
X0130499Y0290192D01*
X0131286Y0285467D02*
X0115538Y0285467D01*
D14*
X0103727Y0294916D03*
X0086535Y0294603D03*
X0047165Y0294603D03*
X0143097Y0294916D03*
X0089035Y0117728D03*
X0049665Y0117728D03*
D15*
X0053799Y0117728D03*
X0084901Y0117728D03*
X0082401Y0294603D03*
X0107861Y0294916D03*
X0138963Y0294916D03*
X0051299Y0294603D03*
D16*
X0024350Y0041478D02*
X0026850Y0038978D01*
X0031850Y0038978D01*
X0034350Y0041478D01*
X0034350Y0046478D01*
X0031850Y0048978D01*
X0034350Y0051478D01*
X0034350Y0056478D01*
X0031850Y0058978D01*
X0034350Y0061478D01*
X0034350Y0066478D01*
X0031850Y0068978D01*
X0034350Y0071478D01*
X0034350Y0076478D01*
X0031850Y0078978D01*
X0034350Y0081478D01*
X0034350Y0086478D01*
X0031850Y0088978D01*
X0034350Y0091478D01*
X0034350Y0096478D01*
X0031850Y0098978D01*
X0034350Y0101478D01*
X0034350Y0106478D01*
X0031850Y0108978D01*
X0034350Y0111478D01*
X0034350Y0116478D01*
X0031850Y0118978D01*
X0026850Y0118978D01*
X0024350Y0116478D01*
X0024350Y0111478D01*
X0026850Y0108978D01*
X0024350Y0106478D01*
X0024350Y0101478D01*
X0026850Y0098978D01*
X0024350Y0096478D01*
X0024350Y0091478D01*
X0026850Y0088978D01*
X0024350Y0086478D01*
X0024350Y0081478D01*
X0026850Y0078978D01*
X0024350Y0076478D01*
X0024350Y0071478D01*
X0026850Y0068978D01*
X0024350Y0066478D01*
X0024350Y0061478D01*
X0026850Y0058978D01*
X0024350Y0056478D01*
X0024350Y0051478D01*
X0026850Y0048978D01*
X0024350Y0046478D01*
X0024350Y0041478D01*
X0044350Y0036478D02*
X0044350Y0021478D01*
X0046850Y0018978D01*
X0051850Y0018978D01*
X0054350Y0021478D01*
X0056850Y0018978D01*
X0061850Y0018978D01*
X0064350Y0021478D01*
X0066850Y0018978D01*
X0071850Y0018978D01*
X0074350Y0021478D01*
X0076850Y0018978D01*
X0081850Y0018978D01*
X0084350Y0021478D01*
X0086850Y0018978D01*
X0091850Y0018978D01*
X0094350Y0021478D01*
X0096850Y0018978D01*
X0101850Y0018978D01*
X0104350Y0021478D01*
X0106850Y0018978D01*
X0111850Y0018978D01*
X0114350Y0021478D01*
X0116850Y0018978D01*
X0121850Y0018978D01*
X0124350Y0021478D01*
X0126850Y0018978D01*
X0131850Y0018978D01*
X0134350Y0021478D01*
X0136850Y0018978D01*
X0141850Y0018978D01*
X0144350Y0021478D01*
X0146850Y0018978D01*
X0151850Y0018978D01*
X0154350Y0021478D01*
X0156850Y0018978D01*
X0161850Y0018978D01*
X0164350Y0021478D01*
X0166850Y0018978D01*
X0171850Y0018978D01*
X0174350Y0021478D01*
X0176850Y0018978D01*
X0181850Y0018978D01*
X0184350Y0021478D01*
X0186850Y0018978D01*
X0191850Y0018978D01*
X0194350Y0021478D01*
X0196850Y0018978D01*
X0201850Y0018978D01*
X0204350Y0021478D01*
X0206850Y0018978D01*
X0211850Y0018978D01*
X0214350Y0021478D01*
X0216850Y0018978D01*
X0221850Y0018978D01*
X0224350Y0021478D01*
X0224350Y0036478D01*
X0221850Y0038978D01*
X0216850Y0038978D01*
X0214350Y0036478D01*
X0211850Y0038978D01*
X0206850Y0038978D01*
X0204350Y0036478D01*
X0201850Y0038978D01*
X0196850Y0038978D01*
X0194350Y0036478D01*
X0191850Y0038978D01*
X0186850Y0038978D01*
X0184350Y0036478D01*
X0181850Y0038978D01*
X0176850Y0038978D01*
X0174350Y0036478D01*
X0171850Y0038978D01*
X0166850Y0038978D01*
X0164350Y0036478D01*
X0161850Y0038978D01*
X0156850Y0038978D01*
X0154350Y0036478D01*
X0151850Y0038978D01*
X0146850Y0038978D01*
X0144350Y0036478D01*
X0141850Y0038978D01*
X0136850Y0038978D01*
X0134350Y0036478D01*
X0131850Y0038978D01*
X0126850Y0038978D01*
X0124350Y0036478D01*
X0121850Y0038978D01*
X0116850Y0038978D01*
X0114350Y0036478D01*
X0111850Y0038978D01*
X0106850Y0038978D01*
X0104350Y0036478D01*
X0101850Y0038978D01*
X0096850Y0038978D01*
X0094350Y0036478D01*
X0091850Y0038978D01*
X0086850Y0038978D01*
X0084350Y0036478D01*
X0081850Y0038978D01*
X0076850Y0038978D01*
X0074350Y0036478D01*
X0071850Y0038978D01*
X0066850Y0038978D01*
X0064350Y0036478D01*
X0061850Y0038978D01*
X0056850Y0038978D01*
X0054350Y0036478D01*
X0051850Y0038978D01*
X0046850Y0038978D01*
X0044350Y0036478D01*
X0031850Y0128978D02*
X0026850Y0128978D01*
X0024350Y0131478D01*
X0024350Y0136478D01*
X0026850Y0138978D01*
X0024350Y0141478D01*
X0024350Y0146478D01*
X0026850Y0148978D01*
X0024350Y0151478D01*
X0024350Y0156478D01*
X0026850Y0158978D01*
X0024350Y0161478D01*
X0024350Y0166478D01*
X0026850Y0168978D01*
X0024350Y0171478D01*
X0024350Y0176478D01*
X0026850Y0178978D01*
X0024350Y0181478D01*
X0024350Y0186478D01*
X0026850Y0188978D01*
X0024350Y0191478D01*
X0024350Y0196478D01*
X0026850Y0198978D01*
X0024350Y0201478D01*
X0024350Y0206478D01*
X0026850Y0208978D01*
X0031850Y0208978D01*
X0034350Y0206478D01*
X0034350Y0201478D01*
X0031850Y0198978D01*
X0034350Y0196478D01*
X0034350Y0191478D01*
X0031850Y0188978D01*
X0034350Y0186478D01*
X0034350Y0181478D01*
X0031850Y0178978D01*
X0034350Y0176478D01*
X0034350Y0171478D01*
X0031850Y0168978D01*
X0034350Y0166478D01*
X0034350Y0161478D01*
X0031850Y0158978D01*
X0034350Y0156478D01*
X0034350Y0151478D01*
X0031850Y0148978D01*
X0034350Y0146478D01*
X0034350Y0141478D01*
X0031850Y0138978D01*
X0034350Y0136478D01*
X0034350Y0131478D01*
X0031850Y0128978D01*
X0031850Y0218978D02*
X0026850Y0218978D01*
X0024350Y0221478D01*
X0024350Y0226478D01*
X0026850Y0228978D01*
X0024350Y0231478D01*
X0024350Y0236478D01*
X0026850Y0238978D01*
X0024350Y0241478D01*
X0024350Y0246478D01*
X0026850Y0248978D01*
X0024350Y0251478D01*
X0024350Y0256478D01*
X0026850Y0258978D01*
X0024350Y0261478D01*
X0024350Y0266478D01*
X0026850Y0268978D01*
X0024350Y0271478D01*
X0024350Y0276478D01*
X0026850Y0278978D01*
X0024350Y0281478D01*
X0024350Y0286478D01*
X0026850Y0288978D01*
X0024350Y0291478D01*
X0024350Y0296478D01*
X0026850Y0298978D01*
X0031850Y0298978D01*
X0034350Y0296478D01*
X0034350Y0291478D01*
X0031850Y0288978D01*
X0034350Y0286478D01*
X0034350Y0281478D01*
X0031850Y0278978D01*
X0034350Y0276478D01*
X0034350Y0271478D01*
X0031850Y0268978D01*
X0034350Y0266478D01*
X0034350Y0261478D01*
X0031850Y0258978D01*
X0034350Y0256478D01*
X0034350Y0251478D01*
X0031850Y0248978D01*
X0034350Y0246478D01*
X0034350Y0241478D01*
X0031850Y0238978D01*
X0034350Y0236478D01*
X0034350Y0231478D01*
X0031850Y0228978D01*
X0034350Y0226478D01*
X0034350Y0221478D01*
X0031850Y0218978D01*
X0114350Y0156478D02*
X0114350Y0141478D01*
X0116850Y0138978D01*
X0121850Y0138978D01*
X0124350Y0141478D01*
X0126850Y0138978D01*
X0131850Y0138978D01*
X0134350Y0141478D01*
X0136850Y0138978D01*
X0141850Y0138978D01*
X0144350Y0141478D01*
X0144350Y0158978D01*
X0136850Y0158978D01*
X0134350Y0156478D01*
X0131850Y0158978D01*
X0126850Y0158978D01*
X0124350Y0156478D01*
X0121850Y0158978D01*
X0116850Y0158978D01*
X0114350Y0156478D01*
X0191850Y0268978D02*
X0196850Y0268978D01*
X0199350Y0271478D01*
X0199350Y0276478D01*
X0196850Y0278978D01*
X0199350Y0281478D01*
X0199350Y0286478D01*
X0196850Y0288978D01*
X0199350Y0291478D01*
X0199350Y0296478D01*
X0196850Y0298978D01*
X0199350Y0301478D01*
X0199350Y0306478D01*
X0196850Y0308978D01*
X0191850Y0308978D01*
X0189350Y0306478D01*
X0189350Y0301478D01*
X0191850Y0298978D01*
X0189350Y0296478D01*
X0189350Y0291478D01*
X0191850Y0288978D01*
X0189350Y0286478D01*
X0189350Y0281478D01*
X0191850Y0278978D01*
X0189350Y0276478D01*
X0189350Y0271478D01*
X0191850Y0268978D01*
X0214350Y0266478D02*
X0214350Y0271478D01*
X0216850Y0273978D01*
X0214350Y0276478D01*
X0214350Y0281478D01*
X0216850Y0283978D01*
X0214350Y0286478D01*
X0214350Y0291478D01*
X0216850Y0293978D01*
X0214350Y0296478D01*
X0214350Y0301478D01*
X0216850Y0303978D01*
X0214350Y0306478D01*
X0214350Y0311478D01*
X0216850Y0313978D01*
X0214350Y0316478D01*
X0214350Y0321478D01*
X0216850Y0323978D01*
X0214350Y0326478D01*
X0214350Y0331478D01*
X0216850Y0333978D01*
X0221850Y0333978D01*
X0224350Y0331478D01*
X0224350Y0326478D01*
X0221850Y0323978D01*
X0224350Y0321478D01*
X0224350Y0316478D01*
X0221850Y0313978D01*
X0224350Y0311478D01*
X0224350Y0306478D01*
X0221850Y0303978D01*
X0224350Y0301478D01*
X0224350Y0296478D01*
X0221850Y0293978D01*
X0224350Y0291478D01*
X0224350Y0286478D01*
X0221850Y0283978D01*
X0224350Y0281478D01*
X0224350Y0276478D01*
X0221850Y0273978D01*
X0224350Y0271478D01*
X0224350Y0266478D01*
X0221850Y0263978D01*
X0224350Y0261478D01*
X0224350Y0256478D01*
X0221850Y0253978D01*
X0224350Y0251478D01*
X0224350Y0246478D01*
X0221850Y0243978D01*
X0224350Y0241478D01*
X0224350Y0236478D01*
X0221850Y0233978D01*
X0216850Y0233978D01*
X0214350Y0236478D01*
X0214350Y0241478D01*
X0216850Y0243978D01*
X0214350Y0246478D01*
X0214350Y0251478D01*
X0216850Y0253978D01*
X0214350Y0256478D01*
X0214350Y0261478D01*
X0216850Y0263978D01*
X0214350Y0266478D01*
X0216850Y0228978D02*
X0214350Y0226478D01*
X0214350Y0221478D01*
X0216850Y0218978D01*
X0214350Y0216478D01*
X0214350Y0211478D01*
X0216850Y0208978D01*
X0214350Y0206478D01*
X0214350Y0201478D01*
X0216850Y0198978D01*
X0214350Y0196478D01*
X0214350Y0191478D01*
X0216850Y0188978D01*
X0214350Y0186478D01*
X0214350Y0181478D01*
X0216850Y0178978D01*
X0214350Y0176478D01*
X0214350Y0171478D01*
X0216850Y0168978D01*
X0214350Y0166478D01*
X0214350Y0161478D01*
X0216850Y0158978D01*
X0214350Y0156478D01*
X0214350Y0151478D01*
X0216850Y0148978D01*
X0221850Y0148978D01*
X0224350Y0151478D01*
X0224350Y0156478D01*
X0221850Y0158978D01*
X0224350Y0161478D01*
X0224350Y0166478D01*
X0221850Y0168978D01*
X0224350Y0171478D01*
X0224350Y0176478D01*
X0221850Y0178978D01*
X0224350Y0181478D01*
X0224350Y0186478D01*
X0221850Y0188978D01*
X0224350Y0191478D01*
X0224350Y0196478D01*
X0221850Y0198978D01*
X0224350Y0201478D01*
X0224350Y0206478D01*
X0221850Y0208978D01*
X0224350Y0211478D01*
X0224350Y0216478D01*
X0221850Y0218978D01*
X0224350Y0221478D01*
X0224350Y0226478D01*
X0221850Y0228978D01*
X0216850Y0228978D01*
X0216850Y0138978D02*
X0214350Y0136478D01*
X0214350Y0131478D01*
X0216850Y0128978D01*
X0214350Y0126478D01*
X0214350Y0121478D01*
X0216850Y0118978D01*
X0214350Y0116478D01*
X0214350Y0111478D01*
X0216850Y0108978D01*
X0214350Y0106478D01*
X0214350Y0101478D01*
X0216850Y0098978D01*
X0214350Y0096478D01*
X0214350Y0091478D01*
X0216850Y0088978D01*
X0214350Y0086478D01*
X0214350Y0081478D01*
X0216850Y0078978D01*
X0214350Y0076478D01*
X0214350Y0071478D01*
X0216850Y0068978D01*
X0214350Y0066478D01*
X0214350Y0061478D01*
X0216850Y0058978D01*
X0221850Y0058978D01*
X0224350Y0061478D01*
X0224350Y0066478D01*
X0221850Y0068978D01*
X0224350Y0071478D01*
X0224350Y0076478D01*
X0221850Y0078978D01*
X0224350Y0081478D01*
X0224350Y0086478D01*
X0221850Y0088978D01*
X0224350Y0091478D01*
X0224350Y0096478D01*
X0221850Y0098978D01*
X0224350Y0101478D01*
X0224350Y0106478D01*
X0221850Y0108978D01*
X0224350Y0111478D01*
X0224350Y0116478D01*
X0221850Y0118978D01*
X0224350Y0121478D01*
X0224350Y0126478D01*
X0221850Y0128978D01*
X0224350Y0131478D01*
X0224350Y0136478D01*
X0221850Y0138978D01*
X0216850Y0138978D01*
D17*
X0227050Y0136282D02*
X0230119Y0136282D01*
X0228584Y0136282D02*
X0228584Y0131678D01*
X0231654Y0131678D02*
X0234723Y0134748D01*
X0236258Y0135515D02*
X0237025Y0136282D01*
X0238560Y0136282D01*
X0239327Y0135515D01*
X0239327Y0134748D01*
X0238560Y0133980D01*
X0239327Y0133213D01*
X0239327Y0132446D01*
X0238560Y0131678D01*
X0237025Y0131678D01*
X0236258Y0132446D01*
X0234723Y0131678D02*
X0231654Y0134748D01*
X0237792Y0133980D02*
X0238560Y0133980D01*
X0240861Y0133213D02*
X0240861Y0134748D01*
X0242396Y0136282D01*
X0243931Y0134748D02*
X0245465Y0136282D01*
X0245465Y0131678D01*
X0243931Y0131678D02*
X0247000Y0131678D01*
X0248535Y0133980D02*
X0250837Y0136282D01*
X0250837Y0131678D01*
X0253139Y0131678D02*
X0254673Y0133213D01*
X0254673Y0134748D01*
X0253139Y0136282D01*
X0251604Y0133980D02*
X0248535Y0133980D01*
X0248535Y0126282D02*
X0248535Y0123980D01*
X0250069Y0124748D01*
X0250837Y0124748D01*
X0251604Y0123980D01*
X0251604Y0122446D01*
X0250837Y0121678D01*
X0249302Y0121678D01*
X0248535Y0122446D01*
X0247000Y0121678D02*
X0243931Y0121678D01*
X0245465Y0121678D02*
X0245465Y0126282D01*
X0243931Y0124748D01*
X0242396Y0126282D02*
X0240861Y0124748D01*
X0240861Y0123213D01*
X0242396Y0121678D01*
X0239327Y0122446D02*
X0238560Y0121678D01*
X0237025Y0121678D01*
X0236258Y0122446D01*
X0234723Y0121678D02*
X0231654Y0124748D01*
X0230119Y0125515D02*
X0230119Y0123980D01*
X0229352Y0123213D01*
X0227050Y0123213D01*
X0228584Y0123213D02*
X0230119Y0121678D01*
X0231654Y0121678D02*
X0234723Y0124748D01*
X0236258Y0125515D02*
X0237025Y0126282D01*
X0238560Y0126282D01*
X0239327Y0125515D01*
X0239327Y0124748D01*
X0238560Y0123980D01*
X0239327Y0123213D01*
X0239327Y0122446D01*
X0238560Y0123980D02*
X0237792Y0123980D01*
X0237025Y0116282D02*
X0236258Y0115515D01*
X0237025Y0116282D02*
X0238560Y0116282D01*
X0239327Y0115515D01*
X0239327Y0114748D01*
X0236258Y0111678D01*
X0239327Y0111678D01*
X0240861Y0113213D02*
X0240861Y0114748D01*
X0242396Y0116282D01*
X0243931Y0114748D02*
X0245465Y0116282D01*
X0245465Y0111678D01*
X0243931Y0111678D02*
X0247000Y0111678D01*
X0248535Y0112446D02*
X0249302Y0111678D01*
X0250837Y0111678D01*
X0251604Y0112446D01*
X0251604Y0113213D01*
X0250837Y0113980D01*
X0248535Y0113980D01*
X0248535Y0112446D01*
X0248535Y0113980D02*
X0250069Y0115515D01*
X0251604Y0116282D01*
X0253139Y0116282D02*
X0254673Y0114748D01*
X0254673Y0113213D01*
X0253139Y0111678D01*
X0253139Y0106282D02*
X0254673Y0104748D01*
X0254673Y0103213D01*
X0253139Y0101678D01*
X0251604Y0105515D02*
X0248535Y0102446D01*
X0248535Y0101678D01*
X0247000Y0101678D02*
X0243931Y0101678D01*
X0245465Y0101678D02*
X0245465Y0106282D01*
X0243931Y0104748D01*
X0242396Y0106282D02*
X0240861Y0104748D01*
X0240861Y0103213D01*
X0242396Y0101678D01*
X0239327Y0101678D02*
X0236258Y0101678D01*
X0239327Y0104748D01*
X0239327Y0105515D01*
X0238560Y0106282D01*
X0237025Y0106282D01*
X0236258Y0105515D01*
X0234723Y0104748D02*
X0231654Y0101678D01*
X0230119Y0101678D02*
X0228584Y0103213D01*
X0229352Y0103213D02*
X0227050Y0103213D01*
X0227050Y0101678D02*
X0227050Y0106282D01*
X0229352Y0106282D01*
X0230119Y0105515D01*
X0230119Y0103980D01*
X0229352Y0103213D01*
X0231654Y0104748D02*
X0234723Y0101678D01*
X0237792Y0096282D02*
X0237792Y0091678D01*
X0236258Y0091678D02*
X0239327Y0091678D01*
X0240861Y0093213D02*
X0240861Y0094748D01*
X0242396Y0096282D01*
X0243931Y0094748D02*
X0245465Y0096282D01*
X0245465Y0091678D01*
X0243931Y0091678D02*
X0247000Y0091678D01*
X0248535Y0092446D02*
X0248535Y0093213D01*
X0249302Y0093980D01*
X0250837Y0093980D01*
X0251604Y0093213D01*
X0251604Y0092446D01*
X0250837Y0091678D01*
X0249302Y0091678D01*
X0248535Y0092446D01*
X0249302Y0093980D02*
X0248535Y0094748D01*
X0248535Y0095515D01*
X0249302Y0096282D01*
X0250837Y0096282D01*
X0251604Y0095515D01*
X0251604Y0094748D01*
X0250837Y0093980D01*
X0253139Y0091678D02*
X0254673Y0093213D01*
X0254673Y0094748D01*
X0253139Y0096282D01*
X0251604Y0105515D02*
X0251604Y0106282D01*
X0248535Y0106282D01*
X0242396Y0111678D02*
X0240861Y0113213D01*
X0234723Y0111678D02*
X0231654Y0114748D01*
X0230119Y0116282D02*
X0227050Y0116282D01*
X0228584Y0116282D02*
X0228584Y0111678D01*
X0231654Y0111678D02*
X0234723Y0114748D01*
X0227050Y0121678D02*
X0227050Y0126282D01*
X0229352Y0126282D01*
X0230119Y0125515D01*
X0240861Y0133213D02*
X0242396Y0131678D01*
X0248535Y0126282D02*
X0251604Y0126282D01*
X0253139Y0126282D02*
X0254673Y0124748D01*
X0254673Y0123213D01*
X0253139Y0121678D01*
X0237792Y0096282D02*
X0236258Y0094748D01*
X0234723Y0094748D02*
X0231654Y0091678D01*
X0234723Y0091678D02*
X0231654Y0094748D01*
X0230119Y0096282D02*
X0227050Y0096282D01*
X0228584Y0096282D02*
X0228584Y0091678D01*
X0229352Y0086282D02*
X0227050Y0086282D01*
X0227050Y0081678D01*
X0227050Y0083213D02*
X0229352Y0083213D01*
X0230119Y0083980D01*
X0230119Y0085515D01*
X0229352Y0086282D01*
X0231654Y0084748D02*
X0234723Y0081678D01*
X0236258Y0081678D02*
X0239327Y0081678D01*
X0237792Y0081678D02*
X0237792Y0086282D01*
X0236258Y0084748D01*
X0234723Y0084748D02*
X0231654Y0081678D01*
X0230119Y0081678D02*
X0228584Y0083213D01*
X0227817Y0076282D02*
X0227050Y0075515D01*
X0227050Y0074748D01*
X0227817Y0073980D01*
X0229352Y0073980D01*
X0230119Y0073213D01*
X0230119Y0072446D01*
X0229352Y0071678D01*
X0227817Y0071678D01*
X0227050Y0072446D01*
X0230119Y0075515D02*
X0229352Y0076282D01*
X0227817Y0076282D01*
X0231654Y0076282D02*
X0233956Y0076282D01*
X0234723Y0075515D01*
X0234723Y0072446D01*
X0233956Y0071678D01*
X0231654Y0071678D01*
X0231654Y0076282D01*
X0236258Y0074748D02*
X0236258Y0071678D01*
X0236258Y0073980D02*
X0239327Y0073980D01*
X0239327Y0074748D02*
X0239327Y0071678D01*
X0240861Y0073213D02*
X0240861Y0074748D01*
X0242396Y0076282D01*
X0243931Y0075515D02*
X0244698Y0076282D01*
X0246233Y0076282D01*
X0247000Y0075515D01*
X0247000Y0074748D01*
X0243931Y0071678D01*
X0247000Y0071678D01*
X0248535Y0072446D02*
X0248535Y0075515D01*
X0249302Y0076282D01*
X0250837Y0076282D01*
X0251604Y0075515D01*
X0248535Y0072446D01*
X0249302Y0071678D01*
X0250837Y0071678D01*
X0251604Y0072446D01*
X0251604Y0075515D01*
X0253139Y0076282D02*
X0254673Y0074748D01*
X0254673Y0073213D01*
X0253139Y0071678D01*
X0253139Y0066282D02*
X0254673Y0064748D01*
X0254673Y0063213D01*
X0253139Y0061678D01*
X0251604Y0061678D02*
X0248535Y0061678D01*
X0250069Y0061678D02*
X0250069Y0066282D01*
X0248535Y0064748D01*
X0247000Y0064748D02*
X0247000Y0065515D01*
X0246233Y0066282D01*
X0244698Y0066282D01*
X0243931Y0065515D01*
X0242396Y0066282D02*
X0240861Y0064748D01*
X0240861Y0063213D01*
X0242396Y0061678D01*
X0243931Y0061678D02*
X0247000Y0064748D01*
X0247000Y0061678D02*
X0243931Y0061678D01*
X0239327Y0061678D02*
X0236258Y0061678D01*
X0236258Y0066282D01*
X0234723Y0065515D02*
X0233956Y0066282D01*
X0232421Y0066282D01*
X0231654Y0065515D01*
X0231654Y0062446D01*
X0232421Y0061678D01*
X0233956Y0061678D01*
X0234723Y0062446D01*
X0230119Y0062446D02*
X0229352Y0061678D01*
X0227817Y0061678D01*
X0227050Y0062446D01*
X0227817Y0063980D02*
X0227050Y0064748D01*
X0227050Y0065515D01*
X0227817Y0066282D01*
X0229352Y0066282D01*
X0230119Y0065515D01*
X0229352Y0063980D02*
X0230119Y0063213D01*
X0230119Y0062446D01*
X0229352Y0063980D02*
X0227817Y0063980D01*
X0236258Y0074748D02*
X0237792Y0076282D01*
X0239327Y0074748D01*
X0240861Y0073213D02*
X0242396Y0071678D01*
X0242396Y0081678D02*
X0240861Y0083213D01*
X0240861Y0084748D01*
X0242396Y0086282D01*
X0243931Y0084748D02*
X0245465Y0086282D01*
X0245465Y0081678D01*
X0243931Y0081678D02*
X0247000Y0081678D01*
X0248535Y0082446D02*
X0249302Y0081678D01*
X0250837Y0081678D01*
X0251604Y0082446D01*
X0251604Y0085515D01*
X0250837Y0086282D01*
X0249302Y0086282D01*
X0248535Y0085515D01*
X0248535Y0084748D01*
X0249302Y0083980D01*
X0251604Y0083980D01*
X0253139Y0081678D02*
X0254673Y0083213D01*
X0254673Y0084748D01*
X0253139Y0086282D01*
X0242396Y0091678D02*
X0240861Y0093213D01*
X0218580Y0049352D02*
X0221650Y0047817D01*
X0218580Y0046282D01*
X0219348Y0044748D02*
X0220882Y0044748D01*
X0221650Y0043980D01*
X0221650Y0042446D01*
X0220882Y0041678D01*
X0219348Y0041678D02*
X0218580Y0043213D01*
X0218580Y0043980D01*
X0219348Y0044748D01*
X0217046Y0044748D02*
X0217046Y0041678D01*
X0219348Y0041678D01*
X0211650Y0041678D02*
X0208580Y0044748D01*
X0207813Y0044748D01*
X0207046Y0043980D01*
X0207046Y0042446D01*
X0207813Y0041678D01*
X0211650Y0041678D02*
X0211650Y0044748D01*
X0211650Y0046282D02*
X0208580Y0049352D01*
X0207813Y0049352D01*
X0207046Y0048584D01*
X0207046Y0047050D01*
X0207813Y0046282D01*
X0211650Y0046282D02*
X0211650Y0049352D01*
X0201650Y0048584D02*
X0197046Y0048584D01*
X0199348Y0046282D01*
X0199348Y0049352D01*
X0198580Y0044748D02*
X0197813Y0044748D01*
X0197046Y0043980D01*
X0197046Y0042446D01*
X0197813Y0041678D01*
X0198580Y0044748D02*
X0201650Y0041678D01*
X0201650Y0044748D01*
X0191650Y0044748D02*
X0191650Y0041678D01*
X0188580Y0044748D01*
X0187813Y0044748D01*
X0187046Y0043980D01*
X0187046Y0042446D01*
X0187813Y0041678D01*
X0189348Y0046282D02*
X0187813Y0047817D01*
X0187046Y0049352D01*
X0189348Y0048584D02*
X0189348Y0046282D01*
X0190882Y0046282D01*
X0191650Y0047050D01*
X0191650Y0048584D01*
X0190882Y0049352D01*
X0190115Y0049352D01*
X0189348Y0048584D01*
X0181650Y0048584D02*
X0181650Y0047050D01*
X0180882Y0046282D01*
X0180115Y0046282D01*
X0179348Y0047050D01*
X0179348Y0048584D01*
X0180115Y0049352D01*
X0180882Y0049352D01*
X0181650Y0048584D01*
X0179348Y0048584D02*
X0178580Y0049352D01*
X0177813Y0049352D01*
X0177046Y0048584D01*
X0177046Y0047050D01*
X0177813Y0046282D01*
X0178580Y0046282D01*
X0179348Y0047050D01*
X0178580Y0044748D02*
X0177813Y0044748D01*
X0177046Y0043980D01*
X0177046Y0042446D01*
X0177813Y0041678D01*
X0178580Y0044748D02*
X0181650Y0041678D01*
X0181650Y0044748D01*
X0171650Y0043980D02*
X0171650Y0042446D01*
X0170882Y0041678D01*
X0169348Y0043213D02*
X0169348Y0043980D01*
X0170115Y0044748D01*
X0170882Y0044748D01*
X0171650Y0043980D01*
X0169348Y0043980D02*
X0168580Y0044748D01*
X0167813Y0044748D01*
X0167046Y0043980D01*
X0167046Y0042446D01*
X0167813Y0041678D01*
X0167813Y0046282D02*
X0167046Y0047050D01*
X0167046Y0048584D01*
X0167813Y0049352D01*
X0170882Y0046282D01*
X0171650Y0047050D01*
X0171650Y0048584D01*
X0170882Y0049352D01*
X0167813Y0049352D01*
X0167813Y0046282D02*
X0170882Y0046282D01*
X0161650Y0046282D02*
X0158580Y0049352D01*
X0157813Y0049352D01*
X0157046Y0048584D01*
X0157046Y0047050D01*
X0157813Y0046282D01*
X0157813Y0044748D02*
X0157046Y0043980D01*
X0157046Y0042446D01*
X0157813Y0041678D01*
X0159348Y0043213D02*
X0159348Y0043980D01*
X0160115Y0044748D01*
X0160882Y0044748D01*
X0161650Y0043980D01*
X0161650Y0042446D01*
X0160882Y0041678D01*
X0159348Y0043980D02*
X0158580Y0044748D01*
X0157813Y0044748D01*
X0161650Y0046282D02*
X0161650Y0049352D01*
X0151650Y0048584D02*
X0147046Y0048584D01*
X0149348Y0046282D01*
X0149348Y0049352D01*
X0150115Y0044748D02*
X0149348Y0043980D01*
X0149348Y0043213D01*
X0149348Y0043980D02*
X0148580Y0044748D01*
X0147813Y0044748D01*
X0147046Y0043980D01*
X0147046Y0042446D01*
X0147813Y0041678D01*
X0150882Y0041678D02*
X0151650Y0042446D01*
X0151650Y0043980D01*
X0150882Y0044748D01*
X0150115Y0044748D01*
X0141650Y0043980D02*
X0141650Y0042446D01*
X0140882Y0041678D01*
X0139348Y0043213D02*
X0139348Y0043980D01*
X0140115Y0044748D01*
X0140882Y0044748D01*
X0141650Y0043980D01*
X0139348Y0043980D02*
X0138580Y0044748D01*
X0137813Y0044748D01*
X0137046Y0043980D01*
X0137046Y0042446D01*
X0137813Y0041678D01*
X0139348Y0046282D02*
X0139348Y0048584D01*
X0140115Y0049352D01*
X0140882Y0049352D01*
X0141650Y0048584D01*
X0141650Y0047050D01*
X0140882Y0046282D01*
X0139348Y0046282D01*
X0137813Y0047817D01*
X0137046Y0049352D01*
X0131650Y0048584D02*
X0131650Y0047050D01*
X0130882Y0046282D01*
X0130115Y0046282D01*
X0129348Y0047050D01*
X0129348Y0048584D01*
X0130115Y0049352D01*
X0130882Y0049352D01*
X0131650Y0048584D01*
X0129348Y0048584D02*
X0128580Y0049352D01*
X0127813Y0049352D01*
X0127046Y0048584D01*
X0127046Y0047050D01*
X0127813Y0046282D01*
X0128580Y0046282D01*
X0129348Y0047050D01*
X0130115Y0044748D02*
X0130882Y0044748D01*
X0131650Y0043980D01*
X0131650Y0042446D01*
X0130882Y0041678D01*
X0129348Y0043213D02*
X0129348Y0043980D01*
X0130115Y0044748D01*
X0129348Y0043980D02*
X0128580Y0044748D01*
X0127813Y0044748D01*
X0127046Y0043980D01*
X0127046Y0042446D01*
X0127813Y0041678D01*
X0121650Y0043980D02*
X0117046Y0043980D01*
X0119348Y0041678D01*
X0119348Y0044748D01*
X0120882Y0046282D02*
X0117813Y0046282D01*
X0117046Y0047050D01*
X0117046Y0048584D01*
X0117813Y0049352D01*
X0120882Y0046282D01*
X0121650Y0047050D01*
X0121650Y0048584D01*
X0120882Y0049352D01*
X0117813Y0049352D01*
X0111650Y0049352D02*
X0111650Y0046282D01*
X0108580Y0049352D01*
X0107813Y0049352D01*
X0107046Y0048584D01*
X0107046Y0047050D01*
X0107813Y0046282D01*
X0109348Y0044748D02*
X0109348Y0041678D01*
X0107046Y0043980D01*
X0111650Y0043980D01*
X0101650Y0043980D02*
X0097046Y0043980D01*
X0099348Y0041678D01*
X0099348Y0044748D01*
X0099348Y0046282D02*
X0099348Y0049352D01*
X0101650Y0048584D02*
X0097046Y0048584D01*
X0099348Y0046282D01*
X0091650Y0047050D02*
X0091650Y0048584D01*
X0090882Y0049352D01*
X0090115Y0049352D01*
X0089348Y0048584D01*
X0089348Y0046282D01*
X0090882Y0046282D01*
X0091650Y0047050D01*
X0089348Y0046282D02*
X0087813Y0047817D01*
X0087046Y0049352D01*
X0089348Y0044748D02*
X0089348Y0041678D01*
X0087046Y0043980D01*
X0091650Y0043980D01*
X0081650Y0043980D02*
X0077046Y0043980D01*
X0079348Y0041678D01*
X0079348Y0044748D01*
X0080115Y0046282D02*
X0079348Y0047050D01*
X0079348Y0048584D01*
X0080115Y0049352D01*
X0080882Y0049352D01*
X0081650Y0048584D01*
X0081650Y0047050D01*
X0080882Y0046282D01*
X0080115Y0046282D01*
X0079348Y0047050D02*
X0078580Y0046282D01*
X0077813Y0046282D01*
X0077046Y0047050D01*
X0077046Y0048584D01*
X0077813Y0049352D01*
X0078580Y0049352D01*
X0079348Y0048584D01*
X0071650Y0048584D02*
X0071650Y0047050D01*
X0070882Y0046282D01*
X0067813Y0049352D01*
X0070882Y0049352D01*
X0071650Y0048584D01*
X0070882Y0046282D02*
X0067813Y0046282D01*
X0067046Y0047050D01*
X0067046Y0048584D01*
X0067813Y0049352D01*
X0067046Y0044748D02*
X0067046Y0041678D01*
X0069348Y0041678D01*
X0068580Y0043213D01*
X0068580Y0043980D01*
X0069348Y0044748D01*
X0070882Y0044748D01*
X0071650Y0043980D01*
X0071650Y0042446D01*
X0070882Y0041678D01*
X0061650Y0042446D02*
X0060882Y0041678D01*
X0061650Y0042446D02*
X0061650Y0043980D01*
X0060882Y0044748D01*
X0059348Y0044748D01*
X0058580Y0043980D01*
X0058580Y0043213D01*
X0059348Y0041678D01*
X0057046Y0041678D01*
X0057046Y0044748D01*
X0057813Y0046282D02*
X0057046Y0047050D01*
X0057046Y0048584D01*
X0057813Y0049352D01*
X0058580Y0049352D01*
X0061650Y0046282D01*
X0061650Y0049352D01*
X0051650Y0049352D02*
X0049348Y0049352D01*
X0048580Y0048584D01*
X0048580Y0046282D01*
X0051650Y0046282D01*
X0050882Y0044748D02*
X0049348Y0044748D01*
X0049348Y0043213D01*
X0050882Y0041678D02*
X0051650Y0042446D01*
X0051650Y0043980D01*
X0050882Y0044748D01*
X0047813Y0044748D02*
X0047046Y0043980D01*
X0047046Y0042446D01*
X0047813Y0041678D01*
X0050882Y0041678D01*
X0050882Y0050886D02*
X0049348Y0050886D01*
X0048580Y0051654D01*
X0048580Y0053956D01*
X0047046Y0053956D02*
X0051650Y0053956D01*
X0051650Y0051654D01*
X0050882Y0050886D01*
X0051650Y0015144D02*
X0047046Y0015144D01*
X0048580Y0015144D02*
X0048580Y0012842D01*
X0049348Y0012075D01*
X0050882Y0012075D01*
X0051650Y0012842D01*
X0051650Y0015144D01*
X0051650Y0010540D02*
X0049348Y0010540D01*
X0048580Y0009773D01*
X0048580Y0007471D01*
X0051650Y0007471D01*
X0050882Y0005936D02*
X0049348Y0005936D01*
X0049348Y0004401D01*
X0050882Y0002867D02*
X0051650Y0003634D01*
X0051650Y0005169D01*
X0050882Y0005936D01*
X0047813Y0005936D02*
X0047046Y0005169D01*
X0047046Y0003634D01*
X0047813Y0002867D01*
X0050882Y0002867D01*
X0057046Y0007471D02*
X0057046Y0010540D01*
X0057813Y0012075D02*
X0057046Y0012842D01*
X0057046Y0014376D01*
X0057813Y0015144D01*
X0058580Y0015144D01*
X0059348Y0014376D01*
X0060115Y0015144D01*
X0060882Y0015144D01*
X0061650Y0014376D01*
X0061650Y0012842D01*
X0060882Y0012075D01*
X0060882Y0010540D02*
X0061650Y0009773D01*
X0061650Y0008238D01*
X0060882Y0007471D01*
X0059348Y0007471D02*
X0058580Y0009005D01*
X0058580Y0009773D01*
X0059348Y0010540D01*
X0060882Y0010540D01*
X0059348Y0013609D02*
X0059348Y0014376D01*
X0059348Y0007471D02*
X0057046Y0007471D01*
X0067046Y0007471D02*
X0069348Y0007471D01*
X0068580Y0009005D01*
X0068580Y0009773D01*
X0069348Y0010540D01*
X0070882Y0010540D01*
X0071650Y0009773D01*
X0071650Y0008238D01*
X0070882Y0007471D01*
X0071650Y0012075D02*
X0071650Y0015144D01*
X0071650Y0013609D02*
X0067046Y0013609D01*
X0068580Y0012075D01*
X0067046Y0010540D02*
X0067046Y0007471D01*
X0077046Y0009773D02*
X0079348Y0007471D01*
X0079348Y0010540D01*
X0078580Y0012075D02*
X0079348Y0012842D01*
X0079348Y0015144D01*
X0080882Y0015144D02*
X0077813Y0015144D01*
X0077046Y0014376D01*
X0077046Y0012842D01*
X0077813Y0012075D01*
X0078580Y0012075D01*
X0080882Y0012075D02*
X0081650Y0012842D01*
X0081650Y0014376D01*
X0080882Y0015144D01*
X0081650Y0009773D02*
X0077046Y0009773D01*
X0087046Y0009773D02*
X0089348Y0007471D01*
X0089348Y0010540D01*
X0090882Y0012075D02*
X0087813Y0015144D01*
X0087046Y0015144D01*
X0087046Y0012075D01*
X0087046Y0009773D02*
X0091650Y0009773D01*
X0091650Y0012075D02*
X0090882Y0012075D01*
X0097046Y0012075D02*
X0099348Y0012075D01*
X0098580Y0013609D01*
X0098580Y0014376D01*
X0099348Y0015144D01*
X0100882Y0015144D01*
X0101650Y0014376D01*
X0101650Y0012842D01*
X0100882Y0012075D01*
X0099348Y0010540D02*
X0099348Y0007471D01*
X0097046Y0009773D01*
X0101650Y0009773D01*
X0097046Y0012075D02*
X0097046Y0015144D01*
X0107046Y0014376D02*
X0107046Y0012842D01*
X0107813Y0012075D01*
X0109348Y0013609D02*
X0109348Y0014376D01*
X0110115Y0015144D01*
X0110882Y0015144D01*
X0111650Y0014376D01*
X0111650Y0012842D01*
X0110882Y0012075D01*
X0109348Y0010540D02*
X0109348Y0007471D01*
X0107046Y0009773D01*
X0111650Y0009773D01*
X0109348Y0014376D02*
X0108580Y0015144D01*
X0107813Y0015144D01*
X0107046Y0014376D01*
X0117046Y0013609D02*
X0121650Y0013609D01*
X0121650Y0012075D02*
X0121650Y0015144D01*
X0119348Y0010540D02*
X0119348Y0007471D01*
X0117046Y0009773D01*
X0121650Y0009773D01*
X0118580Y0012075D02*
X0117046Y0013609D01*
X0127046Y0012842D02*
X0127813Y0012075D01*
X0128580Y0012075D01*
X0129348Y0012842D01*
X0129348Y0015144D01*
X0130882Y0015144D02*
X0127813Y0015144D01*
X0127046Y0014376D01*
X0127046Y0012842D01*
X0127813Y0010540D02*
X0128580Y0010540D01*
X0129348Y0009773D01*
X0130115Y0010540D01*
X0130882Y0010540D01*
X0131650Y0009773D01*
X0131650Y0008238D01*
X0130882Y0007471D01*
X0129348Y0009005D02*
X0129348Y0009773D01*
X0127813Y0010540D02*
X0127046Y0009773D01*
X0127046Y0008238D01*
X0127813Y0007471D01*
X0130882Y0012075D02*
X0131650Y0012842D01*
X0131650Y0014376D01*
X0130882Y0015144D01*
X0137046Y0015144D02*
X0137046Y0012075D01*
X0137813Y0010540D02*
X0137046Y0009773D01*
X0137046Y0008238D01*
X0137813Y0007471D01*
X0139348Y0009005D02*
X0139348Y0009773D01*
X0140115Y0010540D01*
X0140882Y0010540D01*
X0141650Y0009773D01*
X0141650Y0008238D01*
X0140882Y0007471D01*
X0139348Y0009773D02*
X0138580Y0010540D01*
X0137813Y0010540D01*
X0140882Y0012075D02*
X0137813Y0015144D01*
X0137046Y0015144D01*
X0140882Y0012075D02*
X0141650Y0012075D01*
X0147046Y0012075D02*
X0149348Y0012075D01*
X0148580Y0013609D01*
X0148580Y0014376D01*
X0149348Y0015144D01*
X0150882Y0015144D01*
X0151650Y0014376D01*
X0151650Y0012842D01*
X0150882Y0012075D01*
X0150882Y0010540D02*
X0151650Y0009773D01*
X0151650Y0008238D01*
X0150882Y0007471D01*
X0149348Y0009005D02*
X0149348Y0009773D01*
X0150115Y0010540D01*
X0150882Y0010540D01*
X0149348Y0009773D02*
X0148580Y0010540D01*
X0147813Y0010540D01*
X0147046Y0009773D01*
X0147046Y0008238D01*
X0147813Y0007471D01*
X0147046Y0012075D02*
X0147046Y0015144D01*
X0157046Y0014376D02*
X0157046Y0012842D01*
X0157813Y0012075D01*
X0157813Y0010540D02*
X0158580Y0010540D01*
X0159348Y0009773D01*
X0160115Y0010540D01*
X0160882Y0010540D01*
X0161650Y0009773D01*
X0161650Y0008238D01*
X0160882Y0007471D01*
X0159348Y0009005D02*
X0159348Y0009773D01*
X0157813Y0010540D02*
X0157046Y0009773D01*
X0157046Y0008238D01*
X0157813Y0007471D01*
X0160882Y0012075D02*
X0161650Y0012842D01*
X0161650Y0014376D01*
X0160882Y0015144D01*
X0160115Y0015144D01*
X0159348Y0014376D01*
X0159348Y0013609D01*
X0159348Y0014376D02*
X0158580Y0015144D01*
X0157813Y0015144D01*
X0157046Y0014376D01*
X0167046Y0013609D02*
X0171650Y0013609D01*
X0171650Y0012075D02*
X0171650Y0015144D01*
X0168580Y0012075D02*
X0167046Y0013609D01*
X0167813Y0010540D02*
X0168580Y0010540D01*
X0169348Y0009773D01*
X0170115Y0010540D01*
X0170882Y0010540D01*
X0171650Y0009773D01*
X0171650Y0008238D01*
X0170882Y0007471D01*
X0169348Y0009005D02*
X0169348Y0009773D01*
X0167813Y0010540D02*
X0167046Y0009773D01*
X0167046Y0008238D01*
X0167813Y0007471D01*
X0177046Y0008238D02*
X0177813Y0007471D01*
X0177046Y0008238D02*
X0177046Y0009773D01*
X0177813Y0010540D01*
X0178580Y0010540D01*
X0181650Y0007471D01*
X0181650Y0010540D01*
X0180882Y0012075D02*
X0181650Y0012842D01*
X0181650Y0014376D01*
X0180882Y0015144D01*
X0177813Y0015144D01*
X0177046Y0014376D01*
X0177046Y0012842D01*
X0177813Y0012075D01*
X0178580Y0012075D01*
X0179348Y0012842D01*
X0179348Y0015144D01*
X0187046Y0015144D02*
X0187046Y0012075D01*
X0187813Y0010540D02*
X0187046Y0009773D01*
X0187046Y0008238D01*
X0187813Y0007471D01*
X0187813Y0010540D02*
X0188580Y0010540D01*
X0191650Y0007471D01*
X0191650Y0010540D01*
X0191650Y0012075D02*
X0190882Y0012075D01*
X0187813Y0015144D01*
X0187046Y0015144D01*
X0197046Y0015144D02*
X0197046Y0012075D01*
X0199348Y0012075D01*
X0198580Y0013609D01*
X0198580Y0014376D01*
X0199348Y0015144D01*
X0200882Y0015144D01*
X0201650Y0014376D01*
X0201650Y0012842D01*
X0200882Y0012075D01*
X0201650Y0010540D02*
X0201650Y0007471D01*
X0198580Y0010540D01*
X0197813Y0010540D01*
X0197046Y0009773D01*
X0197046Y0008238D01*
X0197813Y0007471D01*
X0207046Y0008238D02*
X0207813Y0007471D01*
X0207046Y0008238D02*
X0207046Y0009773D01*
X0207813Y0010540D01*
X0208580Y0010540D01*
X0211650Y0007471D01*
X0211650Y0010540D01*
X0210882Y0012075D02*
X0211650Y0012842D01*
X0211650Y0014376D01*
X0210882Y0015144D01*
X0210115Y0015144D01*
X0209348Y0014376D01*
X0209348Y0013609D01*
X0209348Y0014376D02*
X0208580Y0015144D01*
X0207813Y0015144D01*
X0207046Y0014376D01*
X0207046Y0012842D01*
X0207813Y0012075D01*
X0217046Y0010540D02*
X0217046Y0007471D01*
X0219348Y0007471D01*
X0218580Y0009005D01*
X0218580Y0009773D01*
X0219348Y0010540D01*
X0220882Y0010540D01*
X0221650Y0009773D01*
X0221650Y0008238D01*
X0220882Y0007471D01*
X0218580Y0012075D02*
X0221650Y0013609D01*
X0218580Y0015144D01*
X0227050Y0151678D02*
X0227050Y0156282D01*
X0229352Y0156282D01*
X0230119Y0155515D01*
X0230119Y0153980D01*
X0229352Y0153213D01*
X0227050Y0153213D01*
X0228584Y0153213D02*
X0230119Y0151678D01*
X0231654Y0151678D02*
X0234723Y0154748D01*
X0236258Y0155515D02*
X0237025Y0156282D01*
X0238560Y0156282D01*
X0239327Y0155515D01*
X0236258Y0152446D01*
X0237025Y0151678D01*
X0238560Y0151678D01*
X0239327Y0152446D01*
X0239327Y0155515D01*
X0236258Y0155515D02*
X0236258Y0152446D01*
X0234723Y0151678D02*
X0231654Y0154748D01*
X0231654Y0161678D02*
X0234723Y0164748D01*
X0236258Y0165515D02*
X0236258Y0162446D01*
X0239327Y0165515D01*
X0239327Y0162446D01*
X0238560Y0161678D01*
X0237025Y0161678D01*
X0236258Y0162446D01*
X0234723Y0161678D02*
X0231654Y0164748D01*
X0230119Y0166282D02*
X0227050Y0166282D01*
X0228584Y0166282D02*
X0228584Y0161678D01*
X0236258Y0165515D02*
X0237025Y0166282D01*
X0238560Y0166282D01*
X0239327Y0165515D01*
X0230119Y0171678D02*
X0227050Y0171678D01*
X0230119Y0174748D01*
X0230119Y0175515D01*
X0229352Y0176282D01*
X0227817Y0176282D01*
X0227050Y0175515D01*
X0227817Y0181678D02*
X0227050Y0182446D01*
X0227817Y0181678D02*
X0229352Y0181678D01*
X0230119Y0182446D01*
X0230119Y0183213D01*
X0229352Y0183980D01*
X0228584Y0183980D01*
X0229352Y0183980D02*
X0230119Y0184748D01*
X0230119Y0185515D01*
X0229352Y0186282D01*
X0227817Y0186282D01*
X0227050Y0185515D01*
X0229352Y0191678D02*
X0229352Y0196282D01*
X0227050Y0193980D01*
X0230119Y0193980D01*
X0229352Y0201678D02*
X0227817Y0201678D01*
X0227050Y0202446D01*
X0227050Y0203980D02*
X0228584Y0204748D01*
X0229352Y0204748D01*
X0230119Y0203980D01*
X0230119Y0202446D01*
X0229352Y0201678D01*
X0227050Y0203980D02*
X0227050Y0206282D01*
X0230119Y0206282D01*
X0229352Y0211678D02*
X0230119Y0212446D01*
X0230119Y0213213D01*
X0229352Y0213980D01*
X0227050Y0213980D01*
X0227050Y0212446D01*
X0227817Y0211678D01*
X0229352Y0211678D01*
X0227050Y0213980D02*
X0228584Y0215515D01*
X0230119Y0216282D01*
X0227050Y0221678D02*
X0227050Y0222446D01*
X0230119Y0225515D01*
X0230119Y0226282D01*
X0227050Y0226282D01*
X0227817Y0236678D02*
X0227050Y0237446D01*
X0227050Y0238213D01*
X0227817Y0238980D01*
X0229352Y0238980D01*
X0230119Y0238213D01*
X0230119Y0237446D01*
X0229352Y0236678D01*
X0227817Y0236678D01*
X0227817Y0238980D02*
X0227050Y0239748D01*
X0227050Y0240515D01*
X0227817Y0241282D01*
X0229352Y0241282D01*
X0230119Y0240515D01*
X0230119Y0239748D01*
X0229352Y0238980D01*
X0229352Y0246678D02*
X0230119Y0247446D01*
X0230119Y0250515D01*
X0229352Y0251282D01*
X0227817Y0251282D01*
X0227050Y0250515D01*
X0227050Y0249748D01*
X0227817Y0248980D01*
X0230119Y0248980D01*
X0229352Y0246678D02*
X0227817Y0246678D01*
X0227050Y0247446D01*
X0227050Y0256678D02*
X0230119Y0256678D01*
X0228584Y0256678D02*
X0228584Y0261282D01*
X0227050Y0259748D01*
X0231654Y0260515D02*
X0231654Y0257446D01*
X0234723Y0260515D01*
X0234723Y0257446D01*
X0233956Y0256678D01*
X0232421Y0256678D01*
X0231654Y0257446D01*
X0231654Y0260515D02*
X0232421Y0261282D01*
X0233956Y0261282D01*
X0234723Y0260515D01*
X0234723Y0266678D02*
X0231654Y0266678D01*
X0233188Y0266678D02*
X0233188Y0271282D01*
X0231654Y0269748D01*
X0228584Y0271282D02*
X0228584Y0266678D01*
X0227050Y0266678D02*
X0230119Y0266678D01*
X0227050Y0269748D02*
X0228584Y0271282D01*
X0228584Y0276678D02*
X0228584Y0281282D01*
X0227050Y0279748D01*
X0227050Y0276678D02*
X0230119Y0276678D01*
X0231654Y0276678D02*
X0234723Y0279748D01*
X0234723Y0280515D01*
X0233956Y0281282D01*
X0232421Y0281282D01*
X0231654Y0280515D01*
X0231654Y0276678D02*
X0234723Y0276678D01*
X0233956Y0286678D02*
X0232421Y0286678D01*
X0231654Y0287446D01*
X0230119Y0286678D02*
X0227050Y0286678D01*
X0228584Y0286678D02*
X0228584Y0291282D01*
X0227050Y0289748D01*
X0231654Y0290515D02*
X0232421Y0291282D01*
X0233956Y0291282D01*
X0234723Y0290515D01*
X0234723Y0289748D01*
X0233956Y0288980D01*
X0234723Y0288213D01*
X0234723Y0287446D01*
X0233956Y0286678D01*
X0233956Y0288980D02*
X0233188Y0288980D01*
X0231654Y0296678D02*
X0231654Y0299748D01*
X0233956Y0299748D01*
X0234723Y0298980D01*
X0234723Y0296678D01*
X0236258Y0297446D02*
X0236258Y0298980D01*
X0237025Y0299748D01*
X0239327Y0299748D01*
X0239327Y0301282D02*
X0239327Y0296678D01*
X0237025Y0296678D01*
X0236258Y0297446D01*
X0236258Y0306678D02*
X0235490Y0307446D01*
X0235490Y0308980D01*
X0236258Y0309748D01*
X0237792Y0309748D01*
X0238560Y0308980D01*
X0238560Y0308213D01*
X0235490Y0308213D01*
X0236258Y0306678D02*
X0237792Y0306678D01*
X0240094Y0308980D02*
X0241629Y0308980D01*
X0240861Y0310515D02*
X0241629Y0311282D01*
X0240861Y0310515D02*
X0240861Y0306678D01*
X0233956Y0309748D02*
X0233188Y0309748D01*
X0231654Y0308213D01*
X0231654Y0306678D02*
X0231654Y0309748D01*
X0230119Y0309748D02*
X0230119Y0306678D01*
X0230119Y0308980D02*
X0227050Y0308980D01*
X0227050Y0309748D02*
X0228584Y0311282D01*
X0230119Y0309748D01*
X0227050Y0309748D02*
X0227050Y0306678D01*
X0227817Y0301282D02*
X0227050Y0300515D01*
X0227050Y0297446D01*
X0227817Y0296678D01*
X0229352Y0296678D01*
X0230119Y0297446D01*
X0230119Y0298980D01*
X0228584Y0298980D01*
X0230119Y0300515D02*
X0229352Y0301282D01*
X0227817Y0301282D01*
X0020515Y0274748D02*
X0018980Y0274748D01*
X0019748Y0275515D02*
X0019748Y0272446D01*
X0020515Y0271678D01*
X0017446Y0272446D02*
X0016678Y0273213D01*
X0015144Y0273213D01*
X0014376Y0273980D01*
X0015144Y0274748D01*
X0017446Y0274748D01*
X0017446Y0272446D02*
X0016678Y0271678D01*
X0014376Y0271678D01*
X0012842Y0271678D02*
X0011307Y0273213D01*
X0012075Y0273213D02*
X0009773Y0273213D01*
X0009773Y0271678D02*
X0009773Y0276282D01*
X0012075Y0276282D01*
X0012842Y0275515D01*
X0012842Y0273980D01*
X0012075Y0273213D01*
X0010540Y0266282D02*
X0009005Y0266282D01*
X0008238Y0265515D01*
X0009773Y0263980D02*
X0010540Y0263980D01*
X0011307Y0263213D01*
X0011307Y0262446D01*
X0010540Y0261678D01*
X0009005Y0261678D01*
X0008238Y0262446D01*
X0010540Y0263980D02*
X0011307Y0264748D01*
X0011307Y0265515D01*
X0010540Y0266282D01*
X0012842Y0264748D02*
X0014376Y0261678D01*
X0015911Y0264748D01*
X0017446Y0265515D02*
X0018213Y0266282D01*
X0019748Y0266282D01*
X0020515Y0265515D01*
X0020515Y0264748D01*
X0019748Y0263980D01*
X0020515Y0263213D01*
X0020515Y0262446D01*
X0019748Y0261678D01*
X0018213Y0261678D01*
X0017446Y0262446D01*
X0018980Y0263980D02*
X0019748Y0263980D01*
X0015911Y0256282D02*
X0012842Y0256282D01*
X0012842Y0253980D01*
X0014376Y0254748D01*
X0015144Y0254748D01*
X0015911Y0253980D01*
X0015911Y0252446D01*
X0015144Y0251678D01*
X0013609Y0251678D01*
X0012842Y0252446D01*
X0017446Y0254748D02*
X0018980Y0251678D01*
X0020515Y0254748D01*
X0020515Y0246282D02*
X0020515Y0241678D01*
X0018213Y0241678D01*
X0017446Y0242446D01*
X0017446Y0243980D01*
X0018213Y0244748D01*
X0020515Y0244748D01*
X0015911Y0243980D02*
X0015911Y0241678D01*
X0015911Y0243980D02*
X0015144Y0244748D01*
X0012842Y0244748D01*
X0012842Y0241678D01*
X0011307Y0242446D02*
X0010540Y0241678D01*
X0009005Y0241678D01*
X0008238Y0242446D01*
X0008238Y0245515D01*
X0009005Y0246282D01*
X0010540Y0246282D01*
X0011307Y0245515D01*
X0011307Y0243980D02*
X0009773Y0243980D01*
X0011307Y0243980D02*
X0011307Y0242446D01*
X0010540Y0236282D02*
X0009005Y0236282D01*
X0008238Y0235515D01*
X0008238Y0232446D01*
X0009005Y0231678D01*
X0010540Y0231678D01*
X0011307Y0232446D01*
X0011307Y0233980D01*
X0009773Y0233980D01*
X0011307Y0235515D02*
X0010540Y0236282D01*
X0012842Y0234748D02*
X0015144Y0234748D01*
X0015911Y0233980D01*
X0015911Y0231678D01*
X0017446Y0232446D02*
X0017446Y0233980D01*
X0018213Y0234748D01*
X0020515Y0234748D01*
X0020515Y0236282D02*
X0020515Y0231678D01*
X0018213Y0231678D01*
X0017446Y0232446D01*
X0012842Y0231678D02*
X0012842Y0234748D01*
X0015144Y0227050D02*
X0015144Y0226282D01*
X0015144Y0224748D02*
X0015144Y0221678D01*
X0015911Y0221678D02*
X0014376Y0221678D01*
X0012842Y0223213D02*
X0012842Y0226282D01*
X0014376Y0224748D02*
X0015144Y0224748D01*
X0017446Y0224748D02*
X0019748Y0224748D01*
X0020515Y0223980D01*
X0020515Y0221678D01*
X0017446Y0221678D02*
X0017446Y0224748D01*
X0012842Y0223213D02*
X0011307Y0221678D01*
X0009773Y0223213D01*
X0009773Y0226282D01*
X0014376Y0206282D02*
X0012842Y0204748D01*
X0012842Y0201678D01*
X0012842Y0203980D02*
X0015911Y0203980D01*
X0015911Y0204748D02*
X0015911Y0201678D01*
X0017446Y0202446D02*
X0020515Y0205515D01*
X0020515Y0202446D01*
X0019748Y0201678D01*
X0018213Y0201678D01*
X0017446Y0202446D01*
X0017446Y0205515D01*
X0018213Y0206282D01*
X0019748Y0206282D01*
X0020515Y0205515D01*
X0015911Y0204748D02*
X0014376Y0206282D01*
X0014376Y0196282D02*
X0012842Y0194748D01*
X0012842Y0191678D01*
X0012842Y0193980D02*
X0015911Y0193980D01*
X0015911Y0194748D02*
X0015911Y0191678D01*
X0017446Y0191678D02*
X0020515Y0191678D01*
X0018980Y0191678D02*
X0018980Y0196282D01*
X0017446Y0194748D01*
X0015911Y0194748D02*
X0014376Y0196282D01*
X0014376Y0186282D02*
X0012842Y0184748D01*
X0012842Y0181678D01*
X0012842Y0183980D02*
X0015911Y0183980D01*
X0015911Y0184748D02*
X0015911Y0181678D01*
X0017446Y0181678D02*
X0020515Y0184748D01*
X0020515Y0185515D01*
X0019748Y0186282D01*
X0018213Y0186282D01*
X0017446Y0185515D01*
X0015911Y0184748D02*
X0014376Y0186282D01*
X0017446Y0181678D02*
X0020515Y0181678D01*
X0019748Y0176282D02*
X0020515Y0175515D01*
X0020515Y0174748D01*
X0019748Y0173980D01*
X0020515Y0173213D01*
X0020515Y0172446D01*
X0019748Y0171678D01*
X0018213Y0171678D01*
X0017446Y0172446D01*
X0015911Y0171678D02*
X0015911Y0174748D01*
X0014376Y0176282D01*
X0012842Y0174748D01*
X0012842Y0171678D01*
X0012842Y0173980D02*
X0015911Y0173980D01*
X0017446Y0175515D02*
X0018213Y0176282D01*
X0019748Y0176282D01*
X0019748Y0173980D02*
X0018980Y0173980D01*
X0019748Y0166282D02*
X0017446Y0163980D01*
X0020515Y0163980D01*
X0019748Y0161678D02*
X0019748Y0166282D01*
X0015911Y0164748D02*
X0015911Y0161678D01*
X0015911Y0163980D02*
X0012842Y0163980D01*
X0012842Y0164748D02*
X0014376Y0166282D01*
X0015911Y0164748D01*
X0012842Y0164748D02*
X0012842Y0161678D01*
X0014376Y0156282D02*
X0015911Y0154748D01*
X0015911Y0151678D01*
X0017446Y0152446D02*
X0018213Y0151678D01*
X0019748Y0151678D01*
X0020515Y0152446D01*
X0020515Y0153980D01*
X0019748Y0154748D01*
X0018980Y0154748D01*
X0017446Y0153980D01*
X0017446Y0156282D01*
X0020515Y0156282D01*
X0015911Y0153980D02*
X0012842Y0153980D01*
X0012842Y0154748D02*
X0014376Y0156282D01*
X0012842Y0154748D02*
X0012842Y0151678D01*
X0014376Y0146282D02*
X0015911Y0144748D01*
X0015911Y0141678D01*
X0017446Y0142446D02*
X0018213Y0141678D01*
X0019748Y0141678D01*
X0020515Y0142446D01*
X0020515Y0143213D01*
X0019748Y0143980D01*
X0017446Y0143980D01*
X0017446Y0142446D01*
X0017446Y0143980D02*
X0018980Y0145515D01*
X0020515Y0146282D01*
X0015911Y0143980D02*
X0012842Y0143980D01*
X0012842Y0144748D02*
X0014376Y0146282D01*
X0012842Y0144748D02*
X0012842Y0141678D01*
X0014376Y0136282D02*
X0015911Y0134748D01*
X0015911Y0131678D01*
X0017446Y0131678D02*
X0017446Y0132446D01*
X0020515Y0135515D01*
X0020515Y0136282D01*
X0017446Y0136282D01*
X0015911Y0133980D02*
X0012842Y0133980D01*
X0012842Y0134748D02*
X0014376Y0136282D01*
X0012842Y0134748D02*
X0012842Y0131678D01*
X0014376Y0116282D02*
X0012842Y0114748D01*
X0012842Y0111678D01*
X0012842Y0113980D02*
X0015911Y0113980D01*
X0015911Y0114748D02*
X0015911Y0111678D01*
X0017446Y0112446D02*
X0017446Y0113213D01*
X0018213Y0113980D01*
X0019748Y0113980D01*
X0020515Y0113213D01*
X0020515Y0112446D01*
X0019748Y0111678D01*
X0018213Y0111678D01*
X0017446Y0112446D01*
X0018213Y0113980D02*
X0017446Y0114748D01*
X0017446Y0115515D01*
X0018213Y0116282D01*
X0019748Y0116282D01*
X0020515Y0115515D01*
X0020515Y0114748D01*
X0019748Y0113980D01*
X0015911Y0114748D02*
X0014376Y0116282D01*
X0014376Y0106282D02*
X0012842Y0104748D01*
X0012842Y0101678D01*
X0012842Y0103980D02*
X0015911Y0103980D01*
X0015911Y0104748D02*
X0015911Y0101678D01*
X0017446Y0102446D02*
X0018213Y0101678D01*
X0019748Y0101678D01*
X0020515Y0102446D01*
X0020515Y0105515D01*
X0019748Y0106282D01*
X0018213Y0106282D01*
X0017446Y0105515D01*
X0017446Y0104748D01*
X0018213Y0103980D01*
X0020515Y0103980D01*
X0015911Y0104748D02*
X0014376Y0106282D01*
X0014376Y0096282D02*
X0012842Y0094748D01*
X0011307Y0094748D02*
X0011307Y0091678D01*
X0012842Y0091678D02*
X0015911Y0091678D01*
X0014376Y0091678D02*
X0014376Y0096282D01*
X0017446Y0095515D02*
X0017446Y0092446D01*
X0020515Y0095515D01*
X0020515Y0092446D01*
X0019748Y0091678D01*
X0018213Y0091678D01*
X0017446Y0092446D01*
X0017446Y0095515D02*
X0018213Y0096282D01*
X0019748Y0096282D01*
X0020515Y0095515D01*
X0011307Y0094748D02*
X0009773Y0096282D01*
X0008238Y0094748D01*
X0008238Y0091678D01*
X0008238Y0093980D02*
X0011307Y0093980D01*
X0009773Y0086282D02*
X0011307Y0084748D01*
X0011307Y0081678D01*
X0012842Y0081678D02*
X0015911Y0081678D01*
X0014376Y0081678D02*
X0014376Y0086282D01*
X0012842Y0084748D01*
X0011307Y0083980D02*
X0008238Y0083980D01*
X0008238Y0084748D02*
X0009773Y0086282D01*
X0008238Y0084748D02*
X0008238Y0081678D01*
X0009773Y0076282D02*
X0011307Y0074748D01*
X0011307Y0071678D01*
X0012842Y0072446D02*
X0013609Y0071678D01*
X0015144Y0071678D01*
X0015911Y0072446D01*
X0017446Y0072446D02*
X0020515Y0075515D01*
X0020515Y0072446D01*
X0019748Y0071678D01*
X0018213Y0071678D01*
X0017446Y0072446D01*
X0017446Y0075515D01*
X0018213Y0076282D01*
X0019748Y0076282D01*
X0020515Y0075515D01*
X0015911Y0075515D02*
X0015144Y0076282D01*
X0013609Y0076282D01*
X0012842Y0075515D01*
X0012842Y0072446D01*
X0011307Y0073980D02*
X0008238Y0073980D01*
X0008238Y0074748D02*
X0009773Y0076282D01*
X0008238Y0074748D02*
X0008238Y0071678D01*
X0006703Y0072446D02*
X0006703Y0075515D01*
X0005936Y0076282D01*
X0003634Y0076282D01*
X0003634Y0071678D01*
X0005936Y0071678D01*
X0006703Y0072446D01*
X0005936Y0066282D02*
X0003634Y0066282D01*
X0003634Y0061678D01*
X0005936Y0061678D01*
X0006703Y0062446D01*
X0006703Y0065515D01*
X0005936Y0066282D01*
X0008238Y0064748D02*
X0009773Y0066282D01*
X0011307Y0064748D01*
X0011307Y0061678D01*
X0012842Y0062446D02*
X0013609Y0061678D01*
X0015144Y0061678D01*
X0015911Y0062446D01*
X0017446Y0061678D02*
X0020515Y0061678D01*
X0018980Y0061678D02*
X0018980Y0066282D01*
X0017446Y0064748D01*
X0015911Y0065515D02*
X0015144Y0066282D01*
X0013609Y0066282D01*
X0012842Y0065515D01*
X0012842Y0062446D01*
X0011307Y0063980D02*
X0008238Y0063980D01*
X0008238Y0064748D02*
X0008238Y0061678D01*
X0012842Y0056282D02*
X0015144Y0056282D01*
X0015911Y0055515D01*
X0015911Y0053980D01*
X0015144Y0053213D01*
X0012842Y0053213D01*
X0014376Y0053213D02*
X0015911Y0051678D01*
X0017446Y0051678D02*
X0020515Y0056282D01*
X0017446Y0056282D02*
X0020515Y0051678D01*
X0020515Y0046282D02*
X0017446Y0041678D01*
X0020515Y0041678D02*
X0017446Y0046282D01*
X0015911Y0046282D02*
X0012842Y0046282D01*
X0014376Y0046282D02*
X0014376Y0041678D01*
X0011307Y0041678D02*
X0011307Y0043980D01*
X0010540Y0044748D01*
X0008238Y0044748D01*
X0008238Y0041678D01*
X0006703Y0041678D02*
X0004401Y0041678D01*
X0003634Y0042446D01*
X0003634Y0043980D01*
X0004401Y0044748D01*
X0006703Y0044748D01*
X0006703Y0051678D02*
X0004401Y0051678D01*
X0003634Y0052446D01*
X0003634Y0053980D01*
X0004401Y0054748D01*
X0006703Y0054748D01*
X0008238Y0054748D02*
X0008238Y0051678D01*
X0011307Y0051678D02*
X0011307Y0053980D01*
X0010540Y0054748D01*
X0008238Y0054748D01*
X0012842Y0056282D02*
X0012842Y0051678D01*
X0017446Y0081678D02*
X0020515Y0081678D01*
X0018980Y0081678D02*
X0018980Y0086282D01*
X0017446Y0084748D01*
D18*
X0029350Y0083978D03*
X0029350Y0073978D03*
X0029350Y0063978D03*
X0029350Y0053978D03*
X0029350Y0043978D03*
X0049350Y0033978D03*
X0049350Y0023978D03*
X0059350Y0023978D03*
X0059350Y0033978D03*
X0069350Y0033978D03*
X0069350Y0023978D03*
X0079350Y0023978D03*
X0079350Y0033978D03*
X0089350Y0033978D03*
X0089350Y0023978D03*
X0099350Y0023978D03*
X0099350Y0033978D03*
X0109350Y0033978D03*
X0109350Y0023978D03*
X0119350Y0023978D03*
X0119350Y0033978D03*
X0129350Y0033978D03*
X0129350Y0023978D03*
X0139350Y0023978D03*
X0139350Y0033978D03*
X0149350Y0033978D03*
X0149350Y0023978D03*
X0159350Y0023978D03*
X0159350Y0033978D03*
X0169350Y0033978D03*
X0169350Y0023978D03*
X0179350Y0023978D03*
X0179350Y0033978D03*
X0189350Y0033978D03*
X0189350Y0023978D03*
X0199350Y0023978D03*
X0209350Y0023978D03*
X0209350Y0033978D03*
X0199350Y0033978D03*
X0219350Y0033978D03*
X0219350Y0023978D03*
X0219350Y0063978D03*
X0219350Y0073978D03*
X0219350Y0083978D03*
X0219350Y0093978D03*
X0219350Y0103978D03*
X0219350Y0113978D03*
X0219350Y0113978D03*
X0219350Y0123978D03*
X0219350Y0133978D03*
X0219350Y0153978D03*
X0219350Y0163978D03*
X0219350Y0173978D03*
X0219350Y0183978D03*
X0219350Y0193978D03*
X0219350Y0203978D03*
X0219350Y0213978D03*
X0219350Y0223978D03*
X0219350Y0238978D03*
X0219350Y0248978D03*
X0219350Y0258978D03*
X0219350Y0268978D03*
X0219350Y0278978D03*
X0219350Y0288978D03*
X0219350Y0298978D03*
X0219350Y0308978D03*
X0219350Y0318978D03*
X0219350Y0328978D03*
X0194350Y0303978D03*
X0194350Y0293978D03*
X0194350Y0283978D03*
X0194350Y0273978D03*
X0139350Y0153978D03*
X0139350Y0143978D03*
X0129350Y0143978D03*
X0129350Y0153978D03*
X0119350Y0153978D03*
X0119350Y0143978D03*
X0029350Y0143978D03*
X0029350Y0133978D03*
X0029350Y0113978D03*
X0029350Y0103978D03*
X0029350Y0093978D03*
X0029350Y0153978D03*
X0029350Y0163978D03*
X0029350Y0173978D03*
X0029350Y0183978D03*
X0029350Y0193978D03*
X0029350Y0203978D03*
X0029350Y0223978D03*
X0029350Y0233978D03*
X0029350Y0243978D03*
X0029350Y0253978D03*
X0029350Y0263978D03*
X0029350Y0273978D03*
X0029350Y0283978D03*
X0029350Y0293978D03*
D19*
X0020498Y0286332D02*
X0019714Y0285548D01*
X0019714Y0281628D01*
X0018930Y0283980D02*
X0020498Y0283980D01*
X0017462Y0283980D02*
X0017462Y0283196D01*
X0014326Y0283196D01*
X0014326Y0282412D02*
X0014326Y0283980D01*
X0015110Y0284764D01*
X0016678Y0284764D01*
X0017462Y0283980D01*
X0016678Y0281628D02*
X0015110Y0281628D01*
X0014326Y0282412D01*
X0012842Y0284764D02*
X0012058Y0284764D01*
X0010490Y0283196D01*
X0010490Y0281628D02*
X0010490Y0284764D01*
X0009022Y0285548D02*
X0009022Y0282412D01*
X0008238Y0281628D01*
X0006670Y0281628D01*
X0005886Y0282412D01*
X0005886Y0285548D01*
X0006670Y0286332D01*
X0008238Y0286332D01*
X0009022Y0285548D01*
X0004385Y0286332D02*
X0002817Y0286332D01*
X0003601Y0286332D02*
X0003601Y0281628D01*
X0002817Y0281628D02*
X0004385Y0281628D01*
X0116996Y0183180D02*
X0116996Y0180044D01*
X0116996Y0178576D02*
X0116996Y0175440D01*
X0121700Y0175440D01*
X0121700Y0178576D01*
X0119348Y0177008D02*
X0119348Y0175440D01*
X0120132Y0173972D02*
X0120916Y0173972D01*
X0121700Y0173188D01*
X0121700Y0171620D01*
X0120916Y0170836D01*
X0121700Y0169368D02*
X0121700Y0166232D01*
X0116996Y0166232D01*
X0116996Y0169368D01*
X0117780Y0170836D02*
X0118564Y0170836D01*
X0119348Y0171620D01*
X0119348Y0173188D01*
X0120132Y0173972D01*
X0117780Y0173972D02*
X0116996Y0173188D01*
X0116996Y0171620D01*
X0117780Y0170836D01*
X0119348Y0167800D02*
X0119348Y0166232D01*
X0119348Y0164764D02*
X0117780Y0164764D01*
X0116996Y0163980D01*
X0116996Y0161628D01*
X0121700Y0161628D01*
X0120132Y0161628D02*
X0120132Y0163980D01*
X0119348Y0164764D01*
X0120132Y0163196D02*
X0121700Y0164764D01*
X0126996Y0163980D02*
X0126996Y0162412D01*
X0127780Y0161628D01*
X0128564Y0161628D01*
X0129348Y0162412D01*
X0129348Y0163980D01*
X0130132Y0164764D01*
X0130916Y0164764D01*
X0131700Y0163980D01*
X0131700Y0162412D01*
X0130916Y0161628D01*
X0127780Y0164764D02*
X0126996Y0163980D01*
X0127780Y0166232D02*
X0130916Y0166232D01*
X0131700Y0167016D01*
X0131700Y0168584D01*
X0130916Y0169368D01*
X0131700Y0170836D02*
X0126996Y0170836D01*
X0127780Y0169368D02*
X0126996Y0168584D01*
X0126996Y0167016D01*
X0127780Y0166232D01*
X0130132Y0170836D02*
X0126996Y0173972D01*
X0129348Y0171620D02*
X0131700Y0173972D01*
X0136996Y0174690D02*
X0137780Y0173906D01*
X0140916Y0173906D01*
X0141700Y0174690D01*
X0141700Y0176258D01*
X0140916Y0177042D01*
X0137780Y0177042D01*
X0136996Y0176258D01*
X0136996Y0174690D01*
X0137780Y0172438D02*
X0136996Y0171654D01*
X0136996Y0170086D01*
X0137780Y0169302D01*
X0138564Y0169302D01*
X0139348Y0170086D01*
X0139348Y0171654D01*
X0140132Y0172438D01*
X0140916Y0172438D01*
X0141700Y0171654D01*
X0141700Y0170086D01*
X0140916Y0169302D01*
X0141700Y0167800D02*
X0141700Y0166232D01*
X0141700Y0167016D02*
X0136996Y0167016D01*
X0136996Y0166232D02*
X0136996Y0167800D01*
X0136996Y0164764D02*
X0141700Y0164764D01*
X0141700Y0161628D02*
X0136996Y0161628D01*
X0138564Y0163196D01*
X0136996Y0164764D01*
X0121700Y0181612D02*
X0116996Y0181612D01*
X0117780Y0135161D02*
X0116996Y0134377D01*
X0116996Y0132025D01*
X0121700Y0132025D01*
X0121700Y0134377D01*
X0120916Y0135161D01*
X0117780Y0135161D01*
X0116996Y0130557D02*
X0121700Y0130557D01*
X0116996Y0127421D01*
X0121700Y0127421D01*
X0120916Y0125953D02*
X0121700Y0125169D01*
X0121700Y0123601D01*
X0120916Y0122817D01*
X0117780Y0122817D01*
X0116996Y0123601D01*
X0116996Y0125169D01*
X0117780Y0125953D01*
X0119348Y0125953D02*
X0119348Y0124385D01*
X0119348Y0125953D02*
X0120916Y0125953D01*
X0126996Y0126703D02*
X0127780Y0127487D01*
X0130916Y0127487D01*
X0131700Y0126703D01*
X0131700Y0125135D01*
X0130916Y0124351D01*
X0127780Y0124351D01*
X0126996Y0125135D01*
X0126996Y0126703D01*
X0127780Y0128955D02*
X0128564Y0128955D01*
X0129348Y0129739D01*
X0129348Y0131307D01*
X0130132Y0132091D01*
X0130916Y0132091D01*
X0131700Y0131307D01*
X0131700Y0129739D01*
X0130916Y0128955D01*
X0127780Y0128955D02*
X0126996Y0129739D01*
X0126996Y0131307D01*
X0127780Y0132091D01*
X0126996Y0133559D02*
X0126996Y0135127D01*
X0126996Y0134343D02*
X0131700Y0134343D01*
X0131700Y0133559D02*
X0131700Y0135127D01*
X0136996Y0135161D02*
X0140132Y0135161D01*
X0141700Y0133593D01*
X0140132Y0132025D01*
X0136996Y0132025D01*
X0136996Y0130557D02*
X0136996Y0127421D01*
X0139348Y0127421D01*
X0138564Y0128989D01*
X0138564Y0129773D01*
X0139348Y0130557D01*
X0140916Y0130557D01*
X0141700Y0129773D01*
X0141700Y0128205D01*
X0140916Y0127421D01*
X0131700Y0122883D02*
X0126996Y0122883D01*
X0128564Y0121315D01*
X0126996Y0119747D01*
X0131700Y0119747D01*
X0173972Y0271628D02*
X0173188Y0272412D01*
X0173188Y0275548D01*
X0173972Y0276332D01*
X0175540Y0276332D01*
X0176324Y0275548D01*
X0176324Y0273980D02*
X0174756Y0273980D01*
X0176324Y0273980D02*
X0176324Y0272412D01*
X0175540Y0271628D01*
X0173972Y0271628D01*
X0177792Y0271628D02*
X0177792Y0276332D01*
X0180928Y0271628D01*
X0180928Y0276332D01*
X0182396Y0276332D02*
X0182396Y0271628D01*
X0184748Y0271628D01*
X0185532Y0272412D01*
X0185532Y0275548D01*
X0184748Y0276332D01*
X0182396Y0276332D01*
X0182396Y0281628D02*
X0182396Y0286332D01*
X0183180Y0283980D02*
X0185532Y0281628D01*
X0182396Y0283196D02*
X0185532Y0286332D01*
X0184748Y0291628D02*
X0183180Y0291628D01*
X0182396Y0292412D01*
X0182396Y0295548D01*
X0183180Y0296332D01*
X0184748Y0296332D01*
X0185532Y0295548D01*
X0185532Y0292412D01*
X0184748Y0291628D01*
X0180894Y0291628D02*
X0179326Y0291628D01*
X0180110Y0291628D02*
X0180110Y0296332D01*
X0179326Y0296332D02*
X0180894Y0296332D01*
X0177859Y0295548D02*
X0177859Y0292412D01*
X0177075Y0291628D01*
X0174723Y0291628D01*
X0174723Y0296332D01*
X0177075Y0296332D01*
X0177859Y0295548D01*
X0173255Y0296332D02*
X0173255Y0291628D01*
X0171687Y0293196D01*
X0170119Y0291628D01*
X0170119Y0296332D01*
X0168651Y0295548D02*
X0167867Y0296332D01*
X0166299Y0296332D01*
X0165515Y0295548D01*
X0165515Y0294764D01*
X0166299Y0293980D01*
X0167867Y0293980D01*
X0168651Y0293196D01*
X0168651Y0292412D01*
X0167867Y0291628D01*
X0166299Y0291628D01*
X0165515Y0292412D01*
X0164764Y0286332D02*
X0163980Y0285548D01*
X0163980Y0284764D01*
X0164764Y0283980D01*
X0166332Y0283980D01*
X0167116Y0283196D01*
X0167116Y0282412D01*
X0166332Y0281628D01*
X0164764Y0281628D01*
X0163980Y0282412D01*
X0164764Y0286332D02*
X0166332Y0286332D01*
X0167116Y0285548D01*
X0168584Y0286332D02*
X0168584Y0281628D01*
X0170152Y0283196D01*
X0171720Y0281628D01*
X0171720Y0286332D01*
X0173188Y0285548D02*
X0173188Y0282412D01*
X0173972Y0281628D01*
X0175540Y0281628D01*
X0176324Y0282412D01*
X0177792Y0281628D02*
X0180928Y0281628D01*
X0177792Y0281628D02*
X0177792Y0286332D01*
X0176324Y0285548D02*
X0175540Y0286332D01*
X0173972Y0286332D01*
X0173188Y0285548D01*
X0173972Y0301628D02*
X0173188Y0302412D01*
X0173972Y0301628D02*
X0175540Y0301628D01*
X0176324Y0302412D01*
X0176324Y0303196D01*
X0175540Y0303980D01*
X0173972Y0303980D01*
X0173188Y0304764D01*
X0173188Y0305548D01*
X0173972Y0306332D01*
X0175540Y0306332D01*
X0176324Y0305548D01*
X0177792Y0306332D02*
X0177792Y0301628D01*
X0180928Y0301628D01*
X0179360Y0303980D02*
X0177792Y0303980D01*
X0177792Y0306332D02*
X0180928Y0306332D01*
X0182396Y0306332D02*
X0185532Y0306332D01*
X0183964Y0306332D02*
X0183964Y0301628D01*
X0171720Y0301628D02*
X0168584Y0301628D01*
X0168584Y0306332D01*
X0171720Y0306332D01*
X0170152Y0303980D02*
X0168584Y0303980D01*
X0167116Y0303980D02*
X0167116Y0305548D01*
X0166332Y0306332D01*
X0163980Y0306332D01*
X0163980Y0301628D01*
X0163980Y0303196D02*
X0166332Y0303196D01*
X0167116Y0303980D01*
X0165548Y0303196D02*
X0167116Y0301628D01*
X0227000Y0317412D02*
X0227784Y0316628D01*
X0229352Y0316628D01*
X0230136Y0317412D01*
X0230136Y0318196D01*
X0229352Y0318980D01*
X0227784Y0318980D01*
X0227000Y0319764D01*
X0227000Y0320548D01*
X0227784Y0321332D01*
X0229352Y0321332D01*
X0230136Y0320548D01*
X0231604Y0321332D02*
X0231604Y0316628D01*
X0233956Y0316628D01*
X0234740Y0317412D01*
X0234740Y0320548D01*
X0233956Y0321332D01*
X0231604Y0321332D01*
X0236208Y0319764D02*
X0236208Y0316628D01*
X0236208Y0318980D02*
X0239344Y0318980D01*
X0239344Y0319764D02*
X0239344Y0316628D01*
X0240811Y0316628D02*
X0243948Y0316628D01*
X0242379Y0316628D02*
X0242379Y0321332D01*
X0240811Y0319764D01*
X0239344Y0319764D02*
X0237776Y0321332D01*
X0236208Y0319764D01*
X0236208Y0326628D02*
X0239344Y0326628D01*
X0240811Y0326628D02*
X0243948Y0326628D01*
X0242379Y0326628D02*
X0242379Y0331332D01*
X0240811Y0329764D01*
X0236208Y0331332D02*
X0236208Y0326628D01*
X0234740Y0327412D02*
X0233956Y0326628D01*
X0232388Y0326628D01*
X0231604Y0327412D01*
X0231604Y0330548D01*
X0232388Y0331332D01*
X0233956Y0331332D01*
X0234740Y0330548D01*
X0230136Y0330548D02*
X0229352Y0331332D01*
X0227784Y0331332D01*
X0227000Y0330548D01*
X0227000Y0329764D01*
X0227784Y0328980D01*
X0229352Y0328980D01*
X0230136Y0328196D01*
X0230136Y0327412D01*
X0229352Y0326628D01*
X0227784Y0326628D01*
X0227000Y0327412D01*
M02*
