%
M48
M72
T01C0.02362
T02C0.02756
T03C0.03150
T04C0.03937
T05C0.05600
T06C0.11811
%
T01
X64350Y153978
X74350Y153978
X49350Y168978
X64350Y187728
X64350Y218978
X56225Y218978
X54350Y233978
X64350Y250541
X40287Y229291
X74350Y218978
X104037Y167728
X114350Y168978
X120287Y176478
X119350Y193978
X117475Y218353
X154350Y168978
X164350Y151478
X159350Y141478
X153100Y141166
X145912Y122728
X176850Y131478
X189350Y123978
X204350Y123978
X169350Y173978
X169350Y203978
X169350Y218978
X166850Y228978
X195912Y189603
X209350Y183978
X204350Y217416
X114350Y158978
T02
X119350Y153978
X119350Y143978
X129350Y143978
X139350Y143978
X139350Y153978
X129350Y153978
X179350Y193978
X179350Y213978
T03
X194350Y273978
X194350Y283978
X194350Y293978
X194350Y303978
X219350Y318978
X219350Y328978
X29350Y293978
X29350Y283978
T04
X29350Y43978
X29350Y53978
X29350Y63978
X29350Y73978
X29350Y83978
X29350Y93978
X29350Y103978
X29350Y113978
X29350Y133978
X29350Y143978
X29350Y153978
X29350Y163978
X29350Y173978
X29350Y183978
X29350Y193978
X29350Y203978
X29350Y223978
X29350Y233978
X29350Y243978
X29350Y253978
X29350Y263978
X29350Y273978
X49350Y33978
X49350Y23978
X59350Y23978
X59350Y33978
X69350Y33978
X69350Y23978
X79350Y23978
X79350Y33978
X89350Y33978
X89350Y23978
X99350Y23978
X99350Y33978
X109350Y33978
X109350Y23978
X119350Y23978
X119350Y33978
X129350Y33978
X129350Y23978
X139350Y23978
X139350Y33978
X149350Y33978
X149350Y23978
X159350Y23978
X159350Y33978
X169350Y33978
X169350Y23978
X179350Y23978
X179350Y33978
X189350Y33978
X189350Y23978
X199350Y23978
X209350Y23978
X209350Y33978
X199350Y33978
X219350Y33978
X219350Y23978
X219350Y63978
X219350Y73978
X219350Y83978
X219350Y93978
X219350Y103978
X219350Y113978
X219350Y123978
X219350Y133978
X219350Y153978
X219350Y163978
X219350Y173978
X219350Y183978
X219350Y193978
X219350Y203978
X219350Y213978
X219350Y223978
X219350Y238978
X219350Y248978
X219350Y258978
X219350Y268978
X219350Y278978
X219350Y288978
X219350Y298978
X219350Y308978
T05
X185100Y100678
X168600Y100678
X168600Y78978
X185100Y78978
T06
X176850Y50238
M30
