G04 EAGLE Gerber RS-274X export*
G75*
%MOMM*%
%FSLAX34Y34*%
%LPD*%
%INBottom Copper*%
%IPPOS*%
%AMOC8*
5,1,8,0,0,1.08239X$1,22.5*%
G01*
%ADD10C,3.375000*%
%ADD11C,1.950000*%
%ADD12C,2.100000*%
%ADD13C,2.865000*%
%ADD14C,1.308000*%
%ADD15C,1.800000*%
%ADD16C,1.676400*%
%ADD17C,0.400000*%
%ADD18C,0.406400*%
%ADD19C,0.756400*%

G36*
X1539098Y680164D02*
X1539098Y680164D01*
X1539117Y680162D01*
X1539219Y680184D01*
X1539321Y680200D01*
X1539338Y680210D01*
X1539358Y680214D01*
X1539447Y680267D01*
X1539538Y680316D01*
X1539552Y680330D01*
X1539569Y680340D01*
X1539636Y680419D01*
X1539708Y680494D01*
X1539716Y680512D01*
X1539729Y680527D01*
X1539768Y680623D01*
X1539811Y680717D01*
X1539813Y680737D01*
X1539821Y680755D01*
X1539839Y680922D01*
X1539839Y1939078D01*
X1539836Y1939098D01*
X1539838Y1939117D01*
X1539816Y1939219D01*
X1539800Y1939321D01*
X1539790Y1939338D01*
X1539786Y1939358D01*
X1539733Y1939447D01*
X1539684Y1939538D01*
X1539670Y1939552D01*
X1539660Y1939569D01*
X1539581Y1939636D01*
X1539506Y1939708D01*
X1539488Y1939716D01*
X1539473Y1939729D01*
X1539377Y1939768D01*
X1539283Y1939811D01*
X1539263Y1939813D01*
X1539245Y1939821D01*
X1539078Y1939839D01*
X1280953Y1939839D01*
X1280929Y1939835D01*
X1280905Y1939838D01*
X1280808Y1939816D01*
X1280710Y1939800D01*
X1280689Y1939788D01*
X1280665Y1939783D01*
X1280580Y1939731D01*
X1280493Y1939684D01*
X1280476Y1939667D01*
X1280455Y1939654D01*
X1280392Y1939578D01*
X1280323Y1939506D01*
X1280313Y1939484D01*
X1280298Y1939466D01*
X1280261Y1939373D01*
X1280220Y1939283D01*
X1280217Y1939259D01*
X1280208Y1939237D01*
X1280203Y1939137D01*
X1280192Y1939039D01*
X1280198Y1939015D01*
X1280196Y1938991D01*
X1280224Y1938896D01*
X1280245Y1938798D01*
X1280257Y1938777D01*
X1280264Y1938754D01*
X1280320Y1938673D01*
X1280371Y1938587D01*
X1280389Y1938571D01*
X1280403Y1938552D01*
X1280482Y1938492D01*
X1280558Y1938427D01*
X1280580Y1938418D01*
X1280599Y1938404D01*
X1280756Y1938343D01*
X1281642Y1938105D01*
X1288519Y1934135D01*
X1294135Y1928519D01*
X1298105Y1921642D01*
X1300161Y1913971D01*
X1300161Y1906029D01*
X1298105Y1898358D01*
X1294135Y1891481D01*
X1288519Y1885865D01*
X1281642Y1881895D01*
X1273971Y1879839D01*
X1266029Y1879839D01*
X1258358Y1881895D01*
X1251481Y1885865D01*
X1245865Y1891481D01*
X1241895Y1898358D01*
X1239839Y1906029D01*
X1239839Y1913971D01*
X1241895Y1921642D01*
X1245865Y1928519D01*
X1251481Y1934135D01*
X1258358Y1938105D01*
X1259244Y1938343D01*
X1259266Y1938353D01*
X1259290Y1938357D01*
X1259378Y1938403D01*
X1259469Y1938444D01*
X1259486Y1938460D01*
X1259507Y1938472D01*
X1259576Y1938543D01*
X1259649Y1938611D01*
X1259660Y1938632D01*
X1259677Y1938650D01*
X1259719Y1938740D01*
X1259766Y1938827D01*
X1259770Y1938851D01*
X1259780Y1938873D01*
X1259791Y1938972D01*
X1259809Y1939070D01*
X1259805Y1939094D01*
X1259808Y1939117D01*
X1259787Y1939214D01*
X1259771Y1939313D01*
X1259760Y1939334D01*
X1259755Y1939358D01*
X1259704Y1939443D01*
X1259659Y1939532D01*
X1259641Y1939548D01*
X1259629Y1939569D01*
X1259554Y1939634D01*
X1259482Y1939703D01*
X1259461Y1939713D01*
X1259442Y1939729D01*
X1259350Y1939766D01*
X1259260Y1939809D01*
X1259236Y1939812D01*
X1259214Y1939821D01*
X1259047Y1939839D01*
X230953Y1939839D01*
X230929Y1939835D01*
X230905Y1939838D01*
X230808Y1939816D01*
X230710Y1939800D01*
X230689Y1939788D01*
X230665Y1939783D01*
X230580Y1939731D01*
X230493Y1939684D01*
X230476Y1939667D01*
X230455Y1939654D01*
X230392Y1939578D01*
X230323Y1939506D01*
X230313Y1939484D01*
X230298Y1939466D01*
X230261Y1939373D01*
X230220Y1939283D01*
X230217Y1939259D01*
X230208Y1939237D01*
X230203Y1939137D01*
X230192Y1939039D01*
X230198Y1939015D01*
X230196Y1938991D01*
X230224Y1938896D01*
X230245Y1938798D01*
X230257Y1938777D01*
X230264Y1938754D01*
X230320Y1938673D01*
X230371Y1938587D01*
X230389Y1938571D01*
X230403Y1938552D01*
X230482Y1938492D01*
X230558Y1938427D01*
X230580Y1938418D01*
X230599Y1938404D01*
X230756Y1938343D01*
X231642Y1938105D01*
X238519Y1934135D01*
X244135Y1928519D01*
X248105Y1921642D01*
X250161Y1913971D01*
X250161Y1906029D01*
X248105Y1898358D01*
X244135Y1891481D01*
X238519Y1885865D01*
X231642Y1881895D01*
X223971Y1879839D01*
X216029Y1879839D01*
X208358Y1881895D01*
X201481Y1885865D01*
X195865Y1891481D01*
X191895Y1898358D01*
X189839Y1906029D01*
X189839Y1913971D01*
X191895Y1921642D01*
X195865Y1928519D01*
X201481Y1934135D01*
X208358Y1938105D01*
X209244Y1938343D01*
X209266Y1938353D01*
X209290Y1938357D01*
X209378Y1938403D01*
X209469Y1938444D01*
X209486Y1938460D01*
X209507Y1938472D01*
X209576Y1938543D01*
X209649Y1938611D01*
X209660Y1938632D01*
X209677Y1938650D01*
X209719Y1938740D01*
X209766Y1938827D01*
X209770Y1938851D01*
X209780Y1938873D01*
X209791Y1938972D01*
X209809Y1939070D01*
X209805Y1939094D01*
X209808Y1939117D01*
X209787Y1939214D01*
X209771Y1939313D01*
X209760Y1939334D01*
X209755Y1939358D01*
X209704Y1939443D01*
X209659Y1939532D01*
X209641Y1939548D01*
X209629Y1939569D01*
X209554Y1939634D01*
X209482Y1939703D01*
X209461Y1939713D01*
X209442Y1939729D01*
X209350Y1939766D01*
X209260Y1939809D01*
X209236Y1939812D01*
X209214Y1939821D01*
X209047Y1939839D01*
X37922Y1939839D01*
X37902Y1939836D01*
X37883Y1939838D01*
X37781Y1939816D01*
X37679Y1939800D01*
X37662Y1939790D01*
X37642Y1939786D01*
X37553Y1939733D01*
X37462Y1939684D01*
X37448Y1939670D01*
X37431Y1939660D01*
X37364Y1939581D01*
X37292Y1939506D01*
X37284Y1939488D01*
X37271Y1939473D01*
X37232Y1939377D01*
X37189Y1939283D01*
X37187Y1939263D01*
X37179Y1939245D01*
X37161Y1939078D01*
X37161Y680922D01*
X37164Y680902D01*
X37162Y680883D01*
X37184Y680781D01*
X37200Y680679D01*
X37210Y680662D01*
X37214Y680642D01*
X37267Y680553D01*
X37316Y680462D01*
X37330Y680448D01*
X37340Y680431D01*
X37419Y680364D01*
X37494Y680292D01*
X37512Y680284D01*
X37527Y680271D01*
X37623Y680232D01*
X37717Y680189D01*
X37737Y680187D01*
X37755Y680179D01*
X37922Y680161D01*
X1539078Y680161D01*
X1539098Y680164D01*
G37*
%LPC*%
G36*
X1404820Y833770D02*
X1404820Y833770D01*
X1398057Y836571D01*
X1392881Y841747D01*
X1390080Y848510D01*
X1390080Y855830D01*
X1392881Y862593D01*
X1398057Y867769D01*
X1404820Y870570D01*
X1412140Y870570D01*
X1418536Y867920D01*
X1418649Y867894D01*
X1418763Y867865D01*
X1418769Y867866D01*
X1418775Y867864D01*
X1418892Y867875D01*
X1419008Y867884D01*
X1419014Y867887D01*
X1419020Y867887D01*
X1419128Y867935D01*
X1419235Y867981D01*
X1419240Y867985D01*
X1419245Y867987D01*
X1419259Y868000D01*
X1419365Y868085D01*
X1487708Y936428D01*
X1487761Y936502D01*
X1487821Y936572D01*
X1487833Y936602D01*
X1487852Y936628D01*
X1487879Y936715D01*
X1487913Y936800D01*
X1487917Y936841D01*
X1487924Y936863D01*
X1487923Y936895D01*
X1487931Y936967D01*
X1487931Y937610D01*
X1487945Y937644D01*
X1487949Y937685D01*
X1487956Y937707D01*
X1487955Y937739D01*
X1487963Y937811D01*
X1487963Y1770891D01*
X1487949Y1770981D01*
X1487941Y1771072D01*
X1487929Y1771101D01*
X1487924Y1771133D01*
X1487881Y1771214D01*
X1487845Y1771298D01*
X1487819Y1771330D01*
X1487808Y1771351D01*
X1487785Y1771373D01*
X1487740Y1771429D01*
X1463071Y1796098D01*
X1463071Y1818397D01*
X1463052Y1818512D01*
X1463035Y1818628D01*
X1463033Y1818633D01*
X1463032Y1818640D01*
X1462977Y1818742D01*
X1462924Y1818847D01*
X1462919Y1818851D01*
X1462916Y1818857D01*
X1462832Y1818937D01*
X1462748Y1819019D01*
X1462742Y1819023D01*
X1462738Y1819026D01*
X1462721Y1819034D01*
X1462601Y1819100D01*
X1459193Y1820512D01*
X1456022Y1823683D01*
X1454305Y1827827D01*
X1454305Y1832313D01*
X1456022Y1836457D01*
X1459193Y1839628D01*
X1463337Y1841345D01*
X1467823Y1841345D01*
X1471967Y1839628D01*
X1475138Y1836457D01*
X1476855Y1832313D01*
X1476855Y1827827D01*
X1475138Y1823683D01*
X1471967Y1820512D01*
X1470591Y1819942D01*
X1470491Y1819880D01*
X1470391Y1819820D01*
X1470387Y1819816D01*
X1470382Y1819812D01*
X1470307Y1819722D01*
X1470231Y1819633D01*
X1470229Y1819628D01*
X1470225Y1819623D01*
X1470183Y1819514D01*
X1470139Y1819405D01*
X1470138Y1819398D01*
X1470137Y1819393D01*
X1470136Y1819375D01*
X1470121Y1819239D01*
X1470121Y1799333D01*
X1470135Y1799243D01*
X1470143Y1799152D01*
X1470155Y1799123D01*
X1470160Y1799091D01*
X1470203Y1799010D01*
X1470239Y1798926D01*
X1470265Y1798894D01*
X1470276Y1798873D01*
X1470299Y1798851D01*
X1470344Y1798795D01*
X1495013Y1774126D01*
X1495013Y937811D01*
X1495027Y937720D01*
X1495035Y937630D01*
X1495045Y937606D01*
X1495045Y933705D01*
X1492738Y931398D01*
X1446154Y884814D01*
X1446140Y884794D01*
X1446121Y884779D01*
X1446068Y884695D01*
X1446010Y884614D01*
X1446003Y884591D01*
X1445991Y884571D01*
X1445967Y884474D01*
X1445938Y884379D01*
X1445939Y884355D01*
X1445933Y884332D01*
X1445942Y884233D01*
X1445944Y884133D01*
X1445953Y884111D01*
X1445955Y884087D01*
X1445995Y883996D01*
X1446029Y883902D01*
X1446044Y883884D01*
X1446054Y883861D01*
X1446120Y883788D01*
X1446183Y883710D01*
X1446203Y883697D01*
X1446219Y883679D01*
X1446306Y883631D01*
X1446390Y883577D01*
X1446413Y883571D01*
X1446434Y883560D01*
X1446532Y883542D01*
X1446628Y883517D01*
X1446652Y883519D01*
X1446676Y883515D01*
X1446774Y883529D01*
X1446873Y883536D01*
X1446895Y883546D01*
X1446919Y883549D01*
X1447073Y883617D01*
X1452672Y886849D01*
X1459135Y888581D01*
X1465825Y888581D01*
X1472288Y886849D01*
X1478083Y883504D01*
X1482814Y878773D01*
X1486159Y872978D01*
X1487891Y866515D01*
X1487891Y859825D01*
X1486159Y853362D01*
X1482814Y847567D01*
X1478083Y842836D01*
X1472288Y839491D01*
X1465825Y837759D01*
X1459135Y837759D01*
X1452672Y839491D01*
X1446877Y842836D01*
X1442146Y847567D01*
X1438801Y853362D01*
X1437069Y859825D01*
X1437069Y866515D01*
X1438801Y872978D01*
X1442033Y878577D01*
X1442042Y878600D01*
X1442056Y878619D01*
X1442085Y878714D01*
X1442120Y878807D01*
X1442121Y878831D01*
X1442128Y878854D01*
X1442126Y878953D01*
X1442130Y879053D01*
X1442123Y879076D01*
X1442122Y879100D01*
X1442088Y879194D01*
X1442060Y879289D01*
X1442046Y879309D01*
X1442038Y879331D01*
X1441975Y879409D01*
X1441918Y879490D01*
X1441899Y879504D01*
X1441884Y879523D01*
X1441800Y879577D01*
X1441720Y879636D01*
X1441697Y879643D01*
X1441677Y879656D01*
X1441581Y879680D01*
X1441486Y879711D01*
X1441462Y879710D01*
X1441438Y879716D01*
X1441340Y879709D01*
X1441240Y879707D01*
X1441217Y879699D01*
X1441193Y879697D01*
X1441102Y879658D01*
X1441008Y879625D01*
X1440989Y879610D01*
X1440967Y879601D01*
X1440836Y879496D01*
X1424395Y863055D01*
X1424328Y862962D01*
X1424258Y862867D01*
X1424256Y862861D01*
X1424252Y862856D01*
X1424218Y862745D01*
X1424181Y862633D01*
X1424181Y862627D01*
X1424180Y862621D01*
X1424183Y862504D01*
X1424184Y862387D01*
X1424186Y862380D01*
X1424186Y862375D01*
X1424192Y862357D01*
X1424230Y862226D01*
X1426880Y855830D01*
X1426880Y848510D01*
X1424079Y841747D01*
X1418903Y836571D01*
X1412140Y833770D01*
X1404820Y833770D01*
G37*
%LPD*%
%LPC*%
G36*
X1413176Y1466405D02*
X1413176Y1466405D01*
X1410212Y1467633D01*
X1407943Y1469902D01*
X1406715Y1472866D01*
X1406715Y1476074D01*
X1406953Y1476648D01*
X1406979Y1476761D01*
X1407008Y1476875D01*
X1407008Y1476881D01*
X1407009Y1476887D01*
X1406998Y1477004D01*
X1406989Y1477120D01*
X1406987Y1477126D01*
X1406986Y1477132D01*
X1406938Y1477240D01*
X1406893Y1477346D01*
X1406888Y1477352D01*
X1406886Y1477357D01*
X1406873Y1477371D01*
X1406788Y1477477D01*
X1398555Y1485710D01*
X1398555Y1488945D01*
X1398555Y1548895D01*
X1398540Y1548985D01*
X1398533Y1549076D01*
X1398521Y1549105D01*
X1398515Y1549137D01*
X1398473Y1549218D01*
X1398437Y1549302D01*
X1398411Y1549334D01*
X1398400Y1549355D01*
X1398377Y1549377D01*
X1398332Y1549433D01*
X1286795Y1660970D01*
X1286795Y1759715D01*
X1286781Y1759805D01*
X1286773Y1759896D01*
X1286761Y1759925D01*
X1286756Y1759957D01*
X1286713Y1760038D01*
X1286677Y1760122D01*
X1286651Y1760154D01*
X1286640Y1760175D01*
X1286617Y1760197D01*
X1286572Y1760253D01*
X1270287Y1776538D01*
X1270213Y1776591D01*
X1270144Y1776651D01*
X1270113Y1776663D01*
X1270087Y1776682D01*
X1270000Y1776709D01*
X1269915Y1776743D01*
X1269874Y1776747D01*
X1269852Y1776754D01*
X1269820Y1776753D01*
X1269749Y1776761D01*
X1202687Y1776761D01*
X1202597Y1776747D01*
X1202506Y1776739D01*
X1202477Y1776727D01*
X1202445Y1776722D01*
X1202364Y1776679D01*
X1202280Y1776643D01*
X1202248Y1776617D01*
X1202227Y1776606D01*
X1202205Y1776583D01*
X1202149Y1776538D01*
X1037018Y1611407D01*
X485899Y1611407D01*
X485809Y1611393D01*
X485718Y1611385D01*
X485689Y1611373D01*
X485657Y1611368D01*
X485576Y1611325D01*
X485492Y1611289D01*
X485460Y1611263D01*
X485439Y1611252D01*
X485417Y1611229D01*
X485361Y1611184D01*
X468074Y1593897D01*
X468007Y1593803D01*
X467936Y1593709D01*
X467934Y1593703D01*
X467931Y1593698D01*
X467897Y1593587D01*
X467860Y1593475D01*
X467860Y1593469D01*
X467858Y1593463D01*
X467861Y1593346D01*
X467862Y1593229D01*
X467865Y1593222D01*
X467865Y1593217D01*
X467871Y1593199D01*
X467909Y1593068D01*
X469225Y1589892D01*
X469225Y1585108D01*
X467394Y1580689D01*
X464011Y1577306D01*
X459592Y1575475D01*
X454808Y1575475D01*
X450389Y1577306D01*
X447006Y1580689D01*
X445175Y1585108D01*
X445175Y1589892D01*
X447006Y1594311D01*
X450389Y1597694D01*
X454808Y1599525D01*
X459592Y1599525D01*
X462049Y1598507D01*
X462163Y1598480D01*
X462277Y1598452D01*
X462283Y1598452D01*
X462289Y1598451D01*
X462405Y1598462D01*
X462522Y1598471D01*
X462527Y1598473D01*
X462534Y1598474D01*
X462641Y1598522D01*
X462748Y1598567D01*
X462754Y1598572D01*
X462759Y1598574D01*
X462772Y1598586D01*
X462879Y1598672D01*
X482664Y1618457D01*
X1033783Y1618457D01*
X1033873Y1618471D01*
X1033964Y1618479D01*
X1033993Y1618491D01*
X1034025Y1618496D01*
X1034106Y1618539D01*
X1034190Y1618575D01*
X1034222Y1618601D01*
X1034243Y1618612D01*
X1034265Y1618635D01*
X1034321Y1618680D01*
X1199452Y1783811D01*
X1272984Y1783811D01*
X1293845Y1762950D01*
X1293845Y1664205D01*
X1293859Y1664115D01*
X1293867Y1664024D01*
X1293879Y1663995D01*
X1293884Y1663963D01*
X1293927Y1663882D01*
X1293963Y1663798D01*
X1293989Y1663766D01*
X1294000Y1663745D01*
X1294023Y1663723D01*
X1294068Y1663667D01*
X1405605Y1552130D01*
X1405605Y1551757D01*
X1405605Y1488945D01*
X1405619Y1488855D01*
X1405627Y1488764D01*
X1405639Y1488735D01*
X1405644Y1488703D01*
X1405687Y1488622D01*
X1405723Y1488538D01*
X1405749Y1488506D01*
X1405760Y1488485D01*
X1405783Y1488463D01*
X1405828Y1488407D01*
X1411773Y1482462D01*
X1411868Y1482394D01*
X1411961Y1482324D01*
X1411967Y1482322D01*
X1411972Y1482319D01*
X1412084Y1482284D01*
X1412195Y1482248D01*
X1412201Y1482248D01*
X1412207Y1482246D01*
X1412324Y1482249D01*
X1412441Y1482250D01*
X1412448Y1482252D01*
X1412453Y1482253D01*
X1412471Y1482259D01*
X1412602Y1482297D01*
X1413176Y1482535D01*
X1416384Y1482535D01*
X1419348Y1481307D01*
X1421617Y1479038D01*
X1422845Y1476074D01*
X1422845Y1472866D01*
X1421617Y1469902D01*
X1419348Y1467633D01*
X1416384Y1466405D01*
X1413176Y1466405D01*
G37*
%LPD*%
%LPC*%
G36*
X1096520Y833770D02*
X1096520Y833770D01*
X1089757Y836571D01*
X1084581Y841747D01*
X1081780Y848510D01*
X1081780Y855830D01*
X1084581Y862593D01*
X1089757Y867769D01*
X1096520Y870570D01*
X1096550Y870570D01*
X1096570Y870573D01*
X1096589Y870571D01*
X1096691Y870593D01*
X1096793Y870609D01*
X1096810Y870619D01*
X1096830Y870623D01*
X1096919Y870676D01*
X1097010Y870725D01*
X1097024Y870739D01*
X1097041Y870749D01*
X1097108Y870828D01*
X1097180Y870903D01*
X1097188Y870921D01*
X1097201Y870936D01*
X1097240Y871032D01*
X1097283Y871126D01*
X1097285Y871146D01*
X1097293Y871164D01*
X1097311Y871331D01*
X1097311Y1053274D01*
X1261680Y1217643D01*
X1261733Y1217717D01*
X1261793Y1217786D01*
X1261805Y1217817D01*
X1261824Y1217843D01*
X1261851Y1217930D01*
X1261885Y1218015D01*
X1261889Y1218056D01*
X1261896Y1218078D01*
X1261895Y1218110D01*
X1261903Y1218181D01*
X1261903Y1743881D01*
X1261884Y1743995D01*
X1261867Y1744112D01*
X1261865Y1744117D01*
X1261864Y1744123D01*
X1261809Y1744226D01*
X1261756Y1744331D01*
X1261751Y1744335D01*
X1261748Y1744341D01*
X1261664Y1744421D01*
X1261580Y1744503D01*
X1261574Y1744507D01*
X1261570Y1744510D01*
X1261553Y1744518D01*
X1261433Y1744584D01*
X1259193Y1745512D01*
X1256022Y1748683D01*
X1254305Y1752827D01*
X1254305Y1757313D01*
X1256022Y1761457D01*
X1259193Y1764628D01*
X1263337Y1766345D01*
X1267823Y1766345D01*
X1271967Y1764628D01*
X1275138Y1761457D01*
X1276855Y1757313D01*
X1276855Y1752827D01*
X1275138Y1748683D01*
X1271967Y1745512D01*
X1269423Y1744458D01*
X1269323Y1744396D01*
X1269223Y1744336D01*
X1269219Y1744332D01*
X1269214Y1744328D01*
X1269139Y1744238D01*
X1269063Y1744150D01*
X1269061Y1744144D01*
X1269057Y1744139D01*
X1269015Y1744031D01*
X1268971Y1743921D01*
X1268970Y1743914D01*
X1268969Y1743909D01*
X1268968Y1743891D01*
X1268953Y1743755D01*
X1268953Y1214946D01*
X1104584Y1050577D01*
X1104531Y1050503D01*
X1104471Y1050434D01*
X1104459Y1050403D01*
X1104440Y1050377D01*
X1104413Y1050290D01*
X1104379Y1050205D01*
X1104375Y1050164D01*
X1104368Y1050142D01*
X1104369Y1050110D01*
X1104361Y1050039D01*
X1104361Y870863D01*
X1104380Y870748D01*
X1104397Y870632D01*
X1104399Y870626D01*
X1104400Y870620D01*
X1104455Y870517D01*
X1104508Y870412D01*
X1104513Y870408D01*
X1104516Y870403D01*
X1104600Y870323D01*
X1104684Y870240D01*
X1104690Y870237D01*
X1104694Y870233D01*
X1104711Y870225D01*
X1104831Y870159D01*
X1110603Y867769D01*
X1115779Y862593D01*
X1118580Y855830D01*
X1118580Y848510D01*
X1115779Y841747D01*
X1110603Y836571D01*
X1103840Y833770D01*
X1096520Y833770D01*
G37*
%LPD*%
%LPC*%
G36*
X1337820Y833770D02*
X1337820Y833770D01*
X1331057Y836571D01*
X1325881Y841747D01*
X1323080Y848510D01*
X1323080Y855830D01*
X1325881Y862593D01*
X1331057Y867769D01*
X1337820Y870570D01*
X1345140Y870570D01*
X1350954Y868161D01*
X1351068Y868135D01*
X1351181Y868106D01*
X1351187Y868107D01*
X1351194Y868105D01*
X1351310Y868116D01*
X1351426Y868125D01*
X1351432Y868128D01*
X1351438Y868128D01*
X1351546Y868176D01*
X1351653Y868222D01*
X1351659Y868226D01*
X1351663Y868228D01*
X1351677Y868241D01*
X1351784Y868326D01*
X1459006Y975549D01*
X1459059Y975623D01*
X1459119Y975692D01*
X1459131Y975723D01*
X1459150Y975749D01*
X1459177Y975836D01*
X1459211Y975921D01*
X1459215Y975962D01*
X1459222Y975984D01*
X1459221Y976016D01*
X1459229Y976087D01*
X1459229Y1736039D01*
X1461800Y1738610D01*
X1461853Y1738684D01*
X1461913Y1738754D01*
X1461925Y1738784D01*
X1461944Y1738810D01*
X1461971Y1738897D01*
X1462005Y1738982D01*
X1462009Y1739023D01*
X1462016Y1739045D01*
X1462015Y1739077D01*
X1462023Y1739149D01*
X1462023Y1743831D01*
X1462004Y1743946D01*
X1461987Y1744062D01*
X1461985Y1744067D01*
X1461984Y1744074D01*
X1461929Y1744176D01*
X1461876Y1744281D01*
X1461871Y1744286D01*
X1461868Y1744291D01*
X1461784Y1744371D01*
X1461700Y1744453D01*
X1461694Y1744457D01*
X1461690Y1744460D01*
X1461673Y1744468D01*
X1461553Y1744534D01*
X1459193Y1745512D01*
X1456022Y1748683D01*
X1454305Y1752827D01*
X1454305Y1757313D01*
X1456022Y1761457D01*
X1459193Y1764628D01*
X1463337Y1766345D01*
X1467823Y1766345D01*
X1471967Y1764628D01*
X1475138Y1761457D01*
X1476855Y1757313D01*
X1476855Y1752827D01*
X1475138Y1748683D01*
X1471967Y1745512D01*
X1469607Y1744534D01*
X1469507Y1744473D01*
X1469407Y1744413D01*
X1469403Y1744408D01*
X1469398Y1744405D01*
X1469323Y1744315D01*
X1469247Y1744226D01*
X1469245Y1744220D01*
X1469241Y1744215D01*
X1469199Y1744107D01*
X1469155Y1743998D01*
X1469154Y1743990D01*
X1469153Y1743986D01*
X1469152Y1743967D01*
X1469137Y1743831D01*
X1469137Y1735887D01*
X1466566Y1733316D01*
X1466513Y1733242D01*
X1466453Y1733172D01*
X1466441Y1733142D01*
X1466422Y1733116D01*
X1466395Y1733029D01*
X1466361Y1732944D01*
X1466357Y1732903D01*
X1466350Y1732881D01*
X1466351Y1732849D01*
X1466343Y1732777D01*
X1466343Y972871D01*
X1464155Y970683D01*
X1464122Y970669D01*
X1464090Y970643D01*
X1464069Y970632D01*
X1464047Y970609D01*
X1463991Y970564D01*
X1357087Y863660D01*
X1357076Y863644D01*
X1357060Y863632D01*
X1357004Y863545D01*
X1356944Y863461D01*
X1356938Y863442D01*
X1356927Y863425D01*
X1356902Y863325D01*
X1356871Y863226D01*
X1356872Y863206D01*
X1356867Y863186D01*
X1356875Y863083D01*
X1356878Y862980D01*
X1356885Y862961D01*
X1356886Y862941D01*
X1356927Y862846D01*
X1356962Y862749D01*
X1356975Y862733D01*
X1356982Y862715D01*
X1357077Y862597D01*
X1359880Y855830D01*
X1359880Y848510D01*
X1357079Y841747D01*
X1351903Y836571D01*
X1345140Y833770D01*
X1337820Y833770D01*
G37*
%LPD*%
%LPC*%
G36*
X981290Y878359D02*
X981290Y878359D01*
X978181Y881468D01*
X978181Y885864D01*
X979708Y887391D01*
X979761Y887465D01*
X979821Y887535D01*
X979833Y887565D01*
X979852Y887591D01*
X979879Y887678D01*
X979913Y887763D01*
X979917Y887804D01*
X979924Y887826D01*
X979923Y887858D01*
X979931Y887929D01*
X979931Y1489151D01*
X982238Y1491458D01*
X1070616Y1579836D01*
X1070684Y1579930D01*
X1070754Y1580025D01*
X1070756Y1580031D01*
X1070760Y1580036D01*
X1070794Y1580147D01*
X1070830Y1580259D01*
X1070830Y1580265D01*
X1070832Y1580271D01*
X1070829Y1580386D01*
X1070828Y1580505D01*
X1070826Y1580512D01*
X1070826Y1580517D01*
X1070819Y1580534D01*
X1070781Y1580666D01*
X1068730Y1585617D01*
X1068730Y1591923D01*
X1071143Y1597748D01*
X1075602Y1602207D01*
X1081427Y1604620D01*
X1087733Y1604620D01*
X1093558Y1602207D01*
X1098017Y1597748D01*
X1100430Y1591923D01*
X1100430Y1585617D01*
X1098017Y1579792D01*
X1093558Y1575333D01*
X1087733Y1572920D01*
X1081427Y1572920D01*
X1076476Y1574971D01*
X1076362Y1574998D01*
X1076249Y1575026D01*
X1076242Y1575026D01*
X1076236Y1575027D01*
X1076120Y1575016D01*
X1076003Y1575007D01*
X1075998Y1575005D01*
X1075991Y1575004D01*
X1075884Y1574956D01*
X1075777Y1574911D01*
X1075771Y1574906D01*
X1075767Y1574904D01*
X1075753Y1574892D01*
X1075646Y1574806D01*
X987268Y1486428D01*
X987215Y1486354D01*
X987155Y1486284D01*
X987143Y1486254D01*
X987124Y1486228D01*
X987097Y1486141D01*
X987063Y1486056D01*
X987059Y1486015D01*
X987052Y1485993D01*
X987053Y1485961D01*
X987045Y1485889D01*
X987045Y887929D01*
X987059Y887839D01*
X987067Y887748D01*
X987079Y887719D01*
X987084Y887687D01*
X987127Y887606D01*
X987163Y887522D01*
X987189Y887490D01*
X987200Y887469D01*
X987223Y887447D01*
X987268Y887391D01*
X988795Y885864D01*
X988795Y881468D01*
X985686Y878359D01*
X981290Y878359D01*
G37*
%LPD*%
%LPC*%
G36*
X806012Y1643379D02*
X806012Y1643379D01*
X795353Y1646235D01*
X785796Y1651753D01*
X777993Y1659556D01*
X772475Y1669113D01*
X769619Y1679772D01*
X769619Y1690808D01*
X772475Y1701467D01*
X777993Y1711024D01*
X785796Y1718827D01*
X795353Y1724345D01*
X806012Y1727201D01*
X817048Y1727201D01*
X827707Y1724345D01*
X837264Y1718827D01*
X845067Y1711024D01*
X850585Y1701467D01*
X853441Y1690808D01*
X853441Y1679772D01*
X850585Y1669113D01*
X845067Y1659556D01*
X837264Y1651753D01*
X827707Y1646235D01*
X817048Y1643379D01*
X806012Y1643379D01*
G37*
%LPD*%
%LPC*%
G36*
X211652Y1774189D02*
X211652Y1774189D01*
X200993Y1777045D01*
X191436Y1782563D01*
X183633Y1790366D01*
X178115Y1799923D01*
X175259Y1810582D01*
X175259Y1821618D01*
X178115Y1832277D01*
X183633Y1841834D01*
X191436Y1849637D01*
X200993Y1855155D01*
X211652Y1858011D01*
X222688Y1858011D01*
X233347Y1855155D01*
X242904Y1849637D01*
X250707Y1841834D01*
X256225Y1832277D01*
X259081Y1821618D01*
X259081Y1810582D01*
X256225Y1799923D01*
X250707Y1790366D01*
X242904Y1782563D01*
X233347Y1777045D01*
X222688Y1774189D01*
X211652Y1774189D01*
G37*
%LPD*%
%LPC*%
G36*
X1184576Y945705D02*
X1184576Y945705D01*
X1181612Y946933D01*
X1179343Y949202D01*
X1178115Y952166D01*
X1178115Y955374D01*
X1179343Y958338D01*
X1181612Y960607D01*
X1182185Y960845D01*
X1182285Y960906D01*
X1182385Y960966D01*
X1182389Y960971D01*
X1182394Y960974D01*
X1182469Y961064D01*
X1182545Y961153D01*
X1182547Y961159D01*
X1182551Y961164D01*
X1182593Y961272D01*
X1182637Y961381D01*
X1182638Y961389D01*
X1182639Y961393D01*
X1182640Y961412D01*
X1182655Y961548D01*
X1182655Y1057338D01*
X1201263Y1075946D01*
X1201305Y1076004D01*
X1201354Y1076056D01*
X1201376Y1076103D01*
X1201407Y1076145D01*
X1201428Y1076214D01*
X1201458Y1076279D01*
X1201464Y1076331D01*
X1201479Y1076381D01*
X1201477Y1076452D01*
X1201485Y1076523D01*
X1201474Y1076574D01*
X1201473Y1076626D01*
X1201448Y1076694D01*
X1201433Y1076764D01*
X1201406Y1076809D01*
X1201388Y1076857D01*
X1201343Y1076913D01*
X1201307Y1076975D01*
X1201267Y1077009D01*
X1201234Y1077049D01*
X1201174Y1077088D01*
X1201120Y1077135D01*
X1201071Y1077154D01*
X1201027Y1077182D01*
X1200958Y1077200D01*
X1200891Y1077227D01*
X1200820Y1077235D01*
X1200789Y1077243D01*
X1200766Y1077241D01*
X1200725Y1077245D01*
X1172844Y1077245D01*
X1172729Y1077226D01*
X1172613Y1077209D01*
X1172608Y1077207D01*
X1172601Y1077206D01*
X1172499Y1077151D01*
X1172394Y1077098D01*
X1172389Y1077093D01*
X1172384Y1077090D01*
X1172304Y1077006D01*
X1172222Y1076922D01*
X1172218Y1076916D01*
X1172215Y1076912D01*
X1172207Y1076895D01*
X1172141Y1076775D01*
X1170974Y1073959D01*
X1167591Y1070576D01*
X1163172Y1068745D01*
X1158388Y1068745D01*
X1153969Y1070576D01*
X1150586Y1073959D01*
X1148755Y1078378D01*
X1148755Y1083162D01*
X1150586Y1087581D01*
X1153969Y1090964D01*
X1158388Y1092795D01*
X1163172Y1092795D01*
X1167591Y1090964D01*
X1170974Y1087581D01*
X1172141Y1084765D01*
X1172202Y1084665D01*
X1172262Y1084565D01*
X1172267Y1084561D01*
X1172270Y1084556D01*
X1172360Y1084481D01*
X1172449Y1084405D01*
X1172455Y1084403D01*
X1172460Y1084399D01*
X1172568Y1084357D01*
X1172677Y1084313D01*
X1172685Y1084312D01*
X1172690Y1084311D01*
X1172708Y1084310D01*
X1172844Y1084295D01*
X1224916Y1084295D01*
X1225031Y1084314D01*
X1225147Y1084331D01*
X1225152Y1084333D01*
X1225159Y1084334D01*
X1225261Y1084389D01*
X1225366Y1084442D01*
X1225371Y1084447D01*
X1225376Y1084450D01*
X1225456Y1084534D01*
X1225538Y1084618D01*
X1225542Y1084624D01*
X1225545Y1084628D01*
X1225553Y1084645D01*
X1225619Y1084765D01*
X1226786Y1087581D01*
X1230169Y1090964D01*
X1234588Y1092795D01*
X1239372Y1092795D01*
X1242189Y1091628D01*
X1242302Y1091601D01*
X1242416Y1091573D01*
X1242422Y1091573D01*
X1242428Y1091572D01*
X1242545Y1091583D01*
X1242661Y1091592D01*
X1242667Y1091594D01*
X1242673Y1091595D01*
X1242781Y1091643D01*
X1242887Y1091688D01*
X1242893Y1091693D01*
X1242898Y1091695D01*
X1242912Y1091708D01*
X1243018Y1091793D01*
X1286932Y1135707D01*
X1289220Y1137995D01*
X1408516Y1137995D01*
X1408630Y1138014D01*
X1408747Y1138031D01*
X1408752Y1138033D01*
X1408758Y1138034D01*
X1408861Y1138089D01*
X1408966Y1138142D01*
X1408970Y1138147D01*
X1408976Y1138150D01*
X1409056Y1138234D01*
X1409138Y1138318D01*
X1409142Y1138324D01*
X1409145Y1138328D01*
X1409153Y1138345D01*
X1409219Y1138465D01*
X1411881Y1144893D01*
X1417057Y1150069D01*
X1423820Y1152870D01*
X1431140Y1152870D01*
X1437903Y1150069D01*
X1443079Y1144893D01*
X1445880Y1138130D01*
X1445880Y1130810D01*
X1443079Y1124047D01*
X1437903Y1118871D01*
X1431140Y1116070D01*
X1423820Y1116070D01*
X1417057Y1118871D01*
X1411881Y1124047D01*
X1409219Y1130475D01*
X1409157Y1130575D01*
X1409097Y1130675D01*
X1409093Y1130679D01*
X1409089Y1130684D01*
X1408999Y1130759D01*
X1408911Y1130835D01*
X1408905Y1130837D01*
X1408900Y1130841D01*
X1408791Y1130883D01*
X1408682Y1130927D01*
X1408675Y1130928D01*
X1408670Y1130929D01*
X1408652Y1130930D01*
X1408516Y1130945D01*
X1292455Y1130945D01*
X1292365Y1130931D01*
X1292274Y1130923D01*
X1292245Y1130911D01*
X1292213Y1130906D01*
X1292132Y1130863D01*
X1292048Y1130827D01*
X1292016Y1130801D01*
X1291995Y1130790D01*
X1291973Y1130767D01*
X1291917Y1130722D01*
X1248003Y1086808D01*
X1247935Y1086714D01*
X1247865Y1086620D01*
X1247863Y1086614D01*
X1247859Y1086609D01*
X1247825Y1086498D01*
X1247789Y1086386D01*
X1247789Y1086379D01*
X1247787Y1086373D01*
X1247790Y1086257D01*
X1247791Y1086140D01*
X1247793Y1086133D01*
X1247793Y1086128D01*
X1247800Y1086110D01*
X1247838Y1085979D01*
X1249005Y1083162D01*
X1249005Y1078378D01*
X1247174Y1073959D01*
X1243791Y1070576D01*
X1239372Y1068745D01*
X1234588Y1068745D01*
X1230169Y1070576D01*
X1226786Y1073959D01*
X1225830Y1076267D01*
X1225768Y1076367D01*
X1225708Y1076467D01*
X1225703Y1076471D01*
X1225700Y1076476D01*
X1225610Y1076551D01*
X1225521Y1076627D01*
X1225515Y1076629D01*
X1225510Y1076633D01*
X1225402Y1076675D01*
X1225293Y1076719D01*
X1225285Y1076720D01*
X1225281Y1076721D01*
X1225263Y1076722D01*
X1225126Y1076737D01*
X1212339Y1076737D01*
X1212249Y1076723D01*
X1212158Y1076715D01*
X1212129Y1076703D01*
X1212097Y1076698D01*
X1212016Y1076655D01*
X1211932Y1076619D01*
X1211900Y1076593D01*
X1211879Y1076582D01*
X1211857Y1076559D01*
X1211801Y1076514D01*
X1189928Y1054641D01*
X1189875Y1054567D01*
X1189815Y1054498D01*
X1189803Y1054467D01*
X1189784Y1054441D01*
X1189757Y1054354D01*
X1189723Y1054269D01*
X1189719Y1054228D01*
X1189712Y1054206D01*
X1189713Y1054174D01*
X1189705Y1054103D01*
X1189705Y961548D01*
X1189723Y961433D01*
X1189741Y961317D01*
X1189743Y961311D01*
X1189744Y961305D01*
X1189799Y961202D01*
X1189852Y961098D01*
X1189857Y961093D01*
X1189860Y961088D01*
X1189945Y961007D01*
X1190028Y960925D01*
X1190034Y960922D01*
X1190038Y960918D01*
X1190055Y960910D01*
X1190175Y960845D01*
X1190748Y960607D01*
X1193017Y958338D01*
X1194245Y955374D01*
X1194245Y952166D01*
X1193017Y949202D01*
X1190748Y946933D01*
X1187784Y945705D01*
X1184576Y945705D01*
G37*
%LPD*%
%LPC*%
G36*
X1090002Y1706653D02*
X1090002Y1706653D01*
X1086893Y1709762D01*
X1086893Y1714158D01*
X1088420Y1715685D01*
X1088462Y1715744D01*
X1088510Y1715794D01*
X1088518Y1715811D01*
X1088533Y1715829D01*
X1088545Y1715859D01*
X1088564Y1715885D01*
X1088586Y1715958D01*
X1088614Y1716017D01*
X1088616Y1716034D01*
X1088625Y1716057D01*
X1088629Y1716098D01*
X1088636Y1716120D01*
X1088635Y1716152D01*
X1088643Y1716223D01*
X1088643Y1753069D01*
X1094324Y1758750D01*
X1094395Y1758849D01*
X1094466Y1758946D01*
X1094466Y1758948D01*
X1094467Y1758950D01*
X1094503Y1759064D01*
X1094539Y1759181D01*
X1094539Y1759183D01*
X1094540Y1759185D01*
X1094537Y1759306D01*
X1094534Y1759427D01*
X1094533Y1759429D01*
X1094533Y1759431D01*
X1094491Y1759546D01*
X1094451Y1759658D01*
X1094450Y1759660D01*
X1094449Y1759662D01*
X1094373Y1759757D01*
X1094298Y1759851D01*
X1094297Y1759852D01*
X1094295Y1759854D01*
X1094193Y1759920D01*
X1094092Y1759985D01*
X1094090Y1759986D01*
X1094088Y1759987D01*
X1093972Y1760016D01*
X1093854Y1760046D01*
X1093851Y1760046D01*
X1093850Y1760047D01*
X1093842Y1760046D01*
X1093686Y1760043D01*
X1092503Y1759887D01*
X1092503Y1778508D01*
X1092500Y1778528D01*
X1092502Y1778547D01*
X1092480Y1778649D01*
X1092463Y1778751D01*
X1092454Y1778768D01*
X1092450Y1778788D01*
X1092397Y1778877D01*
X1092348Y1778968D01*
X1092334Y1778982D01*
X1092324Y1778999D01*
X1092245Y1779066D01*
X1092170Y1779137D01*
X1092152Y1779146D01*
X1092137Y1779159D01*
X1092041Y1779197D01*
X1091947Y1779241D01*
X1091927Y1779243D01*
X1091909Y1779251D01*
X1091742Y1779269D01*
X1090979Y1779269D01*
X1090979Y1779271D01*
X1091742Y1779271D01*
X1091762Y1779274D01*
X1091781Y1779272D01*
X1091883Y1779294D01*
X1091985Y1779311D01*
X1092002Y1779320D01*
X1092022Y1779324D01*
X1092111Y1779377D01*
X1092202Y1779426D01*
X1092216Y1779440D01*
X1092233Y1779450D01*
X1092300Y1779529D01*
X1092371Y1779604D01*
X1092380Y1779622D01*
X1092393Y1779637D01*
X1092432Y1779733D01*
X1092475Y1779827D01*
X1092477Y1779847D01*
X1092485Y1779865D01*
X1092503Y1780032D01*
X1092503Y1798653D01*
X1093686Y1798497D01*
X1093808Y1798501D01*
X1093928Y1798504D01*
X1093930Y1798505D01*
X1093932Y1798505D01*
X1094045Y1798547D01*
X1094159Y1798588D01*
X1094161Y1798590D01*
X1094163Y1798590D01*
X1094256Y1798666D01*
X1094351Y1798742D01*
X1094352Y1798744D01*
X1094354Y1798745D01*
X1094417Y1798845D01*
X1094484Y1798949D01*
X1094485Y1798951D01*
X1094486Y1798953D01*
X1094514Y1799067D01*
X1094544Y1799188D01*
X1094544Y1799190D01*
X1094544Y1799192D01*
X1094534Y1799315D01*
X1094525Y1799433D01*
X1094524Y1799435D01*
X1094524Y1799437D01*
X1094475Y1799550D01*
X1094429Y1799659D01*
X1094427Y1799661D01*
X1094426Y1799663D01*
X1094421Y1799668D01*
X1094324Y1799790D01*
X1037344Y1856770D01*
X1037270Y1856823D01*
X1037200Y1856883D01*
X1037170Y1856895D01*
X1037144Y1856914D01*
X1037057Y1856941D01*
X1036972Y1856975D01*
X1036931Y1856979D01*
X1036909Y1856986D01*
X1036877Y1856985D01*
X1036805Y1856993D01*
X847598Y1856993D01*
X847578Y1856990D01*
X847559Y1856992D01*
X847457Y1856970D01*
X847355Y1856954D01*
X847338Y1856944D01*
X847318Y1856940D01*
X847229Y1856887D01*
X847138Y1856838D01*
X847124Y1856824D01*
X847107Y1856814D01*
X847040Y1856735D01*
X846968Y1856660D01*
X846960Y1856642D01*
X846947Y1856627D01*
X846908Y1856531D01*
X846865Y1856437D01*
X846863Y1856417D01*
X846855Y1856399D01*
X846837Y1856232D01*
X846837Y1850197D01*
X845329Y1846556D01*
X842542Y1843769D01*
X838901Y1842261D01*
X834959Y1842261D01*
X831318Y1843769D01*
X828531Y1846556D01*
X827023Y1850197D01*
X827023Y1870903D01*
X828531Y1874544D01*
X831318Y1877331D01*
X834959Y1878839D01*
X838901Y1878839D01*
X842542Y1877331D01*
X845329Y1874544D01*
X846837Y1870903D01*
X846837Y1864868D01*
X846840Y1864848D01*
X846838Y1864829D01*
X846860Y1864727D01*
X846876Y1864625D01*
X846886Y1864608D01*
X846890Y1864588D01*
X846943Y1864499D01*
X846992Y1864408D01*
X847006Y1864394D01*
X847016Y1864377D01*
X847095Y1864310D01*
X847170Y1864238D01*
X847188Y1864230D01*
X847203Y1864217D01*
X847299Y1864178D01*
X847393Y1864135D01*
X847413Y1864133D01*
X847431Y1864125D01*
X847598Y1864107D01*
X1040067Y1864107D01*
X1114968Y1789206D01*
X1114968Y1769334D01*
X1095980Y1750346D01*
X1095927Y1750272D01*
X1095867Y1750202D01*
X1095855Y1750172D01*
X1095836Y1750146D01*
X1095809Y1750059D01*
X1095775Y1749974D01*
X1095771Y1749933D01*
X1095764Y1749911D01*
X1095765Y1749879D01*
X1095757Y1749808D01*
X1095757Y1716223D01*
X1095761Y1716198D01*
X1095759Y1716183D01*
X1095772Y1716122D01*
X1095779Y1716042D01*
X1095791Y1716013D01*
X1095796Y1715981D01*
X1095808Y1715959D01*
X1095811Y1715942D01*
X1095845Y1715886D01*
X1095875Y1715816D01*
X1095901Y1715784D01*
X1095912Y1715763D01*
X1095927Y1715748D01*
X1095938Y1715731D01*
X1095954Y1715717D01*
X1095980Y1715685D01*
X1097507Y1714158D01*
X1097507Y1709762D01*
X1094398Y1706653D01*
X1090002Y1706653D01*
G37*
%LPD*%
%LPC*%
G36*
X415947Y1571650D02*
X415947Y1571650D01*
X410122Y1574063D01*
X408085Y1576100D01*
X408011Y1576153D01*
X407941Y1576213D01*
X407911Y1576225D01*
X407885Y1576244D01*
X407798Y1576271D01*
X407713Y1576305D01*
X407672Y1576309D01*
X407650Y1576316D01*
X407618Y1576315D01*
X407547Y1576323D01*
X192837Y1576323D01*
X188213Y1580947D01*
X188213Y1622700D01*
X188194Y1622814D01*
X188177Y1622931D01*
X188175Y1622936D01*
X188174Y1622942D01*
X188119Y1623045D01*
X188066Y1623150D01*
X188061Y1623154D01*
X188058Y1623160D01*
X187975Y1623239D01*
X187890Y1623322D01*
X187884Y1623326D01*
X187880Y1623329D01*
X187863Y1623337D01*
X187743Y1623403D01*
X186158Y1624059D01*
X183371Y1626846D01*
X181863Y1630487D01*
X181863Y1651193D01*
X183371Y1654834D01*
X186158Y1657621D01*
X189799Y1659129D01*
X193741Y1659129D01*
X197382Y1657621D01*
X200169Y1654834D01*
X201677Y1651193D01*
X201677Y1630487D01*
X200169Y1626846D01*
X197382Y1624059D01*
X195797Y1623403D01*
X195697Y1623341D01*
X195597Y1623281D01*
X195593Y1623277D01*
X195588Y1623273D01*
X195513Y1623183D01*
X195437Y1623095D01*
X195435Y1623089D01*
X195431Y1623084D01*
X195389Y1622975D01*
X195345Y1622866D01*
X195344Y1622859D01*
X195343Y1622854D01*
X195342Y1622836D01*
X195327Y1622700D01*
X195327Y1584209D01*
X195341Y1584118D01*
X195349Y1584028D01*
X195361Y1583998D01*
X195366Y1583966D01*
X195390Y1583922D01*
X195391Y1583918D01*
X195400Y1583902D01*
X195409Y1583885D01*
X195445Y1583801D01*
X195471Y1583769D01*
X195482Y1583748D01*
X195505Y1583726D01*
X195506Y1583724D01*
X195517Y1583707D01*
X195528Y1583698D01*
X195550Y1583670D01*
X195560Y1583660D01*
X195621Y1583616D01*
X195660Y1583579D01*
X195674Y1583573D01*
X195704Y1583547D01*
X195734Y1583535D01*
X195760Y1583516D01*
X195847Y1583489D01*
X195932Y1583455D01*
X195973Y1583451D01*
X195995Y1583444D01*
X196027Y1583445D01*
X196099Y1583437D01*
X402489Y1583437D01*
X402509Y1583440D01*
X402528Y1583438D01*
X402630Y1583460D01*
X402732Y1583476D01*
X402749Y1583486D01*
X402769Y1583490D01*
X402858Y1583543D01*
X402949Y1583592D01*
X402963Y1583606D01*
X402980Y1583616D01*
X403047Y1583695D01*
X403119Y1583770D01*
X403127Y1583788D01*
X403140Y1583803D01*
X403179Y1583899D01*
X403222Y1583993D01*
X403224Y1584013D01*
X403232Y1584031D01*
X403250Y1584198D01*
X403250Y1590653D01*
X405663Y1596478D01*
X410122Y1600937D01*
X415947Y1603350D01*
X422253Y1603350D01*
X428078Y1600937D01*
X432537Y1596478D01*
X434950Y1590653D01*
X434950Y1584347D01*
X432537Y1578522D01*
X428078Y1574063D01*
X422253Y1571650D01*
X415947Y1571650D01*
G37*
%LPD*%
%LPC*%
G36*
X216029Y684839D02*
X216029Y684839D01*
X208358Y686895D01*
X201481Y690865D01*
X195865Y696481D01*
X191895Y703358D01*
X189839Y711029D01*
X189839Y718971D01*
X191895Y726642D01*
X195865Y733519D01*
X201481Y739135D01*
X208358Y743105D01*
X216029Y745161D01*
X223971Y745161D01*
X231642Y743105D01*
X238519Y739135D01*
X244135Y733519D01*
X248105Y726642D01*
X250161Y718971D01*
X250161Y711029D01*
X248105Y703358D01*
X244135Y696481D01*
X238519Y690865D01*
X231642Y686895D01*
X223971Y684839D01*
X216029Y684839D01*
G37*
%LPD*%
%LPC*%
G36*
X1266029Y684839D02*
X1266029Y684839D01*
X1258358Y686895D01*
X1251481Y690865D01*
X1245865Y696481D01*
X1241895Y703358D01*
X1239839Y711029D01*
X1239839Y718971D01*
X1241895Y726642D01*
X1245865Y733519D01*
X1251481Y739135D01*
X1258358Y743105D01*
X1266029Y745161D01*
X1273971Y745161D01*
X1281642Y743105D01*
X1288519Y739135D01*
X1294135Y733519D01*
X1298105Y726642D01*
X1300161Y718971D01*
X1300161Y711029D01*
X1298105Y703358D01*
X1294135Y696481D01*
X1288519Y690865D01*
X1281642Y686895D01*
X1273971Y684839D01*
X1266029Y684839D01*
G37*
%LPD*%
%LPC*%
G36*
X812639Y1171249D02*
X812639Y1171249D01*
X804968Y1173305D01*
X798091Y1177275D01*
X792475Y1182891D01*
X788505Y1189768D01*
X786449Y1197439D01*
X786449Y1205381D01*
X788505Y1213052D01*
X792475Y1219929D01*
X798091Y1225545D01*
X804968Y1229515D01*
X812639Y1231571D01*
X820581Y1231571D01*
X828252Y1229515D01*
X835129Y1225545D01*
X840745Y1219929D01*
X844715Y1213052D01*
X846771Y1205381D01*
X846771Y1197439D01*
X844715Y1189768D01*
X840745Y1182891D01*
X835129Y1177275D01*
X828252Y1173305D01*
X820581Y1171249D01*
X812639Y1171249D01*
G37*
%LPD*%
%LPC*%
G36*
X816449Y1304599D02*
X816449Y1304599D01*
X808778Y1306655D01*
X801901Y1310625D01*
X796285Y1316241D01*
X792315Y1323118D01*
X790259Y1330789D01*
X790259Y1338731D01*
X792315Y1346402D01*
X796285Y1353279D01*
X801901Y1358895D01*
X808778Y1362865D01*
X816449Y1364921D01*
X824391Y1364921D01*
X832062Y1362865D01*
X838939Y1358895D01*
X844555Y1353279D01*
X848525Y1346402D01*
X850581Y1338731D01*
X850581Y1330789D01*
X848525Y1323118D01*
X844555Y1316241D01*
X838939Y1310625D01*
X832062Y1306655D01*
X824391Y1304599D01*
X816449Y1304599D01*
G37*
%LPD*%
%LPC*%
G36*
X816449Y1430329D02*
X816449Y1430329D01*
X808778Y1432385D01*
X801901Y1436355D01*
X796285Y1441971D01*
X792315Y1448848D01*
X790259Y1456519D01*
X790259Y1464461D01*
X792315Y1472132D01*
X796285Y1479009D01*
X801901Y1484625D01*
X808778Y1488595D01*
X816449Y1490651D01*
X824391Y1490651D01*
X832062Y1488595D01*
X838939Y1484625D01*
X844555Y1479009D01*
X848525Y1472132D01*
X850581Y1464461D01*
X850581Y1456519D01*
X848525Y1448848D01*
X844555Y1441971D01*
X838939Y1436355D01*
X832062Y1432385D01*
X824391Y1430329D01*
X816449Y1430329D01*
G37*
%LPD*%
%LPC*%
G36*
X87255Y1368489D02*
X87255Y1368489D01*
X80792Y1370221D01*
X74997Y1373566D01*
X70266Y1378297D01*
X66921Y1384092D01*
X65189Y1390555D01*
X65189Y1397245D01*
X66921Y1403708D01*
X70266Y1409503D01*
X74997Y1414234D01*
X80792Y1417579D01*
X87255Y1419311D01*
X93945Y1419311D01*
X100408Y1417579D01*
X106203Y1414234D01*
X110934Y1409503D01*
X114279Y1403708D01*
X116011Y1397245D01*
X116011Y1390555D01*
X114279Y1384092D01*
X110934Y1378297D01*
X106203Y1373566D01*
X100408Y1370221D01*
X93945Y1368489D01*
X87255Y1368489D01*
G37*
%LPD*%
%LPC*%
G36*
X1413135Y1230059D02*
X1413135Y1230059D01*
X1406672Y1231791D01*
X1400877Y1235136D01*
X1396146Y1239867D01*
X1392801Y1245662D01*
X1391069Y1252125D01*
X1391069Y1258815D01*
X1392801Y1265278D01*
X1396146Y1271073D01*
X1400877Y1275804D01*
X1406672Y1279149D01*
X1413135Y1280881D01*
X1419825Y1280881D01*
X1426288Y1279149D01*
X1432083Y1275804D01*
X1436814Y1271073D01*
X1440159Y1265278D01*
X1441891Y1258815D01*
X1441891Y1252125D01*
X1440159Y1245662D01*
X1436814Y1239867D01*
X1432083Y1235136D01*
X1426288Y1231791D01*
X1419825Y1230059D01*
X1413135Y1230059D01*
G37*
%LPD*%
%LPC*%
G36*
X74555Y911289D02*
X74555Y911289D01*
X68092Y913021D01*
X62297Y916366D01*
X57566Y921097D01*
X54221Y926892D01*
X52489Y933355D01*
X52489Y940045D01*
X54221Y946508D01*
X57566Y952303D01*
X62297Y957034D01*
X68092Y960379D01*
X74555Y962111D01*
X81245Y962111D01*
X87708Y960379D01*
X93503Y957034D01*
X98234Y952303D01*
X101579Y946508D01*
X103311Y940045D01*
X103311Y933355D01*
X101579Y926892D01*
X98234Y921097D01*
X93503Y916366D01*
X87708Y913021D01*
X81245Y911289D01*
X74555Y911289D01*
G37*
%LPD*%
%LPC*%
G36*
X712375Y1772479D02*
X712375Y1772479D01*
X705912Y1774211D01*
X700117Y1777556D01*
X695386Y1782287D01*
X692041Y1788082D01*
X690309Y1794545D01*
X690309Y1801235D01*
X692041Y1807698D01*
X695386Y1813493D01*
X700117Y1818224D01*
X705912Y1821569D01*
X712375Y1823301D01*
X719065Y1823301D01*
X725528Y1821569D01*
X731323Y1818224D01*
X736054Y1813493D01*
X739399Y1807698D01*
X741131Y1801235D01*
X741131Y1794545D01*
X739399Y1788082D01*
X736054Y1782287D01*
X731323Y1777556D01*
X725528Y1774211D01*
X719065Y1772479D01*
X712375Y1772479D01*
G37*
%LPD*%
%LPC*%
G36*
X1141635Y1764859D02*
X1141635Y1764859D01*
X1135172Y1766591D01*
X1129377Y1769936D01*
X1124646Y1774667D01*
X1121301Y1780462D01*
X1119569Y1786925D01*
X1119569Y1793615D01*
X1121301Y1800078D01*
X1124646Y1805873D01*
X1129377Y1810604D01*
X1135172Y1813949D01*
X1141635Y1815681D01*
X1148325Y1815681D01*
X1154788Y1813949D01*
X1160583Y1810604D01*
X1165314Y1805873D01*
X1168659Y1800078D01*
X1170391Y1793615D01*
X1170391Y1786925D01*
X1168659Y1780462D01*
X1165314Y1774667D01*
X1160583Y1769936D01*
X1154788Y1766591D01*
X1148325Y1764859D01*
X1141635Y1764859D01*
G37*
%LPD*%
%LPC*%
G36*
X87255Y1812989D02*
X87255Y1812989D01*
X80792Y1814721D01*
X74997Y1818066D01*
X70266Y1822797D01*
X66921Y1828592D01*
X65189Y1835055D01*
X65189Y1841745D01*
X66921Y1848208D01*
X70266Y1854003D01*
X74997Y1858734D01*
X80792Y1862079D01*
X87255Y1863811D01*
X93945Y1863811D01*
X100408Y1862079D01*
X106203Y1858734D01*
X110934Y1854003D01*
X114279Y1848208D01*
X116011Y1841745D01*
X116011Y1835055D01*
X114279Y1828592D01*
X110934Y1822797D01*
X106203Y1818066D01*
X100408Y1814721D01*
X93945Y1812989D01*
X87255Y1812989D01*
G37*
%LPD*%
%LPC*%
G36*
X87255Y1597089D02*
X87255Y1597089D01*
X80792Y1598821D01*
X74997Y1602166D01*
X70266Y1606897D01*
X66921Y1612692D01*
X65189Y1619155D01*
X65189Y1625845D01*
X66921Y1632308D01*
X70266Y1638103D01*
X74997Y1642834D01*
X80792Y1646179D01*
X87255Y1647911D01*
X93945Y1647911D01*
X100408Y1646179D01*
X106203Y1642834D01*
X110934Y1638103D01*
X114279Y1632308D01*
X116011Y1625845D01*
X116011Y1619155D01*
X114279Y1612692D01*
X110934Y1606897D01*
X106203Y1602166D01*
X100408Y1598821D01*
X93945Y1597089D01*
X87255Y1597089D01*
G37*
%LPD*%
%LPC*%
G36*
X87255Y1139889D02*
X87255Y1139889D01*
X80792Y1141621D01*
X74997Y1144966D01*
X70266Y1149697D01*
X66921Y1155492D01*
X65189Y1161955D01*
X65189Y1168645D01*
X66921Y1175108D01*
X70266Y1180903D01*
X74997Y1185634D01*
X80792Y1188979D01*
X87255Y1190711D01*
X93945Y1190711D01*
X100408Y1188979D01*
X106203Y1185634D01*
X110934Y1180903D01*
X114279Y1175108D01*
X116011Y1168645D01*
X116011Y1161955D01*
X114279Y1155492D01*
X110934Y1149697D01*
X106203Y1144966D01*
X100408Y1141621D01*
X93945Y1139889D01*
X87255Y1139889D01*
G37*
%LPD*%
%LPC*%
G36*
X491395Y1773749D02*
X491395Y1773749D01*
X484932Y1775481D01*
X479137Y1778826D01*
X474406Y1783557D01*
X471061Y1789352D01*
X469329Y1795815D01*
X469329Y1802505D01*
X471061Y1808968D01*
X474406Y1814763D01*
X479137Y1819494D01*
X484932Y1822839D01*
X491395Y1824571D01*
X498085Y1824571D01*
X504548Y1822839D01*
X510343Y1819494D01*
X515074Y1814763D01*
X518419Y1808968D01*
X520151Y1802505D01*
X520151Y1795815D01*
X518419Y1789352D01*
X515074Y1783557D01*
X510343Y1778826D01*
X504548Y1775481D01*
X498085Y1773749D01*
X491395Y1773749D01*
G37*
%LPD*%
%LPC*%
G36*
X913035Y799659D02*
X913035Y799659D01*
X906572Y801391D01*
X900777Y804736D01*
X896046Y809467D01*
X892701Y815262D01*
X890969Y821725D01*
X890969Y828415D01*
X892701Y834878D01*
X896046Y840673D01*
X900777Y845404D01*
X906572Y848749D01*
X913035Y850481D01*
X919725Y850481D01*
X926188Y848749D01*
X931983Y845404D01*
X936714Y840673D01*
X940059Y834878D01*
X941791Y828415D01*
X941791Y821725D01*
X940059Y815262D01*
X936714Y809467D01*
X931983Y804736D01*
X926188Y801391D01*
X919725Y799659D01*
X913035Y799659D01*
G37*
%LPD*%
%LPC*%
G36*
X1217835Y837759D02*
X1217835Y837759D01*
X1211372Y839491D01*
X1205577Y842836D01*
X1200846Y847567D01*
X1197501Y853362D01*
X1195769Y859825D01*
X1195769Y866515D01*
X1197501Y872978D01*
X1200846Y878773D01*
X1205577Y883504D01*
X1211372Y886849D01*
X1217835Y888581D01*
X1224525Y888581D01*
X1230988Y886849D01*
X1236783Y883504D01*
X1241514Y878773D01*
X1244859Y872978D01*
X1246591Y866515D01*
X1246591Y859825D01*
X1244859Y853362D01*
X1241514Y847567D01*
X1236783Y842836D01*
X1230988Y839491D01*
X1224525Y837759D01*
X1217835Y837759D01*
G37*
%LPD*%
%LPC*%
G36*
X97940Y1025900D02*
X97940Y1025900D01*
X91177Y1028701D01*
X86001Y1033877D01*
X83200Y1040640D01*
X83200Y1047960D01*
X86001Y1054723D01*
X91177Y1059899D01*
X97940Y1062700D01*
X105260Y1062700D01*
X112023Y1059899D01*
X117199Y1054723D01*
X120000Y1047960D01*
X120000Y1040640D01*
X117199Y1033877D01*
X112023Y1028701D01*
X105260Y1025900D01*
X97940Y1025900D01*
G37*
%LPD*%
%LPC*%
G36*
X97940Y1483100D02*
X97940Y1483100D01*
X91177Y1485901D01*
X86001Y1491077D01*
X83200Y1497840D01*
X83200Y1505160D01*
X86001Y1511923D01*
X91177Y1517099D01*
X97940Y1519900D01*
X105260Y1519900D01*
X112023Y1517099D01*
X117199Y1511923D01*
X120000Y1505160D01*
X120000Y1497840D01*
X117199Y1491077D01*
X112023Y1485901D01*
X105260Y1483100D01*
X97940Y1483100D01*
G37*
%LPD*%
%LPC*%
G36*
X97940Y1254500D02*
X97940Y1254500D01*
X91177Y1257301D01*
X86001Y1262477D01*
X83200Y1269240D01*
X83200Y1276560D01*
X86001Y1283323D01*
X91177Y1288499D01*
X97940Y1291300D01*
X105260Y1291300D01*
X112023Y1288499D01*
X117199Y1283323D01*
X120000Y1276560D01*
X120000Y1269240D01*
X117199Y1262477D01*
X112023Y1257301D01*
X105260Y1254500D01*
X97940Y1254500D01*
G37*
%LPD*%
%LPC*%
G36*
X85240Y797300D02*
X85240Y797300D01*
X78477Y800101D01*
X73301Y805277D01*
X70500Y812040D01*
X70500Y819360D01*
X73301Y826123D01*
X78477Y831299D01*
X85240Y834100D01*
X92560Y834100D01*
X99323Y831299D01*
X104499Y826123D01*
X107300Y819360D01*
X107300Y812040D01*
X104499Y805277D01*
X99323Y800101D01*
X92560Y797300D01*
X85240Y797300D01*
G37*
%LPD*%
%LPC*%
G36*
X1423820Y1183070D02*
X1423820Y1183070D01*
X1417057Y1185871D01*
X1411881Y1191047D01*
X1409080Y1197810D01*
X1409080Y1205130D01*
X1411881Y1211893D01*
X1417057Y1217069D01*
X1423820Y1219870D01*
X1431140Y1219870D01*
X1437903Y1217069D01*
X1443079Y1211893D01*
X1445880Y1205130D01*
X1445880Y1197810D01*
X1443079Y1191047D01*
X1437903Y1185871D01*
X1431140Y1183070D01*
X1423820Y1183070D01*
G37*
%LPD*%
%LPC*%
G36*
X591060Y1768490D02*
X591060Y1768490D01*
X584297Y1771291D01*
X579121Y1776467D01*
X576320Y1783230D01*
X576320Y1790550D01*
X579121Y1797313D01*
X584297Y1802489D01*
X591060Y1805290D01*
X598380Y1805290D01*
X605143Y1802489D01*
X610319Y1797313D01*
X613120Y1790550D01*
X613120Y1783230D01*
X610319Y1776467D01*
X605143Y1771291D01*
X598380Y1768490D01*
X591060Y1768490D01*
G37*
%LPD*%
%LPC*%
G36*
X1020320Y1760870D02*
X1020320Y1760870D01*
X1013557Y1763671D01*
X1008381Y1768847D01*
X1005580Y1775610D01*
X1005580Y1782930D01*
X1008381Y1789693D01*
X1013557Y1794869D01*
X1020320Y1797670D01*
X1027640Y1797670D01*
X1034403Y1794869D01*
X1039579Y1789693D01*
X1042380Y1782930D01*
X1042380Y1775610D01*
X1039579Y1768847D01*
X1034403Y1763671D01*
X1027640Y1760870D01*
X1020320Y1760870D01*
G37*
%LPD*%
%LPC*%
G36*
X791720Y795670D02*
X791720Y795670D01*
X784957Y798471D01*
X779781Y803647D01*
X776980Y810410D01*
X776980Y817730D01*
X779781Y824493D01*
X784957Y829669D01*
X791720Y832470D01*
X799040Y832470D01*
X805803Y829669D01*
X810979Y824493D01*
X813780Y817730D01*
X813780Y810410D01*
X810979Y803647D01*
X805803Y798471D01*
X799040Y795670D01*
X791720Y795670D01*
G37*
%LPD*%
%LPC*%
G36*
X370080Y1769760D02*
X370080Y1769760D01*
X363317Y1772561D01*
X358141Y1777737D01*
X355340Y1784500D01*
X355340Y1791820D01*
X358141Y1798583D01*
X363317Y1803759D01*
X370080Y1806560D01*
X377400Y1806560D01*
X384163Y1803759D01*
X389339Y1798583D01*
X392140Y1791820D01*
X392140Y1784500D01*
X389339Y1777737D01*
X384163Y1772561D01*
X377400Y1769760D01*
X370080Y1769760D01*
G37*
%LPD*%
%LPC*%
G36*
X97940Y1699000D02*
X97940Y1699000D01*
X91177Y1701801D01*
X86001Y1706977D01*
X83200Y1713740D01*
X83200Y1721060D01*
X86001Y1727823D01*
X91177Y1732999D01*
X97940Y1735800D01*
X105260Y1735800D01*
X112023Y1732999D01*
X117199Y1727823D01*
X120000Y1721060D01*
X120000Y1713740D01*
X117199Y1706977D01*
X112023Y1701801D01*
X105260Y1699000D01*
X97940Y1699000D01*
G37*
%LPD*%
%LPC*%
G36*
X809559Y1842261D02*
X809559Y1842261D01*
X805918Y1843769D01*
X803131Y1846556D01*
X801623Y1850197D01*
X801623Y1870903D01*
X803131Y1874544D01*
X805918Y1877331D01*
X809559Y1878839D01*
X813501Y1878839D01*
X817142Y1877331D01*
X819929Y1874544D01*
X821437Y1870903D01*
X821437Y1850197D01*
X819929Y1846556D01*
X817142Y1843769D01*
X813501Y1842261D01*
X809559Y1842261D01*
G37*
%LPD*%
%LPC*%
G36*
X240599Y1622551D02*
X240599Y1622551D01*
X236958Y1624059D01*
X234171Y1626846D01*
X232663Y1630487D01*
X232663Y1651193D01*
X234171Y1654834D01*
X236958Y1657621D01*
X240599Y1659129D01*
X244541Y1659129D01*
X248182Y1657621D01*
X250969Y1654834D01*
X252477Y1651193D01*
X252477Y1630487D01*
X250969Y1626846D01*
X248182Y1624059D01*
X244541Y1622551D01*
X240599Y1622551D01*
G37*
%LPD*%
%LPC*%
G36*
X784159Y1842261D02*
X784159Y1842261D01*
X780518Y1843769D01*
X777731Y1846556D01*
X776223Y1850197D01*
X776223Y1870903D01*
X777731Y1874544D01*
X780518Y1877331D01*
X784159Y1878839D01*
X788101Y1878839D01*
X791742Y1877331D01*
X794529Y1874544D01*
X796037Y1870903D01*
X796037Y1850197D01*
X794529Y1846556D01*
X791742Y1843769D01*
X788101Y1842261D01*
X784159Y1842261D01*
G37*
%LPD*%
%LPC*%
G36*
X215199Y1622551D02*
X215199Y1622551D01*
X211558Y1624059D01*
X208771Y1626846D01*
X207263Y1630487D01*
X207263Y1651193D01*
X208771Y1654834D01*
X211558Y1657621D01*
X215199Y1659129D01*
X219141Y1659129D01*
X222782Y1657621D01*
X225569Y1654834D01*
X227077Y1651193D01*
X227077Y1630487D01*
X225569Y1626846D01*
X222782Y1624059D01*
X219141Y1622551D01*
X215199Y1622551D01*
G37*
%LPD*%
%LPC*%
G36*
X1082188Y1068745D02*
X1082188Y1068745D01*
X1077769Y1070576D01*
X1074386Y1073959D01*
X1072555Y1078378D01*
X1072555Y1083162D01*
X1074386Y1087581D01*
X1077769Y1090964D01*
X1082188Y1092795D01*
X1086972Y1092795D01*
X1091391Y1090964D01*
X1094774Y1087581D01*
X1096605Y1083162D01*
X1096605Y1078378D01*
X1094774Y1073959D01*
X1091391Y1070576D01*
X1086972Y1068745D01*
X1082188Y1068745D01*
G37*
%LPD*%
%LPC*%
G36*
X492908Y1067475D02*
X492908Y1067475D01*
X488489Y1069306D01*
X485106Y1072689D01*
X483275Y1077108D01*
X483275Y1081892D01*
X485106Y1086311D01*
X488489Y1089694D01*
X492908Y1091525D01*
X497692Y1091525D01*
X502111Y1089694D01*
X505494Y1086311D01*
X507325Y1081892D01*
X507325Y1077108D01*
X505494Y1072689D01*
X502111Y1069306D01*
X497692Y1067475D01*
X492908Y1067475D01*
G37*
%LPD*%
%LPC*%
G36*
X1120288Y1576745D02*
X1120288Y1576745D01*
X1115869Y1578576D01*
X1112486Y1581959D01*
X1110655Y1586378D01*
X1110655Y1591162D01*
X1112486Y1595581D01*
X1115869Y1598964D01*
X1120288Y1600795D01*
X1125072Y1600795D01*
X1129491Y1598964D01*
X1132874Y1595581D01*
X1134705Y1591162D01*
X1134705Y1586378D01*
X1132874Y1581959D01*
X1129491Y1578576D01*
X1125072Y1576745D01*
X1120288Y1576745D01*
G37*
%LPD*%
%LPC*%
G36*
X492908Y1575475D02*
X492908Y1575475D01*
X488489Y1577306D01*
X485106Y1580689D01*
X483275Y1585108D01*
X483275Y1589892D01*
X485106Y1594311D01*
X488489Y1597694D01*
X492908Y1599525D01*
X497692Y1599525D01*
X502111Y1597694D01*
X505494Y1594311D01*
X507325Y1589892D01*
X507325Y1585108D01*
X505494Y1580689D01*
X502111Y1577306D01*
X497692Y1575475D01*
X492908Y1575475D01*
G37*
%LPD*%
%LPC*%
G36*
X1158388Y1576745D02*
X1158388Y1576745D01*
X1153969Y1578576D01*
X1150586Y1581959D01*
X1148755Y1586378D01*
X1148755Y1591162D01*
X1150586Y1595581D01*
X1153969Y1598964D01*
X1158388Y1600795D01*
X1163172Y1600795D01*
X1167591Y1598964D01*
X1170974Y1595581D01*
X1172805Y1591162D01*
X1172805Y1586378D01*
X1170974Y1581959D01*
X1167591Y1578576D01*
X1163172Y1576745D01*
X1158388Y1576745D01*
G37*
%LPD*%
%LPC*%
G36*
X569108Y1067475D02*
X569108Y1067475D01*
X564689Y1069306D01*
X561306Y1072689D01*
X559475Y1077108D01*
X559475Y1081892D01*
X561306Y1086311D01*
X564689Y1089694D01*
X569108Y1091525D01*
X573892Y1091525D01*
X578311Y1089694D01*
X581694Y1086311D01*
X583525Y1081892D01*
X583525Y1077108D01*
X581694Y1072689D01*
X578311Y1069306D01*
X573892Y1067475D01*
X569108Y1067475D01*
G37*
%LPD*%
%LPC*%
G36*
X416708Y1067475D02*
X416708Y1067475D01*
X412289Y1069306D01*
X408906Y1072689D01*
X407075Y1077108D01*
X407075Y1081892D01*
X408906Y1086311D01*
X412289Y1089694D01*
X416708Y1091525D01*
X421492Y1091525D01*
X425911Y1089694D01*
X429294Y1086311D01*
X431125Y1081892D01*
X431125Y1077108D01*
X429294Y1072689D01*
X425911Y1069306D01*
X421492Y1067475D01*
X416708Y1067475D01*
G37*
%LPD*%
%LPC*%
G36*
X1313337Y1818795D02*
X1313337Y1818795D01*
X1309193Y1820512D01*
X1306022Y1823683D01*
X1304305Y1827827D01*
X1304305Y1832313D01*
X1306022Y1836457D01*
X1309193Y1839628D01*
X1313337Y1841345D01*
X1317823Y1841345D01*
X1321967Y1839628D01*
X1325138Y1836457D01*
X1326855Y1832313D01*
X1326855Y1827827D01*
X1325138Y1823683D01*
X1321967Y1820512D01*
X1317823Y1818795D01*
X1313337Y1818795D01*
G37*
%LPD*%
%LPC*%
G36*
X1263337Y1818795D02*
X1263337Y1818795D01*
X1259193Y1820512D01*
X1256022Y1823683D01*
X1254305Y1827827D01*
X1254305Y1832313D01*
X1256022Y1836457D01*
X1259193Y1839628D01*
X1263337Y1841345D01*
X1267823Y1841345D01*
X1271967Y1839628D01*
X1275138Y1836457D01*
X1276855Y1832313D01*
X1276855Y1827827D01*
X1275138Y1823683D01*
X1271967Y1820512D01*
X1267823Y1818795D01*
X1263337Y1818795D01*
G37*
%LPD*%
%LPC*%
G36*
X1313337Y1743795D02*
X1313337Y1743795D01*
X1309193Y1745512D01*
X1306022Y1748683D01*
X1304305Y1752827D01*
X1304305Y1757313D01*
X1306022Y1761457D01*
X1309193Y1764628D01*
X1313337Y1766345D01*
X1317823Y1766345D01*
X1321967Y1764628D01*
X1325138Y1761457D01*
X1326855Y1757313D01*
X1326855Y1752827D01*
X1325138Y1748683D01*
X1321967Y1745512D01*
X1317823Y1743795D01*
X1313337Y1743795D01*
G37*
%LPD*%
%LPC*%
G36*
X1213337Y1743795D02*
X1213337Y1743795D01*
X1209193Y1745512D01*
X1206022Y1748683D01*
X1204305Y1752827D01*
X1204305Y1757313D01*
X1206022Y1761457D01*
X1209193Y1764628D01*
X1213337Y1766345D01*
X1217823Y1766345D01*
X1221967Y1764628D01*
X1225138Y1761457D01*
X1226855Y1757313D01*
X1226855Y1752827D01*
X1225138Y1748683D01*
X1221967Y1745512D01*
X1217823Y1743795D01*
X1213337Y1743795D01*
G37*
%LPD*%
%LPC*%
G36*
X1213337Y1818795D02*
X1213337Y1818795D01*
X1209193Y1820512D01*
X1206022Y1823683D01*
X1204305Y1827827D01*
X1204305Y1832313D01*
X1206022Y1836457D01*
X1209193Y1839628D01*
X1213337Y1841345D01*
X1217823Y1841345D01*
X1221967Y1839628D01*
X1225138Y1836457D01*
X1226855Y1832313D01*
X1226855Y1827827D01*
X1225138Y1823683D01*
X1221967Y1820512D01*
X1217823Y1818795D01*
X1213337Y1818795D01*
G37*
%LPD*%
%LPC*%
G36*
X595677Y893315D02*
X595677Y893315D01*
X591808Y894918D01*
X588848Y897878D01*
X587245Y901747D01*
X587245Y905933D01*
X588848Y909802D01*
X591808Y912762D01*
X595677Y914365D01*
X599863Y914365D01*
X603732Y912762D01*
X606692Y909802D01*
X608295Y905933D01*
X608295Y901747D01*
X606692Y897878D01*
X603732Y894918D01*
X599863Y893315D01*
X595677Y893315D01*
G37*
%LPD*%
%LPC*%
G36*
X346757Y872125D02*
X346757Y872125D01*
X342888Y873728D01*
X339928Y876688D01*
X338325Y880557D01*
X338325Y884743D01*
X339928Y888612D01*
X342888Y891572D01*
X346757Y893175D01*
X350943Y893175D01*
X354812Y891572D01*
X357772Y888612D01*
X359375Y884743D01*
X359375Y880557D01*
X357772Y876688D01*
X354812Y873728D01*
X350943Y872125D01*
X346757Y872125D01*
G37*
%LPD*%
%LPC*%
G36*
X321757Y872125D02*
X321757Y872125D01*
X317888Y873728D01*
X314928Y876688D01*
X313325Y880557D01*
X313325Y884743D01*
X314928Y888612D01*
X317888Y891572D01*
X321757Y893175D01*
X325943Y893175D01*
X329812Y891572D01*
X332772Y888612D01*
X334375Y884743D01*
X334375Y880557D01*
X332772Y876688D01*
X329812Y873728D01*
X325943Y872125D01*
X321757Y872125D01*
G37*
%LPD*%
%LPC*%
G36*
X570677Y868315D02*
X570677Y868315D01*
X566808Y869918D01*
X563848Y872878D01*
X562245Y876747D01*
X562245Y880933D01*
X563848Y884802D01*
X566808Y887762D01*
X570677Y889365D01*
X574863Y889365D01*
X578732Y887762D01*
X581692Y884802D01*
X583295Y880933D01*
X583295Y876747D01*
X581692Y872878D01*
X578732Y869918D01*
X574863Y868315D01*
X570677Y868315D01*
G37*
%LPD*%
%LPC*%
G36*
X595677Y868315D02*
X595677Y868315D01*
X591808Y869918D01*
X588848Y872878D01*
X587245Y876747D01*
X587245Y880933D01*
X588848Y884802D01*
X591808Y887762D01*
X595677Y889365D01*
X599863Y889365D01*
X603732Y887762D01*
X606692Y884802D01*
X608295Y880933D01*
X608295Y876747D01*
X606692Y872878D01*
X603732Y869918D01*
X599863Y868315D01*
X595677Y868315D01*
G37*
%LPD*%
%LPC*%
G36*
X346757Y847125D02*
X346757Y847125D01*
X342888Y848728D01*
X339928Y851688D01*
X338325Y855557D01*
X338325Y859743D01*
X339928Y863612D01*
X342888Y866572D01*
X346757Y868175D01*
X350943Y868175D01*
X354812Y866572D01*
X357772Y863612D01*
X359375Y859743D01*
X359375Y855557D01*
X357772Y851688D01*
X354812Y848728D01*
X350943Y847125D01*
X346757Y847125D01*
G37*
%LPD*%
%LPC*%
G36*
X595677Y843315D02*
X595677Y843315D01*
X591808Y844918D01*
X588848Y847878D01*
X587245Y851747D01*
X587245Y855933D01*
X588848Y859802D01*
X591808Y862762D01*
X595677Y864365D01*
X599863Y864365D01*
X603732Y862762D01*
X606692Y859802D01*
X608295Y855933D01*
X608295Y851747D01*
X606692Y847878D01*
X603732Y844918D01*
X599863Y843315D01*
X595677Y843315D01*
G37*
%LPD*%
%LPC*%
G36*
X346757Y897125D02*
X346757Y897125D01*
X342888Y898728D01*
X339928Y901688D01*
X338325Y905557D01*
X338325Y909743D01*
X339928Y913612D01*
X342888Y916572D01*
X346757Y918175D01*
X350943Y918175D01*
X354812Y916572D01*
X357772Y913612D01*
X359375Y909743D01*
X359375Y905557D01*
X357772Y901688D01*
X354812Y898728D01*
X350943Y897125D01*
X346757Y897125D01*
G37*
%LPD*%
%LPC*%
G36*
X442263Y1789683D02*
X442263Y1789683D01*
X442263Y1807543D01*
X444536Y1807244D01*
X446994Y1806585D01*
X449346Y1805611D01*
X451550Y1804338D01*
X453569Y1802789D01*
X455369Y1800989D01*
X456918Y1798970D01*
X458191Y1796766D01*
X459165Y1794414D01*
X459824Y1791956D01*
X460123Y1789683D01*
X442263Y1789683D01*
G37*
%LPD*%
%LPC*%
G36*
X103123Y1341423D02*
X103123Y1341423D01*
X103123Y1359283D01*
X105396Y1358984D01*
X107854Y1358325D01*
X110206Y1357351D01*
X112410Y1356078D01*
X114429Y1354529D01*
X116229Y1352729D01*
X117778Y1350710D01*
X119051Y1348506D01*
X120025Y1346154D01*
X120684Y1343696D01*
X120983Y1341423D01*
X103123Y1341423D01*
G37*
%LPD*%
%LPC*%
G36*
X103123Y1112823D02*
X103123Y1112823D01*
X103123Y1130683D01*
X105396Y1130384D01*
X107854Y1129725D01*
X110206Y1128751D01*
X112410Y1127478D01*
X114429Y1125929D01*
X116229Y1124129D01*
X117778Y1122110D01*
X119051Y1119906D01*
X120025Y1117554D01*
X120684Y1115096D01*
X120983Y1112823D01*
X103123Y1112823D01*
G37*
%LPD*%
%LPC*%
G36*
X663243Y1788413D02*
X663243Y1788413D01*
X663243Y1806273D01*
X665516Y1805974D01*
X667974Y1805315D01*
X670326Y1804341D01*
X672530Y1803068D01*
X674549Y1801519D01*
X676349Y1799719D01*
X677898Y1797700D01*
X679171Y1795496D01*
X680145Y1793144D01*
X680804Y1790686D01*
X681103Y1788413D01*
X663243Y1788413D01*
G37*
%LPD*%
%LPC*%
G36*
X90423Y884223D02*
X90423Y884223D01*
X90423Y902083D01*
X92696Y901784D01*
X95154Y901125D01*
X97506Y900151D01*
X99710Y898878D01*
X101729Y897329D01*
X103529Y895529D01*
X105078Y893510D01*
X106351Y891306D01*
X107325Y888954D01*
X107984Y886496D01*
X108283Y884223D01*
X90423Y884223D01*
G37*
%LPD*%
%LPC*%
G36*
X1168703Y853693D02*
X1168703Y853693D01*
X1168703Y871553D01*
X1170976Y871254D01*
X1173434Y870595D01*
X1175786Y869621D01*
X1177990Y868348D01*
X1180009Y866799D01*
X1181809Y864999D01*
X1183358Y862980D01*
X1184631Y860776D01*
X1185605Y858424D01*
X1186264Y855966D01*
X1186563Y853693D01*
X1168703Y853693D01*
G37*
%LPD*%
%LPC*%
G36*
X863903Y815593D02*
X863903Y815593D01*
X863903Y833453D01*
X866176Y833154D01*
X868634Y832495D01*
X870986Y831521D01*
X873190Y830248D01*
X875209Y828699D01*
X877009Y826899D01*
X878558Y824880D01*
X879831Y822676D01*
X880805Y820324D01*
X881464Y817866D01*
X881763Y815593D01*
X863903Y815593D01*
G37*
%LPD*%
%LPC*%
G36*
X103123Y1785923D02*
X103123Y1785923D01*
X103123Y1803783D01*
X105396Y1803484D01*
X107854Y1802825D01*
X110206Y1801851D01*
X112410Y1800578D01*
X114429Y1799029D01*
X116229Y1797229D01*
X117778Y1795210D01*
X119051Y1793006D01*
X120025Y1790654D01*
X120684Y1788196D01*
X120983Y1785923D01*
X103123Y1785923D01*
G37*
%LPD*%
%LPC*%
G36*
X103123Y1570023D02*
X103123Y1570023D01*
X103123Y1587883D01*
X105396Y1587584D01*
X107854Y1586925D01*
X110206Y1585951D01*
X112410Y1584678D01*
X114429Y1583129D01*
X116229Y1581329D01*
X117778Y1579310D01*
X119051Y1577106D01*
X120025Y1574754D01*
X120684Y1572296D01*
X120983Y1570023D01*
X103123Y1570023D01*
G37*
%LPD*%
%LPC*%
G36*
X421357Y1789683D02*
X421357Y1789683D01*
X421656Y1791956D01*
X422315Y1794414D01*
X423289Y1796766D01*
X424562Y1798970D01*
X426111Y1800989D01*
X427911Y1802789D01*
X429930Y1804338D01*
X432134Y1805611D01*
X434486Y1806585D01*
X436944Y1807244D01*
X439217Y1807543D01*
X439217Y1789683D01*
X421357Y1789683D01*
G37*
%LPD*%
%LPC*%
G36*
X82217Y1570023D02*
X82217Y1570023D01*
X82516Y1572296D01*
X83175Y1574754D01*
X84149Y1577106D01*
X85422Y1579310D01*
X86971Y1581329D01*
X88771Y1583129D01*
X90790Y1584678D01*
X92994Y1585951D01*
X95346Y1586925D01*
X97804Y1587584D01*
X100077Y1587883D01*
X100077Y1570023D01*
X82217Y1570023D01*
G37*
%LPD*%
%LPC*%
G36*
X82217Y1785923D02*
X82217Y1785923D01*
X82516Y1788196D01*
X83175Y1790654D01*
X84149Y1793006D01*
X85422Y1795210D01*
X86971Y1797229D01*
X88771Y1799029D01*
X90790Y1800578D01*
X92994Y1801851D01*
X95346Y1802825D01*
X97804Y1803484D01*
X100077Y1803783D01*
X100077Y1785923D01*
X82217Y1785923D01*
G37*
%LPD*%
%LPC*%
G36*
X69517Y884223D02*
X69517Y884223D01*
X69816Y886496D01*
X70475Y888954D01*
X71449Y891306D01*
X72722Y893510D01*
X74271Y895529D01*
X76071Y897329D01*
X78090Y898878D01*
X80294Y900151D01*
X82646Y901125D01*
X85104Y901784D01*
X87377Y902083D01*
X87377Y884223D01*
X69517Y884223D01*
G37*
%LPD*%
%LPC*%
G36*
X103123Y1782877D02*
X103123Y1782877D01*
X120983Y1782877D01*
X120684Y1780604D01*
X120025Y1778146D01*
X119051Y1775794D01*
X117778Y1773590D01*
X116229Y1771571D01*
X114429Y1769771D01*
X112410Y1768222D01*
X110206Y1766949D01*
X107854Y1765975D01*
X105396Y1765316D01*
X103123Y1765017D01*
X103123Y1782877D01*
G37*
%LPD*%
%LPC*%
G36*
X103123Y1109777D02*
X103123Y1109777D01*
X120983Y1109777D01*
X120684Y1107504D01*
X120025Y1105046D01*
X119051Y1102694D01*
X117778Y1100490D01*
X116229Y1098471D01*
X114429Y1096671D01*
X112410Y1095122D01*
X110206Y1093849D01*
X107854Y1092875D01*
X105396Y1092216D01*
X103123Y1091917D01*
X103123Y1109777D01*
G37*
%LPD*%
%LPC*%
G36*
X90423Y881177D02*
X90423Y881177D01*
X108283Y881177D01*
X107984Y878904D01*
X107325Y876446D01*
X106351Y874094D01*
X105078Y871890D01*
X103529Y869871D01*
X101729Y868071D01*
X99710Y866522D01*
X97506Y865249D01*
X95154Y864275D01*
X92696Y863616D01*
X90423Y863317D01*
X90423Y881177D01*
G37*
%LPD*%
%LPC*%
G36*
X82217Y1112823D02*
X82217Y1112823D01*
X82516Y1115096D01*
X83175Y1117554D01*
X84149Y1119906D01*
X85422Y1122110D01*
X86971Y1124129D01*
X88771Y1125929D01*
X90790Y1127478D01*
X92994Y1128751D01*
X95346Y1129725D01*
X97804Y1130384D01*
X100077Y1130683D01*
X100077Y1112823D01*
X82217Y1112823D01*
G37*
%LPD*%
%LPC*%
G36*
X1147797Y853693D02*
X1147797Y853693D01*
X1148096Y855966D01*
X1148755Y858424D01*
X1149729Y860776D01*
X1151002Y862980D01*
X1152551Y864999D01*
X1154351Y866799D01*
X1156370Y868348D01*
X1158574Y869621D01*
X1160926Y870595D01*
X1163384Y871254D01*
X1165657Y871553D01*
X1165657Y853693D01*
X1147797Y853693D01*
G37*
%LPD*%
%LPC*%
G36*
X103123Y1338377D02*
X103123Y1338377D01*
X120983Y1338377D01*
X120684Y1336104D01*
X120025Y1333646D01*
X119051Y1331294D01*
X117778Y1329090D01*
X116229Y1327071D01*
X114429Y1325271D01*
X112410Y1323722D01*
X110206Y1322449D01*
X107854Y1321475D01*
X105396Y1320816D01*
X103123Y1320517D01*
X103123Y1338377D01*
G37*
%LPD*%
%LPC*%
G36*
X663243Y1785367D02*
X663243Y1785367D01*
X681103Y1785367D01*
X680804Y1783094D01*
X680145Y1780636D01*
X679171Y1778284D01*
X677898Y1776080D01*
X676349Y1774061D01*
X674549Y1772261D01*
X672530Y1770712D01*
X670326Y1769439D01*
X667974Y1768465D01*
X665516Y1767806D01*
X663243Y1767507D01*
X663243Y1785367D01*
G37*
%LPD*%
%LPC*%
G36*
X82217Y1341423D02*
X82217Y1341423D01*
X82516Y1343696D01*
X83175Y1346154D01*
X84149Y1348506D01*
X85422Y1350710D01*
X86971Y1352729D01*
X88771Y1354529D01*
X90790Y1356078D01*
X92994Y1357351D01*
X95346Y1358325D01*
X97804Y1358984D01*
X100077Y1359283D01*
X100077Y1341423D01*
X82217Y1341423D01*
G37*
%LPD*%
%LPC*%
G36*
X863903Y812547D02*
X863903Y812547D01*
X881763Y812547D01*
X881464Y810274D01*
X880805Y807816D01*
X879831Y805464D01*
X878558Y803260D01*
X877009Y801241D01*
X875209Y799441D01*
X873190Y797892D01*
X870986Y796619D01*
X868634Y795645D01*
X866176Y794986D01*
X863903Y794687D01*
X863903Y812547D01*
G37*
%LPD*%
%LPC*%
G36*
X1071597Y1780793D02*
X1071597Y1780793D01*
X1071896Y1783066D01*
X1072555Y1785524D01*
X1073529Y1787876D01*
X1074802Y1790080D01*
X1076351Y1792099D01*
X1078151Y1793899D01*
X1080170Y1795448D01*
X1082374Y1796721D01*
X1084726Y1797695D01*
X1087184Y1798354D01*
X1089457Y1798653D01*
X1089457Y1780793D01*
X1071597Y1780793D01*
G37*
%LPD*%
%LPC*%
G36*
X842997Y815593D02*
X842997Y815593D01*
X843296Y817866D01*
X843955Y820324D01*
X844929Y822676D01*
X846202Y824880D01*
X847751Y826899D01*
X849551Y828699D01*
X851570Y830248D01*
X853774Y831521D01*
X856126Y832495D01*
X858584Y833154D01*
X860857Y833453D01*
X860857Y815593D01*
X842997Y815593D01*
G37*
%LPD*%
%LPC*%
G36*
X442263Y1786637D02*
X442263Y1786637D01*
X460123Y1786637D01*
X459824Y1784364D01*
X459165Y1781906D01*
X458191Y1779554D01*
X456918Y1777350D01*
X455369Y1775331D01*
X453569Y1773531D01*
X451550Y1771982D01*
X449346Y1770709D01*
X446994Y1769735D01*
X444536Y1769076D01*
X442263Y1768777D01*
X442263Y1786637D01*
G37*
%LPD*%
%LPC*%
G36*
X642337Y1788413D02*
X642337Y1788413D01*
X642636Y1790686D01*
X643295Y1793144D01*
X644269Y1795496D01*
X645542Y1797700D01*
X647091Y1799719D01*
X648891Y1801519D01*
X650910Y1803068D01*
X653114Y1804341D01*
X655466Y1805315D01*
X657924Y1805974D01*
X660197Y1806273D01*
X660197Y1788413D01*
X642337Y1788413D01*
G37*
%LPD*%
%LPC*%
G36*
X1168703Y850647D02*
X1168703Y850647D01*
X1186563Y850647D01*
X1186264Y848374D01*
X1185605Y845916D01*
X1184631Y843564D01*
X1183358Y841360D01*
X1181809Y839341D01*
X1180009Y837541D01*
X1177990Y835992D01*
X1175786Y834719D01*
X1173434Y833745D01*
X1170976Y833086D01*
X1168703Y832787D01*
X1168703Y850647D01*
G37*
%LPD*%
%LPC*%
G36*
X103123Y1566977D02*
X103123Y1566977D01*
X120983Y1566977D01*
X120684Y1564704D01*
X120025Y1562246D01*
X119051Y1559894D01*
X117778Y1557690D01*
X116229Y1555671D01*
X114429Y1553871D01*
X112410Y1552322D01*
X110206Y1551049D01*
X107854Y1550075D01*
X105396Y1549416D01*
X103123Y1549117D01*
X103123Y1566977D01*
G37*
%LPD*%
%LPC*%
G36*
X97804Y1549416D02*
X97804Y1549416D01*
X95346Y1550075D01*
X92994Y1551049D01*
X90790Y1552322D01*
X88771Y1553871D01*
X86971Y1555671D01*
X85422Y1557690D01*
X84149Y1559894D01*
X83175Y1562246D01*
X82516Y1564704D01*
X82217Y1566977D01*
X100077Y1566977D01*
X100077Y1549117D01*
X97804Y1549416D01*
G37*
%LPD*%
%LPC*%
G36*
X1087184Y1760186D02*
X1087184Y1760186D01*
X1084726Y1760845D01*
X1082374Y1761819D01*
X1080170Y1763092D01*
X1078151Y1764641D01*
X1076351Y1766441D01*
X1074802Y1768460D01*
X1073529Y1770664D01*
X1072555Y1773016D01*
X1071896Y1775474D01*
X1071597Y1777747D01*
X1089457Y1777747D01*
X1089457Y1759887D01*
X1087184Y1760186D01*
G37*
%LPD*%
%LPC*%
G36*
X97804Y1092216D02*
X97804Y1092216D01*
X95346Y1092875D01*
X92994Y1093849D01*
X90790Y1095122D01*
X88771Y1096671D01*
X86971Y1098471D01*
X85422Y1100490D01*
X84149Y1102694D01*
X83175Y1105046D01*
X82516Y1107504D01*
X82217Y1109777D01*
X100077Y1109777D01*
X100077Y1091917D01*
X97804Y1092216D01*
G37*
%LPD*%
%LPC*%
G36*
X1163384Y833086D02*
X1163384Y833086D01*
X1160926Y833745D01*
X1158574Y834719D01*
X1156370Y835992D01*
X1154351Y837541D01*
X1152551Y839341D01*
X1151002Y841360D01*
X1149729Y843564D01*
X1148755Y845916D01*
X1148096Y848374D01*
X1147797Y850647D01*
X1165657Y850647D01*
X1165657Y832787D01*
X1163384Y833086D01*
G37*
%LPD*%
%LPC*%
G36*
X657924Y1767806D02*
X657924Y1767806D01*
X655466Y1768465D01*
X653114Y1769439D01*
X650910Y1770712D01*
X648891Y1772261D01*
X647091Y1774061D01*
X645542Y1776080D01*
X644269Y1778284D01*
X643295Y1780636D01*
X642636Y1783094D01*
X642337Y1785367D01*
X660197Y1785367D01*
X660197Y1767507D01*
X657924Y1767806D01*
G37*
%LPD*%
%LPC*%
G36*
X436944Y1769076D02*
X436944Y1769076D01*
X434486Y1769735D01*
X432134Y1770709D01*
X429930Y1771982D01*
X427911Y1773531D01*
X426111Y1775331D01*
X424562Y1777350D01*
X423289Y1779554D01*
X422315Y1781906D01*
X421656Y1784364D01*
X421357Y1786637D01*
X439217Y1786637D01*
X439217Y1768777D01*
X436944Y1769076D01*
G37*
%LPD*%
%LPC*%
G36*
X858584Y794986D02*
X858584Y794986D01*
X856126Y795645D01*
X853774Y796619D01*
X851570Y797892D01*
X849551Y799441D01*
X847751Y801241D01*
X846202Y803260D01*
X844929Y805464D01*
X843955Y807816D01*
X843296Y810274D01*
X842997Y812547D01*
X860857Y812547D01*
X860857Y794687D01*
X858584Y794986D01*
G37*
%LPD*%
%LPC*%
G36*
X85104Y863616D02*
X85104Y863616D01*
X82646Y864275D01*
X80294Y865249D01*
X78090Y866522D01*
X76071Y868071D01*
X74271Y869871D01*
X72722Y871890D01*
X71449Y874094D01*
X70475Y876446D01*
X69816Y878904D01*
X69517Y881177D01*
X87377Y881177D01*
X87377Y863317D01*
X85104Y863616D01*
G37*
%LPD*%
%LPC*%
G36*
X97804Y1320816D02*
X97804Y1320816D01*
X95346Y1321475D01*
X92994Y1322449D01*
X90790Y1323722D01*
X88771Y1325271D01*
X86971Y1327071D01*
X85422Y1329090D01*
X84149Y1331294D01*
X83175Y1333646D01*
X82516Y1336104D01*
X82217Y1338377D01*
X100077Y1338377D01*
X100077Y1320517D01*
X97804Y1320816D01*
G37*
%LPD*%
%LPC*%
G36*
X97804Y1765316D02*
X97804Y1765316D01*
X95346Y1765975D01*
X92994Y1766949D01*
X90790Y1768222D01*
X88771Y1769771D01*
X86971Y1771571D01*
X85422Y1773590D01*
X84149Y1775794D01*
X83175Y1778146D01*
X82516Y1780604D01*
X82217Y1782877D01*
X100077Y1782877D01*
X100077Y1765017D01*
X97804Y1765316D01*
G37*
%LPD*%
%LPC*%
G36*
X1349676Y1669605D02*
X1349676Y1669605D01*
X1346712Y1670833D01*
X1344443Y1673102D01*
X1343215Y1676066D01*
X1343215Y1679274D01*
X1344443Y1682238D01*
X1346712Y1684507D01*
X1349676Y1685735D01*
X1352884Y1685735D01*
X1355848Y1684507D01*
X1358117Y1682238D01*
X1359345Y1679274D01*
X1359345Y1676066D01*
X1358117Y1673102D01*
X1355848Y1670833D01*
X1352884Y1669605D01*
X1349676Y1669605D01*
G37*
%LPD*%
%LPC*%
G36*
X1413176Y1402905D02*
X1413176Y1402905D01*
X1410212Y1404133D01*
X1407943Y1406402D01*
X1406715Y1409366D01*
X1406715Y1412574D01*
X1407943Y1415538D01*
X1410212Y1417807D01*
X1413176Y1419035D01*
X1416384Y1419035D01*
X1419348Y1417807D01*
X1421617Y1415538D01*
X1422845Y1412574D01*
X1422845Y1409366D01*
X1421617Y1406402D01*
X1419348Y1404133D01*
X1416384Y1402905D01*
X1413176Y1402905D01*
G37*
%LPD*%
%LPC*%
G36*
X1070276Y1669605D02*
X1070276Y1669605D01*
X1067312Y1670833D01*
X1065043Y1673102D01*
X1063815Y1676066D01*
X1063815Y1679274D01*
X1065043Y1682238D01*
X1067312Y1684507D01*
X1070276Y1685735D01*
X1073484Y1685735D01*
X1076448Y1684507D01*
X1078717Y1682238D01*
X1079945Y1679274D01*
X1079945Y1676066D01*
X1078717Y1673102D01*
X1076448Y1670833D01*
X1073484Y1669605D01*
X1070276Y1669605D01*
G37*
%LPD*%
%LPC*%
G36*
X1298876Y945705D02*
X1298876Y945705D01*
X1295912Y946933D01*
X1293643Y949202D01*
X1292415Y952166D01*
X1292415Y955374D01*
X1293643Y958338D01*
X1295912Y960607D01*
X1298876Y961835D01*
X1302084Y961835D01*
X1305048Y960607D01*
X1307317Y958338D01*
X1308545Y955374D01*
X1308545Y952166D01*
X1307317Y949202D01*
X1305048Y946933D01*
X1302084Y945705D01*
X1298876Y945705D01*
G37*
%LPD*%
%LPC*%
G36*
X1238503Y1590293D02*
X1238503Y1590293D01*
X1238503Y1605581D01*
X1240277Y1605347D01*
X1242413Y1604775D01*
X1244456Y1603929D01*
X1246370Y1602823D01*
X1248124Y1601478D01*
X1249688Y1599914D01*
X1251033Y1598160D01*
X1252139Y1596246D01*
X1252985Y1594203D01*
X1253557Y1592067D01*
X1253791Y1590293D01*
X1238503Y1590293D01*
G37*
%LPD*%
%LPC*%
G36*
X573023Y1589023D02*
X573023Y1589023D01*
X573023Y1604311D01*
X574797Y1604077D01*
X576933Y1603505D01*
X578976Y1602659D01*
X580890Y1601553D01*
X582644Y1600208D01*
X584208Y1598644D01*
X585553Y1596890D01*
X586659Y1594976D01*
X587505Y1592933D01*
X588077Y1590797D01*
X588311Y1589023D01*
X573023Y1589023D01*
G37*
%LPD*%
%LPC*%
G36*
X573023Y1585977D02*
X573023Y1585977D01*
X588311Y1585977D01*
X588077Y1584203D01*
X587505Y1582067D01*
X586659Y1580024D01*
X585553Y1578110D01*
X584208Y1576356D01*
X582644Y1574792D01*
X580890Y1573447D01*
X578976Y1572341D01*
X576933Y1571495D01*
X574797Y1570923D01*
X573023Y1570689D01*
X573023Y1585977D01*
G37*
%LPD*%
%LPC*%
G36*
X1238503Y1587247D02*
X1238503Y1587247D01*
X1253791Y1587247D01*
X1253557Y1585473D01*
X1252985Y1583337D01*
X1252139Y1581294D01*
X1251033Y1579380D01*
X1249688Y1577626D01*
X1248124Y1576062D01*
X1246370Y1574717D01*
X1244456Y1573611D01*
X1242413Y1572765D01*
X1240277Y1572193D01*
X1238503Y1571959D01*
X1238503Y1587247D01*
G37*
%LPD*%
%LPC*%
G36*
X554689Y1589023D02*
X554689Y1589023D01*
X554923Y1590797D01*
X555495Y1592933D01*
X556341Y1594976D01*
X557447Y1596890D01*
X558792Y1598644D01*
X560356Y1600208D01*
X562110Y1601553D01*
X564024Y1602659D01*
X566067Y1603505D01*
X568203Y1604077D01*
X569977Y1604311D01*
X569977Y1589023D01*
X554689Y1589023D01*
G37*
%LPD*%
%LPC*%
G36*
X1220169Y1590293D02*
X1220169Y1590293D01*
X1220403Y1592067D01*
X1220975Y1594203D01*
X1221821Y1596246D01*
X1222927Y1598160D01*
X1224272Y1599914D01*
X1225836Y1601478D01*
X1227590Y1602823D01*
X1229504Y1603929D01*
X1231547Y1604775D01*
X1233683Y1605347D01*
X1235457Y1605581D01*
X1235457Y1590293D01*
X1220169Y1590293D01*
G37*
%LPD*%
%LPC*%
G36*
X1233683Y1572193D02*
X1233683Y1572193D01*
X1231547Y1572765D01*
X1229504Y1573611D01*
X1227590Y1574717D01*
X1225836Y1576062D01*
X1224272Y1577626D01*
X1222927Y1579380D01*
X1221821Y1581294D01*
X1220975Y1583337D01*
X1220403Y1585473D01*
X1220169Y1587247D01*
X1235457Y1587247D01*
X1235457Y1571959D01*
X1233683Y1572193D01*
G37*
%LPD*%
%LPC*%
G36*
X568203Y1570923D02*
X568203Y1570923D01*
X566067Y1571495D01*
X564024Y1572341D01*
X562110Y1573447D01*
X560356Y1574792D01*
X558792Y1576356D01*
X557447Y1578110D01*
X556341Y1580024D01*
X555495Y1582067D01*
X554923Y1584203D01*
X554689Y1585977D01*
X569977Y1585977D01*
X569977Y1570689D01*
X568203Y1570923D01*
G37*
%LPD*%
%LPC*%
G36*
X534923Y1589023D02*
X534923Y1589023D01*
X534923Y1600462D01*
X536454Y1600220D01*
X538406Y1599585D01*
X540235Y1598653D01*
X541896Y1597447D01*
X543347Y1595996D01*
X544553Y1594335D01*
X545485Y1592506D01*
X546120Y1590554D01*
X546362Y1589023D01*
X534923Y1589023D01*
G37*
%LPD*%
%LPC*%
G36*
X1200403Y1590293D02*
X1200403Y1590293D01*
X1200403Y1601732D01*
X1201934Y1601490D01*
X1203886Y1600855D01*
X1205715Y1599923D01*
X1207376Y1598717D01*
X1208827Y1597266D01*
X1210033Y1595605D01*
X1210965Y1593776D01*
X1211600Y1591824D01*
X1211842Y1590293D01*
X1200403Y1590293D01*
G37*
%LPD*%
%LPC*%
G36*
X520438Y1589023D02*
X520438Y1589023D01*
X520680Y1590554D01*
X521315Y1592506D01*
X522247Y1594335D01*
X523453Y1595996D01*
X524904Y1597447D01*
X526565Y1598653D01*
X528394Y1599585D01*
X530346Y1600220D01*
X531877Y1600462D01*
X531877Y1589023D01*
X520438Y1589023D01*
G37*
%LPD*%
%LPC*%
G36*
X1200403Y1587247D02*
X1200403Y1587247D01*
X1211842Y1587247D01*
X1211600Y1585716D01*
X1210965Y1583764D01*
X1210033Y1581935D01*
X1208827Y1580274D01*
X1207376Y1578823D01*
X1205715Y1577617D01*
X1203886Y1576685D01*
X1201934Y1576050D01*
X1200403Y1575808D01*
X1200403Y1587247D01*
G37*
%LPD*%
%LPC*%
G36*
X1185918Y1590293D02*
X1185918Y1590293D01*
X1186160Y1591824D01*
X1186795Y1593776D01*
X1187727Y1595605D01*
X1188933Y1597266D01*
X1190384Y1598717D01*
X1192045Y1599923D01*
X1193874Y1600855D01*
X1195826Y1601490D01*
X1197357Y1601732D01*
X1197357Y1590293D01*
X1185918Y1590293D01*
G37*
%LPD*%
%LPC*%
G36*
X534923Y1585977D02*
X534923Y1585977D01*
X546362Y1585977D01*
X546120Y1584446D01*
X545485Y1582494D01*
X544553Y1580665D01*
X543347Y1579004D01*
X541896Y1577553D01*
X540235Y1576347D01*
X538406Y1575415D01*
X536454Y1574780D01*
X534923Y1574538D01*
X534923Y1585977D01*
G37*
%LPD*%
%LPC*%
G36*
X530346Y1574780D02*
X530346Y1574780D01*
X528394Y1575415D01*
X526565Y1576347D01*
X524904Y1577553D01*
X523453Y1579004D01*
X522247Y1580665D01*
X521315Y1582494D01*
X520680Y1584446D01*
X520438Y1585977D01*
X531877Y1585977D01*
X531877Y1574538D01*
X530346Y1574780D01*
G37*
%LPD*%
%LPC*%
G36*
X1195826Y1576050D02*
X1195826Y1576050D01*
X1193874Y1576685D01*
X1192045Y1577617D01*
X1190384Y1578823D01*
X1188933Y1580274D01*
X1187727Y1581935D01*
X1186795Y1583764D01*
X1186160Y1585716D01*
X1185918Y1587247D01*
X1197357Y1587247D01*
X1197357Y1575808D01*
X1195826Y1576050D01*
G37*
%LPD*%
%LPC*%
G36*
X375373Y884173D02*
X375373Y884173D01*
X375373Y894093D01*
X376552Y893907D01*
X378280Y893345D01*
X379899Y892521D01*
X381368Y891453D01*
X382653Y890168D01*
X383721Y888699D01*
X384545Y887080D01*
X385107Y885352D01*
X385293Y884173D01*
X375373Y884173D01*
G37*
%LPD*%
%LPC*%
G36*
X624293Y880363D02*
X624293Y880363D01*
X624293Y890283D01*
X625472Y890097D01*
X627200Y889535D01*
X628819Y888711D01*
X630288Y887643D01*
X631573Y886358D01*
X632641Y884889D01*
X633465Y883270D01*
X634027Y881542D01*
X634213Y880363D01*
X624293Y880363D01*
G37*
%LPD*%
%LPC*%
G36*
X611327Y880363D02*
X611327Y880363D01*
X611513Y881542D01*
X612075Y883270D01*
X612899Y884889D01*
X613967Y886358D01*
X615252Y887643D01*
X616721Y888711D01*
X618340Y889535D01*
X620068Y890097D01*
X621247Y890283D01*
X621247Y880363D01*
X611327Y880363D01*
G37*
%LPD*%
%LPC*%
G36*
X375373Y881127D02*
X375373Y881127D01*
X385293Y881127D01*
X385107Y879948D01*
X384545Y878220D01*
X383721Y876601D01*
X382653Y875132D01*
X381368Y873847D01*
X379899Y872779D01*
X378280Y871955D01*
X376552Y871393D01*
X375373Y871207D01*
X375373Y881127D01*
G37*
%LPD*%
%LPC*%
G36*
X362407Y884173D02*
X362407Y884173D01*
X362593Y885352D01*
X363155Y887080D01*
X363979Y888699D01*
X365047Y890168D01*
X366332Y891453D01*
X367801Y892521D01*
X369420Y893345D01*
X371148Y893907D01*
X372327Y894093D01*
X372327Y884173D01*
X362407Y884173D01*
G37*
%LPD*%
%LPC*%
G36*
X624293Y877317D02*
X624293Y877317D01*
X634213Y877317D01*
X634027Y876138D01*
X633465Y874410D01*
X632641Y872791D01*
X631573Y871322D01*
X630288Y870037D01*
X628819Y868969D01*
X627200Y868145D01*
X625472Y867583D01*
X624293Y867397D01*
X624293Y877317D01*
G37*
%LPD*%
%LPC*%
G36*
X620068Y867583D02*
X620068Y867583D01*
X618340Y868145D01*
X616721Y868969D01*
X615252Y870037D01*
X613967Y871322D01*
X612899Y872791D01*
X612075Y874410D01*
X611513Y876138D01*
X611327Y877317D01*
X621247Y877317D01*
X621247Y867397D01*
X620068Y867583D01*
G37*
%LPD*%
%LPC*%
G36*
X371148Y871393D02*
X371148Y871393D01*
X369420Y871955D01*
X367801Y872779D01*
X366332Y873847D01*
X365047Y875132D01*
X363979Y876601D01*
X363155Y878220D01*
X362593Y879948D01*
X362407Y881127D01*
X372327Y881127D01*
X372327Y871207D01*
X371148Y871393D01*
G37*
%LPD*%
%LPC*%
G36*
X1086103Y955293D02*
X1086103Y955293D01*
X1086103Y962726D01*
X1087229Y962502D01*
X1088881Y961817D01*
X1090369Y960823D01*
X1091633Y959559D01*
X1092627Y958071D01*
X1093312Y956419D01*
X1093536Y955293D01*
X1086103Y955293D01*
G37*
%LPD*%
%LPC*%
G36*
X1175003Y1679193D02*
X1175003Y1679193D01*
X1175003Y1686626D01*
X1176129Y1686402D01*
X1177781Y1685717D01*
X1179269Y1684723D01*
X1180533Y1683459D01*
X1181527Y1681971D01*
X1182212Y1680319D01*
X1182436Y1679193D01*
X1175003Y1679193D01*
G37*
%LPD*%
%LPC*%
G36*
X1416303Y1310893D02*
X1416303Y1310893D01*
X1416303Y1318326D01*
X1417429Y1318102D01*
X1419081Y1317417D01*
X1420569Y1316423D01*
X1421833Y1315159D01*
X1422827Y1313671D01*
X1423512Y1312019D01*
X1423736Y1310893D01*
X1416303Y1310893D01*
G37*
%LPD*%
%LPC*%
G36*
X1416303Y1577593D02*
X1416303Y1577593D01*
X1416303Y1585026D01*
X1417429Y1584802D01*
X1419081Y1584117D01*
X1420569Y1583123D01*
X1421833Y1581859D01*
X1422827Y1580371D01*
X1423512Y1578719D01*
X1423736Y1577593D01*
X1416303Y1577593D01*
G37*
%LPD*%
%LPC*%
G36*
X1403603Y955293D02*
X1403603Y955293D01*
X1403603Y962726D01*
X1404729Y962502D01*
X1406381Y961817D01*
X1407869Y960823D01*
X1409133Y959559D01*
X1410127Y958071D01*
X1410812Y956419D01*
X1411036Y955293D01*
X1403603Y955293D01*
G37*
%LPD*%
%LPC*%
G36*
X1251203Y1679193D02*
X1251203Y1679193D01*
X1251203Y1686626D01*
X1252329Y1686402D01*
X1253981Y1685717D01*
X1255469Y1684723D01*
X1256733Y1683459D01*
X1257727Y1681971D01*
X1258412Y1680319D01*
X1258636Y1679193D01*
X1251203Y1679193D01*
G37*
%LPD*%
%LPC*%
G36*
X1416303Y1574547D02*
X1416303Y1574547D01*
X1423736Y1574547D01*
X1423512Y1573421D01*
X1422827Y1571769D01*
X1421833Y1570281D01*
X1420569Y1569017D01*
X1419081Y1568023D01*
X1417429Y1567338D01*
X1416303Y1567114D01*
X1416303Y1574547D01*
G37*
%LPD*%
%LPC*%
G36*
X1240724Y1679193D02*
X1240724Y1679193D01*
X1240948Y1680319D01*
X1241633Y1681971D01*
X1242627Y1683459D01*
X1243891Y1684723D01*
X1245379Y1685717D01*
X1247031Y1686402D01*
X1248157Y1686626D01*
X1248157Y1679193D01*
X1240724Y1679193D01*
G37*
%LPD*%
%LPC*%
G36*
X1403603Y952247D02*
X1403603Y952247D01*
X1411036Y952247D01*
X1410812Y951121D01*
X1410127Y949469D01*
X1409133Y947981D01*
X1407869Y946717D01*
X1406381Y945723D01*
X1404729Y945038D01*
X1403603Y944814D01*
X1403603Y952247D01*
G37*
%LPD*%
%LPC*%
G36*
X1405824Y1577593D02*
X1405824Y1577593D01*
X1406048Y1578719D01*
X1406733Y1580371D01*
X1407727Y1581859D01*
X1408991Y1583123D01*
X1410479Y1584117D01*
X1412131Y1584802D01*
X1413257Y1585026D01*
X1413257Y1577593D01*
X1405824Y1577593D01*
G37*
%LPD*%
%LPC*%
G36*
X1393124Y955293D02*
X1393124Y955293D01*
X1393348Y956419D01*
X1394033Y958071D01*
X1395027Y959559D01*
X1396291Y960823D01*
X1397779Y961817D01*
X1399431Y962502D01*
X1400557Y962726D01*
X1400557Y955293D01*
X1393124Y955293D01*
G37*
%LPD*%
%LPC*%
G36*
X1075624Y955293D02*
X1075624Y955293D01*
X1075848Y956419D01*
X1076533Y958071D01*
X1077527Y959559D01*
X1078791Y960823D01*
X1080279Y961817D01*
X1081931Y962502D01*
X1083057Y962726D01*
X1083057Y955293D01*
X1075624Y955293D01*
G37*
%LPD*%
%LPC*%
G36*
X1164524Y1679193D02*
X1164524Y1679193D01*
X1164748Y1680319D01*
X1165433Y1681971D01*
X1166427Y1683459D01*
X1167691Y1684723D01*
X1169179Y1685717D01*
X1170831Y1686402D01*
X1171957Y1686626D01*
X1171957Y1679193D01*
X1164524Y1679193D01*
G37*
%LPD*%
%LPC*%
G36*
X1405824Y1310893D02*
X1405824Y1310893D01*
X1406048Y1312019D01*
X1406733Y1313671D01*
X1407727Y1315159D01*
X1408991Y1316423D01*
X1410479Y1317417D01*
X1412131Y1318102D01*
X1413257Y1318326D01*
X1413257Y1310893D01*
X1405824Y1310893D01*
G37*
%LPD*%
%LPC*%
G36*
X1086103Y952247D02*
X1086103Y952247D01*
X1093536Y952247D01*
X1093312Y951121D01*
X1092627Y949469D01*
X1091633Y947981D01*
X1090369Y946717D01*
X1088881Y945723D01*
X1087229Y945038D01*
X1086103Y944814D01*
X1086103Y952247D01*
G37*
%LPD*%
%LPC*%
G36*
X1416303Y1307847D02*
X1416303Y1307847D01*
X1423736Y1307847D01*
X1423512Y1306721D01*
X1422827Y1305069D01*
X1421833Y1303581D01*
X1420569Y1302317D01*
X1419081Y1301323D01*
X1417429Y1300638D01*
X1416303Y1300414D01*
X1416303Y1307847D01*
G37*
%LPD*%
%LPC*%
G36*
X1251203Y1676147D02*
X1251203Y1676147D01*
X1258636Y1676147D01*
X1258412Y1675021D01*
X1257727Y1673369D01*
X1256733Y1671881D01*
X1255469Y1670617D01*
X1253981Y1669623D01*
X1252329Y1668938D01*
X1251203Y1668714D01*
X1251203Y1676147D01*
G37*
%LPD*%
%LPC*%
G36*
X1175003Y1676147D02*
X1175003Y1676147D01*
X1182436Y1676147D01*
X1182212Y1675021D01*
X1181527Y1673369D01*
X1180533Y1671881D01*
X1179269Y1670617D01*
X1177781Y1669623D01*
X1176129Y1668938D01*
X1175003Y1668714D01*
X1175003Y1676147D01*
G37*
%LPD*%
%LPC*%
G36*
X1412131Y1567338D02*
X1412131Y1567338D01*
X1410479Y1568023D01*
X1408991Y1569017D01*
X1407727Y1570281D01*
X1406733Y1571769D01*
X1406048Y1573421D01*
X1405824Y1574547D01*
X1413257Y1574547D01*
X1413257Y1567114D01*
X1412131Y1567338D01*
G37*
%LPD*%
%LPC*%
G36*
X1170831Y1668938D02*
X1170831Y1668938D01*
X1169179Y1669623D01*
X1167691Y1670617D01*
X1166427Y1671881D01*
X1165433Y1673369D01*
X1164748Y1675021D01*
X1164524Y1676147D01*
X1171957Y1676147D01*
X1171957Y1668714D01*
X1170831Y1668938D01*
G37*
%LPD*%
%LPC*%
G36*
X1081931Y945038D02*
X1081931Y945038D01*
X1080279Y945723D01*
X1078791Y946717D01*
X1077527Y947981D01*
X1076533Y949469D01*
X1075848Y951121D01*
X1075624Y952247D01*
X1083057Y952247D01*
X1083057Y944814D01*
X1081931Y945038D01*
G37*
%LPD*%
%LPC*%
G36*
X1399431Y945038D02*
X1399431Y945038D01*
X1397779Y945723D01*
X1396291Y946717D01*
X1395027Y947981D01*
X1394033Y949469D01*
X1393348Y951121D01*
X1393124Y952247D01*
X1400557Y952247D01*
X1400557Y944814D01*
X1399431Y945038D01*
G37*
%LPD*%
%LPC*%
G36*
X1247031Y1668938D02*
X1247031Y1668938D01*
X1245379Y1669623D01*
X1243891Y1670617D01*
X1242627Y1671881D01*
X1241633Y1673369D01*
X1240948Y1675021D01*
X1240724Y1676147D01*
X1248157Y1676147D01*
X1248157Y1668714D01*
X1247031Y1668938D01*
G37*
%LPD*%
%LPC*%
G36*
X1412131Y1300638D02*
X1412131Y1300638D01*
X1410479Y1301323D01*
X1408991Y1302317D01*
X1407727Y1303581D01*
X1406733Y1305069D01*
X1406048Y1306721D01*
X1405824Y1307847D01*
X1413257Y1307847D01*
X1413257Y1300414D01*
X1412131Y1300638D01*
G37*
%LPD*%
%LPC*%
G36*
X1173479Y1677669D02*
X1173479Y1677669D01*
X1173479Y1677671D01*
X1173481Y1677671D01*
X1173481Y1677669D01*
X1173479Y1677669D01*
G37*
%LPD*%
%LPC*%
G36*
X622769Y878839D02*
X622769Y878839D01*
X622769Y878841D01*
X622771Y878841D01*
X622771Y878839D01*
X622769Y878839D01*
G37*
%LPD*%
%LPC*%
G36*
X101599Y1784399D02*
X101599Y1784399D01*
X101599Y1784401D01*
X101601Y1784401D01*
X101601Y1784399D01*
X101599Y1784399D01*
G37*
%LPD*%
%LPC*%
G36*
X1414779Y1309369D02*
X1414779Y1309369D01*
X1414779Y1309371D01*
X1414781Y1309371D01*
X1414781Y1309369D01*
X1414779Y1309369D01*
G37*
%LPD*%
%LPC*%
G36*
X1249679Y1677669D02*
X1249679Y1677669D01*
X1249679Y1677671D01*
X1249681Y1677671D01*
X1249681Y1677669D01*
X1249679Y1677669D01*
G37*
%LPD*%
%LPC*%
G36*
X1402079Y953769D02*
X1402079Y953769D01*
X1402079Y953771D01*
X1402081Y953771D01*
X1402081Y953769D01*
X1402079Y953769D01*
G37*
%LPD*%
%LPC*%
G36*
X101599Y1339899D02*
X101599Y1339899D01*
X101599Y1339901D01*
X101601Y1339901D01*
X101601Y1339899D01*
X101599Y1339899D01*
G37*
%LPD*%
%LPC*%
G36*
X1198879Y1588769D02*
X1198879Y1588769D01*
X1198879Y1588771D01*
X1198881Y1588771D01*
X1198881Y1588769D01*
X1198879Y1588769D01*
G37*
%LPD*%
%LPC*%
G36*
X1167179Y852169D02*
X1167179Y852169D01*
X1167179Y852171D01*
X1167181Y852171D01*
X1167181Y852169D01*
X1167179Y852169D01*
G37*
%LPD*%
%LPC*%
G36*
X101599Y1568499D02*
X101599Y1568499D01*
X101599Y1568501D01*
X101601Y1568501D01*
X101601Y1568499D01*
X101599Y1568499D01*
G37*
%LPD*%
%LPC*%
G36*
X1236979Y1588769D02*
X1236979Y1588769D01*
X1236979Y1588771D01*
X1236981Y1588771D01*
X1236981Y1588769D01*
X1236979Y1588769D01*
G37*
%LPD*%
%LPC*%
G36*
X101599Y1111299D02*
X101599Y1111299D01*
X101599Y1111301D01*
X101601Y1111301D01*
X101601Y1111299D01*
X101599Y1111299D01*
G37*
%LPD*%
%LPC*%
G36*
X661719Y1786889D02*
X661719Y1786889D01*
X661719Y1786891D01*
X661721Y1786891D01*
X661721Y1786889D01*
X661719Y1786889D01*
G37*
%LPD*%
%LPC*%
G36*
X1414779Y1576069D02*
X1414779Y1576069D01*
X1414779Y1576071D01*
X1414781Y1576071D01*
X1414781Y1576069D01*
X1414779Y1576069D01*
G37*
%LPD*%
%LPC*%
G36*
X440739Y1788159D02*
X440739Y1788159D01*
X440739Y1788161D01*
X440741Y1788161D01*
X440741Y1788159D01*
X440739Y1788159D01*
G37*
%LPD*%
%LPC*%
G36*
X373849Y882649D02*
X373849Y882649D01*
X373849Y882651D01*
X373851Y882651D01*
X373851Y882649D01*
X373849Y882649D01*
G37*
%LPD*%
%LPC*%
G36*
X862379Y814069D02*
X862379Y814069D01*
X862379Y814071D01*
X862381Y814071D01*
X862381Y814069D01*
X862379Y814069D01*
G37*
%LPD*%
%LPC*%
G36*
X88899Y882699D02*
X88899Y882699D01*
X88899Y882701D01*
X88901Y882701D01*
X88901Y882699D01*
X88899Y882699D01*
G37*
%LPD*%
%LPC*%
G36*
X533399Y1587499D02*
X533399Y1587499D01*
X533399Y1587501D01*
X533401Y1587501D01*
X533401Y1587499D01*
X533399Y1587499D01*
G37*
%LPD*%
%LPC*%
G36*
X571499Y1587499D02*
X571499Y1587499D01*
X571499Y1587501D01*
X571501Y1587501D01*
X571501Y1587499D01*
X571499Y1587499D01*
G37*
%LPD*%
%LPC*%
G36*
X1084579Y953769D02*
X1084579Y953769D01*
X1084579Y953771D01*
X1084581Y953771D01*
X1084581Y953769D01*
X1084579Y953769D01*
G37*
%LPD*%
D10*
X101600Y1501500D03*
X101600Y1568500D03*
X101600Y1717400D03*
X101600Y1784400D03*
X594720Y1786890D03*
X661720Y1786890D03*
X1023980Y1779270D03*
X1090980Y1779270D03*
D11*
X1465580Y1830070D03*
X1315580Y1830070D03*
X1265580Y1830070D03*
X1215580Y1830070D03*
X1215580Y1755070D03*
X1265580Y1755070D03*
X1315580Y1755070D03*
X1465580Y1755070D03*
D10*
X373740Y1788160D03*
X440740Y1788160D03*
X101600Y1272900D03*
X101600Y1339900D03*
X101600Y1044300D03*
X101600Y1111300D03*
X88900Y815700D03*
X88900Y882700D03*
X1427480Y1134470D03*
X1427480Y1201470D03*
D12*
X419100Y1079500D03*
X495300Y1079500D03*
X571500Y1079500D03*
D13*
X571500Y1587500D03*
D12*
X533400Y1587500D03*
X495300Y1587500D03*
X457200Y1587500D03*
D13*
X419100Y1587500D03*
D12*
X1084580Y1080770D03*
X1160780Y1080770D03*
X1236980Y1080770D03*
D13*
X1236980Y1588770D03*
D12*
X1198880Y1588770D03*
X1160780Y1588770D03*
X1122680Y1588770D03*
D13*
X1084580Y1588770D03*
D10*
X795380Y814070D03*
X862380Y814070D03*
D14*
X1186180Y953770D03*
X1084580Y953770D03*
X1071880Y1677670D03*
X1173480Y1677670D03*
X1402080Y953770D03*
X1300480Y953770D03*
X1249680Y1677670D03*
X1351280Y1677670D03*
X1414780Y1309370D03*
X1414780Y1410970D03*
X1414780Y1576070D03*
X1414780Y1474470D03*
D10*
X1100180Y852170D03*
X1167180Y852170D03*
X1341480Y852170D03*
X1408480Y852170D03*
D15*
X323850Y882650D03*
X348850Y907650D03*
X373850Y882650D03*
X348850Y857650D03*
X348850Y882650D03*
X572770Y878840D03*
X597770Y903840D03*
X622770Y878840D03*
X597770Y853840D03*
X597770Y878840D03*
D16*
X836930Y1852168D02*
X836930Y1868932D01*
X811530Y1868932D02*
X811530Y1852168D01*
X786130Y1852168D02*
X786130Y1868932D01*
X191770Y1649222D02*
X191770Y1632458D01*
X217170Y1632458D02*
X217170Y1649222D01*
X242570Y1649222D02*
X242570Y1632458D01*
D17*
X441452Y1787144D02*
X440740Y1788160D01*
X1414780Y1576070D02*
X1414780Y1575562D01*
X1249680Y1677670D02*
X1248664Y1677670D01*
X1046937Y1754175D02*
X1045115Y1752346D01*
X102108Y1569720D02*
X101600Y1568500D01*
X102108Y1783080D02*
X101600Y1784400D01*
X89916Y883920D02*
X88900Y882700D01*
X102108Y1110996D02*
X101600Y1111300D01*
X102108Y1339596D02*
X101600Y1339900D01*
X102108Y1112520D02*
X101600Y1111300D01*
X440740Y1788160D02*
X440486Y1788414D01*
X1167180Y852474D02*
X1167180Y852170D01*
X1341628Y853186D02*
X1462786Y974344D01*
X1465072Y1753870D02*
X1465580Y1755070D01*
X1341628Y853186D02*
X1341480Y852170D01*
D18*
X1462786Y974344D02*
X1462786Y1734566D01*
X1465580Y1737360D01*
X1465580Y1753362D01*
X1465072Y1753870D01*
D17*
X1466596Y1797558D02*
X1466596Y1830070D01*
X1466596Y1797558D02*
X1491488Y1772666D01*
X1491488Y935990D01*
X1466596Y1830070D02*
X1465580Y1830070D01*
D18*
X1491488Y935178D02*
X1408480Y852170D01*
X1491488Y935178D02*
X1491488Y935990D01*
D17*
X1186180Y953770D02*
X1186180Y1055878D01*
X1210564Y1080262D02*
X1236472Y1080262D01*
X1210564Y1080262D02*
X1186180Y1055878D01*
X1236472Y1080262D02*
X1236980Y1080770D01*
X1290680Y1134470D01*
X1427480Y1134470D01*
X1235964Y1080770D02*
X1160780Y1080770D01*
X1235964Y1080770D02*
X1236472Y1080262D01*
X1265428Y1216406D02*
X1265428Y1753870D01*
X1265428Y1216406D02*
X1100836Y1051814D01*
X1100836Y853186D01*
X1265428Y1753870D02*
X1265580Y1755070D01*
X1100836Y853186D02*
X1100180Y852170D01*
X1084072Y1587754D02*
X1084580Y1588770D01*
D19*
X983488Y883666D03*
X1092200Y1711960D03*
D18*
X1111411Y1770807D02*
X1111411Y1787733D01*
X1092200Y1751596D02*
X1092200Y1711960D01*
X1092200Y1751596D02*
X1111411Y1770807D01*
X1111411Y1787733D02*
X1038594Y1860550D01*
X836930Y1860550D01*
X1084580Y1588770D02*
X983488Y1487678D01*
X983488Y883666D01*
D17*
X1402080Y1487170D02*
X1402080Y1550670D01*
X1290320Y1662430D01*
X1290320Y1761490D01*
X1271524Y1780286D01*
X1200912Y1780286D01*
X1035558Y1614932D01*
X484124Y1614932D01*
X457200Y1588008D01*
X457200Y1587500D01*
X1402080Y1487170D02*
X1414780Y1474470D01*
D18*
X191770Y1582420D02*
X191770Y1640840D01*
X191770Y1582420D02*
X194310Y1579880D01*
X411480Y1579880D01*
X419100Y1587500D01*
M02*
