G04 EAGLE Gerber RS-274X export*
G75*
%MOMM*%
%FSLAX34Y34*%
%LPD*%
%INSoldermask Bottom*%
%IPPOS*%
%AMOC8*
5,1,8,0,0,1.08239X$1,22.5*%
G01*
%ADD10C,4.203200*%
%ADD11C,3.578200*%
%ADD12C,3.253200*%
%ADD13C,2.153200*%
%ADD14C,2.303200*%
%ADD15C,3.068200*%
%ADD16C,1.511200*%
%ADD17C,2.003200*%
%ADD18C,1.879600*%
%ADD19C,3.505200*%
%ADD20C,0.959600*%


D10*
X220000Y1910000D03*
X220000Y715000D03*
X1270000Y715000D03*
X1270000Y1910000D03*
X820420Y1334760D03*
X820420Y1460490D03*
X816610Y1201410D03*
D11*
X101600Y1501500D03*
X101600Y1568500D03*
D12*
X90600Y1622500D03*
D11*
X101600Y1717400D03*
X101600Y1784400D03*
D12*
X90600Y1838400D03*
D11*
X594720Y1786890D03*
X661720Y1786890D03*
D12*
X715720Y1797890D03*
D11*
X1023980Y1779270D03*
X1090980Y1779270D03*
D12*
X1144980Y1790270D03*
D13*
X1465580Y1830070D03*
X1315580Y1830070D03*
X1265580Y1830070D03*
X1215580Y1830070D03*
X1215580Y1755070D03*
X1265580Y1755070D03*
X1315580Y1755070D03*
X1465580Y1755070D03*
D11*
X373740Y1788160D03*
X440740Y1788160D03*
D12*
X494740Y1799160D03*
D11*
X101600Y1272900D03*
X101600Y1339900D03*
D12*
X90600Y1393900D03*
D11*
X101600Y1044300D03*
X101600Y1111300D03*
D12*
X90600Y1165300D03*
D11*
X88900Y815700D03*
X88900Y882700D03*
D12*
X77900Y936700D03*
D11*
X1427480Y1134470D03*
X1427480Y1201470D03*
D12*
X1416480Y1255470D03*
D14*
X419100Y1079500D03*
X495300Y1079500D03*
X571500Y1079500D03*
D15*
X571500Y1587500D03*
D14*
X533400Y1587500D03*
X495300Y1587500D03*
X457200Y1587500D03*
D15*
X419100Y1587500D03*
D14*
X1084580Y1080770D03*
X1160780Y1080770D03*
X1236980Y1080770D03*
D15*
X1236980Y1588770D03*
D14*
X1198880Y1588770D03*
X1160780Y1588770D03*
X1122680Y1588770D03*
D15*
X1084580Y1588770D03*
D11*
X795380Y814070D03*
X862380Y814070D03*
D12*
X916380Y825070D03*
D16*
X1186180Y953770D03*
X1084580Y953770D03*
X1071880Y1677670D03*
X1173480Y1677670D03*
X1402080Y953770D03*
X1300480Y953770D03*
X1249680Y1677670D03*
X1351280Y1677670D03*
X1414780Y1309370D03*
X1414780Y1410970D03*
X1414780Y1576070D03*
X1414780Y1474470D03*
D11*
X1100180Y852170D03*
X1167180Y852170D03*
D12*
X1221180Y863170D03*
D11*
X1341480Y852170D03*
X1408480Y852170D03*
D12*
X1462480Y863170D03*
D17*
X323850Y882650D03*
X348850Y907650D03*
X373850Y882650D03*
X348850Y857650D03*
X348850Y882650D03*
X572770Y878840D03*
X597770Y903840D03*
X622770Y878840D03*
X597770Y853840D03*
X597770Y878840D03*
D18*
X836930Y1852168D02*
X836930Y1868932D01*
X811530Y1868932D02*
X811530Y1852168D01*
X786130Y1852168D02*
X786130Y1868932D01*
D19*
X811530Y1685290D03*
D18*
X191770Y1649222D02*
X191770Y1632458D01*
X217170Y1632458D02*
X217170Y1649222D01*
X242570Y1649222D02*
X242570Y1632458D01*
D19*
X217170Y1816100D03*
D20*
X983488Y883666D03*
X1092200Y1711960D03*
M02*
