M48
;GenerationSoftware,Autodesk,EAGLE,9.5.1*%
;CreationDate,2020-01-20T22:40:12Z*%
FMAT,2
ICI,OFF
METRIC,TZ,000.000
T11C0.350
T10C0.800
T9C1.118
T8C1.200
T7C1.300
T6C1.400
T5C1.910
T4C2.250
T3C3.050
T2C3.302
T1C4.000
%
G90
M71
T1
X81661Y120141
X82042Y146049
X22000Y191000
X22000Y71500
X127000Y71500
X127000Y191000
X82042Y133476
T2
X81153Y168529
X21717Y181610
T3
X9060Y162250
X9060Y183840
X71572Y179789
X114498Y179027
X49474Y179916
X9060Y139390
X9060Y116530
X7790Y93670
X141648Y125547
X91638Y82507
X122118Y86317
X146248Y86317
T4
X110018Y85217
X37374Y178816
X10160Y150150
X10160Y156850
X10160Y171740
X10160Y178440
X59472Y178689
X66172Y178689
X102398Y177927
X109098Y177927
X116718Y85217
X134148Y85217
X140848Y85217
X86238Y81407
X79538Y81407
X44074Y178816
X10160Y127290
X10160Y133990
X10160Y104430
X10160Y111130
X8890Y81570
X8890Y88270
X142748Y113447
X142748Y120147
T5
X108458Y158877
X123698Y158877
X41910Y158750
X57150Y158750
T6
X49530Y107950
X57150Y107950
X53340Y158750
X49530Y158750
X45720Y158750
X108458Y108077
X116078Y108077
X123698Y108077
X119888Y158877
X116078Y158877
X112268Y158877
X41910Y107950
T7
X146558Y175507
X131558Y175507
X126558Y175507
X121558Y175507
X121558Y183007
X126558Y183007
X131558Y183007
X146558Y183007
T8
X59777Y85384
X59777Y87884
X62277Y87884
X59777Y90384
X57277Y87884
X34885Y88265
X34885Y85765
X37385Y88265
X34885Y90765
X32385Y88265
T9
X24257Y164084
X83693Y186055
X81153Y186055
X78613Y186055
X19177Y164084
X21717Y164084
T10
X141478Y157607
X141478Y141097
X141478Y130937
X135128Y167767
X124968Y167767
X130048Y95377
X140208Y95377
X117348Y167767
X107188Y167767
X108458Y95377
X118618Y95377
X141478Y147447
T11
X109220Y171196
X98349Y88367
M30