M48
;GenerationSoftware,Autodesk,EAGLE,9.5.2*%
;CreationDate,2020-01-21T19:55:12Z*%
FMAT,2
ICI,OFF
METRIC,TZ,000.000
T7C0.600
T6C1.200
T5C1.300
T4C1.850
T3C2.250
T2C3.050
T1C3.600
%
G90
M71
T1
X17490Y68910
X17490Y35560
T2
X92400Y69680
X92400Y31580
X31750Y9140
X46820Y5390
X36830Y90730
X27940Y90730
X92400Y82380
X72220Y5390
X48430Y96210
X59520Y5390
X92400Y56980
X92400Y44280
T3
X71120Y17490
X87000Y30480
X80300Y30480
X87000Y68580
X80300Y68580
X87000Y43180
X80300Y43180
X87000Y55880
X80300Y55880
X49530Y90810
X49530Y84110
X87000Y81280
X80300Y81280
X71120Y10790
X58420Y10790
X58420Y17490
X45720Y10790
X45720Y17490
T4
X29650Y21940
X29650Y16440
X33850Y16440
X33850Y21940
X36830Y83430
X36830Y77930
X27940Y83430
X27940Y77930
T5
X23440Y66510
X23440Y68710
X23440Y42310
X27940Y35510
X27940Y39510
X27940Y43510
X27940Y46710
X27940Y48910
X27940Y51110
X27940Y53310
X27940Y55510
X27940Y57710
X27940Y60910
X27940Y64910
X27940Y68910
X23440Y35710
X23440Y37910
X23440Y40110
X23440Y44510
X23440Y46710
X23440Y48910
X23440Y55510
X23440Y57710
X23440Y59910
X23440Y62110
X23440Y64310
T6
X11390Y12700
X11390Y90130
X8890Y87630
X13890Y87630
X11390Y85130
X11390Y87630
X8890Y12700
X11390Y15200
X13890Y12700
X11390Y10200
T7
X90170Y20320
X80010Y16510
X90170Y12700
X80010Y8890
X90170Y5080
X59690Y60960
X59690Y86360
X59690Y35560
X25400Y22860
X54610Y78740
X52070Y76200
X52070Y63500
X54610Y30480
X49530Y50800
X49530Y73660
X46990Y71120
X43180Y69850
X54610Y71120
X45720Y64770
X54610Y29210
X54610Y38100
X50800Y39370
X46990Y39370
X43180Y39370
X54610Y43180
X86360Y96520
X53340Y50800
X46990Y43180
X54610Y31750
X43180Y43180
X36830Y67310
X50800Y57150
X53340Y82550
X50800Y80010
X48260Y77470
X45720Y74930
X43180Y73660
X43180Y50800
X45720Y50800
X54610Y58420
X48260Y57150
X45720Y57150
X43180Y57150
X59690Y73660
X59690Y48260
X49530Y60960
X45720Y60960
X43180Y60960
X43180Y64770
X49530Y66040
X52070Y68580
X5080Y48260
X50800Y43180
X8890Y52070
X5080Y55880
X59690Y96520
X66040Y90170
X72390Y96520
X80010Y90170
X92710Y90170
X54610Y66040
M30