G75*
%MOIN*%
%OFA0B0*%
%FSLAX25Y25*%
%IPPOS*%
%LPD*%
%AMOC8*
5,1,8,0,0,1.08239X$1,22.5*
%
%ADD10OC8,0.10600*%
%ADD11R,0.10600X0.10600*%
%ADD12C,0.12411*%
%ADD13C,0.06506*%
%ADD14C,0.06506*%
%ADD15C,0.06200*%
%ADD16C,0.07200*%
%ADD17R,0.07200X0.07200*%
%ADD18C,0.07100*%
%ADD19C,0.04362*%
%ADD20R,0.04362X0.04362*%
D10*
X0168600Y0078978D03*
X0168600Y0100678D03*
X0185100Y0100678D03*
D11*
X0185100Y0078978D03*
D12*
X0176850Y0050238D03*
D13*
X0032302Y0043978D02*
X0026397Y0043978D01*
X0026397Y0053978D02*
X0032302Y0053978D01*
X0032302Y0063978D02*
X0026397Y0063978D01*
X0026397Y0073978D02*
X0032302Y0073978D01*
X0032302Y0083978D02*
X0026397Y0083978D01*
X0026397Y0093978D02*
X0032302Y0093978D01*
X0032302Y0103978D02*
X0026397Y0103978D01*
X0026397Y0113978D02*
X0032302Y0113978D01*
X0032302Y0133978D02*
X0026397Y0133978D01*
X0026397Y0143978D02*
X0032302Y0143978D01*
X0032302Y0153978D02*
X0026397Y0153978D01*
X0026397Y0163978D02*
X0032302Y0163978D01*
X0032302Y0173978D02*
X0026397Y0173978D01*
X0026397Y0183978D02*
X0032302Y0183978D01*
X0032302Y0193978D02*
X0026397Y0193978D01*
X0026397Y0203978D02*
X0032302Y0203978D01*
X0032302Y0223978D02*
X0026397Y0223978D01*
X0026397Y0233978D02*
X0032302Y0233978D01*
X0032302Y0243978D02*
X0026397Y0243978D01*
X0026397Y0253978D02*
X0032302Y0253978D01*
X0032302Y0263978D02*
X0026397Y0263978D01*
X0026397Y0273978D02*
X0032302Y0273978D01*
X0216397Y0268978D02*
X0222302Y0268978D01*
X0222302Y0258978D02*
X0216397Y0258978D01*
X0216397Y0248978D02*
X0222302Y0248978D01*
X0222302Y0238978D02*
X0216397Y0238978D01*
X0216397Y0223978D02*
X0222302Y0223978D01*
X0222302Y0213978D02*
X0216397Y0213978D01*
X0216397Y0203978D02*
X0222302Y0203978D01*
X0222302Y0193978D02*
X0216397Y0193978D01*
X0216397Y0183978D02*
X0222302Y0183978D01*
X0222302Y0173978D02*
X0216397Y0173978D01*
X0216397Y0163978D02*
X0222302Y0163978D01*
X0222302Y0153978D02*
X0216397Y0153978D01*
X0216397Y0133978D02*
X0222302Y0133978D01*
X0222302Y0123978D02*
X0216397Y0123978D01*
X0216397Y0113978D02*
X0222302Y0113978D01*
X0222302Y0103978D02*
X0216397Y0103978D01*
X0216397Y0093978D02*
X0222302Y0093978D01*
X0222302Y0083978D02*
X0216397Y0083978D01*
X0216397Y0073978D02*
X0222302Y0073978D01*
X0222302Y0063978D02*
X0216397Y0063978D01*
X0216397Y0278978D02*
X0222302Y0278978D01*
X0222302Y0288978D02*
X0216397Y0288978D01*
X0216397Y0298978D02*
X0222302Y0298978D01*
X0222302Y0308978D02*
X0216397Y0308978D01*
D14*
X0219350Y0033978D03*
X0219350Y0023978D03*
X0209350Y0023978D03*
X0199350Y0023978D03*
X0199350Y0033978D03*
X0209350Y0033978D03*
X0189350Y0033978D03*
X0189350Y0023978D03*
X0179350Y0023978D03*
X0179350Y0033978D03*
X0169350Y0033978D03*
X0169350Y0023978D03*
X0159350Y0023978D03*
X0159350Y0033978D03*
X0149350Y0033978D03*
X0149350Y0023978D03*
X0139350Y0023978D03*
X0129350Y0023978D03*
X0129350Y0033978D03*
X0139350Y0033978D03*
X0119350Y0033978D03*
X0119350Y0023978D03*
X0109350Y0023978D03*
X0109350Y0033978D03*
X0099350Y0033978D03*
X0099350Y0023978D03*
X0089350Y0023978D03*
X0089350Y0033978D03*
X0079350Y0033978D03*
X0079350Y0023978D03*
X0069350Y0023978D03*
X0069350Y0033978D03*
X0059350Y0033978D03*
X0059350Y0023978D03*
X0049350Y0023978D03*
X0049350Y0033978D03*
D15*
X0191550Y0273978D02*
X0197150Y0273978D01*
X0197150Y0283978D02*
X0191550Y0283978D01*
X0191550Y0293978D02*
X0197150Y0293978D01*
X0197150Y0303978D02*
X0191550Y0303978D01*
X0216550Y0318978D02*
X0222150Y0318978D01*
X0222150Y0328978D02*
X0216550Y0328978D01*
X0032150Y0293978D02*
X0026550Y0293978D01*
X0026550Y0283978D02*
X0032150Y0283978D01*
D16*
X0119350Y0153978D03*
X0119350Y0143978D03*
X0129350Y0143978D03*
X0139350Y0143978D03*
X0129350Y0153978D03*
D17*
X0139350Y0153978D03*
D18*
X0179350Y0193978D03*
X0179350Y0213978D03*
D19*
X0169350Y0218978D03*
X0166850Y0228978D03*
X0169350Y0203978D03*
X0169350Y0173978D03*
X0154350Y0168978D03*
X0164350Y0151478D03*
X0159350Y0141478D03*
X0153100Y0141166D03*
X0145912Y0122728D03*
X0176850Y0131478D03*
X0209350Y0183978D03*
X0195912Y0189603D03*
X0204350Y0217416D03*
X0119350Y0193978D03*
X0120287Y0176478D03*
X0114350Y0168978D03*
X0114350Y0158978D03*
X0104037Y0167728D03*
X0074350Y0153978D03*
X0064350Y0153978D03*
X0049350Y0168978D03*
X0064350Y0187728D03*
X0064350Y0218978D03*
X0056225Y0218978D03*
X0054350Y0233978D03*
X0064350Y0250541D03*
X0040287Y0229291D03*
X0074350Y0218978D03*
X0117475Y0218353D03*
D20*
X0189350Y0123978D03*
X0204350Y0123978D03*
M02*
