G04 EAGLE Gerber RS-274X export*
G75*
%MOMM*%
%FSLAX34Y34*%
%LPD*%
%INTop Copper*%
%IPPOS*%
%AMOC8*
5,1,8,0,0,1.08239X$1,22.5*%
G01*
%ADD10C,0.130000*%
%ADD11C,0.152400*%
%ADD12C,3.375000*%
%ADD13R,3.800000X4.700000*%
%ADD14R,4.700000X3.800000*%
%ADD15C,1.950000*%
%ADD16C,2.100000*%
%ADD17C,2.865000*%
%ADD18C,1.308000*%
%ADD19R,1.300000X1.500000*%
%ADD20C,1.800000*%
%ADD21C,1.676400*%
%ADD22C,0.400000*%
%ADD23C,0.406400*%
%ADD24C,0.756400*%
%ADD25C,0.380000*%

G36*
X1539098Y680164D02*
X1539098Y680164D01*
X1539117Y680162D01*
X1539219Y680184D01*
X1539321Y680200D01*
X1539338Y680210D01*
X1539358Y680214D01*
X1539447Y680267D01*
X1539538Y680316D01*
X1539552Y680330D01*
X1539569Y680340D01*
X1539636Y680419D01*
X1539708Y680494D01*
X1539716Y680512D01*
X1539729Y680527D01*
X1539768Y680623D01*
X1539811Y680717D01*
X1539813Y680737D01*
X1539821Y680755D01*
X1539839Y680922D01*
X1539839Y1939078D01*
X1539836Y1939098D01*
X1539838Y1939117D01*
X1539816Y1939219D01*
X1539800Y1939321D01*
X1539790Y1939338D01*
X1539786Y1939358D01*
X1539733Y1939447D01*
X1539684Y1939538D01*
X1539670Y1939552D01*
X1539660Y1939569D01*
X1539581Y1939636D01*
X1539506Y1939708D01*
X1539488Y1939716D01*
X1539473Y1939729D01*
X1539377Y1939768D01*
X1539283Y1939811D01*
X1539263Y1939813D01*
X1539245Y1939821D01*
X1539078Y1939839D01*
X1538366Y1939839D01*
X1538346Y1939836D01*
X1538327Y1939838D01*
X1538225Y1939816D01*
X1538123Y1939800D01*
X1538106Y1939790D01*
X1538086Y1939786D01*
X1537997Y1939733D01*
X1537906Y1939684D01*
X1537892Y1939670D01*
X1537875Y1939660D01*
X1537808Y1939581D01*
X1537736Y1939506D01*
X1537728Y1939488D01*
X1537715Y1939473D01*
X1537676Y1939377D01*
X1537633Y1939283D01*
X1537631Y1939263D01*
X1537623Y1939245D01*
X1537605Y1939078D01*
X1537605Y1926509D01*
X1536331Y1925235D01*
X1534529Y1925235D01*
X1533255Y1926509D01*
X1533255Y1939078D01*
X1533252Y1939098D01*
X1533254Y1939117D01*
X1533232Y1939219D01*
X1533216Y1939321D01*
X1533206Y1939338D01*
X1533202Y1939358D01*
X1533149Y1939447D01*
X1533100Y1939538D01*
X1533086Y1939552D01*
X1533076Y1939569D01*
X1532997Y1939636D01*
X1532922Y1939708D01*
X1532904Y1939716D01*
X1532889Y1939729D01*
X1532793Y1939768D01*
X1532699Y1939811D01*
X1532679Y1939813D01*
X1532661Y1939821D01*
X1532494Y1939839D01*
X1280953Y1939839D01*
X1280929Y1939835D01*
X1280905Y1939838D01*
X1280808Y1939816D01*
X1280710Y1939800D01*
X1280689Y1939788D01*
X1280665Y1939783D01*
X1280580Y1939731D01*
X1280493Y1939684D01*
X1280476Y1939667D01*
X1280455Y1939654D01*
X1280392Y1939578D01*
X1280323Y1939506D01*
X1280313Y1939484D01*
X1280298Y1939466D01*
X1280261Y1939373D01*
X1280220Y1939283D01*
X1280217Y1939259D01*
X1280208Y1939237D01*
X1280203Y1939137D01*
X1280192Y1939039D01*
X1280198Y1939015D01*
X1280196Y1938991D01*
X1280224Y1938896D01*
X1280245Y1938798D01*
X1280257Y1938777D01*
X1280264Y1938754D01*
X1280320Y1938673D01*
X1280371Y1938587D01*
X1280389Y1938571D01*
X1280403Y1938552D01*
X1280482Y1938492D01*
X1280558Y1938427D01*
X1280580Y1938418D01*
X1280599Y1938404D01*
X1280756Y1938343D01*
X1281642Y1938105D01*
X1288519Y1934135D01*
X1294135Y1928519D01*
X1298105Y1921642D01*
X1300161Y1913971D01*
X1300161Y1906029D01*
X1298105Y1898358D01*
X1294135Y1891481D01*
X1288519Y1885865D01*
X1281642Y1881895D01*
X1273971Y1879839D01*
X1266029Y1879839D01*
X1258358Y1881895D01*
X1251481Y1885865D01*
X1245865Y1891481D01*
X1241895Y1898358D01*
X1239839Y1906029D01*
X1239839Y1913971D01*
X1241895Y1921642D01*
X1245865Y1928519D01*
X1251481Y1934135D01*
X1258358Y1938105D01*
X1259244Y1938343D01*
X1259266Y1938353D01*
X1259290Y1938357D01*
X1259378Y1938403D01*
X1259469Y1938444D01*
X1259486Y1938460D01*
X1259507Y1938472D01*
X1259576Y1938543D01*
X1259649Y1938611D01*
X1259660Y1938632D01*
X1259677Y1938650D01*
X1259719Y1938740D01*
X1259766Y1938827D01*
X1259770Y1938851D01*
X1259780Y1938873D01*
X1259791Y1938972D01*
X1259809Y1939070D01*
X1259805Y1939094D01*
X1259808Y1939117D01*
X1259787Y1939214D01*
X1259771Y1939313D01*
X1259760Y1939334D01*
X1259755Y1939358D01*
X1259704Y1939443D01*
X1259659Y1939532D01*
X1259641Y1939548D01*
X1259629Y1939569D01*
X1259554Y1939634D01*
X1259482Y1939703D01*
X1259461Y1939713D01*
X1259442Y1939729D01*
X1259350Y1939766D01*
X1259260Y1939809D01*
X1259236Y1939812D01*
X1259214Y1939821D01*
X1259047Y1939839D01*
X230953Y1939839D01*
X230929Y1939835D01*
X230905Y1939838D01*
X230808Y1939816D01*
X230710Y1939800D01*
X230689Y1939788D01*
X230665Y1939783D01*
X230580Y1939731D01*
X230493Y1939684D01*
X230476Y1939667D01*
X230455Y1939654D01*
X230392Y1939578D01*
X230323Y1939506D01*
X230313Y1939484D01*
X230298Y1939466D01*
X230261Y1939373D01*
X230220Y1939283D01*
X230217Y1939259D01*
X230208Y1939237D01*
X230203Y1939137D01*
X230192Y1939039D01*
X230198Y1939015D01*
X230196Y1938991D01*
X230224Y1938896D01*
X230245Y1938798D01*
X230257Y1938777D01*
X230264Y1938754D01*
X230320Y1938673D01*
X230371Y1938587D01*
X230389Y1938571D01*
X230403Y1938552D01*
X230482Y1938492D01*
X230558Y1938427D01*
X230580Y1938418D01*
X230599Y1938404D01*
X230756Y1938343D01*
X231642Y1938105D01*
X238519Y1934135D01*
X244135Y1928519D01*
X248105Y1921642D01*
X250161Y1913971D01*
X250161Y1906029D01*
X248105Y1898358D01*
X244135Y1891481D01*
X238519Y1885865D01*
X231642Y1881895D01*
X223971Y1879839D01*
X216029Y1879839D01*
X208358Y1881895D01*
X201481Y1885865D01*
X195865Y1891481D01*
X191895Y1898358D01*
X189839Y1906029D01*
X189839Y1913971D01*
X191895Y1921642D01*
X195865Y1928519D01*
X201481Y1934135D01*
X208358Y1938105D01*
X209244Y1938343D01*
X209266Y1938353D01*
X209290Y1938357D01*
X209378Y1938403D01*
X209469Y1938444D01*
X209486Y1938460D01*
X209507Y1938472D01*
X209576Y1938543D01*
X209649Y1938611D01*
X209660Y1938632D01*
X209677Y1938650D01*
X209719Y1938740D01*
X209766Y1938827D01*
X209770Y1938851D01*
X209780Y1938873D01*
X209791Y1938972D01*
X209809Y1939070D01*
X209805Y1939094D01*
X209808Y1939117D01*
X209787Y1939214D01*
X209771Y1939313D01*
X209760Y1939334D01*
X209755Y1939358D01*
X209704Y1939443D01*
X209659Y1939532D01*
X209641Y1939548D01*
X209629Y1939569D01*
X209554Y1939634D01*
X209482Y1939703D01*
X209461Y1939713D01*
X209442Y1939729D01*
X209350Y1939766D01*
X209260Y1939809D01*
X209236Y1939812D01*
X209214Y1939821D01*
X209047Y1939839D01*
X37922Y1939839D01*
X37902Y1939836D01*
X37883Y1939838D01*
X37781Y1939816D01*
X37679Y1939800D01*
X37662Y1939790D01*
X37642Y1939786D01*
X37553Y1939733D01*
X37462Y1939684D01*
X37448Y1939670D01*
X37431Y1939660D01*
X37364Y1939581D01*
X37292Y1939506D01*
X37284Y1939488D01*
X37271Y1939473D01*
X37232Y1939377D01*
X37189Y1939283D01*
X37187Y1939263D01*
X37179Y1939245D01*
X37161Y1939078D01*
X37161Y680922D01*
X37164Y680902D01*
X37162Y680883D01*
X37184Y680781D01*
X37200Y680679D01*
X37210Y680662D01*
X37214Y680642D01*
X37267Y680553D01*
X37316Y680462D01*
X37330Y680448D01*
X37340Y680431D01*
X37419Y680364D01*
X37494Y680292D01*
X37512Y680284D01*
X37527Y680271D01*
X37623Y680232D01*
X37717Y680189D01*
X37737Y680187D01*
X37755Y680179D01*
X37922Y680161D01*
X1539078Y680161D01*
X1539098Y680164D01*
G37*
%LPC*%
G36*
X158168Y872575D02*
X158168Y872575D01*
X157275Y873468D01*
X157275Y921732D01*
X158168Y922625D01*
X197525Y922625D01*
X197615Y922639D01*
X197706Y922647D01*
X197735Y922659D01*
X197767Y922664D01*
X197848Y922707D01*
X197932Y922743D01*
X197964Y922769D01*
X197985Y922780D01*
X198007Y922803D01*
X198063Y922848D01*
X234676Y959461D01*
X234729Y959535D01*
X234789Y959604D01*
X234801Y959635D01*
X234820Y959661D01*
X234847Y959748D01*
X234881Y959833D01*
X234885Y959874D01*
X234892Y959896D01*
X234891Y959928D01*
X234899Y959999D01*
X234899Y1032414D01*
X234896Y1032434D01*
X234898Y1032453D01*
X234876Y1032555D01*
X234860Y1032657D01*
X234850Y1032674D01*
X234846Y1032694D01*
X234793Y1032783D01*
X234744Y1032874D01*
X234730Y1032888D01*
X234720Y1032905D01*
X234641Y1032972D01*
X234566Y1033044D01*
X234548Y1033052D01*
X234533Y1033065D01*
X234437Y1033104D01*
X234343Y1033147D01*
X234323Y1033149D01*
X234305Y1033157D01*
X234138Y1033175D01*
X196268Y1033175D01*
X195375Y1034068D01*
X195375Y1053370D01*
X195372Y1053390D01*
X195374Y1053409D01*
X195352Y1053511D01*
X195336Y1053613D01*
X195326Y1053630D01*
X195322Y1053650D01*
X195269Y1053739D01*
X195220Y1053830D01*
X195206Y1053844D01*
X195196Y1053861D01*
X195117Y1053928D01*
X195042Y1054000D01*
X195024Y1054008D01*
X195009Y1054021D01*
X194913Y1054060D01*
X194819Y1054103D01*
X194799Y1054105D01*
X194781Y1054113D01*
X194614Y1054131D01*
X118583Y1054131D01*
X118537Y1054124D01*
X118492Y1054126D01*
X118417Y1054104D01*
X118340Y1054092D01*
X118299Y1054070D01*
X118255Y1054057D01*
X118191Y1054013D01*
X118123Y1053976D01*
X118091Y1053943D01*
X118053Y1053917D01*
X118007Y1053855D01*
X117953Y1053798D01*
X117934Y1053756D01*
X117907Y1053720D01*
X117882Y1053646D01*
X117850Y1053575D01*
X117845Y1053529D01*
X117830Y1053486D01*
X117831Y1053408D01*
X117823Y1053331D01*
X117832Y1053286D01*
X117833Y1053240D01*
X117871Y1053108D01*
X117875Y1053090D01*
X117877Y1053086D01*
X117879Y1053079D01*
X120000Y1047960D01*
X120000Y1040640D01*
X117199Y1033877D01*
X112023Y1028701D01*
X105260Y1025900D01*
X97940Y1025900D01*
X91177Y1028701D01*
X86001Y1033877D01*
X83200Y1040640D01*
X83200Y1047960D01*
X86001Y1054723D01*
X91177Y1059899D01*
X97940Y1062700D01*
X105260Y1062700D01*
X111224Y1060229D01*
X111338Y1060203D01*
X111451Y1060174D01*
X111457Y1060175D01*
X111463Y1060173D01*
X111580Y1060184D01*
X111696Y1060193D01*
X111702Y1060196D01*
X111708Y1060196D01*
X111816Y1060244D01*
X111923Y1060290D01*
X111929Y1060294D01*
X111933Y1060296D01*
X111947Y1060309D01*
X112054Y1060394D01*
X112840Y1061181D01*
X194614Y1061181D01*
X194634Y1061184D01*
X194653Y1061182D01*
X194755Y1061204D01*
X194857Y1061220D01*
X194874Y1061230D01*
X194894Y1061234D01*
X194983Y1061287D01*
X195074Y1061336D01*
X195088Y1061350D01*
X195105Y1061360D01*
X195172Y1061439D01*
X195244Y1061514D01*
X195252Y1061532D01*
X195265Y1061547D01*
X195304Y1061643D01*
X195347Y1061737D01*
X195349Y1061757D01*
X195357Y1061775D01*
X195375Y1061942D01*
X195375Y1082332D01*
X196268Y1083225D01*
X231536Y1083225D01*
X231607Y1083236D01*
X231679Y1083238D01*
X231728Y1083256D01*
X231779Y1083264D01*
X231843Y1083298D01*
X231910Y1083323D01*
X231951Y1083355D01*
X231997Y1083380D01*
X232046Y1083432D01*
X232102Y1083476D01*
X232130Y1083520D01*
X232166Y1083558D01*
X232196Y1083623D01*
X232235Y1083683D01*
X232248Y1083734D01*
X232270Y1083781D01*
X232277Y1083852D01*
X232295Y1083922D01*
X232291Y1083974D01*
X232297Y1084025D01*
X232281Y1084096D01*
X232276Y1084167D01*
X232255Y1084215D01*
X232244Y1084266D01*
X232208Y1084327D01*
X232180Y1084393D01*
X232135Y1084449D01*
X232118Y1084477D01*
X232100Y1084492D01*
X232075Y1084524D01*
X215647Y1100952D01*
X215573Y1101005D01*
X215503Y1101065D01*
X215473Y1101077D01*
X215447Y1101096D01*
X215360Y1101123D01*
X215275Y1101157D01*
X215234Y1101161D01*
X215212Y1101168D01*
X215180Y1101167D01*
X215108Y1101175D01*
X196268Y1101175D01*
X195375Y1102068D01*
X195375Y1150332D01*
X196268Y1151225D01*
X199930Y1151225D01*
X199950Y1151228D01*
X199969Y1151226D01*
X200071Y1151248D01*
X200173Y1151264D01*
X200190Y1151274D01*
X200210Y1151278D01*
X200299Y1151331D01*
X200390Y1151380D01*
X200404Y1151394D01*
X200421Y1151404D01*
X200488Y1151483D01*
X200560Y1151558D01*
X200568Y1151576D01*
X200581Y1151591D01*
X200620Y1151687D01*
X200663Y1151781D01*
X200665Y1151801D01*
X200673Y1151819D01*
X200691Y1151986D01*
X200691Y1248314D01*
X200688Y1248334D01*
X200690Y1248353D01*
X200668Y1248455D01*
X200652Y1248557D01*
X200642Y1248574D01*
X200638Y1248594D01*
X200585Y1248683D01*
X200536Y1248774D01*
X200522Y1248788D01*
X200512Y1248805D01*
X200433Y1248872D01*
X200358Y1248944D01*
X200340Y1248952D01*
X200325Y1248965D01*
X200229Y1249004D01*
X200135Y1249047D01*
X200115Y1249049D01*
X200097Y1249057D01*
X199930Y1249075D01*
X183568Y1249075D01*
X182675Y1249968D01*
X182675Y1298232D01*
X183568Y1299125D01*
X222832Y1299125D01*
X223725Y1298232D01*
X223725Y1297855D01*
X223736Y1297785D01*
X223738Y1297713D01*
X223756Y1297664D01*
X223764Y1297613D01*
X223798Y1297549D01*
X223823Y1297482D01*
X223855Y1297441D01*
X223880Y1297395D01*
X223932Y1297346D01*
X223976Y1297290D01*
X224020Y1297262D01*
X224058Y1297226D01*
X224123Y1297196D01*
X224183Y1297157D01*
X224234Y1297144D01*
X224281Y1297122D01*
X224352Y1297114D01*
X224422Y1297097D01*
X224474Y1297101D01*
X224525Y1297095D01*
X224596Y1297110D01*
X224667Y1297116D01*
X224715Y1297136D01*
X224766Y1297147D01*
X224827Y1297184D01*
X224893Y1297212D01*
X224949Y1297257D01*
X224977Y1297273D01*
X224992Y1297291D01*
X225024Y1297317D01*
X234504Y1306797D01*
X234557Y1306871D01*
X234617Y1306940D01*
X234629Y1306971D01*
X234648Y1306997D01*
X234675Y1307084D01*
X234709Y1307169D01*
X234713Y1307210D01*
X234720Y1307232D01*
X234719Y1307264D01*
X234727Y1307335D01*
X234727Y1428753D01*
X234713Y1428843D01*
X234705Y1428934D01*
X234693Y1428963D01*
X234688Y1428995D01*
X234645Y1429076D01*
X234609Y1429160D01*
X234583Y1429192D01*
X234572Y1429213D01*
X234549Y1429235D01*
X234504Y1429291D01*
X224064Y1439731D01*
X224048Y1439743D01*
X224035Y1439758D01*
X223948Y1439814D01*
X223864Y1439875D01*
X223845Y1439881D01*
X223829Y1439891D01*
X223728Y1439917D01*
X223629Y1439947D01*
X223609Y1439947D01*
X223590Y1439951D01*
X223487Y1439943D01*
X223383Y1439941D01*
X223365Y1439934D01*
X223345Y1439932D01*
X223250Y1439892D01*
X223152Y1439856D01*
X223137Y1439844D01*
X223118Y1439836D01*
X222988Y1439731D01*
X222832Y1439575D01*
X183568Y1439575D01*
X182675Y1440468D01*
X182675Y1488732D01*
X183568Y1489625D01*
X222453Y1489625D01*
X222543Y1489639D01*
X222634Y1489647D01*
X222663Y1489659D01*
X222695Y1489664D01*
X222776Y1489707D01*
X222860Y1489743D01*
X222892Y1489769D01*
X222913Y1489780D01*
X222935Y1489803D01*
X222991Y1489848D01*
X273969Y1540826D01*
X274022Y1540900D01*
X274082Y1540969D01*
X274094Y1541000D01*
X274113Y1541026D01*
X274140Y1541113D01*
X274174Y1541198D01*
X274178Y1541239D01*
X274185Y1541261D01*
X274184Y1541293D01*
X274192Y1541364D01*
X274192Y1542912D01*
X274178Y1543003D01*
X274170Y1543093D01*
X274158Y1543123D01*
X274153Y1543155D01*
X274110Y1543236D01*
X274074Y1543320D01*
X274048Y1543352D01*
X274037Y1543373D01*
X274014Y1543395D01*
X273969Y1543451D01*
X213613Y1603807D01*
X213613Y1622700D01*
X213594Y1622814D01*
X213577Y1622931D01*
X213575Y1622936D01*
X213574Y1622942D01*
X213519Y1623045D01*
X213466Y1623150D01*
X213461Y1623154D01*
X213458Y1623160D01*
X213375Y1623239D01*
X213290Y1623322D01*
X213284Y1623326D01*
X213280Y1623329D01*
X213263Y1623337D01*
X213143Y1623403D01*
X211558Y1624059D01*
X208771Y1626846D01*
X207263Y1630487D01*
X207263Y1651193D01*
X208771Y1654834D01*
X211558Y1657621D01*
X215199Y1659129D01*
X219141Y1659129D01*
X222782Y1657621D01*
X225569Y1654834D01*
X227077Y1651193D01*
X227077Y1630487D01*
X225569Y1626846D01*
X222782Y1624059D01*
X221197Y1623403D01*
X221097Y1623341D01*
X220997Y1623281D01*
X220993Y1623277D01*
X220988Y1623273D01*
X220913Y1623183D01*
X220837Y1623094D01*
X220835Y1623089D01*
X220831Y1623084D01*
X220789Y1622976D01*
X220745Y1622866D01*
X220744Y1622859D01*
X220743Y1622854D01*
X220742Y1622836D01*
X220727Y1622700D01*
X220727Y1607069D01*
X220741Y1606978D01*
X220749Y1606888D01*
X220761Y1606858D01*
X220766Y1606826D01*
X220809Y1606745D01*
X220845Y1606661D01*
X220871Y1606629D01*
X220882Y1606608D01*
X220905Y1606586D01*
X220950Y1606530D01*
X279773Y1547707D01*
X279790Y1547695D01*
X279802Y1547679D01*
X279889Y1547623D01*
X279973Y1547563D01*
X279992Y1547557D01*
X280009Y1547546D01*
X280109Y1547521D01*
X280208Y1547491D01*
X280228Y1547491D01*
X280247Y1547486D01*
X280350Y1547494D01*
X280454Y1547497D01*
X280473Y1547504D01*
X280493Y1547506D01*
X280587Y1547546D01*
X280685Y1547582D01*
X280701Y1547594D01*
X280719Y1547602D01*
X280850Y1547707D01*
X311974Y1578831D01*
X312027Y1578905D01*
X312087Y1578974D01*
X312099Y1579005D01*
X312118Y1579031D01*
X312145Y1579118D01*
X312179Y1579203D01*
X312183Y1579244D01*
X312190Y1579266D01*
X312189Y1579298D01*
X312197Y1579369D01*
X312197Y1635950D01*
X314485Y1638238D01*
X321594Y1645347D01*
X321647Y1645421D01*
X321707Y1645490D01*
X321717Y1645515D01*
X323901Y1647699D01*
X342853Y1647699D01*
X342944Y1647713D01*
X343034Y1647721D01*
X343064Y1647733D01*
X343096Y1647738D01*
X343177Y1647781D01*
X343261Y1647817D01*
X343293Y1647843D01*
X343314Y1647854D01*
X343323Y1647864D01*
X343324Y1647864D01*
X343338Y1647879D01*
X343392Y1647922D01*
X360542Y1665072D01*
X360595Y1665146D01*
X360655Y1665216D01*
X360667Y1665246D01*
X360686Y1665272D01*
X360713Y1665359D01*
X360747Y1665444D01*
X360751Y1665485D01*
X360758Y1665507D01*
X360757Y1665539D01*
X360765Y1665611D01*
X360765Y1704922D01*
X361658Y1705815D01*
X409922Y1705815D01*
X410815Y1704922D01*
X410815Y1684702D01*
X410829Y1684612D01*
X410837Y1684521D01*
X410849Y1684491D01*
X410854Y1684459D01*
X410897Y1684378D01*
X410933Y1684294D01*
X410959Y1684262D01*
X410970Y1684242D01*
X410993Y1684219D01*
X411038Y1684163D01*
X429896Y1665305D01*
X429954Y1665263D01*
X430006Y1665214D01*
X430053Y1665192D01*
X430095Y1665162D01*
X430164Y1665141D01*
X430229Y1665110D01*
X430281Y1665105D01*
X430331Y1665089D01*
X430402Y1665091D01*
X430473Y1665083D01*
X430524Y1665094D01*
X430576Y1665096D01*
X430644Y1665120D01*
X430714Y1665136D01*
X430759Y1665162D01*
X430807Y1665180D01*
X430863Y1665225D01*
X430925Y1665262D01*
X430959Y1665301D01*
X430999Y1665334D01*
X431038Y1665394D01*
X431085Y1665449D01*
X431104Y1665497D01*
X431132Y1665541D01*
X431150Y1665610D01*
X431177Y1665677D01*
X431185Y1665748D01*
X431193Y1665779D01*
X431191Y1665803D01*
X431195Y1665844D01*
X431195Y1701205D01*
X431181Y1701295D01*
X431173Y1701386D01*
X431161Y1701415D01*
X431156Y1701447D01*
X431113Y1701528D01*
X431077Y1701612D01*
X431051Y1701644D01*
X431040Y1701665D01*
X431017Y1701687D01*
X430972Y1701743D01*
X414595Y1718120D01*
X414595Y1721040D01*
X415860Y1722305D01*
X415913Y1722379D01*
X415973Y1722448D01*
X415985Y1722479D01*
X416004Y1722505D01*
X416031Y1722592D01*
X416065Y1722677D01*
X416069Y1722718D01*
X416076Y1722740D01*
X416075Y1722772D01*
X416083Y1722843D01*
X416083Y1740517D01*
X416069Y1740607D01*
X416061Y1740698D01*
X416049Y1740727D01*
X416044Y1740759D01*
X416001Y1740840D01*
X415965Y1740924D01*
X415939Y1740956D01*
X415928Y1740977D01*
X415905Y1740999D01*
X415860Y1741055D01*
X384657Y1772258D01*
X384564Y1772325D01*
X384469Y1772396D01*
X384463Y1772398D01*
X384458Y1772401D01*
X384347Y1772435D01*
X384235Y1772472D01*
X384229Y1772472D01*
X384223Y1772474D01*
X384106Y1772471D01*
X383989Y1772470D01*
X383982Y1772467D01*
X383977Y1772467D01*
X383959Y1772461D01*
X383828Y1772423D01*
X377400Y1769760D01*
X370080Y1769760D01*
X363317Y1772561D01*
X358141Y1777737D01*
X355340Y1784500D01*
X355340Y1791820D01*
X358141Y1798583D01*
X363317Y1803759D01*
X370080Y1806560D01*
X377400Y1806560D01*
X384163Y1803759D01*
X389339Y1798583D01*
X392140Y1791820D01*
X392140Y1784500D01*
X389477Y1778072D01*
X389451Y1777959D01*
X389422Y1777845D01*
X389422Y1777839D01*
X389421Y1777833D01*
X389432Y1777716D01*
X389441Y1777600D01*
X389444Y1777594D01*
X389444Y1777588D01*
X389492Y1777479D01*
X389537Y1777373D01*
X389542Y1777368D01*
X389544Y1777363D01*
X389557Y1777349D01*
X389642Y1777243D01*
X420845Y1746040D01*
X423133Y1743752D01*
X423133Y1719867D01*
X423147Y1719777D01*
X423155Y1719686D01*
X423167Y1719657D01*
X423172Y1719625D01*
X423215Y1719544D01*
X423251Y1719460D01*
X423277Y1719428D01*
X423288Y1719407D01*
X423311Y1719385D01*
X423356Y1719329D01*
X440457Y1702228D01*
X440531Y1702175D01*
X440600Y1702115D01*
X440631Y1702103D01*
X440657Y1702084D01*
X440744Y1702057D01*
X440829Y1702023D01*
X440870Y1702019D01*
X440892Y1702012D01*
X440924Y1702013D01*
X440995Y1702005D01*
X480352Y1702005D01*
X481245Y1701112D01*
X481245Y1665844D01*
X481256Y1665773D01*
X481258Y1665701D01*
X481276Y1665652D01*
X481284Y1665601D01*
X481318Y1665537D01*
X481343Y1665470D01*
X481375Y1665429D01*
X481400Y1665383D01*
X481452Y1665334D01*
X481496Y1665278D01*
X481540Y1665250D01*
X481578Y1665214D01*
X481643Y1665184D01*
X481703Y1665145D01*
X481754Y1665132D01*
X481801Y1665110D01*
X481872Y1665103D01*
X481942Y1665085D01*
X481994Y1665089D01*
X482045Y1665083D01*
X482116Y1665099D01*
X482187Y1665104D01*
X482235Y1665125D01*
X482286Y1665136D01*
X482347Y1665172D01*
X482413Y1665200D01*
X482469Y1665245D01*
X482497Y1665262D01*
X482512Y1665280D01*
X482544Y1665305D01*
X498972Y1681733D01*
X499025Y1681807D01*
X499085Y1681877D01*
X499097Y1681907D01*
X499116Y1681933D01*
X499143Y1682020D01*
X499177Y1682105D01*
X499181Y1682146D01*
X499188Y1682168D01*
X499187Y1682200D01*
X499195Y1682272D01*
X499195Y1701112D01*
X500088Y1702005D01*
X548352Y1702005D01*
X549245Y1701112D01*
X549245Y1680686D01*
X549248Y1680666D01*
X549246Y1680647D01*
X549268Y1680545D01*
X549284Y1680443D01*
X549294Y1680426D01*
X549298Y1680406D01*
X549351Y1680317D01*
X549400Y1680226D01*
X549414Y1680212D01*
X549424Y1680195D01*
X549503Y1680128D01*
X549578Y1680056D01*
X549596Y1680048D01*
X549611Y1680035D01*
X549707Y1679996D01*
X549801Y1679953D01*
X549821Y1679951D01*
X549839Y1679943D01*
X550006Y1679925D01*
X594264Y1679925D01*
X594284Y1679928D01*
X594303Y1679926D01*
X594405Y1679948D01*
X594507Y1679964D01*
X594524Y1679974D01*
X594544Y1679978D01*
X594633Y1680031D01*
X594724Y1680080D01*
X594738Y1680094D01*
X594755Y1680104D01*
X594822Y1680183D01*
X594894Y1680258D01*
X594902Y1680276D01*
X594915Y1680291D01*
X594954Y1680387D01*
X594997Y1680481D01*
X594999Y1680501D01*
X595007Y1680519D01*
X595025Y1680686D01*
X595025Y1696032D01*
X595918Y1696925D01*
X644182Y1696925D01*
X645075Y1696032D01*
X645075Y1656768D01*
X644182Y1655875D01*
X595918Y1655875D01*
X595025Y1656768D01*
X595025Y1672114D01*
X595022Y1672134D01*
X595024Y1672153D01*
X595002Y1672255D01*
X594986Y1672357D01*
X594976Y1672374D01*
X594972Y1672394D01*
X594919Y1672483D01*
X594870Y1672574D01*
X594856Y1672588D01*
X594846Y1672605D01*
X594767Y1672672D01*
X594692Y1672744D01*
X594674Y1672752D01*
X594659Y1672765D01*
X594563Y1672804D01*
X594469Y1672847D01*
X594449Y1672849D01*
X594431Y1672857D01*
X594264Y1672875D01*
X550006Y1672875D01*
X549986Y1672872D01*
X549967Y1672874D01*
X549865Y1672852D01*
X549763Y1672836D01*
X549746Y1672826D01*
X549726Y1672822D01*
X549637Y1672769D01*
X549546Y1672720D01*
X549532Y1672706D01*
X549515Y1672696D01*
X549448Y1672617D01*
X549376Y1672542D01*
X549368Y1672524D01*
X549355Y1672509D01*
X549316Y1672413D01*
X549273Y1672319D01*
X549271Y1672299D01*
X549263Y1672281D01*
X549245Y1672114D01*
X549245Y1661848D01*
X548352Y1660955D01*
X518890Y1660955D01*
X518870Y1660952D01*
X518851Y1660954D01*
X518749Y1660932D01*
X518647Y1660916D01*
X518630Y1660906D01*
X518610Y1660902D01*
X518521Y1660849D01*
X518430Y1660800D01*
X518416Y1660786D01*
X518399Y1660776D01*
X518332Y1660697D01*
X518260Y1660622D01*
X518252Y1660604D01*
X518239Y1660589D01*
X518200Y1660493D01*
X518157Y1660399D01*
X518155Y1660379D01*
X518147Y1660361D01*
X518129Y1660194D01*
X518129Y1576067D01*
X518143Y1575977D01*
X518151Y1575886D01*
X518163Y1575857D01*
X518168Y1575825D01*
X518211Y1575744D01*
X518247Y1575660D01*
X518273Y1575628D01*
X518284Y1575607D01*
X518307Y1575585D01*
X518352Y1575529D01*
X533113Y1560768D01*
X533187Y1560715D01*
X533256Y1560655D01*
X533287Y1560643D01*
X533313Y1560624D01*
X533400Y1560597D01*
X533485Y1560563D01*
X533526Y1560559D01*
X533548Y1560552D01*
X533580Y1560553D01*
X533651Y1560545D01*
X575821Y1560545D01*
X575911Y1560559D01*
X576002Y1560567D01*
X576031Y1560579D01*
X576063Y1560584D01*
X576144Y1560627D01*
X576228Y1560663D01*
X576260Y1560689D01*
X576281Y1560700D01*
X576303Y1560723D01*
X576359Y1560768D01*
X651318Y1635727D01*
X653606Y1638015D01*
X878625Y1638015D01*
X878715Y1638029D01*
X878806Y1638037D01*
X878835Y1638049D01*
X878867Y1638054D01*
X878948Y1638097D01*
X879032Y1638133D01*
X879064Y1638159D01*
X879085Y1638170D01*
X879107Y1638193D01*
X879163Y1638238D01*
X898332Y1657407D01*
X898385Y1657481D01*
X898445Y1657550D01*
X898457Y1657581D01*
X898476Y1657607D01*
X898503Y1657694D01*
X898537Y1657779D01*
X898541Y1657820D01*
X898548Y1657842D01*
X898547Y1657874D01*
X898555Y1657945D01*
X898555Y1697302D01*
X899448Y1698195D01*
X919262Y1698195D01*
X919282Y1698198D01*
X919301Y1698196D01*
X919403Y1698218D01*
X919505Y1698234D01*
X919522Y1698244D01*
X919542Y1698248D01*
X919631Y1698301D01*
X919722Y1698350D01*
X919736Y1698364D01*
X919753Y1698374D01*
X919820Y1698453D01*
X919892Y1698528D01*
X919900Y1698546D01*
X919913Y1698561D01*
X919952Y1698657D01*
X919995Y1698751D01*
X919997Y1698771D01*
X920005Y1698789D01*
X920023Y1698956D01*
X920023Y1833071D01*
X920009Y1833162D01*
X920001Y1833252D01*
X919989Y1833282D01*
X919984Y1833314D01*
X919941Y1833395D01*
X919905Y1833479D01*
X919879Y1833511D01*
X919868Y1833532D01*
X919845Y1833554D01*
X919800Y1833610D01*
X875050Y1878360D01*
X874976Y1878413D01*
X874906Y1878473D01*
X874876Y1878485D01*
X874850Y1878504D01*
X874763Y1878531D01*
X874678Y1878565D01*
X874637Y1878569D01*
X874615Y1878576D01*
X874583Y1878575D01*
X874511Y1878583D01*
X843127Y1878583D01*
X843056Y1878572D01*
X842984Y1878570D01*
X842935Y1878552D01*
X842884Y1878544D01*
X842821Y1878510D01*
X842753Y1878485D01*
X842713Y1878453D01*
X842667Y1878428D01*
X842617Y1878376D01*
X842561Y1878332D01*
X842533Y1878288D01*
X842497Y1878250D01*
X842467Y1878185D01*
X842428Y1878125D01*
X842416Y1878074D01*
X842394Y1878027D01*
X842386Y1877956D01*
X842368Y1877886D01*
X842372Y1877834D01*
X842367Y1877783D01*
X842382Y1877712D01*
X842387Y1877641D01*
X842408Y1877593D01*
X842419Y1877542D01*
X842456Y1877481D01*
X842484Y1877415D01*
X842528Y1877359D01*
X842545Y1877331D01*
X842563Y1877316D01*
X842588Y1877284D01*
X845329Y1874544D01*
X846837Y1870903D01*
X846837Y1850197D01*
X845329Y1846556D01*
X842542Y1843769D01*
X838901Y1842261D01*
X834959Y1842261D01*
X831318Y1843769D01*
X828531Y1846556D01*
X827023Y1850197D01*
X827023Y1870903D01*
X828531Y1874544D01*
X831272Y1877284D01*
X831313Y1877342D01*
X831363Y1877394D01*
X831385Y1877441D01*
X831415Y1877483D01*
X831436Y1877552D01*
X831466Y1877617D01*
X831472Y1877669D01*
X831487Y1877719D01*
X831486Y1877790D01*
X831493Y1877861D01*
X831482Y1877912D01*
X831481Y1877964D01*
X831456Y1878032D01*
X831441Y1878102D01*
X831414Y1878147D01*
X831397Y1878195D01*
X831352Y1878251D01*
X831315Y1878313D01*
X831275Y1878347D01*
X831243Y1878387D01*
X831183Y1878426D01*
X831128Y1878473D01*
X831080Y1878492D01*
X831036Y1878520D01*
X830967Y1878538D01*
X830900Y1878565D01*
X830829Y1878573D01*
X830797Y1878581D01*
X830774Y1878579D01*
X830733Y1878583D01*
X822198Y1878583D01*
X822178Y1878580D01*
X822159Y1878582D01*
X822057Y1878560D01*
X821955Y1878544D01*
X821938Y1878534D01*
X821918Y1878530D01*
X821829Y1878477D01*
X821738Y1878428D01*
X821724Y1878414D01*
X821707Y1878404D01*
X821640Y1878325D01*
X821568Y1878250D01*
X821560Y1878232D01*
X821547Y1878217D01*
X821508Y1878121D01*
X821465Y1878027D01*
X821463Y1878007D01*
X821455Y1877989D01*
X821437Y1877822D01*
X821437Y1850197D01*
X819929Y1846556D01*
X817142Y1843769D01*
X813501Y1842261D01*
X809559Y1842261D01*
X805918Y1843769D01*
X803131Y1846556D01*
X801623Y1850197D01*
X801623Y1870903D01*
X803131Y1874544D01*
X805918Y1877331D01*
X809559Y1878839D01*
X813562Y1878839D01*
X813582Y1878842D01*
X813601Y1878840D01*
X813703Y1878862D01*
X813805Y1878878D01*
X813822Y1878888D01*
X813842Y1878892D01*
X813931Y1878945D01*
X814022Y1878994D01*
X814036Y1879008D01*
X814053Y1879018D01*
X814120Y1879097D01*
X814192Y1879172D01*
X814200Y1879190D01*
X814213Y1879205D01*
X814252Y1879301D01*
X814295Y1879395D01*
X814297Y1879415D01*
X814305Y1879433D01*
X814323Y1879600D01*
X814323Y1883613D01*
X816407Y1885697D01*
X877773Y1885697D01*
X927137Y1836333D01*
X927137Y1698956D01*
X927140Y1698936D01*
X927138Y1698917D01*
X927160Y1698815D01*
X927176Y1698713D01*
X927186Y1698696D01*
X927190Y1698676D01*
X927243Y1698587D01*
X927292Y1698496D01*
X927306Y1698482D01*
X927316Y1698465D01*
X927395Y1698398D01*
X927470Y1698326D01*
X927488Y1698318D01*
X927503Y1698305D01*
X927599Y1698266D01*
X927693Y1698223D01*
X927713Y1698221D01*
X927731Y1698213D01*
X927898Y1698195D01*
X947712Y1698195D01*
X948605Y1697302D01*
X948605Y1658038D01*
X947712Y1657145D01*
X908355Y1657145D01*
X908265Y1657131D01*
X908174Y1657123D01*
X908145Y1657111D01*
X908113Y1657106D01*
X908032Y1657063D01*
X907948Y1657027D01*
X907916Y1657001D01*
X907895Y1656990D01*
X907873Y1656967D01*
X907817Y1656922D01*
X881860Y1630965D01*
X656841Y1630965D01*
X656751Y1630951D01*
X656660Y1630943D01*
X656631Y1630931D01*
X656599Y1630926D01*
X656518Y1630883D01*
X656434Y1630847D01*
X656402Y1630821D01*
X656381Y1630810D01*
X656378Y1630807D01*
X656358Y1630787D01*
X656303Y1630742D01*
X581344Y1555783D01*
X579056Y1553495D01*
X530416Y1553495D01*
X513367Y1570544D01*
X511079Y1572832D01*
X511079Y1660194D01*
X511076Y1660214D01*
X511078Y1660233D01*
X511056Y1660335D01*
X511040Y1660437D01*
X511030Y1660454D01*
X511026Y1660474D01*
X510973Y1660563D01*
X510924Y1660654D01*
X510910Y1660668D01*
X510900Y1660685D01*
X510821Y1660752D01*
X510746Y1660824D01*
X510728Y1660832D01*
X510713Y1660845D01*
X510617Y1660884D01*
X510523Y1660927D01*
X510503Y1660929D01*
X510485Y1660937D01*
X510318Y1660955D01*
X500088Y1660955D01*
X499195Y1661848D01*
X499195Y1670059D01*
X499184Y1670129D01*
X499182Y1670201D01*
X499164Y1670250D01*
X499156Y1670301D01*
X499122Y1670365D01*
X499097Y1670432D01*
X499065Y1670473D01*
X499040Y1670519D01*
X498988Y1670568D01*
X498944Y1670624D01*
X498900Y1670652D01*
X498862Y1670688D01*
X498797Y1670718D01*
X498737Y1670757D01*
X498686Y1670770D01*
X498639Y1670792D01*
X498568Y1670800D01*
X498498Y1670817D01*
X498446Y1670813D01*
X498395Y1670819D01*
X498324Y1670804D01*
X498253Y1670798D01*
X498205Y1670778D01*
X498154Y1670767D01*
X498093Y1670730D01*
X498027Y1670702D01*
X497971Y1670657D01*
X497943Y1670640D01*
X497928Y1670623D01*
X497896Y1670597D01*
X482666Y1655367D01*
X429774Y1655367D01*
X412114Y1673027D01*
X412056Y1673069D01*
X412004Y1673118D01*
X411957Y1673140D01*
X411915Y1673170D01*
X411846Y1673191D01*
X411781Y1673222D01*
X411729Y1673227D01*
X411679Y1673243D01*
X411608Y1673241D01*
X411537Y1673249D01*
X411486Y1673238D01*
X411434Y1673236D01*
X411366Y1673212D01*
X411296Y1673197D01*
X411251Y1673170D01*
X411203Y1673152D01*
X411147Y1673107D01*
X411085Y1673070D01*
X411051Y1673031D01*
X411011Y1672998D01*
X410972Y1672938D01*
X410925Y1672883D01*
X410906Y1672835D01*
X410878Y1672791D01*
X410860Y1672722D01*
X410833Y1672655D01*
X410825Y1672584D01*
X410817Y1672553D01*
X410819Y1672529D01*
X410815Y1672489D01*
X410815Y1665658D01*
X409922Y1664765D01*
X370611Y1664765D01*
X370520Y1664751D01*
X370430Y1664743D01*
X370400Y1664731D01*
X370368Y1664726D01*
X370287Y1664683D01*
X370203Y1664647D01*
X370171Y1664621D01*
X370150Y1664610D01*
X370128Y1664587D01*
X370072Y1664542D01*
X346115Y1640585D01*
X327117Y1640585D01*
X327027Y1640571D01*
X326936Y1640563D01*
X326907Y1640551D01*
X326875Y1640546D01*
X326794Y1640503D01*
X326710Y1640467D01*
X326678Y1640441D01*
X326657Y1640430D01*
X326635Y1640407D01*
X326579Y1640362D01*
X319470Y1633253D01*
X319417Y1633179D01*
X319357Y1633110D01*
X319345Y1633079D01*
X319326Y1633053D01*
X319299Y1632966D01*
X319265Y1632881D01*
X319261Y1632840D01*
X319254Y1632818D01*
X319255Y1632786D01*
X319247Y1632715D01*
X319247Y1576134D01*
X281529Y1538416D01*
X281476Y1538342D01*
X281416Y1538273D01*
X281406Y1538248D01*
X279118Y1535960D01*
X279085Y1535946D01*
X279053Y1535920D01*
X279032Y1535909D01*
X279010Y1535886D01*
X278954Y1535841D01*
X223948Y1480835D01*
X223895Y1480761D01*
X223835Y1480692D01*
X223823Y1480661D01*
X223804Y1480635D01*
X223777Y1480548D01*
X223743Y1480463D01*
X223739Y1480422D01*
X223732Y1480400D01*
X223733Y1480368D01*
X223725Y1480297D01*
X223725Y1450355D01*
X223739Y1450265D01*
X223747Y1450174D01*
X223759Y1450145D01*
X223764Y1450113D01*
X223807Y1450032D01*
X223843Y1449948D01*
X223869Y1449916D01*
X223880Y1449895D01*
X223903Y1449873D01*
X223948Y1449817D01*
X241777Y1431988D01*
X241777Y1304100D01*
X239489Y1301812D01*
X223948Y1286271D01*
X223895Y1286197D01*
X223835Y1286128D01*
X223823Y1286097D01*
X223804Y1286071D01*
X223777Y1285984D01*
X223743Y1285899D01*
X223739Y1285858D01*
X223732Y1285836D01*
X223733Y1285804D01*
X223725Y1285733D01*
X223725Y1249968D01*
X222832Y1249075D01*
X208502Y1249075D01*
X208482Y1249072D01*
X208463Y1249074D01*
X208361Y1249052D01*
X208259Y1249036D01*
X208242Y1249026D01*
X208222Y1249022D01*
X208133Y1248969D01*
X208042Y1248920D01*
X208028Y1248906D01*
X208011Y1248896D01*
X207944Y1248817D01*
X207872Y1248742D01*
X207864Y1248724D01*
X207851Y1248709D01*
X207812Y1248613D01*
X207769Y1248519D01*
X207767Y1248499D01*
X207759Y1248481D01*
X207741Y1248314D01*
X207741Y1151986D01*
X207744Y1151966D01*
X207742Y1151947D01*
X207764Y1151845D01*
X207780Y1151743D01*
X207790Y1151726D01*
X207794Y1151706D01*
X207847Y1151617D01*
X207896Y1151526D01*
X207910Y1151512D01*
X207920Y1151495D01*
X207999Y1151428D01*
X208074Y1151356D01*
X208092Y1151348D01*
X208107Y1151335D01*
X208203Y1151296D01*
X208297Y1151253D01*
X208317Y1151251D01*
X208335Y1151243D01*
X208502Y1151225D01*
X235532Y1151225D01*
X236425Y1150332D01*
X236425Y1109995D01*
X236439Y1109905D01*
X236447Y1109814D01*
X236459Y1109785D01*
X236464Y1109753D01*
X236507Y1109672D01*
X236543Y1109588D01*
X236569Y1109556D01*
X236580Y1109535D01*
X236603Y1109513D01*
X236648Y1109457D01*
X248889Y1097216D01*
X248889Y1060447D01*
X248903Y1060357D01*
X248911Y1060266D01*
X248923Y1060237D01*
X248928Y1060205D01*
X248971Y1060124D01*
X249007Y1060040D01*
X249033Y1060008D01*
X249044Y1059987D01*
X249067Y1059965D01*
X249112Y1059909D01*
X332707Y976314D01*
X332781Y976261D01*
X332850Y976201D01*
X332881Y976189D01*
X332907Y976170D01*
X332994Y976143D01*
X333079Y976109D01*
X333120Y976105D01*
X333142Y976098D01*
X333174Y976099D01*
X333245Y976091D01*
X771194Y976091D01*
X771214Y976094D01*
X771233Y976092D01*
X771335Y976114D01*
X771437Y976130D01*
X771454Y976140D01*
X771474Y976144D01*
X771563Y976197D01*
X771654Y976246D01*
X771668Y976260D01*
X771685Y976270D01*
X771752Y976349D01*
X771824Y976424D01*
X771832Y976442D01*
X771845Y976457D01*
X771884Y976553D01*
X771927Y976647D01*
X771929Y976667D01*
X771937Y976685D01*
X771955Y976852D01*
X771955Y999202D01*
X772848Y1000095D01*
X812112Y1000095D01*
X813005Y999202D01*
X813005Y983465D01*
X813008Y983445D01*
X813006Y983426D01*
X813028Y983324D01*
X813044Y983222D01*
X813054Y983205D01*
X813058Y983185D01*
X813111Y983096D01*
X813160Y983005D01*
X813174Y982991D01*
X813184Y982974D01*
X813263Y982907D01*
X813338Y982835D01*
X813356Y982827D01*
X813371Y982814D01*
X813467Y982775D01*
X813561Y982732D01*
X813581Y982730D01*
X813599Y982722D01*
X813766Y982704D01*
X877874Y982704D01*
X877894Y982707D01*
X877913Y982705D01*
X878015Y982727D01*
X878117Y982743D01*
X878134Y982753D01*
X878154Y982757D01*
X878243Y982810D01*
X878334Y982859D01*
X878348Y982873D01*
X878365Y982883D01*
X878432Y982962D01*
X878504Y983037D01*
X878512Y983055D01*
X878525Y983070D01*
X878564Y983166D01*
X878607Y983260D01*
X878609Y983280D01*
X878617Y983298D01*
X878635Y983465D01*
X878635Y996662D01*
X879528Y997555D01*
X918792Y997555D01*
X919685Y996662D01*
X919685Y972581D01*
X919699Y972491D01*
X919707Y972400D01*
X919719Y972371D01*
X919724Y972339D01*
X919767Y972258D01*
X919803Y972174D01*
X919829Y972142D01*
X919840Y972121D01*
X919863Y972099D01*
X919908Y972043D01*
X920338Y971613D01*
X920338Y968693D01*
X919908Y968263D01*
X919855Y968189D01*
X919795Y968120D01*
X919783Y968089D01*
X919764Y968063D01*
X919737Y967976D01*
X919703Y967891D01*
X919699Y967850D01*
X919692Y967828D01*
X919693Y967796D01*
X919685Y967725D01*
X919685Y948398D01*
X918792Y947505D01*
X879528Y947505D01*
X878635Y948398D01*
X878635Y974893D01*
X878632Y974913D01*
X878634Y974932D01*
X878612Y975034D01*
X878596Y975136D01*
X878586Y975153D01*
X878582Y975173D01*
X878529Y975262D01*
X878480Y975353D01*
X878466Y975367D01*
X878456Y975384D01*
X878377Y975451D01*
X878302Y975523D01*
X878284Y975531D01*
X878269Y975544D01*
X878173Y975583D01*
X878079Y975626D01*
X878059Y975628D01*
X878041Y975636D01*
X877874Y975654D01*
X813766Y975654D01*
X813746Y975651D01*
X813727Y975653D01*
X813625Y975631D01*
X813523Y975615D01*
X813506Y975605D01*
X813486Y975601D01*
X813397Y975548D01*
X813306Y975499D01*
X813292Y975485D01*
X813275Y975475D01*
X813208Y975396D01*
X813136Y975321D01*
X813128Y975303D01*
X813115Y975288D01*
X813076Y975192D01*
X813033Y975098D01*
X813031Y975078D01*
X813023Y975060D01*
X813005Y974893D01*
X813005Y950938D01*
X812112Y950045D01*
X772848Y950045D01*
X771955Y950938D01*
X771955Y968280D01*
X771952Y968300D01*
X771954Y968319D01*
X771932Y968421D01*
X771916Y968523D01*
X771906Y968540D01*
X771902Y968560D01*
X771849Y968649D01*
X771800Y968740D01*
X771786Y968754D01*
X771776Y968771D01*
X771697Y968838D01*
X771622Y968910D01*
X771604Y968918D01*
X771589Y968931D01*
X771493Y968970D01*
X771399Y969013D01*
X771379Y969015D01*
X771361Y969023D01*
X771194Y969041D01*
X330010Y969041D01*
X243248Y1055803D01*
X243190Y1055845D01*
X243138Y1055894D01*
X243091Y1055916D01*
X243049Y1055947D01*
X242980Y1055968D01*
X242915Y1055998D01*
X242863Y1056004D01*
X242813Y1056019D01*
X242742Y1056017D01*
X242671Y1056025D01*
X242620Y1056014D01*
X242568Y1056013D01*
X242500Y1055988D01*
X242430Y1055973D01*
X242386Y1055946D01*
X242337Y1055928D01*
X242281Y1055883D01*
X242219Y1055847D01*
X242185Y1055807D01*
X242145Y1055774D01*
X242106Y1055714D01*
X242059Y1055660D01*
X242040Y1055611D01*
X242012Y1055567D01*
X241994Y1055498D01*
X241967Y1055431D01*
X241959Y1055360D01*
X241951Y1055329D01*
X241953Y1055306D01*
X241949Y1055265D01*
X241949Y956764D01*
X198548Y913363D01*
X198495Y913289D01*
X198435Y913220D01*
X198423Y913189D01*
X198404Y913163D01*
X198377Y913076D01*
X198343Y912991D01*
X198339Y912950D01*
X198332Y912928D01*
X198333Y912896D01*
X198325Y912825D01*
X198325Y873468D01*
X197432Y872575D01*
X158168Y872575D01*
G37*
%LPD*%
%LPC*%
G36*
X1240600Y928401D02*
X1240600Y928401D01*
X1152431Y1016570D01*
X1152357Y1016623D01*
X1152288Y1016683D01*
X1152257Y1016695D01*
X1152231Y1016714D01*
X1152144Y1016741D01*
X1152059Y1016775D01*
X1152018Y1016779D01*
X1151996Y1016786D01*
X1151964Y1016785D01*
X1151893Y1016793D01*
X521526Y1016793D01*
X463075Y1075244D01*
X463001Y1075297D01*
X462932Y1075357D01*
X462901Y1075369D01*
X462875Y1075388D01*
X462788Y1075415D01*
X462703Y1075449D01*
X462662Y1075453D01*
X462640Y1075460D01*
X462608Y1075459D01*
X462537Y1075467D01*
X430954Y1075467D01*
X430839Y1075448D01*
X430723Y1075431D01*
X430717Y1075429D01*
X430711Y1075428D01*
X430608Y1075373D01*
X430504Y1075320D01*
X430499Y1075315D01*
X430494Y1075312D01*
X430414Y1075228D01*
X430331Y1075144D01*
X430328Y1075138D01*
X430324Y1075134D01*
X430316Y1075117D01*
X430250Y1074997D01*
X429294Y1072689D01*
X425911Y1069306D01*
X421492Y1067475D01*
X416708Y1067475D01*
X412289Y1069306D01*
X408906Y1072689D01*
X407075Y1077108D01*
X407075Y1081892D01*
X408906Y1086311D01*
X412289Y1089694D01*
X416708Y1091525D01*
X421492Y1091525D01*
X425911Y1089694D01*
X429294Y1086311D01*
X430671Y1082987D01*
X430733Y1082887D01*
X430793Y1082787D01*
X430798Y1082783D01*
X430801Y1082778D01*
X430890Y1082703D01*
X430980Y1082627D01*
X430986Y1082625D01*
X430990Y1082621D01*
X431098Y1082579D01*
X431208Y1082535D01*
X431215Y1082534D01*
X431220Y1082533D01*
X431238Y1082532D01*
X431375Y1082517D01*
X465772Y1082517D01*
X524223Y1024066D01*
X524297Y1024013D01*
X524366Y1023953D01*
X524397Y1023941D01*
X524423Y1023922D01*
X524510Y1023895D01*
X524595Y1023861D01*
X524636Y1023857D01*
X524658Y1023850D01*
X524690Y1023851D01*
X524761Y1023843D01*
X1155128Y1023843D01*
X1243297Y935674D01*
X1243371Y935621D01*
X1243440Y935561D01*
X1243471Y935549D01*
X1243497Y935530D01*
X1243584Y935503D01*
X1243669Y935469D01*
X1243710Y935465D01*
X1243732Y935458D01*
X1243764Y935459D01*
X1243835Y935451D01*
X1311913Y935451D01*
X1312003Y935465D01*
X1312094Y935473D01*
X1312123Y935485D01*
X1312155Y935490D01*
X1312236Y935533D01*
X1312320Y935569D01*
X1312352Y935595D01*
X1312373Y935606D01*
X1312395Y935629D01*
X1312451Y935674D01*
X1363280Y986503D01*
X1363333Y986577D01*
X1363393Y986646D01*
X1363405Y986677D01*
X1363424Y986703D01*
X1363451Y986790D01*
X1363485Y986875D01*
X1363489Y986916D01*
X1363496Y986938D01*
X1363495Y986970D01*
X1363503Y987041D01*
X1363503Y1290256D01*
X1365791Y1292544D01*
X1385322Y1312075D01*
X1385375Y1312149D01*
X1385435Y1312218D01*
X1385447Y1312249D01*
X1385466Y1312275D01*
X1385493Y1312362D01*
X1385527Y1312447D01*
X1385531Y1312488D01*
X1385538Y1312510D01*
X1385537Y1312542D01*
X1385545Y1312613D01*
X1385545Y1386720D01*
X1406788Y1407963D01*
X1406856Y1408058D01*
X1406926Y1408151D01*
X1406928Y1408157D01*
X1406931Y1408162D01*
X1406966Y1408274D01*
X1407002Y1408385D01*
X1407002Y1408391D01*
X1407004Y1408397D01*
X1407001Y1408514D01*
X1407000Y1408631D01*
X1406998Y1408638D01*
X1406997Y1408643D01*
X1406991Y1408661D01*
X1406953Y1408792D01*
X1406715Y1409366D01*
X1406715Y1412574D01*
X1407943Y1415538D01*
X1410212Y1417807D01*
X1413176Y1419035D01*
X1416384Y1419035D01*
X1419348Y1417807D01*
X1421617Y1415538D01*
X1422845Y1412574D01*
X1422845Y1409366D01*
X1421617Y1406402D01*
X1419348Y1404133D01*
X1418775Y1403895D01*
X1418675Y1403834D01*
X1418575Y1403774D01*
X1418571Y1403769D01*
X1418566Y1403766D01*
X1418491Y1403676D01*
X1418415Y1403587D01*
X1418413Y1403581D01*
X1418409Y1403576D01*
X1418367Y1403468D01*
X1418323Y1403359D01*
X1418322Y1403351D01*
X1418321Y1403347D01*
X1418320Y1403328D01*
X1418305Y1403192D01*
X1418305Y1335088D01*
X1392818Y1309601D01*
X1392765Y1309527D01*
X1392705Y1309458D01*
X1392693Y1309427D01*
X1392674Y1309401D01*
X1392647Y1309314D01*
X1392613Y1309229D01*
X1392609Y1309188D01*
X1392602Y1309166D01*
X1392603Y1309134D01*
X1392595Y1309063D01*
X1392595Y1267762D01*
X1392602Y1267715D01*
X1392601Y1267667D01*
X1392622Y1267594D01*
X1392634Y1267519D01*
X1392657Y1267477D01*
X1392671Y1267431D01*
X1392714Y1267369D01*
X1392750Y1267302D01*
X1392784Y1267269D01*
X1392812Y1267230D01*
X1392873Y1267185D01*
X1392928Y1267132D01*
X1392971Y1267112D01*
X1393010Y1267084D01*
X1393082Y1267061D01*
X1393151Y1267029D01*
X1393199Y1267024D01*
X1393244Y1267009D01*
X1393320Y1267010D01*
X1393395Y1267002D01*
X1393442Y1267012D01*
X1393490Y1267013D01*
X1393562Y1267038D01*
X1393636Y1267054D01*
X1393677Y1267079D01*
X1393722Y1267095D01*
X1393782Y1267141D01*
X1393847Y1267180D01*
X1393878Y1267217D01*
X1393916Y1267246D01*
X1393992Y1267350D01*
X1394007Y1267367D01*
X1394009Y1267373D01*
X1394015Y1267381D01*
X1396146Y1271073D01*
X1400877Y1275804D01*
X1406672Y1279149D01*
X1413135Y1280881D01*
X1419825Y1280881D01*
X1426288Y1279149D01*
X1432083Y1275804D01*
X1436814Y1271073D01*
X1440159Y1265278D01*
X1441891Y1258815D01*
X1441891Y1252125D01*
X1440788Y1248008D01*
X1440783Y1247960D01*
X1440769Y1247914D01*
X1440771Y1247838D01*
X1440763Y1247763D01*
X1440774Y1247716D01*
X1440775Y1247668D01*
X1440801Y1247597D01*
X1440818Y1247523D01*
X1440843Y1247482D01*
X1440860Y1247437D01*
X1440907Y1247378D01*
X1440946Y1247313D01*
X1440983Y1247283D01*
X1441013Y1247245D01*
X1441077Y1247204D01*
X1441135Y1247155D01*
X1441180Y1247138D01*
X1441220Y1247112D01*
X1441294Y1247094D01*
X1441364Y1247066D01*
X1441412Y1247064D01*
X1441459Y1247052D01*
X1441534Y1247058D01*
X1441610Y1247054D01*
X1441656Y1247067D01*
X1441704Y1247071D01*
X1441773Y1247101D01*
X1441847Y1247122D01*
X1441886Y1247149D01*
X1441930Y1247167D01*
X1442031Y1247248D01*
X1442049Y1247261D01*
X1442053Y1247266D01*
X1442061Y1247272D01*
X1466848Y1272059D01*
X1466901Y1272133D01*
X1466961Y1272203D01*
X1466973Y1272233D01*
X1466992Y1272259D01*
X1467019Y1272346D01*
X1467053Y1272431D01*
X1467057Y1272472D01*
X1467064Y1272494D01*
X1467063Y1272526D01*
X1467071Y1272598D01*
X1467071Y1651126D01*
X1469359Y1653414D01*
X1474332Y1658387D01*
X1474385Y1658461D01*
X1474445Y1658530D01*
X1474457Y1658561D01*
X1474476Y1658587D01*
X1474503Y1658674D01*
X1474537Y1658759D01*
X1474541Y1658800D01*
X1474548Y1658822D01*
X1474547Y1658854D01*
X1474555Y1658925D01*
X1474555Y1697302D01*
X1475448Y1698195D01*
X1523712Y1698195D01*
X1524605Y1697302D01*
X1524605Y1658038D01*
X1523712Y1657145D01*
X1483375Y1657145D01*
X1483285Y1657131D01*
X1483194Y1657123D01*
X1483165Y1657111D01*
X1483133Y1657106D01*
X1483052Y1657063D01*
X1482968Y1657027D01*
X1482936Y1657001D01*
X1482915Y1656990D01*
X1482893Y1656967D01*
X1482837Y1656922D01*
X1474344Y1648429D01*
X1474291Y1648355D01*
X1474231Y1648286D01*
X1474219Y1648255D01*
X1474200Y1648229D01*
X1474173Y1648142D01*
X1474139Y1648057D01*
X1474135Y1648016D01*
X1474128Y1647994D01*
X1474129Y1647962D01*
X1474121Y1647891D01*
X1474121Y1269362D01*
X1431228Y1226469D01*
X1431175Y1226395D01*
X1431115Y1226326D01*
X1431103Y1226296D01*
X1431084Y1226270D01*
X1431057Y1226183D01*
X1431023Y1226098D01*
X1431019Y1226057D01*
X1431012Y1226035D01*
X1431013Y1226002D01*
X1431005Y1225931D01*
X1431005Y1220434D01*
X1431024Y1220320D01*
X1431041Y1220203D01*
X1431043Y1220198D01*
X1431044Y1220192D01*
X1431099Y1220089D01*
X1431152Y1219984D01*
X1431157Y1219980D01*
X1431160Y1219974D01*
X1431244Y1219894D01*
X1431328Y1219812D01*
X1431334Y1219808D01*
X1431338Y1219805D01*
X1431355Y1219797D01*
X1431475Y1219731D01*
X1437903Y1217069D01*
X1443079Y1211893D01*
X1445880Y1205130D01*
X1445880Y1197810D01*
X1443079Y1191047D01*
X1437903Y1185871D01*
X1431475Y1183209D01*
X1431375Y1183147D01*
X1431275Y1183087D01*
X1431271Y1183083D01*
X1431266Y1183079D01*
X1431191Y1182990D01*
X1431115Y1182900D01*
X1431113Y1182895D01*
X1431109Y1182890D01*
X1431067Y1182782D01*
X1431023Y1182672D01*
X1431022Y1182665D01*
X1431021Y1182660D01*
X1431020Y1182642D01*
X1431005Y1182506D01*
X1431005Y1161859D01*
X1428717Y1159571D01*
X1423315Y1154169D01*
X1423274Y1154111D01*
X1423224Y1154059D01*
X1423202Y1154012D01*
X1423172Y1153970D01*
X1423151Y1153901D01*
X1423121Y1153836D01*
X1423115Y1153784D01*
X1423100Y1153734D01*
X1423101Y1153663D01*
X1423093Y1153592D01*
X1423105Y1153541D01*
X1423106Y1153489D01*
X1423131Y1153421D01*
X1423146Y1153351D01*
X1423172Y1153307D01*
X1423190Y1153258D01*
X1423235Y1153202D01*
X1423272Y1153140D01*
X1423311Y1153106D01*
X1423344Y1153066D01*
X1423404Y1153027D01*
X1423459Y1152980D01*
X1423507Y1152961D01*
X1423551Y1152933D01*
X1423620Y1152915D01*
X1423687Y1152888D01*
X1423758Y1152880D01*
X1423789Y1152872D01*
X1423813Y1152874D01*
X1423854Y1152870D01*
X1431140Y1152870D01*
X1437903Y1150069D01*
X1443079Y1144893D01*
X1445880Y1138130D01*
X1445880Y1130810D01*
X1443079Y1124047D01*
X1437903Y1118871D01*
X1431140Y1116070D01*
X1423820Y1116070D01*
X1417057Y1118871D01*
X1411905Y1124024D01*
X1411847Y1124065D01*
X1411795Y1124115D01*
X1411748Y1124137D01*
X1411706Y1124167D01*
X1411637Y1124188D01*
X1411572Y1124218D01*
X1411520Y1124224D01*
X1411470Y1124240D01*
X1411399Y1124238D01*
X1411328Y1124246D01*
X1411277Y1124234D01*
X1411225Y1124233D01*
X1411157Y1124209D01*
X1411087Y1124193D01*
X1411042Y1124167D01*
X1410994Y1124149D01*
X1410938Y1124104D01*
X1410876Y1124067D01*
X1410842Y1124028D01*
X1410802Y1123995D01*
X1410763Y1123935D01*
X1410716Y1123880D01*
X1410697Y1123832D01*
X1410669Y1123788D01*
X1410651Y1123719D01*
X1410624Y1123652D01*
X1410616Y1123581D01*
X1410608Y1123550D01*
X1410610Y1123526D01*
X1410606Y1123485D01*
X1410606Y1114084D01*
X1410620Y1113994D01*
X1410628Y1113903D01*
X1410640Y1113874D01*
X1410645Y1113842D01*
X1410669Y1113796D01*
X1410670Y1113793D01*
X1410678Y1113781D01*
X1410688Y1113761D01*
X1410724Y1113677D01*
X1410750Y1113645D01*
X1410761Y1113624D01*
X1410784Y1113602D01*
X1410786Y1113599D01*
X1410796Y1113582D01*
X1410807Y1113573D01*
X1410829Y1113546D01*
X1454607Y1069768D01*
X1454681Y1069715D01*
X1454750Y1069655D01*
X1454781Y1069643D01*
X1454807Y1069624D01*
X1454894Y1069597D01*
X1454979Y1069563D01*
X1455020Y1069559D01*
X1455042Y1069552D01*
X1455074Y1069553D01*
X1455145Y1069545D01*
X1494502Y1069545D01*
X1495395Y1068652D01*
X1495395Y1029388D01*
X1494502Y1028495D01*
X1446238Y1028495D01*
X1445345Y1029388D01*
X1445345Y1068745D01*
X1445331Y1068835D01*
X1445323Y1068926D01*
X1445311Y1068955D01*
X1445306Y1068987D01*
X1445263Y1069068D01*
X1445227Y1069152D01*
X1445201Y1069184D01*
X1445190Y1069205D01*
X1445167Y1069227D01*
X1445122Y1069283D01*
X1407194Y1107211D01*
X1407136Y1107253D01*
X1407084Y1107302D01*
X1407037Y1107324D01*
X1406995Y1107355D01*
X1406926Y1107376D01*
X1406861Y1107406D01*
X1406809Y1107412D01*
X1406759Y1107427D01*
X1406688Y1107425D01*
X1406617Y1107433D01*
X1406566Y1107422D01*
X1406514Y1107421D01*
X1406446Y1107396D01*
X1406376Y1107381D01*
X1406332Y1107354D01*
X1406283Y1107336D01*
X1406227Y1107291D01*
X1406165Y1107255D01*
X1406131Y1107215D01*
X1406091Y1107182D01*
X1406052Y1107122D01*
X1406005Y1107068D01*
X1405986Y1107019D01*
X1405958Y1106975D01*
X1405940Y1106906D01*
X1405913Y1106839D01*
X1405905Y1106768D01*
X1405897Y1106737D01*
X1405899Y1106714D01*
X1405895Y1106673D01*
X1405895Y1070306D01*
X1405898Y1070286D01*
X1405896Y1070267D01*
X1405918Y1070165D01*
X1405934Y1070063D01*
X1405944Y1070046D01*
X1405948Y1070026D01*
X1406001Y1069937D01*
X1406050Y1069846D01*
X1406064Y1069832D01*
X1406074Y1069815D01*
X1406153Y1069748D01*
X1406228Y1069676D01*
X1406246Y1069668D01*
X1406261Y1069655D01*
X1406357Y1069616D01*
X1406451Y1069573D01*
X1406471Y1069571D01*
X1406489Y1069563D01*
X1406656Y1069545D01*
X1426502Y1069545D01*
X1427395Y1068652D01*
X1427395Y1029388D01*
X1426502Y1028495D01*
X1378238Y1028495D01*
X1377345Y1029388D01*
X1377345Y1068652D01*
X1378238Y1069545D01*
X1398084Y1069545D01*
X1398104Y1069548D01*
X1398123Y1069546D01*
X1398225Y1069568D01*
X1398327Y1069584D01*
X1398344Y1069594D01*
X1398364Y1069598D01*
X1398453Y1069651D01*
X1398544Y1069700D01*
X1398558Y1069714D01*
X1398575Y1069724D01*
X1398642Y1069803D01*
X1398714Y1069878D01*
X1398722Y1069896D01*
X1398735Y1069911D01*
X1398774Y1070007D01*
X1398817Y1070101D01*
X1398819Y1070121D01*
X1398827Y1070139D01*
X1398845Y1070306D01*
X1398845Y1107433D01*
X1398831Y1107523D01*
X1398823Y1107614D01*
X1398811Y1107643D01*
X1398806Y1107675D01*
X1398763Y1107756D01*
X1398727Y1107840D01*
X1398701Y1107872D01*
X1398690Y1107893D01*
X1398667Y1107915D01*
X1398622Y1107971D01*
X1385545Y1121048D01*
X1385545Y1300491D01*
X1385534Y1300561D01*
X1385532Y1300633D01*
X1385514Y1300682D01*
X1385506Y1300733D01*
X1385472Y1300797D01*
X1385447Y1300864D01*
X1385415Y1300905D01*
X1385390Y1300951D01*
X1385338Y1301000D01*
X1385294Y1301056D01*
X1385250Y1301084D01*
X1385212Y1301120D01*
X1385147Y1301150D01*
X1385087Y1301189D01*
X1385036Y1301202D01*
X1384989Y1301224D01*
X1384918Y1301232D01*
X1384848Y1301249D01*
X1384796Y1301245D01*
X1384745Y1301251D01*
X1384674Y1301236D01*
X1384603Y1301230D01*
X1384555Y1301210D01*
X1384504Y1301199D01*
X1384443Y1301162D01*
X1384377Y1301134D01*
X1384321Y1301089D01*
X1384293Y1301073D01*
X1384278Y1301055D01*
X1384246Y1301029D01*
X1370776Y1287559D01*
X1370723Y1287485D01*
X1370663Y1287416D01*
X1370651Y1287385D01*
X1370632Y1287359D01*
X1370605Y1287272D01*
X1370571Y1287187D01*
X1370567Y1287146D01*
X1370560Y1287124D01*
X1370561Y1287092D01*
X1370553Y1287021D01*
X1370553Y983806D01*
X1315148Y928401D01*
X1240600Y928401D01*
G37*
%LPD*%
%LPC*%
G36*
X176358Y766945D02*
X176358Y766945D01*
X175465Y767838D01*
X175465Y784102D01*
X176358Y784995D01*
X190622Y784995D01*
X191515Y784102D01*
X191515Y780256D01*
X191518Y780236D01*
X191516Y780217D01*
X191538Y780115D01*
X191554Y780013D01*
X191564Y779996D01*
X191568Y779976D01*
X191621Y779887D01*
X191670Y779796D01*
X191684Y779782D01*
X191694Y779765D01*
X191773Y779698D01*
X191848Y779626D01*
X191866Y779618D01*
X191881Y779605D01*
X191977Y779566D01*
X192071Y779523D01*
X192091Y779521D01*
X192109Y779513D01*
X192276Y779495D01*
X215395Y779495D01*
X215485Y779509D01*
X215576Y779517D01*
X215605Y779529D01*
X215637Y779534D01*
X215718Y779577D01*
X215802Y779613D01*
X215834Y779639D01*
X215855Y779650D01*
X215877Y779673D01*
X215933Y779718D01*
X313975Y877760D01*
X314043Y877854D01*
X314113Y877948D01*
X314115Y877955D01*
X314119Y877960D01*
X314153Y878070D01*
X314189Y878182D01*
X314189Y878189D01*
X314191Y878195D01*
X314188Y878311D01*
X314187Y878428D01*
X314185Y878435D01*
X314185Y878441D01*
X314178Y878458D01*
X314140Y878589D01*
X313325Y880557D01*
X313325Y884743D01*
X314928Y888612D01*
X317888Y891572D01*
X321757Y893175D01*
X325943Y893175D01*
X327118Y892688D01*
X327232Y892662D01*
X327345Y892633D01*
X327351Y892633D01*
X327358Y892632D01*
X327474Y892643D01*
X327590Y892652D01*
X327596Y892655D01*
X327602Y892655D01*
X327710Y892703D01*
X327817Y892748D01*
X327823Y892753D01*
X327827Y892755D01*
X327841Y892768D01*
X327948Y892853D01*
X333825Y898731D01*
X336791Y898731D01*
X336796Y898729D01*
X336822Y898710D01*
X336909Y898683D01*
X336994Y898649D01*
X337035Y898645D01*
X337057Y898638D01*
X337089Y898639D01*
X337160Y898631D01*
X341147Y898631D01*
X341218Y898642D01*
X341290Y898644D01*
X341339Y898662D01*
X341390Y898670D01*
X341453Y898704D01*
X341521Y898729D01*
X341561Y898761D01*
X341607Y898786D01*
X341657Y898838D01*
X341713Y898882D01*
X341741Y898926D01*
X341777Y898964D01*
X341807Y899029D01*
X341846Y899089D01*
X341858Y899140D01*
X341880Y899187D01*
X341888Y899258D01*
X341906Y899328D01*
X341902Y899380D01*
X341907Y899431D01*
X341892Y899502D01*
X341887Y899573D01*
X341866Y899621D01*
X341855Y899672D01*
X341818Y899733D01*
X341790Y899799D01*
X341746Y899855D01*
X341729Y899883D01*
X341722Y899889D01*
X341720Y899892D01*
X341708Y899902D01*
X341686Y899930D01*
X339928Y901688D01*
X338325Y905557D01*
X338325Y909743D01*
X339928Y913612D01*
X342888Y916572D01*
X346757Y918175D01*
X350943Y918175D01*
X354812Y916572D01*
X357772Y913612D01*
X359375Y909743D01*
X359375Y908126D01*
X359378Y908106D01*
X359376Y908087D01*
X359398Y907985D01*
X359414Y907883D01*
X359424Y907866D01*
X359428Y907846D01*
X359481Y907757D01*
X359530Y907666D01*
X359544Y907652D01*
X359554Y907635D01*
X359633Y907568D01*
X359708Y907496D01*
X359726Y907488D01*
X359741Y907475D01*
X359837Y907436D01*
X359931Y907393D01*
X359951Y907391D01*
X359969Y907383D01*
X360136Y907365D01*
X587329Y907365D01*
X587444Y907384D01*
X587560Y907401D01*
X587566Y907403D01*
X587572Y907404D01*
X587675Y907459D01*
X587780Y907512D01*
X587784Y907517D01*
X587790Y907520D01*
X587869Y907604D01*
X587952Y907688D01*
X587956Y907694D01*
X587959Y907698D01*
X587967Y907715D01*
X588033Y907835D01*
X588848Y909802D01*
X591808Y912762D01*
X595677Y914365D01*
X599863Y914365D01*
X603732Y912762D01*
X606692Y909802D01*
X607507Y907835D01*
X607569Y907735D01*
X607629Y907635D01*
X607634Y907631D01*
X607637Y907626D01*
X607727Y907551D01*
X607816Y907475D01*
X607822Y907473D01*
X607826Y907469D01*
X607935Y907427D01*
X608044Y907383D01*
X608051Y907382D01*
X608056Y907381D01*
X608074Y907380D01*
X608211Y907365D01*
X614235Y907365D01*
X614254Y907368D01*
X614274Y907366D01*
X614375Y907388D01*
X614477Y907404D01*
X614495Y907414D01*
X614514Y907418D01*
X614603Y907471D01*
X614695Y907520D01*
X614708Y907534D01*
X614725Y907544D01*
X614793Y907623D01*
X614864Y907698D01*
X614872Y907716D01*
X614885Y907731D01*
X614924Y907827D01*
X614968Y907921D01*
X614970Y907941D01*
X614977Y907959D01*
X614996Y908126D01*
X614996Y908530D01*
X615119Y908653D01*
X615128Y908665D01*
X615139Y908674D01*
X615199Y908765D01*
X615263Y908853D01*
X615267Y908867D01*
X615275Y908879D01*
X615327Y909039D01*
X615362Y909210D01*
X616217Y909773D01*
X616232Y909787D01*
X616336Y909870D01*
X617061Y910595D01*
X617235Y910595D01*
X617249Y910597D01*
X617264Y910595D01*
X617371Y910617D01*
X617478Y910634D01*
X617491Y910641D01*
X617505Y910644D01*
X617654Y910720D01*
X617800Y910816D01*
X618803Y910610D01*
X618823Y910609D01*
X618956Y910595D01*
X771194Y910595D01*
X771214Y910598D01*
X771233Y910596D01*
X771335Y910618D01*
X771437Y910634D01*
X771454Y910644D01*
X771474Y910648D01*
X771563Y910701D01*
X771654Y910750D01*
X771668Y910764D01*
X771685Y910774D01*
X771752Y910853D01*
X771824Y910928D01*
X771832Y910946D01*
X771845Y910961D01*
X771884Y911057D01*
X771927Y911151D01*
X771929Y911171D01*
X771937Y911189D01*
X771955Y911356D01*
X771955Y931202D01*
X772848Y932095D01*
X812112Y932095D01*
X813005Y931202D01*
X813005Y882938D01*
X812112Y882045D01*
X772848Y882045D01*
X771955Y882938D01*
X771955Y902784D01*
X771952Y902804D01*
X771954Y902823D01*
X771932Y902925D01*
X771916Y903027D01*
X771906Y903044D01*
X771902Y903064D01*
X771849Y903153D01*
X771800Y903244D01*
X771786Y903258D01*
X771776Y903275D01*
X771697Y903342D01*
X771622Y903414D01*
X771604Y903422D01*
X771589Y903435D01*
X771493Y903474D01*
X771399Y903517D01*
X771379Y903519D01*
X771361Y903527D01*
X771194Y903545D01*
X621852Y903545D01*
X621838Y903543D01*
X621824Y903545D01*
X621717Y903523D01*
X621610Y903506D01*
X621597Y903499D01*
X621583Y903496D01*
X621433Y903420D01*
X620397Y902737D01*
X620364Y902706D01*
X620325Y902683D01*
X620274Y902623D01*
X620216Y902570D01*
X620195Y902530D01*
X620165Y902496D01*
X620161Y902487D01*
X617990Y900315D01*
X608211Y900315D01*
X608096Y900296D01*
X607980Y900279D01*
X607974Y900277D01*
X607968Y900276D01*
X607865Y900221D01*
X607760Y900168D01*
X607756Y900163D01*
X607750Y900160D01*
X607671Y900076D01*
X607588Y899992D01*
X607584Y899986D01*
X607581Y899982D01*
X607573Y899965D01*
X607507Y899845D01*
X606692Y897878D01*
X603732Y894918D01*
X599863Y893315D01*
X595677Y893315D01*
X591808Y894918D01*
X588848Y897878D01*
X588033Y899845D01*
X587972Y899944D01*
X587911Y900045D01*
X587906Y900049D01*
X587903Y900054D01*
X587813Y900129D01*
X587724Y900205D01*
X587718Y900207D01*
X587714Y900211D01*
X587605Y900253D01*
X587496Y900297D01*
X587489Y900298D01*
X587484Y900299D01*
X587466Y900300D01*
X587329Y900315D01*
X356715Y900315D01*
X356625Y900301D01*
X356534Y900293D01*
X356504Y900281D01*
X356472Y900276D01*
X356392Y900233D01*
X356308Y900197D01*
X356275Y900171D01*
X356255Y900160D01*
X356233Y900137D01*
X356177Y900092D01*
X356015Y899930D01*
X355973Y899872D01*
X355923Y899820D01*
X355901Y899773D01*
X355871Y899731D01*
X355850Y899662D01*
X355820Y899597D01*
X355814Y899545D01*
X355799Y899496D01*
X355800Y899424D01*
X355793Y899353D01*
X355804Y899302D01*
X355805Y899250D01*
X355830Y899182D01*
X355845Y899112D01*
X355871Y899067D01*
X355889Y899019D01*
X355934Y898963D01*
X355971Y898901D01*
X356011Y898867D01*
X356043Y898827D01*
X356103Y898788D01*
X356158Y898741D01*
X356206Y898722D01*
X356250Y898694D01*
X356319Y898676D01*
X356386Y898649D01*
X356457Y898641D01*
X356488Y898633D01*
X356512Y898635D01*
X356553Y898631D01*
X554529Y898631D01*
X554619Y898645D01*
X554710Y898653D01*
X554739Y898665D01*
X554771Y898670D01*
X554852Y898713D01*
X554893Y898731D01*
X557864Y898731D01*
X567880Y888715D01*
X567974Y888647D01*
X568068Y888577D01*
X568075Y888575D01*
X568080Y888571D01*
X568190Y888537D01*
X568302Y888501D01*
X568309Y888501D01*
X568315Y888499D01*
X568431Y888502D01*
X568548Y888503D01*
X568555Y888505D01*
X568561Y888505D01*
X568578Y888512D01*
X568709Y888550D01*
X570677Y889365D01*
X574863Y889365D01*
X578732Y887762D01*
X581692Y884802D01*
X583295Y880933D01*
X583295Y876747D01*
X582328Y874413D01*
X582306Y874318D01*
X582277Y874225D01*
X582278Y874199D01*
X582272Y874174D01*
X582281Y874077D01*
X582284Y873980D01*
X582293Y873955D01*
X582295Y873929D01*
X582335Y873840D01*
X582368Y873749D01*
X582385Y873728D01*
X582395Y873704D01*
X582461Y873633D01*
X582522Y873557D01*
X582544Y873542D01*
X582562Y873523D01*
X582647Y873476D01*
X582729Y873424D01*
X582754Y873417D01*
X582777Y873405D01*
X582873Y873387D01*
X582967Y873363D01*
X582993Y873366D01*
X583019Y873361D01*
X583116Y873375D01*
X583213Y873383D01*
X583237Y873393D01*
X583263Y873397D01*
X583350Y873441D01*
X583439Y873479D01*
X583464Y873499D01*
X583482Y873508D01*
X583505Y873532D01*
X583570Y873584D01*
X587022Y877036D01*
X587075Y877110D01*
X587135Y877180D01*
X587147Y877210D01*
X587166Y877236D01*
X587193Y877323D01*
X587227Y877408D01*
X587231Y877449D01*
X587238Y877471D01*
X587237Y877503D01*
X587245Y877574D01*
X587245Y880933D01*
X588848Y884802D01*
X591808Y887762D01*
X595677Y889365D01*
X599863Y889365D01*
X603732Y887762D01*
X606692Y884802D01*
X608295Y880933D01*
X608295Y876747D01*
X606692Y872878D01*
X603732Y869918D01*
X599863Y868315D01*
X595677Y868315D01*
X591808Y869918D01*
X591379Y870347D01*
X591363Y870358D01*
X591350Y870374D01*
X591263Y870430D01*
X591179Y870490D01*
X591160Y870496D01*
X591143Y870507D01*
X591043Y870532D01*
X590944Y870563D01*
X590924Y870562D01*
X590905Y870567D01*
X590802Y870559D01*
X590698Y870556D01*
X590679Y870549D01*
X590660Y870548D01*
X590565Y870508D01*
X590467Y870472D01*
X590452Y870459D01*
X590433Y870452D01*
X590302Y870347D01*
X582463Y862507D01*
X582430Y862475D01*
X582388Y862416D01*
X582339Y862364D01*
X582317Y862317D01*
X582286Y862275D01*
X582265Y862206D01*
X582235Y862141D01*
X582229Y862089D01*
X582214Y862040D01*
X582216Y861968D01*
X582208Y861897D01*
X582219Y861846D01*
X582220Y861794D01*
X582245Y861726D01*
X582260Y861656D01*
X582287Y861612D01*
X582305Y861563D01*
X582350Y861507D01*
X582386Y861445D01*
X582426Y861411D01*
X582458Y861371D01*
X582519Y861332D01*
X582573Y861285D01*
X582622Y861266D01*
X582665Y861238D01*
X582735Y861220D01*
X582801Y861193D01*
X582872Y861185D01*
X582904Y861177D01*
X582927Y861179D01*
X582968Y861175D01*
X589905Y861175D01*
X589995Y861189D01*
X590086Y861197D01*
X590116Y861209D01*
X590148Y861214D01*
X590229Y861257D01*
X590312Y861293D01*
X590345Y861319D01*
X590365Y861330D01*
X590387Y861353D01*
X590443Y861398D01*
X591808Y862762D01*
X595677Y864365D01*
X599863Y864365D01*
X603732Y862762D01*
X606692Y859802D01*
X608295Y855933D01*
X608295Y851747D01*
X606692Y847878D01*
X603732Y844918D01*
X599863Y843315D01*
X595677Y843315D01*
X591808Y844918D01*
X588848Y847878D01*
X587245Y851747D01*
X587245Y853364D01*
X587242Y853384D01*
X587244Y853403D01*
X587222Y853505D01*
X587206Y853607D01*
X587196Y853624D01*
X587192Y853644D01*
X587139Y853733D01*
X587090Y853824D01*
X587076Y853838D01*
X587066Y853855D01*
X586987Y853922D01*
X586912Y853994D01*
X586894Y854002D01*
X586879Y854015D01*
X586783Y854054D01*
X586689Y854097D01*
X586669Y854099D01*
X586651Y854107D01*
X586484Y854125D01*
X359291Y854125D01*
X359176Y854106D01*
X359060Y854089D01*
X359054Y854087D01*
X359048Y854086D01*
X358945Y854031D01*
X358840Y853978D01*
X358836Y853973D01*
X358830Y853970D01*
X358751Y853886D01*
X358668Y853802D01*
X358664Y853796D01*
X358661Y853792D01*
X358653Y853775D01*
X358587Y853655D01*
X357772Y851688D01*
X354812Y848728D01*
X350943Y847125D01*
X346757Y847125D01*
X342888Y848728D01*
X339928Y851688D01*
X338325Y855557D01*
X338325Y859743D01*
X339928Y863612D01*
X342888Y866572D01*
X346757Y868175D01*
X350943Y868175D01*
X354812Y866572D01*
X357772Y863612D01*
X358587Y861645D01*
X358649Y861545D01*
X358709Y861445D01*
X358714Y861441D01*
X358717Y861436D01*
X358807Y861361D01*
X358896Y861285D01*
X358902Y861283D01*
X358906Y861279D01*
X359015Y861237D01*
X359124Y861193D01*
X359131Y861192D01*
X359136Y861191D01*
X359154Y861190D01*
X359291Y861175D01*
X363652Y861175D01*
X363723Y861186D01*
X363795Y861188D01*
X363843Y861206D01*
X363895Y861214D01*
X363958Y861248D01*
X364026Y861273D01*
X364066Y861305D01*
X364112Y861330D01*
X364161Y861382D01*
X364218Y861427D01*
X364246Y861470D01*
X364281Y861508D01*
X364312Y861573D01*
X364350Y861634D01*
X364363Y861684D01*
X364385Y861731D01*
X364393Y861802D01*
X364410Y861872D01*
X364406Y861924D01*
X364412Y861975D01*
X364397Y862046D01*
X364391Y862117D01*
X364371Y862165D01*
X364360Y862216D01*
X364323Y862278D01*
X364295Y862344D01*
X364250Y862399D01*
X364234Y862427D01*
X364216Y862442D01*
X364190Y862475D01*
X364157Y862507D01*
X353846Y872819D01*
X353751Y872887D01*
X353657Y872957D01*
X353651Y872959D01*
X353646Y872962D01*
X353535Y872996D01*
X353423Y873033D01*
X353417Y873033D01*
X353411Y873035D01*
X353294Y873032D01*
X353177Y873030D01*
X353170Y873028D01*
X353165Y873028D01*
X353148Y873022D01*
X353016Y872984D01*
X350943Y872125D01*
X346757Y872125D01*
X342888Y873728D01*
X339928Y876688D01*
X338325Y880557D01*
X338325Y884743D01*
X339928Y888612D01*
X341798Y890482D01*
X341839Y890540D01*
X341889Y890592D01*
X341911Y890639D01*
X341941Y890681D01*
X341962Y890750D01*
X341992Y890815D01*
X341998Y890867D01*
X342013Y890917D01*
X342012Y890988D01*
X342019Y891059D01*
X342008Y891110D01*
X342007Y891162D01*
X341982Y891230D01*
X341967Y891300D01*
X341940Y891345D01*
X341923Y891393D01*
X341878Y891449D01*
X341841Y891511D01*
X341801Y891545D01*
X341769Y891585D01*
X341709Y891624D01*
X341654Y891671D01*
X341606Y891690D01*
X341562Y891718D01*
X341493Y891736D01*
X341426Y891763D01*
X341355Y891771D01*
X341323Y891779D01*
X341300Y891777D01*
X341259Y891781D01*
X337160Y891781D01*
X337070Y891767D01*
X336979Y891759D01*
X336950Y891747D01*
X336918Y891742D01*
X336837Y891699D01*
X336753Y891663D01*
X336721Y891637D01*
X336700Y891626D01*
X336678Y891603D01*
X336622Y891558D01*
X333397Y888333D01*
X333329Y888238D01*
X333259Y888144D01*
X333257Y888138D01*
X333253Y888133D01*
X333219Y888021D01*
X333183Y887910D01*
X333183Y887904D01*
X333181Y887898D01*
X333184Y887781D01*
X333185Y887664D01*
X333187Y887657D01*
X333187Y887652D01*
X333193Y887635D01*
X333232Y887503D01*
X334375Y884743D01*
X334375Y880557D01*
X332772Y876688D01*
X329812Y873728D01*
X325943Y872125D01*
X321757Y872125D01*
X319789Y872940D01*
X319676Y872967D01*
X319562Y872995D01*
X319556Y872995D01*
X319550Y872996D01*
X319433Y872985D01*
X319317Y872976D01*
X319311Y872974D01*
X319305Y872973D01*
X319198Y872925D01*
X319091Y872880D01*
X319085Y872875D01*
X319080Y872873D01*
X319067Y872860D01*
X318960Y872775D01*
X218630Y772445D01*
X192276Y772445D01*
X192256Y772442D01*
X192237Y772444D01*
X192135Y772422D01*
X192033Y772406D01*
X192016Y772396D01*
X191996Y772392D01*
X191907Y772339D01*
X191816Y772290D01*
X191802Y772276D01*
X191785Y772266D01*
X191718Y772187D01*
X191646Y772112D01*
X191638Y772094D01*
X191625Y772079D01*
X191586Y771983D01*
X191543Y771889D01*
X191541Y771869D01*
X191533Y771851D01*
X191515Y771684D01*
X191515Y767838D01*
X190622Y766945D01*
X176358Y766945D01*
G37*
%LPD*%
%LPC*%
G36*
X492908Y1067475D02*
X492908Y1067475D01*
X488489Y1069306D01*
X485106Y1072689D01*
X483275Y1077108D01*
X483275Y1081892D01*
X485106Y1086311D01*
X488489Y1089694D01*
X492908Y1091525D01*
X497692Y1091525D01*
X502111Y1089694D01*
X505494Y1086311D01*
X506871Y1082987D01*
X506933Y1082887D01*
X506993Y1082787D01*
X506998Y1082783D01*
X507001Y1082778D01*
X507090Y1082703D01*
X507180Y1082627D01*
X507186Y1082625D01*
X507190Y1082621D01*
X507298Y1082579D01*
X507408Y1082535D01*
X507415Y1082534D01*
X507420Y1082533D01*
X507438Y1082532D01*
X507575Y1082517D01*
X559225Y1082517D01*
X559340Y1082536D01*
X559456Y1082553D01*
X559462Y1082555D01*
X559468Y1082556D01*
X559571Y1082611D01*
X559676Y1082664D01*
X559680Y1082669D01*
X559686Y1082672D01*
X559765Y1082756D01*
X559848Y1082840D01*
X559852Y1082846D01*
X559855Y1082850D01*
X559863Y1082867D01*
X559929Y1082987D01*
X561306Y1086311D01*
X564689Y1089694D01*
X569108Y1091525D01*
X573892Y1091525D01*
X578311Y1089694D01*
X581694Y1086311D01*
X582966Y1083241D01*
X583028Y1083141D01*
X583088Y1083041D01*
X583092Y1083037D01*
X583096Y1083032D01*
X583185Y1082957D01*
X583274Y1082881D01*
X583280Y1082879D01*
X583285Y1082875D01*
X583393Y1082833D01*
X583503Y1082789D01*
X583510Y1082788D01*
X583515Y1082787D01*
X583533Y1082786D01*
X583669Y1082771D01*
X981459Y1082771D01*
X981549Y1082785D01*
X981640Y1082793D01*
X981669Y1082805D01*
X981701Y1082810D01*
X981782Y1082853D01*
X981866Y1082889D01*
X981898Y1082915D01*
X981919Y1082926D01*
X981941Y1082949D01*
X981997Y1082994D01*
X1055940Y1156937D01*
X1055984Y1156998D01*
X1056021Y1157036D01*
X1056027Y1157050D01*
X1056053Y1157080D01*
X1056065Y1157111D01*
X1056084Y1157137D01*
X1056111Y1157224D01*
X1056145Y1157309D01*
X1056149Y1157350D01*
X1056156Y1157372D01*
X1056155Y1157404D01*
X1056163Y1157475D01*
X1056163Y1623504D01*
X1068132Y1635473D01*
X1068185Y1635547D01*
X1068245Y1635616D01*
X1068257Y1635647D01*
X1068276Y1635673D01*
X1068303Y1635760D01*
X1068337Y1635845D01*
X1068341Y1635886D01*
X1068348Y1635908D01*
X1068347Y1635940D01*
X1068355Y1636011D01*
X1068355Y1669892D01*
X1068337Y1670007D01*
X1068319Y1670123D01*
X1068317Y1670129D01*
X1068316Y1670135D01*
X1068261Y1670238D01*
X1068208Y1670342D01*
X1068203Y1670347D01*
X1068200Y1670352D01*
X1068115Y1670433D01*
X1068032Y1670515D01*
X1068026Y1670518D01*
X1068022Y1670522D01*
X1068005Y1670530D01*
X1067885Y1670595D01*
X1067312Y1670833D01*
X1065043Y1673102D01*
X1063815Y1676066D01*
X1063815Y1679274D01*
X1065043Y1682238D01*
X1067312Y1684507D01*
X1070276Y1685735D01*
X1073484Y1685735D01*
X1076448Y1684507D01*
X1078717Y1682238D01*
X1079945Y1679274D01*
X1079945Y1676066D01*
X1078717Y1673102D01*
X1076448Y1670833D01*
X1075875Y1670595D01*
X1075775Y1670534D01*
X1075675Y1670474D01*
X1075671Y1670469D01*
X1075666Y1670466D01*
X1075591Y1670376D01*
X1075515Y1670287D01*
X1075513Y1670281D01*
X1075509Y1670276D01*
X1075467Y1670168D01*
X1075423Y1670059D01*
X1075422Y1670051D01*
X1075421Y1670047D01*
X1075420Y1670028D01*
X1075405Y1669892D01*
X1075405Y1632776D01*
X1063436Y1620807D01*
X1063388Y1620741D01*
X1063380Y1620733D01*
X1063378Y1620728D01*
X1063323Y1620664D01*
X1063311Y1620633D01*
X1063292Y1620607D01*
X1063265Y1620520D01*
X1063231Y1620435D01*
X1063227Y1620394D01*
X1063220Y1620372D01*
X1063221Y1620340D01*
X1063213Y1620269D01*
X1063213Y1157472D01*
X1063227Y1157382D01*
X1063234Y1157292D01*
X1063247Y1157262D01*
X1063252Y1157229D01*
X1063272Y1157193D01*
X1063273Y1157185D01*
X1063295Y1157148D01*
X1063330Y1157065D01*
X1063356Y1157033D01*
X1063368Y1157012D01*
X1063389Y1156992D01*
X1063400Y1156974D01*
X1063412Y1156963D01*
X1063435Y1156934D01*
X1135653Y1084518D01*
X1135728Y1084465D01*
X1135797Y1084405D01*
X1135827Y1084393D01*
X1135853Y1084375D01*
X1135940Y1084348D01*
X1136026Y1084313D01*
X1136066Y1084309D01*
X1136088Y1084302D01*
X1136120Y1084303D01*
X1136192Y1084295D01*
X1148716Y1084295D01*
X1148831Y1084314D01*
X1148947Y1084331D01*
X1148952Y1084333D01*
X1148959Y1084334D01*
X1149061Y1084389D01*
X1149166Y1084442D01*
X1149171Y1084447D01*
X1149176Y1084450D01*
X1149256Y1084534D01*
X1149338Y1084618D01*
X1149342Y1084624D01*
X1149345Y1084628D01*
X1149353Y1084645D01*
X1149419Y1084765D01*
X1150586Y1087581D01*
X1153969Y1090964D01*
X1158388Y1092795D01*
X1163172Y1092795D01*
X1167591Y1090964D01*
X1170974Y1087581D01*
X1172805Y1083162D01*
X1172805Y1078378D01*
X1170974Y1073959D01*
X1167591Y1070576D01*
X1163172Y1068745D01*
X1158388Y1068745D01*
X1153969Y1070576D01*
X1150586Y1073959D01*
X1149419Y1076775D01*
X1149358Y1076875D01*
X1149298Y1076975D01*
X1149293Y1076979D01*
X1149290Y1076984D01*
X1149200Y1077059D01*
X1149111Y1077135D01*
X1149105Y1077137D01*
X1149100Y1077141D01*
X1148992Y1077183D01*
X1148883Y1077227D01*
X1148875Y1077228D01*
X1148870Y1077229D01*
X1148852Y1077230D01*
X1148716Y1077245D01*
X1132956Y1077245D01*
X1132288Y1077914D01*
X1132275Y1077922D01*
X1131041Y1079160D01*
X1131041Y1079161D01*
X1131040Y1079161D01*
X1129794Y1080407D01*
X1129780Y1080425D01*
X1060223Y1150172D01*
X1060206Y1150184D01*
X1060194Y1150200D01*
X1060107Y1150256D01*
X1060023Y1150316D01*
X1060004Y1150322D01*
X1059987Y1150333D01*
X1059887Y1150358D01*
X1059788Y1150389D01*
X1059768Y1150388D01*
X1059748Y1150393D01*
X1059645Y1150385D01*
X1059542Y1150383D01*
X1059523Y1150376D01*
X1059503Y1150374D01*
X1059408Y1150334D01*
X1059311Y1150298D01*
X1059295Y1150286D01*
X1059277Y1150278D01*
X1059146Y1150173D01*
X984694Y1075721D01*
X583459Y1075721D01*
X583344Y1075702D01*
X583228Y1075685D01*
X583222Y1075683D01*
X583216Y1075682D01*
X583114Y1075627D01*
X583009Y1075574D01*
X583004Y1075569D01*
X582999Y1075566D01*
X582919Y1075482D01*
X582836Y1075398D01*
X582833Y1075392D01*
X582829Y1075388D01*
X582822Y1075371D01*
X582756Y1075251D01*
X581694Y1072689D01*
X578311Y1069306D01*
X573892Y1067475D01*
X569108Y1067475D01*
X564689Y1069306D01*
X561306Y1072689D01*
X560350Y1074997D01*
X560288Y1075097D01*
X560228Y1075197D01*
X560223Y1075201D01*
X560220Y1075206D01*
X560130Y1075281D01*
X560041Y1075357D01*
X560035Y1075359D01*
X560030Y1075363D01*
X559922Y1075405D01*
X559813Y1075449D01*
X559805Y1075450D01*
X559801Y1075451D01*
X559783Y1075452D01*
X559646Y1075467D01*
X507154Y1075467D01*
X507039Y1075448D01*
X506923Y1075431D01*
X506917Y1075429D01*
X506911Y1075428D01*
X506808Y1075373D01*
X506704Y1075320D01*
X506699Y1075315D01*
X506694Y1075312D01*
X506614Y1075228D01*
X506531Y1075144D01*
X506528Y1075138D01*
X506524Y1075134D01*
X506516Y1075117D01*
X506450Y1074997D01*
X505494Y1072689D01*
X502111Y1069306D01*
X497692Y1067475D01*
X492908Y1067475D01*
G37*
%LPD*%
%LPC*%
G36*
X1298876Y945705D02*
X1298876Y945705D01*
X1295912Y946933D01*
X1293643Y949202D01*
X1293405Y949775D01*
X1293344Y949875D01*
X1293284Y949975D01*
X1293279Y949979D01*
X1293276Y949984D01*
X1293186Y950059D01*
X1293097Y950135D01*
X1293091Y950137D01*
X1293086Y950141D01*
X1292978Y950183D01*
X1292869Y950227D01*
X1292861Y950228D01*
X1292857Y950229D01*
X1292838Y950230D01*
X1292702Y950245D01*
X1248728Y950245D01*
X1159795Y1039178D01*
X1159764Y1039200D01*
X1159738Y1039229D01*
X1159598Y1039320D01*
X1093781Y1072229D01*
X1093761Y1072235D01*
X1093743Y1072247D01*
X1093644Y1072272D01*
X1093546Y1072302D01*
X1093525Y1072301D01*
X1093504Y1072307D01*
X1093402Y1072299D01*
X1093300Y1072296D01*
X1093280Y1072289D01*
X1093259Y1072287D01*
X1093165Y1072247D01*
X1093069Y1072212D01*
X1093052Y1072199D01*
X1093033Y1072191D01*
X1092902Y1072086D01*
X1091391Y1070576D01*
X1086972Y1068745D01*
X1082188Y1068745D01*
X1077769Y1070576D01*
X1074386Y1073959D01*
X1072555Y1078378D01*
X1072555Y1083162D01*
X1074386Y1087581D01*
X1077769Y1090964D01*
X1082188Y1092795D01*
X1086972Y1092795D01*
X1091391Y1090964D01*
X1094774Y1087581D01*
X1096605Y1083162D01*
X1096605Y1079169D01*
X1096619Y1079080D01*
X1096626Y1078990D01*
X1096639Y1078959D01*
X1096644Y1078926D01*
X1096687Y1078847D01*
X1096722Y1078763D01*
X1096744Y1078738D01*
X1096760Y1078709D01*
X1096825Y1078647D01*
X1096885Y1078579D01*
X1096920Y1078556D01*
X1096938Y1078539D01*
X1096967Y1078526D01*
X1097026Y1078488D01*
X1162467Y1045767D01*
X1162555Y1045740D01*
X1162641Y1045705D01*
X1162680Y1045701D01*
X1162702Y1045694D01*
X1162735Y1045695D01*
X1162808Y1045687D01*
X1163256Y1045687D01*
X1163797Y1045146D01*
X1163828Y1045124D01*
X1163854Y1045095D01*
X1163994Y1045004D01*
X1164678Y1044662D01*
X1164820Y1044237D01*
X1164863Y1044155D01*
X1164899Y1044070D01*
X1164924Y1044039D01*
X1164934Y1044019D01*
X1164958Y1043996D01*
X1165004Y1043939D01*
X1251425Y957518D01*
X1251499Y957465D01*
X1251568Y957405D01*
X1251599Y957393D01*
X1251625Y957374D01*
X1251712Y957347D01*
X1251797Y957313D01*
X1251838Y957309D01*
X1251860Y957302D01*
X1251892Y957303D01*
X1251963Y957295D01*
X1292702Y957295D01*
X1292817Y957313D01*
X1292933Y957331D01*
X1292939Y957333D01*
X1292945Y957334D01*
X1293048Y957389D01*
X1293152Y957442D01*
X1293157Y957447D01*
X1293162Y957450D01*
X1293243Y957535D01*
X1293325Y957618D01*
X1293328Y957624D01*
X1293332Y957628D01*
X1293340Y957645D01*
X1293405Y957765D01*
X1293643Y958338D01*
X1295912Y960607D01*
X1296485Y960845D01*
X1296585Y960906D01*
X1296685Y960966D01*
X1296689Y960971D01*
X1296694Y960974D01*
X1296769Y961064D01*
X1296845Y961153D01*
X1296847Y961159D01*
X1296851Y961164D01*
X1296893Y961272D01*
X1296937Y961381D01*
X1296938Y961389D01*
X1296939Y961393D01*
X1296940Y961412D01*
X1296955Y961548D01*
X1296955Y1500822D01*
X1427796Y1631663D01*
X1427849Y1631737D01*
X1427909Y1631806D01*
X1427921Y1631837D01*
X1427940Y1631863D01*
X1427967Y1631950D01*
X1428001Y1632035D01*
X1428005Y1632076D01*
X1428012Y1632098D01*
X1428011Y1632130D01*
X1428019Y1632201D01*
X1428019Y1656384D01*
X1428016Y1656404D01*
X1428018Y1656423D01*
X1427996Y1656525D01*
X1427980Y1656627D01*
X1427970Y1656644D01*
X1427966Y1656664D01*
X1427913Y1656753D01*
X1427864Y1656844D01*
X1427850Y1656858D01*
X1427840Y1656875D01*
X1427761Y1656942D01*
X1427686Y1657014D01*
X1427668Y1657022D01*
X1427653Y1657035D01*
X1427557Y1657074D01*
X1427463Y1657117D01*
X1427443Y1657119D01*
X1427425Y1657127D01*
X1427258Y1657145D01*
X1407448Y1657145D01*
X1406555Y1658038D01*
X1406555Y1697302D01*
X1407448Y1698195D01*
X1455712Y1698195D01*
X1456605Y1697302D01*
X1456605Y1658038D01*
X1455712Y1657145D01*
X1435830Y1657145D01*
X1435810Y1657142D01*
X1435791Y1657144D01*
X1435689Y1657122D01*
X1435587Y1657106D01*
X1435570Y1657096D01*
X1435550Y1657092D01*
X1435461Y1657039D01*
X1435370Y1656990D01*
X1435356Y1656976D01*
X1435339Y1656966D01*
X1435272Y1656887D01*
X1435200Y1656812D01*
X1435192Y1656794D01*
X1435179Y1656779D01*
X1435140Y1656683D01*
X1435097Y1656589D01*
X1435095Y1656569D01*
X1435087Y1656551D01*
X1435069Y1656384D01*
X1435069Y1628966D01*
X1304228Y1498125D01*
X1304175Y1498051D01*
X1304115Y1497982D01*
X1304103Y1497951D01*
X1304084Y1497925D01*
X1304057Y1497838D01*
X1304023Y1497753D01*
X1304019Y1497712D01*
X1304012Y1497690D01*
X1304013Y1497658D01*
X1304005Y1497587D01*
X1304005Y961548D01*
X1304023Y961433D01*
X1304041Y961317D01*
X1304043Y961311D01*
X1304044Y961305D01*
X1304099Y961202D01*
X1304152Y961098D01*
X1304157Y961093D01*
X1304160Y961088D01*
X1304245Y961007D01*
X1304328Y960925D01*
X1304334Y960922D01*
X1304338Y960918D01*
X1304355Y960910D01*
X1304475Y960845D01*
X1305048Y960607D01*
X1307317Y958338D01*
X1308545Y955374D01*
X1308545Y952166D01*
X1307317Y949202D01*
X1305048Y946933D01*
X1302084Y945705D01*
X1298876Y945705D01*
G37*
%LPD*%
%LPC*%
G36*
X1313337Y1743795D02*
X1313337Y1743795D01*
X1309193Y1745512D01*
X1306022Y1748683D01*
X1304305Y1752827D01*
X1304305Y1757313D01*
X1306022Y1761457D01*
X1309193Y1764628D01*
X1313337Y1766345D01*
X1317823Y1766345D01*
X1320053Y1765421D01*
X1320166Y1765394D01*
X1320280Y1765366D01*
X1320286Y1765366D01*
X1320292Y1765365D01*
X1320409Y1765376D01*
X1320525Y1765385D01*
X1320531Y1765387D01*
X1320537Y1765388D01*
X1320644Y1765436D01*
X1320751Y1765481D01*
X1320757Y1765486D01*
X1320762Y1765488D01*
X1320775Y1765501D01*
X1320882Y1765586D01*
X1364010Y1808714D01*
X1364063Y1808788D01*
X1364123Y1808858D01*
X1364135Y1808888D01*
X1364154Y1808914D01*
X1364181Y1809001D01*
X1364215Y1809086D01*
X1364219Y1809127D01*
X1364226Y1809149D01*
X1364225Y1809181D01*
X1364233Y1809253D01*
X1364233Y1834631D01*
X1364219Y1834722D01*
X1364211Y1834812D01*
X1364199Y1834842D01*
X1364194Y1834874D01*
X1364151Y1834955D01*
X1364115Y1835039D01*
X1364089Y1835071D01*
X1364078Y1835092D01*
X1364055Y1835114D01*
X1364010Y1835170D01*
X1353840Y1845340D01*
X1353766Y1845393D01*
X1353696Y1845453D01*
X1353666Y1845465D01*
X1353640Y1845484D01*
X1353553Y1845511D01*
X1353468Y1845545D01*
X1353427Y1845549D01*
X1353405Y1845556D01*
X1353373Y1845555D01*
X1353301Y1845563D01*
X981507Y1845563D01*
X922040Y1905030D01*
X921966Y1905083D01*
X921896Y1905143D01*
X921866Y1905155D01*
X921840Y1905174D01*
X921753Y1905201D01*
X921668Y1905235D01*
X921627Y1905239D01*
X921605Y1905246D01*
X921573Y1905245D01*
X921501Y1905253D01*
X804429Y1905253D01*
X804338Y1905239D01*
X804248Y1905231D01*
X804218Y1905219D01*
X804186Y1905214D01*
X804105Y1905171D01*
X804021Y1905135D01*
X803989Y1905109D01*
X803968Y1905098D01*
X803946Y1905075D01*
X803890Y1905030D01*
X789910Y1891050D01*
X789862Y1890983D01*
X789855Y1890976D01*
X789853Y1890972D01*
X789797Y1890906D01*
X789785Y1890876D01*
X789766Y1890850D01*
X789739Y1890763D01*
X789705Y1890678D01*
X789701Y1890637D01*
X789694Y1890615D01*
X789695Y1890583D01*
X789687Y1890511D01*
X789687Y1878690D01*
X789706Y1878576D01*
X789723Y1878459D01*
X789725Y1878454D01*
X789726Y1878448D01*
X789781Y1878345D01*
X789834Y1878240D01*
X789839Y1878236D01*
X789842Y1878230D01*
X789926Y1878150D01*
X790010Y1878068D01*
X790016Y1878064D01*
X790020Y1878061D01*
X790037Y1878053D01*
X790157Y1877987D01*
X791742Y1877331D01*
X794529Y1874544D01*
X796037Y1870903D01*
X796037Y1850197D01*
X794529Y1846556D01*
X791742Y1843769D01*
X788101Y1842261D01*
X784159Y1842261D01*
X780518Y1843769D01*
X777731Y1846556D01*
X776223Y1850197D01*
X776223Y1870903D01*
X777731Y1874544D01*
X780518Y1877331D01*
X782103Y1877987D01*
X782203Y1878049D01*
X782303Y1878109D01*
X782307Y1878113D01*
X782312Y1878117D01*
X782387Y1878206D01*
X782463Y1878296D01*
X782465Y1878301D01*
X782469Y1878306D01*
X782511Y1878414D01*
X782555Y1878524D01*
X782556Y1878531D01*
X782557Y1878536D01*
X782558Y1878554D01*
X782573Y1878690D01*
X782573Y1893773D01*
X801167Y1912367D01*
X924763Y1912367D01*
X984230Y1852900D01*
X984304Y1852847D01*
X984374Y1852787D01*
X984404Y1852775D01*
X984430Y1852756D01*
X984517Y1852729D01*
X984602Y1852695D01*
X984643Y1852691D01*
X984665Y1852684D01*
X984697Y1852685D01*
X984769Y1852677D01*
X1356563Y1852677D01*
X1371347Y1837893D01*
X1371347Y1805991D01*
X1325988Y1760632D01*
X1325920Y1760537D01*
X1325850Y1760444D01*
X1325848Y1760438D01*
X1325845Y1760433D01*
X1325810Y1760321D01*
X1325774Y1760210D01*
X1325774Y1760204D01*
X1325772Y1760198D01*
X1325775Y1760081D01*
X1325777Y1759964D01*
X1325779Y1759957D01*
X1325779Y1759952D01*
X1325785Y1759934D01*
X1325823Y1759803D01*
X1325995Y1759389D01*
X1326057Y1759289D01*
X1326116Y1759189D01*
X1326121Y1759185D01*
X1326124Y1759180D01*
X1326214Y1759105D01*
X1326303Y1759029D01*
X1326309Y1759027D01*
X1326314Y1759023D01*
X1326422Y1758981D01*
X1326531Y1758937D01*
X1326539Y1758936D01*
X1326544Y1758935D01*
X1326562Y1758934D01*
X1326698Y1758919D01*
X1388621Y1758919D01*
X1388711Y1758933D01*
X1388802Y1758941D01*
X1388831Y1758953D01*
X1388863Y1758958D01*
X1388944Y1759001D01*
X1389028Y1759037D01*
X1389060Y1759063D01*
X1389081Y1759074D01*
X1389103Y1759097D01*
X1389159Y1759142D01*
X1454982Y1824965D01*
X1455050Y1825059D01*
X1455120Y1825154D01*
X1455122Y1825160D01*
X1455126Y1825165D01*
X1455160Y1825276D01*
X1455196Y1825388D01*
X1455196Y1825394D01*
X1455198Y1825400D01*
X1455195Y1825517D01*
X1455194Y1825633D01*
X1455192Y1825641D01*
X1455192Y1825646D01*
X1455185Y1825663D01*
X1455147Y1825795D01*
X1454305Y1827827D01*
X1454305Y1832313D01*
X1456022Y1836457D01*
X1459193Y1839628D01*
X1463337Y1841345D01*
X1467823Y1841345D01*
X1471967Y1839628D01*
X1475138Y1836457D01*
X1476855Y1832313D01*
X1476855Y1827827D01*
X1475138Y1823683D01*
X1471967Y1820512D01*
X1467823Y1818795D01*
X1463337Y1818795D01*
X1460586Y1819935D01*
X1460473Y1819961D01*
X1460359Y1819990D01*
X1460353Y1819990D01*
X1460347Y1819991D01*
X1460230Y1819980D01*
X1460114Y1819971D01*
X1460108Y1819969D01*
X1460102Y1819968D01*
X1459994Y1819920D01*
X1459888Y1819875D01*
X1459882Y1819870D01*
X1459877Y1819868D01*
X1459863Y1819855D01*
X1459757Y1819770D01*
X1391856Y1751869D01*
X1326967Y1751869D01*
X1326852Y1751850D01*
X1326736Y1751833D01*
X1326730Y1751831D01*
X1326724Y1751830D01*
X1326621Y1751775D01*
X1326516Y1751722D01*
X1326512Y1751717D01*
X1326506Y1751714D01*
X1326427Y1751630D01*
X1326344Y1751546D01*
X1326340Y1751540D01*
X1326337Y1751536D01*
X1326329Y1751519D01*
X1326263Y1751399D01*
X1325138Y1748683D01*
X1321967Y1745512D01*
X1317823Y1743795D01*
X1313337Y1743795D01*
G37*
%LPD*%
G36*
X569472Y867284D02*
X569472Y867284D01*
X569569Y867294D01*
X569593Y867304D01*
X569619Y867308D01*
X569705Y867354D01*
X569794Y867394D01*
X569813Y867411D01*
X569836Y867424D01*
X569903Y867494D01*
X569975Y867560D01*
X569988Y867583D01*
X570006Y867602D01*
X570047Y867690D01*
X570094Y867776D01*
X570098Y867801D01*
X570109Y867825D01*
X570120Y867922D01*
X570137Y868018D01*
X570133Y868044D01*
X570136Y868069D01*
X570116Y868165D01*
X570101Y868261D01*
X570090Y868284D01*
X570084Y868310D01*
X570034Y868393D01*
X569990Y868480D01*
X569971Y868499D01*
X569958Y868521D01*
X569884Y868584D01*
X569814Y868652D01*
X569786Y868668D01*
X569771Y868681D01*
X569740Y868693D01*
X569667Y868733D01*
X566808Y869918D01*
X563848Y872878D01*
X562245Y876747D01*
X562245Y880933D01*
X563060Y882901D01*
X563087Y883014D01*
X563115Y883128D01*
X563115Y883134D01*
X563116Y883140D01*
X563105Y883257D01*
X563096Y883373D01*
X563094Y883379D01*
X563093Y883385D01*
X563045Y883492D01*
X563000Y883599D01*
X562995Y883605D01*
X562993Y883610D01*
X562980Y883623D01*
X562895Y883730D01*
X555067Y891558D01*
X554993Y891611D01*
X554924Y891671D01*
X554893Y891683D01*
X554867Y891702D01*
X554780Y891729D01*
X554695Y891763D01*
X554654Y891767D01*
X554632Y891774D01*
X554600Y891773D01*
X554529Y891781D01*
X382878Y891781D01*
X382807Y891770D01*
X382735Y891768D01*
X382686Y891750D01*
X382635Y891742D01*
X382572Y891708D01*
X382504Y891683D01*
X382463Y891651D01*
X382417Y891626D01*
X382368Y891575D01*
X382312Y891530D01*
X382284Y891486D01*
X382248Y891448D01*
X382218Y891383D01*
X382179Y891323D01*
X382166Y891272D01*
X382144Y891225D01*
X382137Y891154D01*
X382119Y891084D01*
X382123Y891032D01*
X382117Y890981D01*
X382133Y890910D01*
X382138Y890839D01*
X382159Y890791D01*
X382170Y890740D01*
X382206Y890679D01*
X382234Y890613D01*
X382279Y890557D01*
X382296Y890529D01*
X382314Y890514D01*
X382339Y890482D01*
X382653Y890168D01*
X383721Y888699D01*
X384545Y887080D01*
X385107Y885352D01*
X385293Y884173D01*
X374612Y884173D01*
X374592Y884170D01*
X374573Y884172D01*
X374471Y884150D01*
X374369Y884133D01*
X374352Y884124D01*
X374332Y884120D01*
X374243Y884067D01*
X374152Y884018D01*
X374138Y884004D01*
X374121Y883994D01*
X374054Y883915D01*
X373983Y883840D01*
X373974Y883822D01*
X373961Y883807D01*
X373923Y883711D01*
X373879Y883617D01*
X373877Y883597D01*
X373869Y883579D01*
X373851Y883412D01*
X373851Y882649D01*
X373849Y882649D01*
X373849Y883412D01*
X373846Y883432D01*
X373848Y883451D01*
X373826Y883553D01*
X373809Y883655D01*
X373800Y883672D01*
X373796Y883692D01*
X373743Y883781D01*
X373694Y883872D01*
X373680Y883886D01*
X373670Y883903D01*
X373591Y883970D01*
X373516Y884041D01*
X373498Y884050D01*
X373483Y884063D01*
X373387Y884102D01*
X373293Y884145D01*
X373273Y884147D01*
X373255Y884155D01*
X373088Y884173D01*
X362407Y884173D01*
X362593Y885352D01*
X363155Y887080D01*
X363979Y888699D01*
X365047Y890168D01*
X365361Y890482D01*
X365403Y890540D01*
X365452Y890592D01*
X365474Y890639D01*
X365504Y890681D01*
X365525Y890750D01*
X365556Y890815D01*
X365561Y890867D01*
X365577Y890917D01*
X365575Y890988D01*
X365583Y891059D01*
X365572Y891110D01*
X365570Y891162D01*
X365546Y891230D01*
X365530Y891300D01*
X365504Y891345D01*
X365486Y891393D01*
X365441Y891449D01*
X365404Y891511D01*
X365365Y891545D01*
X365332Y891585D01*
X365272Y891624D01*
X365217Y891671D01*
X365169Y891690D01*
X365125Y891718D01*
X365056Y891736D01*
X364989Y891763D01*
X364918Y891771D01*
X364887Y891779D01*
X364863Y891777D01*
X364822Y891781D01*
X356441Y891781D01*
X356370Y891770D01*
X356298Y891768D01*
X356249Y891750D01*
X356198Y891742D01*
X356135Y891708D01*
X356067Y891683D01*
X356027Y891651D01*
X355981Y891626D01*
X355931Y891574D01*
X355875Y891530D01*
X355847Y891486D01*
X355811Y891448D01*
X355781Y891383D01*
X355742Y891323D01*
X355730Y891272D01*
X355708Y891225D01*
X355700Y891154D01*
X355682Y891084D01*
X355686Y891032D01*
X355681Y890981D01*
X355696Y890910D01*
X355701Y890839D01*
X355722Y890791D01*
X355733Y890740D01*
X355770Y890679D01*
X355798Y890613D01*
X355842Y890557D01*
X355859Y890529D01*
X355877Y890514D01*
X355902Y890482D01*
X357772Y888612D01*
X359375Y884743D01*
X359375Y880557D01*
X358604Y878695D01*
X358577Y878581D01*
X358548Y878468D01*
X358549Y878461D01*
X358547Y878455D01*
X358558Y878339D01*
X358567Y878223D01*
X358570Y878217D01*
X358571Y878210D01*
X358618Y878103D01*
X358664Y877996D01*
X358668Y877990D01*
X358671Y877986D01*
X358683Y877972D01*
X358769Y877865D01*
X369142Y867492D01*
X369216Y867439D01*
X369286Y867379D01*
X369316Y867367D01*
X369342Y867348D01*
X369429Y867321D01*
X369514Y867287D01*
X369555Y867283D01*
X369577Y867276D01*
X369609Y867277D01*
X369680Y867269D01*
X569376Y867269D01*
X569472Y867284D01*
G37*
%LPC*%
G36*
X293658Y1664765D02*
X293658Y1664765D01*
X292765Y1665658D01*
X292765Y1705015D01*
X292751Y1705105D01*
X292743Y1705196D01*
X292731Y1705225D01*
X292726Y1705257D01*
X292683Y1705338D01*
X292647Y1705422D01*
X292621Y1705454D01*
X292610Y1705475D01*
X292587Y1705497D01*
X292542Y1705553D01*
X284295Y1713800D01*
X284221Y1713853D01*
X284152Y1713913D01*
X284121Y1713925D01*
X284095Y1713944D01*
X284008Y1713971D01*
X283923Y1714005D01*
X283882Y1714009D01*
X283860Y1714016D01*
X283828Y1714015D01*
X283757Y1714023D01*
X120626Y1714023D01*
X120511Y1714004D01*
X120395Y1713987D01*
X120389Y1713985D01*
X120383Y1713984D01*
X120280Y1713929D01*
X120175Y1713876D01*
X120171Y1713871D01*
X120166Y1713868D01*
X120086Y1713784D01*
X120003Y1713700D01*
X120000Y1713694D01*
X119996Y1713690D01*
X119988Y1713673D01*
X119922Y1713553D01*
X117199Y1706977D01*
X112023Y1701801D01*
X105260Y1699000D01*
X97940Y1699000D01*
X91177Y1701801D01*
X86001Y1706977D01*
X83200Y1713740D01*
X83200Y1721060D01*
X86001Y1727823D01*
X91177Y1732999D01*
X97940Y1735800D01*
X105260Y1735800D01*
X112023Y1732999D01*
X117199Y1727823D01*
X119800Y1721543D01*
X119861Y1721443D01*
X119921Y1721343D01*
X119926Y1721339D01*
X119929Y1721334D01*
X120019Y1721259D01*
X120108Y1721183D01*
X120114Y1721181D01*
X120119Y1721177D01*
X120227Y1721135D01*
X120336Y1721091D01*
X120344Y1721090D01*
X120348Y1721089D01*
X120367Y1721088D01*
X120503Y1721073D01*
X286992Y1721073D01*
X302027Y1706038D01*
X302101Y1705985D01*
X302170Y1705925D01*
X302201Y1705913D01*
X302227Y1705894D01*
X302314Y1705867D01*
X302399Y1705833D01*
X302440Y1705829D01*
X302462Y1705822D01*
X302494Y1705823D01*
X302565Y1705815D01*
X341922Y1705815D01*
X342815Y1704922D01*
X342815Y1665658D01*
X341922Y1664765D01*
X293658Y1664765D01*
G37*
%LPD*%
%LPC*%
G36*
X1081427Y1572920D02*
X1081427Y1572920D01*
X1075602Y1575333D01*
X1071143Y1579792D01*
X1068730Y1585617D01*
X1068730Y1591923D01*
X1071143Y1597748D01*
X1075602Y1602207D01*
X1081427Y1604620D01*
X1087882Y1604620D01*
X1087902Y1604623D01*
X1087921Y1604621D01*
X1088023Y1604643D01*
X1088125Y1604659D01*
X1088142Y1604669D01*
X1088162Y1604673D01*
X1088251Y1604726D01*
X1088342Y1604775D01*
X1088356Y1604789D01*
X1088373Y1604799D01*
X1088440Y1604878D01*
X1088512Y1604953D01*
X1088520Y1604971D01*
X1088533Y1604986D01*
X1088572Y1605082D01*
X1088615Y1605176D01*
X1088617Y1605196D01*
X1088625Y1605214D01*
X1088643Y1605381D01*
X1088643Y1707697D01*
X1088629Y1707787D01*
X1088621Y1707878D01*
X1088609Y1707907D01*
X1088604Y1707939D01*
X1088561Y1708020D01*
X1088525Y1708104D01*
X1088499Y1708136D01*
X1088488Y1708157D01*
X1088465Y1708179D01*
X1088420Y1708235D01*
X1086893Y1709762D01*
X1086893Y1714158D01*
X1090002Y1717267D01*
X1094398Y1717267D01*
X1097507Y1714158D01*
X1097507Y1709762D01*
X1095980Y1708235D01*
X1095927Y1708161D01*
X1095867Y1708091D01*
X1095855Y1708061D01*
X1095836Y1708035D01*
X1095809Y1707948D01*
X1095775Y1707863D01*
X1095771Y1707822D01*
X1095764Y1707800D01*
X1095765Y1707768D01*
X1095757Y1707697D01*
X1095757Y1600323D01*
X1095771Y1600233D01*
X1095779Y1600142D01*
X1095791Y1600113D01*
X1095796Y1600081D01*
X1095839Y1600000D01*
X1095875Y1599916D01*
X1095901Y1599884D01*
X1095912Y1599863D01*
X1095935Y1599841D01*
X1095980Y1599785D01*
X1098017Y1597748D01*
X1099871Y1593273D01*
X1099932Y1593173D01*
X1099992Y1593073D01*
X1099997Y1593069D01*
X1100000Y1593064D01*
X1100090Y1592989D01*
X1100179Y1592913D01*
X1100185Y1592911D01*
X1100190Y1592907D01*
X1100298Y1592865D01*
X1100407Y1592821D01*
X1100415Y1592820D01*
X1100419Y1592819D01*
X1100438Y1592818D01*
X1100574Y1592803D01*
X1110826Y1592803D01*
X1110941Y1592822D01*
X1111057Y1592839D01*
X1111063Y1592841D01*
X1111069Y1592842D01*
X1111172Y1592897D01*
X1111276Y1592950D01*
X1111281Y1592955D01*
X1111286Y1592958D01*
X1111366Y1593042D01*
X1111449Y1593126D01*
X1111452Y1593132D01*
X1111456Y1593136D01*
X1111464Y1593153D01*
X1111530Y1593273D01*
X1112486Y1595581D01*
X1115869Y1598964D01*
X1120288Y1600795D01*
X1125072Y1600795D01*
X1128248Y1599479D01*
X1128361Y1599453D01*
X1128475Y1599424D01*
X1128481Y1599424D01*
X1128487Y1599423D01*
X1128604Y1599434D01*
X1128720Y1599443D01*
X1128726Y1599446D01*
X1128732Y1599446D01*
X1128840Y1599494D01*
X1128946Y1599539D01*
X1128952Y1599544D01*
X1128957Y1599546D01*
X1128971Y1599559D01*
X1129077Y1599644D01*
X1144842Y1615409D01*
X1207519Y1615409D01*
X1207609Y1615423D01*
X1207700Y1615431D01*
X1207729Y1615443D01*
X1207761Y1615448D01*
X1207842Y1615491D01*
X1207926Y1615527D01*
X1207958Y1615553D01*
X1207979Y1615564D01*
X1208001Y1615587D01*
X1208057Y1615632D01*
X1277430Y1685005D01*
X1347762Y1685005D01*
X1347827Y1685015D01*
X1347892Y1685016D01*
X1347972Y1685039D01*
X1348005Y1685044D01*
X1348015Y1685050D01*
X1348019Y1685050D01*
X1348029Y1685056D01*
X1348053Y1685063D01*
X1349676Y1685735D01*
X1352884Y1685735D01*
X1355848Y1684507D01*
X1358117Y1682238D01*
X1359345Y1679274D01*
X1359345Y1676066D01*
X1358117Y1673102D01*
X1355848Y1670833D01*
X1352884Y1669605D01*
X1349676Y1669605D01*
X1346712Y1670833D01*
X1344443Y1673102D01*
X1343215Y1676066D01*
X1343215Y1677194D01*
X1343212Y1677214D01*
X1343214Y1677233D01*
X1343192Y1677335D01*
X1343176Y1677437D01*
X1343166Y1677454D01*
X1343162Y1677474D01*
X1343109Y1677563D01*
X1343060Y1677654D01*
X1343046Y1677668D01*
X1343036Y1677685D01*
X1342957Y1677752D01*
X1342882Y1677824D01*
X1342864Y1677832D01*
X1342849Y1677845D01*
X1342753Y1677884D01*
X1342659Y1677927D01*
X1342639Y1677929D01*
X1342621Y1677937D01*
X1342454Y1677955D01*
X1280665Y1677955D01*
X1280575Y1677941D01*
X1280484Y1677933D01*
X1280455Y1677921D01*
X1280423Y1677916D01*
X1280342Y1677873D01*
X1280258Y1677837D01*
X1280226Y1677811D01*
X1280205Y1677800D01*
X1280183Y1677777D01*
X1280127Y1677732D01*
X1210754Y1608359D01*
X1148077Y1608359D01*
X1147987Y1608345D01*
X1147896Y1608337D01*
X1147867Y1608325D01*
X1147835Y1608320D01*
X1147754Y1608277D01*
X1147670Y1608241D01*
X1147638Y1608215D01*
X1147617Y1608204D01*
X1147595Y1608181D01*
X1147539Y1608136D01*
X1133852Y1594449D01*
X1133784Y1594354D01*
X1133714Y1594260D01*
X1133712Y1594254D01*
X1133708Y1594249D01*
X1133674Y1594138D01*
X1133638Y1594027D01*
X1133638Y1594020D01*
X1133636Y1594014D01*
X1133639Y1593897D01*
X1133640Y1593781D01*
X1133642Y1593773D01*
X1133642Y1593768D01*
X1133649Y1593751D01*
X1133687Y1593619D01*
X1134705Y1591162D01*
X1134705Y1586378D01*
X1132874Y1581959D01*
X1129491Y1578576D01*
X1125072Y1576745D01*
X1120288Y1576745D01*
X1115869Y1578576D01*
X1112486Y1581959D01*
X1111109Y1585283D01*
X1111047Y1585383D01*
X1110987Y1585483D01*
X1110982Y1585487D01*
X1110979Y1585492D01*
X1110890Y1585567D01*
X1110800Y1585643D01*
X1110794Y1585645D01*
X1110790Y1585649D01*
X1110682Y1585691D01*
X1110572Y1585735D01*
X1110565Y1585736D01*
X1110560Y1585737D01*
X1110542Y1585738D01*
X1110405Y1585753D01*
X1100995Y1585753D01*
X1100880Y1585734D01*
X1100764Y1585717D01*
X1100758Y1585715D01*
X1100752Y1585714D01*
X1100649Y1585659D01*
X1100545Y1585606D01*
X1100540Y1585601D01*
X1100535Y1585598D01*
X1100455Y1585514D01*
X1100372Y1585430D01*
X1100369Y1585424D01*
X1100365Y1585420D01*
X1100357Y1585403D01*
X1100291Y1585283D01*
X1098017Y1579792D01*
X1093558Y1575333D01*
X1087733Y1572920D01*
X1081427Y1572920D01*
G37*
%LPD*%
%LPC*%
G36*
X663918Y1655875D02*
X663918Y1655875D01*
X663025Y1656768D01*
X663025Y1674135D01*
X663011Y1674225D01*
X663003Y1674316D01*
X662991Y1674345D01*
X662986Y1674377D01*
X662943Y1674458D01*
X662907Y1674542D01*
X662881Y1674574D01*
X662870Y1674595D01*
X662847Y1674617D01*
X662802Y1674673D01*
X662535Y1674940D01*
X662535Y1675137D01*
X662534Y1675147D01*
X662535Y1675158D01*
X662514Y1675268D01*
X662496Y1675379D01*
X662490Y1675389D01*
X662488Y1675399D01*
X662414Y1675549D01*
X601900Y1769272D01*
X601850Y1769328D01*
X601807Y1769389D01*
X601768Y1769418D01*
X601735Y1769455D01*
X601670Y1769491D01*
X601610Y1769536D01*
X601563Y1769551D01*
X601520Y1769575D01*
X601447Y1769589D01*
X601376Y1769612D01*
X601327Y1769611D01*
X601278Y1769620D01*
X601205Y1769610D01*
X601130Y1769609D01*
X601066Y1769591D01*
X601035Y1769586D01*
X601012Y1769575D01*
X600969Y1769563D01*
X598380Y1768490D01*
X591060Y1768490D01*
X584297Y1771291D01*
X579121Y1776467D01*
X576320Y1783230D01*
X576320Y1790550D01*
X579121Y1797313D01*
X584297Y1802489D01*
X591060Y1805290D01*
X598380Y1805290D01*
X605143Y1802489D01*
X610319Y1797313D01*
X613120Y1790550D01*
X613120Y1783230D01*
X610319Y1776467D01*
X607913Y1774062D01*
X607877Y1774011D01*
X607833Y1773967D01*
X607806Y1773912D01*
X607770Y1773863D01*
X607751Y1773803D01*
X607724Y1773746D01*
X607716Y1773686D01*
X607698Y1773628D01*
X607699Y1773565D01*
X607691Y1773503D01*
X607702Y1773443D01*
X607704Y1773382D01*
X607725Y1773323D01*
X607737Y1773261D01*
X607777Y1773182D01*
X607788Y1773151D01*
X607799Y1773137D01*
X607812Y1773111D01*
X661624Y1689768D01*
X661644Y1689746D01*
X661658Y1689720D01*
X661726Y1689655D01*
X661790Y1689585D01*
X661815Y1689571D01*
X661836Y1689551D01*
X661922Y1689511D01*
X662004Y1689465D01*
X662033Y1689460D01*
X662059Y1689447D01*
X662153Y1689437D01*
X662246Y1689420D01*
X662275Y1689424D01*
X662303Y1689420D01*
X662396Y1689440D01*
X662489Y1689453D01*
X662515Y1689466D01*
X662544Y1689473D01*
X662625Y1689521D01*
X662710Y1689563D01*
X662730Y1689584D01*
X662755Y1689599D01*
X662816Y1689671D01*
X662883Y1689738D01*
X662896Y1689764D01*
X662915Y1689786D01*
X662950Y1689874D01*
X662992Y1689958D01*
X662996Y1689987D01*
X663007Y1690014D01*
X663025Y1690181D01*
X663025Y1696032D01*
X663918Y1696925D01*
X712182Y1696925D01*
X713075Y1696032D01*
X713075Y1656768D01*
X712182Y1655875D01*
X663918Y1655875D01*
G37*
%LPD*%
%LPC*%
G36*
X791720Y795670D02*
X791720Y795670D01*
X784957Y798471D01*
X779781Y803647D01*
X776980Y810410D01*
X776980Y817730D01*
X779781Y824493D01*
X784957Y829669D01*
X791720Y832470D01*
X799040Y832470D01*
X805803Y829669D01*
X806450Y829021D01*
X806466Y829010D01*
X806479Y828994D01*
X806566Y828938D01*
X806650Y828878D01*
X806669Y828872D01*
X806685Y828861D01*
X806786Y828836D01*
X806885Y828805D01*
X806905Y828806D01*
X806924Y828801D01*
X807027Y828809D01*
X807131Y828812D01*
X807149Y828819D01*
X807169Y828820D01*
X807264Y828860D01*
X807362Y828896D01*
X807377Y828909D01*
X807396Y828916D01*
X807526Y829021D01*
X878412Y899907D01*
X878465Y899981D01*
X878525Y900050D01*
X878537Y900081D01*
X878556Y900107D01*
X878583Y900194D01*
X878617Y900279D01*
X878621Y900320D01*
X878628Y900342D01*
X878627Y900374D01*
X878635Y900445D01*
X878635Y928662D01*
X879528Y929555D01*
X918792Y929555D01*
X919685Y928662D01*
X919685Y880398D01*
X918792Y879505D01*
X879528Y879505D01*
X878635Y880398D01*
X878635Y888323D01*
X878624Y888393D01*
X878622Y888465D01*
X878604Y888514D01*
X878596Y888565D01*
X878562Y888629D01*
X878537Y888696D01*
X878505Y888737D01*
X878480Y888783D01*
X878429Y888832D01*
X878384Y888888D01*
X878340Y888916D01*
X878302Y888952D01*
X878237Y888982D01*
X878177Y889021D01*
X878126Y889034D01*
X878079Y889056D01*
X878008Y889064D01*
X877938Y889081D01*
X877886Y889077D01*
X877835Y889083D01*
X877764Y889068D01*
X877693Y889062D01*
X877645Y889042D01*
X877594Y889031D01*
X877533Y888994D01*
X877467Y888966D01*
X877411Y888921D01*
X877383Y888905D01*
X877368Y888887D01*
X877336Y888861D01*
X811921Y823446D01*
X811853Y823352D01*
X811783Y823257D01*
X811781Y823251D01*
X811777Y823246D01*
X811743Y823135D01*
X811707Y823023D01*
X811707Y823017D01*
X811705Y823011D01*
X811708Y822894D01*
X811709Y822777D01*
X811711Y822770D01*
X811711Y822765D01*
X811718Y822748D01*
X811756Y822616D01*
X813780Y817730D01*
X813780Y810410D01*
X810979Y803647D01*
X805803Y798471D01*
X799040Y795670D01*
X791720Y795670D01*
G37*
%LPD*%
%LPC*%
G36*
X97940Y1254500D02*
X97940Y1254500D01*
X91177Y1257301D01*
X86001Y1262477D01*
X83200Y1269240D01*
X83200Y1276560D01*
X86001Y1283323D01*
X91177Y1288499D01*
X97940Y1291300D01*
X105260Y1291300D01*
X111224Y1288829D01*
X111338Y1288803D01*
X111451Y1288774D01*
X111457Y1288775D01*
X111463Y1288773D01*
X111580Y1288784D01*
X111696Y1288793D01*
X111702Y1288796D01*
X111708Y1288796D01*
X111816Y1288844D01*
X111923Y1288890D01*
X111928Y1288894D01*
X111933Y1288896D01*
X111947Y1288909D01*
X112054Y1288994D01*
X167704Y1344645D01*
X181914Y1344645D01*
X181934Y1344648D01*
X181953Y1344646D01*
X182055Y1344668D01*
X182157Y1344684D01*
X182174Y1344694D01*
X182194Y1344698D01*
X182283Y1344751D01*
X182374Y1344800D01*
X182388Y1344814D01*
X182405Y1344824D01*
X182472Y1344903D01*
X182544Y1344978D01*
X182552Y1344996D01*
X182565Y1345011D01*
X182604Y1345107D01*
X182647Y1345201D01*
X182649Y1345221D01*
X182657Y1345239D01*
X182675Y1345406D01*
X182675Y1366232D01*
X183568Y1367125D01*
X222832Y1367125D01*
X223725Y1366232D01*
X223725Y1317968D01*
X222832Y1317075D01*
X183568Y1317075D01*
X182675Y1317968D01*
X182675Y1336834D01*
X182672Y1336854D01*
X182674Y1336873D01*
X182652Y1336975D01*
X182636Y1337077D01*
X182626Y1337094D01*
X182622Y1337114D01*
X182569Y1337203D01*
X182520Y1337294D01*
X182506Y1337308D01*
X182496Y1337325D01*
X182417Y1337392D01*
X182342Y1337464D01*
X182324Y1337472D01*
X182309Y1337485D01*
X182213Y1337524D01*
X182119Y1337567D01*
X182099Y1337569D01*
X182081Y1337577D01*
X181914Y1337595D01*
X170939Y1337595D01*
X170849Y1337581D01*
X170758Y1337573D01*
X170729Y1337561D01*
X170697Y1337556D01*
X170616Y1337513D01*
X170532Y1337477D01*
X170500Y1337451D01*
X170479Y1337440D01*
X170457Y1337417D01*
X170401Y1337372D01*
X117310Y1284281D01*
X117243Y1284187D01*
X117172Y1284093D01*
X117170Y1284087D01*
X117167Y1284082D01*
X117132Y1283971D01*
X117096Y1283859D01*
X117096Y1283852D01*
X117094Y1283847D01*
X117097Y1283730D01*
X117098Y1283613D01*
X117100Y1283606D01*
X117101Y1283601D01*
X117107Y1283583D01*
X117145Y1283452D01*
X120000Y1276560D01*
X120000Y1269240D01*
X117199Y1262477D01*
X112023Y1257301D01*
X105260Y1254500D01*
X97940Y1254500D01*
G37*
%LPD*%
%LPC*%
G36*
X967448Y1657145D02*
X967448Y1657145D01*
X966555Y1658038D01*
X966555Y1697302D01*
X967448Y1698195D01*
X988346Y1698195D01*
X988366Y1698198D01*
X988385Y1698196D01*
X988487Y1698218D01*
X988589Y1698234D01*
X988606Y1698244D01*
X988626Y1698248D01*
X988715Y1698301D01*
X988806Y1698350D01*
X988820Y1698364D01*
X988837Y1698374D01*
X988904Y1698453D01*
X988976Y1698528D01*
X988984Y1698546D01*
X988997Y1698561D01*
X989036Y1698657D01*
X989079Y1698751D01*
X989081Y1698771D01*
X989089Y1698789D01*
X989107Y1698956D01*
X989107Y1749234D01*
X1008121Y1768248D01*
X1008169Y1768314D01*
X1008174Y1768320D01*
X1008177Y1768325D01*
X1008189Y1768342D01*
X1008259Y1768437D01*
X1008261Y1768443D01*
X1008265Y1768448D01*
X1008299Y1768558D01*
X1008335Y1768670D01*
X1008335Y1768677D01*
X1008337Y1768683D01*
X1008334Y1768799D01*
X1008333Y1768916D01*
X1008331Y1768924D01*
X1008331Y1768929D01*
X1008324Y1768946D01*
X1008286Y1769077D01*
X1005580Y1775610D01*
X1005580Y1782930D01*
X1008381Y1789693D01*
X1013557Y1794869D01*
X1020320Y1797670D01*
X1027640Y1797670D01*
X1034403Y1794869D01*
X1039579Y1789693D01*
X1042380Y1782930D01*
X1042380Y1775610D01*
X1039579Y1768847D01*
X1034403Y1763671D01*
X1027640Y1760870D01*
X1020320Y1760870D01*
X1013997Y1763489D01*
X1013883Y1763516D01*
X1013770Y1763545D01*
X1013763Y1763544D01*
X1013757Y1763546D01*
X1013641Y1763535D01*
X1013524Y1763526D01*
X1013519Y1763523D01*
X1013512Y1763523D01*
X1013405Y1763475D01*
X1013298Y1763429D01*
X1013292Y1763425D01*
X1013288Y1763423D01*
X1013274Y1763410D01*
X1013167Y1763324D01*
X996380Y1746537D01*
X996327Y1746463D01*
X996267Y1746394D01*
X996255Y1746363D01*
X996236Y1746337D01*
X996209Y1746250D01*
X996175Y1746165D01*
X996171Y1746124D01*
X996164Y1746102D01*
X996165Y1746070D01*
X996157Y1745999D01*
X996157Y1698956D01*
X996160Y1698936D01*
X996158Y1698917D01*
X996180Y1698815D01*
X996196Y1698713D01*
X996206Y1698696D01*
X996210Y1698676D01*
X996263Y1698587D01*
X996312Y1698496D01*
X996326Y1698482D01*
X996336Y1698465D01*
X996415Y1698398D01*
X996490Y1698326D01*
X996508Y1698318D01*
X996523Y1698305D01*
X996619Y1698266D01*
X996713Y1698223D01*
X996733Y1698221D01*
X996751Y1698213D01*
X996918Y1698195D01*
X1015712Y1698195D01*
X1016605Y1697302D01*
X1016605Y1658038D01*
X1015712Y1657145D01*
X967448Y1657145D01*
G37*
%LPD*%
%LPC*%
G36*
X97940Y1483100D02*
X97940Y1483100D01*
X91177Y1485901D01*
X86001Y1491077D01*
X83200Y1497840D01*
X83200Y1505160D01*
X86001Y1511923D01*
X91177Y1517099D01*
X97940Y1519900D01*
X105260Y1519900D01*
X111224Y1517429D01*
X111338Y1517403D01*
X111451Y1517374D01*
X111457Y1517375D01*
X111463Y1517373D01*
X111580Y1517384D01*
X111696Y1517393D01*
X111702Y1517396D01*
X111708Y1517396D01*
X111816Y1517444D01*
X111923Y1517490D01*
X111928Y1517494D01*
X111933Y1517496D01*
X111947Y1517509D01*
X112054Y1517594D01*
X129604Y1535145D01*
X181914Y1535145D01*
X181934Y1535148D01*
X181953Y1535146D01*
X182055Y1535168D01*
X182157Y1535184D01*
X182174Y1535194D01*
X182194Y1535198D01*
X182283Y1535251D01*
X182374Y1535300D01*
X182388Y1535314D01*
X182405Y1535324D01*
X182472Y1535403D01*
X182544Y1535478D01*
X182552Y1535496D01*
X182565Y1535511D01*
X182604Y1535607D01*
X182647Y1535701D01*
X182649Y1535721D01*
X182657Y1535739D01*
X182675Y1535906D01*
X182675Y1556732D01*
X183568Y1557625D01*
X222832Y1557625D01*
X223725Y1556732D01*
X223725Y1508468D01*
X222832Y1507575D01*
X183568Y1507575D01*
X182675Y1508468D01*
X182675Y1527334D01*
X182672Y1527354D01*
X182674Y1527373D01*
X182652Y1527475D01*
X182636Y1527577D01*
X182626Y1527594D01*
X182622Y1527614D01*
X182569Y1527703D01*
X182520Y1527794D01*
X182506Y1527808D01*
X182496Y1527825D01*
X182417Y1527892D01*
X182342Y1527964D01*
X182324Y1527972D01*
X182309Y1527985D01*
X182213Y1528024D01*
X182119Y1528067D01*
X182099Y1528069D01*
X182081Y1528077D01*
X181914Y1528095D01*
X132839Y1528095D01*
X132749Y1528081D01*
X132658Y1528073D01*
X132629Y1528061D01*
X132597Y1528056D01*
X132516Y1528013D01*
X132432Y1527977D01*
X132400Y1527951D01*
X132379Y1527940D01*
X132357Y1527917D01*
X132301Y1527872D01*
X117310Y1512881D01*
X117243Y1512787D01*
X117172Y1512693D01*
X117170Y1512687D01*
X117167Y1512682D01*
X117132Y1512571D01*
X117096Y1512459D01*
X117096Y1512452D01*
X117094Y1512447D01*
X117097Y1512330D01*
X117098Y1512213D01*
X117100Y1512206D01*
X117101Y1512201D01*
X117107Y1512183D01*
X117145Y1512052D01*
X120000Y1505160D01*
X120000Y1497840D01*
X117199Y1491077D01*
X112023Y1485901D01*
X105260Y1483100D01*
X97940Y1483100D01*
G37*
%LPD*%
%LPC*%
G36*
X85240Y797300D02*
X85240Y797300D01*
X78477Y800101D01*
X73301Y805277D01*
X70500Y812040D01*
X70500Y819360D01*
X73301Y826123D01*
X78477Y831299D01*
X85240Y834100D01*
X92560Y834100D01*
X98883Y831481D01*
X98997Y831454D01*
X99110Y831425D01*
X99117Y831426D01*
X99123Y831424D01*
X99239Y831435D01*
X99356Y831444D01*
X99361Y831447D01*
X99368Y831447D01*
X99475Y831495D01*
X99582Y831541D01*
X99588Y831545D01*
X99592Y831547D01*
X99606Y831560D01*
X99713Y831646D01*
X100648Y832581D01*
X156514Y832581D01*
X156534Y832584D01*
X156553Y832582D01*
X156655Y832604D01*
X156757Y832620D01*
X156774Y832630D01*
X156794Y832634D01*
X156883Y832687D01*
X156974Y832736D01*
X156988Y832750D01*
X157005Y832760D01*
X157072Y832839D01*
X157144Y832914D01*
X157152Y832932D01*
X157165Y832947D01*
X157204Y833043D01*
X157247Y833137D01*
X157249Y833157D01*
X157257Y833175D01*
X157275Y833342D01*
X157275Y853732D01*
X158168Y854625D01*
X197432Y854625D01*
X198325Y853732D01*
X198325Y805468D01*
X197432Y804575D01*
X158168Y804575D01*
X157275Y805468D01*
X157275Y824770D01*
X157272Y824790D01*
X157274Y824809D01*
X157252Y824911D01*
X157236Y825013D01*
X157226Y825030D01*
X157222Y825050D01*
X157169Y825139D01*
X157120Y825230D01*
X157106Y825244D01*
X157096Y825261D01*
X157017Y825328D01*
X156942Y825400D01*
X156924Y825408D01*
X156909Y825421D01*
X156813Y825460D01*
X156719Y825503D01*
X156699Y825505D01*
X156681Y825513D01*
X156514Y825531D01*
X105883Y825531D01*
X105838Y825524D01*
X105792Y825526D01*
X105717Y825504D01*
X105640Y825492D01*
X105599Y825470D01*
X105555Y825457D01*
X105491Y825413D01*
X105423Y825376D01*
X105391Y825343D01*
X105353Y825317D01*
X105307Y825254D01*
X105253Y825198D01*
X105234Y825156D01*
X105207Y825120D01*
X105182Y825046D01*
X105150Y824975D01*
X105145Y824929D01*
X105130Y824886D01*
X105131Y824808D01*
X105123Y824731D01*
X105132Y824686D01*
X105133Y824640D01*
X105171Y824508D01*
X105175Y824490D01*
X105177Y824486D01*
X105179Y824479D01*
X107300Y819360D01*
X107300Y812040D01*
X104499Y805277D01*
X99323Y800101D01*
X92560Y797300D01*
X85240Y797300D01*
G37*
%LPD*%
%LPC*%
G36*
X216029Y684839D02*
X216029Y684839D01*
X208358Y686895D01*
X201481Y690865D01*
X195865Y696481D01*
X191895Y703358D01*
X189839Y711029D01*
X189839Y718971D01*
X191895Y726642D01*
X195865Y733519D01*
X201481Y739135D01*
X208358Y743105D01*
X216029Y745161D01*
X223971Y745161D01*
X231642Y743105D01*
X238519Y739135D01*
X244135Y733519D01*
X248105Y726642D01*
X250161Y718971D01*
X250161Y711029D01*
X248105Y703358D01*
X244135Y696481D01*
X238519Y690865D01*
X231642Y686895D01*
X223971Y684839D01*
X216029Y684839D01*
G37*
%LPD*%
%LPC*%
G36*
X816449Y1430329D02*
X816449Y1430329D01*
X808778Y1432385D01*
X801901Y1436355D01*
X796285Y1441971D01*
X792315Y1448848D01*
X790259Y1456519D01*
X790259Y1464461D01*
X792315Y1472132D01*
X796285Y1479009D01*
X801901Y1484625D01*
X808778Y1488595D01*
X816449Y1490651D01*
X824391Y1490651D01*
X832062Y1488595D01*
X838939Y1484625D01*
X844555Y1479009D01*
X848525Y1472132D01*
X850581Y1464461D01*
X850581Y1456519D01*
X848525Y1448848D01*
X844555Y1441971D01*
X838939Y1436355D01*
X832062Y1432385D01*
X824391Y1430329D01*
X816449Y1430329D01*
G37*
%LPD*%
%LPC*%
G36*
X816449Y1304599D02*
X816449Y1304599D01*
X808778Y1306655D01*
X801901Y1310625D01*
X796285Y1316241D01*
X792315Y1323118D01*
X790259Y1330789D01*
X790259Y1338731D01*
X792315Y1346402D01*
X796285Y1353279D01*
X801901Y1358895D01*
X808778Y1362865D01*
X816449Y1364921D01*
X824391Y1364921D01*
X832062Y1362865D01*
X838939Y1358895D01*
X844555Y1353279D01*
X848525Y1346402D01*
X850581Y1338731D01*
X850581Y1330789D01*
X848525Y1323118D01*
X844555Y1316241D01*
X838939Y1310625D01*
X832062Y1306655D01*
X824391Y1304599D01*
X816449Y1304599D01*
G37*
%LPD*%
%LPC*%
G36*
X1266029Y684839D02*
X1266029Y684839D01*
X1258358Y686895D01*
X1251481Y690865D01*
X1245865Y696481D01*
X1241895Y703358D01*
X1239839Y711029D01*
X1239839Y718971D01*
X1241895Y726642D01*
X1245865Y733519D01*
X1251481Y739135D01*
X1258358Y743105D01*
X1266029Y745161D01*
X1273971Y745161D01*
X1281642Y743105D01*
X1288519Y739135D01*
X1294135Y733519D01*
X1298105Y726642D01*
X1300161Y718971D01*
X1300161Y711029D01*
X1298105Y703358D01*
X1294135Y696481D01*
X1288519Y690865D01*
X1281642Y686895D01*
X1273971Y684839D01*
X1266029Y684839D01*
G37*
%LPD*%
%LPC*%
G36*
X812639Y1171249D02*
X812639Y1171249D01*
X804968Y1173305D01*
X798091Y1177275D01*
X792475Y1182891D01*
X788505Y1189768D01*
X786449Y1197439D01*
X786449Y1205381D01*
X788505Y1213052D01*
X792475Y1219929D01*
X798091Y1225545D01*
X804968Y1229515D01*
X812639Y1231571D01*
X820581Y1231571D01*
X828252Y1229515D01*
X835129Y1225545D01*
X840745Y1219929D01*
X844715Y1213052D01*
X846771Y1205381D01*
X846771Y1197439D01*
X844715Y1189768D01*
X840745Y1182891D01*
X835129Y1177275D01*
X828252Y1173305D01*
X820581Y1171249D01*
X812639Y1171249D01*
G37*
%LPD*%
%LPC*%
G36*
X808019Y1658619D02*
X808019Y1658619D01*
X801235Y1660437D01*
X795154Y1663948D01*
X790188Y1668914D01*
X786677Y1674995D01*
X784859Y1681779D01*
X784859Y1688801D01*
X786677Y1695585D01*
X790188Y1701666D01*
X795154Y1706632D01*
X801235Y1710143D01*
X808019Y1711961D01*
X815041Y1711961D01*
X821825Y1710143D01*
X827906Y1706632D01*
X832872Y1701666D01*
X836383Y1695585D01*
X838201Y1688801D01*
X838201Y1681779D01*
X836383Y1674995D01*
X832872Y1668914D01*
X827906Y1663948D01*
X821825Y1660437D01*
X815041Y1658619D01*
X808019Y1658619D01*
G37*
%LPD*%
%LPC*%
G36*
X213659Y1789429D02*
X213659Y1789429D01*
X206875Y1791247D01*
X200794Y1794758D01*
X195828Y1799724D01*
X192317Y1805805D01*
X190499Y1812589D01*
X190499Y1819611D01*
X192317Y1826395D01*
X195828Y1832476D01*
X200794Y1837442D01*
X206875Y1840953D01*
X213659Y1842771D01*
X220681Y1842771D01*
X227465Y1840953D01*
X233546Y1837442D01*
X238512Y1832476D01*
X242023Y1826395D01*
X243841Y1819611D01*
X243841Y1812589D01*
X242023Y1805805D01*
X238512Y1799724D01*
X233546Y1794758D01*
X227465Y1791247D01*
X220681Y1789429D01*
X213659Y1789429D01*
G37*
%LPD*%
%LPC*%
G36*
X87255Y1139889D02*
X87255Y1139889D01*
X80792Y1141621D01*
X74997Y1144966D01*
X70266Y1149697D01*
X66921Y1155492D01*
X65189Y1161955D01*
X65189Y1168645D01*
X66921Y1175108D01*
X70266Y1180903D01*
X74997Y1185634D01*
X80792Y1188979D01*
X87255Y1190711D01*
X93945Y1190711D01*
X100408Y1188979D01*
X106203Y1185634D01*
X110934Y1180903D01*
X114279Y1175108D01*
X116011Y1168645D01*
X116011Y1161955D01*
X114279Y1155492D01*
X110934Y1149697D01*
X106203Y1144966D01*
X100408Y1141621D01*
X93945Y1139889D01*
X87255Y1139889D01*
G37*
%LPD*%
%LPC*%
G36*
X74555Y911289D02*
X74555Y911289D01*
X68092Y913021D01*
X62297Y916366D01*
X57566Y921097D01*
X54221Y926892D01*
X52489Y933355D01*
X52489Y940045D01*
X54221Y946508D01*
X57566Y952303D01*
X62297Y957034D01*
X68092Y960379D01*
X74555Y962111D01*
X81245Y962111D01*
X87708Y960379D01*
X93503Y957034D01*
X98234Y952303D01*
X101579Y946508D01*
X103311Y940045D01*
X103311Y933355D01*
X101579Y926892D01*
X98234Y921097D01*
X93503Y916366D01*
X87708Y913021D01*
X81245Y911289D01*
X74555Y911289D01*
G37*
%LPD*%
%LPC*%
G36*
X87255Y1368489D02*
X87255Y1368489D01*
X80792Y1370221D01*
X74997Y1373566D01*
X70266Y1378297D01*
X66921Y1384092D01*
X65189Y1390555D01*
X65189Y1397245D01*
X66921Y1403708D01*
X70266Y1409503D01*
X74997Y1414234D01*
X80792Y1417579D01*
X87255Y1419311D01*
X93945Y1419311D01*
X100408Y1417579D01*
X106203Y1414234D01*
X110934Y1409503D01*
X114279Y1403708D01*
X116011Y1397245D01*
X116011Y1390555D01*
X114279Y1384092D01*
X110934Y1378297D01*
X106203Y1373566D01*
X100408Y1370221D01*
X93945Y1368489D01*
X87255Y1368489D01*
G37*
%LPD*%
%LPC*%
G36*
X1141635Y1764859D02*
X1141635Y1764859D01*
X1135172Y1766591D01*
X1129377Y1769936D01*
X1124646Y1774667D01*
X1121301Y1780462D01*
X1119569Y1786925D01*
X1119569Y1793615D01*
X1121301Y1800078D01*
X1124646Y1805873D01*
X1129377Y1810604D01*
X1135172Y1813949D01*
X1141635Y1815681D01*
X1148325Y1815681D01*
X1154788Y1813949D01*
X1160583Y1810604D01*
X1165314Y1805873D01*
X1168659Y1800078D01*
X1170391Y1793615D01*
X1170391Y1786925D01*
X1168659Y1780462D01*
X1165314Y1774667D01*
X1160583Y1769936D01*
X1154788Y1766591D01*
X1148325Y1764859D01*
X1141635Y1764859D01*
G37*
%LPD*%
%LPC*%
G36*
X491395Y1773749D02*
X491395Y1773749D01*
X484932Y1775481D01*
X479137Y1778826D01*
X474406Y1783557D01*
X471061Y1789352D01*
X469329Y1795815D01*
X469329Y1802505D01*
X471061Y1808968D01*
X474406Y1814763D01*
X479137Y1819494D01*
X484932Y1822839D01*
X491395Y1824571D01*
X498085Y1824571D01*
X504548Y1822839D01*
X510343Y1819494D01*
X515074Y1814763D01*
X518419Y1808968D01*
X520151Y1802505D01*
X520151Y1795815D01*
X518419Y1789352D01*
X515074Y1783557D01*
X510343Y1778826D01*
X504548Y1775481D01*
X498085Y1773749D01*
X491395Y1773749D01*
G37*
%LPD*%
%LPC*%
G36*
X1217835Y837759D02*
X1217835Y837759D01*
X1211372Y839491D01*
X1205577Y842836D01*
X1200846Y847567D01*
X1197501Y853362D01*
X1195769Y859825D01*
X1195769Y866515D01*
X1197501Y872978D01*
X1200846Y878773D01*
X1205577Y883504D01*
X1211372Y886849D01*
X1217835Y888581D01*
X1224525Y888581D01*
X1230988Y886849D01*
X1236783Y883504D01*
X1241514Y878773D01*
X1244859Y872978D01*
X1246591Y866515D01*
X1246591Y859825D01*
X1244859Y853362D01*
X1241514Y847567D01*
X1236783Y842836D01*
X1230988Y839491D01*
X1224525Y837759D01*
X1217835Y837759D01*
G37*
%LPD*%
%LPC*%
G36*
X87255Y1597089D02*
X87255Y1597089D01*
X80792Y1598821D01*
X74997Y1602166D01*
X70266Y1606897D01*
X66921Y1612692D01*
X65189Y1619155D01*
X65189Y1625845D01*
X66921Y1632308D01*
X70266Y1638103D01*
X74997Y1642834D01*
X80792Y1646179D01*
X87255Y1647911D01*
X93945Y1647911D01*
X100408Y1646179D01*
X106203Y1642834D01*
X110934Y1638103D01*
X114279Y1632308D01*
X116011Y1625845D01*
X116011Y1619155D01*
X114279Y1612692D01*
X110934Y1606897D01*
X106203Y1602166D01*
X100408Y1598821D01*
X93945Y1597089D01*
X87255Y1597089D01*
G37*
%LPD*%
%LPC*%
G36*
X913035Y799659D02*
X913035Y799659D01*
X906572Y801391D01*
X900777Y804736D01*
X896046Y809467D01*
X892701Y815262D01*
X890969Y821725D01*
X890969Y828415D01*
X892701Y834878D01*
X896046Y840673D01*
X900777Y845404D01*
X906572Y848749D01*
X913035Y850481D01*
X919725Y850481D01*
X926188Y848749D01*
X931983Y845404D01*
X936714Y840673D01*
X940059Y834878D01*
X941791Y828415D01*
X941791Y821725D01*
X940059Y815262D01*
X936714Y809467D01*
X931983Y804736D01*
X926188Y801391D01*
X919725Y799659D01*
X913035Y799659D01*
G37*
%LPD*%
%LPC*%
G36*
X1459135Y837759D02*
X1459135Y837759D01*
X1452672Y839491D01*
X1446877Y842836D01*
X1442146Y847567D01*
X1438801Y853362D01*
X1437069Y859825D01*
X1437069Y866515D01*
X1438801Y872978D01*
X1442146Y878773D01*
X1446877Y883504D01*
X1452672Y886849D01*
X1459135Y888581D01*
X1465825Y888581D01*
X1472288Y886849D01*
X1478083Y883504D01*
X1482814Y878773D01*
X1486159Y872978D01*
X1487891Y866515D01*
X1487891Y859825D01*
X1486159Y853362D01*
X1482814Y847567D01*
X1478083Y842836D01*
X1472288Y839491D01*
X1465825Y837759D01*
X1459135Y837759D01*
G37*
%LPD*%
%LPC*%
G36*
X712375Y1772479D02*
X712375Y1772479D01*
X705912Y1774211D01*
X700117Y1777556D01*
X695386Y1782287D01*
X692041Y1788082D01*
X690309Y1794545D01*
X690309Y1801235D01*
X692041Y1807698D01*
X695386Y1813493D01*
X700117Y1818224D01*
X705912Y1821569D01*
X712375Y1823301D01*
X719065Y1823301D01*
X725528Y1821569D01*
X731323Y1818224D01*
X736054Y1813493D01*
X739399Y1807698D01*
X741131Y1801235D01*
X741131Y1794545D01*
X739399Y1788082D01*
X736054Y1782287D01*
X731323Y1777556D01*
X725528Y1774211D01*
X719065Y1772479D01*
X712375Y1772479D01*
G37*
%LPD*%
%LPC*%
G36*
X87255Y1812989D02*
X87255Y1812989D01*
X80792Y1814721D01*
X74997Y1818066D01*
X70266Y1822797D01*
X66921Y1828592D01*
X65189Y1835055D01*
X65189Y1841745D01*
X66921Y1848208D01*
X70266Y1854003D01*
X74997Y1858734D01*
X80792Y1862079D01*
X87255Y1863811D01*
X93945Y1863811D01*
X100408Y1862079D01*
X106203Y1858734D01*
X110934Y1854003D01*
X114279Y1848208D01*
X116011Y1841745D01*
X116011Y1835055D01*
X114279Y1828592D01*
X110934Y1822797D01*
X106203Y1818066D01*
X100408Y1814721D01*
X93945Y1812989D01*
X87255Y1812989D01*
G37*
%LPD*%
%LPC*%
G36*
X415947Y1571650D02*
X415947Y1571650D01*
X410122Y1574063D01*
X405663Y1578522D01*
X403250Y1584347D01*
X403250Y1590653D01*
X405663Y1596478D01*
X410122Y1600937D01*
X415947Y1603350D01*
X422253Y1603350D01*
X428078Y1600937D01*
X432537Y1596478D01*
X434391Y1592003D01*
X434452Y1591903D01*
X434512Y1591803D01*
X434517Y1591799D01*
X434520Y1591794D01*
X434610Y1591719D01*
X434699Y1591643D01*
X434705Y1591641D01*
X434710Y1591637D01*
X434818Y1591595D01*
X434927Y1591551D01*
X434935Y1591550D01*
X434939Y1591549D01*
X434958Y1591548D01*
X435094Y1591533D01*
X445346Y1591533D01*
X445461Y1591552D01*
X445577Y1591569D01*
X445583Y1591571D01*
X445589Y1591572D01*
X445692Y1591627D01*
X445796Y1591680D01*
X445801Y1591685D01*
X445806Y1591688D01*
X445886Y1591772D01*
X445969Y1591856D01*
X445972Y1591862D01*
X445976Y1591866D01*
X445984Y1591883D01*
X446050Y1592003D01*
X447006Y1594311D01*
X450389Y1597694D01*
X454808Y1599525D01*
X459592Y1599525D01*
X464011Y1597694D01*
X467394Y1594311D01*
X469225Y1589892D01*
X469225Y1585108D01*
X467394Y1580689D01*
X464011Y1577306D01*
X459592Y1575475D01*
X454808Y1575475D01*
X450389Y1577306D01*
X447006Y1580689D01*
X445629Y1584013D01*
X445567Y1584113D01*
X445507Y1584213D01*
X445502Y1584217D01*
X445499Y1584222D01*
X445410Y1584297D01*
X445320Y1584373D01*
X445314Y1584375D01*
X445310Y1584379D01*
X445202Y1584421D01*
X445092Y1584465D01*
X445085Y1584466D01*
X445080Y1584467D01*
X445062Y1584468D01*
X444925Y1584483D01*
X435515Y1584483D01*
X435400Y1584464D01*
X435284Y1584447D01*
X435278Y1584445D01*
X435272Y1584444D01*
X435169Y1584389D01*
X435065Y1584336D01*
X435060Y1584331D01*
X435055Y1584328D01*
X434975Y1584244D01*
X434892Y1584160D01*
X434889Y1584154D01*
X434885Y1584150D01*
X434877Y1584133D01*
X434811Y1584013D01*
X432537Y1578522D01*
X428078Y1574063D01*
X422253Y1571650D01*
X415947Y1571650D01*
G37*
%LPD*%
%LPC*%
G36*
X1404820Y833770D02*
X1404820Y833770D01*
X1398057Y836571D01*
X1392881Y841747D01*
X1390080Y848510D01*
X1390080Y855830D01*
X1392881Y862593D01*
X1398057Y867769D01*
X1404820Y870570D01*
X1412140Y870570D01*
X1418903Y867769D01*
X1424079Y862593D01*
X1426880Y855830D01*
X1426880Y848510D01*
X1424079Y841747D01*
X1418903Y836571D01*
X1412140Y833770D01*
X1404820Y833770D01*
G37*
%LPD*%
%LPC*%
G36*
X1337820Y833770D02*
X1337820Y833770D01*
X1331057Y836571D01*
X1325881Y841747D01*
X1323080Y848510D01*
X1323080Y855830D01*
X1325881Y862593D01*
X1331057Y867769D01*
X1337820Y870570D01*
X1345140Y870570D01*
X1351903Y867769D01*
X1357079Y862593D01*
X1359880Y855830D01*
X1359880Y848510D01*
X1357079Y841747D01*
X1351903Y836571D01*
X1345140Y833770D01*
X1337820Y833770D01*
G37*
%LPD*%
%LPC*%
G36*
X1096520Y833770D02*
X1096520Y833770D01*
X1089757Y836571D01*
X1084581Y841747D01*
X1081780Y848510D01*
X1081780Y855830D01*
X1084581Y862593D01*
X1089757Y867769D01*
X1096520Y870570D01*
X1103840Y870570D01*
X1110603Y867769D01*
X1115779Y862593D01*
X1118580Y855830D01*
X1118580Y848510D01*
X1115779Y841747D01*
X1110603Y836571D01*
X1103840Y833770D01*
X1096520Y833770D01*
G37*
%LPD*%
%LPC*%
G36*
X189799Y1622551D02*
X189799Y1622551D01*
X186158Y1624059D01*
X183371Y1626846D01*
X181863Y1630487D01*
X181863Y1651193D01*
X183371Y1654834D01*
X186158Y1657621D01*
X189799Y1659129D01*
X193741Y1659129D01*
X197382Y1657621D01*
X200169Y1654834D01*
X201677Y1651193D01*
X201677Y1630487D01*
X200169Y1626846D01*
X197382Y1624059D01*
X193741Y1622551D01*
X189799Y1622551D01*
G37*
%LPD*%
%LPC*%
G36*
X240599Y1622551D02*
X240599Y1622551D01*
X236958Y1624059D01*
X234171Y1626846D01*
X232663Y1630487D01*
X232663Y1651193D01*
X234171Y1654834D01*
X236958Y1657621D01*
X240599Y1659129D01*
X244541Y1659129D01*
X248182Y1657621D01*
X250969Y1654834D01*
X252477Y1651193D01*
X252477Y1630487D01*
X250969Y1626846D01*
X248182Y1624059D01*
X244541Y1622551D01*
X240599Y1622551D01*
G37*
%LPD*%
%LPC*%
G36*
X492908Y1575475D02*
X492908Y1575475D01*
X488489Y1577306D01*
X485106Y1580689D01*
X483275Y1585108D01*
X483275Y1589892D01*
X485106Y1594311D01*
X488489Y1597694D01*
X492908Y1599525D01*
X497692Y1599525D01*
X502111Y1597694D01*
X505494Y1594311D01*
X507325Y1589892D01*
X507325Y1585108D01*
X505494Y1580689D01*
X502111Y1577306D01*
X497692Y1575475D01*
X492908Y1575475D01*
G37*
%LPD*%
%LPC*%
G36*
X1234588Y1068745D02*
X1234588Y1068745D01*
X1230169Y1070576D01*
X1226786Y1073959D01*
X1224955Y1078378D01*
X1224955Y1083162D01*
X1226786Y1087581D01*
X1230169Y1090964D01*
X1234588Y1092795D01*
X1239372Y1092795D01*
X1243791Y1090964D01*
X1247174Y1087581D01*
X1249005Y1083162D01*
X1249005Y1078378D01*
X1247174Y1073959D01*
X1243791Y1070576D01*
X1239372Y1068745D01*
X1234588Y1068745D01*
G37*
%LPD*%
%LPC*%
G36*
X1158388Y1576745D02*
X1158388Y1576745D01*
X1153969Y1578576D01*
X1150586Y1581959D01*
X1148755Y1586378D01*
X1148755Y1591162D01*
X1150586Y1595581D01*
X1153969Y1598964D01*
X1158388Y1600795D01*
X1163172Y1600795D01*
X1167591Y1598964D01*
X1170974Y1595581D01*
X1172805Y1591162D01*
X1172805Y1586378D01*
X1170974Y1581959D01*
X1167591Y1578576D01*
X1163172Y1576745D01*
X1158388Y1576745D01*
G37*
%LPD*%
%LPC*%
G36*
X1313337Y1818795D02*
X1313337Y1818795D01*
X1309193Y1820512D01*
X1306022Y1823683D01*
X1304305Y1827827D01*
X1304305Y1832313D01*
X1306022Y1836457D01*
X1309193Y1839628D01*
X1313337Y1841345D01*
X1317823Y1841345D01*
X1321967Y1839628D01*
X1325138Y1836457D01*
X1326855Y1832313D01*
X1326855Y1827827D01*
X1325138Y1823683D01*
X1321967Y1820512D01*
X1317823Y1818795D01*
X1313337Y1818795D01*
G37*
%LPD*%
%LPC*%
G36*
X1213337Y1818795D02*
X1213337Y1818795D01*
X1209193Y1820512D01*
X1206022Y1823683D01*
X1204305Y1827827D01*
X1204305Y1832313D01*
X1206022Y1836457D01*
X1209193Y1839628D01*
X1213337Y1841345D01*
X1217823Y1841345D01*
X1221967Y1839628D01*
X1225138Y1836457D01*
X1226855Y1832313D01*
X1226855Y1827827D01*
X1225138Y1823683D01*
X1221967Y1820512D01*
X1217823Y1818795D01*
X1213337Y1818795D01*
G37*
%LPD*%
%LPC*%
G36*
X1463337Y1743795D02*
X1463337Y1743795D01*
X1459193Y1745512D01*
X1456022Y1748683D01*
X1454305Y1752827D01*
X1454305Y1757313D01*
X1456022Y1761457D01*
X1459193Y1764628D01*
X1463337Y1766345D01*
X1467823Y1766345D01*
X1471967Y1764628D01*
X1475138Y1761457D01*
X1476855Y1757313D01*
X1476855Y1752827D01*
X1475138Y1748683D01*
X1471967Y1745512D01*
X1467823Y1743795D01*
X1463337Y1743795D01*
G37*
%LPD*%
%LPC*%
G36*
X1263337Y1743795D02*
X1263337Y1743795D01*
X1259193Y1745512D01*
X1256022Y1748683D01*
X1254305Y1752827D01*
X1254305Y1757313D01*
X1256022Y1761457D01*
X1259193Y1764628D01*
X1263337Y1766345D01*
X1267823Y1766345D01*
X1271967Y1764628D01*
X1275138Y1761457D01*
X1276855Y1757313D01*
X1276855Y1752827D01*
X1275138Y1748683D01*
X1271967Y1745512D01*
X1267823Y1743795D01*
X1263337Y1743795D01*
G37*
%LPD*%
%LPC*%
G36*
X1213337Y1743795D02*
X1213337Y1743795D01*
X1209193Y1745512D01*
X1206022Y1748683D01*
X1204305Y1752827D01*
X1204305Y1757313D01*
X1206022Y1761457D01*
X1209193Y1764628D01*
X1213337Y1766345D01*
X1217823Y1766345D01*
X1221967Y1764628D01*
X1225138Y1761457D01*
X1226855Y1757313D01*
X1226855Y1752827D01*
X1225138Y1748683D01*
X1221967Y1745512D01*
X1217823Y1743795D01*
X1213337Y1743795D01*
G37*
%LPD*%
%LPC*%
G36*
X1263337Y1818795D02*
X1263337Y1818795D01*
X1259193Y1820512D01*
X1256022Y1823683D01*
X1254305Y1827827D01*
X1254305Y1832313D01*
X1256022Y1836457D01*
X1259193Y1839628D01*
X1263337Y1841345D01*
X1267823Y1841345D01*
X1271967Y1839628D01*
X1275138Y1836457D01*
X1276855Y1832313D01*
X1276855Y1827827D01*
X1275138Y1823683D01*
X1271967Y1820512D01*
X1267823Y1818795D01*
X1263337Y1818795D01*
G37*
%LPD*%
%LPC*%
G36*
X863903Y815593D02*
X863903Y815593D01*
X863903Y833453D01*
X866176Y833154D01*
X868634Y832495D01*
X870986Y831521D01*
X873190Y830248D01*
X875209Y828699D01*
X877009Y826899D01*
X878558Y824880D01*
X879831Y822676D01*
X880805Y820324D01*
X881464Y817866D01*
X881763Y815593D01*
X863903Y815593D01*
G37*
%LPD*%
%LPC*%
G36*
X1168703Y853693D02*
X1168703Y853693D01*
X1168703Y871553D01*
X1170976Y871254D01*
X1173434Y870595D01*
X1175786Y869621D01*
X1177990Y868348D01*
X1180009Y866799D01*
X1181809Y864999D01*
X1183358Y862980D01*
X1184631Y860776D01*
X1185605Y858424D01*
X1186264Y855966D01*
X1186563Y853693D01*
X1168703Y853693D01*
G37*
%LPD*%
%LPC*%
G36*
X1092503Y1780793D02*
X1092503Y1780793D01*
X1092503Y1798653D01*
X1094776Y1798354D01*
X1097234Y1797695D01*
X1099586Y1796721D01*
X1101790Y1795448D01*
X1103809Y1793899D01*
X1105609Y1792099D01*
X1107158Y1790080D01*
X1108431Y1787876D01*
X1109405Y1785524D01*
X1110064Y1783066D01*
X1110363Y1780793D01*
X1092503Y1780793D01*
G37*
%LPD*%
%LPC*%
G36*
X663243Y1788413D02*
X663243Y1788413D01*
X663243Y1806273D01*
X665516Y1805974D01*
X667974Y1805315D01*
X670326Y1804341D01*
X672530Y1803068D01*
X674549Y1801519D01*
X676349Y1799719D01*
X677898Y1797700D01*
X679171Y1795496D01*
X680145Y1793144D01*
X680804Y1790686D01*
X681103Y1788413D01*
X663243Y1788413D01*
G37*
%LPD*%
%LPC*%
G36*
X103123Y1341423D02*
X103123Y1341423D01*
X103123Y1359283D01*
X105396Y1358984D01*
X107854Y1358325D01*
X110206Y1357351D01*
X112410Y1356078D01*
X114429Y1354529D01*
X116229Y1352729D01*
X117778Y1350710D01*
X119051Y1348506D01*
X120025Y1346154D01*
X120684Y1343696D01*
X120983Y1341423D01*
X103123Y1341423D01*
G37*
%LPD*%
%LPC*%
G36*
X103123Y1112823D02*
X103123Y1112823D01*
X103123Y1130683D01*
X105396Y1130384D01*
X107854Y1129725D01*
X110206Y1128751D01*
X112410Y1127478D01*
X114429Y1125929D01*
X116229Y1124129D01*
X117778Y1122110D01*
X119051Y1119906D01*
X120025Y1117554D01*
X120684Y1115096D01*
X120983Y1112823D01*
X103123Y1112823D01*
G37*
%LPD*%
%LPC*%
G36*
X103123Y1785923D02*
X103123Y1785923D01*
X103123Y1803783D01*
X105396Y1803484D01*
X107854Y1802825D01*
X110206Y1801851D01*
X112410Y1800578D01*
X114429Y1799029D01*
X116229Y1797229D01*
X117778Y1795210D01*
X119051Y1793006D01*
X120025Y1790654D01*
X120684Y1788196D01*
X120983Y1785923D01*
X103123Y1785923D01*
G37*
%LPD*%
%LPC*%
G36*
X103123Y1570023D02*
X103123Y1570023D01*
X103123Y1587883D01*
X105396Y1587584D01*
X107854Y1586925D01*
X110206Y1585951D01*
X112410Y1584678D01*
X114429Y1583129D01*
X116229Y1581329D01*
X117778Y1579310D01*
X119051Y1577106D01*
X120025Y1574754D01*
X120684Y1572296D01*
X120983Y1570023D01*
X103123Y1570023D01*
G37*
%LPD*%
%LPC*%
G36*
X442263Y1789683D02*
X442263Y1789683D01*
X442263Y1807543D01*
X444536Y1807244D01*
X446994Y1806585D01*
X449346Y1805611D01*
X451550Y1804338D01*
X453569Y1802789D01*
X455369Y1800989D01*
X456918Y1798970D01*
X458191Y1796766D01*
X459165Y1794414D01*
X459824Y1791956D01*
X460123Y1789683D01*
X442263Y1789683D01*
G37*
%LPD*%
%LPC*%
G36*
X90423Y884223D02*
X90423Y884223D01*
X90423Y902083D01*
X92696Y901784D01*
X95154Y901125D01*
X97506Y900151D01*
X99710Y898878D01*
X101729Y897329D01*
X103529Y895529D01*
X105078Y893510D01*
X106351Y891306D01*
X107325Y888954D01*
X107984Y886496D01*
X108283Y884223D01*
X90423Y884223D01*
G37*
%LPD*%
%LPC*%
G36*
X82217Y1112823D02*
X82217Y1112823D01*
X82516Y1115096D01*
X83175Y1117554D01*
X84149Y1119906D01*
X85422Y1122110D01*
X86971Y1124129D01*
X88771Y1125929D01*
X90790Y1127478D01*
X92994Y1128751D01*
X95346Y1129725D01*
X97804Y1130384D01*
X100077Y1130683D01*
X100077Y1112823D01*
X82217Y1112823D01*
G37*
%LPD*%
%LPC*%
G36*
X663243Y1785367D02*
X663243Y1785367D01*
X681103Y1785367D01*
X680804Y1783094D01*
X680145Y1780636D01*
X679171Y1778284D01*
X677898Y1776080D01*
X676349Y1774061D01*
X674549Y1772261D01*
X672530Y1770712D01*
X670326Y1769439D01*
X667974Y1768465D01*
X665516Y1767806D01*
X663243Y1767507D01*
X663243Y1785367D01*
G37*
%LPD*%
%LPC*%
G36*
X863903Y812547D02*
X863903Y812547D01*
X881763Y812547D01*
X881464Y810274D01*
X880805Y807816D01*
X879831Y805464D01*
X878558Y803260D01*
X877009Y801241D01*
X875209Y799441D01*
X873190Y797892D01*
X870986Y796619D01*
X868634Y795645D01*
X866176Y794986D01*
X863903Y794687D01*
X863903Y812547D01*
G37*
%LPD*%
%LPC*%
G36*
X1092503Y1777747D02*
X1092503Y1777747D01*
X1110363Y1777747D01*
X1110064Y1775474D01*
X1109405Y1773016D01*
X1108431Y1770664D01*
X1107158Y1768460D01*
X1105609Y1766441D01*
X1103809Y1764641D01*
X1101790Y1763092D01*
X1099586Y1761819D01*
X1097234Y1760845D01*
X1094776Y1760186D01*
X1092503Y1759887D01*
X1092503Y1777747D01*
G37*
%LPD*%
%LPC*%
G36*
X69517Y884223D02*
X69517Y884223D01*
X69816Y886496D01*
X70475Y888954D01*
X71449Y891306D01*
X72722Y893510D01*
X74271Y895529D01*
X76071Y897329D01*
X78090Y898878D01*
X80294Y900151D01*
X82646Y901125D01*
X85104Y901784D01*
X87377Y902083D01*
X87377Y884223D01*
X69517Y884223D01*
G37*
%LPD*%
%LPC*%
G36*
X103123Y1566977D02*
X103123Y1566977D01*
X120983Y1566977D01*
X120684Y1564704D01*
X120025Y1562246D01*
X119051Y1559894D01*
X117778Y1557690D01*
X116229Y1555671D01*
X114429Y1553871D01*
X112410Y1552322D01*
X110206Y1551049D01*
X107854Y1550075D01*
X105396Y1549416D01*
X103123Y1549117D01*
X103123Y1566977D01*
G37*
%LPD*%
%LPC*%
G36*
X1147797Y853693D02*
X1147797Y853693D01*
X1148096Y855966D01*
X1148755Y858424D01*
X1149729Y860776D01*
X1151002Y862980D01*
X1152551Y864999D01*
X1154351Y866799D01*
X1156370Y868348D01*
X1158574Y869621D01*
X1160926Y870595D01*
X1163384Y871254D01*
X1165657Y871553D01*
X1165657Y853693D01*
X1147797Y853693D01*
G37*
%LPD*%
%LPC*%
G36*
X1168703Y850647D02*
X1168703Y850647D01*
X1186563Y850647D01*
X1186264Y848374D01*
X1185605Y845916D01*
X1184631Y843564D01*
X1183358Y841360D01*
X1181809Y839341D01*
X1180009Y837541D01*
X1177990Y835992D01*
X1175786Y834719D01*
X1173434Y833745D01*
X1170976Y833086D01*
X1168703Y832787D01*
X1168703Y850647D01*
G37*
%LPD*%
%LPC*%
G36*
X442263Y1786637D02*
X442263Y1786637D01*
X460123Y1786637D01*
X459824Y1784364D01*
X459165Y1781906D01*
X458191Y1779554D01*
X456918Y1777350D01*
X455369Y1775331D01*
X453569Y1773531D01*
X451550Y1771982D01*
X449346Y1770709D01*
X446994Y1769735D01*
X444536Y1769076D01*
X442263Y1768777D01*
X442263Y1786637D01*
G37*
%LPD*%
%LPC*%
G36*
X90423Y881177D02*
X90423Y881177D01*
X108283Y881177D01*
X107984Y878904D01*
X107325Y876446D01*
X106351Y874094D01*
X105078Y871890D01*
X103529Y869871D01*
X101729Y868071D01*
X99710Y866522D01*
X97506Y865249D01*
X95154Y864275D01*
X92696Y863616D01*
X90423Y863317D01*
X90423Y881177D01*
G37*
%LPD*%
%LPC*%
G36*
X1071597Y1780793D02*
X1071597Y1780793D01*
X1071896Y1783066D01*
X1072555Y1785524D01*
X1073529Y1787876D01*
X1074802Y1790080D01*
X1076351Y1792099D01*
X1078151Y1793899D01*
X1080170Y1795448D01*
X1082374Y1796721D01*
X1084726Y1797695D01*
X1087184Y1798354D01*
X1089457Y1798653D01*
X1089457Y1780793D01*
X1071597Y1780793D01*
G37*
%LPD*%
%LPC*%
G36*
X842997Y815593D02*
X842997Y815593D01*
X843296Y817866D01*
X843955Y820324D01*
X844929Y822676D01*
X846202Y824880D01*
X847751Y826899D01*
X849551Y828699D01*
X851570Y830248D01*
X853774Y831521D01*
X856126Y832495D01*
X858584Y833154D01*
X860857Y833453D01*
X860857Y815593D01*
X842997Y815593D01*
G37*
%LPD*%
%LPC*%
G36*
X103123Y1109777D02*
X103123Y1109777D01*
X120983Y1109777D01*
X120684Y1107504D01*
X120025Y1105046D01*
X119051Y1102694D01*
X117778Y1100490D01*
X116229Y1098471D01*
X114429Y1096671D01*
X112410Y1095122D01*
X110206Y1093849D01*
X107854Y1092875D01*
X105396Y1092216D01*
X103123Y1091917D01*
X103123Y1109777D01*
G37*
%LPD*%
%LPC*%
G36*
X642337Y1788413D02*
X642337Y1788413D01*
X642636Y1790686D01*
X643295Y1793144D01*
X644269Y1795496D01*
X645542Y1797700D01*
X647091Y1799719D01*
X648891Y1801519D01*
X650910Y1803068D01*
X653114Y1804341D01*
X655466Y1805315D01*
X657924Y1805974D01*
X660197Y1806273D01*
X660197Y1788413D01*
X642337Y1788413D01*
G37*
%LPD*%
%LPC*%
G36*
X103123Y1782877D02*
X103123Y1782877D01*
X120983Y1782877D01*
X120684Y1780604D01*
X120025Y1778146D01*
X119051Y1775794D01*
X117778Y1773590D01*
X116229Y1771571D01*
X114429Y1769771D01*
X112410Y1768222D01*
X110206Y1766949D01*
X107854Y1765975D01*
X105396Y1765316D01*
X103123Y1765017D01*
X103123Y1782877D01*
G37*
%LPD*%
%LPC*%
G36*
X82217Y1570023D02*
X82217Y1570023D01*
X82516Y1572296D01*
X83175Y1574754D01*
X84149Y1577106D01*
X85422Y1579310D01*
X86971Y1581329D01*
X88771Y1583129D01*
X90790Y1584678D01*
X92994Y1585951D01*
X95346Y1586925D01*
X97804Y1587584D01*
X100077Y1587883D01*
X100077Y1570023D01*
X82217Y1570023D01*
G37*
%LPD*%
%LPC*%
G36*
X82217Y1785923D02*
X82217Y1785923D01*
X82516Y1788196D01*
X83175Y1790654D01*
X84149Y1793006D01*
X85422Y1795210D01*
X86971Y1797229D01*
X88771Y1799029D01*
X90790Y1800578D01*
X92994Y1801851D01*
X95346Y1802825D01*
X97804Y1803484D01*
X100077Y1803783D01*
X100077Y1785923D01*
X82217Y1785923D01*
G37*
%LPD*%
%LPC*%
G36*
X82217Y1341423D02*
X82217Y1341423D01*
X82516Y1343696D01*
X83175Y1346154D01*
X84149Y1348506D01*
X85422Y1350710D01*
X86971Y1352729D01*
X88771Y1354529D01*
X90790Y1356078D01*
X92994Y1357351D01*
X95346Y1358325D01*
X97804Y1358984D01*
X100077Y1359283D01*
X100077Y1341423D01*
X82217Y1341423D01*
G37*
%LPD*%
%LPC*%
G36*
X103123Y1338377D02*
X103123Y1338377D01*
X120983Y1338377D01*
X120684Y1336104D01*
X120025Y1333646D01*
X119051Y1331294D01*
X117778Y1329090D01*
X116229Y1327071D01*
X114429Y1325271D01*
X112410Y1323722D01*
X110206Y1322449D01*
X107854Y1321475D01*
X105396Y1320816D01*
X103123Y1320517D01*
X103123Y1338377D01*
G37*
%LPD*%
%LPC*%
G36*
X421357Y1789683D02*
X421357Y1789683D01*
X421656Y1791956D01*
X422315Y1794414D01*
X423289Y1796766D01*
X424562Y1798970D01*
X426111Y1800989D01*
X427911Y1802789D01*
X429930Y1804338D01*
X432134Y1805611D01*
X434486Y1806585D01*
X436944Y1807244D01*
X439217Y1807543D01*
X439217Y1789683D01*
X421357Y1789683D01*
G37*
%LPD*%
%LPC*%
G36*
X97804Y1320816D02*
X97804Y1320816D01*
X95346Y1321475D01*
X92994Y1322449D01*
X90790Y1323722D01*
X88771Y1325271D01*
X86971Y1327071D01*
X85422Y1329090D01*
X84149Y1331294D01*
X83175Y1333646D01*
X82516Y1336104D01*
X82217Y1338377D01*
X100077Y1338377D01*
X100077Y1320517D01*
X97804Y1320816D01*
G37*
%LPD*%
%LPC*%
G36*
X858584Y794986D02*
X858584Y794986D01*
X856126Y795645D01*
X853774Y796619D01*
X851570Y797892D01*
X849551Y799441D01*
X847751Y801241D01*
X846202Y803260D01*
X844929Y805464D01*
X843955Y807816D01*
X843296Y810274D01*
X842997Y812547D01*
X860857Y812547D01*
X860857Y794687D01*
X858584Y794986D01*
G37*
%LPD*%
%LPC*%
G36*
X1087184Y1760186D02*
X1087184Y1760186D01*
X1084726Y1760845D01*
X1082374Y1761819D01*
X1080170Y1763092D01*
X1078151Y1764641D01*
X1076351Y1766441D01*
X1074802Y1768460D01*
X1073529Y1770664D01*
X1072555Y1773016D01*
X1071896Y1775474D01*
X1071597Y1777747D01*
X1089457Y1777747D01*
X1089457Y1759887D01*
X1087184Y1760186D01*
G37*
%LPD*%
%LPC*%
G36*
X436944Y1769076D02*
X436944Y1769076D01*
X434486Y1769735D01*
X432134Y1770709D01*
X429930Y1771982D01*
X427911Y1773531D01*
X426111Y1775331D01*
X424562Y1777350D01*
X423289Y1779554D01*
X422315Y1781906D01*
X421656Y1784364D01*
X421357Y1786637D01*
X439217Y1786637D01*
X439217Y1768777D01*
X436944Y1769076D01*
G37*
%LPD*%
%LPC*%
G36*
X97804Y1092216D02*
X97804Y1092216D01*
X95346Y1092875D01*
X92994Y1093849D01*
X90790Y1095122D01*
X88771Y1096671D01*
X86971Y1098471D01*
X85422Y1100490D01*
X84149Y1102694D01*
X83175Y1105046D01*
X82516Y1107504D01*
X82217Y1109777D01*
X100077Y1109777D01*
X100077Y1091917D01*
X97804Y1092216D01*
G37*
%LPD*%
%LPC*%
G36*
X85104Y863616D02*
X85104Y863616D01*
X82646Y864275D01*
X80294Y865249D01*
X78090Y866522D01*
X76071Y868071D01*
X74271Y869871D01*
X72722Y871890D01*
X71449Y874094D01*
X70475Y876446D01*
X69816Y878904D01*
X69517Y881177D01*
X87377Y881177D01*
X87377Y863317D01*
X85104Y863616D01*
G37*
%LPD*%
%LPC*%
G36*
X1163384Y833086D02*
X1163384Y833086D01*
X1160926Y833745D01*
X1158574Y834719D01*
X1156370Y835992D01*
X1154351Y837541D01*
X1152551Y839341D01*
X1151002Y841360D01*
X1149729Y843564D01*
X1148755Y845916D01*
X1148096Y848374D01*
X1147797Y850647D01*
X1165657Y850647D01*
X1165657Y832787D01*
X1163384Y833086D01*
G37*
%LPD*%
%LPC*%
G36*
X97804Y1765316D02*
X97804Y1765316D01*
X95346Y1765975D01*
X92994Y1766949D01*
X90790Y1768222D01*
X88771Y1769771D01*
X86971Y1771571D01*
X85422Y1773590D01*
X84149Y1775794D01*
X83175Y1778146D01*
X82516Y1780604D01*
X82217Y1782877D01*
X100077Y1782877D01*
X100077Y1765017D01*
X97804Y1765316D01*
G37*
%LPD*%
%LPC*%
G36*
X97804Y1549416D02*
X97804Y1549416D01*
X95346Y1550075D01*
X92994Y1551049D01*
X90790Y1552322D01*
X88771Y1553871D01*
X86971Y1555671D01*
X85422Y1557690D01*
X84149Y1559894D01*
X83175Y1562246D01*
X82516Y1564704D01*
X82217Y1566977D01*
X100077Y1566977D01*
X100077Y1549117D01*
X97804Y1549416D01*
G37*
%LPD*%
%LPC*%
G36*
X657924Y1767806D02*
X657924Y1767806D01*
X655466Y1768465D01*
X653114Y1769439D01*
X650910Y1770712D01*
X648891Y1772261D01*
X647091Y1774061D01*
X645542Y1776080D01*
X644269Y1778284D01*
X643295Y1780636D01*
X642636Y1783094D01*
X642337Y1785367D01*
X660197Y1785367D01*
X660197Y1767507D01*
X657924Y1767806D01*
G37*
%LPD*%
%LPC*%
G36*
X1413176Y1466405D02*
X1413176Y1466405D01*
X1410212Y1467633D01*
X1407943Y1469902D01*
X1406715Y1472866D01*
X1406715Y1476074D01*
X1407943Y1479038D01*
X1410212Y1481307D01*
X1413176Y1482535D01*
X1416384Y1482535D01*
X1419348Y1481307D01*
X1421617Y1479038D01*
X1422845Y1476074D01*
X1422845Y1472866D01*
X1421617Y1469902D01*
X1419348Y1467633D01*
X1416384Y1466405D01*
X1413176Y1466405D01*
G37*
%LPD*%
%LPC*%
G36*
X1184576Y945705D02*
X1184576Y945705D01*
X1181612Y946933D01*
X1179343Y949202D01*
X1178115Y952166D01*
X1178115Y955374D01*
X1179343Y958338D01*
X1181612Y960607D01*
X1184576Y961835D01*
X1187784Y961835D01*
X1190748Y960607D01*
X1193017Y958338D01*
X1194245Y955374D01*
X1194245Y952166D01*
X1193017Y949202D01*
X1190748Y946933D01*
X1187784Y945705D01*
X1184576Y945705D01*
G37*
%LPD*%
%LPC*%
G36*
X1238503Y1590293D02*
X1238503Y1590293D01*
X1238503Y1605581D01*
X1240277Y1605347D01*
X1242413Y1604775D01*
X1244456Y1603929D01*
X1246370Y1602823D01*
X1248124Y1601478D01*
X1249688Y1599914D01*
X1251033Y1598160D01*
X1252139Y1596246D01*
X1252985Y1594203D01*
X1253557Y1592067D01*
X1253791Y1590293D01*
X1238503Y1590293D01*
G37*
%LPD*%
%LPC*%
G36*
X573023Y1589023D02*
X573023Y1589023D01*
X573023Y1604311D01*
X574797Y1604077D01*
X576933Y1603505D01*
X578976Y1602659D01*
X580890Y1601553D01*
X582644Y1600208D01*
X584208Y1598644D01*
X585553Y1596890D01*
X586659Y1594976D01*
X587505Y1592933D01*
X588077Y1590797D01*
X588311Y1589023D01*
X573023Y1589023D01*
G37*
%LPD*%
%LPC*%
G36*
X1220169Y1590293D02*
X1220169Y1590293D01*
X1220403Y1592067D01*
X1220975Y1594203D01*
X1221821Y1596246D01*
X1222927Y1598160D01*
X1224272Y1599914D01*
X1225836Y1601478D01*
X1227590Y1602823D01*
X1229504Y1603929D01*
X1231547Y1604775D01*
X1233683Y1605347D01*
X1235457Y1605581D01*
X1235457Y1590293D01*
X1220169Y1590293D01*
G37*
%LPD*%
%LPC*%
G36*
X1238503Y1587247D02*
X1238503Y1587247D01*
X1253791Y1587247D01*
X1253557Y1585473D01*
X1252985Y1583337D01*
X1252139Y1581294D01*
X1251033Y1579380D01*
X1249688Y1577626D01*
X1248124Y1576062D01*
X1246370Y1574717D01*
X1244456Y1573611D01*
X1242413Y1572765D01*
X1240277Y1572193D01*
X1238503Y1571959D01*
X1238503Y1587247D01*
G37*
%LPD*%
%LPC*%
G36*
X573023Y1585977D02*
X573023Y1585977D01*
X588311Y1585977D01*
X588077Y1584203D01*
X587505Y1582067D01*
X586659Y1580024D01*
X585553Y1578110D01*
X584208Y1576356D01*
X582644Y1574792D01*
X580890Y1573447D01*
X578976Y1572341D01*
X576933Y1571495D01*
X574797Y1570923D01*
X573023Y1570689D01*
X573023Y1585977D01*
G37*
%LPD*%
%LPC*%
G36*
X554689Y1589023D02*
X554689Y1589023D01*
X554923Y1590797D01*
X555495Y1592933D01*
X556341Y1594976D01*
X557447Y1596890D01*
X558792Y1598644D01*
X560356Y1600208D01*
X562110Y1601553D01*
X564024Y1602659D01*
X566067Y1603505D01*
X568203Y1604077D01*
X569977Y1604311D01*
X569977Y1589023D01*
X554689Y1589023D01*
G37*
%LPD*%
%LPC*%
G36*
X568203Y1570923D02*
X568203Y1570923D01*
X566067Y1571495D01*
X564024Y1572341D01*
X562110Y1573447D01*
X560356Y1574792D01*
X558792Y1576356D01*
X557447Y1578110D01*
X556341Y1580024D01*
X555495Y1582067D01*
X554923Y1584203D01*
X554689Y1585977D01*
X569977Y1585977D01*
X569977Y1570689D01*
X568203Y1570923D01*
G37*
%LPD*%
%LPC*%
G36*
X1233683Y1572193D02*
X1233683Y1572193D01*
X1231547Y1572765D01*
X1229504Y1573611D01*
X1227590Y1574717D01*
X1225836Y1576062D01*
X1224272Y1577626D01*
X1222927Y1579380D01*
X1221821Y1581294D01*
X1220975Y1583337D01*
X1220403Y1585473D01*
X1220169Y1587247D01*
X1235457Y1587247D01*
X1235457Y1571959D01*
X1233683Y1572193D01*
G37*
%LPD*%
%LPC*%
G36*
X1200403Y1590293D02*
X1200403Y1590293D01*
X1200403Y1601732D01*
X1201934Y1601490D01*
X1203886Y1600855D01*
X1205715Y1599923D01*
X1207376Y1598717D01*
X1208827Y1597266D01*
X1210033Y1595605D01*
X1210965Y1593776D01*
X1211600Y1591824D01*
X1211842Y1590293D01*
X1200403Y1590293D01*
G37*
%LPD*%
%LPC*%
G36*
X534923Y1589023D02*
X534923Y1589023D01*
X534923Y1600462D01*
X536454Y1600220D01*
X538406Y1599585D01*
X540235Y1598653D01*
X541896Y1597447D01*
X543347Y1595996D01*
X544553Y1594335D01*
X545485Y1592506D01*
X546120Y1590554D01*
X546362Y1589023D01*
X534923Y1589023D01*
G37*
%LPD*%
%LPC*%
G36*
X1200403Y1587247D02*
X1200403Y1587247D01*
X1211842Y1587247D01*
X1211600Y1585716D01*
X1210965Y1583764D01*
X1210033Y1581935D01*
X1208827Y1580274D01*
X1207376Y1578823D01*
X1205715Y1577617D01*
X1203886Y1576685D01*
X1201934Y1576050D01*
X1200403Y1575808D01*
X1200403Y1587247D01*
G37*
%LPD*%
%LPC*%
G36*
X520438Y1589023D02*
X520438Y1589023D01*
X520680Y1590554D01*
X521315Y1592506D01*
X522247Y1594335D01*
X523453Y1595996D01*
X524904Y1597447D01*
X526565Y1598653D01*
X528394Y1599585D01*
X530346Y1600220D01*
X531877Y1600462D01*
X531877Y1589023D01*
X520438Y1589023D01*
G37*
%LPD*%
%LPC*%
G36*
X534923Y1585977D02*
X534923Y1585977D01*
X546362Y1585977D01*
X546120Y1584446D01*
X545485Y1582494D01*
X544553Y1580665D01*
X543347Y1579004D01*
X541896Y1577553D01*
X540235Y1576347D01*
X538406Y1575415D01*
X536454Y1574780D01*
X534923Y1574538D01*
X534923Y1585977D01*
G37*
%LPD*%
%LPC*%
G36*
X1185918Y1590293D02*
X1185918Y1590293D01*
X1186160Y1591824D01*
X1186795Y1593776D01*
X1187727Y1595605D01*
X1188933Y1597266D01*
X1190384Y1598717D01*
X1192045Y1599923D01*
X1193874Y1600855D01*
X1195826Y1601490D01*
X1197357Y1601732D01*
X1197357Y1590293D01*
X1185918Y1590293D01*
G37*
%LPD*%
%LPC*%
G36*
X530346Y1574780D02*
X530346Y1574780D01*
X528394Y1575415D01*
X526565Y1576347D01*
X524904Y1577553D01*
X523453Y1579004D01*
X522247Y1580665D01*
X521315Y1582494D01*
X520680Y1584446D01*
X520438Y1585977D01*
X531877Y1585977D01*
X531877Y1574538D01*
X530346Y1574780D01*
G37*
%LPD*%
%LPC*%
G36*
X1195826Y1576050D02*
X1195826Y1576050D01*
X1193874Y1576685D01*
X1192045Y1577617D01*
X1190384Y1578823D01*
X1188933Y1580274D01*
X1187727Y1581935D01*
X1186795Y1583764D01*
X1186160Y1585716D01*
X1185918Y1587247D01*
X1197357Y1587247D01*
X1197357Y1575808D01*
X1195826Y1576050D01*
G37*
%LPD*%
%LPC*%
G36*
X981290Y878359D02*
X981290Y878359D01*
X978181Y881468D01*
X978181Y885864D01*
X981290Y888973D01*
X985686Y888973D01*
X988795Y885864D01*
X988795Y881468D01*
X985686Y878359D01*
X981290Y878359D01*
G37*
%LPD*%
%LPC*%
G36*
X624293Y880363D02*
X624293Y880363D01*
X624293Y890283D01*
X625472Y890097D01*
X627200Y889535D01*
X628819Y888711D01*
X630288Y887643D01*
X631573Y886358D01*
X632641Y884889D01*
X633465Y883270D01*
X634027Y881542D01*
X634213Y880363D01*
X624293Y880363D01*
G37*
%LPD*%
%LPC*%
G36*
X375373Y881127D02*
X375373Y881127D01*
X385293Y881127D01*
X385107Y879948D01*
X384545Y878220D01*
X383721Y876601D01*
X382653Y875132D01*
X381368Y873847D01*
X379899Y872779D01*
X378280Y871955D01*
X376552Y871393D01*
X375373Y871207D01*
X375373Y881127D01*
G37*
%LPD*%
%LPC*%
G36*
X624293Y877317D02*
X624293Y877317D01*
X634213Y877317D01*
X634027Y876138D01*
X633465Y874410D01*
X632641Y872791D01*
X631573Y871322D01*
X630288Y870037D01*
X628819Y868969D01*
X627200Y868145D01*
X625472Y867583D01*
X624293Y867397D01*
X624293Y877317D01*
G37*
%LPD*%
%LPC*%
G36*
X611327Y880363D02*
X611327Y880363D01*
X611513Y881542D01*
X612075Y883270D01*
X612899Y884889D01*
X613967Y886358D01*
X615252Y887643D01*
X616721Y888711D01*
X618340Y889535D01*
X620068Y890097D01*
X621247Y890283D01*
X621247Y880363D01*
X611327Y880363D01*
G37*
%LPD*%
%LPC*%
G36*
X620068Y867583D02*
X620068Y867583D01*
X618340Y868145D01*
X616721Y868969D01*
X615252Y870037D01*
X613967Y871322D01*
X612899Y872791D01*
X612075Y874410D01*
X611513Y876138D01*
X611327Y877317D01*
X621247Y877317D01*
X621247Y867397D01*
X620068Y867583D01*
G37*
%LPD*%
%LPC*%
G36*
X371148Y871393D02*
X371148Y871393D01*
X369420Y871955D01*
X367801Y872779D01*
X366332Y873847D01*
X365047Y875132D01*
X363979Y876601D01*
X363155Y878220D01*
X362593Y879948D01*
X362407Y881127D01*
X372327Y881127D01*
X372327Y871207D01*
X371148Y871393D01*
G37*
%LPD*%
%LPC*%
G36*
X166013Y777493D02*
X166013Y777493D01*
X166013Y786011D01*
X171324Y786011D01*
X171971Y785838D01*
X172550Y785503D01*
X173023Y785030D01*
X173358Y784451D01*
X173531Y783804D01*
X173531Y777493D01*
X166013Y777493D01*
G37*
%LPD*%
%LPC*%
G36*
X166013Y765929D02*
X166013Y765929D01*
X166013Y774447D01*
X173531Y774447D01*
X173531Y768136D01*
X173358Y767489D01*
X173023Y766910D01*
X172550Y766437D01*
X171971Y766102D01*
X171324Y765929D01*
X166013Y765929D01*
G37*
%LPD*%
%LPC*%
G36*
X155449Y777493D02*
X155449Y777493D01*
X155449Y783804D01*
X155622Y784451D01*
X155957Y785030D01*
X156430Y785503D01*
X157009Y785838D01*
X157656Y786011D01*
X162967Y786011D01*
X162967Y777493D01*
X155449Y777493D01*
G37*
%LPD*%
%LPC*%
G36*
X157656Y765929D02*
X157656Y765929D01*
X157009Y766102D01*
X156430Y766437D01*
X155957Y766910D01*
X155622Y767489D01*
X155449Y768136D01*
X155449Y774447D01*
X162967Y774447D01*
X162967Y765929D01*
X157656Y765929D01*
G37*
%LPD*%
%LPC*%
G36*
X1175003Y1679193D02*
X1175003Y1679193D01*
X1175003Y1686626D01*
X1176129Y1686402D01*
X1177781Y1685717D01*
X1179269Y1684723D01*
X1180533Y1683459D01*
X1181527Y1681971D01*
X1182212Y1680319D01*
X1182436Y1679193D01*
X1175003Y1679193D01*
G37*
%LPD*%
%LPC*%
G36*
X1251203Y1679193D02*
X1251203Y1679193D01*
X1251203Y1686626D01*
X1252329Y1686402D01*
X1253981Y1685717D01*
X1255469Y1684723D01*
X1256733Y1683459D01*
X1257727Y1681971D01*
X1258412Y1680319D01*
X1258636Y1679193D01*
X1251203Y1679193D01*
G37*
%LPD*%
%LPC*%
G36*
X1416303Y1310893D02*
X1416303Y1310893D01*
X1416303Y1318326D01*
X1417429Y1318102D01*
X1419081Y1317417D01*
X1420569Y1316423D01*
X1421833Y1315159D01*
X1422827Y1313671D01*
X1423512Y1312019D01*
X1423736Y1310893D01*
X1416303Y1310893D01*
G37*
%LPD*%
%LPC*%
G36*
X1416303Y1577593D02*
X1416303Y1577593D01*
X1416303Y1585026D01*
X1417429Y1584802D01*
X1419081Y1584117D01*
X1420569Y1583123D01*
X1421833Y1581859D01*
X1422827Y1580371D01*
X1423512Y1578719D01*
X1423736Y1577593D01*
X1416303Y1577593D01*
G37*
%LPD*%
%LPC*%
G36*
X1403603Y955293D02*
X1403603Y955293D01*
X1403603Y962726D01*
X1404729Y962502D01*
X1406381Y961817D01*
X1407869Y960823D01*
X1409133Y959559D01*
X1410127Y958071D01*
X1410812Y956419D01*
X1411036Y955293D01*
X1403603Y955293D01*
G37*
%LPD*%
%LPC*%
G36*
X1086103Y955293D02*
X1086103Y955293D01*
X1086103Y962726D01*
X1087229Y962502D01*
X1088881Y961817D01*
X1090369Y960823D01*
X1091633Y959559D01*
X1092627Y958071D01*
X1093312Y956419D01*
X1093536Y955293D01*
X1086103Y955293D01*
G37*
%LPD*%
%LPC*%
G36*
X1251203Y1676147D02*
X1251203Y1676147D01*
X1258636Y1676147D01*
X1258412Y1675021D01*
X1257727Y1673369D01*
X1256733Y1671881D01*
X1255469Y1670617D01*
X1253981Y1669623D01*
X1252329Y1668938D01*
X1251203Y1668714D01*
X1251203Y1676147D01*
G37*
%LPD*%
%LPC*%
G36*
X1164524Y1679193D02*
X1164524Y1679193D01*
X1164748Y1680319D01*
X1165433Y1681971D01*
X1166427Y1683459D01*
X1167691Y1684723D01*
X1169179Y1685717D01*
X1170831Y1686402D01*
X1171957Y1686626D01*
X1171957Y1679193D01*
X1164524Y1679193D01*
G37*
%LPD*%
%LPC*%
G36*
X1086103Y952247D02*
X1086103Y952247D01*
X1093536Y952247D01*
X1093312Y951121D01*
X1092627Y949469D01*
X1091633Y947981D01*
X1090369Y946717D01*
X1088881Y945723D01*
X1087229Y945038D01*
X1086103Y944814D01*
X1086103Y952247D01*
G37*
%LPD*%
%LPC*%
G36*
X1240724Y1679193D02*
X1240724Y1679193D01*
X1240948Y1680319D01*
X1241633Y1681971D01*
X1242627Y1683459D01*
X1243891Y1684723D01*
X1245379Y1685717D01*
X1247031Y1686402D01*
X1248157Y1686626D01*
X1248157Y1679193D01*
X1240724Y1679193D01*
G37*
%LPD*%
%LPC*%
G36*
X1393124Y955293D02*
X1393124Y955293D01*
X1393348Y956419D01*
X1394033Y958071D01*
X1395027Y959559D01*
X1396291Y960823D01*
X1397779Y961817D01*
X1399431Y962502D01*
X1400557Y962726D01*
X1400557Y955293D01*
X1393124Y955293D01*
G37*
%LPD*%
%LPC*%
G36*
X1416303Y1307847D02*
X1416303Y1307847D01*
X1423736Y1307847D01*
X1423512Y1306721D01*
X1422827Y1305069D01*
X1421833Y1303581D01*
X1420569Y1302317D01*
X1419081Y1301323D01*
X1417429Y1300638D01*
X1416303Y1300414D01*
X1416303Y1307847D01*
G37*
%LPD*%
%LPC*%
G36*
X1403603Y952247D02*
X1403603Y952247D01*
X1411036Y952247D01*
X1410812Y951121D01*
X1410127Y949469D01*
X1409133Y947981D01*
X1407869Y946717D01*
X1406381Y945723D01*
X1404729Y945038D01*
X1403603Y944814D01*
X1403603Y952247D01*
G37*
%LPD*%
%LPC*%
G36*
X1405824Y1310893D02*
X1405824Y1310893D01*
X1406048Y1312019D01*
X1406733Y1313671D01*
X1407727Y1315159D01*
X1408991Y1316423D01*
X1410479Y1317417D01*
X1412131Y1318102D01*
X1413257Y1318326D01*
X1413257Y1310893D01*
X1405824Y1310893D01*
G37*
%LPD*%
%LPC*%
G36*
X1416303Y1574547D02*
X1416303Y1574547D01*
X1423736Y1574547D01*
X1423512Y1573421D01*
X1422827Y1571769D01*
X1421833Y1570281D01*
X1420569Y1569017D01*
X1419081Y1568023D01*
X1417429Y1567338D01*
X1416303Y1567114D01*
X1416303Y1574547D01*
G37*
%LPD*%
%LPC*%
G36*
X1075624Y955293D02*
X1075624Y955293D01*
X1075848Y956419D01*
X1076533Y958071D01*
X1077527Y959559D01*
X1078791Y960823D01*
X1080279Y961817D01*
X1081931Y962502D01*
X1083057Y962726D01*
X1083057Y955293D01*
X1075624Y955293D01*
G37*
%LPD*%
%LPC*%
G36*
X1175003Y1676147D02*
X1175003Y1676147D01*
X1182436Y1676147D01*
X1182212Y1675021D01*
X1181527Y1673369D01*
X1180533Y1671881D01*
X1179269Y1670617D01*
X1177781Y1669623D01*
X1176129Y1668938D01*
X1175003Y1668714D01*
X1175003Y1676147D01*
G37*
%LPD*%
%LPC*%
G36*
X1405824Y1577593D02*
X1405824Y1577593D01*
X1406048Y1578719D01*
X1406733Y1580371D01*
X1407727Y1581859D01*
X1408991Y1583123D01*
X1410479Y1584117D01*
X1412131Y1584802D01*
X1413257Y1585026D01*
X1413257Y1577593D01*
X1405824Y1577593D01*
G37*
%LPD*%
%LPC*%
G36*
X1081931Y945038D02*
X1081931Y945038D01*
X1080279Y945723D01*
X1078791Y946717D01*
X1077527Y947981D01*
X1076533Y949469D01*
X1075848Y951121D01*
X1075624Y952247D01*
X1083057Y952247D01*
X1083057Y944814D01*
X1081931Y945038D01*
G37*
%LPD*%
%LPC*%
G36*
X1399431Y945038D02*
X1399431Y945038D01*
X1397779Y945723D01*
X1396291Y946717D01*
X1395027Y947981D01*
X1394033Y949469D01*
X1393348Y951121D01*
X1393124Y952247D01*
X1400557Y952247D01*
X1400557Y944814D01*
X1399431Y945038D01*
G37*
%LPD*%
%LPC*%
G36*
X1412131Y1300638D02*
X1412131Y1300638D01*
X1410479Y1301323D01*
X1408991Y1302317D01*
X1407727Y1303581D01*
X1406733Y1305069D01*
X1406048Y1306721D01*
X1405824Y1307847D01*
X1413257Y1307847D01*
X1413257Y1300414D01*
X1412131Y1300638D01*
G37*
%LPD*%
%LPC*%
G36*
X1170831Y1668938D02*
X1170831Y1668938D01*
X1169179Y1669623D01*
X1167691Y1670617D01*
X1166427Y1671881D01*
X1165433Y1673369D01*
X1164748Y1675021D01*
X1164524Y1676147D01*
X1171957Y1676147D01*
X1171957Y1668714D01*
X1170831Y1668938D01*
G37*
%LPD*%
%LPC*%
G36*
X1412131Y1567338D02*
X1412131Y1567338D01*
X1410479Y1568023D01*
X1408991Y1569017D01*
X1407727Y1570281D01*
X1406733Y1571769D01*
X1406048Y1573421D01*
X1405824Y1574547D01*
X1413257Y1574547D01*
X1413257Y1567114D01*
X1412131Y1567338D01*
G37*
%LPD*%
%LPC*%
G36*
X1247031Y1668938D02*
X1247031Y1668938D01*
X1245379Y1669623D01*
X1243891Y1670617D01*
X1242627Y1671881D01*
X1241633Y1673369D01*
X1240948Y1675021D01*
X1240724Y1676147D01*
X1248157Y1676147D01*
X1248157Y1668714D01*
X1247031Y1668938D01*
G37*
%LPD*%
%LPC*%
G36*
X622769Y878839D02*
X622769Y878839D01*
X622769Y878841D01*
X622771Y878841D01*
X622771Y878839D01*
X622769Y878839D01*
G37*
%LPD*%
%LPC*%
G36*
X88899Y882699D02*
X88899Y882699D01*
X88899Y882701D01*
X88901Y882701D01*
X88901Y882699D01*
X88899Y882699D01*
G37*
%LPD*%
%LPC*%
G36*
X101599Y1568499D02*
X101599Y1568499D01*
X101599Y1568501D01*
X101601Y1568501D01*
X101601Y1568499D01*
X101599Y1568499D01*
G37*
%LPD*%
%LPC*%
G36*
X1236979Y1588769D02*
X1236979Y1588769D01*
X1236979Y1588771D01*
X1236981Y1588771D01*
X1236981Y1588769D01*
X1236979Y1588769D01*
G37*
%LPD*%
%LPC*%
G36*
X1173479Y1677669D02*
X1173479Y1677669D01*
X1173479Y1677671D01*
X1173481Y1677671D01*
X1173481Y1677669D01*
X1173479Y1677669D01*
G37*
%LPD*%
%LPC*%
G36*
X1249679Y1677669D02*
X1249679Y1677669D01*
X1249679Y1677671D01*
X1249681Y1677671D01*
X1249681Y1677669D01*
X1249679Y1677669D01*
G37*
%LPD*%
%LPC*%
G36*
X1167179Y852169D02*
X1167179Y852169D01*
X1167179Y852171D01*
X1167181Y852171D01*
X1167181Y852169D01*
X1167179Y852169D01*
G37*
%LPD*%
%LPC*%
G36*
X1084579Y953769D02*
X1084579Y953769D01*
X1084579Y953771D01*
X1084581Y953771D01*
X1084581Y953769D01*
X1084579Y953769D01*
G37*
%LPD*%
%LPC*%
G36*
X1402079Y953769D02*
X1402079Y953769D01*
X1402079Y953771D01*
X1402081Y953771D01*
X1402081Y953769D01*
X1402079Y953769D01*
G37*
%LPD*%
%LPC*%
G36*
X1198879Y1588769D02*
X1198879Y1588769D01*
X1198879Y1588771D01*
X1198881Y1588771D01*
X1198881Y1588769D01*
X1198879Y1588769D01*
G37*
%LPD*%
%LPC*%
G36*
X571499Y1587499D02*
X571499Y1587499D01*
X571499Y1587501D01*
X571501Y1587501D01*
X571501Y1587499D01*
X571499Y1587499D01*
G37*
%LPD*%
%LPC*%
G36*
X1090979Y1779269D02*
X1090979Y1779269D01*
X1090979Y1779271D01*
X1090981Y1779271D01*
X1090981Y1779269D01*
X1090979Y1779269D01*
G37*
%LPD*%
%LPC*%
G36*
X862379Y814069D02*
X862379Y814069D01*
X862379Y814071D01*
X862381Y814071D01*
X862381Y814069D01*
X862379Y814069D01*
G37*
%LPD*%
%LPC*%
G36*
X101599Y1784399D02*
X101599Y1784399D01*
X101599Y1784401D01*
X101601Y1784401D01*
X101601Y1784399D01*
X101599Y1784399D01*
G37*
%LPD*%
%LPC*%
G36*
X661719Y1786889D02*
X661719Y1786889D01*
X661719Y1786891D01*
X661721Y1786891D01*
X661721Y1786889D01*
X661719Y1786889D01*
G37*
%LPD*%
%LPC*%
G36*
X533399Y1587499D02*
X533399Y1587499D01*
X533399Y1587501D01*
X533401Y1587501D01*
X533401Y1587499D01*
X533399Y1587499D01*
G37*
%LPD*%
%LPC*%
G36*
X101599Y1111299D02*
X101599Y1111299D01*
X101599Y1111301D01*
X101601Y1111301D01*
X101601Y1111299D01*
X101599Y1111299D01*
G37*
%LPD*%
%LPC*%
G36*
X1414779Y1576069D02*
X1414779Y1576069D01*
X1414779Y1576071D01*
X1414781Y1576071D01*
X1414781Y1576069D01*
X1414779Y1576069D01*
G37*
%LPD*%
%LPC*%
G36*
X1414779Y1309369D02*
X1414779Y1309369D01*
X1414779Y1309371D01*
X1414781Y1309371D01*
X1414781Y1309369D01*
X1414779Y1309369D01*
G37*
%LPD*%
%LPC*%
G36*
X101599Y1339899D02*
X101599Y1339899D01*
X101599Y1339901D01*
X101601Y1339901D01*
X101601Y1339899D01*
X101599Y1339899D01*
G37*
%LPD*%
%LPC*%
G36*
X440739Y1788159D02*
X440739Y1788159D01*
X440739Y1788161D01*
X440741Y1788161D01*
X440741Y1788159D01*
X440739Y1788159D01*
G37*
%LPD*%
%LPC*%
G36*
X164489Y775969D02*
X164489Y775969D01*
X164489Y775971D01*
X164491Y775971D01*
X164491Y775969D01*
X164489Y775969D01*
G37*
%LPD*%
D10*
X1535430Y1950720D02*
X1535430Y1927410D01*
X30480Y1927410D02*
X30480Y1950720D01*
X31130Y1946910D02*
X1534780Y1946910D01*
X1509430Y1950102D01*
X1509430Y1943718D01*
X1534780Y1946910D01*
X1509430Y1948210D01*
X1509430Y1945610D02*
X1534780Y1946910D01*
X1509430Y1949510D01*
X1509430Y1944310D02*
X1534780Y1946910D01*
X56480Y1950102D02*
X31130Y1946910D01*
X56480Y1950102D02*
X56480Y1943718D01*
X31130Y1946910D01*
X56480Y1948210D01*
X56480Y1945610D02*
X31130Y1946910D01*
X56480Y1949510D01*
X56480Y1944310D02*
X31130Y1946910D01*
D11*
X744800Y1966061D02*
X749316Y1969673D01*
X749316Y1953417D01*
X753831Y1953417D02*
X744800Y1953417D01*
X760431Y1953417D02*
X765850Y1953417D01*
X765968Y1953419D01*
X766086Y1953425D01*
X766204Y1953434D01*
X766321Y1953448D01*
X766438Y1953465D01*
X766555Y1953486D01*
X766670Y1953511D01*
X766785Y1953540D01*
X766899Y1953573D01*
X767011Y1953609D01*
X767122Y1953649D01*
X767232Y1953692D01*
X767341Y1953739D01*
X767448Y1953789D01*
X767553Y1953844D01*
X767656Y1953901D01*
X767757Y1953962D01*
X767857Y1954026D01*
X767954Y1954093D01*
X768049Y1954163D01*
X768141Y1954237D01*
X768232Y1954313D01*
X768319Y1954393D01*
X768404Y1954475D01*
X768486Y1954560D01*
X768566Y1954647D01*
X768642Y1954738D01*
X768716Y1954830D01*
X768786Y1954925D01*
X768853Y1955022D01*
X768917Y1955122D01*
X768978Y1955223D01*
X769035Y1955326D01*
X769090Y1955431D01*
X769140Y1955538D01*
X769187Y1955647D01*
X769230Y1955757D01*
X769270Y1955868D01*
X769306Y1955980D01*
X769339Y1956094D01*
X769368Y1956209D01*
X769393Y1956324D01*
X769414Y1956441D01*
X769431Y1956558D01*
X769445Y1956675D01*
X769454Y1956793D01*
X769460Y1956911D01*
X769462Y1957029D01*
X769463Y1957029D02*
X769463Y1958836D01*
X769462Y1958836D02*
X769460Y1958954D01*
X769454Y1959072D01*
X769445Y1959190D01*
X769431Y1959307D01*
X769414Y1959424D01*
X769393Y1959541D01*
X769368Y1959656D01*
X769339Y1959771D01*
X769306Y1959885D01*
X769270Y1959997D01*
X769230Y1960108D01*
X769187Y1960218D01*
X769140Y1960327D01*
X769090Y1960434D01*
X769035Y1960539D01*
X768978Y1960642D01*
X768917Y1960743D01*
X768853Y1960843D01*
X768786Y1960940D01*
X768716Y1961035D01*
X768642Y1961127D01*
X768566Y1961218D01*
X768486Y1961305D01*
X768404Y1961390D01*
X768319Y1961472D01*
X768232Y1961552D01*
X768141Y1961628D01*
X768049Y1961702D01*
X767954Y1961772D01*
X767857Y1961839D01*
X767757Y1961903D01*
X767656Y1961964D01*
X767553Y1962021D01*
X767448Y1962076D01*
X767341Y1962126D01*
X767232Y1962173D01*
X767122Y1962216D01*
X767011Y1962256D01*
X766899Y1962292D01*
X766785Y1962325D01*
X766670Y1962354D01*
X766555Y1962379D01*
X766438Y1962400D01*
X766321Y1962417D01*
X766204Y1962431D01*
X766086Y1962440D01*
X765968Y1962446D01*
X765850Y1962448D01*
X760431Y1962448D01*
X760431Y1969673D01*
X769463Y1969673D01*
X777418Y1967415D02*
X777281Y1967126D01*
X777151Y1966834D01*
X777028Y1966538D01*
X776913Y1966240D01*
X776804Y1965939D01*
X776703Y1965636D01*
X776609Y1965330D01*
X776522Y1965023D01*
X776443Y1964713D01*
X776371Y1964401D01*
X776307Y1964088D01*
X776250Y1963773D01*
X776200Y1963457D01*
X776158Y1963140D01*
X776124Y1962822D01*
X776097Y1962504D01*
X776078Y1962184D01*
X776067Y1961865D01*
X776063Y1961545D01*
X777417Y1967416D02*
X777456Y1967524D01*
X777499Y1967631D01*
X777545Y1967736D01*
X777596Y1967840D01*
X777649Y1967942D01*
X777706Y1968042D01*
X777767Y1968140D01*
X777831Y1968235D01*
X777898Y1968329D01*
X777969Y1968420D01*
X778042Y1968509D01*
X778119Y1968595D01*
X778198Y1968678D01*
X778280Y1968759D01*
X778365Y1968837D01*
X778453Y1968911D01*
X778543Y1968983D01*
X778635Y1969051D01*
X778730Y1969117D01*
X778827Y1969179D01*
X778926Y1969237D01*
X779028Y1969293D01*
X779130Y1969344D01*
X779235Y1969392D01*
X779341Y1969437D01*
X779449Y1969478D01*
X779558Y1969515D01*
X779668Y1969548D01*
X779780Y1969577D01*
X779892Y1969603D01*
X780005Y1969625D01*
X780119Y1969642D01*
X780233Y1969656D01*
X780348Y1969666D01*
X780463Y1969672D01*
X780578Y1969674D01*
X780578Y1969673D02*
X780693Y1969671D01*
X780808Y1969665D01*
X780923Y1969655D01*
X781037Y1969641D01*
X781151Y1969624D01*
X781264Y1969602D01*
X781376Y1969576D01*
X781488Y1969547D01*
X781598Y1969514D01*
X781707Y1969477D01*
X781815Y1969436D01*
X781921Y1969391D01*
X782026Y1969343D01*
X782128Y1969292D01*
X782229Y1969236D01*
X782329Y1969178D01*
X782426Y1969116D01*
X782520Y1969051D01*
X782613Y1968982D01*
X782703Y1968910D01*
X782791Y1968836D01*
X782876Y1968758D01*
X782958Y1968677D01*
X783037Y1968594D01*
X783114Y1968508D01*
X783187Y1968419D01*
X783258Y1968328D01*
X783325Y1968234D01*
X783389Y1968139D01*
X783450Y1968041D01*
X783507Y1967941D01*
X783560Y1967839D01*
X783611Y1967735D01*
X783657Y1967630D01*
X783700Y1967523D01*
X783739Y1967415D01*
X783876Y1967126D01*
X784006Y1966834D01*
X784129Y1966538D01*
X784244Y1966240D01*
X784353Y1965939D01*
X784454Y1965636D01*
X784548Y1965330D01*
X784635Y1965023D01*
X784714Y1964713D01*
X784786Y1964401D01*
X784850Y1964088D01*
X784907Y1963773D01*
X784957Y1963457D01*
X784999Y1963140D01*
X785033Y1962822D01*
X785060Y1962504D01*
X785079Y1962184D01*
X785090Y1961865D01*
X785094Y1961545D01*
X776063Y1961545D02*
X776067Y1961225D01*
X776078Y1960906D01*
X776097Y1960586D01*
X776124Y1960268D01*
X776158Y1959950D01*
X776200Y1959633D01*
X776250Y1959317D01*
X776307Y1959002D01*
X776371Y1958689D01*
X776443Y1958377D01*
X776522Y1958067D01*
X776609Y1957760D01*
X776703Y1957454D01*
X776804Y1957151D01*
X776913Y1956850D01*
X777028Y1956552D01*
X777151Y1956256D01*
X777281Y1955964D01*
X777418Y1955675D01*
X777417Y1955675D02*
X777456Y1955567D01*
X777499Y1955460D01*
X777545Y1955355D01*
X777596Y1955251D01*
X777649Y1955149D01*
X777706Y1955049D01*
X777767Y1954951D01*
X777831Y1954856D01*
X777898Y1954762D01*
X777969Y1954671D01*
X778042Y1954582D01*
X778119Y1954496D01*
X778198Y1954413D01*
X778280Y1954332D01*
X778365Y1954254D01*
X778453Y1954180D01*
X778543Y1954108D01*
X778636Y1954039D01*
X778730Y1953974D01*
X778827Y1953912D01*
X778927Y1953854D01*
X779028Y1953798D01*
X779130Y1953747D01*
X779235Y1953699D01*
X779341Y1953654D01*
X779449Y1953613D01*
X779558Y1953576D01*
X779668Y1953543D01*
X779780Y1953514D01*
X779892Y1953488D01*
X780005Y1953466D01*
X780119Y1953449D01*
X780233Y1953435D01*
X780348Y1953425D01*
X780463Y1953419D01*
X780578Y1953417D01*
X783738Y1955675D02*
X783875Y1955964D01*
X784005Y1956256D01*
X784128Y1956552D01*
X784243Y1956850D01*
X784352Y1957151D01*
X784453Y1957454D01*
X784547Y1957760D01*
X784634Y1958067D01*
X784713Y1958377D01*
X784785Y1958689D01*
X784849Y1959002D01*
X784906Y1959317D01*
X784956Y1959633D01*
X784998Y1959950D01*
X785032Y1960268D01*
X785059Y1960586D01*
X785078Y1960906D01*
X785089Y1961225D01*
X785093Y1961545D01*
X783739Y1955675D02*
X783700Y1955567D01*
X783657Y1955460D01*
X783611Y1955355D01*
X783560Y1955251D01*
X783507Y1955149D01*
X783450Y1955049D01*
X783389Y1954951D01*
X783325Y1954856D01*
X783258Y1954762D01*
X783187Y1954671D01*
X783114Y1954582D01*
X783037Y1954496D01*
X782958Y1954413D01*
X782876Y1954332D01*
X782791Y1954254D01*
X782703Y1954180D01*
X782613Y1954108D01*
X782520Y1954039D01*
X782426Y1953974D01*
X782329Y1953912D01*
X782229Y1953854D01*
X782128Y1953798D01*
X782025Y1953747D01*
X781921Y1953699D01*
X781815Y1953654D01*
X781707Y1953613D01*
X781598Y1953576D01*
X781488Y1953543D01*
X781376Y1953514D01*
X781264Y1953488D01*
X781151Y1953466D01*
X781037Y1953449D01*
X780923Y1953435D01*
X780808Y1953425D01*
X780693Y1953419D01*
X780578Y1953417D01*
X776966Y1957029D02*
X784191Y1966061D01*
X791068Y1954320D02*
X791068Y1953417D01*
X791068Y1954320D02*
X791972Y1954320D01*
X791972Y1953417D01*
X791068Y1953417D01*
X797946Y1953417D02*
X803365Y1953417D01*
X803483Y1953419D01*
X803601Y1953425D01*
X803719Y1953434D01*
X803836Y1953448D01*
X803953Y1953465D01*
X804070Y1953486D01*
X804185Y1953511D01*
X804300Y1953540D01*
X804414Y1953573D01*
X804526Y1953609D01*
X804637Y1953649D01*
X804747Y1953692D01*
X804856Y1953739D01*
X804963Y1953789D01*
X805068Y1953844D01*
X805171Y1953901D01*
X805272Y1953962D01*
X805372Y1954026D01*
X805469Y1954093D01*
X805564Y1954163D01*
X805656Y1954237D01*
X805747Y1954313D01*
X805834Y1954393D01*
X805919Y1954475D01*
X806001Y1954560D01*
X806081Y1954647D01*
X806157Y1954738D01*
X806231Y1954830D01*
X806301Y1954925D01*
X806368Y1955022D01*
X806432Y1955122D01*
X806493Y1955223D01*
X806550Y1955326D01*
X806605Y1955431D01*
X806655Y1955538D01*
X806702Y1955647D01*
X806745Y1955757D01*
X806785Y1955868D01*
X806821Y1955980D01*
X806854Y1956094D01*
X806883Y1956209D01*
X806908Y1956324D01*
X806929Y1956441D01*
X806946Y1956558D01*
X806960Y1956675D01*
X806969Y1956793D01*
X806975Y1956911D01*
X806977Y1957029D01*
X806977Y1958836D01*
X806975Y1958954D01*
X806969Y1959072D01*
X806960Y1959190D01*
X806946Y1959307D01*
X806929Y1959424D01*
X806908Y1959541D01*
X806883Y1959656D01*
X806854Y1959771D01*
X806821Y1959885D01*
X806785Y1959997D01*
X806745Y1960108D01*
X806702Y1960218D01*
X806655Y1960327D01*
X806605Y1960434D01*
X806550Y1960539D01*
X806493Y1960642D01*
X806432Y1960743D01*
X806368Y1960843D01*
X806301Y1960940D01*
X806231Y1961035D01*
X806157Y1961127D01*
X806081Y1961218D01*
X806001Y1961305D01*
X805919Y1961390D01*
X805834Y1961472D01*
X805747Y1961552D01*
X805656Y1961628D01*
X805564Y1961702D01*
X805469Y1961772D01*
X805372Y1961839D01*
X805272Y1961903D01*
X805171Y1961964D01*
X805068Y1962021D01*
X804963Y1962076D01*
X804856Y1962126D01*
X804747Y1962173D01*
X804637Y1962216D01*
X804526Y1962256D01*
X804414Y1962292D01*
X804300Y1962325D01*
X804185Y1962354D01*
X804070Y1962379D01*
X803953Y1962400D01*
X803836Y1962417D01*
X803719Y1962431D01*
X803601Y1962440D01*
X803483Y1962446D01*
X803365Y1962448D01*
X797946Y1962448D01*
X797946Y1969673D01*
X806977Y1969673D01*
X814933Y1967415D02*
X814796Y1967126D01*
X814666Y1966834D01*
X814543Y1966538D01*
X814428Y1966240D01*
X814319Y1965939D01*
X814218Y1965636D01*
X814124Y1965330D01*
X814037Y1965023D01*
X813958Y1964713D01*
X813886Y1964401D01*
X813822Y1964088D01*
X813765Y1963773D01*
X813715Y1963457D01*
X813673Y1963140D01*
X813639Y1962822D01*
X813612Y1962504D01*
X813593Y1962184D01*
X813582Y1961865D01*
X813578Y1961545D01*
X814932Y1967416D02*
X814971Y1967524D01*
X815014Y1967631D01*
X815060Y1967736D01*
X815111Y1967840D01*
X815164Y1967942D01*
X815221Y1968042D01*
X815282Y1968140D01*
X815346Y1968235D01*
X815413Y1968329D01*
X815484Y1968420D01*
X815557Y1968509D01*
X815634Y1968595D01*
X815713Y1968678D01*
X815795Y1968759D01*
X815880Y1968837D01*
X815968Y1968911D01*
X816058Y1968983D01*
X816150Y1969051D01*
X816245Y1969117D01*
X816342Y1969179D01*
X816441Y1969237D01*
X816543Y1969293D01*
X816645Y1969344D01*
X816750Y1969392D01*
X816856Y1969437D01*
X816964Y1969478D01*
X817073Y1969515D01*
X817183Y1969548D01*
X817295Y1969577D01*
X817407Y1969603D01*
X817520Y1969625D01*
X817634Y1969642D01*
X817748Y1969656D01*
X817863Y1969666D01*
X817978Y1969672D01*
X818093Y1969674D01*
X818093Y1969673D02*
X818208Y1969671D01*
X818323Y1969665D01*
X818438Y1969655D01*
X818552Y1969641D01*
X818666Y1969624D01*
X818779Y1969602D01*
X818891Y1969576D01*
X819003Y1969547D01*
X819113Y1969514D01*
X819222Y1969477D01*
X819330Y1969436D01*
X819436Y1969391D01*
X819541Y1969343D01*
X819643Y1969292D01*
X819744Y1969236D01*
X819844Y1969178D01*
X819941Y1969116D01*
X820035Y1969051D01*
X820128Y1968982D01*
X820218Y1968910D01*
X820306Y1968836D01*
X820391Y1968758D01*
X820473Y1968677D01*
X820552Y1968594D01*
X820629Y1968508D01*
X820702Y1968419D01*
X820773Y1968328D01*
X820840Y1968234D01*
X820904Y1968139D01*
X820965Y1968041D01*
X821022Y1967941D01*
X821075Y1967839D01*
X821126Y1967735D01*
X821172Y1967630D01*
X821215Y1967523D01*
X821254Y1967415D01*
X821253Y1967415D02*
X821390Y1967126D01*
X821520Y1966834D01*
X821643Y1966538D01*
X821758Y1966240D01*
X821867Y1965939D01*
X821968Y1965636D01*
X822062Y1965330D01*
X822149Y1965023D01*
X822228Y1964713D01*
X822300Y1964401D01*
X822364Y1964088D01*
X822421Y1963773D01*
X822471Y1963457D01*
X822513Y1963140D01*
X822547Y1962822D01*
X822574Y1962504D01*
X822593Y1962184D01*
X822604Y1961865D01*
X822608Y1961545D01*
X813578Y1961545D02*
X813582Y1961225D01*
X813593Y1960906D01*
X813612Y1960586D01*
X813639Y1960268D01*
X813673Y1959950D01*
X813715Y1959633D01*
X813765Y1959317D01*
X813822Y1959002D01*
X813886Y1958689D01*
X813958Y1958377D01*
X814037Y1958067D01*
X814124Y1957760D01*
X814218Y1957454D01*
X814319Y1957151D01*
X814428Y1956850D01*
X814543Y1956552D01*
X814666Y1956256D01*
X814796Y1955964D01*
X814933Y1955675D01*
X814932Y1955675D02*
X814971Y1955567D01*
X815014Y1955460D01*
X815060Y1955355D01*
X815111Y1955251D01*
X815164Y1955149D01*
X815221Y1955049D01*
X815282Y1954951D01*
X815346Y1954856D01*
X815413Y1954762D01*
X815484Y1954671D01*
X815557Y1954582D01*
X815634Y1954496D01*
X815713Y1954413D01*
X815795Y1954332D01*
X815880Y1954254D01*
X815968Y1954180D01*
X816058Y1954108D01*
X816151Y1954039D01*
X816245Y1953974D01*
X816342Y1953912D01*
X816442Y1953854D01*
X816543Y1953798D01*
X816645Y1953747D01*
X816750Y1953699D01*
X816856Y1953654D01*
X816964Y1953613D01*
X817073Y1953576D01*
X817183Y1953543D01*
X817295Y1953514D01*
X817407Y1953488D01*
X817520Y1953466D01*
X817634Y1953449D01*
X817748Y1953435D01*
X817863Y1953425D01*
X817978Y1953419D01*
X818093Y1953417D01*
X821253Y1955675D02*
X821390Y1955964D01*
X821520Y1956256D01*
X821643Y1956552D01*
X821758Y1956850D01*
X821867Y1957151D01*
X821968Y1957454D01*
X822062Y1957760D01*
X822149Y1958067D01*
X822228Y1958377D01*
X822300Y1958689D01*
X822364Y1959002D01*
X822421Y1959317D01*
X822471Y1959633D01*
X822513Y1959950D01*
X822547Y1960268D01*
X822574Y1960586D01*
X822593Y1960906D01*
X822604Y1961225D01*
X822608Y1961545D01*
X821254Y1955675D02*
X821215Y1955567D01*
X821172Y1955460D01*
X821126Y1955355D01*
X821075Y1955251D01*
X821022Y1955149D01*
X820965Y1955049D01*
X820904Y1954951D01*
X820840Y1954856D01*
X820773Y1954762D01*
X820702Y1954671D01*
X820629Y1954582D01*
X820552Y1954496D01*
X820473Y1954413D01*
X820391Y1954332D01*
X820306Y1954254D01*
X820218Y1954180D01*
X820128Y1954108D01*
X820035Y1954039D01*
X819941Y1953974D01*
X819844Y1953912D01*
X819744Y1953854D01*
X819643Y1953798D01*
X819540Y1953747D01*
X819436Y1953699D01*
X819330Y1953654D01*
X819222Y1953613D01*
X819113Y1953576D01*
X819003Y1953543D01*
X818891Y1953514D01*
X818779Y1953488D01*
X818666Y1953466D01*
X818552Y1953449D01*
X818438Y1953435D01*
X818323Y1953425D01*
X818208Y1953419D01*
X818093Y1953417D01*
X814481Y1957029D02*
X821706Y1966061D01*
D10*
X1553210Y1946910D02*
X1647640Y1946910D01*
X1647640Y674370D02*
X1553210Y674370D01*
X1628140Y675020D02*
X1628140Y1946260D01*
X1624948Y1920910D01*
X1631332Y1920910D01*
X1628140Y1946260D01*
X1626840Y1920910D01*
X1629440Y1920910D02*
X1628140Y1946260D01*
X1625540Y1920910D01*
X1630740Y1920910D02*
X1628140Y1946260D01*
X1624948Y700370D02*
X1628140Y675020D01*
X1624948Y700370D02*
X1631332Y700370D01*
X1628140Y675020D01*
X1626840Y700370D01*
X1629440Y700370D02*
X1628140Y675020D01*
X1625540Y700370D01*
X1630740Y700370D02*
X1628140Y675020D01*
D11*
X1608989Y1272485D02*
X1605377Y1277001D01*
X1621633Y1277001D01*
X1621633Y1281516D02*
X1621633Y1272485D01*
X1605377Y1293084D02*
X1605379Y1293209D01*
X1605385Y1293334D01*
X1605394Y1293459D01*
X1605408Y1293583D01*
X1605425Y1293707D01*
X1605446Y1293831D01*
X1605471Y1293953D01*
X1605500Y1294075D01*
X1605532Y1294196D01*
X1605568Y1294316D01*
X1605608Y1294435D01*
X1605651Y1294552D01*
X1605698Y1294668D01*
X1605749Y1294783D01*
X1605803Y1294895D01*
X1605861Y1295007D01*
X1605921Y1295116D01*
X1605986Y1295223D01*
X1606053Y1295329D01*
X1606124Y1295432D01*
X1606198Y1295533D01*
X1606275Y1295632D01*
X1606355Y1295728D01*
X1606438Y1295822D01*
X1606523Y1295913D01*
X1606612Y1296002D01*
X1606703Y1296087D01*
X1606797Y1296170D01*
X1606893Y1296250D01*
X1606992Y1296327D01*
X1607093Y1296401D01*
X1607196Y1296472D01*
X1607302Y1296539D01*
X1607409Y1296604D01*
X1607518Y1296664D01*
X1607630Y1296722D01*
X1607742Y1296776D01*
X1607857Y1296827D01*
X1607973Y1296874D01*
X1608090Y1296917D01*
X1608209Y1296957D01*
X1608329Y1296993D01*
X1608450Y1297025D01*
X1608572Y1297054D01*
X1608694Y1297079D01*
X1608818Y1297100D01*
X1608942Y1297117D01*
X1609066Y1297131D01*
X1609191Y1297140D01*
X1609316Y1297146D01*
X1609441Y1297148D01*
X1605377Y1293084D02*
X1605379Y1292941D01*
X1605385Y1292799D01*
X1605395Y1292656D01*
X1605408Y1292514D01*
X1605426Y1292373D01*
X1605447Y1292231D01*
X1605472Y1292091D01*
X1605501Y1291951D01*
X1605534Y1291812D01*
X1605571Y1291674D01*
X1605611Y1291537D01*
X1605655Y1291402D01*
X1605703Y1291267D01*
X1605755Y1291134D01*
X1605810Y1291002D01*
X1605869Y1290872D01*
X1605931Y1290744D01*
X1605997Y1290617D01*
X1606066Y1290492D01*
X1606138Y1290369D01*
X1606214Y1290248D01*
X1606293Y1290130D01*
X1606376Y1290013D01*
X1606461Y1289899D01*
X1606550Y1289787D01*
X1606641Y1289678D01*
X1606736Y1289571D01*
X1606833Y1289466D01*
X1606934Y1289365D01*
X1607037Y1289266D01*
X1607142Y1289170D01*
X1607251Y1289077D01*
X1607362Y1288987D01*
X1607475Y1288900D01*
X1607590Y1288816D01*
X1607708Y1288736D01*
X1607828Y1288658D01*
X1607950Y1288584D01*
X1608074Y1288514D01*
X1608200Y1288446D01*
X1608328Y1288383D01*
X1608457Y1288322D01*
X1608588Y1288265D01*
X1608720Y1288212D01*
X1608854Y1288163D01*
X1608989Y1288117D01*
X1612602Y1295792D02*
X1612510Y1295886D01*
X1612416Y1295976D01*
X1612319Y1296064D01*
X1612219Y1296149D01*
X1612117Y1296231D01*
X1612012Y1296309D01*
X1611905Y1296385D01*
X1611796Y1296457D01*
X1611685Y1296526D01*
X1611571Y1296592D01*
X1611456Y1296654D01*
X1611339Y1296713D01*
X1611220Y1296768D01*
X1611100Y1296819D01*
X1610978Y1296867D01*
X1610855Y1296912D01*
X1610731Y1296952D01*
X1610605Y1296989D01*
X1610478Y1297022D01*
X1610351Y1297051D01*
X1610222Y1297077D01*
X1610093Y1297098D01*
X1609963Y1297116D01*
X1609833Y1297129D01*
X1609703Y1297139D01*
X1609572Y1297145D01*
X1609441Y1297147D01*
X1612602Y1295793D02*
X1621633Y1288116D01*
X1621633Y1297148D01*
X1607183Y1303748D02*
X1605377Y1303748D01*
X1605377Y1312779D01*
X1621633Y1308263D01*
X1621633Y1318753D02*
X1620730Y1318753D01*
X1620730Y1319657D01*
X1621633Y1319657D01*
X1621633Y1318753D01*
X1609441Y1334662D02*
X1609316Y1334660D01*
X1609191Y1334654D01*
X1609066Y1334645D01*
X1608942Y1334631D01*
X1608818Y1334614D01*
X1608694Y1334593D01*
X1608572Y1334568D01*
X1608450Y1334539D01*
X1608329Y1334507D01*
X1608209Y1334471D01*
X1608090Y1334431D01*
X1607973Y1334388D01*
X1607857Y1334341D01*
X1607742Y1334290D01*
X1607630Y1334236D01*
X1607518Y1334178D01*
X1607409Y1334118D01*
X1607302Y1334053D01*
X1607196Y1333986D01*
X1607093Y1333915D01*
X1606992Y1333841D01*
X1606893Y1333764D01*
X1606797Y1333684D01*
X1606703Y1333601D01*
X1606612Y1333516D01*
X1606523Y1333427D01*
X1606438Y1333336D01*
X1606355Y1333242D01*
X1606275Y1333146D01*
X1606198Y1333047D01*
X1606124Y1332946D01*
X1606053Y1332843D01*
X1605986Y1332737D01*
X1605921Y1332630D01*
X1605861Y1332521D01*
X1605803Y1332409D01*
X1605749Y1332297D01*
X1605698Y1332182D01*
X1605651Y1332066D01*
X1605608Y1331949D01*
X1605568Y1331830D01*
X1605532Y1331710D01*
X1605500Y1331589D01*
X1605471Y1331467D01*
X1605446Y1331345D01*
X1605425Y1331221D01*
X1605408Y1331097D01*
X1605394Y1330973D01*
X1605385Y1330848D01*
X1605379Y1330723D01*
X1605377Y1330598D01*
X1605379Y1330455D01*
X1605385Y1330313D01*
X1605395Y1330170D01*
X1605408Y1330028D01*
X1605426Y1329887D01*
X1605447Y1329745D01*
X1605472Y1329605D01*
X1605501Y1329465D01*
X1605534Y1329326D01*
X1605571Y1329188D01*
X1605611Y1329051D01*
X1605655Y1328916D01*
X1605703Y1328781D01*
X1605755Y1328648D01*
X1605810Y1328516D01*
X1605869Y1328386D01*
X1605931Y1328258D01*
X1605997Y1328131D01*
X1606066Y1328006D01*
X1606138Y1327883D01*
X1606214Y1327762D01*
X1606293Y1327644D01*
X1606376Y1327527D01*
X1606461Y1327413D01*
X1606550Y1327301D01*
X1606641Y1327192D01*
X1606736Y1327085D01*
X1606833Y1326980D01*
X1606934Y1326879D01*
X1607037Y1326780D01*
X1607142Y1326684D01*
X1607251Y1326591D01*
X1607362Y1326501D01*
X1607475Y1326414D01*
X1607590Y1326330D01*
X1607708Y1326250D01*
X1607828Y1326172D01*
X1607950Y1326098D01*
X1608074Y1326028D01*
X1608200Y1325960D01*
X1608328Y1325897D01*
X1608457Y1325836D01*
X1608588Y1325779D01*
X1608720Y1325726D01*
X1608854Y1325677D01*
X1608989Y1325631D01*
X1612602Y1333307D02*
X1612510Y1333401D01*
X1612416Y1333491D01*
X1612319Y1333579D01*
X1612219Y1333664D01*
X1612117Y1333746D01*
X1612012Y1333824D01*
X1611905Y1333900D01*
X1611796Y1333972D01*
X1611685Y1334041D01*
X1611571Y1334107D01*
X1611456Y1334169D01*
X1611339Y1334228D01*
X1611220Y1334283D01*
X1611100Y1334334D01*
X1610978Y1334382D01*
X1610855Y1334427D01*
X1610731Y1334467D01*
X1610605Y1334504D01*
X1610478Y1334537D01*
X1610351Y1334566D01*
X1610222Y1334592D01*
X1610093Y1334613D01*
X1609963Y1334631D01*
X1609833Y1334644D01*
X1609703Y1334654D01*
X1609572Y1334660D01*
X1609441Y1334662D01*
X1612602Y1333308D02*
X1621633Y1325631D01*
X1621633Y1334662D01*
X1621633Y1341263D02*
X1621633Y1346681D01*
X1621631Y1346799D01*
X1621625Y1346917D01*
X1621616Y1347035D01*
X1621602Y1347152D01*
X1621585Y1347269D01*
X1621564Y1347386D01*
X1621539Y1347501D01*
X1621510Y1347616D01*
X1621477Y1347730D01*
X1621441Y1347842D01*
X1621401Y1347953D01*
X1621358Y1348063D01*
X1621311Y1348172D01*
X1621261Y1348279D01*
X1621206Y1348384D01*
X1621149Y1348487D01*
X1621088Y1348588D01*
X1621024Y1348688D01*
X1620957Y1348785D01*
X1620887Y1348880D01*
X1620813Y1348972D01*
X1620737Y1349063D01*
X1620657Y1349150D01*
X1620575Y1349235D01*
X1620490Y1349317D01*
X1620403Y1349397D01*
X1620312Y1349473D01*
X1620220Y1349547D01*
X1620125Y1349617D01*
X1620028Y1349684D01*
X1619928Y1349748D01*
X1619827Y1349809D01*
X1619724Y1349866D01*
X1619619Y1349921D01*
X1619512Y1349971D01*
X1619403Y1350018D01*
X1619293Y1350061D01*
X1619182Y1350101D01*
X1619070Y1350137D01*
X1618956Y1350170D01*
X1618841Y1350199D01*
X1618726Y1350224D01*
X1618609Y1350245D01*
X1618492Y1350262D01*
X1618375Y1350276D01*
X1618257Y1350285D01*
X1618139Y1350291D01*
X1618021Y1350293D01*
X1618021Y1350294D02*
X1616214Y1350294D01*
X1616214Y1350293D02*
X1616096Y1350291D01*
X1615978Y1350285D01*
X1615860Y1350276D01*
X1615743Y1350262D01*
X1615626Y1350245D01*
X1615509Y1350224D01*
X1615394Y1350199D01*
X1615279Y1350170D01*
X1615165Y1350137D01*
X1615053Y1350101D01*
X1614942Y1350061D01*
X1614832Y1350018D01*
X1614723Y1349971D01*
X1614616Y1349921D01*
X1614511Y1349866D01*
X1614408Y1349809D01*
X1614307Y1349748D01*
X1614207Y1349684D01*
X1614110Y1349617D01*
X1614015Y1349547D01*
X1613923Y1349473D01*
X1613832Y1349397D01*
X1613745Y1349317D01*
X1613660Y1349235D01*
X1613578Y1349150D01*
X1613498Y1349063D01*
X1613422Y1348972D01*
X1613348Y1348880D01*
X1613278Y1348785D01*
X1613211Y1348688D01*
X1613147Y1348588D01*
X1613086Y1348487D01*
X1613029Y1348384D01*
X1612974Y1348279D01*
X1612924Y1348172D01*
X1612877Y1348063D01*
X1612834Y1347953D01*
X1612794Y1347842D01*
X1612758Y1347730D01*
X1612725Y1347616D01*
X1612696Y1347501D01*
X1612671Y1347386D01*
X1612650Y1347269D01*
X1612633Y1347152D01*
X1612619Y1347035D01*
X1612610Y1346917D01*
X1612604Y1346799D01*
X1612602Y1346681D01*
X1612602Y1341263D01*
X1605377Y1341263D01*
X1605377Y1350294D01*
D12*
X101600Y1501500D03*
X101600Y1568500D03*
X101600Y1717400D03*
X101600Y1784400D03*
D13*
X792480Y907070D03*
X792480Y975070D03*
D14*
X991580Y1677670D03*
X923580Y1677670D03*
X1470370Y1049020D03*
X1402370Y1049020D03*
X456220Y1681480D03*
X524220Y1681480D03*
D13*
X203200Y1532600D03*
X203200Y1464600D03*
X203200Y1342100D03*
X203200Y1274100D03*
D14*
X1499580Y1677670D03*
X1431580Y1677670D03*
D13*
X899160Y904530D03*
X899160Y972530D03*
X215900Y1058200D03*
X215900Y1126200D03*
D14*
X317790Y1685290D03*
X385790Y1685290D03*
D13*
X177800Y829600D03*
X177800Y897600D03*
D14*
X688050Y1676400D03*
X620050Y1676400D03*
D12*
X594720Y1786890D03*
X661720Y1786890D03*
X1023980Y1779270D03*
X1090980Y1779270D03*
D15*
X1465580Y1830070D03*
X1315580Y1830070D03*
X1265580Y1830070D03*
X1215580Y1830070D03*
X1215580Y1755070D03*
X1265580Y1755070D03*
X1315580Y1755070D03*
X1465580Y1755070D03*
D12*
X373740Y1788160D03*
X440740Y1788160D03*
X101600Y1272900D03*
X101600Y1339900D03*
X101600Y1044300D03*
X101600Y1111300D03*
X88900Y815700D03*
X88900Y882700D03*
X1427480Y1134470D03*
X1427480Y1201470D03*
D16*
X419100Y1079500D03*
X495300Y1079500D03*
X571500Y1079500D03*
D17*
X571500Y1587500D03*
D16*
X533400Y1587500D03*
X495300Y1587500D03*
X457200Y1587500D03*
D17*
X419100Y1587500D03*
D16*
X1084580Y1080770D03*
X1160780Y1080770D03*
X1236980Y1080770D03*
D17*
X1236980Y1588770D03*
D16*
X1198880Y1588770D03*
X1160780Y1588770D03*
X1122680Y1588770D03*
D17*
X1084580Y1588770D03*
D12*
X795380Y814070D03*
X862380Y814070D03*
D18*
X1186180Y953770D03*
X1084580Y953770D03*
X1071880Y1677670D03*
X1173480Y1677670D03*
X1402080Y953770D03*
X1300480Y953770D03*
X1249680Y1677670D03*
X1351280Y1677670D03*
X1414780Y1309370D03*
X1414780Y1410970D03*
X1414780Y1576070D03*
X1414780Y1474470D03*
D12*
X1100180Y852170D03*
X1167180Y852170D03*
X1341480Y852170D03*
X1408480Y852170D03*
D19*
X164490Y775970D03*
X183490Y775970D03*
D20*
X323850Y882650D03*
X348850Y907650D03*
X373850Y882650D03*
X348850Y857650D03*
X348850Y882650D03*
X572770Y878840D03*
X597770Y903840D03*
X622770Y878840D03*
X597770Y853840D03*
X597770Y878840D03*
D21*
X836930Y1852168D02*
X836930Y1868932D01*
X811530Y1868932D02*
X811530Y1852168D01*
X786130Y1852168D02*
X786130Y1868932D01*
X191770Y1649222D02*
X191770Y1632458D01*
X217170Y1632458D02*
X217170Y1649222D01*
X242570Y1649222D02*
X242570Y1632458D01*
D22*
X533400Y1588008D02*
X533400Y1587500D01*
X571500Y1587500D02*
X571500Y1588008D01*
X1172464Y1677670D02*
X1173480Y1677670D01*
X1465072Y1646682D02*
X1465072Y1712976D01*
X1250188Y1677670D02*
X1249680Y1677670D01*
X101600Y1568500D02*
X100584Y1568196D01*
X245364Y1095756D02*
X245364Y1058672D01*
X245364Y1095756D02*
X216408Y1124712D01*
X215900Y1126200D01*
X204216Y1136904D02*
X204216Y1274064D01*
X204216Y1136904D02*
X214884Y1126236D01*
X204216Y1274064D02*
X203200Y1274100D01*
X214884Y1126236D02*
X215900Y1126200D01*
X315722Y1634490D02*
X325374Y1644142D01*
X315722Y1634490D02*
X315722Y1577594D01*
X277749Y1539621D02*
X204216Y1466088D01*
X277749Y1539621D02*
X315722Y1577594D01*
X204216Y1466088D02*
X203200Y1464600D01*
X577596Y1557020D02*
X655066Y1634490D01*
X577596Y1557020D02*
X531876Y1557020D01*
X514604Y1574292D01*
X238252Y1305560D02*
X206792Y1274100D01*
X238252Y1305560D02*
X238252Y1430528D01*
X204216Y1464564D01*
X203200Y1464600D01*
X245364Y1058672D02*
X331470Y972566D01*
X206792Y1274100D02*
X203200Y1274100D01*
X655066Y1634490D02*
X880400Y1634490D01*
X923580Y1677670D01*
X516890Y1681480D02*
X509270Y1681480D01*
X516890Y1681480D02*
X524220Y1681480D01*
X514350Y1676400D02*
X620050Y1676400D01*
X514604Y1676146D02*
X514604Y1574292D01*
X514604Y1676146D02*
X514350Y1676400D01*
X509270Y1681480D01*
X905510Y971550D02*
X915416Y971550D01*
X905510Y971550D02*
X900430Y971550D01*
X891540Y971550D01*
X915416Y971550D02*
X916813Y970153D01*
X883911Y979179D02*
X796589Y979179D01*
X792480Y975070D01*
D11*
X891531Y971559D02*
X898189Y971559D01*
X900421Y971559D01*
X900430Y971550D01*
D22*
X891531Y971559D02*
X883911Y979179D01*
D11*
X891531Y971559D02*
X891540Y971550D01*
X900421Y971559D02*
X915407Y971559D01*
X916813Y970153D01*
X900140Y971550D02*
X899160Y972530D01*
X900140Y971550D02*
X900430Y971550D01*
X899160Y972530D02*
X904530Y972530D01*
X905510Y971550D01*
X899160Y972530D02*
X898189Y971559D01*
X899160Y972530D02*
X914436Y972530D01*
X915407Y971559D01*
D22*
X789976Y972566D02*
X331470Y972566D01*
D11*
X789976Y972566D02*
X792480Y975070D01*
D22*
X216408Y1105176D02*
X216408Y1124712D01*
X216408Y1105176D02*
X238424Y1083160D01*
X238424Y958224D02*
X177800Y897600D01*
X238424Y958224D02*
X238424Y1083160D01*
D23*
X811530Y1860550D02*
X817880Y1866900D01*
X817880Y1882140D01*
X876300Y1882140D01*
X923580Y1834860D01*
X923580Y1677670D01*
X217170Y1640840D02*
X217170Y1605280D01*
X277749Y1544701D02*
X277749Y1539621D01*
X277749Y1544701D02*
X217170Y1605280D01*
X431247Y1658924D02*
X481193Y1658924D01*
X503749Y1681480D01*
X516890Y1681480D01*
X385790Y1685290D02*
X344642Y1644142D01*
X325374Y1644142D01*
X385790Y1685290D02*
X404881Y1685290D01*
X431247Y1658924D01*
D22*
X1498600Y1677670D02*
X1499580Y1677670D01*
X1427480Y1201470D02*
X1427480Y1163319D01*
X1407081Y1142920D01*
X1407081Y1112309D02*
X1470370Y1049020D01*
X1407081Y1112309D02*
X1407081Y1142920D01*
X1470596Y1649666D02*
X1498600Y1677670D01*
X1427480Y1227706D02*
X1427480Y1201470D01*
X1427480Y1227706D02*
X1470596Y1270822D01*
X1470596Y1649666D01*
X202692Y1531620D02*
X131064Y1531620D01*
X202692Y1531620D02*
X203200Y1532600D01*
X102108Y1502664D02*
X101600Y1501500D01*
X102108Y1502664D02*
X131064Y1531620D01*
X1315720Y1755394D02*
X1390396Y1755394D01*
X1465072Y1830070D01*
X1315720Y1755394D02*
X1315580Y1755070D01*
X1465072Y1830070D02*
X1465580Y1830070D01*
D23*
X786130Y1860550D02*
X786130Y1892300D01*
X802640Y1908810D01*
X923290Y1908810D01*
X1355090Y1849120D02*
X1367790Y1836420D01*
X1367790Y1807464D01*
X1315720Y1755394D01*
X982980Y1849120D02*
X923290Y1908810D01*
X982980Y1849120D02*
X1355090Y1849120D01*
D22*
X899160Y904530D02*
X888020Y904530D01*
X797560Y814070D02*
X795380Y814070D01*
X797560Y814070D02*
X888020Y904530D01*
X317790Y1685290D02*
X285532Y1717548D01*
X102108Y1717548D01*
X101600Y1717400D01*
X1250188Y953770D02*
X1300480Y953770D01*
X1250188Y953770D02*
X1161796Y1042162D01*
X1084580Y1080770D01*
X1431544Y1630426D02*
X1431544Y1677670D01*
X1431544Y1630426D02*
X1300480Y1499362D01*
X1300480Y953770D01*
X1431544Y1677670D02*
X1431580Y1677670D01*
X571500Y1078992D02*
X495300Y1078992D01*
X495300Y1079500D01*
X571500Y1079500D02*
X571500Y1078992D01*
X1071880Y1634236D02*
X1071880Y1677670D01*
X1071880Y1634236D02*
X1059688Y1622044D01*
X1059688Y1155700D01*
X1133527Y1081659D01*
X983234Y1079246D02*
X580644Y1079246D01*
X580390Y1079500D01*
X571500Y1079500D01*
X983234Y1079246D02*
X1059688Y1155700D01*
X1133527Y1081659D02*
X1134416Y1080770D01*
X1160780Y1080770D01*
X992632Y1677670D02*
X992632Y1747774D01*
X1023112Y1778254D01*
X992632Y1677670D02*
X991580Y1677670D01*
X1023112Y1778254D02*
X1023980Y1779270D01*
X1414780Y1410970D02*
X1414780Y1336548D01*
X1367028Y1288796D01*
X1367028Y985266D01*
X464312Y1078992D02*
X419100Y1078992D01*
X464312Y1078992D02*
X522986Y1020318D01*
X1153668Y1020318D01*
X1242060Y931926D01*
X1313688Y931926D01*
X1367028Y985266D01*
X419100Y1078992D02*
X419100Y1079500D01*
X1402370Y1109208D02*
X1402370Y1049020D01*
X1402370Y1109208D02*
X1389070Y1122508D01*
X1389070Y1385260D01*
X1414780Y1410970D01*
X419608Y1742292D02*
X373740Y1788160D01*
X419608Y1742292D02*
X419608Y1719580D01*
X418120Y1719580D01*
X456220Y1681480D01*
X666060Y1676400D02*
X688050Y1676400D01*
X666060Y1676400D02*
X594720Y1786890D01*
X176784Y829056D02*
X102108Y829056D01*
X89916Y816864D01*
X176784Y829056D02*
X177800Y829600D01*
X89916Y816864D02*
X88900Y815700D01*
X169164Y1341120D02*
X202692Y1341120D01*
X169164Y1341120D02*
X102108Y1274064D01*
X202692Y1341120D02*
X203200Y1342100D01*
X102108Y1274064D02*
X101600Y1272900D01*
X114300Y1057656D02*
X214884Y1057656D01*
X114300Y1057656D02*
X102108Y1045464D01*
X214884Y1057656D02*
X215900Y1058200D01*
X102108Y1045464D02*
X101600Y1044300D01*
X1347470Y1681480D02*
X1351280Y1677670D01*
X1347470Y1681480D02*
X1278890Y1681480D01*
X1209294Y1611884D01*
X1146302Y1611884D01*
X1123696Y1589278D01*
X1122680Y1588770D01*
X1122172Y1589278D02*
X1085596Y1589278D01*
X1122172Y1589278D02*
X1122680Y1588770D01*
X1085596Y1589278D02*
X1084580Y1588770D01*
D24*
X983488Y883666D03*
D23*
X1084580Y1588770D02*
X1092200Y1596390D01*
X1092200Y1711960D01*
X1092200Y1713230D01*
D24*
X1092200Y1711960D03*
D22*
X457200Y1588008D02*
X419100Y1588008D01*
X419100Y1587500D01*
X457200Y1587500D02*
X457200Y1588008D01*
X217170Y775970D02*
X183490Y775970D01*
X217170Y775970D02*
X323850Y882650D01*
X323850Y883771D02*
X335285Y895206D01*
X323850Y883771D02*
X323850Y882650D01*
X556404Y895206D02*
X572770Y878840D01*
D25*
X556404Y895206D02*
X335285Y895206D01*
D22*
X348850Y857650D02*
X593960Y857650D01*
D11*
X597770Y853840D01*
D22*
X618521Y907070D02*
X792480Y907070D01*
X618521Y907070D02*
X618200Y905510D01*
D11*
X616530Y903840D01*
D22*
X597770Y903840D01*
X352660Y903840D01*
D11*
X348850Y907650D01*
D22*
X348850Y882650D02*
X348999Y882650D01*
X578715Y863744D02*
X593811Y878840D01*
X597770Y878840D01*
X367905Y863744D02*
X348999Y882650D01*
X367905Y863744D02*
X578715Y863744D01*
M02*
